<svg xmlns="http://www.w3.org/2000/svg" width="55.366" height="58.704" viewBox="0 0 55.366 58.704">
  <g id="arrow-33" transform="translate(55.366 48.046) rotate(158)">
    <path id="Path_1176" data-name="Path 1176" d="M27.417,50.331a.67.67,0,0,1-.76-.631,3.866,3.866,0,0,1,.185-.794c.2-.511.429-1.009.67-1.5A34.811,34.811,0,0,0,30.4,36.721a22.423,22.423,0,0,0-.515-8.157c-.331-1.4-.726-2.791-1.185-4.156a24.59,24.59,0,0,0-3.572-6.44,36.316,36.316,0,0,0-6.77-6.869A53.67,53.67,0,0,0,9.716,5.518a68.177,68.177,0,0,0-8.23-3.761A11,11,0,0,1,.2,1.139.623.623,0,0,1,.073.392,1,1,0,0,1,.532.04a1.148,1.148,0,0,1,.6,0A9.194,9.194,0,0,1,2.305.426,79.979,79.979,0,0,1,12.15,5.093c1.477.859,2.958,1.743,4.379,2.7a44.131,44.131,0,0,1,3.606,2.735,36.861,36.861,0,0,1,6.5,6.869,28.645,28.645,0,0,1,4.723,10.862,50.708,50.708,0,0,1,.725,5.5,18.668,18.668,0,0,1-.374,4.293A35.741,35.741,0,0,1,28.34,49.223a5.034,5.034,0,0,1-.515.859A1.1,1.1,0,0,1,27.417,50.331Z" transform="translate(5.723 3.794)" fill="#9e9e9e"/>
    <path id="Path_1177" data-name="Path 1177" d="M6.916,0c.957.082,1.911.167,2.868.245.889.073,1.777.129,2.666.2A24.681,24.681,0,0,1,22.694,3.224a8.07,8.07,0,0,1,.859.567.683.683,0,0,1-.567,1.134,2.438,2.438,0,0,1-.768-.266,23.725,23.725,0,0,0-9.844-2.709,42.381,42.381,0,0,0-9.037-.125,3.359,3.359,0,0,0-.79.2.369.369,0,0,0-.163.322,7.148,7.148,0,0,0,.511.859C5.68,7.44,8.668,11.549,11.05,16.057a8.853,8.853,0,0,1,1.065,2.876,2.215,2.215,0,0,1,0,.605.6.6,0,0,1-.554.524.816.816,0,0,1-.541-.2,1.026,1.026,0,0,1-.318-.511A20.336,20.336,0,0,0,8.127,14c-1.391-2.366-2.9-4.654-4.482-6.9C2.618,5.641,1.7,4.091.639,2.683a6.806,6.806,0,0,1-.6-1.069A.687.687,0,0,1,.42.756,2.222,2.222,0,0,1,1,.554C2.953.408,4.894,0,6.916,0Z" transform="translate(0 0)" fill="#9e9e9e"/>
  </g>
</svg>
