<svg id="Illustration" xmlns="http://www.w3.org/2000/svg" width="509.274" height="232.043" viewBox="0 0 509.274 232.043">
  <path id="Path_1465" data-name="Path 1465" d="M174.687,510.223l-.874-.2A198.928,198.928,0,0,1,561.75,509.5l-.873.2c-20.628-90.571-100.007-153.828-193.036-153.828C276.032,355.868,194.8,420.783,174.687,510.223Z" transform="translate(-110.07 -281.515)" fill="#3f3d56"/>
  <circle id="Ellipse_271" data-name="Ellipse 271" cx="24.328" cy="24.328" r="24.328" transform="translate(378.626 74.168)" fill="#ff6584"/>
  <rect id="Rectangle_364" data-name="Rectangle 364" width="0.896" height="35.385" transform="translate(392.817 195.762)" fill="#3f3d56"/>
  <path id="Path_1466" data-name="Path 1466" d="M907.383,610.531c.057,12.373-8.648,22.444-8.648,22.444s-8.8-9.99-8.855-22.363,8.648-22.444,8.648-22.444S907.326,598.158,907.383,610.531Z" transform="translate(-505.403 -410.26)" fill="#81d8d0"/>
  <path id="Path_1467" data-name="Path 1467" d="M907.383,610.531c.057,12.373-8.648,22.444-8.648,22.444s-8.8-9.99-8.855-22.363,8.648-22.444,8.648-22.444S907.326,598.158,907.383,610.531Z" transform="translate(-505.403 -410.26)" opacity="0.1"/>
  <circle id="Ellipse_272" data-name="Ellipse 272" cx="13.996" cy="13.996" r="13.996" transform="translate(210.416 97.418)" fill="#81d8d0" opacity="0.4"/>
  <circle id="Ellipse_273" data-name="Ellipse 273" cx="9.818" cy="9.818" r="9.818" transform="translate(188.691 108.281)" fill="#81d8d0" opacity="0.4"/>
  <circle id="Ellipse_274" data-name="Ellipse 274" cx="9.818" cy="9.818" r="9.818" transform="translate(83.432 136.499)" fill="#81d8d0" opacity="0.4"/>
  <circle id="Ellipse_275" data-name="Ellipse 275" cx="13.996" cy="13.996" r="13.996" transform="translate(369.554 96.266)" fill="#81d8d0" opacity="0.4"/>
  <path id="Path_1468" data-name="Path 1468" d="M87.848,691.323a9.015,9.015,0,0,0,3.358,4.542,7.762,7.762,0,0,0-2.748-10.157A9.015,9.015,0,0,0,87.848,691.323Z" transform="translate(-62.483 -464.111)" fill="#3f3d56"/>
  <path id="Path_1469" data-name="Path 1469" d="M84.206,694.19a9.015,9.015,0,0,1,2.336,5.142A7.762,7.762,0,0,1,79,691.993,9.015,9.015,0,0,1,84.206,694.19Z" transform="translate(-57.726 -467.581)" fill="#81d8d0"/>
  <path id="Path_1470" data-name="Path 1470" d="M699.848,691.323a9.015,9.015,0,0,0,3.358,4.542,7.762,7.762,0,0,0-2.748-10.157A9.015,9.015,0,0,0,699.848,691.323Z" transform="translate(-400.362 -464.111)" fill="#3f3d56"/>
  <path id="Path_1471" data-name="Path 1471" d="M696.206,694.19a9.015,9.015,0,0,1,2.336,5.142,7.762,7.762,0,0,1-7.54-7.339A9.015,9.015,0,0,1,696.206,694.19Z" transform="translate(-395.605 -467.581)" fill="#81d8d0"/>
  <path id="Path_1472" data-name="Path 1472" d="M65.853,438.123,64,435.035,81.3,420.21H125.77v4.324l-16.06,17.3-18.531,3.706Z" transform="translate(-35.334 -231.994)" fill="#3f3d56"/>
  <path id="Path_1473" data-name="Path 1473" d="M184.438,427.721v-9.665h-5.823V421.1l-1.833-2.083-14.825,14.825-2.471,2.471L156.4,448.671l5.559,13.589h28.414v-27.8Z" transform="translate(-86.346 -230.805)" fill="#ccc"/>
  <rect id="Rectangle_365" data-name="Rectangle 365" width="46.945" height="28.414" transform="translate(28.666 203.041)" fill="#f2f2f2"/>
  <rect id="Rectangle_366" data-name="Rectangle 366" width="9.883" height="8.648" transform="translate(59.242 211.998)" fill="#3f3d56"/>
  <rect id="Rectangle_367" data-name="Rectangle 367" width="8.648" height="19.766" transform="translate(46.58 211.689)" fill="#ccc"/>
  <path id="Path_1474" data-name="Path 1474" d="M77.36,475.7v-3.088H73.654V475.7H77.36Z" transform="translate(-40.664 -260.926)" fill="#3f3d56"/>
  <path id="Path_1475" data-name="Path 1475" d="M77.051,485.026h-3.4v3.089H77.36v-3.089Z" transform="translate(-40.664 -267.778)" fill="#3f3d56"/>
  <rect id="Rectangle_368" data-name="Rectangle 368" width="3.706" height="3.089" transform="translate(39.167 211.689)" fill="#3f3d56"/>
  <rect id="Rectangle_369" data-name="Rectangle 369" width="3.706" height="3.089" transform="translate(39.167 217.248)" fill="#3f3d56"/>
  <path id="Path_1476" data-name="Path 1476" d="M193.891,476.393V473.3h-3.706v3.089h3.706Z" transform="translate(-104.999 -261.306)" fill="#3f3d56"/>
  <path id="Path_1477" data-name="Path 1477" d="M193.582,485.716h-3.4V488.8h3.706v-3.088Z" transform="translate(-104.999 -268.159)" fill="#3f3d56"/>
  <rect id="Rectangle_370" data-name="Rectangle 370" width="3.706" height="3.089" transform="translate(91.363 211.998)" fill="#3f3d56"/>
  <rect id="Rectangle_371" data-name="Rectangle 371" width="3.706" height="3.089" transform="translate(91.363 217.557)" fill="#3f3d56"/>
  <path id="Path_1478" data-name="Path 1478" d="M464.853,438.123,463,435.035l17.3-14.825H524.77v4.324l-16.06,17.3-18.531,3.706Z" transform="translate(-255.618 -231.994)" fill="#3f3d56"/>
  <path id="Path_1479" data-name="Path 1479" d="M583.438,427.721v-9.665h-5.823V421.1l-1.833-2.083-14.825,14.825-2.471,2.471L555.4,448.671l5.56,13.589h28.414v-27.8Z" transform="translate(-306.63 -230.805)" fill="#ccc"/>
  <rect id="Rectangle_372" data-name="Rectangle 372" width="46.945" height="28.414" transform="translate(207.382 203.041)" fill="#f2f2f2"/>
  <rect id="Rectangle_373" data-name="Rectangle 373" width="9.883" height="8.648" transform="translate(237.959 211.998)" fill="#3f3d56"/>
  <rect id="Rectangle_374" data-name="Rectangle 374" width="8.648" height="19.766" transform="translate(225.296 211.689)" fill="#ccc"/>
  <path id="Path_1480" data-name="Path 1480" d="M476.36,475.7v-3.088h-3.706V475.7h3.706Z" transform="translate(-260.948 -260.926)" fill="#3f3d56"/>
  <path id="Path_1481" data-name="Path 1481" d="M476.051,485.026h-3.4v3.089h3.706v-3.089Z" transform="translate(-260.948 -267.778)" fill="#3f3d56"/>
  <rect id="Rectangle_375" data-name="Rectangle 375" width="3.706" height="3.089" transform="translate(217.883 211.689)" fill="#3f3d56"/>
  <rect id="Rectangle_376" data-name="Rectangle 376" width="3.706" height="3.089" transform="translate(217.883 217.248)" fill="#3f3d56"/>
  <path id="Path_1482" data-name="Path 1482" d="M592.891,476.393V473.3h-3.707v3.089h3.707Z" transform="translate(-325.283 -261.306)" fill="#3f3d56"/>
  <path id="Path_1483" data-name="Path 1483" d="M592.582,485.716h-3.4V488.8h3.707v-3.088Z" transform="translate(-325.283 -268.159)" fill="#3f3d56"/>
  <rect id="Rectangle_377" data-name="Rectangle 377" width="3.706" height="3.089" transform="translate(270.079 211.998)" fill="#3f3d56"/>
  <rect id="Rectangle_378" data-name="Rectangle 378" width="3.706" height="3.089" transform="translate(270.079 217.557)" fill="#3f3d56"/>
  <path id="Path_1484" data-name="Path 1484" d="M276.708,322.281l-3.088-2.471,17.3-15.443h43.857v13.59l-28.414,19.149Z" transform="translate(-151.063 -168.038)" fill="#3f3d56"/>
  <path id="Path_1485" data-name="Path 1485" d="M383.155,313.03v-8.354h-5.823v2.046l-2.173-2.355L360.952,319.81l-5.559,3.706-8.62,62.978,13,13h30.212V320.427Z" transform="translate(-191.45 -168.038)" fill="#ccc"/>
  <rect id="Rectangle_379" data-name="Rectangle 379" width="46.945" height="79.684" transform="translate(122.557 151.772)" fill="#f2f2f2"/>
  <rect id="Rectangle_380" data-name="Rectangle 380" width="8.648" height="19.458" transform="translate(140.779 211.998)" fill="#ccc"/>
  <path id="Path_1486" data-name="Path 1486" d="M289.048,481.909v-3.088h-3.706v3.088h3.706Z" transform="translate(-157.535 -264.352)" fill="#3f3d56"/>
  <path id="Path_1487" data-name="Path 1487" d="M288.739,491.232h-3.4v3.089h3.706v-3.089Z" transform="translate(-157.535 -271.204)" fill="#3f3d56"/>
  <rect id="Rectangle_381" data-name="Rectangle 381" width="3.706" height="3.089" transform="translate(133.984 214.469)" fill="#3f3d56"/>
  <rect id="Rectangle_382" data-name="Rectangle 382" width="3.706" height="3.089" transform="translate(133.984 220.028)" fill="#3f3d56"/>
  <path id="Path_1488" data-name="Path 1488" d="M345.59,481.909v-3.088h-3.706v3.088h3.706Z" transform="translate(-188.751 -264.352)" fill="#3f3d56"/>
  <path id="Path_1489" data-name="Path 1489" d="M345.281,491.232h-3.4v3.089h3.706v-3.089Z" transform="translate(-188.751 -271.204)" fill="#3f3d56"/>
  <rect id="Rectangle_383" data-name="Rectangle 383" width="3.706" height="3.089" transform="translate(159.31 214.469)" fill="#3f3d56"/>
  <rect id="Rectangle_384" data-name="Rectangle 384" width="3.706" height="3.089" transform="translate(159.31 220.028)" fill="#3f3d56"/>
  <path id="Path_1490" data-name="Path 1490" d="M403.511,344v-3.088H399.8V344h3.706Z" transform="translate(-220.728 -188.215)" fill="#3f3d56"/>
  <path id="Path_1491" data-name="Path 1491" d="M403.2,353.325h-3.4v3.088h3.706v-3.088Z" transform="translate(-220.728 -195.067)" fill="#3f3d56"/>
  <rect id="Rectangle_385" data-name="Rectangle 385" width="3.706" height="3.089" transform="translate(185.254 152.698)" fill="#3f3d56"/>
  <rect id="Rectangle_386" data-name="Rectangle 386" width="3.706" height="3.089" transform="translate(185.254 158.258)" fill="#3f3d56"/>
  <path id="Path_1492" data-name="Path 1492" d="M403.511,382.616v-3.089H399.8v3.089h3.706Z" transform="translate(-220.728 -209.533)" fill="#3f3d56"/>
  <path id="Path_1493" data-name="Path 1493" d="M403.2,391.939h-3.4v3.088h3.706v-3.088Z" transform="translate(-220.728 -216.386)" fill="#3f3d56"/>
  <rect id="Rectangle_387" data-name="Rectangle 387" width="3.706" height="3.089" transform="translate(185.254 169.994)" fill="#3f3d56"/>
  <rect id="Rectangle_388" data-name="Rectangle 388" width="3.706" height="3.089" transform="translate(185.254 175.553)" fill="#3f3d56"/>
  <path id="Path_1494" data-name="Path 1494" d="M403.511,421.23v-3.089H399.8v3.089h3.706Z" transform="translate(-220.728 -230.851)" fill="#3f3d56"/>
  <path id="Path_1495" data-name="Path 1495" d="M403.2,430.553h-3.4v3.088h3.706v-3.088Z" transform="translate(-220.728 -237.704)" fill="#3f3d56"/>
  <rect id="Rectangle_389" data-name="Rectangle 389" width="3.706" height="3.089" transform="translate(185.254 187.29)" fill="#3f3d56"/>
  <rect id="Rectangle_390" data-name="Rectangle 390" width="3.706" height="3.089" transform="translate(185.254 192.849)" fill="#3f3d56"/>
  <path id="Path_1496" data-name="Path 1496" d="M403.511,459.844v-3.089H399.8v3.089h3.706Z" transform="translate(-220.728 -252.17)" fill="#3f3d56"/>
  <path id="Path_1497" data-name="Path 1497" d="M403.2,469.167h-3.4v3.088h3.706v-3.088Z" transform="translate(-220.728 -259.022)" fill="#3f3d56"/>
  <rect id="Rectangle_391" data-name="Rectangle 391" width="3.706" height="3.089" transform="translate(185.254 204.585)" fill="#3f3d56"/>
  <rect id="Rectangle_392" data-name="Rectangle 392" width="3.706" height="3.089" transform="translate(185.254 210.145)" fill="#3f3d56"/>
  <rect id="Rectangle_393" data-name="Rectangle 393" width="35.827" height="7.412" transform="translate(127.807 155.787)" fill="#3f3d56"/>
  <rect id="Rectangle_394" data-name="Rectangle 394" width="35.827" height="7.412" transform="translate(127.807 170.612)" fill="#3f3d56"/>
  <rect id="Rectangle_395" data-name="Rectangle 395" width="35.827" height="7.412" transform="translate(127.807 185.437)" fill="#3f3d56"/>
  <rect id="Rectangle_396" data-name="Rectangle 396" width="35.827" height="7.412" transform="translate(127.807 200.261)" fill="#3f3d56"/>
  <path id="Path_1498" data-name="Path 1498" d="M679.708,322.281l-3.088-2.471,17.3-15.443h43.857v13.59l-28.414,19.149Z" transform="translate(-373.555 -168.038)" fill="#3f3d56"/>
  <path id="Path_1499" data-name="Path 1499" d="M786.155,313.03v-8.354h-5.823v2.046l-2.173-2.355L763.952,319.81l-5.559,3.706-8.62,62.978,13,13h30.211V320.427Z" transform="translate(-413.942 -168.038)" fill="#ccc"/>
  <rect id="Rectangle_397" data-name="Rectangle 397" width="46.945" height="79.684" transform="translate(303.065 151.772)" fill="#f2f2f2"/>
  <rect id="Rectangle_398" data-name="Rectangle 398" width="8.648" height="19.458" transform="translate(321.287 211.998)" fill="#ccc"/>
  <path id="Path_1500" data-name="Path 1500" d="M692.048,481.909v-3.088h-3.706v3.088h3.706Z" transform="translate(-380.027 -264.352)" fill="#3f3d56"/>
  <path id="Path_1501" data-name="Path 1501" d="M691.739,491.232h-3.4v3.089h3.706v-3.089Z" transform="translate(-380.027 -271.204)" fill="#3f3d56"/>
  <rect id="Rectangle_399" data-name="Rectangle 399" width="3.706" height="3.089" transform="translate(314.492 214.469)" fill="#3f3d56"/>
  <rect id="Rectangle_400" data-name="Rectangle 400" width="3.706" height="3.089" transform="translate(314.492 220.028)" fill="#3f3d56"/>
  <path id="Path_1502" data-name="Path 1502" d="M748.59,481.909v-3.088h-3.706v3.088h3.706Z" transform="translate(-411.243 -264.352)" fill="#3f3d56"/>
  <path id="Path_1503" data-name="Path 1503" d="M748.281,491.232h-3.4v3.089h3.706v-3.089Z" transform="translate(-411.243 -271.204)" fill="#3f3d56"/>
  <rect id="Rectangle_401" data-name="Rectangle 401" width="3.706" height="3.089" transform="translate(339.818 214.469)" fill="#3f3d56"/>
  <rect id="Rectangle_402" data-name="Rectangle 402" width="3.706" height="3.089" transform="translate(339.818 220.028)" fill="#3f3d56"/>
  <path id="Path_1504" data-name="Path 1504" d="M806.511,344v-3.088h-3.706V344h3.706Z" transform="translate(-443.221 -188.215)" fill="#3f3d56"/>
  <path id="Path_1505" data-name="Path 1505" d="M806.2,353.325h-3.4v3.088h3.706v-3.088Z" transform="translate(-443.221 -195.067)" fill="#3f3d56"/>
  <rect id="Rectangle_403" data-name="Rectangle 403" width="3.706" height="3.089" transform="translate(365.761 152.698)" fill="#3f3d56"/>
  <rect id="Rectangle_404" data-name="Rectangle 404" width="3.706" height="3.089" transform="translate(365.761 158.258)" fill="#3f3d56"/>
  <path id="Path_1506" data-name="Path 1506" d="M806.511,382.616v-3.089h-3.706v3.089h3.706Z" transform="translate(-443.221 -209.533)" fill="#3f3d56"/>
  <path id="Path_1507" data-name="Path 1507" d="M806.2,391.939h-3.4v3.088h3.706v-3.088Z" transform="translate(-443.221 -216.386)" fill="#3f3d56"/>
  <rect id="Rectangle_405" data-name="Rectangle 405" width="3.706" height="3.089" transform="translate(365.761 169.994)" fill="#3f3d56"/>
  <rect id="Rectangle_406" data-name="Rectangle 406" width="3.706" height="3.089" transform="translate(365.761 175.553)" fill="#3f3d56"/>
  <path id="Path_1508" data-name="Path 1508" d="M806.511,421.23v-3.089h-3.706v3.089h3.706Z" transform="translate(-443.221 -230.851)" fill="#3f3d56"/>
  <path id="Path_1509" data-name="Path 1509" d="M806.2,430.553h-3.4v3.088h3.706v-3.088Z" transform="translate(-443.221 -237.704)" fill="#3f3d56"/>
  <rect id="Rectangle_407" data-name="Rectangle 407" width="3.706" height="3.089" transform="translate(365.761 187.29)" fill="#3f3d56"/>
  <rect id="Rectangle_408" data-name="Rectangle 408" width="3.706" height="3.089" transform="translate(365.761 192.849)" fill="#3f3d56"/>
  <path id="Path_1510" data-name="Path 1510" d="M806.511,459.844v-3.089h-3.706v3.089h3.706Z" transform="translate(-443.221 -252.17)" fill="#3f3d56"/>
  <path id="Path_1511" data-name="Path 1511" d="M806.2,469.167h-3.4v3.088h3.706v-3.088Z" transform="translate(-443.221 -259.022)" fill="#3f3d56"/>
  <rect id="Rectangle_409" data-name="Rectangle 409" width="3.706" height="3.089" transform="translate(365.761 204.585)" fill="#3f3d56"/>
  <rect id="Rectangle_410" data-name="Rectangle 410" width="3.706" height="3.089" transform="translate(365.761 210.145)" fill="#3f3d56"/>
  <rect id="Rectangle_411" data-name="Rectangle 411" width="35.827" height="7.412" transform="translate(308.315 155.787)" fill="#3f3d56"/>
  <rect id="Rectangle_412" data-name="Rectangle 412" width="35.827" height="7.412" transform="translate(308.315 170.612)" fill="#3f3d56"/>
  <rect id="Rectangle_413" data-name="Rectangle 413" width="35.827" height="7.412" transform="translate(308.315 185.437)" fill="#3f3d56"/>
  <rect id="Rectangle_414" data-name="Rectangle 414" width="35.827" height="7.412" transform="translate(308.315 200.261)" fill="#3f3d56"/>
  <path id="Path_1512" data-name="Path 1512" d="M900.708,322.281l-3.088-2.471,17.3-15.443h43.857v13.59l-28.414,19.149Z" transform="translate(-495.567 -168.038)" fill="#3f3d56"/>
  <path id="Path_1513" data-name="Path 1513" d="M1007.155,313.03v-8.354h-5.823v2.046l-2.173-2.355L984.952,319.81l-5.559,3.706-8.62,62.978,13,13h30.211V320.427Z" transform="translate(-535.954 -168.038)" fill="#ccc"/>
  <rect id="Rectangle_415" data-name="Rectangle 415" width="46.945" height="79.684" transform="translate(402.053 151.772)" fill="#f2f2f2"/>
  <rect id="Rectangle_416" data-name="Rectangle 416" width="8.648" height="19.458" transform="translate(420.275 211.998)" fill="#ccc"/>
  <path id="Path_1514" data-name="Path 1514" d="M913.048,481.909v-3.088h-3.706v3.088h3.706Z" transform="translate(-502.039 -264.352)" fill="#3f3d56"/>
  <path id="Path_1515" data-name="Path 1515" d="M912.739,491.232h-3.4v3.089h3.706v-3.089Z" transform="translate(-502.039 -271.204)" fill="#3f3d56"/>
  <rect id="Rectangle_417" data-name="Rectangle 417" width="3.706" height="3.089" transform="translate(413.48 214.469)" fill="#3f3d56"/>
  <rect id="Rectangle_418" data-name="Rectangle 418" width="3.706" height="3.089" transform="translate(413.48 220.028)" fill="#3f3d56"/>
  <path id="Path_1516" data-name="Path 1516" d="M969.59,481.909v-3.088h-3.706v3.088h3.706Z" transform="translate(-533.255 -264.352)" fill="#3f3d56"/>
  <path id="Path_1517" data-name="Path 1517" d="M969.281,491.232h-3.4v3.089h3.706v-3.089Z" transform="translate(-533.255 -271.204)" fill="#3f3d56"/>
  <rect id="Rectangle_419" data-name="Rectangle 419" width="3.706" height="3.089" transform="translate(438.806 214.469)" fill="#3f3d56"/>
  <rect id="Rectangle_420" data-name="Rectangle 420" width="3.706" height="3.089" transform="translate(438.806 220.028)" fill="#3f3d56"/>
  <path id="Path_1518" data-name="Path 1518" d="M1027.511,344v-3.088H1023.8V344h3.706Z" transform="translate(-565.233 -188.215)" fill="#3f3d56"/>
  <path id="Path_1519" data-name="Path 1519" d="M1027.2,353.325h-3.4v3.088h3.706v-3.088Z" transform="translate(-565.233 -195.067)" fill="#3f3d56"/>
  <rect id="Rectangle_421" data-name="Rectangle 421" width="3.706" height="3.089" transform="translate(464.749 152.698)" fill="#3f3d56"/>
  <rect id="Rectangle_422" data-name="Rectangle 422" width="3.706" height="3.089" transform="translate(464.749 158.258)" fill="#3f3d56"/>
  <path id="Path_1520" data-name="Path 1520" d="M1027.511,382.616v-3.089H1023.8v3.089h3.706Z" transform="translate(-565.233 -209.533)" fill="#3f3d56"/>
  <path id="Path_1521" data-name="Path 1521" d="M1027.2,391.939h-3.4v3.088h3.706v-3.088Z" transform="translate(-565.233 -216.386)" fill="#3f3d56"/>
  <rect id="Rectangle_423" data-name="Rectangle 423" width="3.706" height="3.089" transform="translate(464.749 169.994)" fill="#3f3d56"/>
  <rect id="Rectangle_424" data-name="Rectangle 424" width="3.706" height="3.089" transform="translate(464.749 175.553)" fill="#3f3d56"/>
  <path id="Path_1522" data-name="Path 1522" d="M1027.511,421.23v-3.089H1023.8v3.089h3.706Z" transform="translate(-565.233 -230.851)" fill="#3f3d56"/>
  <path id="Path_1523" data-name="Path 1523" d="M1027.2,430.553h-3.4v3.088h3.706v-3.088Z" transform="translate(-565.233 -237.704)" fill="#3f3d56"/>
  <rect id="Rectangle_425" data-name="Rectangle 425" width="3.706" height="3.089" transform="translate(464.749 187.29)" fill="#3f3d56"/>
  <rect id="Rectangle_426" data-name="Rectangle 426" width="3.706" height="3.089" transform="translate(464.749 192.849)" fill="#3f3d56"/>
  <path id="Path_1524" data-name="Path 1524" d="M1027.511,459.844v-3.089H1023.8v3.089h3.706Z" transform="translate(-565.233 -252.17)" fill="#3f3d56"/>
  <path id="Path_1525" data-name="Path 1525" d="M1027.2,469.167h-3.4v3.088h3.706v-3.088Z" transform="translate(-565.233 -259.022)" fill="#3f3d56"/>
  <rect id="Rectangle_427" data-name="Rectangle 427" width="3.706" height="3.089" transform="translate(464.749 204.585)" fill="#3f3d56"/>
  <rect id="Rectangle_428" data-name="Rectangle 428" width="3.706" height="3.089" transform="translate(464.749 210.145)" fill="#3f3d56"/>
  <rect id="Rectangle_429" data-name="Rectangle 429" width="35.827" height="7.412" transform="translate(407.303 155.787)" fill="#3f3d56"/>
  <rect id="Rectangle_430" data-name="Rectangle 430" width="35.827" height="7.412" transform="translate(407.303 170.612)" fill="#3f3d56"/>
  <rect id="Rectangle_431" data-name="Rectangle 431" width="35.827" height="7.412" transform="translate(407.303 185.437)" fill="#3f3d56"/>
  <rect id="Rectangle_432" data-name="Rectangle 432" width="35.827" height="7.412" transform="translate(407.303 200.261)" fill="#3f3d56"/>
  <rect id="Rectangle_433" data-name="Rectangle 433" width="509.274" height="0.896" transform="translate(0 231.147)" fill="#3f3d56"/>
  <rect id="Rectangle_434" data-name="Rectangle 434" width="0.896" height="35.385" transform="translate(112.873 195.762)" fill="#3f3d56"/>
  <path id="Path_1526" data-name="Path 1526" d="M282.383,610.531c.057,12.373-8.648,22.444-8.648,22.444s-8.8-9.99-8.855-22.363,8.648-22.444,8.648-22.444S282.326,598.158,282.383,610.531Z" transform="translate(-160.347 -410.26)" fill="#81d8d0"/>
  <rect id="Rectangle_435" data-name="Rectangle 435" width="0.896" height="35.385" transform="translate(202.455 195.762)" fill="#3f3d56"/>
  <path id="Path_1527" data-name="Path 1527" d="M482.384,610.531c.057,12.373-8.648,22.444-8.648,22.444s-8.8-9.99-8.855-22.363,8.648-22.444,8.648-22.444S482.326,598.158,482.384,610.531Z" transform="translate(-270.765 -410.26)" fill="#81d8d0"/>
  <rect id="Rectangle_436" data-name="Rectangle 436" width="0.896" height="35.385" transform="translate(381.171 195.762)" fill="#3f3d56"/>
  <path id="Path_1528" data-name="Path 1528" d="M881.383,610.531c.057,12.373-8.648,22.444-8.648,22.444s-8.8-9.99-8.855-22.363,8.648-22.444,8.648-22.444S881.326,598.158,881.383,610.531Z" transform="translate(-491.049 -410.26)" fill="#81d8d0"/>
  <ellipse id="Ellipse_276" data-name="Ellipse 276" cx="17.021" cy="3.83" rx="17.021" ry="3.83" transform="translate(246.126 69.404)" fill="#81d8d0"/>
  <path id="Path_1529" data-name="Path 1529" d="M613.416,210.68c0,10.884-19.708,41.656-19.708,41.656S574,221.564,574,210.68a19.708,19.708,0,1,1,39.416,0Z" transform="translate(-331.009 -190.972)" fill="#81d8d0"/>
  <circle id="Ellipse_277" data-name="Ellipse 277" cx="11.198" cy="11.198" r="11.198" transform="translate(251.501 8.51)" fill="#f2f2f2"/>
</svg>
