<svg xmlns="http://www.w3.org/2000/svg" xmlns:xlink="http://www.w3.org/1999/xlink" width="388" height="260" viewBox="0 0 388 260"><defs><linearGradient id="a" x1="0.5" y1="1" x2="0.5" gradientUnits="objectBoundingBox"><stop offset="0" stop-color="gray" stop-opacity="0.251"/><stop offset="0.54" stop-color="gray" stop-opacity="0.122"/><stop offset="1" stop-color="gray" stop-opacity="0.102"/></linearGradient></defs><g transform="translate(-0.001 0)"><path d="M249.371,107.316c-24.874-.87-48.562-8.9-71.17-17.7s-45.03-18.545-69.307-23.2c-15.633-3-33.492-3.419-46.074,4.967C50.714,79.445,46.8,93.37,44.7,106.288c-1.583,9.721-2.512,19.954,1.822,29.052,3.011,6.319,8.355,11.629,12.053,17.682,12.871,21.054,3.779,47.02-10.167,67.581-6.54,9.643-14.124,18.845-19.169,29.112s-7.379,22.031-2.964,32.5c4.378,10.378,14.8,18.177,26.1,23.66,22.941,11.127,49.973,14.327,76.332,16.134,58.352,4,117.014,2.266,175.521.533,21.651-.641,43.4-1.291,64.7-4.643,11.831-1.861,24.042-4.815,32.63-11.95,10.9-9.053,13.6-24.385,6.3-35.741C395.6,251.168,361.711,246.441,353.154,226c-4.715-11.248.128-23.781,6.978-34.214,14.7-22.382,39.328-42.016,40.628-67.6.889-17.571-10.952-35.165-29.262-43.5-19.2-8.713-45.8-7.617-59.962,6.808C296.957,102.366,271.335,108.081,249.371,107.316Z" transform="translate(-23.94 -64.45)" fill="#81d8d0" opacity="0.1"/><g transform="translate(155.496 135.738)" opacity="0.5"><path d="M474.953,402.58l-11.28.233-1.844,2.532v8.748l2.3,1.611h10.821l2.3-2.532v-8.289Z" transform="translate(-461.83 -402.57)" fill="#81d8d0"/><path d="M501.82,468.392s-10.359,1.611-11.28,0l.233-1.149L501.82,467Z" transform="translate(-488.932 -467)" fill="#fff" opacity="0.2"/><path d="M501.623,542.1l1.841,1.844v8.765l-1.841,1.814s-6.675,2.3-11.05.458l-2.073-2.07v-8.765l1.844-2.073Z" transform="translate(-487.58 -516.764)" fill="#81d8d0"/><path d="M504.788,544.223s-8.057,1.841-10.818,0V542.15h11.279Z" transform="translate(-491.206 -516.817)" fill="#fff" opacity="0.2"/><path d="M506.76,502.3v12.453a1.867,1.867,0,0,1-1.955,1.766h0a1.868,1.868,0,0,1-1.955-1.766V502.3a1.891,1.891,0,0,1,2.184-1.756h0A1.841,1.841,0,0,1,506.76,502.3Z" transform="translate(-497.092 -489.23)" fill="#81d8d0"/><path d="M528.543,403.64l-11.28.229L515.42,406.4v8.748l2.3,1.611h10.821l2.3-2.532v-8.289Z" transform="translate(-497.355 -403.273)" fill="#81d8d0"/><path d="M555.419,469.469s-10.359,1.611-11.279,0l.229-1.15,11.05-.229Z" transform="translate(-524.463 -467.723)" fill="#fff" opacity="0.2"/><path d="M555.193,543.2l1.841,1.844v8.765l-1.841,1.824s-6.678,2.3-11.05.458l-2.073-2.07v-8.748l1.844-2.073Z" transform="translate(-523.091 -517.513)" fill="#81d8d0"/><path d="M558.378,545.273s-8.057,1.841-10.818,0V543.2h11.273Z" transform="translate(-526.73 -517.513)" fill="#fff" opacity="0.2"/><path d="M560.3,503.353v12.453a1.871,1.871,0,0,1-1.955,1.766h0a1.871,1.871,0,0,1-1.959-1.766V503.353a1.892,1.892,0,0,1,2.188-1.756h0a1.841,1.841,0,0,1,1.726,1.756Z" transform="translate(-532.584 -489.926)" fill="#81d8d0"/><path d="M601.324,423.39l-9.287.192-1.517,2.083v7.2l1.894,1.328h8.91l1.895-2.087v-6.823Z" transform="translate(-547.138 -416.365)" fill="#81d8d0"/><path d="M627.684,488.979s-8.526,1.325-9.284,0l.189-.947,9.1-.192Z" transform="translate(-573.69 -480.815)" fill="#fff" opacity="0.2"/><path d="M627.5,549.68l1.517,1.517v7.2l-1.517,1.517s-5.495,1.894-9.1.378l-1.706-1.706v-7.2l1.517-1.706Z" transform="translate(-572.556 -521.808)" fill="#81d8d0"/><path d="M630.116,551.386s-6.634,1.517-8.906,0V549.68h9.284Z" transform="translate(-575.553 -521.808)" fill="#fff" opacity="0.2"/><path d="M631.739,516.859V527.11a1.537,1.537,0,0,1-1.611,1.453h0a1.534,1.534,0,0,1-1.608-1.453V516.859a1.557,1.557,0,0,1,1.8-1.446h0A1.517,1.517,0,0,1,631.739,516.859Z" transform="translate(-580.398 -499.08)" fill="#81d8d0"/><path d="M645.441,424.26l-9.287.189-1.514,2.083v7.2l1.894,1.325h8.906l1.894-2.083v-6.823Z" transform="translate(-576.385 -416.941)" fill="#81d8d0"/><path d="M671.8,489.846s-8.529,1.328-9.287,0l.189-.947,9.1-.189Z" transform="translate(-602.93 -481.392)" fill="#fff" opacity="0.2"/><path d="M671.624,550.55l1.514,1.514v7.2l-1.514,1.517s-5.5,1.895-9.1.381l-1.7-1.7v-7.211l1.517-1.706Z" transform="translate(-601.81 -522.385)" fill="#81d8d0"/><path d="M674.226,552.256s-6.631,1.514-8.906,0V550.55h9.287Z" transform="translate(-604.793 -522.385)" fill="#fff" opacity="0.2"/><path d="M675.853,517.743v10.248a1.537,1.537,0,0,1-1.611,1.453h0a1.537,1.537,0,0,1-1.611-1.453V517.743a1.561,1.561,0,0,1,1.8-1.443h0A1.514,1.514,0,0,1,675.853,517.743Z" transform="translate(-609.639 -499.674)" fill="#81d8d0"/></g><path d="M413.072,310.347a5.684,5.684,0,0,0-3.5-2.573,12.779,12.779,0,0,0-4.4-.276,38.674,38.674,0,0,0-7.048,1.163,7.341,7.341,0,0,0-3.882,2.023c-.027.034-.057.074-.088.108-1.478.388-2.946.985-4.377,1.47a41.037,41.037,0,0,1-4.377,1.19,25.929,25.929,0,0,0,5.418-3.827,15.333,15.333,0,0,0,2.02-2.414,8.006,8.006,0,0,0,3.367.226c2.28-.391,4.121-2.023,5.835-3.615l5.512-5.078a11.188,11.188,0,0,0,2.357-2.7,10.569,10.569,0,0,0,.882-4.91c.027-2.313,0-4.626-.067-6.936l1.744,1.349a15.486,15.486,0,0,1,1.529-8.282,9.246,9.246,0,0,0,1.418-3.814c.027-2.118-1.791-3.783-3.653-4.721s-3.956-1.538-5.482-2.977c-2.269-2.141-2.694-5.557-3.815-8.491a33.752,33.752,0,0,0-2.357-4.643l-2.182-3.81a54.029,54.029,0,0,0-3.663-5.8,53.135,53.135,0,0,0-7.967-7.914l-14.762-12.736a138.756,138.756,0,0,0-11.075-8.912c-7.876-5.5-16.762-9.276-25.591-13.016-2.222-.944-4.536-1.9-6.94-1.787a7.931,7.931,0,0,0-4.862,2.084,29.014,29.014,0,0,1-3.7-1.41l-.094-.044c.027-.2.057-.395.077-.594.03-.263.047-.526.067-.792a6.173,6.173,0,0,0,1.906-.624,2.287,2.287,0,0,0,.785-.61,2.8,2.8,0,0,0,.4-1.494,67.063,67.063,0,0,0,.249-10.588,22.424,22.424,0,0,0-3.03-10.039,5.208,5.208,0,0,0-2.3-2.226c-1.347-.54-2.906-.037-4.344-.28-2.488-.421-4.041-2.859-5.842-4.657a14.155,14.155,0,0,0-17.607-1.551,51.5,51.5,0,0,0-5.367,4.97A11.9,11.9,0,0,1,278,174.31a3.047,3.047,0,0,0-1.269.337,2.619,2.619,0,0,0-.9,1.46,25.849,25.849,0,0,0-1.525,5.864c-.024-.121-.044-.243-.064-.364a11.455,11.455,0,0,0-.057,2.229,6.511,6.511,0,0,0,.8,2.7,3.655,3.655,0,0,0,1.842,1.76,5.01,5.01,0,0,0,1.775.287h.266c-.1.26-.192.519-.28.782a21.607,21.607,0,0,0-1.128,6.916,21.188,21.188,0,0,0,21.015,21.365,20.912,20.912,0,0,0,4.158-.438c.455.145.909.293,1.347.452a25.242,25.242,0,0,1,2.633,1.039c.364.172,1.835,1.032,3.613,2.141h0l-.121.253a13.413,13.413,0,0,0-3.869,12.959c1.286,5.014,5.505,9.313,5.081,14.476a8.854,8.854,0,0,0-.091,2.209,5.354,5.354,0,0,0,1.539,2.583c.593.654,1.209,1.288,1.835,1.909-.051,3.294-.337,6.586-.646,9.87-.027.287-.034.577-.037.87a6.075,6.075,0,0,0,1.455,3.868,6.28,6.28,0,0,1,1.182,4.566c-.266,2.279-1.387,4.347-2.138,6.508-3.387,9.722.774,20.684-1.569,30.722-.576,2.472-1.546,4.876-1.684,7.418-.077,1.588.172,3.254-.438,4.721a8.85,8.85,0,0,1-2.67,3.089q-2.206,1.892-4.3,3.912a59.436,59.436,0,0,0-6.512-3.069,11.7,11.7,0,0,0-1.111-.384c-2.633-2.468-5.953-4.046-9.071-5.861-2.586-1.5-5.051-3.187-7.529-4.873a42.119,42.119,0,0,1-6.758-5.331c-1.01-1.052-1.909-2.212-3-3.173a25.483,25.483,0,0,0-3.03-2.172,121.792,121.792,0,0,1-13.63-10.268c-3.276-2.846-5.957-6.511-9.458-9.064-2.145-1.565-4.64-2.991-7.266-2.7a6.925,6.925,0,0,0-2.394.738,6.253,6.253,0,0,0-2.2-.492c-2.135-.067-4.095,1.093-5.926,2.209q-16.163,9.836-32.83,18.8c-2.243,1.207-4.5,2.4-6.64,3.787a45.119,45.119,0,0,0-10.957,10c-.566.718-1.28,1.534-2.179,1.426a1.945,1.945,0,0,1-.7-.25,8.773,8.773,0,0,1-3.031-3.584,11.4,11.4,0,0,0-2.054-2.836h0a5.991,5.991,0,0,0-.721-1.349c1.2-2.954,2.226-5.979,3.182-9.024.5-1.6.98-3.207,1.616-4.758,1.569-3.837,4.071-7.314,4.957-11.374.212-.981.337-1.99.5-2.981a21.09,21.09,0,1,0-15.24-2.9v.118a14.939,14.939,0,0,1-.2,2.023,25.632,25.632,0,0,1-2.313,6.444c-.64,1.379-1.28,2.765-1.943,4.141a3.835,3.835,0,0,1-.919-.31,2.787,2.787,0,0,1-1.034-1.625,58.2,58.2,0,0,0-3.492-8.18,14.165,14.165,0,0,0-2.02-3.106,17.028,17.028,0,0,0-5.249-3.416c-.337-.162-.65-.337-.973-.492a8.3,8.3,0,0,0-.875-.57c-1.566-.887-3.3-1.524-4.61-2.765-.98-.931-1.653-2.141-2.569-3.129a16.4,16.4,0,0,0-5.674-3.473,7.52,7.52,0,0,0-3.344-.877,4.009,4.009,0,0,0-.488.054,7.74,7.74,0,0,0-.828.189,4.5,4.5,0,0,1-.747-.5c-1.249-.964-1.734-2.62-2.142-4.161-.673-2.576-1.384-5.243-.966-7.88a11.953,11.953,0,0,1,.3-1.349c.1-.172.205-.337.3-.523a17.6,17.6,0,0,0,9.2-27.131c-.172-.236-.337-.465-.529-.695l.2-.111c1.862-1.14,2.286-3.864,1.424-5.894a10.626,10.626,0,0,0-4.549-4.589c-.269-.165-.542-.32-.818-.475l-.236-.128c-.209-.115-.414-.226-.623-.337l-.246-.125c-.246-.125-.492-.243-.737-.357l-.111-.054c-.306-.138-.613-.273-.923-.4h0c-.3-.125-.6-.239-.9-.337l-.125-.047c-.286-.1-.576-.2-.865-.3l-.064-.02a22.608,22.608,0,0,0-6.553-1.106,37.838,37.838,0,0,0-12.543,2.462,21.613,21.613,0,0,0-8.307,6.238,8,8,0,0,0-1.387.229,13.936,13.936,0,0,0-4.96,2.634,15.836,15.836,0,0,0-3.3,3.278,14.153,14.153,0,0,0-2.226,5.318c-1.276,5.979.293,12.139,1.448,18.148s1.822,12.557-1.01,17.949c-1.067,2.023-2.583,3.78-3.7,5.766s-1.9,4.384-1.253,6.586c.785,2.674,3.367,4.357,4.714,6.784a8.324,8.324,0,0,1-.919,9.1c-.091.108-.182.216-.279.337a3.369,3.369,0,0,1-.364.364c2.125.749,4.492-.057,6.4-1.258a11.364,11.364,0,0,0,3.775-3.638c2.408-3.959,1.327-9.077,2.175-13.653,1.115-5.992,5.613-11.337,4.994-17.4-.418-4.07-3.071-7.472-5.155-10.973a43.431,43.431,0,0,1-3.468-7.391c-.037-.108-.074-.219-.114-.337h0a10.875,10.875,0,0,1-.764-5.4,7.553,7.553,0,0,1,.525-1.71v.2a13.251,13.251,0,0,0,1.148,5.1c2.1,4.384,7.169,6.407,10.384,9.961.135.148.263.3.391.455.037.04.071.084.1.128l.273.337.114.158c.084.118.168.236.246.357l.1.152c.108.172.216.337.317.523a8.031,8.031,0,0,0,1.993-3.035c.03-.1.051-.206.071-.31.027.027.05.057.077.088.064.361.114.722.162,1.086h0a7.339,7.339,0,0,0,.165,1.548,68.189,68.189,0,0,1-.165,9.809c-.114,1.737.337,4.316-.768,5.611l-.034.037a1.777,1.777,0,0,1-.212.209h0c-.189.2-.381.388-.559.59-3.7,4.181-5.388,10.116-5.3,15.8.088,6.471,2.152,12.74,4.492,18.759a52.709,52.709,0,0,0,2.882,6.407,11.188,11.188,0,0,0,2.226,3,13.409,13.409,0,0,0,3.233,1.932c.283.135.569.266.852.4l.724.337,5.512,2.623c1.01,1.487,1.987,3.015,2.973,4.545.141.216.279.438.424.654,1.078,1.686,2.162,3.372,3.266,5.011l9.29,13.778a11.607,11.607,0,0,0,2.323,2.772,4.742,4.742,0,0,0,.869.543,4.538,4.538,0,0,0,.482.2,1.54,1.54,0,0,0-.246,1.042,1.763,1.763,0,0,0,.673.88c2.1,1.74,4.435,3.574,5.095,6.248.468,1.905,0,3.945.421,5.861.771,3.453,4.182,5.547,7.408,6.876a41.447,41.447,0,0,0,22.941,2.735,33.5,33.5,0,0,0,19.951-11.465c1.529-1.882,2.832-3.935,4.283-5.877a49.192,49.192,0,0,1,3.27-3.932,26.972,26.972,0,0,0,3.573-1.976,69,69,0,0,0,6.734-5.611c1.653-1.443,3.384-2.806,4.9-4.384a51.373,51.373,0,0,0,3.815-4.721q4.041-5.362,8.347-10.511a16.639,16.639,0,0,1,5.307-4.721l.1-.04c.256,1.511,1.451,2.792,2.29,4.1,3.468,5.4,7.1,10.949,12.459,14.388a39.792,39.792,0,0,0,9.57,4.087c8.418,2.664,16.971,4.755,25.53,6.849.283-.54.559-1.039.869-1.524a4.627,4.627,0,0,1,.37.445c.037.054.067.111.1.165a1.218,1.218,0,0,0-.182.051,2.4,2.4,0,0,0-1.209,1.275,14.172,14.172,0,0,0-1.054,6.07c-.03,2.023,0,4.046,0,6.07a5.243,5.243,0,0,0,.337,2.219c.653,1.349,2.313,1.851,3.8,2.023a31.7,31.7,0,0,0,7.745-.3,5.979,5.979,0,0,0,.717,1.716,12.236,12.236,0,0,0,6.519,4.832,57.82,57.82,0,0,0,8.024,1.814c4.778.951,9.667,2.472,14.418,1.4,1.9-.428,3.7-1.258,5.6-1.622,4.34-.823,8.839.843,13.21.175a20.738,20.738,0,0,0,6.021-2.148,8.257,8.257,0,0,0,2.576-1.78,3.235,3.235,0,0,0,.832-2.93,11.837,11.837,0,0,0-.795-1.639,8.724,8.724,0,0,1-.569-2.765A76.019,76.019,0,0,0,349.8,345.73c-.024-.1-.051-.2-.077-.3a45.883,45.883,0,0,0,9.186-5.422l6.287-4.4a37.33,37.33,0,0,1,6.361-3.858,27.505,27.505,0,0,1,11.132-1.966c1.552,0,3.108.078,4.653.219a2.024,2.024,0,0,0-.434.749,2.779,2.779,0,0,0,.913,2.728,12,12,0,0,0,2.542,1.592,15.392,15.392,0,0,1,5.724,5.635,6.163,6.163,0,0,1,.943,4.906c-.673,2.043-3.074,3.453-2.936,5.6A3.448,3.448,0,0,0,396.357,354a9.129,9.129,0,0,0,3.7.425,14.059,14.059,0,0,0,6-1.157,15.532,15.532,0,0,0,3.31-2.522,9.623,9.623,0,0,0,2.424-2.913,8.884,8.884,0,0,0,.6-3.53c.1-5.652-.872-11.381.249-16.917.337-1.686.875-3.335,1.162-5.034a35.514,35.514,0,0,0,.108-8.133A8.9,8.9,0,0,0,413.072,310.347Z" transform="translate(-59.811 -130.082)" fill="url(#a)"/><path d="M762.139,330.963c-1.325.893-1.787,2.619-1.955,4.21-.718,6.766,2.073,13.464,1.888,20.263-.148,5.411-2.164,10.572-4.153,15.6a92.885,92.885,0,0,0-5.842,27.117c-.684,9.206-1.685,18.794-6.627,26.581-1.122,1.763-2.43,3.4-3.529,5.175-1.153,1.854-2.067,3.843-3.085,5.771a62.1,62.1,0,0,1-11.462,15.4,15.815,15.815,0,0,1-4.5,3.347,9.055,9.055,0,0,1-7.032.074,6.721,6.721,0,0,1-4.342-5.6c-.084-2.232,1.247-4.244,2.582-6.031a98.988,98.988,0,0,1,15.507-16.437,8.926,8.926,0,0,0,2.7-3.058c.61-1.453.361-3.1.438-4.676.125-2.511,1.1-4.895,1.686-7.342,2.36-9.941-1.834-20.8,1.578-30.427.758-2.141,1.884-4.187,2.151-6.442a6.122,6.122,0,0,0-1.19-4.524,5.947,5.947,0,0,1-1.46-3.83,7.291,7.291,0,0,1,.034-.86,92.941,92.941,0,0,0,.6-13.272,31.115,31.115,0,0,0-3.145-12.81c-1.058-2.039-2.427-3.947-3.081-6.149-1.052-3.563-.081-7.416,1.487-10.787a18.82,18.82,0,0,1,5.134-6.954,13.753,13.753,0,0,1,15.207-.967c3.418,2.043,5.758,5.478,7.656,8.98C760.74,325.876,762.159,328.043,762.139,330.963Z" transform="translate(-479.983 -228.818)" opacity="0.06"/><path d="M766.8,263.364q-.971,2.619-1.932,5.239c-.425,1.146-.846,2.3-1.284,3.449-2.023,5.282-4.285,10.481-7.824,14.853.529-.654-4.45-3.944-8.121-6.189-1.79-1.1-3.273-1.952-3.637-2.12a26.576,26.576,0,0,0-2.653-1.032c-1.4-.472-2.815-.88-4.214-1.389-3.236-1.17-.974-2.926.411-4.814,4.534-6.182,5.394-14.63,10.541-20.31a18.982,18.982,0,0,0,8.522,8.242c.071.037.145.071.219.1,3.058,1.429,6.435,2.046,9.6,3.243.172.064.371.155.428.337A.674.674,0,0,1,766.8,263.364Z" transform="translate(-495.87 -188.129)" fill="#a1616a"/><path d="M796.9,620.927a15.207,15.207,0,0,0-1.568,14.553,4.932,4.932,0,0,0,1.136,1.756,5.319,5.319,0,0,0,2.168,1.011c6.695,1.9,13.842,1.53,20.7.337a36.417,36.417,0,0,0,6.816-1.736,45.534,45.534,0,0,0,9.419-5.441l6.331-4.362a38.367,38.367,0,0,1,6.405-3.823,28.154,28.154,0,0,1,11.209-1.945,52.3,52.3,0,0,1,9.776.934c2.147.415,4.719.843,6.23-.725a5.9,5.9,0,0,0,1.288-3.408,50.789,50.789,0,0,0-.037-14.35,1.863,1.863,0,0,0-.415-1.1,1.685,1.685,0,0,0-.836-.381c-2.983-.674-5.977.725-8.876,1.686-6.024,2-12.493,2.242-18.622,3.89-6.432,1.729-12.473,5-19.121,5.667-3.169.317-6.351.04-9.527.111-2.946.064-5.694,1.082-8.579,1.2C805.23,615.055,800.393,616.026,796.9,620.927Z" transform="translate(-534.899 -420.79)" fill="#a1616a"/><path d="M796.9,620.927a15.207,15.207,0,0,0-1.568,14.553,4.932,4.932,0,0,0,1.136,1.756,5.319,5.319,0,0,0,2.168,1.011c6.695,1.9,13.842,1.53,20.7.337a36.417,36.417,0,0,0,6.816-1.736,45.534,45.534,0,0,0,9.419-5.441l6.331-4.362a38.367,38.367,0,0,1,6.405-3.823,28.154,28.154,0,0,1,11.209-1.945,52.3,52.3,0,0,1,9.776.934c2.147.415,4.719.843,6.23-.725a5.9,5.9,0,0,0,1.288-3.408,50.789,50.789,0,0,0-.037-14.35,1.863,1.863,0,0,0-.415-1.1,1.685,1.685,0,0,0-.836-.381c-2.983-.674-5.977.725-8.876,1.686-6.024,2-12.493,2.242-18.622,3.89-6.432,1.729-12.473,5-19.121,5.667-3.169.317-6.351.04-9.527.111-2.946.064-5.694,1.082-8.579,1.2C805.23,615.055,800.393,616.026,796.9,620.927Z" transform="translate(-534.899 -420.79)" opacity="0.06"/><path d="M818.041,544.583a4.563,4.563,0,0,0-.077,2.262,4.213,4.213,0,0,0,1.348,1.814c5.731,5.131,13.919,6.193,21.575,7.025a16.333,16.333,0,0,0,11.576-1.9,51.239,51.239,0,0,0,10.615-6.115c3.118-2.528,5.62-5.765,8.849-8.148,3.671-2.7,8.185-4.241,11.461-7.416a15.408,15.408,0,0,0,4.494-8.515,24.3,24.3,0,0,0,0-6.708,19.951,19.951,0,0,0-1.915-7.447,18.005,18.005,0,0,0-6.29-6.247,32.657,32.657,0,0,0-17.867-5.529c-8.765.078-16.855,5.178-23.146,10.905a68.121,68.121,0,0,0-15.844,21.551A65.81,65.81,0,0,0,818.041,544.583Z" transform="translate(-550.603 -351.578)" fill="#464353"/><path d="M818.041,544.583a4.563,4.563,0,0,0-.077,2.262,4.213,4.213,0,0,0,1.348,1.814c5.731,5.131,13.919,6.193,21.575,7.025a16.333,16.333,0,0,0,11.576-1.9,51.239,51.239,0,0,0,10.615-6.115c3.118-2.528,5.62-5.765,8.849-8.148,3.671-2.7,8.185-4.241,11.461-7.416a15.408,15.408,0,0,0,4.494-8.515,24.3,24.3,0,0,0,0-6.708,19.951,19.951,0,0,0-1.915-7.447,18.005,18.005,0,0,0-6.29-6.247,32.657,32.657,0,0,0-17.867-5.529c-8.765.078-16.855,5.178-23.146,10.905a68.121,68.121,0,0,0-15.844,21.551A65.81,65.81,0,0,0,818.041,544.583Z" transform="translate(-550.603 -351.578)" opacity="0.06"/><path d="M762.139,330.963c-1.325.893-1.787,2.619-1.955,4.21-.718,6.766,2.073,13.464,1.888,20.263-.148,5.411-2.164,10.572-4.153,15.6a92.885,92.885,0,0,0-5.842,27.117c-.684,9.206-1.685,18.794-6.627,26.581-1.122,1.763-2.43,3.4-3.529,5.175-1.153,1.854-2.067,3.843-3.085,5.771a62.1,62.1,0,0,1-11.462,15.4,15.815,15.815,0,0,1-4.5,3.347,9.055,9.055,0,0,1-7.032.074,6.721,6.721,0,0,1-4.342-5.6c-.084-2.232,1.247-4.244,2.582-6.031a98.988,98.988,0,0,1,15.507-16.437,8.926,8.926,0,0,0,2.7-3.058c.61-1.453.361-3.1.438-4.676.125-2.511,1.1-4.895,1.686-7.342,2.36-9.941-1.834-20.8,1.578-30.427.758-2.141,1.884-4.187,2.151-6.442a6.122,6.122,0,0,0-1.19-4.524,5.947,5.947,0,0,1-1.46-3.83,7.291,7.291,0,0,1,.034-.86,92.941,92.941,0,0,0,.6-13.272,31.115,31.115,0,0,0-3.145-12.81c-1.058-2.039-2.427-3.947-3.081-6.149-1.052-3.563-.081-7.416,1.487-10.787a18.82,18.82,0,0,1,5.134-6.954,13.753,13.753,0,0,1,15.207-.967c3.418,2.043,5.758,5.478,7.656,8.98C760.74,325.876,762.159,328.043,762.139,330.963Z" transform="translate(-479.983 -228.818)" fill="#a1616a"/><ellipse cx="12.759" cy="20.021" rx="12.759" ry="20.021" transform="translate(250.769 84.714)" fill="#a1616a"/><path d="M704.348,662.862a4.45,4.45,0,0,1,.674,3.708,6.482,6.482,0,0,0,4.143,1.207,12.811,12.811,0,0,0,4.264-.981,14.093,14.093,0,0,0,3.317-1.739,14.622,14.622,0,0,0,4.045-5.09c.57-1.065,1.055-2.444.337-3.4a3.263,3.263,0,0,0-1.011-.782,60.061,60.061,0,0,0-8.091-3.846,5.947,5.947,0,0,0-2.441-.546,5.231,5.231,0,0,0-2.8,1.257,15.169,15.169,0,0,0-4.355,5.394c-.317.674-1.274,2.275-.8,2.97.216.32,1.011.432,1.348.634a4.359,4.359,0,0,1,1.365,1.217Z" transform="translate(-473.333 -453.482)" fill="#fbbebe"/><path d="M704.348,662.862a4.45,4.45,0,0,1,.674,3.708,6.482,6.482,0,0,0,4.143,1.207,12.811,12.811,0,0,0,4.264-.981,14.093,14.093,0,0,0,3.317-1.739,14.622,14.622,0,0,0,4.045-5.09c.57-1.065,1.055-2.444.337-3.4a3.263,3.263,0,0,0-1.011-.782,60.061,60.061,0,0,0-8.091-3.846,5.947,5.947,0,0,0-2.441-.546,5.231,5.231,0,0,0-2.8,1.257,15.169,15.169,0,0,0-4.355,5.394c-.317.674-1.274,2.275-.8,2.97.216.32,1.011.432,1.348.634a4.359,4.359,0,0,1,1.365,1.217Z" transform="translate(-473.333 -453.482)" opacity="0.03"/><path d="M716.337,662.238c5.7,1.059,10.949,3.816,16.555,5.3a55.01,55.01,0,0,1,6.772,1.894,9.219,9.219,0,0,1,5.144,4.544,13.014,13.014,0,0,1,.779,3.209c.243,1.554.442,3.29-.482,4.564-.974,1.349-2.815,1.645-4.463,1.844-5.926.7-11.853,1.412-17.8,1.911a31.113,31.113,0,0,0-3.59.428c-.978.2-1.932.492-2.9.721-1.258.293-2.535.479-3.809.674a39.315,39.315,0,0,1-9.83.58c-1.493-.165-3.165-.647-3.823-2a5.092,5.092,0,0,1-.337-2.2c-.017-2-.034-4,0-6a13.61,13.61,0,0,1,1.062-6.014,2.39,2.39,0,0,1,1.217-1.264,2.8,2.8,0,0,1,1.045-.094,12.344,12.344,0,0,1,5.134.917c1.244.617,2.255,1.645,3.523,2.2,2.4,1.065,5.3.3,7.726,1.3a9.673,9.673,0,0,0,.017-5.3,41.254,41.254,0,0,1-1.19-5.373,3.425,3.425,0,0,0-.229-1.173C716.674,662.545,716.735,662.181,716.337,662.238Z" transform="translate(-471.38 -460.658)" fill="#464353"/><path d="M716.337,662.238c5.7,1.059,10.949,3.816,16.555,5.3a55.01,55.01,0,0,1,6.772,1.894,9.219,9.219,0,0,1,5.144,4.544,13.014,13.014,0,0,1,.779,3.209c.243,1.554.442,3.29-.482,4.564-.974,1.349-2.815,1.645-4.463,1.844-5.926.7-11.853,1.412-17.8,1.911a31.113,31.113,0,0,0-3.59.428c-.978.2-1.932.492-2.9.721-1.258.293-2.535.479-3.809.674a39.315,39.315,0,0,1-9.83.58c-1.493-.165-3.165-.647-3.823-2a5.092,5.092,0,0,1-.337-2.2c-.017-2-.034-4,0-6a13.61,13.61,0,0,1,1.062-6.014,2.39,2.39,0,0,1,1.217-1.264,2.8,2.8,0,0,1,1.045-.094,12.344,12.344,0,0,1,5.134.917c1.244.617,2.255,1.645,3.523,2.2,2.4,1.065,5.3.3,7.726,1.3a9.673,9.673,0,0,0,.017-5.3,41.254,41.254,0,0,1-1.19-5.373,3.425,3.425,0,0,0-.229-1.173C716.674,662.545,716.735,662.181,716.337,662.238Z" transform="translate(-471.38 -460.658)" opacity="0.06"/><path d="M176.568,450.736c-1.15-.364-2.259.654-2.9,1.685-2.677,4.207-2.457,9.823-.317,14.327a10.874,10.874,0,0,0,2.077,3.091,19.994,19.994,0,0,0,4.045,2.7,30.438,30.438,0,0,1,9.7,9.1c1.648,2.431,2.946,5.1,4.817,7.366,4.6,5.569,12.173,8.091,16.639,13.754,1.069,1.348,1.972,2.913,3.4,3.894a5.778,5.778,0,0,0,9.045-4.477,64.941,64.941,0,0,0,4.507-8.148,96.96,96.96,0,0,0,5.057-13.1c.5-1.584.988-3.179,1.628-4.72,1.581-3.8,4.1-7.244,4.989-11.263a48.592,48.592,0,0,1,.964-4.851,9.233,9.233,0,0,1,2.319-3.708c3.506-3.408,5.394-8.374,8.182-12.385a26.737,26.737,0,0,0,3.058-5.073,8.025,8.025,0,0,0,.337-5.788,4.827,4.827,0,0,0-4.5-3.246,6.83,6.83,0,0,0-2.525.775,28.132,28.132,0,0,0-7.4,5.1,35.8,35.8,0,0,0-2.7,2.9c-4.119,4.922-7.342,10.9-7.625,17.307-.094,2.2.081,4.635-1.315,6.338-3.85,4.7-5.087,11.168-8.37,16.285-1.52,2.36-3.263,4.8-5.862,5.879a2.5,2.5,0,0,1-1.234.243c-1.038-.118-1.635-1.21-2.073-2.161a83.628,83.628,0,0,0-5.93-10.7,10.193,10.193,0,0,0-3.27-3.523c-.964-.536-2.083-.775-2.99-1.4a8.855,8.855,0,0,1-2.582-3.752,58.292,58.292,0,0,0-8.026-12.513c-1.463-1.743-3.391-3.543-5.65-3.283C179.912,447.628,178.6,449.89,176.568,450.736Z" transform="translate(-121.889 -306.655)" fill="#fbbebe"/><path d="M176.568,450.736c-1.15-.364-2.259.654-2.9,1.685-2.677,4.207-2.457,9.823-.317,14.327a10.874,10.874,0,0,0,2.077,3.091,19.994,19.994,0,0,0,4.045,2.7,30.438,30.438,0,0,1,9.7,9.1c1.648,2.431,2.946,5.1,4.817,7.366,4.6,5.569,12.173,8.091,16.639,13.754,1.069,1.348,1.972,2.913,3.4,3.894a5.778,5.778,0,0,0,9.045-4.477,64.941,64.941,0,0,0,4.507-8.148,96.96,96.96,0,0,0,5.057-13.1c.5-1.584.988-3.179,1.628-4.72,1.581-3.8,4.1-7.244,4.989-11.263a48.592,48.592,0,0,1,.964-4.851,9.233,9.233,0,0,1,2.319-3.708c3.506-3.408,5.394-8.374,8.182-12.385a26.737,26.737,0,0,0,3.058-5.073,8.025,8.025,0,0,0,.337-5.788,4.827,4.827,0,0,0-4.5-3.246,6.83,6.83,0,0,0-2.525.775,28.132,28.132,0,0,0-7.4,5.1,35.8,35.8,0,0,0-2.7,2.9c-4.119,4.922-7.342,10.9-7.625,17.307-.094,2.2.081,4.635-1.315,6.338-3.85,4.7-5.087,11.168-8.37,16.285-1.52,2.36-3.263,4.8-5.862,5.879a2.5,2.5,0,0,1-1.234.243c-1.038-.118-1.635-1.21-2.073-2.161a83.628,83.628,0,0,0-5.93-10.7,10.193,10.193,0,0,0-3.27-3.523c-.964-.536-2.083-.775-2.99-1.4a8.855,8.855,0,0,1-2.582-3.752,58.292,58.292,0,0,0-8.026-12.513c-1.463-1.743-3.391-3.543-5.65-3.283C179.912,447.628,178.6,449.89,176.568,450.736Z" transform="translate(-121.889 -306.655)" opacity="0.03"/><ellipse cx="8.886" cy="8.02" rx="8.886" ry="8.02" transform="translate(45.557 111.923)" fill="#fbbebe"/><circle cx="3.199" cy="3.199" r="3.199" transform="translate(59.577 115.094)" fill="#fbbebe"/><ellipse cx="12.24" cy="3.273" rx="12.24" ry="3.273" transform="translate(43.369 113.395)" fill="#fbbebe"/><path d="M148.154,356.169a22.175,22.175,0,0,1,.7,2.882,17.215,17.215,0,0,1-2.65-3.482,2.593,2.593,0,0,1-.469-.742,19.8,19.8,0,0,1-1.837-7.9,17.314,17.314,0,1,1,21.865,16.7,21.632,21.632,0,0,0,1.348-5.141,3.708,3.708,0,0,0-.249-1.736,3.958,3.958,0,0,0-1.271-1.463,10.979,10.979,0,0,0-6.836-2.077,18.76,18.76,0,0,0-7.029,1.686c-.7.3-1.534.7-2.36.981A6.14,6.14,0,0,1,148.154,356.169Z" transform="translate(-103.461 -240.202)" fill="#fbbebe"/><path d="M200.116,451.941c-1.109,1.777-3.479,2.319-5.562,2.161-3.883-.287-7.416-2.36-10.417-4.854s-5.623-5.394-8.691-7.794c-5.707-4.473-12.136-6.27-19.4-6.375,1.419-1.176.9-3.968,1.011-5.8a56.713,56.713,0,0,0,0-11.168c-.051-.394-.108-.782-.175-1.17.115.121.236.239.361.361a17.334,17.334,0,0,0,16.548,4.221,13.481,13.481,0,0,0-.435,1.793c-.418,2.606.283,5.249.974,7.8.411,1.527.9,3.165,2.157,4.119a9.5,9.5,0,0,0,2.811,1.19,15.507,15.507,0,0,1,5.239,3.034,42.38,42.38,0,0,0,3.165,2.835,22.033,22.033,0,0,0,3.422,1.766,42.811,42.811,0,0,1,8.225,4.986,2.7,2.7,0,0,1,1.069,1.267,2.084,2.084,0,0,1-.307,1.628Z" transform="translate(-111.515 -298.082)" fill="#fbbebe"/><path d="M208.443,516.6c-.233,1.537-1.642,2.737-2.636,3.931-2.7,3.263-5.444,6.536-8.468,9.523A132.5,132.5,0,0,1,187,538.937l-4.6,3.685a5.8,5.8,0,0,1-1.959,1.18,3.577,3.577,0,0,1-2.522-.3,4.928,4.928,0,0,1-.873-.536,11.823,11.823,0,0,1-2.34-2.747q-4.672-6.82-9.355-13.643c-1.112-1.625-2.2-3.293-3.29-4.962-.145-.216-.283-.435-.428-.651-.991-1.517-1.979-3.034-2.993-4.5l-5.549-2.6-.728-.337-.86-.4a13.62,13.62,0,0,1-3.253-1.911,11.015,11.015,0,0,1-2.242-2.97,51.982,51.982,0,0,1-2.906-6.361c-2.36-5.957-4.436-12.166-4.524-18.578-.078-5.64,1.588-11.505,5.336-15.645a16.783,16.783,0,0,1,1.648-1.6,2.948,2.948,0,0,1,2.393-.826c.927.132,1.807.266,2.7.418q3.681.634,7.305,1.551c2.178.556,4.433,1.19,6.634.748.354-.071.7-.172,1.055-.263.287-.074.57-.145.863-.192a4.007,4.007,0,0,1,.492-.054,7.74,7.74,0,0,1,3.371.87,16.75,16.75,0,0,1,5.731,3.438c.924.978,1.6,2.178,2.586,3.1,1.315,1.23,3.068,1.861,4.645,2.741a8.317,8.317,0,0,1,.88.563,10,10,0,0,1,1.686,1.6h0c2.043,2.41,3.256,5.663,5.512,8.06a32.9,32.9,0,0,1,4.672,6.327c.212.381.418.765.62,1.156q.506.976.941,1.979c.074.172.148.337.216.516a30.92,30.92,0,0,1,1.109,3.091c.765,2.545,1.274,5.293,2.973,7.335,1.187,1.419,2.832,2.36,4.217,3.583a7.46,7.46,0,0,1,2.05,2.788A3.984,3.984,0,0,1,208.443,516.6Z" transform="translate(-99.929 -330.067)" fill="#fbbebe"/><path d="M209.583,497.866q-.58.732-1.19,1.443c-.067.088-.142.172-.216.256a64.383,64.383,0,0,1-12.089,10.959c-2.771,1.935-5.694,3.651-8.61,5.363l-5.394,3.159a33.4,33.4,0,0,1-7.042,3.422c-.8.239-1.642.432-2.461.657-.145-.216-.283-.435-.428-.651-.991-1.517-1.979-3.034-2.993-4.5l-5.549-2.6a32.5,32.5,0,0,0,8.043-7.207,87.4,87.4,0,0,0,8.519-13.606,10.226,10.226,0,0,0,1.048-2.427,8.346,8.346,0,0,0-.361-4.285,22.586,22.586,0,0,0-9.034-12.18,42.693,42.693,0,0,0-9.918-4.44c-2.4-.829-5.023-1.632-7.46-1.291a16.4,16.4,0,0,1,1.648-1.594,2.939,2.939,0,0,1,2.393-.829c.927.132,1.807.266,2.7.421,1.8.553,3.577,1.214,5.34,1.895a25.043,25.043,0,0,1,3.371,1.527,30.192,30.192,0,0,1,3.1,2.174,77.579,77.579,0,0,0,9.21,6.038c3.708,2.046,7.6,3.708,11.492,5.394a3.058,3.058,0,0,0,1.332.337,1.045,1.045,0,0,0,1.011-.789,1.271,1.271,0,0,0-.162-.7c-.674-1.379-2.2-2.073-3.59-2.744-5.751-2.785-10.808-6.793-15.81-10.771a1.588,1.588,0,0,1-.317-.337l.863-.192a128.6,128.6,0,0,0,17.681,10.659q.489.249.981.485c.236.118.469.233.708.337h0a15.089,15.089,0,0,1,4.575,3.034A13.969,13.969,0,0,1,203,487.352a57.716,57.716,0,0,1,3.519,8.09,1.824,1.824,0,0,0,.064.175,3.114,3.114,0,0,0,.62,1.156,1.312,1.312,0,0,0,.354.28C208.191,497.428,209.061,497.387,209.583,497.866Z" transform="translate(-110.454 -331.583)" opacity="0.06"/><path d="M177.046,467.5a128.254,128.254,0,0,0,17.681,10.656l.981.489a17.463,17.463,0,0,1,5.286,3.371,14.071,14.071,0,0,1,2.023,3.074,57.14,57.14,0,0,1,3.516,8.09,2.736,2.736,0,0,0,1.042,1.611c.573.317,1.483.293,1.992.772-.458.573-.924,1.139-1.406,1.685a64.286,64.286,0,0,1-12.089,10.963c-2.771,1.935-5.694,3.651-8.61,5.363l-5.394,3.159a33.548,33.548,0,0,1-7.042,3.418c-.94.287-1.935.5-2.889.779-.991-1.517-1.979-3.034-2.993-4.5l-6.277-2.94a31.591,31.591,0,0,0,8.765-7.639,87.212,87.212,0,0,0,8.519-13.6,10.284,10.284,0,0,0,1.048-2.427,8.358,8.358,0,0,0-.361-4.288,22.586,22.586,0,0,0-9.011-12.146,42.835,42.835,0,0,0-9.918-4.44c-2.4-.826-5.023-1.632-7.46-1.288a16.8,16.8,0,0,1,1.648-1.6,2.947,2.947,0,0,1,2.393-.826c.927.131,1.807.266,2.7.418,1.8.556,3.577,1.217,5.34,1.9a24.6,24.6,0,0,1,3.371,1.527,30.185,30.185,0,0,1,3.1,2.174,77.528,77.528,0,0,0,9.223,6.021c3.708,2.05,7.6,3.725,11.492,5.394a3.051,3.051,0,0,0,1.332.337,1.038,1.038,0,0,0,1.011-.789,1.264,1.264,0,0,0-.162-.7c-.674-1.379-2.2-2.077-3.59-2.744-5.751-2.784-10.808-6.8-15.81-10.787a1.493,1.493,0,0,1-.317-.337Z" transform="translate(-110.454 -330.072)" fill="#81d8d0"/><circle cx="21.16" cy="21.16" r="21.16" transform="translate(92.561 113.399)" fill="#81d8d0"/><path d="M400.136,587.908c3.961-1.244,7.983-2.511,11.462-4.787a67.707,67.707,0,0,0,6.769-5.556c1.669-1.429,3.408-2.778,4.939-4.355a51.448,51.448,0,0,0,3.843-4.659q4.059-5.313,8.384-10.423a16.83,16.83,0,0,1,5.343-4.679c3.84-1.8,8.347-.587,12.4.651a115.34,115.34,0,0,1,17.782,6.641c3.229,1.608,6.358,3.4,9.618,4.942a136.063,136.063,0,0,0,18.591,6.668,2.36,2.36,0,0,0,1.483.121,2.182,2.182,0,0,0,.88-.735,12.56,12.56,0,0,0,1.952-3.371.647.647,0,0,0-.158-.873c-2.7-2.626-6.2-4.241-9.466-6.112-2.6-1.487-5.094-3.155-7.581-4.824a41.476,41.476,0,0,1-6.806-5.279c-1.011-1.042-1.921-2.191-3.017-3.142a25.275,25.275,0,0,0-3.068-2.151,123.27,123.27,0,0,1-13.727-10.17c-3.3-2.818-6-6.449-9.52-8.977-2.161-1.551-4.676-2.963-7.319-2.68-3.216.337-5.589,3.034-7.831,5.36-7.534,7.824-17.041,13.424-25.448,20.3C402.775,555.432,396.36,562.1,388,565.056c.374,1.24.506,2.481.883,3.708a38.744,38.744,0,0,0,1.756,5,39.353,39.353,0,0,0,2.336,4.18l3.351,5.471a13.833,13.833,0,0,0,2.343,3.125C399.175,587.028,400.136,587.2,400.136,587.908Z" transform="translate(-265.446 -369.117)" fill="#464353"/><path d="M400.136,587.908c3.961-1.244,7.983-2.511,11.462-4.787a67.707,67.707,0,0,0,6.769-5.556c1.669-1.429,3.408-2.778,4.939-4.355a51.448,51.448,0,0,0,3.843-4.659q4.059-5.313,8.384-10.423a16.83,16.83,0,0,1,5.343-4.679c3.84-1.8,8.347-.587,12.4.651a115.34,115.34,0,0,1,17.782,6.641c3.229,1.608,6.358,3.4,9.618,4.942a136.063,136.063,0,0,0,18.591,6.668,2.36,2.36,0,0,0,1.483.121,2.182,2.182,0,0,0,.88-.735,12.56,12.56,0,0,0,1.952-3.371.647.647,0,0,0-.158-.873c-2.7-2.626-6.2-4.241-9.466-6.112-2.6-1.487-5.094-3.155-7.581-4.824a41.476,41.476,0,0,1-6.806-5.279c-1.011-1.042-1.921-2.191-3.017-3.142a25.275,25.275,0,0,0-3.068-2.151,123.27,123.27,0,0,1-13.727-10.17c-3.3-2.818-6-6.449-9.52-8.977-2.161-1.551-4.676-2.963-7.319-2.68-3.216.337-5.589,3.034-7.831,5.36-7.534,7.824-17.041,13.424-25.448,20.3C402.775,555.432,396.36,562.1,388,565.056c.374,1.24.506,2.481.883,3.708a38.744,38.744,0,0,0,1.756,5,39.353,39.353,0,0,0,2.336,4.18l3.351,5.471a13.833,13.833,0,0,0,2.343,3.125C399.175,587.028,400.136,587.2,400.136,587.908Z" transform="translate(-265.446 -369.117)" opacity="0.06"/><path d="M692.2,671.752a4.46,4.46,0,0,1,.674,3.708A6.469,6.469,0,0,0,697,676.677a12.985,12.985,0,0,0,4.274-.978,14.229,14.229,0,0,0,3.317-1.739,14.8,14.8,0,0,0,4.062-5.094c.57-1.062,1.055-2.441.32-3.4a3.174,3.174,0,0,0-1.011-.782,60.193,60.193,0,0,0-8.074-3.846,6.017,6.017,0,0,0-2.441-.549,5.236,5.236,0,0,0-2.8,1.261,15.168,15.168,0,0,0-4.352,5.394c-.317.674-1.274,2.279-.8,2.973.216.32,1.011.432,1.348.63A4.363,4.363,0,0,1,692.2,671.752Z" transform="translate(-465.284 -459.381)" fill="#fbbebe"/><path d="M708.56,670.618c5.7,1.062,10.949,3.816,16.555,5.3a55.015,55.015,0,0,1,6.773,1.895,9.219,9.219,0,0,1,5.144,4.544,13.058,13.058,0,0,1,.779,3.209c.243,1.554.442,3.29-.482,4.564-.974,1.348-2.815,1.648-4.463,1.844-5.926.708-11.853,1.412-17.8,1.911a31.878,31.878,0,0,0-3.583.428c-.978.2-1.932.492-2.9.721-1.254.3-2.535.479-3.809.674a39.319,39.319,0,0,1-9.83.576c-1.493-.165-3.166-.647-3.823-2a5.092,5.092,0,0,1-.337-2.2c0-2-.034-4,0-6a13.61,13.61,0,0,1,1.062-6.014,2.4,2.4,0,0,1,1.217-1.264,2.792,2.792,0,0,1,1.045-.094,12.345,12.345,0,0,1,5.134.917c1.244.617,2.141-1.227,3.408-.674,2.4,1.062.775-2.157,3.2-1.156.566-1.746,2.973-.708,2.555-2.5s1.082-1.011.91-2.852a3.444,3.444,0,0,0-.229-1.173C708.9,670.925,708.957,670.561,708.56,670.618Z" transform="translate(-466.229 -466.213)" fill="#464353"/><path d="M175.18,336.721c-1.308.762-2.929.62-4.453.587a27.685,27.685,0,0,0-3.988.206,3.765,3.765,0,0,0-1.372.364,3.431,3.431,0,0,0-1.274,1.487,10.539,10.539,0,0,0-1.075,3.31c-.189,1.3-.169,2.717-.978,3.745-1.1,1.4-2.822,1.183-4.382,1.46a11.8,11.8,0,0,0-3.846,1.47,9.5,9.5,0,0,0-4.457,6.543c-.044.307-.074.61-.088.917-.034.87.054,1.756-.061,2.609a4.539,4.539,0,0,1-.128.63,1.35,1.35,0,0,1-.057.179c-.051-.394-.108-.782-.175-1.17a17.218,17.218,0,0,1-2.65-3.482,2.592,2.592,0,0,1-.469-.742,19.8,19.8,0,0,1-1.837-7.9,17.31,17.31,0,0,1,31.287-10.214Z" transform="translate(-103.454 -240.208)" opacity="0.06"/><path d="M132.644,314.872a10.552,10.552,0,0,0-4.578-4.544,24.923,24.923,0,0,0-12.3-3.658,37.18,37.18,0,0,0-12.591,2.4,21.7,21.7,0,0,0-8.364,6.176,8.408,8.408,0,0,0-1.4.226,14.1,14.1,0,0,0-4.993,2.609,15.89,15.89,0,0,0-3.324,3.246,13.95,13.95,0,0,0-2.242,5.269c-1.284,5.919.3,12.028,1.456,17.971s1.837,12.436-1.011,17.776c-1.075,2.023-2.6,3.742-3.749,5.711s-1.908,4.339-1.257,6.523c.775,2.656,3.385,4.342,4.746,6.732a8.091,8.091,0,0,1-1.574,9.682c2.141.742,4.524-.057,6.452-1.244a11.4,11.4,0,0,0,3.8-3.6c2.424-3.924,1.348-8.991,2.191-13.525,1.123-5.933,5.653-11.226,5.03-17.233-.421-4.045-3.091-7.4-5.191-10.868a42.588,42.588,0,0,1-3.516-7.292,11.01,11.01,0,0,1-.887-5.657,7.614,7.614,0,0,1,.529-1.686v.192a12.915,12.915,0,0,0,1.153,5.057c2.508,5.124,9.186,7.012,12.014,11.964a7.985,7.985,0,0,0,2.023-3.017,13.855,13.855,0,0,0,.189-3.243,9.4,9.4,0,0,1,4.544-7.457,11.674,11.674,0,0,1,3.846-1.466c1.557-.28,3.277-.067,4.382-1.466.809-1.011.789-2.447.981-3.742a10.47,10.47,0,0,1,1.075-3.314,3.4,3.4,0,0,1,1.274-1.483,3.71,3.71,0,0,1,1.375-.364,27.617,27.617,0,0,1,3.985-.206c1.541.037,3.189.175,4.51-.617C133.083,319.591,133.511,316.894,132.644,314.872Z" transform="translate(-59.809 -224.989)" fill="#464353"/><path d="M756.824,259.373v.138c-.61,5.259-5.667,5.016-6.847,13.3-.465,3.246-5.394,3.846-8.633,4.719-1.4-.472-2.815-.88-4.214-1.389-3.236-1.17-.974-2.926.411-4.814,4.534-6.182,5.394-14.63,10.541-20.31a18.982,18.982,0,0,0,8.522,8.242A1.221,1.221,0,0,0,756.824,259.373Z" transform="translate(-495.863 -188.11)" opacity="0.06"/><path d="M715.939,225.243a21.373,21.373,0,0,1-.135,2.387,21.16,21.16,0,1,1,.135-2.387Z" transform="translate(-454.852 -157)" fill="#a1616a"/><path d="M780.707,273.85c2.424-.118,4.753.833,6.992,1.766,8.876,3.708,17.826,7.447,25.758,12.891a141.915,141.915,0,0,1,11.151,8.829l14.863,12.628a53.791,53.791,0,0,1,8.023,7.838,53.232,53.232,0,0,1,3.685,5.731l2.2,3.759a33.718,33.718,0,0,1,2.36,4.6c1.133,2.9,1.554,6.287,3.84,8.407,1.534,1.426,3.647,2.006,5.522,2.946s3.708,2.592,3.678,4.689c0,1.348-.816,2.562-1.429,3.776a15.135,15.135,0,0,0-1.537,8.2l-24.305-18.574a8.256,8.256,0,0,0-3.169-1.75,8.621,8.621,0,0,0-4.608.772,89.35,89.35,0,0,1-36.647,4.817c-5.491-.431-11.067-1.419-15.874-4.106a49.228,49.228,0,0,1-7.349-5.394A90.05,90.05,0,0,1,765.436,328a5.43,5.43,0,0,1-1.547-2.562,8.5,8.5,0,0,1,.091-2.184c.425-5.114-3.823-9.371-5.117-14.337a13.147,13.147,0,0,1,4.116-13.036c2.9,2.535,2.791,6.988,2.454,10.821-.455,5.161.988,7.72.533,12.884,1.834-.067,1.5,1.112,2.282-.549a15.386,15.386,0,0,0,1.082-5.367q.812-9.931,1.972-19.828c.384-3.3.823-6.594,1.244-9.891.256-2.006.222-3.88,1.281-5.66A8.68,8.68,0,0,1,780.707,273.85Z" transform="translate(-511.249 -203.23)" fill="#81d8d0"/><path d="M809.966,291.3a8.235,8.235,0,0,1,4.757.421q4.113,1.22,8.178,2.579a22.163,22.163,0,0,1,6.334,2.923,34.654,34.654,0,0,1,7.48,9.887,23.683,23.683,0,0,1,1.348,6.695,8.78,8.78,0,0,1-.037,2.956A7.18,7.18,0,0,1,836.4,319.6a19.442,19.442,0,0,1-4,3.583c-3.968,2.67-8.765,3.782-13.437,4.763a88.425,88.425,0,0,1-12.624,1.948c-1.655.1-3.577,0-4.588-1.308a5.158,5.158,0,0,1-.674-1.328,50.278,50.278,0,0,1-3.159-20.641,15.211,15.211,0,0,1,.59-3.782,18.207,18.207,0,0,1,1.3-2.849c1.278-2.417,2.623-4.918,4.824-6.536a12.927,12.927,0,0,1,8.141-2.11" transform="translate(-537.24 -214.665)" fill="#a1616a"/><path d="M780.309,329.553c-1.325.893-1.787,2.619-1.955,4.21-.718,6.766,2.073,13.464,1.888,20.263-.148,5.394-2.164,10.572-4.153,15.6a92.884,92.884,0,0,0-5.842,27.117c-.684,9.206-1.685,18.794-6.627,26.581-1.123,1.763-2.431,3.4-3.53,5.175-1.153,1.854-2.066,3.843-3.084,5.771a62.1,62.1,0,0,1-11.462,15.4,15.816,15.816,0,0,1-4.5,3.347,9.054,9.054,0,0,1-7.032.074,6.721,6.721,0,0,1-4.342-5.6c-.084-2.232,1.247-4.244,2.582-6.031a98.985,98.985,0,0,1,15.507-16.437,8.925,8.925,0,0,0,2.7-3.058c.61-1.453.361-3.1.438-4.676.125-2.511,1.1-4.895,1.685-7.342,2.36-9.941-1.834-20.8,1.578-30.427.759-2.141,1.884-4.187,2.151-6.442a6.137,6.137,0,0,0-1.19-4.524,5.967,5.967,0,0,1-1.463-3.829,6.622,6.622,0,0,1,.037-.86,92.95,92.95,0,0,0,.6-13.272,31.117,31.117,0,0,0-3.145-12.81c-1.059-2.039-2.427-3.947-3.081-6.149-1.052-3.563-.081-7.416,1.487-10.787a18.82,18.82,0,0,1,5.134-6.954,13.753,13.753,0,0,1,15.207-.967c3.418,2.043,5.758,5.478,7.656,8.98C778.91,324.466,780.346,326.633,780.309,329.553Z" transform="translate(-492.035 -227.883)" opacity="0.06"/><path d="M782.588,329.553c-1.325.893-1.787,2.619-1.955,4.21-.718,6.766,2.073,13.464,1.888,20.263-.148,5.394-2.164,10.572-4.153,15.6a92.992,92.992,0,0,0-5.842,27.117c-.688,9.206-1.685,18.794-6.627,26.581-1.123,1.763-2.427,3.4-3.529,5.175-1.15,1.854-2.067,3.843-3.085,5.771a62.165,62.165,0,0,1-11.462,15.4,15.831,15.831,0,0,1-4.5,3.347,9.054,9.054,0,0,1-7.032.074,6.723,6.723,0,0,1-4.339-5.6c-.088-2.232,1.244-4.244,2.582-6.031a98.968,98.968,0,0,1,15.507-16.437,8.892,8.892,0,0,0,2.7-3.058c.613-1.453.361-3.1.438-4.676.125-2.511,1.1-4.895,1.685-7.342,2.36-9.941-1.834-20.8,1.578-30.427.758-2.141,1.888-4.187,2.154-6.442a6.152,6.152,0,0,0-1.19-4.524,5.933,5.933,0,0,1-1.5-3.829,6.611,6.611,0,0,1,.037-.86,93.449,93.449,0,0,0,.593-13.272,31.116,31.116,0,0,0-3.145-12.81c-1.059-2.039-2.427-3.947-3.081-6.149-1.052-3.563-.081-7.416,1.487-10.787a18.856,18.856,0,0,1,5.134-6.954,13.753,13.753,0,0,1,15.207-.967c3.418,2.043,5.758,5.478,7.656,8.98C781.183,324.466,782.612,326.633,782.588,329.553Z" transform="translate(-493.547 -227.883)" fill="#a1616a"/><path d="M982.73,627l-.29.088" transform="translate(-659.709 -437.318)" fill="#464353"/><path d="M808.15,670.957a2.473,2.473,0,0,1,.061-.337" transform="translate(-544.051 -466.23)" fill="#464353"/><path d="M1007.819,596.652a7.462,7.462,0,0,1,3.907-2,39.23,39.23,0,0,1,7.079-1.153,13.237,13.237,0,0,1,4.436.273,5.716,5.716,0,0,1,3.526,2.549,8.855,8.855,0,0,1,.829,3.819,34.923,34.923,0,0,1-.108,8.05c-.287,1.685-.823,3.317-1.17,4.989-1.126,5.481-.148,11.155-.249,16.751a8.659,8.659,0,0,1-.6,3.5,9.732,9.732,0,0,1-2.44,2.886,15.472,15.472,0,0,1-3.334,2.5,14.347,14.347,0,0,1-6.041,1.146,9.249,9.249,0,0,1-3.708-.421,3.453,3.453,0,0,1-2.282-2.758c-.135-2.134,2.272-3.529,2.96-5.552a6.026,6.026,0,0,0-.951-4.858,15.372,15.372,0,0,0-5.768-5.579,12.234,12.234,0,0,1-2.559-1.578,2.711,2.711,0,0,1-.92-2.7c.374-1.15,1.713-1.686,2.916-1.8a10.015,10.015,0,0,0,3.557-.563,4.861,4.861,0,0,0,2.1-2.36,8.765,8.765,0,0,0,.381-6.6,8.106,8.106,0,0,0-1.254-2.282c-.506-.647-1.544-1.193-1.9-1.9C1005.574,599.74,1006.959,597.664,1007.819,596.652Z" transform="translate(-671.567 -415.045)" fill="#81d8d0"/><path d="M860.982,434.859c-5.569-4.922-13.333-6.26-20.614-7.753q-5.626-1.15-11.2-2.562a41.768,41.768,0,0,0-7.416-1.453,12.565,12.565,0,0,0-7.295,1.47,7.489,7.489,0,0,0-3.809,6.139c0,1.011.239,2,.165,3-.118,1.611-1.011,3.034-1.622,4.541a11.934,11.934,0,0,0-.408,7.47c1.079,3.934,4.187,7.4,3.917,11.462a76.791,76.791,0,0,0,1.085,20.563c1.4,6.658,3.138,13.346,3.1,20.159s-2.1,13.976-7.19,18.514a27.788,27.788,0,0,0,12.247,6.692c3.92.981,8.583.883,11.374-2.039a3.146,3.146,0,0,0,1.048-2.5,4.89,4.89,0,0,0-.725-1.635c-1.918-3.435-1.686-7.669-.836-11.505s2.3-7.565,2.67-11.482c.27-2.842-.034-5.731.509-8.535.418-2.147,1.321-4.17,1.864-6.29,1.6-6.29-.081-12.894-1.753-19.161,1.4,3.219,4.045,5.731,6.783,7.915,4.153,3.31,9.176,6.233,14.455,5.647,4.7-.526,8.7-3.792,11.461-7.625.024-4.433,1.561-8.623,1.288-13.046a33.111,33.111,0,0,0-1.038-5.748,28.538,28.538,0,0,0-2.023-6.159C865.729,438.371,863.133,436.757,860.982,434.859Z" transform="translate(-544.247 -302.105)" opacity="0.06"/><path d="M864.413,434.859c-5.569-4.922-13.329-6.26-20.614-7.753q-5.626-1.15-11.2-2.562a41.828,41.828,0,0,0-7.416-1.453,12.559,12.559,0,0,0-7.292,1.47,7.482,7.482,0,0,0-3.809,6.139c0,1.011.236,2,.162,3-.115,1.611-1.028,3.034-1.622,4.541a11.933,11.933,0,0,0-.4,7.47c1.075,3.934,4.183,7.4,3.917,11.462a76.655,76.655,0,0,0,1.082,20.563c1.4,6.658,3.138,13.346,3.1,20.159s-2.117,13.953-7.207,18.483a27.8,27.8,0,0,0,12.247,6.692c3.92.981,8.586.883,11.374-2.039a3.147,3.147,0,0,0,1.048-2.5,4.891,4.891,0,0,0-.725-1.635c-1.918-3.435-1.685-7.669-.836-11.505s2.3-7.565,2.673-11.482c.266-2.842-.037-5.731.509-8.535.415-2.147,1.321-4.17,1.861-6.29,1.6-6.29-.077-12.894-1.753-19.161,1.4,3.219,4.045,5.731,6.786,7.915,4.153,3.31,9.173,6.233,14.452,5.647,4.7-.526,8.7-3.792,11.462-7.625.02-4.433,1.557-8.623,1.284-13.046a33.121,33.121,0,0,0-1.038-5.748,28.354,28.354,0,0,0-2.023-6.159C869.18,438.371,866.564,436.757,864.413,434.859Z" transform="translate(-546.526 -302.105)" fill="#a1616a"/><path d="M768.82,691.722a21.048,21.048,0,0,1-6.273-5.876,16.538,16.538,0,0,0-1.888-2.474,3.645,3.645,0,0,0-2.8-1.149,4.555,4.555,0,0,0-2.849,1.928c-1.989,2.464-3.27,5.478-5.478,7.753-2.549,2.633-6.1,4.045-9.655,4.949s-7.214,1.379-10.693,2.522a4.874,4.874,0,0,0-2.832,1.83,4.088,4.088,0,0,0,.452,4.153,12.181,12.181,0,0,0,6.563,4.784,59.359,59.359,0,0,0,8.09,1.8c4.807.941,9.732,2.447,14.516,1.385,1.908-.425,3.708-1.247,5.636-1.6,4.382-.816,8.9.833,13.3.172a20.821,20.821,0,0,0,6.068-2.127,8.365,8.365,0,0,0,2.6-1.763,3.177,3.177,0,0,0,.839-2.9,11.7,11.7,0,0,0-.8-1.625,8.356,8.356,0,0,1-.573-2.737,75.012,75.012,0,0,0-1.847-10.545c-.3-1.21-.748-2.559-1.878-3.088a1.011,1.011,0,0,0-.752-.084c-.4.152-.533.637-.654,1.045a6.432,6.432,0,0,1-11.185,2.218" transform="translate(-489.582 -473.9)" fill="#81d8d0"/><path d="M718.24,225.25a21.358,21.358,0,0,1-.135,2.387,6.826,6.826,0,0,1-5.865-1.952c-.711-.755-1.244-1.669-1.949-2.43a2.973,2.973,0,0,0-4.9-.071,7.173,7.173,0,0,0-1.642,2.9,3.957,3.957,0,0,1-.971,2.144,3.07,3.07,0,0,1-2.164.448,6.454,6.454,0,0,1-2.845-.539c-1.618-.873-2.164-2.872-2.764-4.612-1.011-2.923-3.287-8.451-6.823-9.041a7.472,7.472,0,0,0-5.057,1.571c-1.992,1.446-3.462,2.383-6.037,2.343h0a21.163,21.163,0,0,1,41.184,6.85Z" transform="translate(-457.154 -157.008)" opacity="0.06"/><path d="M668.371,195.316a5.086,5.086,0,0,1-1.787-.283c-1.635-.641-2.431-2.528-2.569-4.278-.216-2.667.674-5.282,1.568-7.807a2.588,2.588,0,0,1,.907-1.446,3.148,3.148,0,0,1,1.278-.32,12.088,12.088,0,0,0,6.307-3.476,51.562,51.562,0,0,1,5.394-4.922,14.424,14.424,0,0,1,17.725,1.534c1.814,1.78,3.371,4.194,5.886,4.612,1.449.239,3-.26,4.382.28a5.171,5.171,0,0,1,2.313,2.2,21.838,21.838,0,0,1,3.057,9.941,64.9,64.9,0,0,1-.249,10.487,2.737,2.737,0,0,1-.388,1.487,2.265,2.265,0,0,1-.792.607,6.806,6.806,0,0,1-7.851-1.321c-.715-.752-1.244-1.665-1.948-2.431a2.976,2.976,0,0,0-4.9-.067,7.175,7.175,0,0,0-1.642,2.9,3.911,3.911,0,0,1-.971,2.141,3.094,3.094,0,0,1-2.167.452,6.45,6.45,0,0,1-2.842-.543c-1.622-.87-2.168-2.869-2.764-4.608-1.011-2.923-3.283-8.455-6.823-9.041a7.454,7.454,0,0,0-5.057,1.571C672.416,194.423,670.96,195.36,668.371,195.316Z" transform="translate(-448.466 -134.708)" fill="#464353"/><path d="M285.808,610.953c-.233,1.537-1.642,2.737-2.636,3.931-2.7,3.263-5.444,6.536-8.468,9.523a132.516,132.516,0,0,1-10.339,8.883l-4.6,3.685a5.8,5.8,0,0,1-1.959,1.18,3.577,3.577,0,0,1-2.521-.3c.067-.135.138-.26.216-.384l5.522-9.254c1.085-1.814,1.8-3.465,3.034-5.168a51.507,51.507,0,0,1,6.041-7.271c2.9-2.734,6.624-4.719,10.076-6.695.5-1.5,2.589-1.911,4-1.2a5,5,0,0,1,1.392,1.069A3.984,3.984,0,0,1,285.808,610.953Z" transform="translate(-177.378 -424.416)" opacity="0.06"/><path d="M261.827,573.749l-5.522,9.257a1.309,1.309,0,0,0,.314,2.1c2.117,1.723,4.463,3.54,5.127,6.186.475,1.888,0,3.91.425,5.8.779,3.418,4.214,5.495,7.463,6.81a42.249,42.249,0,0,0,23.1,2.7,33.851,33.851,0,0,0,20.088-11.374c1.537-1.861,2.852-3.9,4.312-5.818,4.045-5.309,9.179-9.668,14.273-13.983,6.557-5.555,10.42-13.841,16.181-20.226a8.076,8.076,0,0,1,3.708-2.744c.843-.212,2.023.1,2.056.971.078,1.686,1.433,3.064,2.36,4.473,3.492,5.34,7.147,10.845,12.544,14.249a39.9,39.9,0,0,0,9.638,4.045c8.461,2.636,17.088,4.72,25.7,6.783a14.416,14.416,0,0,1,1.557-2.458c.893-1.1,2.07-1.932,2.966-3.034,1.642-1.986,2.218-4.612,2.744-7.133-5.148-3.152-10.43-6.4-15.507-9.682a36.592,36.592,0,0,1-7.2-5.552c-1.348-1.463-2.481-3.138-3.833-4.612a39.108,39.108,0,0,0-4.456-3.954l-12.136-9.719c-3.486-2.788-7.039-5.731-10.45-8.616-1.918-1.625-4.045-3.334-6.553-3.412-2.147-.067-4.123,1.082-5.97,2.188q-16.275,9.746-33.036,18.615c-2.262,1.193-4.534,2.38-6.691,3.752a45.105,45.105,0,0,0-11.03,9.9c-.57.711-1.291,1.52-2.195,1.412a1.977,1.977,0,0,1-.7-.246,8.6,8.6,0,0,1-3.034-3.55,8.223,8.223,0,0,0-3.081-3.509c-1.413-.708-3.5-.293-4,1.207-3.469,2.033-7.177,4-10.083,6.735a51.312,51.312,0,0,0-6.041,7.271C263.624,570.287,262.91,571.938,261.827,573.749Z" transform="translate(-177.848 -369.556)" fill="#464353"/><path d="M246.61,502.52a67.95,67.95,0,0,1,9.533,5.245" transform="translate(-171.623 -354.81)" opacity="0.06"/><path d="M986.971,470.789c.1,3.145.182,6.3.145,9.439a10.286,10.286,0,0,1-.89,4.861,10.576,10.576,0,0,1-2.36,2.67l-5.552,5.033c-1.723,1.561-3.58,3.189-5.876,3.577-2.626.445-5.191-.833-7.716-1.686a25.324,25.324,0,0,0-7.888-1.325,29.134,29.134,0,0,1-4.6-.121,18.879,18.879,0,0,1-3.216-.914L944,490.584c.141-1.264,1.348-2.07,2.36-2.869,3.59-2.913,5.164-7.595,6.3-12.075a72.016,72.016,0,0,0,1.962-10.656,17.5,17.5,0,0,0-.125-5.34,21.234,21.234,0,0,0-1.483-4.092l-1.763-3.974c-1.011-2.245-3.034-3.243-5.094-4.568,3.108,1.18,6.9,1.642,9.26,3.981a6.131,6.131,0,0,0,1.6,1.294,7.561,7.561,0,0,0,2.08.452c3.509.526,6.493,2.731,9.392,4.77q5.323,3.749,10.943,7.042a25.721,25.721,0,0,1,4.844,3.317,7.812,7.812,0,0,1,2.623,5.11" transform="translate(-634.228 -318.011)" fill="#464353"/><path d="M161.97,455.5c-4.419.873-6.718,6.068-6.459,10.561A17.192,17.192,0,0,0,160.17,476.8c1.844,1.938,4.143,3.435,5.808,5.529,2.461,3.088,3.317,7.17,5.518,10.45a28.469,28.469,0,0,0,6.068,6.038q7.706,6.149,15.915,11.64c2.225,1.487,4.659,2.99,7.335,2.933a9.147,9.147,0,0,0,6.489-3.449,27.679,27.679,0,0,0,3.765-6.533c3.85-8.394,7.726-16.879,9.567-25.927.576-2.842.964-5.771,2.252-8.37a40.631,40.631,0,0,1,3.843-5.582A38.507,38.507,0,0,0,233.23,449c.735-3.418.981-7.079-.226-10.349s-4.136-6.1-7.625-6.361a9.268,9.268,0,0,0-7.325,3.273,18.12,18.12,0,0,0-3.691,7.359,35.25,35.25,0,0,0-1.214,11.8c.216,3.206.87,6.442.317,9.611a25.743,25.743,0,0,1-2.329,6.378c-2.491,5.306-5.023,10.679-8.788,15.17-1.227,1.463-2.916,2.943-4.794,2.6-2.6-.472-3.283-3.759-4.564-6.068-1.571-2.832-4.551-4.534-6.887-6.783-3.324-3.2-5.316-7.5-7.679-11.462s-5.421-7.878-9.776-9.4-10.16.431-11.28,4.908" transform="translate(-111.144 -308.237)" opacity="0.06"/><path d="M165.357,455.553c-4.423.873-10.052,1.443-9.776,5.943a17.158,17.158,0,0,0,4.659,10.737c1.844,1.942,4.143,3.439,5.808,5.532,2.461,3.088,3.317,7.167,5.518,10.45a28.313,28.313,0,0,0,6.068,6.038q7.706,6.152,15.915,11.64c2.225,1.49,4.659,2.993,7.335,2.936a9.158,9.158,0,0,0,6.489-3.449,27.567,27.567,0,0,0,3.765-6.537c3.85-8.394,7.726-16.879,9.567-25.927.576-2.838.964-5.771,2.252-8.367a40.875,40.875,0,0,1,3.843-5.586,38.47,38.47,0,0,0,6.5-14.519c.735-3.422.981-7.079-.226-10.352s-4.136-6.1-7.625-6.361a9.278,9.278,0,0,0-7.325,3.273,18.09,18.09,0,0,0-3.691,7.362,35.241,35.241,0,0,0-1.214,11.8c.216,3.209.87,6.445.317,9.611a25.718,25.718,0,0,1-2.329,6.381c-2.491,5.306-5.023,10.676-8.788,15.17-1.227,1.463-2.916,2.94-4.794,2.6-2.6-.475-3.283-3.762-4.564-6.068-1.571-2.832-4.551-4.534-6.887-6.783-3.324-3.2-5.316-7.5-7.679-11.462s-5.421-7.875-9.776-9.4,1.1,8.235-.024,12.712" transform="translate(-111.197 -305.215)" opacity="0.06"/><path d="M161.97,453.221c-4.419.873-6.718,6.068-6.459,10.562a17.192,17.192,0,0,0,4.659,10.74c1.844,1.938,4.143,3.435,5.808,5.529,2.461,3.088,3.317,7.17,5.518,10.45a28.409,28.409,0,0,0,6.068,6.041q7.706,6.149,15.915,11.637c2.225,1.49,4.659,2.993,7.335,2.936a9.146,9.146,0,0,0,6.489-3.449,27.678,27.678,0,0,0,3.765-6.533c3.85-8.394,7.726-16.879,9.567-25.93.576-2.838.964-5.771,2.252-8.367a40.872,40.872,0,0,1,3.843-5.586,38.469,38.469,0,0,0,6.5-14.519c.735-3.422.981-7.079-.226-10.353s-4.136-6.1-7.625-6.358a9.257,9.257,0,0,0-7.325,3.273,18.12,18.12,0,0,0-3.691,7.359,35.25,35.25,0,0,0-1.214,11.8c.216,3.206.87,6.442.317,9.607a25.717,25.717,0,0,1-2.329,6.381c-2.491,5.306-5.023,10.679-8.788,15.17-1.227,1.463-2.916,2.94-4.794,2.6-2.6-.475-3.283-3.759-4.564-6.068-1.571-2.835-4.551-4.537-6.887-6.783-3.324-3.2-5.316-7.5-7.679-11.462s-5.421-7.875-9.776-9.4-10.16.431-11.28,4.908" transform="translate(-111.144 -306.731)" fill="#fbbebe"/><g transform="translate(21.649 82.238)" opacity="0.06"><path d="M100.444,388.646a42.586,42.586,0,0,1-3.516-7.292l-.115-.337a10.922,10.922,0,0,1-1.777-2.559,12.9,12.9,0,0,1-1.153-5.057q0-.1,0-.192a7.615,7.615,0,0,0-.529,1.685,11.05,11.05,0,0,0,.887,5.657,42.7,42.7,0,0,0,3.516,7.292c2.093,3.5,4.767,6.87,5.181,10.885.624,6.007-3.907,11.3-5.026,17.233-.856,4.534.229,9.6-2.195,13.525a11.357,11.357,0,0,1-3.8,3.6,10.748,10.748,0,0,1-3.111,1.348,7.215,7.215,0,0,1-.647.674c2.141.742,4.524-.057,6.452-1.244a11.4,11.4,0,0,0,3.8-3.6c2.424-3.924,1.348-8.991,2.191-13.525,1.123-5.933,5.653-11.226,5.03-17.233C105.214,395.466,102.544,392.1,100.444,388.646Z" transform="translate(-88.16 -351.335)"/><path d="M178.715,315.966a10.552,10.552,0,0,0-4.578-4.544,26.5,26.5,0,0,0-7.689-3.1,27.486,27.486,0,0,1,5,2.329,10.6,10.6,0,0,1,4.581,4.548c.873,2.009.438,4.719-1.436,5.839-1.321.792-2.97.651-4.51.617a27.147,27.147,0,0,0-3.985.2,3.833,3.833,0,0,0-1.375.364,3.421,3.421,0,0,0-1.274,1.5,10.478,10.478,0,0,0-1.079,3.314c-.189,1.294-.172,2.714-.981,3.742-1.1,1.4-2.818,1.187-4.382,1.463a11.8,11.8,0,0,0-3.846,1.47,9.377,9.377,0,0,0-4.544,7.457,13.826,13.826,0,0,1-.185,3.24,5.346,5.346,0,0,1-.876,1.686,11.5,11.5,0,0,1,1.557,2.1,7.985,7.985,0,0,0,2.023-3.017,13.854,13.854,0,0,0,.189-3.243,9.4,9.4,0,0,1,4.544-7.457,11.674,11.674,0,0,1,3.846-1.466c1.557-.28,3.277-.067,4.382-1.466.809-1.011.789-2.447.981-3.742a10.47,10.47,0,0,1,1.075-3.314A3.4,3.4,0,0,1,167.422,323a3.707,3.707,0,0,1,1.375-.364,27.608,27.608,0,0,1,3.985-.206c1.541.037,3.189.175,4.51-.617C179.154,320.685,179.582,317.988,178.715,315.966Z" transform="translate(-127.529 -308.32)"/></g><path d="M174.52,426.55s3.981,3.425,11.542,1.348C186.062,427.892,181.38,429.736,174.52,426.55Z" transform="translate(-123.758 -304.456)" opacity="0.06"/><path d="M712.4,234.342a2.747,2.747,0,0,1-.4,1.477,2.254,2.254,0,0,1-.792.6,6.8,6.8,0,0,1-7.848-1.318c-.715-.755-1.244-1.686-1.948-2.43a3.585,3.585,0,0,0-2.7-1.315,3.538,3.538,0,0,0-2.2,1.244,7.3,7.3,0,0,0-1.642,2.9,3.918,3.918,0,0,1-.968,2.144,3.071,3.071,0,0,1-2.168.448,6.384,6.384,0,0,1-2.842-.539c-1.622-.87-2.168-2.872-2.768-4.608-1.011-2.926-3.283-8.455-6.82-9.044a7.484,7.484,0,0,0-5.057,1.571c-1.992,1.446-3.462,2.383-6.041,2.36a5.154,5.154,0,0,1-1.787-.283,4.618,4.618,0,0,1-2.515-3.792,11.232,11.232,0,0,0-.057,2.208c.142,1.746.937,3.634,2.572,4.278a5.153,5.153,0,0,0,1.787.283c2.579.04,4.045-.9,6.041-2.343a7.477,7.477,0,0,1,5.057-1.571c3.523.573,5.815,6.1,6.806,9.024.6,1.739,1.146,3.742,2.768,4.612a6.43,6.43,0,0,0,2.842.539,3.179,3.179,0,0,0,2.168-.448,4.18,4.18,0,0,0,.967-2.144,7.274,7.274,0,0,1,1.642-2.9,3.555,3.555,0,0,1,2.2-1.244,3.433,3.433,0,0,1,2.7,1.315c.674.765,1.234,1.685,1.948,2.43a6.8,6.8,0,0,0,7.848,1.318,2.3,2.3,0,0,0,.792-.6,2.751,2.751,0,0,0,.4-1.48,80.384,80.384,0,0,0,.337-8.542C712.692,230.441,712.547,232.393,712.4,234.342Z" transform="translate(-448.353 -170.043)" opacity="0.06"/><path d="M90.791,662.857s.536-.6-.472-.833v-.981h.607a5.174,5.174,0,0,0-4.1-5.057V654.8h.158V653.25h-3.9V654.8h.111V656a5.178,5.178,0,0,0-4.045,5.057h.536V662s-1.278.6,0,1.685,1.079,1.864,1.079,1.864-.536,2.023-1.611,2.286v18.753a4.167,4.167,0,0,0,4.167,4.17h3.294a4.17,4.17,0,0,0,4.17-4.17V667.833s-1.884-1.412-1.547-2.286A21.08,21.08,0,0,1,90.791,662.857Z" transform="translate(-60.515 -454.703)" fill="#464353"/></g></svg>