<svg xmlns="http://www.w3.org/2000/svg" width="514.192" height="332.813" viewBox="0 0 514.192 332.813"><g transform="translate(-61.097)"><path d="M910.581,480.182,921.5,522.641s.4,29.924,2.831,41.65,10.514,40.033,10.514,40.033l9.7,1.617-2.022-39.629s0-23.858-2.022-29.115-6.066-59.039-6.066-59.039Z" transform="translate(-404.642 -292.957)" fill="#ffb8b8"/><path d="M910.581,480.182,921.5,522.641s.4,29.924,2.831,41.65,10.514,40.033,10.514,40.033l9.7,1.617-2.022-39.629s0-23.858-2.022-29.115-6.066-59.039-6.066-59.039Z" transform="translate(-404.642 -292.957)" opacity="0.1"/><path d="M944.274,199.51h0c-13.479,0-24.406,12.126-24.406,27.085V245.6h5.845l3.384-7.042-.846,7.042h37.57l3.076-6.4-.769,6.4h4.23V230.678C972.359,213.464,959.785,199.51,944.274,199.51Z" transform="translate(-408.065 -190.248)" fill="#2f2e41"/><path d="M893.23,470.8s-4.852,20.623,1.617,22.645S899.7,470.8,899.7,470.8Z" transform="translate(-397.602 -290.242)" fill="#ffb8b8"/><path d="M842.029,120.081l-3.235,3.639.809,69.957-7.279,33.159,16.175,1.618,8.087-66.722-2.426-33.967Z" transform="translate(-338.314 -44.261)" fill="#3f3d56"/><path d="M842.029,120.081l-3.235,3.639.809,69.957-7.279,33.159,16.175,1.618,8.087-66.722-2.426-33.967Z" transform="translate(-338.314 -44.261)" opacity="0.1"/><circle cx="17.374" cy="17.374" r="17.374" transform="translate(516.675 17.947)" fill="#ffb8b8"/><path d="M939.325,254.859s5.1,26.409,2.78,29.189,24.556-5.1,24.556-5.1-8.8-18.069-4.17-28.262Z" transform="translate(-415.237 -209.113)" fill="#ffb8b8"/><path d="M1005.006,440.695s4.852,20.623-1.618,22.645-4.852-22.645-4.852-22.645Z" transform="translate(-436.995 -279.148)" fill="#ffb8b8"/><path d="M935.385,473.677s-6.874,41.246-6.47,47.312,0,6.874,0,6.874-6.874,17.793-8.9,27.9a218.145,218.145,0,0,1-6.47,23.049s-5.257,11.727-.809,11.727a50.567,50.567,0,0,0,10.514-1.617A20.651,20.651,0,0,1,927.7,576.05c4.852-6.132,19.41-34.842,19.41-38.482s2.426-14.153,2.426-14.153l9.3-44.885Z" transform="translate(-404.779 -291.305)" fill="#ffb8b8"/><path d="M902.885,429.245s-6.874,34.776-.809,35.585,14.557-5.257,25.475,1.617,29.115,5.257,29.115,5.257,12.536-31.946,1.213-39.629S902.885,429.245,902.885,429.245Z" transform="translate(-400.585 -274.37)" fill="#2f2e41"/><path d="M910.752,644.65a10.773,10.773,0,0,1,5.661-.809,7.385,7.385,0,0,0,5.257-1.213s-3.235,11.727-2.831,16.175-1.213,23.454-9.7,21.432-10.918-8.088-7.683-18.6,2.426-22.645,2.426-22.645,5.9-6.1,6.995-5.272S910.752,644.65,910.752,644.65Z" transform="translate(-400.769 -350.266)" fill="#2f2e41"/><path d="M947.247,672.319s-4.044-8.9-8.9-.809-5.257,10.109-5.257,10.109-13.749,12.536-4.044,13.749,17.388-.4,17.388-2.426,4.853-1.617,5.257-3.235-.809-16.579-.809-16.579Z" transform="translate(-410.172 -362.973)" fill="#2f2e41"/><path d="M946.748,277.526h0s-16.984,3.235-19.006,2.831a10.051,10.051,0,0,0-1.378-.146,20.436,20.436,0,0,0-11.287,2.8c-5.631,3.271-14.023,9.092-14.023,14.735,0,8.492,10.918,23.049,10.918,23.049s-10.109,34.776-9.3,38.011-6.066,14.153-1.618,17.792,46.907,0,54.59,3.639,4.044-48.525,4.044-48.525,20.623-47.312,10.109-51.76c-3.4-1.439-6.338-2.54-8.754-3.37A18.506,18.506,0,0,0,946.748,277.526Z" transform="translate(-400.573 -218.285)" fill="#3f3d56"/><path d="M997.392,283.148l9.279,1.533s4.066,4.128,4.066,6.15-.809,89.367-2.022,92.2-14.558,1.617-14.558,1.617l2.426-49.738Z" transform="translate(-435.448 -221.077)" fill="#3f3d56"/><path d="M953.57,208.318a12.8,12.8,0,0,0-10.1-5.154h-.479c-9.238,0-16.728,8.36-16.728,18.672h3.1l.5-3.805.733,3.805h18.36l1.538-3.219-.385,3.219h3.612q2.528,12.555-7.265,25.111H952.6l3.076-6.439-.769,6.439h11.729l2.307-14.809C968.948,221.048,962.5,211.643,953.57,208.318Z" transform="translate(-410.422 -191.595)" fill="#2f2e41"/><circle cx="9.141" cy="9.141" r="9.141" transform="translate(537.378 0)" fill="#2f2e41"/><rect width="385.176" height="246.44" transform="translate(61.097 11.737)" fill="#3f3d56"/><rect width="173.421" height="201.715" transform="translate(261.9 56.233)" fill="#1b9a8f"/><rect width="105.18" height="4.241" transform="translate(320.556 75.002)" fill="#fff"/><rect width="105.18" height="4.241" transform="translate(320.556 84.333)" fill="#fff"/><rect width="35.625" height="4.241" transform="translate(320.556 93.663)" fill="#fff"/><rect width="105.18" height="4.241" transform="translate(104.573 166.211)" fill="#fff"/><rect width="105.18" height="4.241" transform="translate(104.573 175.541)" fill="#fff"/><rect width="35.625" height="4.241" transform="translate(104.573 184.872)" fill="#fff"/><rect width="105.18" height="4.241" transform="translate(295.912 127.029)" fill="#fff"/><rect width="105.18" height="4.241" transform="translate(295.912 136.359)" fill="#fff"/><rect width="105.18" height="4.241" transform="translate(295.912 145.486)" fill="#fff"/><rect width="105.18" height="4.241" transform="translate(295.912 154.614)" fill="#fff"/><rect width="105.18" height="4.241" transform="translate(295.912 163.741)" fill="#fff"/><rect width="105.18" height="4.241" transform="translate(295.912 172.869)" fill="#fff"/><rect width="105.18" height="4.241" transform="translate(295.912 181.996)" fill="#fff"/><rect width="105.18" height="4.241" transform="translate(295.912 191.123)" fill="#fff"/><rect width="105.18" height="4.241" transform="translate(295.912 200.251)" fill="#fff"/><rect width="105.18" height="4.241" transform="translate(295.912 209.378)" fill="#fff"/><rect width="105.18" height="4.241" transform="translate(295.912 218.506)" fill="#fff"/><path d="M325.848,318.9a38.231,38.231,0,0,1-14.225,29.8,37.791,37.791,0,0,1-5.244,3.573,37.058,37.058,0,0,1-3.432,1.72,37.95,37.95,0,0,1-12.272,3.108q-1.561.13-3.154.128a37.879,37.879,0,0,1-6.271-.516c-.73-.114-1.451-.256-2.163-.42a36.868,36.868,0,0,1-3.683-1.022,38.238,38.238,0,0,1-13.449-7.822,34.887,34.887,0,0,1-2.852-2.839A38.322,38.322,0,1,1,325.848,318.9Z" transform="translate(-130.36 -220.13)" fill="#1b9a8f"/><path d="M668.575,374.369a63.892,63.892,0,0,0-63.892,63.892h0a18.711,18.711,0,0,1-18.711,18.711H554.939a55.677,55.677,0,0,0-55.677,55.677H668.575Z" transform="translate(-222.53 -254.7)" fill="#3f3d56"/><rect width="8.215" height="246.44" transform="translate(249.35 11.737)" fill="#2f2e41"/></g></svg>