<svg xmlns="http://www.w3.org/2000/svg" width="596" height="464" viewBox="0 0 596 464"><g transform="translate(0 0)"><path d="M965.166,711.851c-.044-.191-4.248-19.366,4.339-35.291s26.918-22.948,27.1-23.017l.838-.314.2.873c.043.191,4.248,19.366-4.339,35.291s-26.918,22.948-27.1,23.017l-.838.314Zm31.13-56.492c-3.672,1.579-18.163,8.492-25.416,21.942s-5.065,29.359-4.367,33.292c3.67-1.576,18.156-8.478,25.416-21.942s5.065-29.356,4.367-33.292Z" transform="translate(-440.129 -280.357)" fill="#3f3d56"/><path d="M987.39,696.132c-15.432,9.284-21.375,27.726-21.375,27.726s19.077,3.388,34.509-5.9,21.375-27.726,21.375-27.726S1002.822,686.848,987.39,696.132Z" transform="translate(-440.778 -292.683)" fill="#d0cde1"/><path d="M402.374,436.908c-1.835,0-3.689-.029-5.508-.086l.041-1.322c2.613.081,5.279.1,7.9.068l.018,1.323Q403.6,436.908,402.374,436.908Zm10.414-.307-.078-1.32c2.617-.154,5.267-.371,7.877-.645l.138,1.315C418.1,436.227,415.426,436.446,412.789,436.6Zm-23.875-.206c-2.639-.2-5.3-.467-7.926-.789l.161-1.313c2.6.318,5.246.582,7.865.782Zm39.712-1.455-.2-1.307c2.6-.395,5.22-.853,7.785-1.362l.258,1.3C433.885,434.082,431.245,434.543,428.625,434.941Zm-55.517-.484c-2.607-.442-5.238-.95-7.82-1.51l.281-1.293c2.563.557,5.174,1.061,7.76,1.5Zm71.136-2.62-.318-1.284c2.552-.631,5.118-1.329,7.628-2.073l.376,1.269C449.4,430.5,446.815,431.2,444.244,431.836Zm-86.7-.758c-2.557-.68-5.13-1.428-7.648-2.225l.4-1.261c2.5.79,5.052,1.532,7.589,2.206Zm101.965-3.771-.434-1.249c2.477-.861,4.967-1.792,7.4-2.767l.491,1.229C464.517,425.5,462.007,426.44,459.511,427.307Zm-117.169-1.036c-2.483-.913-4.982-1.9-7.426-2.927l.514-1.219c2.425,1.022,4.9,2,7.369,2.905ZM474.28,421.4l-.548-1.2c2.378-1.081,4.769-2.234,7.105-3.429l.6,1.178C479.085,419.146,476.677,420.308,474.28,421.4Zm14.154-7.235-.655-1.148c2.281-1.3,4.558-2.67,6.766-4.067l.707,1.117C493.026,411.473,490.733,412.852,488.434,414.162Zm13.442-8.5-.757-1.084c2.148-1.5,4.291-3.072,6.37-4.67l.806,1.049C506.2,402.564,504.041,404.147,501.876,405.658ZM300.256,403.8c-2.135-1.551-4.268-3.175-6.34-4.83l.826-1.034c2.056,1.641,4.173,3.254,6.291,4.792Zm214.239-7.835-.853-1.012c2-1.689,3.994-3.449,5.922-5.232l.9.971C518.519,392.484,516.512,394.258,514.494,395.96ZM287.8,393.853c-1.988-1.741-3.964-3.553-5.872-5.384l.916-.955c1.893,1.818,3.854,3.615,5.827,5.344Zm238.38-8.705-.942-.929c1.845-1.87,3.671-3.805,5.424-5.751l.983.885c-1.767,1.962-3.606,3.911-5.466,5.8Zm-249.87-2.323c-1.824-1.918-3.626-3.9-5.355-5.893l1-.867c1.716,1.977,3.5,3.945,5.315,5.848Zm260.532-9.511-1.022-.84c1.667-2.029,3.308-4.122,4.88-6.224l1.059.792C540.18,369.16,538.526,371.27,536.846,373.314ZM265.878,370.8c-1.638-2.07-3.252-4.208-4.8-6.353l1.073-.773c1.532,2.128,3.133,4.25,4.759,6.3Zm280.512-10.25-1.094-.743c1.475-2.172,2.92-4.408,4.294-6.646l1.128.692C549.332,356.111,547.876,358.364,546.39,360.552Zm-289.806-2.665c-1.441-2.21-2.852-4.483-4.193-6.76l1.139-.672c1.331,2.259,2.731,4.516,4.162,6.708Zm298.15-10.921-1.158-.639c1.27-2.3,2.5-4.658,3.668-7.015l1.186.586c-1.173,2.374-2.417,4.753-3.7,7.068Zm7.065-14.3-1.212-.531c1.054-2.407,2.066-4.873,3.009-7.327l1.235.474C563.881,327.755,562.86,330.24,561.8,332.666Zm-320.067-2.854c-1.014-2.434-1.985-4.924-2.886-7.4l1.243-.452c.894,2.459,1.858,4.93,2.864,7.345Zm325.787-12.048-1.256-.416c.826-2.487,1.6-5.03,2.315-7.557l1.274.358C569.135,312.694,568.35,315.257,567.518,317.763Zm-331.222-2.9c-.787-2.521-1.527-5.1-2.2-7.656l1.28-.336c.666,2.54,1.4,5.1,2.181,7.6ZM571.83,302.433l-1.289-.3c.592-2.549,1.134-5.153,1.61-7.738l1.3.239C572.973,297.239,572.427,299.862,571.83,302.433ZM232.256,299.46c-.552-2.584-1.051-5.216-1.484-7.825l1.3-.217c.43,2.59.925,5.2,1.473,7.765Zm342.457-12.689-1.311-.18c.356-2.591.656-5.233.893-7.853l1.318.119C575.374,281.5,575.071,284.161,574.713,286.771Zm-345.064-3.02c-.312-2.619-.568-5.286-.762-7.927l1.32-.1c.192,2.622.446,5.268.756,7.867Zm346.5-12.838-1.322-.059c.118-2.621.178-5.28.178-7.9h1.323C576.33,265.594,576.27,268.273,576.151,270.913ZM228.487,267.87c-.045-1.622-.068-3.277-.068-4.917q0-1.527.026-3.048l1.323.023q-.026,1.51-.026,3.025c0,1.628.023,3.271.068,4.881Zm1.594-15.84-1.32-.083c.165-2.643.393-5.313.677-7.935l1.315.142c-.282,2.6-.508,5.252-.672,7.875Zm344.072-8.07c-.264-2.608-.628-3.879-1.011-6.476l1.309-.193c.386,2.616.718,4.614.984,7.241Zm-342.37-7.64-1.307-.2c.405-2.617.876-5.255,1.4-7.841l1.3.262c-.519,2.566-.987,5.184-1.389,7.781Zm340.024-6.625c-.5-2.58-1.074-5.178-1.692-7.72l1.285-.313c.623,2.562,1.2,5.179,1.705,7.779Zm-336.89-8.864-1.283-.322c.642-2.562,1.354-5.145,2.115-7.679l1.267.38C236.26,215.724,235.554,218.288,234.917,220.83Zm333.152-6.491c-.738-2.519-1.544-5.052-2.4-7.531l1.251-.43c.859,2.5,1.672,5.052,2.415,7.59Zm-328.6-8.665-1.248-.439c.879-2.5,1.828-5.013,2.821-7.468l1.227.5C241.285,200.7,240.343,203.193,239.47,205.675Zm323.461-6.28c-.965-2.434-2-4.878-3.072-7.262l1.207-.543c1.082,2.4,2.123,4.865,3.1,7.318Zm-317.523-8.4-1.2-.552c1.1-2.406,2.281-4.819,3.5-7.171l1.176.607C247.671,186.21,246.5,188.6,245.408,190.993Zm311.049-5.976c-1.184-2.335-2.438-4.676-3.728-6.955l1.151-.652c1.3,2.3,2.564,4.655,3.757,7.008Zm-303.789-8.089-1.147-.66c1.32-2.291,2.711-4.585,4.137-6.817l1.115.712C255.359,172.377,253.978,174.653,252.668,176.927Zm296.017-5.645c-1.4-2.225-2.862-4.442-4.35-6.589l1.086-.754c1.5,2.164,2.976,4.4,4.384,6.639Zm-287.5-7.688-1.081-.762c1.525-2.163,3.12-4.319,4.74-6.408l1.045.811C264.279,159.308,262.7,161.447,261.183,163.594Zm278.5-5.286c-1.594-2.088-3.254-4.164-4.935-6.169l1.014-.85c1.694,2.021,3.367,4.112,4.973,6.216ZM270.875,151.1l-1.007-.858c1.711-2.01,3.5-4.011,5.3-5.947l.967.9C274.344,147.118,272.574,149.1,270.875,151.1Zm258.665-4.9c-1.777-1.934-3.62-3.851-5.478-5.7l.933-.939c1.872,1.861,3.729,3.792,5.519,5.741Zm-247.881-6.657-.925-.946c1.892-1.851,3.849-3.68,5.818-5.438l.881.987c-1.954,1.744-3.9,3.56-5.774,5.4Zm236.671-4.484c-1.948-1.766-3.958-3.508-5.976-5.178l.844-1.019c2.033,1.682,4.059,3.437,6.021,5.217Zm-224.886-6.04-.835-1.026c2.046-1.666,4.16-3.309,6.285-4.884l.788,1.063c-2.109,1.563-4.207,3.194-6.238,4.847Zm12.688-9.4-.738-1.1c2.19-1.473,4.444-2.916,6.7-4.289l.687,1.13c-2.239,1.362-4.476,2.794-6.649,4.256Zm13.485-8.2-.635-1.161c2.317-1.268,4.692-2.5,7.06-3.656l.581,1.189C324.274,108.933,321.917,110.153,319.618,111.411Zm159.649-3.065c-2.354-1.173-4.765-2.306-7.167-3.367l.535-1.21c2.42,1.07,4.85,2.211,7.222,3.393Zm-145.48-3.866-.526-1.214c2.421-1.049,4.9-2.056,7.36-2.991l.47,1.237C338.647,102.441,336.189,103.44,333.787,104.481Zm131-2.536c-2.449-.95-4.956-1.856-7.451-2.693L457.754,98c2.514.844,5.04,1.757,7.508,2.715ZM348.542,98.878l-.412-1.257c2.514-.824,5.079-1.6,7.623-2.306l.354,1.274C353.582,97.29,351.037,98.06,348.542,98.878Zm101.241-1.967c-2.523-.719-5.1-1.389-7.648-1.991l.3-1.287c2.572.606,5.165,1.281,7.708,2.006ZM363.77,94.652l-.295-1.29c2.577-.589,5.2-1.125,7.8-1.594l.235,1.3C368.932,93.535,366.327,94.068,363.77,94.652ZM434.4,93.285c-2.576-.484-5.2-.914-7.8-1.279l.183-1.31c2.619.368,5.264.8,7.86,1.288Zm-55.081-1.439-.175-1.311c2.619-.349,5.282-.643,7.915-.873l.115,1.318C384.563,91.207,381.92,91.5,379.321,91.845Zm39.432-.759c-2.606-.245-5.258-.435-7.884-.562l.065-1.322c2.645.128,5.317.319,7.943.566Zm-23.689-.615-.056-1.322c2.431-.1,4.909-.153,7.366-.154h.6l0,1.323h-.595C399.937,90.32,397.477,90.371,395.064,90.472Z" transform="translate(-190.44 -88.996)" fill="#3f3d56"/><rect width="484.827" height="1.323" transform="translate(111.173 431.117)" fill="#3f3d56"/><path d="M715.988,405.012,722.6,507.534s15.874,40.347,15.213,78.71c0,0-5.953,15.213-1.323,17.859s7.276,4.63,4.63,6.614-4.63,6.614-2.646,7.937,2.646,3.307,1.984,3.307H720.618s3.969-9.921-1.984-12.567-2.646-9.26-2.646-9.26l-44.316-129.64L636.616,589.551s5.953,3.969,1.323,5.953-6.614-1.984-4.63,1.984-.661,5.953-.661,6.614-19.843-1.984-19.843-1.984,9.921-8.6,5.291-10.583-6.614-3.969-5.291-5.291,6.614-13.89,6.614-13.89,2.646-47.623,3.307-49.607,0-11.244,0-15.874-.661-23.15,1.323-27.78,3.969-61.513,14.551-68.127S715.988,405.012,715.988,405.012Z" transform="translate(-320.827 -196.312)" fill="#2f2e41"/><path d="M615.259,700.25s13.229,27.119,3.969,30.426-21.166.661-23.811,4.63-31.749,8.6-32.41-1.323,31.749-28.441,31.749-28.441l4.222-6.8Z" transform="translate(-304.012 -295.767)" fill="#2f2e41"/><path d="M777.259,730.25s13.229,27.119,3.969,30.426-21.166.661-23.811,4.63-31.749,8.6-32.41-1.323,31.749-28.441,31.749-28.441l4.222-6.8Z" transform="translate(-358.982 -305.924)" fill="#2f2e41"/><circle cx="21.827" cy="21.827" r="21.827" transform="translate(335.313 40.695)" fill="#a0616a"/><path d="M548.791,112.025l-2.646,19.181L526.3,146.419l-5.291-7.276V114.009Z" transform="translate(-176.768 -37.985)" fill="#a0616a"/><path d="M673.807,235.313s20.5,1.984,31.087-5.291l21.166,125.01s-74.742,5.953-78.049,1.984V317.992l13.229-63.5Z" transform="translate(-332.873 -136.834)" fill="#3f3d56"/><path d="M721.313,220.985l7.113,5.977s29.1,4.63,27.119,12.567l-7.937,93.923,2.646,31.749s-22.489-5.953-39.686,0-3.534-127.923-3.534-127.923S722.8,222.946,721.313,220.985Z" transform="translate(-351.137 -133.773)" fill="#d0cde1"/><path d="M674.067,231.931S652.9,247.2,650.255,257.125s-11.244,114.427-11.244,114.427,3.969-1.984,5.953,1.323S677.374,237.162,674.067,231.931Z" transform="translate(-329.791 -137.486)" fill="#d0cde1"/><path d="M677.676,164.7s-2.363-3.544-1.454-7.361a22.314,22.314,0,0,0,.636-6.634,65.654,65.654,0,0,1,3.817-9.633c1.909-3.454,1-4.908,7-6s3.544-8.906,19.358-.454a4.637,4.637,0,0,0,4.817,1.818c3.272-.636,4.453,3.908,4.453,3.908s2.181-1.272,3,.545,6.65-1.091,6.65,11.178-6.637,23.228-6.637,23.228.487-20.638-10.328-22.728-22.448-8.179-25.265-.364a59.581,59.581,0,0,1-6.044,12.5Z" transform="translate(-342.355 -103.127)" fill="#2f2e41"/><ellipse cx="2.133" cy="2.844" rx="2.133" ry="2.844" transform="translate(375.048 60.789)" fill="#a0616a"/><path d="M599.164,493.016c-5.234-3.147-11.544-2.907-13.944-2.667.914,2.231,3.655,7.92,8.889,11.069s11.549,2.908,13.944,2.669C607.14,501.857,604.4,496.165,599.164,493.016Z" transform="translate(-311.534 -225.033)" fill="#d0cde1"/><path d="M622.972,588.87H590.261a7.36,7.36,0,1,0,0,14.72h32.712a7.36,7.36,0,0,0,0-14.72Z" transform="translate(-310.76 -258.48)" fill="#d0cde1"/><path d="M765.241,471.412h-183.4a16.246,16.246,0,0,0-16.246,16.246v89.358a16.246,16.246,0,0,0,16.246,16.246h183.4a16.246,16.246,0,0,0,16.246-16.246V487.658a16.246,16.246,0,0,0-16.246-16.246ZM577.3,482.494c.362-.065,8.95-1.527,16.061,2.752s9.843,12.551,9.956,12.9l.287.892-.923.164a24.5,24.5,0,0,1-3.98.292,23.7,23.7,0,0,1-12.082-3.045c-7.111-4.277-9.843-12.55-9.955-12.9l-.288-.892Zm39.812,82.963H584.4a9,9,0,0,1,0-17.991h32.712a9,9,0,0,1,0,17.991Zm148.838-1.636a9.842,9.842,0,0,1-9.814,9.813H731.6a9.842,9.842,0,0,1-9.813-9.813V549.1a9.842,9.842,0,0,1,9.813-9.813h24.534a9.842,9.842,0,0,1,9.813,9.813Z" transform="translate(-305.015 -218.713)" fill="#d0cde1"/><path d="M821.419,606.8H810.787a2.862,2.862,0,1,0,0,5.724h10.631a2.862,2.862,0,1,0,0-5.724Zm0,4.089H810.787a1.227,1.227,0,1,1,0-2.453h10.631a1.227,1.227,0,0,1,0,2.453Z" transform="translate(-387.086 -264.554)" fill="#d0cde1"/><path d="M851.092,606.8H840.461a2.862,2.862,0,1,0,0,5.724h10.631a2.862,2.862,0,1,0,0-5.724Zm0,4.089H840.461a1.227,1.227,0,0,1,0-2.453h10.631a1.227,1.227,0,0,1,0,2.453Z" transform="translate(-397.154 -264.554)" fill="#d0cde1"/><path d="M821.419,595.67H810.787a2.862,2.862,0,1,0,0,5.725h10.631a2.862,2.862,0,1,0,0-5.725Zm0,4.089H810.787a1.227,1.227,0,1,1,0-2.453h10.631a1.227,1.227,0,0,1,0,2.453Z" transform="translate(-387.086 -260.781)" fill="#d0cde1"/><path d="M851.092,595.67H840.461a2.862,2.862,0,0,0,0,5.725h10.631a2.862,2.862,0,0,0,0-5.725Zm0,4.089H840.461a1.227,1.227,0,0,1,0-2.453h10.631a1.227,1.227,0,0,1,0,2.453Z" transform="translate(-397.154 -260.781)" fill="#d0cde1"/><path d="M821.419,584.542H810.787a2.862,2.862,0,1,0,0,5.724h10.631a2.862,2.862,0,1,0,0-5.724Zm0,4.089H810.787a1.227,1.227,0,1,1,0-2.453h10.631a1.227,1.227,0,0,1,0,2.453Z" transform="translate(-387.086 -257.008)" fill="#d0cde1"/><path d="M851.092,584.542H840.461a2.862,2.862,0,0,0,0,5.724h10.631a2.862,2.862,0,0,0,0-5.724Zm0,4.089H840.461a1.227,1.227,0,0,1,0-2.453h10.631a1.227,1.227,0,0,1,0,2.453Z" transform="translate(-397.154 -257.008)" fill="#d0cde1"/><path d="M765.753,438.651l-4.741,15.472S759.8,482.967,743.926,479s4.63-37.7,4.63-37.7l4.63-7.276Z" transform="translate(-363.337 -205.99)" fill="#a0616a"/><path d="M629.753,438.651l-4.741,15.472S623.8,482.967,607.926,479s4.63-37.7,4.63-37.7l4.63-7.276Z" transform="translate(-317.195 -205.99)" fill="#a0616a"/><path d="M767.9,241.951s10.583-2.646,13.89,15.213,7.276,68.789,7.276,68.789l-15.874,53.576s-15.874-8.6-19.181-7.276L766.5,325.74,756,278.329S765.255,241.951,767.9,241.951Z" transform="translate(-368.809 -140.837)" fill="#d0cde1"/><path d="M580.747,209.393l13.89,46.3-13.89,46.961,7.937-46.961Z" transform="translate(-197.025 -71.017)" opacity="0.15"/><path d="M643.822,297.021l-23.811,93.923s12.56,4.145,17.19,7.452Z" transform="translate(-323.338 -159.552)" fill="#d0cde1"/><circle cx="66.143" cy="66.143" r="66.143" transform="translate(4.87 241.107)" fill="#3f3d56"/><circle cx="56.883" cy="56.883" r="56.883" transform="translate(14.13 250.371)" opacity="0.1"/><path d="M268.59,570.18V561.9a19.225,19.225,0,0,1-11.04-3.607l1.732-5.492a17.648,17.648,0,0,0,10.391,3.524c5.123,0,8.587-3.361,8.587-8.033,0-4.509-2.814-7.3-8.154-9.755-7.36-3.279-11.906-7.05-11.906-14.181a12.888,12.888,0,0,1,10.9-13.2v-8.279h4.474v7.951a17.556,17.556,0,0,1,9.381,2.869l-1.8,5.41a15.945,15.945,0,0,0-9.092-2.787c-5.556,0-7.649,3.771-7.649,7.05,0,4.262,2.67,6.394,8.948,9.345,7.432,3.443,11.184,7.705,11.184,15,0,6.476-3.969,12.542-11.4,13.935v8.526Z" transform="translate(-200.304 -229.352)" fill="#1b9a8f"/><path d="M311.885,749.163a477.57,477.57,0,0,1-140.884,0V733.289a530.683,530.683,0,0,0,140.884,0Z" transform="translate(-171 -307.463)" fill="#3f3d56"/><path d="M311.885,712.163a477.566,477.566,0,0,1-140.884,0V696.289a530.685,530.685,0,0,0,140.884,0Z" transform="translate(-171 -294.936)" fill="#3f3d56"/><path d="M311.885,675.163a477.57,477.57,0,0,1-140.884,0V659.289a530.685,530.685,0,0,0,140.884,0Z" transform="translate(-171 -282.409)" fill="#3f3d56"/></g></svg>