<svg xmlns="http://www.w3.org/2000/svg" width="512" height="330" viewBox="0 0 512 330"><path d="M944.755,608.635l-49.69-86.091a1.581,1.581,0,0,0-2.746,0l-49.7,86.091a1.582,1.582,0,0,0,1.375,2.4h14.827a1.591,1.591,0,0,1,1.586,1.586V631.01a1.581,1.581,0,0,0,1.577,1.586h19.346a1.586,1.586,0,0,0,1.586-1.586v-8.9a1.581,1.581,0,0,1,1.581-1.581h18.392a1.586,1.586,0,0,1,1.586,1.581v8.88a1.586,1.586,0,0,0,1.586,1.586H925.4a1.6,1.6,0,0,0,1.591-1.586V612.6a1.586,1.586,0,0,1,1.586-1.586H943.4a1.586,1.586,0,0,0,1.352-2.377Zm-69.28,9.527a1.6,1.6,0,0,1-1.126.479h-6.977a1.586,1.586,0,0,1,0-3.172h6.977a1.581,1.581,0,0,1,1.586,1.586A1.6,1.6,0,0,1,875.474,618.162Zm45.655,0a1.576,1.576,0,0,1-1.121.479h-6.973a1.586,1.586,0,0,1,0-3.172h6.973a1.581,1.581,0,0,1,1.121,2.708Z" transform="translate(-470.373 -322.556)" fill="#f2f2f2"/><path d="M311.283,610.227l-49.7-86.086a1.591,1.591,0,0,0-2.751,0L215.9,598.5a131.409,131.409,0,0,0,17.985,18.55h6.982a1.586,1.586,0,0,1,1.121,2.708,1.558,1.558,0,0,1-1.121.479h-2.952a76.815,76.815,0,0,0,11.5,7.155v-3.666a1.591,1.591,0,0,1,1.591-1.586h18.388a1.586,1.586,0,0,1,1.586,1.586V632.6a1.476,1.476,0,0,0,.149.666,1.572,1.572,0,0,0,1.438.92h19.346a1.567,1.567,0,0,0,1.26-.637,1.519,1.519,0,0,0,.316-.958V614.195a1.586,1.586,0,0,1,1.586-1.586H309.9a1.581,1.581,0,0,0,1.38-2.382Zm-32.855,7.284a1.6,1.6,0,0,1,1.126-.479h6.977a1.586,1.586,0,1,1,0,3.172h-6.977a1.581,1.581,0,0,1-1.586-1.586,1.6,1.6,0,0,1,.46-1.107Zm-31.216-31.858a1.581,1.581,0,0,1-1.586-1.586V572.019a1.581,1.581,0,0,1,1.586-1.586h26a1.586,1.586,0,0,1,1.586,1.586v12.047a1.586,1.586,0,0,1-1.586,1.586Z" transform="translate(-143.874 -323.39)" fill="#f2f2f2"/><path d="M614.393,346.455H552.881v-13.3a3.177,3.177,0,0,0-3.182-3.182H531.637V315.823a2,2,0,0,0-2-2H506.368a2,2,0,0,0-2,2v14.17H483.121a3.182,3.182,0,0,0-3.182,3.182v13.269H421.3a.647.647,0,0,0-.642.647V523.7a.647.647,0,0,0,.642.647h38.979a.647.647,0,0,0,.647-.647v-23.76a.657.657,0,0,1,.652-.647h16.461a.652.652,0,0,1,.647.647V523.7a.652.652,0,0,0,.642.647H556.36a.652.652,0,0,0,.647-.647v-23.76a.652.652,0,0,1,.642-.647h16.466a.652.652,0,0,1,.652.647V523.7a.652.652,0,0,0,.642.647h38.984a.647.647,0,0,0,.642-.647V347.1A.647.647,0,0,0,614.393,346.455ZM453.946,491.044a.642.642,0,0,1-.637.642H429.233a.647.647,0,0,1-.652-.642V482.82a.652.652,0,0,1,.652-.647h24.076a.647.647,0,0,1,.637.647Zm0-21.248a.642.642,0,0,1-.637.647H429.233a.647.647,0,0,1-.652-.647v-8.219a.647.647,0,0,1,.652-.647h24.076a.642.642,0,0,1,.637.647Zm0-21.244a.647.647,0,0,1-.637.647H429.233a.652.652,0,0,1-.652-.647v-8.223a.652.652,0,0,1,.652-.647h24.076a.647.647,0,0,1,.637.647Zm0-21.248a.642.642,0,0,1-.637.647H429.233a.647.647,0,0,1-.652-.647v-8.219a.647.647,0,0,1,.652-.647h24.076a.642.642,0,0,1,.637.647Zm0-21.244a.647.647,0,0,1-.637.647H429.233a.652.652,0,0,1-.652-.647v-8.223a.647.647,0,0,1,.652-.642h24.076a.642.642,0,0,1,.637.642Zm0-21.244a.642.642,0,0,1-.637.642H429.233a.647.647,0,0,1-.652-.642v-8.223a.652.652,0,0,1,.652-.647h24.076a.647.647,0,0,1,.637.647Zm0-21.248a.642.642,0,0,1-.637.647H429.233a.647.647,0,0,1-.652-.647v-8.218a.647.647,0,0,1,.652-.647h24.076a.642.642,0,0,1,.637.647Zm57.084,127.472a.647.647,0,0,1-.652.642H486.3a.642.642,0,0,1-.642-.642V482.82a.647.647,0,0,1,.642-.647h24.076a.652.652,0,0,1,.652.647Zm0-21.248a.647.647,0,0,1-.652.647H486.3a.642.642,0,0,1-.642-.647v-8.214a.642.642,0,0,1,.642-.647h24.076a.647.647,0,0,1,.652.647Zm0-21.244a.652.652,0,0,1-.652.647H486.3a.647.647,0,0,1-.642-.628v-8.238a.647.647,0,0,1,.642-.647h24.076a.652.652,0,0,1,.652.647Zm0-21.248a.647.647,0,0,1-.652.647H486.3a.642.642,0,0,1-.642-.647v-8.214a.642.642,0,0,1,.642-.647h24.076a.647.647,0,0,1,.652.647Zm0-21.244a.652.652,0,0,1-.652.647H486.3a.647.647,0,0,1-.642-.647v-8.218a.642.642,0,0,1,.642-.642h24.076a.647.647,0,0,1,.652.642Zm0-21.244a.647.647,0,0,1-.652.642H486.3a.642.642,0,0,1-.642-.623v-8.238a.647.647,0,0,1,.642-.647h24.076a.652.652,0,0,1,.652.647Zm0-21.248a.647.647,0,0,1-.652.647H486.3a.642.642,0,0,1-.642-.647v-8.214a.642.642,0,0,1,.642-.647h24.076a.647.647,0,0,1,.652.647Zm39,127.472a.642.642,0,0,1-.647.642h-24.09a.652.652,0,0,1-.652-.642V482.82a.656.656,0,0,1,.652-.647h24.071a.647.647,0,0,1,.647.647Zm0-21.248a.642.642,0,0,1-.647.647h-24.09a.652.652,0,0,1-.652-.647v-8.209a.652.652,0,0,1,.652-.647h24.071a.642.642,0,0,1,.647.647Zm0-21.244a.647.647,0,0,1-.647.647h-24.09a.657.657,0,0,1-.652-.647v-8.214a.656.656,0,0,1,.652-.647h24.071a.647.647,0,0,1,.647.647Zm0-21.248a.642.642,0,0,1-.647.647h-24.09a.652.652,0,0,1-.652-.647v-8.209a.652.652,0,0,1,.652-.647h24.071a.642.642,0,0,1,.647.647Zm0-21.244a.647.647,0,0,1-.647.647h-24.09a.657.657,0,0,1-.652-.647v-8.214a.652.652,0,0,1,.652-.642h24.071a.642.642,0,0,1,.647.642Zm0-21.244a.642.642,0,0,1-.647.642h-24.09a.652.652,0,0,1-.652-.642v-8.214a.656.656,0,0,1,.652-.647h24.071a.647.647,0,0,1,.647.647Zm0-21.248a.642.642,0,0,1-.647.647h-24.09a.652.652,0,0,1-.652-.647v-8.209a.652.652,0,0,1,.652-.647h24.071a.642.642,0,0,1,.647.647Zm57.084,127.471a.652.652,0,0,1-.652.642H582.386a.637.637,0,0,1-.642-.642V482.82a.642.642,0,0,1,.642-.647h24.076a.656.656,0,0,1,.652.647Zm0-21.248a.652.652,0,0,1-.652.647H582.386a.642.642,0,0,1-.642-.647v-8.2a.642.642,0,0,1,.642-.647h24.076a.652.652,0,0,1,.652.647Zm0-21.244a.656.656,0,0,1-.652.647H582.386a.642.642,0,0,1-.642-.618v-8.238a.642.642,0,0,1,.642-.647h24.076a.657.657,0,0,1,.652.647Zm0-21.248a.652.652,0,0,1-.652.647H582.386a.642.642,0,0,1-.642-.647v-8.2a.642.642,0,0,1,.642-.647h24.076a.652.652,0,0,1,.652.647Zm0-21.244a.656.656,0,0,1-.652.647H582.386a.642.642,0,0,1-.642-.647v-8.209a.637.637,0,0,1,.642-.642h24.076a.652.652,0,0,1,.652.642Zm0-21.244a.652.652,0,0,1-.652.642H582.386a.637.637,0,0,1-.642-.613v-8.238a.642.642,0,0,1,.642-.647h24.076a.657.657,0,0,1,.652.647Zm0-21.248a.652.652,0,0,1-.652.647H582.386a.642.642,0,0,1-.642-.647v-8.2a.642.642,0,0,1,.642-.647h24.076a.652.652,0,0,1,.652.647Z" transform="translate(-250.635 -214.27)" fill="#f2f2f2"/><path d="M184.266,323.336a35.665,35.665,0,0,0,2.765-4.064l-19.49-3.2,21.085.158a35.543,35.543,0,0,0,.685-28.144l-28.274,14.664,26.074-19.169a35.524,35.524,0,1,0-58.67,39.775,35.41,35.41,0,0,0-4.049,6.479l25.274,13.121L122.7,333.9a35.553,35.553,0,0,0,5.751,33.358,35.285,35.285,0,0,0-6.369,12.675,353.887,353.887,0,0,0,16.725,40.173,35.169,35.169,0,0,0,11.022,4.03,12.321,12.321,0,0,0-.7,4.126,11.717,11.717,0,0,0,1.5,5.933,11.5,11.5,0,0,0-1.514,5.061h0a218.487,218.487,0,0,0,14.424,21.565,10.9,10.9,0,0,0-1.169-2.875,12.177,12.177,0,0,0,0-11.865,12.177,12.177,0,0,0,0-11.865,11.717,11.717,0,0,0,1.543-5.933,12.167,12.167,0,0,0-.719-4.184,35.524,35.524,0,0,0,21.086-56.821,35.515,35.515,0,0,0,0-43.925Z" transform="translate(-94.365 -189.164)" fill="#f2f2f2"/><path d="M1081.941,393l-1.438-.235h1.409A60.818,60.818,0,0,0,1079,376.8l-5.013,2.6,4.715-3.479a61.167,61.167,0,0,0-23.362-30.636,35.654,35.654,0,0,0-13.95,54.75,35.522,35.522,0,0,0-4.049,6.493l25.3,13.178-26.965-9.072a35.692,35.692,0,0,0,5.751,33.43,35.658,35.658,0,0,0,15.766,55.479c1.917-4.548,3.781-9.3,5.525-14.19,1.543-4.313,3.014-8.707,4.4-13.145a403.934,403.934,0,0,0,10.14-39.564c3.067-15.2,4.792-28.485,4.792-36.9C1082,394.827,1081.979,393.916,1081.941,393Z" transform="translate(-570.052 -230.525)" fill="#f2f2f2"/><ellipse cx="254.826" cy="11.98" rx="254.826" ry="11.98" transform="translate(0 306.039)" fill="#3f3d56"/><path d="M575.768,438.467c-4.763-8.252-24.44-5.822-43.9,5.425a93.537,93.537,0,0,0-9.766,6.474,84.654,84.654,0,0,0-168.914,2.128,90.806,90.806,0,0,0-12.46-8.626c-19.423-11.223-39.1-13.653-43.863-5.4s7.188,24.057,26.649,35.3c12.608,7.279,25.283,10.859,33.952,10.25a84.749,84.749,0,0,0,25.791,37.858c-17.07,2.4-29.62,10.38-29.62,19.878,0,11.377,18.023,20.606,40.254,20.606s40.254-9.23,40.254-20.606v-.091q1.792.077,3.6.081t3.6-.081v.091c0,11.377,18.023,20.606,40.254,20.606s40.254-9.23,40.254-20.606c0-9.5-12.551-17.487-29.62-19.878A84.736,84.736,0,0,0,518,484.093c8.477-.22,19.84-3.771,31.149-10.3C568.618,462.523,580.561,446.714,575.768,438.467Z" transform="translate(-185.606 -244.799)" fill="#1b9a8f"/><path d="M296.865,509.214c4.763-8.252,24.44-5.822,43.9,5.425a90.685,90.685,0,0,1,12.273,8.453c.187-4.054.187.259.177-4.169a90.849,90.849,0,0,0-12.46-8.6c-19.451-11.247-39.133-13.677-43.891-5.425a9.075,9.075,0,0,0-.81,6.422A7.668,7.668,0,0,1,296.865,509.214Z" transform="translate(-185.552 -311.085)" opacity="0.1"/><path d="M821.579,509.214c-4.763-8.252-24.44-5.822-43.906,5.425a58.218,58.218,0,0,0-9.872,6.536c-.192-4.054-.192.259-.177-4.169a58.331,58.331,0,0,1,10.064-6.68c19.485-11.247,39.142-13.677,43.906-5.425a9.075,9.075,0,0,1,.81,6.421A7.67,7.67,0,0,0,821.579,509.214Z" transform="translate(-431.372 -311.083)" opacity="0.1"/><ellipse cx="8.779" cy="11.496" rx="8.779" ry="11.496" transform="translate(220.675 184.53)" fill="#444053"/><ellipse cx="8.779" cy="11.496" rx="8.779" ry="11.496" transform="translate(266.011 184.53)" fill="#444053"/><path d="M586.546,581.223c0,16.5-27.569,44.308-55.388,44.308S476.81,597.1,476.81,580.609s25.969-1.438,53.763-1.438S586.546,564.714,586.546,581.223Z" transform="translate(-279.866 -349.114)" fill="#3f3d56"/><path d="M492.192,596.16s50.006,11.132,92.01.316c0,0,5.142,0,1.629,5.942a9.494,9.494,0,0,1-3.834,3.6c-8.1,4.136-38.074,16.365-86.005.771a9.431,9.431,0,0,1-6.249-6.4C489.2,598.379,489.442,596.443,492.192,596.16Z" transform="translate(-286.479 -361.213)" fill="#f6f8fb"/><path d="M499.4,383.43a84.648,84.648,0,0,1,84.5,79.627q.24-3.156.24-6.383a84.652,84.652,0,1,0-169.3,0c0,1.692.06,3.354.156,5.037A84.658,84.658,0,0,1,499.4,383.43Z" transform="translate(-247.59 -244.4)" opacity="0.1"/><path d="M587.659,155.609a10.849,10.849,0,1,1-21.7,0v-.522a10.849,10.849,0,0,1,21.67,0A3.8,3.8,0,0,1,587.659,155.609Z" transform="translate(-326.294 -125.859)" fill="#3f3d56"/><path d="M587.659,162.594a10.849,10.849,0,1,1-21.7,0v-.522a17.127,17.127,0,0,1,21.67,0A3.8,3.8,0,0,1,587.659,162.594Z" transform="translate(-326.294 -132.845)" opacity="0.1"/><circle cx="17.132" cy="17.132" r="17.132" transform="translate(233.384 26.323)" fill="#3f3d56"/><path d="M563.874,150.569a10.854,10.854,0,0,1,9.412-10.754,10.849,10.849,0,1,0,0,21.507A10.854,10.854,0,0,1,563.874,150.569Z" transform="translate(-323.706 -123.215)" fill="#3f3d56"/><path d="M542.229,195.065A10.85,10.85,0,0,1,540.4,180.89a10.849,10.849,0,1,0,15.234,15.388,10.428,10.428,0,0,0,.882-1.145A10.845,10.845,0,0,1,542.229,195.065Z" transform="translate(-311.034 -144.656)" fill="#3f3d56"/><path d="M565.832,234.175a9.376,9.376,0,0,0-2.535.867c-1.438.992-1.375,3.1-.958,4.792.958,3.834,3.355,7.529,6.982,9.105a16.957,16.957,0,0,0,7.035,1.021c2.6-.029,5.53-.359,7.14-2.4a9.407,9.407,0,0,0,1.462-3.575c.8-3.115,1.6-6.3,1.308-9.5-1.577.139-3.354.23-4.562-.762s-1.524-2.875-2.061-4.452a1.121,1.121,0,0,0-.4-.633,1.226,1.226,0,0,0-.719-.11,28.391,28.391,0,0,1-4.931-.244c-1.021-.134-3.532-1.2-4.313-.3-.561.657-.206,2.636-.633,3.551A4.965,4.965,0,0,1,565.832,234.175Z" transform="translate(-324.273 -169.07)" fill="#ffc1c7"/><path d="M565.832,234.175a9.376,9.376,0,0,0-2.535.867c-1.438.992-1.375,3.1-.958,4.792.958,3.834,3.355,7.529,6.982,9.105a16.957,16.957,0,0,0,7.035,1.021c2.6-.029,5.53-.359,7.14-2.4a9.407,9.407,0,0,0,1.462-3.575c.8-3.115,1.6-6.3,1.308-9.5-1.577.139-3.354.23-4.562-.762s-1.524-2.875-2.061-4.452a1.121,1.121,0,0,0-.4-.633,1.226,1.226,0,0,0-.719-.11,28.391,28.391,0,0,1-4.931-.244c-1.021-.134-3.532-1.2-4.313-.3-.561.657-.206,2.636-.633,3.551A4.965,4.965,0,0,1,565.832,234.175Z" transform="translate(-324.273 -169.07)" opacity="0.05"/><path d="M368.314,472.682c-3.834.115-7.749-.048-11.5.8a2.947,2.947,0,0,0-1.859.958,2.686,2.686,0,0,0,.2,2.732A8.487,8.487,0,0,0,360,481.2c2.281.728,4.739.45,7.126.527a23.835,23.835,0,0,1,9.4,2.262,3.8,3.8,0,0,0,2.113.561c1.059-.163,1.72-1.222,2.113-2.219a27.085,27.085,0,0,0,1.059-3.676c.556-2.363.633-7.03-2.612-7.667-1.486-.288-3.235.738-4.663,1.035A34.7,34.7,0,0,1,368.314,472.682Z" transform="translate(-216.201 -295.921)" fill="#444053"/><path d="M784.3,448.193a4.419,4.419,0,0,0,2.238-1.716c1.438-2.094,1.438-4.6,2.2-6.891.958-2.986,3.081-5.449,4.414-8.29a17.142,17.142,0,0,0,1.6-8.147,1.438,1.438,0,0,0-1.682-1.342,8.114,8.114,0,0,0-4.6,3.153c-1.481,1.917-2.449,4.2-3.968,6.091s-3.652,3.412-5.458,5.152c-2.267,2.185-4.045,4.562-2.022,7.4C778.673,445.931,780.945,449.295,784.3,448.193Z" transform="translate(-435.802 -270.304)" fill="#444053"/><path d="M472.528,343.762a153.968,153.968,0,0,1-44.088,38.9c-5.219,3.062-10.663,5.842-15.3,9.728a80.841,80.841,0,0,0-9.469,9.987A2.4,2.4,0,0,0,403,403.6a2.353,2.353,0,0,0,.177.987c.958,2.827,2.07,5.894,4.629,7.437,6.632-9.584,19.811-12.062,29.918-17.86a133.752,133.752,0,0,0,13.308-9.278q9.393-7.03,19.2-13.471c4.337-2.847,8.8-5.645,13.777-7.126,10.543-3.153,22.044,0,31.782,5.176s18.311,12.249,27.852,17.755c12.968,7.476,27.435,11.885,41.759,16.231.513-3.441.824-6.814,1.553-10.217a42.808,42.808,0,0,1-10.289-3.3,61.007,61.007,0,0,1-10.816-5.382c-2.209-1.5-4.217-3.278-6.4-4.792-4.763-3.355-10.284-5.463-15.11-8.717-6.287-4.236-11.151-10.231-16.9-15.172-2.506-2.152-5.171-4.1-7.84-6.048a40.055,40.055,0,0,0-8.746-5.3c-3.776-1.49-7.9-1.8-11.947-2.085C489.847,341.764,481.111,340.872,472.528,343.762Z" transform="translate(-241.426 -228.602)" fill="#575a89"/><circle cx="11.98" cy="11.98" r="11.98" transform="translate(238.296 39.741)" fill="#ffc1c7"/><path d="M561.986,251.386a14.377,14.377,0,0,1-6.048-2.2,8.808,8.808,0,0,1-3.685-5.147c-.388-1.692-.172-3.517-.853-5.108a45.732,45.732,0,0,1-6.709,2.722,10.826,10.826,0,0,0-3.709,1.639c-2.267,1.845-2.4,5.2-2.334,8.118a5.4,5.4,0,0,0,.216,1.711,4.314,4.314,0,0,0,.934,1.409c2.463,2.636,6.292,3.728,8.626,6.493a9.244,9.244,0,0,0-2.257,4.869,17.2,17.2,0,0,1-.307,2.166,13.37,13.37,0,0,1-.7,1.72c-1.514,3.45-1.462,7.351-1.692,11.108s-.882,7.759-3.422,10.543A5.667,5.667,0,0,0,543.929,293c1.49.139,3.033-.057,4.552,0,4.006.115,7.787,1.754,11.65,2.823s8.247,1.5,11.664-.589c1.2-.733,2.214-1.744,3.417-2.468a16.824,16.824,0,0,1,4.792-1.7l.6-20.012a34,34,0,0,1,.3-4.193c.867-5.473,4.361-10.107,7.744-14.492a13.26,13.26,0,0,0-6.081-9.872,26.055,26.055,0,0,0-4.792-2.224l-3.939-1.514a2.195,2.195,0,0,0-1.121-.211c-.853.153-1.179,1.193-1.227,2.056-.077,1.361.125,2.727.077,4.088a5.534,5.534,0,0,1-1.351,3.762,6.5,6.5,0,0,1-2.4,1.361C565.805,250.586,564.109,251.7,561.986,251.386Z" transform="translate(-312.065 -174.774)" fill="#ff6584"/><path d="M545.652,353.179a35.176,35.176,0,0,1-.134,8,11.95,11.95,0,0,1-3.556,7.016c-1.548,1.366-3.724,2.4-4.107,4.442a2.4,2.4,0,0,0,.105,1.342,2.55,2.55,0,0,0,2.76,1.289,6.437,6.437,0,0,0,2.875-1.5,63.517,63.517,0,0,0,4.763-4.313,11.371,11.371,0,0,0,3.283-4.447,10.98,10.98,0,0,0,.388-2.6c.312-4.792.393-9.584.479-14.376.057-3.489.1-7.088-1.189-10.332.192.479-4.476.934-4.831.958-2.013.177-1.629,1.006-1.514,2.9Q545.311,347.39,545.652,353.179Z" transform="translate(-311.623 -226.467)" fill="#ffc1c7"/><path d="M619.524,353.179a35.173,35.173,0,0,0,.134,8,11.951,11.951,0,0,0,3.556,7.016c1.548,1.366,3.724,2.4,4.107,4.442a2.4,2.4,0,0,1-.105,1.342,2.55,2.55,0,0,1-2.76,1.289,6.436,6.436,0,0,1-2.875-1.5,63.523,63.523,0,0,1-4.763-4.313,11.371,11.371,0,0,1-3.283-4.447,10.977,10.977,0,0,1-.388-2.6c-.312-4.792-.393-9.584-.479-14.376-.057-3.489-.1-7.088,1.188-10.332-.192.479,4.476.934,4.83.958,2.013.177,1.629,1.006,1.514,2.9Q619.883,347.39,619.524,353.179Z" transform="translate(-350.615 -226.467)" fill="#ffc1c7"/><path d="M540.571,261.7c-1.692,4.993-1.006,10.543.724,15.512a8.085,8.085,0,0,1,.719,3.776,11.878,11.878,0,0,1-.594,1.917,9.076,9.076,0,0,0-.259,4.653,2.914,2.914,0,0,0,.532,1.284,5.966,5.966,0,0,1,.479.556c.656,1.026-.633,2.3-.479,3.508.115,1.006,1.136,1.6,1.85,2.324,2.017,2.046,1.629,5.377,1.1,8.2,2.449-.216,4.562-2.219,7.016-2.056a4.2,4.2,0,0,1,3.613,2.784c-.091-2.372.752-4.394.958-6.762.273-3.081-1.72-5.842-2.684-8.774-1.4-4.275-.613-8.918-.958-13.418a44.84,44.84,0,0,0-.728-4.979c-.436-2.252-1.073-4.715-2.981-5.995C546.422,262.6,542.723,263.761,540.571,261.7Z" transform="translate(-312.557 -186.842)" opacity="0.1"/><path d="M539.571,259.7c-1.692,4.993-1.006,10.543.724,15.512a8.085,8.085,0,0,1,.719,3.776,11.876,11.876,0,0,1-.594,1.917,9.076,9.076,0,0,0-.259,4.653,2.914,2.914,0,0,0,.532,1.284,5.957,5.957,0,0,1,.479.556c.657,1.026-.633,2.3-.479,3.508.115,1.006,1.136,1.6,1.85,2.324,2.018,2.046,1.629,5.377,1.1,8.2,2.449-.216,4.562-2.219,7.016-2.056a4.2,4.2,0,0,1,3.613,2.784c-.091-2.372.752-4.394.958-6.762.273-3.081-1.72-5.842-2.684-8.774-1.4-4.275-.613-8.918-.958-13.418a44.84,44.84,0,0,0-.728-4.979c-.436-2.252-1.073-4.715-2.981-5.995C545.422,260.6,541.723,261.761,539.571,259.7Z" transform="translate(-312.036 -185.799)" fill="#ff6584"/><path d="M622.533,261.7c1.692,4.993,1.006,10.543-.724,15.512a8.085,8.085,0,0,0-.719,3.776,11.878,11.878,0,0,0,.594,1.917,9.075,9.075,0,0,1,.259,4.653,2.913,2.913,0,0,1-.532,1.284,5.976,5.976,0,0,0-.479.556c-.656,1.026.633,2.3.479,3.508-.115,1.006-1.136,1.6-1.85,2.324-2.017,2.046-1.629,5.377-1.1,8.2-2.449-.216-4.562-2.219-7.016-2.056a4.2,4.2,0,0,0-3.613,2.784c.091-2.372-.752-4.394-.958-6.762-.273-3.081,1.72-5.842,2.684-8.774,1.4-4.275.613-8.918.958-13.418a44.842,44.842,0,0,1,.719-4.955c.436-2.252,1.074-4.715,2.981-5.995C616.682,262.6,620.381,263.761,622.533,261.7Z" transform="translate(-347.595 -186.842)" opacity="0.1"/><path d="M623.533,259.7c1.692,4.993,1.006,10.543-.724,15.512a8.085,8.085,0,0,0-.719,3.776,11.882,11.882,0,0,0,.594,1.917,9.076,9.076,0,0,1,.259,4.653,2.915,2.915,0,0,1-.532,1.284,5.962,5.962,0,0,0-.479.556c-.657,1.026.633,2.3.479,3.508-.115,1.006-1.136,1.6-1.85,2.324-2.018,2.046-1.629,5.377-1.1,8.2-2.449-.216-4.562-2.219-7.016-2.056a4.2,4.2,0,0,0-3.613,2.784c.091-2.372-.752-4.394-.958-6.762-.273-3.081,1.72-5.842,2.684-8.774,1.4-4.275.613-8.918.958-13.418a44.828,44.828,0,0,1,.719-4.955c.436-2.252,1.073-4.715,2.981-5.995C617.682,260.6,621.381,261.761,623.533,259.7Z" transform="translate(-348.116 -185.799)" fill="#ff6584"/><ellipse cx="14.376" cy="9.584" rx="14.376" ry="9.584" transform="translate(235.66 30.876)" fill="#3f3d56"/><path d="M561.558,288.429a6.709,6.709,0,0,1,6.23-6.709h-.479a6.709,6.709,0,0,0,0,13.418,3.179,3.179,0,0,0,.479-.024A6.709,6.709,0,0,1,561.558,288.429Z" transform="translate(-323.498 -197.27)" opacity="0.05"/><ellipse cx="5.271" cy="6.709" rx="5.271" ry="6.709" transform="translate(238.059 84.445)" fill="#ff6584"/><path d="M612.83,288.429a6.709,6.709,0,0,0-6.23-6.709h.479a6.709,6.709,0,0,1,0,13.418,3.244,3.244,0,0,1-.479-.024A6.709,6.709,0,0,0,612.83,288.429Z" transform="translate(-347.464 -197.27)" opacity="0.05"/><ellipse cx="5.271" cy="6.709" rx="5.271" ry="6.709" transform="translate(254.824 84.445)" fill="#ff6584"/><path d="M571.976,197.825c-7.7,0-13.984-4.035-14.376-9.105v.479c0,5.271,6.441,9.584,14.376,9.584s14.377-4.313,14.377-9.584v-.479C585.965,193.79,579.677,197.825,571.976,197.825Z" transform="translate(-321.94 -148.734)" opacity="0.1"/><path d="M350.226,121.636l-7.437,4.72,4.514-8.214a7.356,7.356,0,0,0-4.5-1.605h-.12a8.668,8.668,0,0,1-1.543-.11l-2.521,1.6,1.078-1.965a8.971,8.971,0,0,1-4.409-3.355l-4.509,2.875,2.866-5.19a13.206,13.206,0,0,0-10.107-5.108c-4.691,0-8.87,2.794-11.568,7.14a8.626,8.626,0,0,1-7.667,4.121h-.249c-5.18,0-9.378,5.875-9.378,13.116s4.2,13.116,9.378,13.116a7.05,7.05,0,0,0,3.263-.815,13.537,13.537,0,0,1,11.353-.225,11.841,11.841,0,0,0,9.651,0,13.548,13.548,0,0,1,11.247.216,7.054,7.054,0,0,0,3.235.8c5.18,0,9.378-5.87,9.378-13.116a16.663,16.663,0,0,0-1.96-8Z" transform="translate(-184.958 -105.28)" fill="#f2f2f2"/><path d="M336.209,159.41a13.849,13.849,0,0,0-8.036.877,11.832,11.832,0,0,1-9.647,0,13.538,13.538,0,0,0-11.353.22,7,7,0,0,1-3.263.819c-4.605,0-8.429-4.634-9.23-10.749a8.832,8.832,0,0,0,2.3-2.482c2.7-4.346,6.877-7.136,11.568-7.136s8.822,2.755,11.5,7.059a8.875,8.875,0,0,0,7.643,4.2h.12C331.493,152.193,334.666,155.13,336.209,159.41Z" transform="translate(-184.956 -123.862)" opacity="0.03"/><path d="M910.458,302.147l-3.709,2.353L909,300.407a3.661,3.661,0,0,0-2.247-.8H906.7a4.613,4.613,0,0,1-.772-.058l-1.256.8.537-.958a4.5,4.5,0,0,1-2.2-1.672l-2.247,1.438,1.438-2.583A6.589,6.589,0,0,0,897.136,294a6.863,6.863,0,0,0-5.751,3.561,4.313,4.313,0,0,1-3.834,2.056h-.125c-2.583,0-4.677,2.928-4.677,6.541s2.094,6.532,4.677,6.532a3.508,3.508,0,0,0,1.629-.407,6.757,6.757,0,0,1,5.664-.11,5.9,5.9,0,0,0,4.792,0,6.747,6.747,0,0,1,5.612.11,3.493,3.493,0,0,0,1.61.4c2.583,0,4.677-2.928,4.677-6.541A8.348,8.348,0,0,0,910.458,302.147Z" transform="translate(-491.348 -203.674)" fill="#f2f2f2"/><path d="M903.507,320.985a6.921,6.921,0,0,0-4.011.436,5.883,5.883,0,0,1-2.4.508,5.947,5.947,0,0,1-2.4-.518,6.709,6.709,0,0,0-5.66.11,3.522,3.522,0,0,1-1.629.407c-2.3,0-4.208-2.315-4.605-5.362a4.435,4.435,0,0,0,1.15-1.236,6.44,6.44,0,0,1,11.5-.038,4.428,4.428,0,0,0,3.834,2.094h.062C901.145,317.386,902.726,318.848,903.507,320.985Z" transform="translate(-491.376 -212.936)" opacity="0.03"/><path d="M780.011,182.715l5.961,3.781-3.618-6.58a5.89,5.89,0,0,1,3.6-1.289h.1a7.092,7.092,0,0,0,1.236-.1l2.018,1.284-.863-1.577a7.188,7.188,0,0,0,3.532-2.712l3.613,2.291-2.281-4.15a10.569,10.569,0,0,1,8.1-4.1c3.757,0,7.107,2.238,9.268,5.722a6.93,6.93,0,0,0,6.124,3.3h.206c4.15,0,7.509,4.706,7.509,10.509s-3.355,10.509-7.509,10.509a5.66,5.66,0,0,1-2.621-.652,10.835,10.835,0,0,0-9.105-.182,9.484,9.484,0,0,1-7.735,0,10.84,10.84,0,0,0-9.014.177,5.645,5.645,0,0,1-2.588.637c-4.15,0-7.514-4.706-7.514-10.509a13.341,13.341,0,0,1,1.581-6.369Z" transform="translate(-437.002 -138.761)" fill="#f2f2f2"/><path d="M805.17,212.918a11.074,11.074,0,0,1,6.436.7,9.484,9.484,0,0,0,7.735,0,10.854,10.854,0,0,1,9.105.177,5.636,5.636,0,0,0,2.621.657c3.685,0,6.752-3.714,7.389-8.626a7.161,7.161,0,0,1-1.84-1.989c-2.161-3.484-5.511-5.717-9.273-5.717s-7.064,2.209-9.225,5.655a7.116,7.116,0,0,1-6.124,3.355h-.1C808.946,207.168,806.406,209.506,805.17,212.918Z" transform="translate(-450.929 -153.63)" opacity="0.03"/><path d="M287.99,671.585c-1.979-3.661.264-8.147,2.842-11.41s5.727-6.666,5.66-10.825c-.1-5.981-6.445-9.512-11.5-12.68a56.066,56.066,0,0,1-10.332-8.3,15.09,15.09,0,0,1-3.177-4.251c-1.049-2.339-1.021-5-.958-7.562q.331-12.8,1.265-25.571" transform="translate(-172.355 -358.616)" fill="none" stroke="#3f3d56" stroke-miterlimit="10" stroke-width="4"/><path d="M253.069,580.327a9.3,9.3,0,0,1,4.658-7.667l2.085,4.126-.072-4.979a9.2,9.2,0,0,1,3.072-.369,9.326,9.326,0,1,1-9.742,8.889Z" transform="translate(-163.268 -348.318)" fill="#57b894"/><path d="M286.665,706.919a9.326,9.326,0,1,0-.45-7.509l5.822,4.739-6.407-1.486A9.187,9.187,0,0,0,286.665,706.919Z" transform="translate(-180.238 -411.912)" fill="#57b894"/><path d="M287.731,663.635a9.326,9.326,0,0,0,2.957-18.3l.048,3.834-2.113-4.184H288.6a9.329,9.329,0,1,0-.867,18.639Z" transform="translate(-176.698 -386.666)" fill="#57b894"/><path d="M240.5,632.212a9.326,9.326,0,1,0-4.126-17.453l1.649,4.519-3.388-3.259a9.287,9.287,0,0,0-3.014,6.441,9.105,9.105,0,0,0,.235,2.569A9.321,9.321,0,0,0,240.5,632.212Z" transform="translate(-152.053 -370.291)" fill="#57b894"/><path d="M254.554,588.348c2.152.24,4.246.906,6.407,1.04s4.529-.383,5.894-2.061a29.5,29.5,0,0,0,1.73-3.033,6.623,6.623,0,0,1,2.348-2.214,9.326,9.326,0,1,1-17.434,6.191A9.491,9.491,0,0,1,254.554,588.348Z" transform="translate(-163.498 -353.868)" opacity="0.1"/><path d="M240.744,638.013a9.33,9.33,0,0,0,8.87-13.3,6.873,6.873,0,0,0-1.879,1.879,29.745,29.745,0,0,1-1.845,3.081c-1.438,1.706-3.934,2.267-6.187,2.161s-4.423-.738-6.666-.958c-.307-.029-.623-.048-.958-.057A9.321,9.321,0,0,0,240.744,638.013Z" transform="translate(-152.3 -376.094)" opacity="0.1"/><path d="M288.182,669.641a9.326,9.326,0,0,0,8.947-13.131,7.509,7.509,0,0,0-1.974,1.917,31.325,31.325,0,0,1-2.022,3.144c-1.577,1.754-4.217,2.4-6.6,2.315-2.31-.048-4.533-.618-6.829-.791A9.335,9.335,0,0,0,288.182,669.641Z" transform="translate(-177.148 -392.673)" opacity="0.1"/><path d="M287.79,713.42a9.326,9.326,0,0,0,17-7.61,9.38,9.38,0,0,0-2.046,1.826,36.521,36.521,0,0,1-2.5,3.311c-1.917,1.874-4.984,2.645-7.725,2.717A40.693,40.693,0,0,1,287.79,713.42Z" transform="translate(-181.363 -418.412)" opacity="0.1"/><path d="M869.444,686.922c-1.438-2.7.2-6.019,2.1-8.429s4.227-4.922,4.174-7.993c-.067-4.418-4.759-7.025-8.5-9.369a41.354,41.354,0,0,1-7.639-6.143,11.288,11.288,0,0,1-2.348-3.144,12.811,12.811,0,0,1-.7-5.583q.245-9.45.958-18.891" transform="translate(-477.673 -377.562)" fill="none" stroke="#3f3d56" stroke-miterlimit="10" stroke-width="4"/><path d="M843.64,619.523a6.9,6.9,0,0,1,3.441-5.645l1.543,3.053-.048-3.695a6.994,6.994,0,0,1,2.271-.273,6.891,6.891,0,1,1-7.188,6.56Z" transform="translate(-470.966 -369.966)" fill="#57b894"/><path d="M868.462,713.089a6.886,6.886,0,1,0-.336-5.545l4.313,3.5-4.73-1.1A6.808,6.808,0,0,0,868.462,713.089Z" transform="translate(-483.507 -416.975)" fill="#57b894"/><path d="M869.237,681.019a6.891,6.891,0,0,0,7.188-6.56,6.8,6.8,0,0,0-.594-3.134,6.905,6.905,0,0,0-4.423-3.834l.034,2.842-1.557-3.091h0a6.9,6.9,0,0,0-.647,13.778Z" transform="translate(-480.878 -398.322)" fill="#57b894"/><path d="M834.345,657.851A6.891,6.891,0,1,0,831.3,644.96l1.217,3.355-2.506-2.4a6.843,6.843,0,0,0-2.224,4.754,6.708,6.708,0,0,0,.172,1.917,6.886,6.886,0,0,0,6.383,5.262Z" transform="translate(-462.702 -386.191)" fill="#57b894"/><path d="M844.757,625.459c1.586.177,3.134.671,4.73.772a5.14,5.14,0,0,0,4.356-1.524,20.623,20.623,0,0,0,1.275-2.243,4.926,4.926,0,0,1,1.735-1.634A6.879,6.879,0,1,1,844,625.4C844.235,625.411,844.479,625.431,844.757,625.459Z" transform="translate(-471.153 -374.068)" opacity="0.1"/><path d="M834.543,662.144a6.9,6.9,0,0,0,6.556-9.824,5.167,5.167,0,0,0-1.39,1.385,20.538,20.538,0,0,1-1.361,2.276,5.641,5.641,0,0,1-4.572,1.6c-1.663-.077-3.263-.551-4.922-.7-.23-.024-.479-.038-.695-.043A6.886,6.886,0,0,0,834.543,662.144Z" transform="translate(-462.901 -390.485)" opacity="0.1"/><path d="M869.578,685.465a6.891,6.891,0,0,0,7.188-6.56,6.8,6.8,0,0,0-.594-3.134,5.548,5.548,0,0,0-1.438,1.4,23.575,23.575,0,0,1-1.5,2.319,6.374,6.374,0,0,1-4.878,1.711c-1.763-.043-3.354-.455-5.041-.585a6.882,6.882,0,0,0,6.259,4.85Z" transform="translate(-481.219 -402.768)" opacity="0.1"/><path d="M869.28,717.9a6.891,6.891,0,0,0,12.56-5.616,6.842,6.842,0,0,0-1.514,1.347,27.97,27.97,0,0,1-1.845,2.449,8.636,8.636,0,0,1-5.7,2A29.15,29.15,0,0,1,869.28,717.9Z" transform="translate(-484.324 -421.782)" opacity="0.1"/><path d="M995.929,678.59c1.979-3.661-.264-8.147-2.842-11.41s-5.751-6.666-5.66-10.826c.1-5.981,6.445-9.512,11.5-12.68a56.065,56.065,0,0,0,10.337-8.3,15.088,15.088,0,0,0,3.177-4.251c1.049-2.339,1.021-5,.958-7.562q-.3-12.814-1.26-25.566" transform="translate(-545.906 -362.267)" fill="none" stroke="#3f3d56" stroke-miterlimit="10" stroke-width="4"/><path d="M1038.871,587.312a9.316,9.316,0,0,0-4.658-7.667l-2.089,4.131.067-5a9.215,9.215,0,0,0-3.072-.369,9.326,9.326,0,1,0,9.752,8.9Z" transform="translate(-562.99 -351.952)" fill="#57b894"/><path d="M1005.273,713.919a9.326,9.326,0,1,1,.45-7.509l-5.823,4.74,6.407-1.486A9.187,9.187,0,0,1,1005.273,713.919Z" transform="translate(-546.026 -415.557)" fill="#57b894"/><path d="M1004.188,670.635a9.326,9.326,0,0,1-2.957-18.3l-.048,3.834,2.137-4.183h0a9.329,9.329,0,1,1,.867,18.639Z" transform="translate(-549.545 -390.316)" fill="#57b894"/><path d="M1051.449,639.212a9.326,9.326,0,1,1,4.126-17.453l-1.648,4.519,3.388-3.259a9.326,9.326,0,0,1-5.866,16.193Z" transform="translate(-574.168 -373.941)" fill="#57b894"/><path d="M1037.618,595.348c-2.152.24-4.246.906-6.407,1.04s-4.529-.383-5.894-2.061a29.483,29.483,0,0,1-1.73-3.033,6.623,6.623,0,0,0-2.348-2.214,9.326,9.326,0,1,0,17.434,6.192A9.927,9.927,0,0,0,1037.618,595.348Z" transform="translate(-562.992 -357.518)" opacity="0.1"/><path d="M1051.44,645.013a9.33,9.33,0,0,1-8.87-13.3,6.872,6.872,0,0,1,1.879,1.879,29.754,29.754,0,0,0,1.845,3.081c1.438,1.706,3.934,2.267,6.187,2.161s4.423-.738,6.666-.958c.307-.029.623-.048.958-.057A9.321,9.321,0,0,1,1051.44,645.013Z" transform="translate(-574.159 -379.743)" opacity="0.1"/><path d="M1004.2,676.641a9.326,9.326,0,0,1-8.947-13.131,7.511,7.511,0,0,1,1.974,1.917,31.3,31.3,0,0,0,2.022,3.144c1.577,1.754,4.217,2.4,6.6,2.315,2.31-.048,4.533-.618,6.829-.791A9.335,9.335,0,0,1,1004.2,676.641Z" transform="translate(-549.557 -396.383)" opacity="0.1"/><path d="M1005.362,720.42a9.326,9.326,0,0,1-16.974-7.61,9.377,9.377,0,0,1,2.046,1.826,36.493,36.493,0,0,0,2.5,3.311c1.917,1.874,4.984,2.645,7.725,2.717A40.7,40.7,0,0,0,1005.362,720.42Z" transform="translate(-546.114 -422.058)" opacity="0.1"/><path d="M276.83,749.051s7.356-.23,9.584-1.807,11.324-3.465,11.875-.958,11.06,12.6,2.751,12.666-19.308-1.294-21.522-2.64S276.83,749.051,276.83,749.051Z" transform="translate(-175.654 -438.857)" fill="#656380"/><path d="M301.179,762.412c-8.31.067-19.308-1.294-21.522-2.641-1.687-1.026-2.358-4.711-2.583-6.412h-.244s.479,5.933,2.679,7.284,13.212,2.708,21.522,2.641c2.4,0,3.225-.872,3.182-2.133C303.877,761.924,302.966,762.4,301.179,762.412Z" transform="translate(-175.654 -443.176)" opacity="0.2"/><path d="M865,748.957s4.313-.129,5.592-1.054,6.608-2.022,6.929-.542,6.455,7.351,1.605,7.389-11.271-.752-12.565-1.543S865,748.957,865,748.957Z" transform="translate(-482.095 -439.674)" fill="#656380"/><path d="M879.194,756.756c-4.85.038-11.271-.757-12.565-1.543-.958-.6-1.375-2.751-1.5-3.743H865s.273,3.465,1.562,4.251,7.715,1.586,12.565,1.543c1.4,0,1.883-.508,1.855-1.246C880.771,756.468,880.234,756.746,879.194,756.756Z" transform="translate(-482.095 -442.191)" opacity="0.2"/><path d="M975.83,753.051s7.356-.23,9.584-1.807,11.324-3.465,11.875-.958,11.06,12.6,2.751,12.666-19.308-1.294-21.522-2.641S975.83,753.051,975.83,753.051Z" transform="translate(-539.867 -440.94)" fill="#656380"/><path d="M1000.179,766.412c-8.31.067-19.307-1.294-21.522-2.641-1.687-1.026-2.358-4.711-2.583-6.412h-.244s.479,5.933,2.679,7.284,13.212,2.708,21.522,2.641c2.4,0,3.225-.872,3.182-2.133C1002.877,765.924,1001.966,766.4,1000.179,766.412Z" transform="translate(-539.867 -445.259)" opacity="0.2"/></svg>