<svg xmlns="http://www.w3.org/2000/svg" xmlns:xlink="http://www.w3.org/1999/xlink" width="645.485" height="453" viewBox="0 0 645.485 453">
  <defs>
    <linearGradient id="linear-gradient" x1="0.5" y1="1" x2="0.5" gradientUnits="objectBoundingBox">
      <stop offset="0" stop-color="gray" stop-opacity="0.251"/>
      <stop offset="0.54" stop-color="gray" stop-opacity="0.122"/>
      <stop offset="1" stop-color="gray" stop-opacity="0.102"/>
    </linearGradient>
    <linearGradient id="linear-gradient-2" x1="0.5" y1="1" x2="0.5" y2="0" xlink:href="#linear-gradient"/>
  </defs>
  <g id="Illustration" transform="translate(0.485 -40.178)">
    <path id="Path_128" data-name="Path 128" d="M60.216,396.83H119.57v80.9H64.562c-.146.83-.287,1.667-.439,2.5H119.57v65.243c-.1-.029-.187-.064-.281-.1-1.567-.62-3.123-1.275-4.679-1.977l-.994-.45q-2.339-1.105-4.679-2.339c-.544-.286-1.088-.585-1.626-.889A97.327,97.327,0,0,1,83.989,521.5c-.2-.193-.386-.4-.585-.585-.947-1.029-1.877-2.07-2.778-3.135l-.994-1.17c-1.064-1.3-2.094-2.643-3.094-4-.146-.2-.287-.4-.439-.585a87.066,87.066,0,0,1-10.059-18.188c-.082-.193-.152-.4-.228-.585q-1.2-3.1-2.135-6.258c-.269-.883-.526-1.754-.749-2.673-.082-.269-.152-.532-.216-.8C59.392,470.558,59,457.09,59,443.715v-4.679c0-5.41.064-10.854.158-16.293,0-1.409.058-2.813.088-4.228q.123-5.386.351-10.772c.035-1,.082-1.994.135-2.988a16.928,16.928,0,0,1,.088-1.719C59.959,400.953,60.076,398.889,60.216,396.83Z" transform="translate(-52.403 -158.974)" fill="#29abe3" opacity="0.1"/>
    <path id="Path_129" data-name="Path 129" d="M139.457,213.6H106.9a246.8,246.8,0,0,1,17.317-23.837c4.836-5.942,9.942-11.731,15.24-17.311Z" transform="translate(-72.29 -65.704)" fill="#29abe3" opacity="0.1"/>
    <path id="Path_130" data-name="Path 130" d="M120.566,247.09v85.068H61.4c0-.246.041-.5.058-.743.053-.673.105-1.345.164-2.012.064-.784.135-1.573.211-2.339s.158-1.7.246-2.55.17-1.708.269-2.556.187-1.7.292-2.538.2-1.7.31-2.538c.088-.7.181-1.4.275-2.1.134-.988.275-1.983.427-2.965a2.735,2.735,0,0,1,.064-.439,202.292,202.292,0,0,1,4.357-21.358,157.951,157.951,0,0,1,7.339-21.638,162.439,162.439,0,0,1,11.041-21.264Z" transform="translate(-53.4 -96.744)" fill="#29abe3" opacity="0.1"/>
    <path id="Path_131" data-name="Path 131" d="M186.8,256.331V337.2H313.355V256.331Zm0,83.369v69.45c.724.152,1.442.3,2.154.421.969.187,1.932.357,2.919.5.187.029.38.058.584.076.385.064.782.117,1.168.169.975.134,1.944.246,2.919.333.461.047.928.088,1.4.123l1.127.088h0c.613.047,1.22.082,1.822.1.374,0,.747.035,1.133.047h4.163c.5,0,1,0,1.5-.047h.035a7.857,7.857,0,0,0,1.045-.047,2.439,2.439,0,0,0,.292,0,6.027,6.027,0,0,0,.864-.041h.2l1.956-.152c.642-.058,1.29-.134,1.944-.2l1.331-.158a116.3,116.3,0,0,0,16.026-3.414c11.8-3.3,23.353-7.91,35.152-11.289,15.255-4.355,32.11-6.495,46.852-1.169V339.7ZM313.355,166.3V58.633a162.489,162.489,0,0,0-41.119,4.829c-32.046,8.062-60.8,25.547-85.437,47.878v54.952h6.352v2.5H186.8v85.047H313.355V168.794H219.231v-2.5ZM475.909,129.93a52.368,52.368,0,0,1-22.938-6.676c-13.632-7.424-24.521-18.888-36.687-28.563C391,74.54,359.652,62.38,327.489,59.364V166.3H508.153l.449-.474ZM509.817,426.4V339.7H472.634c-.1-.368-.2-.742-.315-1.117.111.374.2.748.309,1.117H327.513v62.7c1.378,1.023,2.738,2.1,4.087,3.192h0c1.454,1.169,2.89,2.4,4.332,3.613l1.454,1.2c.695.585,1.4,1.169,2.1,1.719q2.1,1.707,4.244,3.367c.706.585,1.43,1.111,2.148,1.66a292.586,292.586,0,0,0,35.981,23.565q4.221,2.338,8.518,4.566c1.909.976,3.83,1.947,5.757,2.888q4.344,2.122,8.757,4.092h0a321.271,321.271,0,0,0,85.238,24.863q9.8,1.45,19.681,2.28V426.39h.584Zm-182.3-257.6v85.041H509.841V168.794Zm0,87.537V337.2H509.841V256.331Zm196.48.029V337.2H701.328V256.331ZM700.68,432.815l.625-93.114H523.992V480.336a317.572,317.572,0,0,0,34.27-.409h.2q8.174-.514,16.271-1.5h.123a299.332,299.332,0,0,0,83.6-22.337m77.065-186.445c-.666-1.573-1.36-3.133-2.067-4.677-1.319-2.923-2.715-5.764-4.151-8.605H715.469V337.2h34.983c-.017-22.893-5.8-46.276-14.911-67.585ZM715.469,339.73v80.089a114.72,114.72,0,0,0,24.176-32.65c7.21-14.9,10.509-31.024,10.777-47.452Zm0-106.934v21.045h12.541a228.082,228.082,0,0,0-12.523-21.075ZM595.2,137.741c-.922-.351-1.845-.707-2.773-1.052a252.9,252.9,0,0,0-29.956-9.014l-34.084,37.455h0l-.654.7.438.479H649.479a259.338,259.338,0,0,0-54.26-28.592Zm57.833,31.083H526.479l-2.487,2.28v82.732H701.352V213.761a252.816,252.816,0,0,0-48.3-44.967Z" transform="translate(-105.463 -18.446)" fill="#29abe3" opacity="0.1"/>
    <path id="Path_132" data-name="Path 132" d="M120.566,320.46v42.16H61.4c0-.246.041-.5.058-.743.053-.673.105-1.345.164-2.012.064-.784.135-1.573.211-2.339s.158-1.7.246-2.55.17-1.708.269-2.556.187-1.7.292-2.538.2-1.7.31-2.538c.088-.7.181-1.4.275-2.1.134-.988.275-1.983.427-2.965a2.735,2.735,0,0,1,.064-.439,202.29,202.29,0,0,1,4.357-21.358Z" transform="translate(-53.4 -127.218)" fill="#29abe3" opacity="0.1"/>
    <path id="Path_133" data-name="Path 133" d="M60.216,396.83H119.57v80.9H64.562c-.146.83-.287,1.667-.439,2.5H119.57v65.243c-.1-.029-.187-.064-.281-.1-1.567-.62-3.123-1.275-4.679-1.977l-.994-.45q-2.339-1.105-4.679-2.339c-.544-.286-1.088-.585-1.626-.889A97.327,97.327,0,0,1,83.989,521.5c-.2-.193-.386-.4-.585-.585-.947-1.029-1.877-2.07-2.778-3.135l-.994-1.17c-1.064-1.3-2.094-2.643-3.094-4-.146-.2-.287-.4-.439-.585a87.066,87.066,0,0,1-10.059-18.188c-.082-.193-.152-.4-.228-.585q-1.2-3.1-2.135-6.258c-.269-.883-.526-1.754-.749-2.673-.082-.269-.152-.532-.216-.8C59.392,470.558,59,457.09,59,443.715v-4.679c0-5.41.064-10.854.158-16.293,0-1.409.058-2.813.088-4.228q.123-5.386.351-10.772c.035-1,.082-1.994.135-2.988a16.928,16.928,0,0,1,.088-1.719C59.959,400.953,60.076,398.889,60.216,396.83Z" transform="translate(-52.403 -158.974)" fill="#29abe3" opacity="0.1"/>
    <path id="Path_134" data-name="Path 134" d="M184.188,191.759v72.892H139.56V191.759h6.363V167.08h26.118v24.679Z" transform="translate(-58.223 -29.234)" fill="#29abe3" opacity="0.1"/>
    <rect id="Rectangle_5" data-name="Rectangle 5" width="44.622" height="80.898" transform="translate(81.343 237.871)" fill="#29abe3" opacity="0.1"/>
    <path id="Path_135" data-name="Path 135" d="M186.8,539.44h44.628v67.255a116.443,116.443,0,0,1-16.053,3.409l-1.333.164c-.655.076-1.3.14-1.947.2s-1.31.111-1.959.152h-.2c-.281,0-.585.035-.86.041h-.3c-.351,0-.7.035-1.053.047h0c-.5.029-.994.035-1.5.041h-4.141l-1.129-.041c-.585,0-1.216-.064-1.825-.105h0L198,610.525l-1.4-.129c-.982-.088-1.959-.2-2.924-.333l-1.17-.164-.585-.082c-.977-.152-1.942-.316-2.924-.5-.719-.123-1.433-.275-2.158-.421Z" transform="translate(-105.463 -218.197)" fill="#29abe3" opacity="0.1"/>
    <rect id="Rectangle_6" data-name="Rectangle 6" width="36.797" height="81.495" transform="translate(367.55 153.912)" fill="#29abe3" opacity="0.1"/>
    <path id="Path_136" data-name="Path 136" d="M563.226,338.19v80.9H380.58V384.2h97.285v20.586h48.558V338.19Z" transform="translate(-158.752 -100.319)" fill="#29abe3" opacity="0.1"/>
    <path id="Path_137" data-name="Path 137" d="M611.045,625.388h-.585V678.46q-9.884-.836-19.708-2.275a322.156,322.156,0,0,1-85.419-24.925q-11.773-5.3-23.065-11.568a294.317,294.317,0,0,1-36.048-23.574q-4.3-3.3-8.5-6.749c-1.936-1.6-3.86-3.234-5.807-4.825-1.351-1.094-2.714-2.17-4.094-3.2v-62.7H573.177c-.1-.374-.2-.749-.3-1.117.111.368.216.743.316,1.117H610.46v86.706C610.659,625.359,610.852,625.376,611.045,625.388Z" transform="translate(-205.993 -217.441)" fill="#29abe3" opacity="0.1"/>
    <path id="Path_138" data-name="Path 138" d="M887.2,221.765H863.22v-7.451h10.749V192.12q1.4.509,2.784,1.047v21.147H887.2Z" transform="translate(-387.038 -73.902)" fill="#81d8d0" opacity="0.1"/>
    <path id="Path_139" data-name="Path 139" d="M903.922,332.158H786.209l.041.029-.053-.029H764.36V250.663h6.187V310.9h28.276V275.226h23.358V247.09h23.978v28.159h23.358v35.674h34.405Z" transform="translate(-346.218 -96.744)" fill="#29abe3" opacity="0.1"/>
    <path id="Path_140" data-name="Path 140" d="M764.36,396.82v80.9H903.922v-80.9ZM941.807,572.957,942,508.919H903.922V480.262H764.36v140.65a318.558,318.558,0,0,0,34.329-.409h.2q8.187-.515,16.3-1.5h.123a300.16,300.16,0,0,0,83.747-22.346" transform="translate(-346.218 -159.021)" fill="#29abe3" opacity="0.1"/>
    <path id="Path_141" data-name="Path 141" d="M1094.826,539.44h32.557c-.287,16.428-3.585,32.563-10.8,47.464a114.811,114.811,0,0,1-24.212,32.662V568.1h2.456Z" transform="translate(-482.401 -218.2)" fill="#29abe3" opacity="0.1"/>
    <path id="Path_142" data-name="Path 142" d="M1129.145,487.161H1096.57V419.55H1114.2C1123.32,440.867,1129.115,464.26,1129.145,487.161Z" transform="translate(-484.145 -168.388)" fill="#29abe3" opacity="0.1"/>
    <rect id="Rectangle_7" data-name="Rectangle 7" width="19.714" height="25.551" transform="translate(384.629 176.566)" fill="#29abe3" opacity="0.1"/>
    <rect id="Rectangle_8" data-name="Rectangle 8" width="19.714" height="5.883" transform="translate(384.629 229.51)" fill="#29abe3" opacity="0.1"/>
    <rect id="Rectangle_9" data-name="Rectangle 9" width="19.714" height="17.165" transform="translate(384.629 237.885)" fill="#29abe3" opacity="0.1"/>
    <rect id="Rectangle_10" data-name="Rectangle 10" width="19.714" height="25.551" transform="translate(384.629 282.447)" fill="#29abe3" opacity="0.1"/>
    <rect id="Rectangle_11" data-name="Rectangle 11" width="19.714" height="25.551" transform="translate(384.629 335.387)" fill="#29abe3" opacity="0.1"/>
    <path id="Path_143" data-name="Path 143" d="M726.128,673.779a3.234,3.234,0,0,1,.585.035h-.585v5.936H706.42V654.17h19.709Z" transform="translate(-321.792 -265.843)" fill="#29abe3" opacity="0.1"/>
    <path id="Path_144" data-name="Path 144" d="M726.128,744.71v19.738q-9.884-.836-19.709-2.275V744.71Z" transform="translate(-321.791 -303.458)" fill="#29abe3" opacity="0.1"/>
    <rect id="Rectangle_12" data-name="Rectangle 12" width="84.489" height="1.877" transform="translate(221.909 316.885)" fill="#81d8d0" opacity="0.1"/>
    <rect id="Rectangle_13" data-name="Rectangle 13" width="84.489" height="7.193" transform="translate(221.909 321.256)" fill="#29abe3" opacity="0.1"/>
    <rect id="Rectangle_14" data-name="Rectangle 14" width="84.489" height="11.568" transform="translate(221.909 352.017)" fill="#29abe3" opacity="0.1"/>
    <path id="Path_145" data-name="Path 145" d="M515.205,652.15v11.568H449.121q-4.3-3.287-8.5-6.749c-1.936-1.6-3.854-3.234-5.807-4.819Z" transform="translate(-208.818 -264.999)" fill="#29abe3" opacity="0.1"/>
    <path id="Path_146" data-name="Path 146" d="M550.956,712.228v11.556h-6.977q-11.761-5.3-23.06-11.574Z" transform="translate(-244.616 -289.965)" fill="#29abe3" opacity="0.1"/>
    <rect id="Rectangle_15" data-name="Rectangle 15" width="16.632" height="16.632" transform="translate(452.746 245.725)" fill="#29abe3" opacity="0.1"/>
    <rect id="Rectangle_16" data-name="Rectangle 16" width="16.632" height="16.632" transform="translate(93.32 168.26)" fill="#29abe3" opacity="0.1"/>
    <rect id="Rectangle_17" data-name="Rectangle 17" width="16.632" height="16.632" transform="translate(93.32 206.878)" fill="#29abe3" opacity="0.1"/>
    <rect id="Rectangle_18" data-name="Rectangle 18" width="16.632" height="16.632" transform="translate(93.32 245.497)" fill="#29abe3" opacity="0.1"/>
    <rect id="Rectangle_19" data-name="Rectangle 19" width="16.632" height="16.632" transform="translate(93.32 284.109)" fill="#29abe3" opacity="0.1"/>
    <rect id="Rectangle_20" data-name="Rectangle 20" width="16.632" height="16.632" transform="translate(93.32 322.727)" fill="#81d8d0" opacity="0.1"/>
    <rect id="Rectangle_21" data-name="Rectangle 21" width="16.632" height="16.632" transform="translate(93.32 361.345)" fill="#29abe3" opacity="0.1"/>
    <rect id="Rectangle_22" data-name="Rectangle 22" width="16.632" height="16.632" transform="translate(515.974 245.725)" fill="#81d8d0" opacity="0.1"/>
    <rect id="Rectangle_23" data-name="Rectangle 23" width="16.632" height="16.632" transform="translate(452.746 286.734)" fill="#29abe3" opacity="0.1"/>
    <rect id="Rectangle_24" data-name="Rectangle 24" width="16.632" height="16.632" transform="translate(515.974 286.734)" fill="#81d8d0" opacity="0.1"/>
    <rect id="Rectangle_25" data-name="Rectangle 25" width="16.632" height="16.632" transform="translate(452.746 327.737)" fill="#29abe3" opacity="0.1"/>
    <rect id="Rectangle_26" data-name="Rectangle 26" width="16.632" height="16.632" transform="translate(515.974 327.737)" fill="#81d8d0" opacity="0.1"/>
    <rect id="Rectangle_27" data-name="Rectangle 27" width="16.632" height="16.632" transform="translate(452.746 368.746)" fill="#29abe3" opacity="0.1"/>
    <rect id="Rectangle_28" data-name="Rectangle 28" width="16.632" height="16.632" transform="translate(515.974 368.746)" fill="#81d8d0" opacity="0.1"/>
    <rect id="Rectangle_29" data-name="Rectangle 29" width="16.632" height="16.632" transform="translate(452.746 409.736)" fill="#29abe3" opacity="0.1"/>
    <rect id="Rectangle_30" data-name="Rectangle 30" width="16.632" height="16.632" transform="translate(515.974 409.736)" fill="#81d8d0" opacity="0.1"/>
    <path id="Path_147" data-name="Path 147" d="M775.83,713.056V702.33h16.626v9.2Z" transform="translate(-323.084 -251.574)" fill="#29abe3" opacity="0.1"/>
    <path id="Path_148" data-name="Path 148" d="M65.24,357v9.515h56.921V357Zm5.673,8.919H66.269v-8.334h4.679Zm5.667,0H71.9v-8.334H76.58Zm5.655,0H77.556v-8.334h4.679Zm5.667,0H83.229v-8.334h4.679Zm5.661,0H88.884v-8.334h4.679Zm5.667,0H94.551v-8.334H99.23Zm5.667,0h-4.679v-8.334H104.9Zm5.661,0h-4.679v-8.334h4.679Zm5.661,0H111.54v-8.334h4.679Zm5.661,0H117.2v-8.334h4.679Z" transform="translate(-54.994 -142.392)" fill="#29abe3" opacity="0.1"/>
    <path id="Path_149" data-name="Path 149" d="M65.24,404.34v9.515h56.921V404.34Zm5.673,8.913H66.269v-8.31h4.679Zm5.667,0H71.9v-8.31H76.58Zm5.655,0H77.556v-8.31h4.679Zm5.667,0H83.229v-8.31h4.679Zm5.661,0H88.884v-8.31h4.679Zm5.667,0H94.551v-8.31H99.23Zm5.667,0h-4.679v-8.31H104.9Zm5.661,0h-4.679v-8.31h4.679Zm5.661,0H111.54v-8.31h4.679Zm5.661,0H117.2v-8.31h4.679Z" transform="translate(-54.994 -162.057)" fill="#29abe3" opacity="0.1"/>
    <path id="Path_150" data-name="Path 150" d="M65.24,451.7v9.533h56.921V451.7Zm5.673,8.913H66.269V452.3h4.679Zm5.667,0H71.9V452.3H76.58Zm5.655,0H77.556V452.3h4.679Zm5.667,0H83.229V452.3h4.679Zm5.661,0H88.884V452.3h4.679Zm5.667,0H94.551V452.3H99.23Zm5.667,0h-4.679V452.3H104.9Zm5.661,0h-4.679V452.3h4.679Zm5.661,0H111.54V452.3h4.679Zm5.661,0H117.2V452.3h4.679Z" transform="translate(-54.994 -181.731)" fill="#29abe3" opacity="0.1"/>
    <path id="Path_151" data-name="Path 151" d="M65.24,499.06v9.5h56.921v-9.5Zm5.673,8.913H66.269v-8.322h4.679Zm5.667,0H71.9v-8.322H76.58Zm5.655,0H77.556v-8.322h4.679Zm5.667,0H83.229v-8.322h4.679Zm5.661,0H88.884v-8.322h4.679Zm5.667,0H94.551v-8.322H99.23Zm5.667,0h-4.679v-8.322H104.9Zm5.661,0h-4.679v-8.322h4.679Zm5.661,0H111.54v-8.322h4.679Zm5.661,0H117.2v-8.322h4.679Z" transform="translate(-54.994 -201.404)" fill="#29abe3" opacity="0.1"/>
    <path id="Path_152" data-name="Path 152" d="M65.66,546.41c.228.895.485,1.79.754,2.673v-2.076h4.679v8.316h-2.5c.076.193.152.4.228.585h53.517v-9.5Zm11.112,8.913H72.093v-8.316h4.679Zm5.655,0H77.748v-8.316h4.679Zm5.667,0H83.4v-8.316h4.679Zm5.661,0H89.076v-8.316h4.679Zm5.667,0H94.743v-8.316h4.679Zm5.667,0H100.41v-8.316h4.679Zm5.661,0h-4.679v-8.316h4.679Zm5.661,0h-4.679v-8.316h4.679Zm5.661,0h-4.679v-8.316h4.679Z" transform="translate(-55.168 -221.074)" fill="#29abe3" opacity="0.1"/>
    <path id="Path_153" data-name="Path 153" d="M88.26,593.77c.146.187.287.4.439.585h3.094v3.994c.333.4.661.8,1,1.17v-5.187h4.679v8.345H95.576c.187.193.368.4.585.585h35.575V593.77Zm14.86,8.907H98.442v-8.31h4.679Zm5.667,0h-4.679v-8.31h4.679Zm5.667,0h-4.679v-8.31h4.679Zm5.661,0h-4.679v-8.31h4.679Zm5.661,0H121.1v-8.31h4.679Zm5.661,0h-4.679v-8.31h4.679Z" transform="translate(-64.551 -240.747)" fill="#81d8d0" opacity="0.1"/>
    <path id="Path_154" data-name="Path 154" d="M141.65,641.12c.532.3,1.076.585,1.626.889v-.292h4.679v2.632l.994.462v-3.094h4.679v5.059a1.46,1.46,0,0,0,.281.105v-5.76Z" transform="translate(-86.718 -260.416)" fill="#81d8d0" opacity="0.1"/>
    <path id="Path_155" data-name="Path 155" d="M550.952,330.369Zm-36.025,172.6ZM477.341,415.15c.111.374.2.749.31,1.117h0C477.557,415.9,477.458,415.525,477.341,415.15Zm73.612-84.8ZM197.72,242.78v2.5h26.124v-2.5ZM514.927,502.973ZM477.341,415.15c.111.374.2.749.31,1.117h0C477.557,415.9,477.458,415.525,477.341,415.15Zm73.612-84.8Zm-36.025,172.6ZM477.341,415.15c.111.374.2.749.31,1.117h0C477.557,415.9,477.458,415.525,477.341,415.15Z" transform="translate(-109.997 -95.004)" fill="#81d8d0" opacity="0.1"/>
    <path id="Path_156" data-name="Path 156" d="M420.316,346.9s-2.3-.322-2.3-3.679-1.649-9.626-1.649-9.626h0c0-.029-1.427-10.919-3.4-12.65s-4.5-11.9-4.5-11.9-.433-5.515-1.316-6.7-2.076-4.094-3.836-8.24-9.1-7.018-9.1-7.018-13.27-7.7-17.03-10.205h0a5.766,5.766,0,0,1-.953-.719c-.655-.86-3.509-.877-3.509-.877a57.5,57.5,0,0,1-.678-6.006,4.578,4.578,0,0,0-.029-.632,20.235,20.235,0,0,0,8.9-11.006c.07-.222.129-.456.193-.678a1.9,1.9,0,0,0,1.14-1.029A21.447,21.447,0,0,1,383,253.6a8.811,8.811,0,0,1,2.164-1.9c1.86-1.579,2.339-4.24,2.252-6.661-.058-1.959-.374-3.936-.251-5.883l.035-.491c.035-.292.076-.585.129-.866.287-1.45.912-2.819,1.263-4.258a5.477,5.477,0,0,0-.433-4.3c-1.2-1.819-3.7-2.181-5.889-2.369-2.486-.211-4.708.064-6.3-2a22.449,22.449,0,0,0-2.5-3.024c-.327-.3-3.509-2.246-3.509-2.374a14.217,14.217,0,0,0-9.913-.76c-1.649.48-3.2,1.263-4.877,1.655-3.608.854-7.761-.07-10.825,1.994a12.724,12.724,0,0,0-3.69,4.842q-1.17,2.24-2.374,4.474a28.982,28.982,0,0,0-3.152,7.655,12.153,12.153,0,0,0-.211,1.79h0v.953a3.145,3.145,0,0,0,.035.585c.035.181.029.24.047.363s.047.4.082.585.105.515.175.772c.029.111.07.216.105.322.058.2.129.392.2.585.041.1.082.2.129.3a5.473,5.473,0,0,0,.3.585c.047.082.082.158.129.234a7.754,7.754,0,0,0,.538.784c1.251,1.561,3.094,2.556,4.456,4.018v.655a20.018,20.018,0,0,0,9.112,16.346c0,.222.029.45.041.673a33.466,33.466,0,0,1-.064,5.211,2.456,2.456,0,0,0-1.942-.866,2.8,2.8,0,0,0-.749.064l-.053-.041h0v.053c-1.287.316-2.871,1.655-4.386,5.462,0,0-4.608,5.193-8.117,4.977s-12.392,5.4-12.392,5.4-8.667,5.626-10.527,11.357a80.042,80.042,0,0,1-3.731,9.521L297.6,332.106h0l-1.977,17.515s1.094,7.79.877,8.977,4.5,11.9,4.5,11.9,15.574,27.364,21.937,28.767l.456-.322a3.733,3.733,0,0,0,.86.322l1.31-.924a14.269,14.269,0,0,1-.1,3.088c-.877,2.7.327,20.334,1.86,23.791s.988,48.774.988,48.774l-.216,4a1.7,1.7,0,0,0,.053.351l-.053.947.158.082a11.262,11.262,0,0,1-.158,3.807,42.335,42.335,0,0,0-.772,6.714s-4.38,28-2.3,33.627,3.842,11.79,3.842,11.79,2.193,7.018.105,8.217-8.024,3.211-6.8,6.135c1.111,2.7,5.328,9.942,5.953,11l-.053.556-.86,9.316a11.7,11.7,0,0,0,.988,3.556,6.127,6.127,0,0,0,6.252,3.906c.585-.041,1.263-.111,1.918-.2a82.9,82.9,0,0,0,14.211-3.7,5.794,5.794,0,0,1-1.111-.918h0a3.211,3.211,0,0,1-.977-2.339c.094-1.7-3.082-9.778-3.871-11.767-.123-.287-.187-.45-.187-.45s7.24-7.568,6.035-14.275c0,0-8.012-4.679-5.375-7.246s7.351-9.942,7.351-9.942.216-27.574,0-31.691a34.1,34.1,0,0,1,.4-8.556c.088-.427.193-.842.3-1.251a76.334,76.334,0,0,0,11.018.836c1.345,0,2.714,0,4.094-.082q0,.585.053,1.263c.3,6.831.871,18.808,1.333,23.258.655,6.38,4.275,23.574,4.275,23.574s-6.907,4.433,1.2,15.357c0,0,0,3.959-.538,4.532h0a49.569,49.569,0,0,0-1.386,5.708c-.339,2.059-.48,4.141.07,5.223,1.316,2.585,9.211,2.374,9.211,2.374h0l.193-.035a11.316,11.316,0,0,1,8.357,2.521c3,2.409,14.387,1.351,20.551.585,2.415-.3,4.029-.585,4.029-.585a2.341,2.341,0,0,0,.082-.842h0c-.064-1.515-1.252-4.837-9.3-7.8,0,0-7.568-5.088-7.462-9.521h-1.035a8.262,8.262,0,0,1,1.047,0s-2.965-10.819-1.754-11.7-2.415-12.866-2.415-12.866-2.076-20.118-2.187-21.527a12.279,12.279,0,0,1,.544-3.567l-.544-11.03s-.105-3.667,0-4.86a24.289,24.289,0,0,0-.252-3.094c-.053-.409-.105-.836-.164-1.257,2.836-.719,4.679-1.386,4.679-1.386l-.328-38.394c2.409-4.679,2.854-14.942,2.842-22.223,0-4.679-.211-8.141-.211-8.141l3.293-5.375s.76-6.433-.444-7.842a1.35,1.35,0,0,1,.146-1.842,6.114,6.114,0,0,1,.719-.491s-.035-.053-.076-.129a5.812,5.812,0,0,1,.731-.521s-1.17-1.813-.123-2.579c.982.667,1.86,1.17,2.526,1.579-.047.427-.094.673-.094.673l.281-.585,1.035.585s5.158-10.275,5.047-11.79,3.509-7.9,3.509-7.9.439-3.351,2.415-4.755,1.532-11.574,1.532-11.574.55-5.3,1.866-7.462S420.316,346.9,420.316,346.9Zm-98.695-4.509.1,2.45-1.006-1.62Z" transform="translate(-150.912 -84.845)" fill="url(#linear-gradient)"/>
    <path id="Path_157" data-name="Path 157" d="M477.135,502.808l-1.263,5.38s-10.117-5.164-11.942-11.726,3.053-9.053,3.053-9.053l9.427,3.994Z" transform="translate(-220.723 -196.568)" fill="#fff"/>
    <path id="Path_158" data-name="Path 158" d="M477.135,502.808l-1.263,5.38s-10.117-5.164-11.942-11.726,3.053-9.053,3.053-9.053l9.427,3.994Z" transform="translate(-220.723 -196.568)" opacity="0.1"/>
    <path id="Path_159" data-name="Path 159" d="M373.46,811.725s-9.357,3.439-15.79,3.871a6.008,6.008,0,0,1-6.135-3.883,11.752,11.752,0,0,1-.965-3.538l.836-9.269.444-4.936,13.667-3.55,1.936,5.918.181.45c.778,1.977,3.895,10.018,3.8,11.7a3.193,3.193,0,0,0,.959,2.31,5.566,5.566,0,0,0,1.064.93Z" transform="translate(-173.731 -322.435)" fill="#fff"/>
    <path id="Path_160" data-name="Path 160" d="M469.18,806.575a2.339,2.339,0,0,1-.082.836s-20.013,3.339-24.106,0a10.843,10.843,0,0,0-8.421-2.468s-7.743.211-9.036-2.339c-.538-1.07-.4-3.146-.064-5.193a49.487,49.487,0,0,1,1.357-5.679l.31-.246,1.842-1.48,21.568-.638h.164c-.105,4.41,7.322,9.468,7.322,9.468C467.923,801.762,469.086,805.067,469.18,806.575Z" transform="translate(-205.616 -321.999)" fill="#fff"/>
    <path id="Path_161" data-name="Path 161" d="M469.182,812.284a2.387,2.387,0,0,1-.088.836s-20.007,3.339-24.1,0a10.842,10.842,0,0,0-8.416-2.468s-7.749.211-9.036-2.339c-.538-1.076-.4-3.146-.07-5.193,2.983.3,7.69,1.041,9.538,2.813,2.8,2.7,7.533,5.386,10.439,5.6C449.725,811.676,463.334,812.109,469.182,812.284Z" transform="translate(-205.618 -327.708)" opacity="0.1"/>
    <path id="Path_162" data-name="Path 162" d="M374.149,826.211s-9.357,3.439-15.79,3.872a5.992,5.992,0,0,1-6.129-3.889c2.38.8,5.684,1.643,7.421.871,2.059-.912,9.357-1.5,13.451-1.754a5.767,5.767,0,0,0,1.047.9Z" transform="translate(-174.421 -336.921)" opacity="0.1"/>
    <path id="Path_163" data-name="Path 163" d="M402.405,328.089c-7.72-3-17.65-12.913-15.17-17.545a10.363,10.363,0,0,0,.965-3.719,33.966,33.966,0,0,0,.07-5.263A72.068,72.068,0,0,0,387.235,293s24.1.544,22.7,4.094a13.272,13.272,0,0,0-.363,4.872c.111,2.023.4,4.31.708,6.246.421,2.655.842,4.679.842,4.679s-1.474,2.064-2.339,2.176S413.482,332.364,402.405,328.089Z" transform="translate(-188.826 -115.81)" fill="#ffb0b1"/>
    <path id="Path_164" data-name="Path 164" d="M368.2,796.789l-.181.2c-7.205-8.714-15.919,2.146-15.919,2.146l-.129-.228.445-4.936,13.667-3.55,1.936,5.918Z" transform="translate(-174.311 -322.435)" opacity="0.1"/>
    <path id="Path_165" data-name="Path 165" d="M453.9,789.967s-5.263-.111-8.071,2.368-16.375.538-15.79,0a1.924,1.924,0,0,0,.3-.889l1.842-1.48,21.568-.637C453.833,789.722,453.9,789.967,453.9,789.967Z" transform="translate(-206.789 -321.983)" opacity="0.1"/>
    <path id="Path_166" data-name="Path 166" d="M372.938,665.21a16.278,16.278,0,0,0-.889,3,34.333,34.333,0,0,0-.4,8.515c.216,4.094,0,31.528,0,31.528s-4.626,7.316-7.205,9.9,5.263,7.211,5.263,7.211c1.17,6.667-5.918,14.2-5.918,14.2-7.205-8.714-15.919,2.152-15.919,2.152s-4.737-8.187-5.918-11.112,4.626-4.948,6.667-6.135-.1-8.188-.1-8.188-1.725-6.135-3.772-11.731S347,671.088,347,671.088a43.18,43.18,0,0,1,.754-6.673,11.156,11.156,0,0,0,.158-3.79c-.035-.427-.076-.784-.105-1.023s-.053-.351-.053-.351l.082-.14,2.924-5.451S374.342,661.777,372.938,665.21Z" transform="translate(-170.082 -265.656)" fill="#ce4e4d"/>
    <path id="Path_167" data-name="Path 167" d="M449.41,737.057s-5.263-.111-8.071,2.339-16.375.538-15.79,0,.538-4.521.538-4.521c-7.959-10.866-1.17-15.276-1.17-15.276s-3.556-17.106-4.2-23.451c-.45-4.433-1.006-16.346-1.3-23.147-.129-2.924-.2-4.936-.2-4.936l6.5-1.31.836-.17,15.685-3.146s.433,2.924.725,5.316a24.838,24.838,0,0,1,.246,3.082c-.105,1.17,0,4.831,0,4.831l.532,10.977a12.468,12.468,0,0,0-.532,3.55c.105,1.4,2.146,21.41,2.146,21.41s3.55,11.942,2.339,12.8S449.41,737.057,449.41,737.057Z" transform="translate(-202.295 -269.716)" fill="#ce4e4d"/>
    <path id="Path_168" data-name="Path 168" d="M410.207,297.094a13.272,13.272,0,0,0-.363,4.872,20.03,20.03,0,0,1-21.3-.4A72.083,72.083,0,0,0,387.51,293S411.611,293.532,410.207,297.094Z" transform="translate(-189.101 -115.807)" opacity="0.1"/>
    <path id="Path_169" data-name="Path 169" d="M413.843,263.693a19.808,19.808,0,0,1-.983,6.2,20.013,20.013,0,0,1-39.031-5.725v-.48a20.011,20.011,0,1,1,40.022,0Z" transform="translate(-183.417 -95.322)" fill="#ffb0b1"/>
    <path id="Path_170" data-name="Path 170" d="M402.405,337.9c-7.72-3-17.65-12.913-15.17-17.545a10.363,10.363,0,0,0,.965-3.719l10.568,8.685,6.538,5.363,4.971-12.656c.421,2.655.842,4.679.842,4.679s-1.474,2.064-2.339,2.176S413.482,342.179,402.405,337.9Z" transform="translate(-188.826 -125.628)" opacity="0.1"/>
    <path id="Path_171" data-name="Path 171" d="M377.347,317l-8.825,148.252L357.012,466l-29.8-85.963L332.1,277.982l1.029-21.562L346.38,267.3l6.544,5.363,5.117-13.024,9.515,8.293Z" transform="translate(-136.441 -66.387)" fill="#ce4e4d"/>
    <path id="Path_172" data-name="Path 172" d="M377.177,665.243a16.268,16.268,0,0,0-.889,3,84.8,84.8,0,0,1-24.13-7.538l-.158-.082.053-.941.029-.491,2.924-5.451S378.58,661.81,377.177,665.243Z" transform="translate(-174.327 -265.661)" opacity="0.1"/>
    <path id="Path_173" data-name="Path 173" d="M425.823,674.669a59.223,59.223,0,0,1-6.468.737c-.129-2.924-.2-4.936-.2-4.936l6.5-1.31Z" transform="translate(-202.257 -272.064)" opacity="0.1"/>
    <path id="Path_174" data-name="Path 174" d="M448.11,668.806c-4.158,1.082-10.579,2.3-16.328,1.538l-.082-3.708,15.685-3.146S447.818,666.385,448.11,668.806Z" transform="translate(-207.484 -269.708)" opacity="0.1"/>
    <path id="Path_175" data-name="Path 175" d="M377.828,526.339c-23.978,4.094-45.938-7.644-45.938-7.644l.211-3.977s.544-45.084-.965-48.54-2.684-20.983-1.831-23.674-3.117-43.031-3.117-43.031l-.643-16.375L302,373.56l10.527-21.943a79.193,79.193,0,0,0,3.661-9.474c1.831-5.7,10.328-11.293,10.328-11.293s8.714-5.591,12.158-5.38,7.959-4.948,7.959-4.948c3.334-8.5,6.351-4.649,6.351-4.649a7.59,7.59,0,0,1-.164,1.257c-1.17,9.328,18.913,38.8,19.2,39.323h0l1.912,46.587L375.869,462Z" transform="translate(-153.543 -124.999)" opacity="0.1"/>
    <path id="Path_176" data-name="Path 176" d="M376.716,526.314c-23.978,4.094-45.944-7.644-45.944-7.644l.216-3.977s.544-45.084-.971-48.54-2.684-20.983-1.825-23.674-3.117-43.031-3.117-43.031l-.649-16.375L300.87,373.5,311.4,351.557a80.426,80.426,0,0,0,3.661-9.474c1.825-5.7,10.328-11.293,10.328-11.293s8.714-5.591,12.153-5.38,7.959-4.948,7.959-4.948c3.339-8.5,7.018-4.649,7.018-4.649,0,.4-.351.585-.164,1.257,2.573,9.047,18.27,38.8,18.556,39.323h0l1.936,46.587,1.936,58.956Z" transform="translate(-153.073 -124.974)" fill="#fff"/>
    <path id="Path_177" data-name="Path 177" d="M403.829,358.683c-2.579-1.076-16.241-16.673-16.241-16.673v-3.55c-.5-1.17-3.45-.456-5.848.363l1.029-21.562,1.17.971C386.5,327.272,403.53,358.162,403.829,358.683Z" transform="translate(-186.7 -125.889)" opacity="0.1"/>
    <path id="Path_178" data-name="Path 178" d="M404.935,356.473C402.35,355.4,388.688,339.8,388.688,339.8v-3.55c-.5-1.17-3.45-.456-5.848.363l1.035-21.562,1.17.971C387.612,325.062,404.648,355.958,404.935,356.473Z" transform="translate(-187.158 -124.971)" fill="#fff"/>
    <path id="Path_179" data-name="Path 179" d="M352.176,517.669c.322,0,16.673-1.719,16.673-1.719s9.9,19.469,9.252,24.206-1.825,8.93-5.807,8.187-21.434.585-21.434.585Z" transform="translate(-173.854 -208.427)" opacity="0.1"/>
    <path id="Path_180" data-name="Path 180" d="M351.066,515.459c.322,0,16.673-1.719,16.673-1.719s9.9,19.475,9.252,24.206-1.83,8.93-5.807,8.187-21.434.585-21.434.585Z" transform="translate(-173.392 -207.508)" fill="#fff"/>
    <path id="Path_181" data-name="Path 181" d="M366.722,501.05s15.007,8.065,15.328,10.527-7.638-1.076-9.357-1.5a21.4,21.4,0,0,0-3.445-.538l-11.468.31Z" transform="translate(-176.732 -202.231)" fill="#ffb0b1"/>
    <ellipse id="Ellipse_16" data-name="Ellipse 16" cx="1.579" cy="1.579" rx="1.579" ry="1.579" transform="translate(211.347 230.633)" opacity="0.1"/>
    <ellipse id="Ellipse_17" data-name="Ellipse 17" cx="1.579" cy="1.579" rx="1.579" ry="1.579" transform="translate(211.347 229.99)" fill="#3f3d56"/>
    <ellipse id="Ellipse_18" data-name="Ellipse 18" cx="1.579" cy="1.579" rx="1.579" ry="1.579" transform="translate(214.249 298.961)" opacity="0.1"/>
    <ellipse id="Ellipse_19" data-name="Ellipse 19" cx="1.579" cy="1.579" rx="1.579" ry="1.579" transform="translate(214.249 298.312)" fill="#3f3d56"/>
    <ellipse id="Ellipse_20" data-name="Ellipse 20" cx="1.579" cy="1.579" rx="1.579" ry="1.579" transform="translate(212.918 264.797)" opacity="0.1"/>
    <ellipse id="Ellipse_21" data-name="Ellipse 21" cx="1.579" cy="1.579" rx="1.579" ry="1.579" transform="translate(212.918 264.154)" fill="#3f3d56"/>
    <path id="Path_182" data-name="Path 182" d="M456.363,433.566s1.076,1.614,0,2.369.105,2.579.105,2.579-2.684,1.573-1.5,2.988.433,7.807.433,7.807l-3.228,5.345s.193,3.445.2,8.1c0,7.263-.427,17.474-2.79,22.13l.327,38.195s-11.3,4.129-20.767,2.872l-1.4-61.289s2.047-34.756,2.8-41.423a69.412,69.412,0,0,0,.538-10.439s-.322-10.433-1.4-15.276c0,0-1.17-20.978-1.287-26.785-.053-2.778.094-10.884.257-18.592.181-8.427.386-16.375.386-16.375l-2.135-16.89s2.135-.216,2.778.643a6.154,6.154,0,0,0,.936.719h0c3.684,2.491,16.7,10.153,16.7,10.153s7.205,2.866,8.93,6.971,2.924,7.018,3.76,8.188,1.292,6.667,1.292,6.667,2.48,10.117,4.415,11.831,3.351,12.615,3.351,12.615L451.96,390.12s-1.5,22.375-1.825,23.241S456.363,433.566,456.363,433.566Z" transform="translate(-205.502 -126.599)" fill="#fff"/>
    <path id="Path_183" data-name="Path 183" d="M456.983,433.434s1.07,1.614,0,2.369.1,2.579.1,2.579-2.667,1.591-1.5,3.006.433,7.807.433,7.807l-3.228,5.345s.193,3.445.211,8.1c0,7.263-.427,17.474-2.79,22.13l.322,38.195s-11.322,4.129-20.773,2.871l-1.4-61.289s2.047-34.756,2.8-41.423a68.766,68.766,0,0,0,.532-10.439s-.322-10.433-1.4-15.276c0,0-1.17-20.978-1.292-26.785-.053-2.778.1-10.884.257-18.591.181-8.427.386-16.375.386-16.375L426.83,318.54s2.819,0,3.468.871a5.549,5.549,0,0,0,.936.719h0c3.684,2.491,16.708,10.152,16.708,10.152s7.2,2.866,8.924,6.971,2.924,7.018,3.766,8.187,1.287,6.667,1.287,6.667,2.48,10.117,4.415,11.831,3.333,12.591,3.333,12.591l-17.106,13.451s-1.5,22.375-1.831,23.241S456.983,433.434,456.983,433.434Z" transform="translate(-205.473 -126.466)" fill="#fff"/>
    <path id="Path_184" data-name="Path 184" d="M436.958,341.532l1.544,4.5-8.129,8.188c.181-8.421.386-16.375.386-16.375L427.94,320.73s2.819,0,3.468.871a5.335,5.335,0,0,0,.936.713h0l6.913,19.942Z" transform="translate(-205.917 -127.329)" opacity="0.1"/>
    <path id="Path_185" data-name="Path 185" d="M435.848,339.322l1.55,4.5-8.129,8.188c.181-8.427.386-16.375.386-16.375L426.83,318.52s2.825,0,3.468.871a5.849,5.849,0,0,0,.936.719h0l6.918,19.937Z" transform="translate(-205.455 -126.411)" fill="#fff"/>
    <path id="Path_186" data-name="Path 186" d="M413.843,263.693a19.807,19.807,0,0,1-.982,6.2.836.836,0,0,1-.632-.158c-.152-5.263-2.743-10.205-5.93-14.41A15.142,15.142,0,0,0,403.083,252a6.293,6.293,0,0,0-4.363-1.234c-1.755.24-3.3,1.433-5.076,1.585-2.339.193-4.433-1.427-6.755-1.509a6.638,6.638,0,0,0-4.965,2.3,13.62,13.62,0,0,0-2.661,4.936,28.88,28.88,0,0,0-1.485,8.515c-.029,1.638-.187,3.69-1.708,4.287a8.737,8.737,0,0,0-2.2-6.673l-.035-.035v-.48a20.011,20.011,0,1,1,40.022,0Z" transform="translate(-183.417 -95.32)" opacity="0.1"/>
    <path id="Path_187" data-name="Path 187" d="M397.784,222.64a13.779,13.779,0,0,0-9.72-.76c-1.62.48-3.146,1.257-4.79,1.649-3.509.848-7.6-.07-10.615,1.983a12.694,12.694,0,0,0-3.614,4.813l-2.339,4.456a28.918,28.918,0,0,0-3.094,7.6,9.707,9.707,0,0,0,1.491,7.848c1.24,1.573,3.07,2.562,4.415,4.041a8.772,8.772,0,0,1,2.2,6.667c1.526-.585,1.672-2.643,1.708-4.281a28.88,28.88,0,0,1,1.485-8.515,13.575,13.575,0,0,1,2.661-4.936,6.649,6.649,0,0,1,4.965-2.3c2.339.082,4.439,1.7,6.755,1.5,1.755-.146,3.31-1.345,5.076-1.579a6.269,6.269,0,0,1,4.363,1.234,14.983,14.983,0,0,1,3.211,3.334c3.193,4.2,5.784,9.135,5.936,14.41.661.485,1.614-.146,1.942-.895a21.359,21.359,0,0,1,.754-2.339,8.627,8.627,0,0,1,2.117-1.883c1.825-1.573,2.281-4.222,2.211-6.626s-.538-4.842-.082-7.205c.275-1.45.895-2.807,1.234-4.24a5.544,5.544,0,0,0-.421-4.275c-1.17-1.813-3.632-2.17-5.778-2.339-2.439-.211-4.62.058-6.176-1.994A22.4,22.4,0,0,0,401.223,225C400.913,224.7,397.784,222.768,397.784,222.64Z" transform="translate(-179.075 -86.037)" fill="#512e4e"/>
    <path id="Path_188" data-name="Path 188" d="M307.807,426.429l-6.111-11.3-1.936,17.434s1.076,7.743.86,8.93,4.41,11.831,4.41,11.831,15.281,27.218,21.521,28.621l21.083-15.065-5.591-7.1s-1.936-.754-2.421,0c0,0-10.381-17.86-11.457-19.153s-.866-3.872-.866-3.872-1.614-1.719-1.076-3.333-3.117-7.211-3.117-7.211l3.333-3.117Z" transform="translate(-152.599 -166.552)" opacity="0.1"/>
    <path id="Path_189" data-name="Path 189" d="M301.1,412.93l-1.614,1.287L297.55,431.65s1.076,7.743.86,8.93,4.415,11.831,4.415,11.831,15.276,27.218,21.516,28.621l21.089-15.065-5.6-7.1s-1.936-.754-2.421,0c0,0-10.381-17.861-11.457-19.153s-.86-3.872-.86-3.872-1.614-1.719-1.076-3.333S320.9,425.3,320.9,425.3l3.334-3.117Z" transform="translate(-151.68 -165.638)" fill="#fff"/>
    <path id="Path_190" data-name="Path 190" d="M466.228,522.316c1.17,1.421.433,7.8.433,7.8l-3.228,5.345s.193,3.45.2,8.1l-5.427,1.7a3.222,3.222,0,0,1-4.181-3.176l.936-30.183,12.661,4.842c-1.076.749.105,2.585.105,2.585S465.047,520.895,466.228,522.316Z" transform="translate(-216.773 -206.744)" opacity="0.1"/>
    <path id="Path_191" data-name="Path 191" d="M467.334,521.21c1.17,1.421.433,7.807.433,7.807l-3.228,5.345s.193,3.445.211,8.1l-5.527,1.725a3.158,3.158,0,0,1-4.094-3.111l.942-30.276,12.667,4.842c-1.082.749.1,2.579.1,2.579S466.164,519.794,467.334,521.21Z" transform="translate(-217.23 -206.287)" fill="#fff"/>
    <path id="Path_192" data-name="Path 192" d="M475.979,500.657s-.86,5.492-3.012,5.813-3.117,8.883-5.263,8.579-.725-7.959-.649-9.445-2.339-7.638-.532-9.036,7.527,0,7.527,0Z" transform="translate(-221.69 -200.114)" fill="#ffb0b1"/>
    <path id="Path_193" data-name="Path 193" d="M478.991,425.878l4.059-8.188s1.614,6.24,1.614,9.574,2.257,3.661,2.257,3.661,2.474,2.924,1.17,5.053-1.831,7.427-1.831,7.427.427,10.112-1.509,11.509-2.339,4.737-2.339,4.737-3.556,6.345-3.445,7.854-4.948,11.726-4.948,11.726,2.474-12.7-11.942-18.182c0,0-.111-4.31.965-5.491s2.755-1.719,1.7-7.69-.3-13.106-.3-14.539,3.228-10.369,3.228-10.369Z" transform="translate(-220.128 -167.614)" opacity="0.1"/>
    <path id="Path_194" data-name="Path 194" d="M481.613,415.69l3.544,1.17s1.62,6.24,1.62,9.573,2.257,3.661,2.257,3.661,2.474,2.924,1.17,5.053-1.825,7.427-1.825,7.427.427,10.112-1.509,11.509-2.369,4.737-2.369,4.737-3.55,6.345-3.439,7.854S476.11,478.4,476.11,478.4s2.48-12.7-11.942-18.182c0,0-.105-4.31.971-5.491s2.755-1.719,1.7-7.69-.3-13.106-.3-14.539,3.228-10.369,3.228-10.369Z" transform="translate(-220.998 -166.784)" fill="#fff"/>
    <path id="Path_195" data-name="Path 195" d="M360.15,777.2s5.649-3.55,9.357-.971S360.15,777.2,360.15,777.2Z" transform="translate(-177.711 -316.156)" opacity="0.1"/>
    <path id="Path_196" data-name="Path 196" d="M435.21,759.767a11.436,11.436,0,0,1,9.2,3.877C448.608,768.165,435.21,759.767,435.21,759.767Z" transform="translate(-208.941 -309.696)" opacity="0.1"/>
    <g id="Group_8" data-name="Group 8" transform="translate(184.307 148.137)" opacity="0.1">
      <path id="Path_197" data-name="Path 197" d="M418.641,266.325a8.676,8.676,0,0,0-2.123,1.889,21.409,21.409,0,0,0-.749,2.339c-.328.76-1.281,1.38-1.942.9-.152-5.263-2.749-10.205-5.936-14.416a14.983,14.983,0,0,0-3.211-3.333,6.287,6.287,0,0,0-4.369-1.234c-1.755.24-3.3,1.433-5.07,1.579-2.339.2-4.439-1.421-6.761-1.5a6.62,6.62,0,0,0-4.959,2.31,13.544,13.544,0,0,0-2.661,4.93,28.914,28.914,0,0,0-1.485,8.515c-.035,1.632-.187,3.667-1.7,4.275a8.018,8.018,0,0,1,0,1.3c1.52-.585,1.673-2.643,1.708-4.281a28.88,28.88,0,0,1,1.485-8.515,13.575,13.575,0,0,1,2.661-4.936,6.638,6.638,0,0,1,4.959-2.3c2.339.082,4.445,1.7,6.761,1.5,1.754-.146,3.31-1.345,5.07-1.579A6.287,6.287,0,0,1,404.693,255a14.983,14.983,0,0,1,3.211,3.333c3.187,4.2,5.784,9.135,5.936,14.41.661.485,1.614-.146,1.942-.895a22.692,22.692,0,0,1,.749-2.339,8.654,8.654,0,0,1,2.123-1.883c1.825-1.573,2.281-4.222,2.211-6.626v-.222A7.678,7.678,0,0,1,418.641,266.325Z" transform="translate(-369.32 -247.096)"/>
      <path id="Path_198" data-name="Path 198" d="M369.534,269.2c-1.345-1.48-3.181-2.468-4.415-4.035a8.561,8.561,0,0,1-1.7-4.79,9.006,9.006,0,0,0,1.7,6.076c1.234,1.573,3.07,2.561,4.415,4.041a8.772,8.772,0,0,1,2.2,5.217A8.772,8.772,0,0,0,369.534,269.2Z" transform="translate(-363.385 -250.391)"/>
      <path id="Path_199" data-name="Path 199" d="M452.451,244.458c-.345,1.433-.959,2.8-1.24,4.24a13.509,13.509,0,0,0-.181,2.924,11.355,11.355,0,0,1,.181-1.661c.281-1.45.895-2.807,1.24-4.24a7.194,7.194,0,0,0,.193-2.421A8.128,8.128,0,0,1,452.451,244.458Z" transform="translate(-399.767 -243.3)"/>
    </g>
    <rect id="Rectangle_31" data-name="Rectangle 31" width="3.667" height="82.559" transform="translate(75.512 312.725)" fill="#535461"/>
    <path id="Path_200" data-name="Path 200" d="M187.193,640.533l-.228,3.72-.328,5.263L186.5,651.7l-.322,5.263-.14,2.187-.327,5.263-3.7,59.693a10.117,10.117,0,0,1-10.094,9.486H152.706a10.112,10.112,0,0,1-10.088-9.486l-3.679-59.734-.327-5.263-.135-2.187-.327-5.263-.135-2.187-.328-5.263-.234-3.719a5.263,5.263,0,0,1,5.263-5.562h39.306a5.228,5.228,0,0,1,5.17,5.6Z" transform="translate(-84.972 -245.515)" fill="#3f3d56"/>
    <path id="Path_201" data-name="Path 201" d="M139.88,592.24l-.327,5.246H90.908l-.327-5.246Z" transform="translate(-37.888 -193.494)" fill="#9d9cb5"/>
    <path id="Path_202" data-name="Path 202" d="M139.746,604.95l-.322,5.252H91.7l-.328-5.252Z" transform="translate(-38.216 -198.926)" fill="#9d9cb5"/>
    <path id="Path_203" data-name="Path 203" d="M139.612,617.68l-.322,5.246h-46.8l-.327-5.246Z" transform="translate(-38.544 -204.2)" fill="#9d9cb5"/>
    <path id="Path_204" data-name="Path 204" d="M94.828,545.088c21.352,15.451,30.265,39.616,30.265,39.616S99.361,583.821,78,568.37,47.75,528.76,47.75,528.76,73.47,529.637,94.828,545.088Z" transform="translate(-47.732 -201.416)" fill="#81d8d0"/>
    <path id="Path_205" data-name="Path 205" d="M47.72,528.76S74.435,543.585,83,555.861,125.08,584.7,125.08,584.7" transform="translate(-47.72 -201.416)" fill="none" stroke="#535461" stroke-miterlimit="10" stroke-width="2"/>
    <path id="Path_206" data-name="Path 206" d="M133.627,497.149c11.62,8.4,16.48,21.557,16.48,21.557s-14.006-.48-25.633-8.883S108,488.26,108,488.26,122,488.74,133.627,497.149Z" transform="translate(-72.747 -184.583)" fill="#81d8d0"/>
    <path id="Path_207" data-name="Path 207" d="M108,488.26s14.539,8.071,19.2,14.749,22.907,15.7,22.907,15.7" transform="translate(-72.747 -184.583)" fill="none" stroke="#535461" stroke-miterlimit="10" stroke-width="2"/>
    <path id="Path_208" data-name="Path 208" d="M197.366,525.479c-13.351,14.673-16.176,33.849-16.176,33.849s18.825-4.62,32.165-19.3,16.176-33.849,16.176-33.849S210.718,510.806,197.366,525.479Z" transform="translate(-103.134 -192.035)" fill="#81d8d0"/>
    <path id="Path_209" data-name="Path 209" d="M229.543,506.19s-17.393,15.042-21.814,25.4-26.539,27.738-26.539,27.738" transform="translate(-103.134 -192.039)" fill="none" stroke="#535461" stroke-miterlimit="10" stroke-width="2"/>
    <path id="Path_210" data-name="Path 210" d="M953.727,419.639s-9.655-48.037-5.959-54.014c0,0,.134-5.556-.088-12.638v-.813a17.991,17.991,0,0,0,2.029,1.17,16.422,16.422,0,0,0,11.053,1.427l-2.924-3.257a5.4,5.4,0,0,1-1.585-2.649,5.55,5.55,0,0,1,.632-2.866c2.778-7.018,2.924-15.843-2.427-21.2-4.521-4.5-5.62-10.316-10.527-14.428-3.585-3.012-5.556-7.427-7.415-11.7a65.764,65.764,0,0,1-4.059-11.071c-.7-2.988-.983-6.082-1.948-9s-2.772-5.755-5.6-7.059a21.116,21.116,0,0,1-3.041-1.339,13.134,13.134,0,0,1-2.8-3.293c-4.427-5.848-19.253-2.4-26.27-.029a14.778,14.778,0,0,0-5.193,2.877l.064-.105c.053-.088.117-.175.175-.263a9.226,9.226,0,0,0-1.965,2.193c-1.023,1.62-1.451,3.509-2.3,5.263-1.029,2.076-6.755,7.872-4.293,10.205a2.074,2.074,0,0,0,.585.374,5.059,5.059,0,0,0,2.924.292l-.105.251a17.093,17.093,0,0,0-1.269,6.486,17.553,17.553,0,0,0,17.708,17.4,17.877,17.877,0,0,0,5.421-.836c.041.222.076.444.117.667a2.055,2.055,0,0,0,.041.263h0l-.31.433a.581.581,0,0,0-.053-.076l-9.182,12.831c-1.4.988-9.486,6.837-9.942,11.223-.479,4.8-.959,10.422-.959,10.422l-.064,1.2a3.614,3.614,0,0,1-2.924.79c-2.866-.468-2.866,10.527-2.866,10.527s-1.906,1.754-3.216.234-4.772,3.632-4.772,3.632l-21.7.936h0l-.5.029-1.169-3.62a1.527,1.527,0,0,0-1.913-.977,1.759,1.759,0,0,0-.263.111l-.082.047-.152.105-.076.07a1.186,1.186,0,0,0-.117.123l-.07.082-.035.035h0a1.475,1.475,0,0,0-.211,1.31l1.006,3.105c-4.187.842-8.468,3.217-4.977,9.755l-17.7-3.269,5.725,4.807,29.557,6.1c-.392.7-.135,1.719,1.088,3.152,5.263,6.182,14.854,7.86,18.714,8.293a33.223,33.223,0,0,0,3.8,6.433l-.333,6.158s-9.772,46.938-11.562,49.318a27.832,27.832,0,0,0,2.474-3.257c-2.836,9.644-6.8,22.843-7.842,24.82-1.673,3.158-3.222,15.936-1.316,16.755.585.251,2.258.129,4.644-.053V494.6l-.105,40.113s.48,24.6-.836,26.949-1.667,7.264-1.667,7.264-5.263,9.7-9.433,13.6a.628.628,0,0,1-.094.082l-.129-.912s-5.012,6.328-16.1,5.971c0,0-6.673,4.339,3.222,4.573s22.533-.351,22.533-.351,8.825-13.451,16.217-11.7v10.193h2.263V580.027a9.281,9.281,0,0,0,4.029-6.1,7.416,7.416,0,0,0-2.643-6.86,4.386,4.386,0,0,1-1.444-3.2l-.082.07a6.182,6.182,0,0,0-.076-.632c-.649-5.263-1.462-16.124,1.409-24.159,3.936-11.018,5.129-26.364,2.263-35.5a81.637,81.637,0,0,1-2.275-8.9c-.07-.38-.134-.743-.193-1.082a46.1,46.1,0,0,1,5.807,1.17c6.638,1.831,21.159,2.17,33.557,2.07.029.339.064.7.105,1.053a38.3,38.3,0,0,0,1.38,7.322c1.556,4.679,2.269,25.305,2.269,25.305s2.006,16.96.912,23.861c-.585,3.836-1.17,7.69-1.5,11.562v.076s-3.287,9.357-5.69,14.439c-.058.129-.123.257-.181.38a7.6,7.6,0,0,0-1.877.415s-3.222,6.433-6.433,7.5-2.146,4.568,5.123,3.281,18.246-2.339,18.246-2.339l.474-6.562,2.234-2.8-.585,6.544,2.38-.468-.316-7.959,3.655-4.573s4.415-3.93-2.146-11.661v.17c-.07-.111-.134-.228-.211-.339v-.035c-1.088-1.684-1.953-4.825-.369-10.4,2.866-10.071,4.532-19.211,4.532-19.211s6.4-24.487-1.292-36.072h.339a19.483,19.483,0,0,1-1.655-5.146q-.058-.316-.105-.649c5.69-.327,11.275-1.357,15.831-3.579C958.739,487,956,428.891,953.727,419.639Zm-72.243-40.528v.117l-1.17.058Zm-4.012.556a1.293,1.293,0,0,0-.526.251,5.192,5.192,0,0,0-.918,2.4l-1.825-.409s-1.281-.275-3.123-.585l-.871-.877C872.607,380.252,875.1,379.959,877.472,379.667Z" transform="translate(-370.344 -103.75)" fill="url(#linear-gradient-2)"/>
    <path id="Path_211" data-name="Path 211" d="M972.016,742.7l-.7,8.287,2.333-.468-.351-8.989Z" transform="translate(-404.517 -267.849)" fill="#1d2366"/>
    <path id="Path_212" data-name="Path 212" d="M906.131,699.66c-2.813,8.012-2.018,18.825-1.386,24.077.234,1.942.45,3.123.45,3.123s-4.2,9.579-4.556,9.942-12.375,7.7-12.375,7.7l-8.4,4.907s-8.527-3.737-4.439-5.024a6.205,6.205,0,0,0,2.2-1.5c4.094-3.889,9.234-13.556,9.234-13.556s.351-4.907,1.637-7.24.819-26.855.819-26.855l.1-39.973V650.05l15.995.117a36.2,36.2,0,0,0,.69,5.263,80.427,80.427,0,0,0,2.228,8.866C911.149,673.414,909.98,688.683,906.131,699.66Z" transform="translate(-391.668 -264.157)" fill="#ffb0b1"/>
    <path id="Path_213" data-name="Path 213" d="M905.2,779.181s-4.2,9.579-4.556,9.942-12.375,7.7-12.375,7.7l-8.4,4.907s-8.527-3.737-4.439-5.024a6.2,6.2,0,0,0,2.2-1.5l.363,2.556,2.8-.117,23.978-21.574C904.979,778,905.2,779.181,905.2,779.181Z" transform="translate(-391.662 -316.478)" opacity="0.1"/>
    <path id="Path_214" data-name="Path 214" d="M894.357,777l-24.112,21.72-2.8.117-.585-4.094s-4.9,6.3-15.79,5.954c0,0-6.538,4.322,3.152,4.556s22.065-.351,22.065-.351,8.644-13.451,15.878-11.7v10.158h2.222V793.112a9.233,9.233,0,0,0,3.942-6.082,7.451,7.451,0,0,0-2.579-6.831,4.4,4.4,0,0,1-1.392-3.2Z" transform="translate(-381.115 -316.864)" fill="#1d2366"/>
    <path id="Path_215" data-name="Path 215" d="M1008.132,711.843c-1.556,5.556-.708,8.685.357,10.363v.035a19.154,19.154,0,0,1,2.8,6.825l.094.526-10.971,15.995-5.953,2.339s-9.574-3.269-7.825-4.2c.439-.228,1.123-1.445,1.907-3.123,2.339-5.059,5.567-14.392,5.567-14.392v-.076c.339-3.854.877-7.7,1.474-11.521,1.07-6.883-.895-23.779-.895-23.779s-.7-20.545-2.222-25.218a38.564,38.564,0,0,1-1.363-7.275c-.316-2.924-.386-5.334-.386-5.334s6.3-8.772,17.86.7a12.714,12.714,0,0,1,2.415,2.62c7.983,11.357,1.556,36.376,1.556,36.376S1010.934,701.8,1008.132,711.843Z" transform="translate(-438.411 -263.848)" fill="#ffb0b1"/>
    <path id="Path_216" data-name="Path 216" d="M1011.408,781.247l-10.971,15.995-5.953,2.339s-9.574-3.269-7.825-4.2c.439-.228,1.123-1.444,1.907-3.123,4.053-.035,6.152,3.825,6.152,3.825l5.135-.819s6.772-13.31,8.293-14.123.234-6.076.234-6.076V773.72c.041.047.076.1.123.146v.035a19.154,19.154,0,0,1,2.8,6.825Z" transform="translate(-438.423 -315.502)" opacity="0.1"/>
    <path id="Path_217" data-name="Path 217" d="M989.465,796.664s-2.924-5.369-8.527-3.386c0,0-3.152,6.433-6.3,7.474s-2.1,4.55,5.024,3.269,17.86-2.339,17.86-2.339l.468-6.544,7.24-9.223s4.316-3.912-2.105-11.614v1.339s1.286,5.263-.234,6.076-8.269,14.129-8.269,14.129Z" transform="translate(-432.82 -315.743)" fill="#1d2366"/>
    <path id="Path_218" data-name="Path 218" d="M916.152,650.147a36.189,36.189,0,0,0,.69,5.263,73.365,73.365,0,0,0-16.7-.17V650.03Z" transform="translate(-402.391 -264.117)" opacity="0.1"/>
    <path id="Path_219" data-name="Path 219" d="M1014.7,657.778s-9.357.456-20.516.55c-.316-2.924-.386-5.334-.386-5.334s6.3-8.772,17.86.7a12.71,12.71,0,0,1,2.415,2.62,14.257,14.257,0,0,0,.626,1.462Z" transform="translate(-441.477 -263.813)" opacity="0.1"/>
    <path id="Path_220" data-name="Path 220" d="M971.984,584S931,585.983,918.508,582.48s-24.872-.468-26.738-1.281-.351-13.544,1.287-16.7,10.62-35.031,10.62-35.031l8.644-45.066,9.106-2.509.643-.181,15.866-4.374,11.626-3.211s23.118,90.256,21.135,96.911a17.043,17.043,0,0,0-.339,7.831A19.549,19.549,0,0,0,971.984,584Z" transform="translate(-398.759 -191.077)" fill="#1d2366"/>
    <path id="Path_221" data-name="Path 221" d="M872.941,439s-8.187,8.772-1.988,13.661,10.275.468,10.275.468Z" transform="translate(-389.277 -176.457)" fill="#c7daf5"/>
    <path id="Path_222" data-name="Path 222" d="M872.941,439s-8.187,8.772-1.988,13.661,10.275.468,10.275.468Z" transform="translate(-389.277 -176.457)" opacity="0.1"/>
    <path id="Path_223" data-name="Path 223" d="M976.675,329.028s-.959.912-2.4,2.257c-2.059,1.924-5.105,4.737-7.807,7.094-3.743,3.257-6.831,5.649-5.725,3.608s.895-5.6.345-8.924c-.041-.222-.076-.444-.117-.661a61.3,61.3,0,0,0-1.807-7.228s6.047-7.813,9.392-10.9c1.245-1.17,2.117-1.649,2.17-.836a27.182,27.182,0,0,0,1.895,6.07c.029.082.058.158.094.24.678,1.754,1.445,3.556,2.117,5.111C975.857,327.25,976.675,329.028,976.675,329.028Z" transform="translate(-427.095 -124.133)" fill="#ffb0b1"/>
    <path id="Path_224" data-name="Path 224" d="M972.71,319.758a17.357,17.357,0,0,1-11.626,13.311,60.882,60.882,0,0,0-1.924-7.889s11.386-14.708,11.562-11.732A27.827,27.827,0,0,0,972.71,319.758Z" transform="translate(-427.095 -124.137)" opacity="0.1"/>
    <path id="Path_225" data-name="Path 225" d="M944.966,352.526l1.474-2.076s.977,5.953,4.567,3.328,3.766,19.761,3.766,19.761l-3.854,57.622-27.849-1.667.79-27.843,3.152-14.036,7.8-20.4,4.638-6.743Z" transform="translate(-411.95 -139.684)" opacity="0.1"/>
    <path id="Path_226" data-name="Path 226" d="M954.786,374.128l-3.509,52.1-.368,5.521-15.527-.93-.585-.035-11.7-.7.79-27.849,3.152-14.036,7.8-20.4,4.638-6.743L945,353.08l1.474-2.07s.977,5.953,4.567,3.328l.076-.053h0C954.622,352.063,954.786,374.128,954.786,374.128Z" transform="translate(-411.963 -139.917)" fill="#1d2366"/>
    <path id="Path_227" data-name="Path 227" d="M904.889,406.26s-1.4,2.924-4.205,2.45-2.8,10.527-2.8,10.527-1.866,1.754-3.152.234-4.679,3.62-4.679,3.62l-21.252.936s9.457,4.322,7.6,17.4c0,0,32.107-1.988,33.159-5.024S904.889,406.26,904.889,406.26Z" transform="translate(-389.38 -162.86)" fill="#fff"/>
    <path id="Path_228" data-name="Path 228" d="M904.889,406.26s-1.4,2.924-4.205,2.45-2.8,10.527-2.8,10.527-1.866,1.754-3.152.234-4.679,3.62-4.679,3.62l-21.252.936s9.457,4.322,7.6,17.4c0,0,32.107-1.988,33.159-5.024S904.889,406.26,904.889,406.26Z" transform="translate(-389.38 -162.86)" opacity="0.03"/>
    <path id="Path_229" data-name="Path 229" d="M777.66,389.76l5.6,4.784,46.119,9.691-5.72-5.837Z" transform="translate(-323.886 -121.727)" fill="#fff"/>
    <path id="Path_230" data-name="Path 230" d="M936.957,353.268c-.766,1.17-2.959,7.158-4.79,12.387-1.526,4.357-2.8,8.188-2.8,8.188s-2.977,19.381-4.5,22.884-.7,17.164-.7,17.164l-5.667,33.738s-2.567,17.4-6.533,27.791c-3.912,10.229-8.269,15.024-8.4,15.176,1.754-2.374,11.316-49.125,11.316-49.125l3.158-58.962s.462-5.6.93-10.392,9.942-11.328,9.942-11.328l9.135-12.989C938.969,349.028,938.355,351.169,936.957,353.268Z" transform="translate(-403.841 -138.6)" fill="#fff"/>
    <path id="Path_231" data-name="Path 231" d="M904.885,477.538s-13.451-.585-19.966-8.41,15.059-3.123,15.059-3.123l5.608,1.287Z" transform="translate(-395.554 -187.092)" fill="#ffb0b1"/>
    <path id="Path_232" data-name="Path 232" d="M992.361,522.182a17.043,17.043,0,0,0-.339,7.831c-14.673,1.041-30.37-2.924-30.37-2.924-2.924,2.69-10.626,6.655-10.626,6.655l-4.2-52.049c-2.684-7.018-3.737-43.786-3.737-43.786s.24-1.924.585-4.807a.555.555,0,0,1,.029-.216c1.047-8.053,3.123-23.171,4.141-25.212,1.4-2.807-4.316-10.275-4.316-10.275l2.6-22.194.316-2.679c5.486-2.45,9.69-10.275,9.69-10.275l3.228-5.655h0c3.509-2.252,3.69,19.814,3.69,19.814l-3.509,52.1,11.626-3.211S994.344,515.527,992.361,522.182Z" transform="translate(-420.423 -142.201)" opacity="0.1"/>
    <path id="Path_233" data-name="Path 233" d="M1007.919,515.883c-15.995,7.942-45.066.585-45.066.585-2.924,2.69-10.626,6.655-10.626,6.655l-4.2-52.049c-2.678-7.018-3.731-43.786-3.731-43.786s3.38-27.434,4.784-30.235a4.505,4.505,0,0,0-.275-3.345,42.329,42.329,0,0,1-2.562-19.586l1.123-9.538.31-2.673c5.492-2.456,9.7-10.281,9.7-10.281l2.924-5.123,5.38-9.439,2.55-4.468.433.392,3.3,2.994,3.509,2.924c4.579,3.86,12.492,10.655,16.574,14.814,3.591,3.661,4.725,17.9,5.053,28.621.216,7.059.088,12.591.088,12.591-3.62,5.959,5.848,53.8,5.848,53.8C1005.234,457.986,1007.919,515.883,1007.919,515.883Z" transform="translate(-420.921 -132.302)" fill="#fff"/>
    <path id="Path_234" data-name="Path 234" d="M965.65,364.354s-10.977,20.9-9.7,28.838,4.9,16.931,3.152,19.03a6.462,6.462,0,0,1-5.141,2.567c-1.755.117-6.433,3.386-6.433,3.737s-4.322.351-8.187,1.988a50.983,50.983,0,0,1-9.574,2.567s-11.112-.351-12.147.7-2.1,7.351.117,12.375,4.679,8.772,6.538,9.457,13.661-3.269,23.235-4.2,19.966-8.521,19.966-8.521,11.445-4.094,13.451-10.977-2.451-44.715-2.451-44.715S975.106,359.565,965.65,364.354Z" transform="translate(-409.356 -145.119)" opacity="0.03"/>
    <path id="Path_235" data-name="Path 235" d="M963.262,361.356s-10.977,20.9-9.69,28.838,4.9,16.931,3.146,19.036a6.432,6.432,0,0,1-5.135,2.567c-1.755.117-6.433,3.386-6.433,3.737s-4.322.351-8.187,1.983a51.479,51.479,0,0,1-9.574,2.567s-11.112-.351-12.141.7-2.105,7.357.117,12.375,4.679,8.772,6.538,9.457,13.662-3.269,23.235-4.2,19.966-8.527,19.966-8.527,11.439-4.094,13.422-10.971-2.45-44.721-2.45-44.721S972.718,356.572,963.262,361.356Z" transform="translate(-408.371 -143.873)" opacity="0.03"/>
    <path id="Path_236" data-name="Path 236" d="M965.068,362.56s-10.977,20.9-9.69,28.838,4.9,16.931,3.152,19.03a6.433,6.433,0,0,1-5.14,2.573c-1.755.117-6.433,3.386-6.433,3.731s-4.316.351-8.188,1.988a51.1,51.1,0,0,1-9.573,2.567s-11.112-.351-12.147.7-2.1,7.357.117,12.375,4.679,8.772,6.538,9.457,13.661-3.269,23.235-4.2S966.9,431.1,966.9,431.1s11.445-4.094,13.451-10.977-2.421-44.715-2.421-44.715S974.519,357.8,965.068,362.56Z" transform="translate(-409.119 -144.377)" fill="#fff"/>
    <path id="Path_237" data-name="Path 237" d="M995.072,458.629s-8.772-1.754-5.72,1.17,3.035,5.486,6.772,5.369S995.072,458.629,995.072,458.629Z" transform="translate(-439.362 -184.392)" opacity="0.1"/>
    <path id="Path_238" data-name="Path 238" d="M1024.2,566.58s-3.965,2.684,3.62,8.872S1024.2,566.58,1024.2,566.58Z" transform="translate(-453.67 -229.453)" opacity="0.1"/>
    <path id="Path_239" data-name="Path 239" d="M1011.879,604.31c0,.351-1.4,12.866,3.848,15.995S1011.879,604.31,1011.879,604.31Z" transform="translate(-448.912 -245.127)" opacity="0.1"/>
    <path id="Path_240" data-name="Path 240" d="M862.344,436.59c-4.234.146-13.381,1.439-8.638,10.287,4.193,7.831,11.24,2.6,15.205-1.374a14.943,14.943,0,0,0-6.568-8.913Z" transform="translate(-382.517 -175.455)" fill="#ffb0b1"/>
    <path id="Path_241" data-name="Path 241" d="M881.39,451Z" transform="translate(-394.57 -181.438)" fill="#ffb0b1"/>
    <path id="Path_242" data-name="Path 242" d="M880.74,451.581l.175-.181Z" transform="translate(-394.3 -181.604)" fill="#ffb0b1"/>
    <path id="Path_243" data-name="Path 243" d="M977.646,339.512c-4.491,3.07-8.258,5.661-8.995,6.2-2.012,1.491-5.848,10.246-8.322,14.714-1.971,3.6-8.375,4.521-10.79,4.749l.31-2.673c5.492-2.456,9.7-10.281,9.7-10.281L970.4,333.19l3.737,3.4Z" transform="translate(-423.101 -132.505)" opacity="0.1"/>
    <path id="Path_244" data-name="Path 244" d="M977.646,338.912c-4.491,3.07-8.258,5.661-8.995,6.2-2.012,1.485-5.848,10.24-8.322,14.708-1.971,3.6-8.375,4.521-10.79,4.749l.31-2.673c5.492-2.456,9.7-10.281,9.7-10.281L970.4,332.59l3.737,3.386S975.541,337.134,977.646,338.912Z" transform="translate(-423.101 -132.256)" fill="#dce7ff"/>
    <path id="Path_245" data-name="Path 245" d="M958.19,305.607a17.346,17.346,0,1,1-14.746-17.147A17.317,17.317,0,0,1,958.19,305.607Z" transform="translate(-412.132 -113.842)" fill="#ffb0b1"/>
    <path id="Path_246" data-name="Path 246" d="M989.354,363.943a15.418,15.418,0,0,1-5.6-6.012c-.977-1.93-1.626-4.158-3.292-5.527-1.5-1.228-3.509-1.526-5.38-2.076-6.152-1.819-11.311-7.433-11.5-13.843-.094-3.018.848-6.03.421-9.018a9.986,9.986,0,0,0-1.953-4.649,16.01,16.01,0,0,0-1.69-1.819c-.819-.772-1.678-1.521-2.427-2.339a9.081,9.081,0,0,1-1.228-1.667,8.023,8.023,0,0,1-.672-1.55c-1.17-3.579-.105-7.825-1.392-11.445l-.07-.2c-.486-1.287-1.474-2.573-2.848-2.673s-2.55,1.041-3.86,1.55c-2.743,1.064-5.7-.749-7.989-2.6s-4.866-3.959-7.772-3.55c-1.924.275-3.445,1.585-5.217,2.263a7.315,7.315,0,0,1-1.234.357,17.34,17.34,0,0,1,33.434,6.462,17.162,17.162,0,0,1-.38,3.62c.029.082.058.158.093.24.678,1.754,1.444,3.556,2.117,5.111l3.3,2.994,3.509,2.924c4.579,3.86,12.492,10.655,16.574,14.814C987.893,338.988,989.015,353.223,989.354,363.943Z" transform="translate(-413.182 -113.848)" opacity="0.1"/>
    <path id="Path_247" data-name="Path 247" d="M924,278.66c.836-1.7,1.252-3.608,2.252-5.222a12.443,12.443,0,0,1,6.661-4.743c6.872-2.369,21.393-5.807,25.732,0a12.657,12.657,0,0,0,2.743,3.275,20.355,20.355,0,0,0,2.977,1.339c2.766,1.3,4.532,4.129,5.474,7.018s1.222,5.989,1.912,8.965a65.928,65.928,0,0,0,3.977,11.036c1.819,4.246,3.749,8.65,7.258,11.65,4.79,4.094,5.848,9.889,10.293,14.381,5.263,5.334,5.094,14.135,2.38,21.124a5.8,5.8,0,0,0-.62,2.854,5.6,5.6,0,0,0,1.55,2.643l2.877,3.246a16.179,16.179,0,0,1-17.679-8.152c-.977-1.93-1.626-4.152-3.3-5.527-1.5-1.228-3.509-1.521-5.375-2.07-6.152-1.825-11.31-7.445-11.5-13.854-.094-3.012.848-6.024.421-9.006a9.943,9.943,0,0,0-1.959-4.679c-1.608-2.1-4.035-3.509-5.345-5.848-2.217-3.912-.532-8.995-2.129-13.194-.491-1.287-1.474-2.573-2.848-2.673s-2.55,1.041-3.866,1.55c-2.737,1.064-5.7-.743-7.983-2.6s-4.866-3.959-7.778-3.544c-1.924.269-3.439,1.579-5.211,2.263-1.31.5-3.965.953-5.111-.152C917.382,286.514,922.991,280.742,924,278.66Z" transform="translate(-410.505 -104.395)" fill="#591d4b"/>
    <path id="Path_248" data-name="Path 248" d="M983.325,350.181c-.982-1.93-1.626-4.152-3.3-5.521-1.5-1.228-3.509-1.526-5.38-2.076-6.146-1.819-11.3-7.439-11.5-13.849-.094-3.012.848-6.03.427-9.012a10,10,0,0,0-1.959-4.649c-1.614-2.1-4.041-3.509-5.345-5.848-2.216-3.907-.532-8.989-2.135-13.194-.485-1.281-1.474-2.567-2.842-2.673s-2.556,1.047-3.866,1.556c-2.737,1.064-5.7-.749-7.983-2.6s-4.872-3.959-7.778-3.55c-1.924.275-3.445,1.585-5.211,2.263-1.31.5-3.971.959-5.117-.146-2.409-2.339,3.2-8.1,4.2-10.17.836-1.708,1.252-3.608,2.258-5.222.052-.088.111-.175.169-.263a9.29,9.29,0,0,0-1.924,2.187c-1,1.614-1.415,3.509-2.252,5.222-1.012,2.07-6.62,7.848-4.2,10.17,1.17,1.111,3.8.655,5.111.152,1.754-.684,3.287-1.994,5.211-2.263,2.924-.415,5.5,1.7,7.778,3.544s5.264,3.661,7.989,2.6c1.31-.509,2.456-1.655,3.86-1.55s2.339,1.386,2.848,2.673c1.6,4.2-.088,9.281,2.129,13.194,1.31,2.3,3.737,3.737,5.345,5.848a9.942,9.942,0,0,1,1.959,4.679c.427,2.983-.515,5.994-.421,9.006.193,6.433,5.351,12.03,11.5,13.854,1.854.55,3.877.842,5.375,2.07,1.678,1.374,2.339,3.6,3.3,5.527a16.179,16.179,0,0,0,17.679,8.152l-1.357-1.532A16.354,16.354,0,0,1,983.325,350.181Z" transform="translate(-410.416 -108.435)" opacity="0.1"/>
    <path id="Path_249" data-name="Path 249" d="M954.339,353.827c-.766,1.17-2.959,7.158-4.79,12.387-1.714-.667-3.269-4.918-3.269-4.918l9.135-12.995C956.351,349.587,955.737,351.721,954.339,353.827Z" transform="translate(-421.747 -138.779)" opacity="0.1"/>
    <path id="Path_250" data-name="Path 250" d="M954.939,353.231c-.766,1.17-2.959,7.158-4.79,12.387-1.714-.661-3.269-4.918-3.269-4.918l9.135-12.989C956.951,348.991,956.336,351.131,954.939,353.231Z" transform="translate(-421.996 -138.534)" fill="#dce7ff"/>
    <path id="Path_251" data-name="Path 251" d="M866.194,446.59l-5.065-15.971a1.491,1.491,0,0,1,.971-1.877h0a1.5,1.5,0,0,1,1.871.971l5.064,15.954-.5,3.339Z" transform="translate(-386.12 -172.167)" fill="#be8b87"/>
    <path id="Path_252" data-name="Path 252" d="M861.78,429.232h0a1.5,1.5,0,0,1,1.877.971l5.065,15.954-.38,2.5.368.386.5-3.339-5.094-15.954a1.5,1.5,0,0,0-1.871-.971h0a1.5,1.5,0,0,0-.778.585,2.036,2.036,0,0,1,.31-.134Z" transform="translate(-386.291 -172.184)" fill="#fff" opacity="0.1"/>
    <path id="Path_253" data-name="Path 253" d="M822.6,400.041l2.842-.9-.415,2.737-.088.6-.831-.866Z" transform="translate(-342.528 -125.621)" fill="#efc8c4"/>
    <path id="Path_254" data-name="Path 254" d="M872.42,461.864a.586.586,0,0,1,.181-.152.258.258,0,0,1,.275,0,.726.726,0,0,1,.1.158.5.5,0,0,0,.362.24l-.088.585Z" transform="translate(-390.839 -185.871)" fill="#727a9c"/>
    <path id="Path_255" data-name="Path 255" d="M861.13,441.7s10.158-.059,7.766,4.263a9.137,9.137,0,0,1-6.129,4.842Z" transform="translate(-386.15 -177.577)" fill="#ffb0b1"/>
  </g>
</svg>
