<svg xmlns="http://www.w3.org/2000/svg" xmlns:xlink="http://www.w3.org/1999/xlink" width="376" height="326" viewBox="0 0 376 326"><defs><linearGradient id="a" x1="0.5" y1="1" x2="0.5" gradientUnits="objectBoundingBox"><stop offset="0" stop-color="gray" stop-opacity="0.251"/><stop offset="0.54" stop-color="gray" stop-opacity="0.122"/><stop offset="1" stop-color="gray" stop-opacity="0.102"/></linearGradient><linearGradient id="b" x1="0.5" y1="1" x2="0.5" y2="0" xlink:href="#a"/><linearGradient id="c" x1="0.5" y1="1" x2="0.5" y2="0" xlink:href="#a"/></defs><g transform="translate(52.239 58.067)" opacity="0.5"><rect width="1.494" height="8.468" transform="translate(3.487)" fill="#47e6b1"/><rect width="1.494" height="8.468" transform="translate(8.468 3.487) rotate(90)" fill="#47e6b1"/></g><g transform="translate(105.183 242.199)" opacity="0.5"><rect width="1.494" height="8.468" transform="translate(3.491)" fill="#47e6b1"/><rect width="1.494" height="8.468" transform="translate(8.468 3.487) rotate(90)" fill="#47e6b1"/></g><g transform="translate(31.004 143.923)" opacity="0.5"><rect width="1.494" height="8.468" transform="translate(3.487)" fill="#47e6b1"/><rect width="1.494" height="8.468" transform="translate(8.468 3.487) rotate(90)" fill="#47e6b1"/></g><g transform="translate(292.152)" opacity="0.5"><rect width="1.494" height="8.468" transform="translate(3.487)" fill="#47e6b1"/><rect width="1.494" height="8.468" transform="translate(8.468 3.487) rotate(90)" fill="#47e6b1"/></g><g transform="translate(40.473 21.06)" opacity="0.5"><rect width="1.494" height="8.468" transform="translate(3.491)" fill="#47e6b1"/><rect width="1.494" height="8.468" transform="translate(8.468 3.487) rotate(90)" fill="#47e6b1"/></g><path d="M337.919,555.08a1.831,1.831,0,0,1-1.019-2.212.9.9,0,0,0,.04-.2h0a.9.9,0,0,0-1.647-.61h0a.9.9,0,0,0-.1.18,1.831,1.831,0,0,1-2.212,1.019.9.9,0,0,0-.2-.04h0a.9.9,0,0,0-.61,1.647h0a.9.9,0,0,0,.18.1,1.831,1.831,0,0,1,1.019,2.212.9.9,0,0,0-.04.2h0a.9.9,0,0,0,1.647.61h0a.9.9,0,0,0,.1-.179,1.831,1.831,0,0,1,2.212-1.019.9.9,0,0,0,.2.04h0a.9.9,0,0,0,.61-1.647h0A.9.9,0,0,0,337.919,555.08Z" transform="translate(-263.83 -343.07)" fill="#4d8af0" opacity="0.5"/><path d="M321.424,734.43a1.831,1.831,0,0,1-1.019-2.212.9.9,0,0,0,.04-.2h0a.9.9,0,0,0-1.647-.61h0a.9.9,0,0,0-.1.179,1.831,1.831,0,0,1-2.208,1.023.9.9,0,0,0-.2-.04h0a.9.9,0,0,0-.61,1.647h0a.9.9,0,0,0,.18.1,1.831,1.831,0,0,1,1.019,2.212.9.9,0,0,0-.04.2h0a.9.9,0,0,0,1.647.61h0a.9.9,0,0,0,.1-.179,1.831,1.831,0,0,1,2.212-1.019.891.891,0,0,0,.2.04h0a.9.9,0,0,0,.61-1.647h0a.9.9,0,0,0-.184-.108Z" transform="translate(-254.74 -442.033)" fill="#4d8af0" opacity="0.5"/><path d="M928.424,337.43a1.831,1.831,0,0,1-1.019-2.212.9.9,0,0,0,.04-.2h0a.9.9,0,0,0-1.647-.61h0a.9.9,0,0,0-.1.18,1.831,1.831,0,0,1-2.208,1.023.9.9,0,0,0-.2-.04h0a.9.9,0,0,0-.61,1.647h0a.9.9,0,0,0,.18.1,1.831,1.831,0,0,1,1.019,2.212.9.9,0,0,0-.04.2h0a.9.9,0,0,0,1.647.61h0a.9.9,0,0,0,.1-.18,1.831,1.831,0,0,1,2.212-1.019.9.9,0,0,0,.2.04h0a.9.9,0,0,0,.61-1.647h0A.9.9,0,0,0,928.424,337.43Z" transform="translate(-589.944 -223.006)" fill="#4d8af0" opacity="0.5"/><path d="M900.949,526.77a1.831,1.831,0,0,1-1.019-2.212.9.9,0,0,0,.041-.2h0a.9.9,0,0,0-1.647-.61h0a.9.9,0,0,0-.1.18,1.831,1.831,0,0,1-2.212,1.019.894.894,0,0,0-.2-.04h0a.9.9,0,0,0-.61,1.647h0a.9.9,0,0,0,.18.1,1.831,1.831,0,0,1,1.019,2.212.9.9,0,0,0-.041.2h0a.9.9,0,0,0,1.647.61h0a.9.9,0,0,0,.1-.18,1.831,1.831,0,0,1,2.212-1.019.894.894,0,0,0,.2.04h0a.9.9,0,0,0,.61-1.647h0A.894.894,0,0,0,900.949,526.77Z" transform="translate(-574.796 -327.453)" fill="#4d8af0" opacity="0.5"/><path d="M921.419,149.44a1.831,1.831,0,0,1-1.019-2.212.9.9,0,0,0,.04-.2h0a.9.9,0,0,0-1.647-.61h0a.9.9,0,0,0-.1.179,1.831,1.831,0,0,1-2.212,1.019.9.9,0,0,0-.2-.04h0a.9.9,0,0,0-.61,1.647h0a.9.9,0,0,0,.18.1,1.831,1.831,0,0,1,1.019,2.212.9.9,0,0,0-.041.2h0a.9.9,0,0,0,1.647.61h0a.9.9,0,0,0,.1-.18,1.831,1.831,0,0,1,2.212-1.019.9.9,0,0,0,.2.04h0a.9.9,0,0,0,.61-1.647h0A.9.9,0,0,0,921.419,149.44Z" transform="translate(-586.08 -119.28)" fill="#4d8af0" opacity="0.5"/><path d="M985.638,641.49a1.831,1.831,0,0,1-1.019-2.212.889.889,0,0,0,.04-.2h0a.9.9,0,0,0-1.647-.61h0a.888.888,0,0,0-.1.18,1.831,1.831,0,0,1-2.212,1.019.9.9,0,0,0-.2-.04h0a.9.9,0,0,0-.61,1.647h0a.9.9,0,0,0,.18.1,1.831,1.831,0,0,1,1.019,2.212.9.9,0,0,0-.04.2h0a.9.9,0,0,0,1.647.61h0a.907.907,0,0,0,.1-.18,1.831,1.831,0,0,1,2.212-1.019.9.9,0,0,0,.2.04h0a.9.9,0,0,0,.61-1.647h0A.9.9,0,0,0,985.638,641.49Z" transform="translate(-621.481 -390.737)" fill="#4d8af0" opacity="0.5"/><circle cx="2.989" cy="2.989" r="2.989" transform="translate(0 112.593)" fill="#f55f44" opacity="0.5"/><circle cx="2.989" cy="2.989" r="2.989" transform="translate(332.902 62.515)" fill="#f55f44" opacity="0.5"/><circle cx="3.366" cy="3.366" r="3.366" transform="translate(196.872 174.17)" fill="#f55f44" opacity="0.5"/><circle cx="3.366" cy="3.366" r="3.366" transform="translate(196.872 174.17)" fill="#f55f44" opacity="0.5"/><circle cx="2.989" cy="2.989" r="2.989" transform="translate(370.023 152.299)" fill="#f55f44" opacity="0.5"/><circle cx="3.366" cy="3.366" r="3.366" transform="translate(128.436 17.847)" fill="#47e6b1" opacity="0.5"/><circle cx="2.989" cy="2.989" r="2.989" transform="translate(320.184 275.592)" fill="#f55f44" opacity="0.5"/><path d="M486.43,468a13.849,13.849,0,0,0,6.072,15.545c2.172,1.265,4.671,1.9,6.776,3.276,4.573,2.98,6.377,8.683,7.862,13.934,1.705,6.036,3.415,12.417,1.853,18.489-1,3.873-3.262,7.3-4.55,11.084a23.129,23.129,0,0,0-1.1,9.872,8.422,8.422,0,0,0,1.84,4.909c1.75,1.885,4.568,2.167,7.1,2.621a34.455,34.455,0,0,1,24.771,19.18" transform="translate(-349.05 -296.993)" fill="none" stroke="#707070" stroke-miterlimit="10" stroke-width="2"/><path d="M487.64,468a13.849,13.849,0,0,0,6.072,15.545c2.172,1.265,4.672,1.9,6.776,3.276,4.573,2.98,6.377,8.683,7.862,13.934,1.705,6.036,3.415,12.417,1.853,18.489-1,3.873-3.262,7.3-4.55,11.084a23.129,23.129,0,0,0-1.1,9.872,8.422,8.422,0,0,0,1.84,4.909c1.75,1.885,4.568,2.167,7.1,2.621a34.455,34.455,0,0,1,24.771,19.18" transform="translate(-349.718 -296.993)" fill="none" stroke="#535461" stroke-miterlimit="10" stroke-width="2"/><path d="M626.041,372.4c-4.362,6.081-8.89,12.619-9.262,20.1-.57,11.483,8.616,20.876,12.718,31.619a37.578,37.578,0,0,1-1.261,29.393c-2,4.138-4.855,8.248-4.487,12.83.211,2.8,1.611,5.34,2.737,7.911a44.606,44.606,0,0,1-2.589,40.275" transform="translate(-421.263 -244.278)" fill="none" stroke="#707070" stroke-miterlimit="10" stroke-width="2"/><path d="M627.236,372.4c-4.357,6.1-8.885,12.623-9.267,20.1-.57,11.483,8.616,20.876,12.718,31.619a37.578,37.578,0,0,1-1.261,29.393c-2,4.138-4.855,8.248-4.487,12.83.211,2.8,1.611,5.34,2.737,7.911a44.606,44.606,0,0,1-2.589,40.275" transform="translate(-421.919 -244.278)" fill="none" stroke="#535461" stroke-miterlimit="10" stroke-width="2"/><path d="M758.8,494.28l2.109,17.192c.278,2.284.516,4.775-.709,6.731-1.162,1.844-3.343,2.724-5.039,4.088-5.569,4.488-5.062,13.063-3.141,19.947s4.685,14.279,2.015,20.9c-1.1,2.733-3.052,5.035-4.487,7.6a23.277,23.277,0,0,0-2.782,14.441" transform="translate(-492.916 -311.486)" fill="none" stroke="#707070" stroke-miterlimit="10" stroke-width="2"/><path d="M759.97,494.28l2.109,17.192c.278,2.284.516,4.775-.709,6.731-1.162,1.844-3.343,2.724-5.039,4.088-5.569,4.488-5.062,13.063-3.141,19.947s4.685,14.279,2.015,20.9c-1.1,2.733-3.051,5.035-4.487,7.6a23.276,23.276,0,0,0-2.782,14.441" transform="translate(-493.562 -311.486)" fill="none" stroke="#535461" stroke-miterlimit="10" stroke-width="2"/><g transform="translate(85.793 4.216)" opacity="0.7"><path d="M607.512,203.989a50.978,50.978,0,0,0-66.729-48.461,61.248,61.248,0,0,0,.651-8.647,50.947,50.947,0,0,0-101.768-3.653,50.978,50.978,0,0,0-66.756,48.465c0,25.579,18.848,61.928,43.372,68.367l3.819,2.181-2.073,7.1h12.278l-2.666-7.113,3.8-2.172c18.964-4.977,34.513-27.823,40.6-49.735a37.247,37.247,0,0,0,10.869,4.936l3.819,2.181-2.042,7.086h12.278l-2.666-7.113,3.8-2.172a35.546,35.546,0,0,0,8.078-3.28c3.28,24.583,20.732,54.595,42.815,60.388l3.819,2.181-2.073,7.1h12.278l-2.674-7.113,3.8-2.172C588.687,265.912,607.512,229.549,607.512,203.989Z" transform="translate(-372.91 -95.856)" fill="url(#a)"/></g><path d="M310.163,381.386H298.28l2.082-7.126h7.126Z" transform="translate(-164.645 -206.457)" fill="#f55f44"/><path d="M480,248.6c0,27.23-22.074,67.12-49.3,67.12s-49.3-39.894-49.3-67.12a49.3,49.3,0,0,1,98.6,0Z" transform="translate(-291.395 -148.727)" fill="#f55f44"/><path d="M304.936,372H297.81l-4.16-2.374H309.1Z" transform="translate(-162.092 -203.9)" fill="#535461"/><path d="M422.361,223.78s-20.791,11.286-23.761,33.858" transform="translate(-300.848 -162.216)" fill="#fff" opacity="0.1"/><path d="M453.833,284.806H441.95l2.082-7.126h7.126Z" transform="translate(-243.949 -153.179)" fill="#4d8af0"/><path d="M623.669,152.017c0,27.23-22.074,67.12-49.3,67.12s-49.3-39.894-49.3-67.12a49.3,49.3,0,0,1,98.6,0Z" transform="translate(-370.731 -95.421)" fill="#1b9a8f"/><path d="M448.606,275.418H441.48l-4.16-2.378h15.446Z" transform="translate(-241.396 -150.618)" fill="#535461"/><path d="M566.031,127.2s-20.791,11.286-23.761,33.858" transform="translate(-380.155 -108.918)" fill="#fff" opacity="0.1"/><path d="M596.293,407.951H584.41l2.082-7.131h7.126Z" transform="translate(-322.584 -221.108)" fill="#3ad29f"/><path d="M766.124,275.157c0,27.23-22.074,67.12-49.3,67.12s-49.3-39.889-49.3-67.12a49.3,49.3,0,1,1,98.6,0Z" transform="translate(-449.393 -163.384)" fill="#3ad29f"/><path d="M591.066,398.564H583.94l-4.16-2.374h15.446Z" transform="translate(-320.033 -218.552)" fill="#535461"/><path d="M708.491,250.34S687.7,261.626,684.73,284.2" transform="translate(-458.794 -176.869)" fill="#fff" opacity="0.1"/><g transform="translate(174.381 191.371)" opacity="0.5"><path d="M626.755,517.164c-2.859-2.868-7.027-4.007-11.739-3.213a23.555,23.555,0,0,0-12.417,6.731,14.51,14.51,0,0,0-2.6,3.563,14.546,14.546,0,0,0-2.576-3.693h0a23.38,23.38,0,0,0-12.318-6.929c-4.694-.9-8.881.193-11.793,3.011s-4.106,6.969-3.379,11.69a23.527,23.527,0,0,0,6.547,12.511c7.44,7.678,22.289,4.68,22.918,4.546l.184-.04.57.13c.628.144,15.423,3.4,22.994-4.151a23.657,23.657,0,0,0,6.763-12.4C630.74,524.2,629.614,520.036,626.755,517.164ZM596.9,540.947c-3.59.485-12.534,1.14-16.972-3.442a18.77,18.77,0,0,1-5.255-9.917c-.485-3.141.215-5.834,1.984-7.53a6.633,6.633,0,0,1,2.419-1.481,9.98,9.98,0,0,1,5.17-.26A18.748,18.748,0,0,1,594,523.881c4.438,4.55,3.5,13.489,2.908,17.061Zm28.321-12.839a18.73,18.73,0,0,1-5.425,9.823c-4.519,4.487-13.462,3.693-17.03,3.141-.534-3.59-1.315-12.516,3.2-17.021a18.718,18.718,0,0,1,9.841-5.385,9.98,9.98,0,0,1,5.165.35,6.633,6.633,0,0,1,2.4,1.526c1.732,1.737,2.387,4.42,1.849,7.562Z" transform="translate(-569.727 -513.316)" fill="url(#b)"/></g><path d="M602.46,545.267l-1.414.3c-.6.126-14.809,2.993-21.93-4.353a22.714,22.714,0,0,1-6.283-11.973c-.7-4.519.449-8.49,3.231-11.187s6.79-3.72,11.282-2.881a22.513,22.513,0,0,1,11.771,6.637h0c7.117,7.346,3.805,21.459,3.662,22.056Zm-20.88-25.35a6.344,6.344,0,0,0-2.316,1.418c-1.687,1.638-2.36,4.2-1.9,7.207a17.977,17.977,0,0,0,5.031,9.491c4.25,4.384,12.807,3.756,16.24,3.294.57-3.415,1.467-11.95-2.782-16.335h0a17.93,17.93,0,0,0-9.329-5.322A9.549,9.549,0,0,0,581.58,519.917Z" transform="translate(-396.922 -322.809)" fill="#1b9a8f"/><path d="M633.1,545.8l-.314-1.409c-.135-.6-3.2-14.768,4.039-21.989h0a22.548,22.548,0,0,1,11.883-6.431c4.487-.763,8.495.328,11.219,3.074s3.814,6.731,3.038,11.219a22.529,22.529,0,0,1-6.471,11.86c-7.243,7.22-21.4,4.106-21.989,3.971Zm21.316-25.009a9.55,9.55,0,0,0-4.936-.337,18,18,0,0,0-9.424,5.161h0c-4.326,4.312-3.59,12.857-3.065,16.285,3.424.52,11.973,1.3,16.294-3.011a17.942,17.942,0,0,0,5.192-9.424c.516-3-.112-5.574-1.773-7.238A6.347,6.347,0,0,0,654.417,520.788Z" transform="translate(-429.709 -323.277)" fill="#1b9a8f"/><g transform="translate(134.925 218.65)" opacity="0.5"><path d="M439.191,487.86H301.42v27.567h7.158V595.21H432.033V515.427h7.158Z" transform="translate(-301.42 -487.86)" fill="url(#c)"/></g><rect width="120.332" height="97.662" transform="translate(143.647 226.983)" fill="#535461"/><rect width="22.671" height="80.219" transform="translate(192.486 244.422)" fill="#1b9a8f"/><rect width="120.332" height="24.417" transform="translate(143.647 221.824)" opacity="0.1"/><rect width="134.284" height="24.417" transform="translate(136.671 220.08)" fill="#535461"/><rect width="22.671" height="24.417" transform="translate(192.486 220.08)" fill="#1b9a8f"/></svg>