<svg id="Illustration" xmlns="http://www.w3.org/2000/svg" width="351.915" height="285.442" viewBox="0 0 351.915 285.442">
  <path id="Path_1342" data-name="Path 1342" d="M428.916,681.474a360.669,360.669,0,0,1-48.977-3.209c-.53-.068-1.067-.143-1.6-.223-3.985-.567-7.972-1.214-11.847-1.925A255.9,255.9,0,0,1,317.6,662.269c-49.906-19.963-81.284-15.714-98.819-8.635-18.976,7.661-26.271,20.2-26.342,20.322l-.624-.354c.072-.128,7.461-12.849,26.645-20.612,11.248-4.552,24.3-6.54,38.785-5.914,18.086.783,38.483,5.67,60.622,14.526A255.2,255.2,0,0,0,366.62,675.41c3.866.709,7.844,1.356,11.822,1.921.531.079,1.064.154,1.592.222,44.005,6.053,86.457,2.4,114.322-1.725a366.647,366.647,0,0,0,37.9-7.42l.188.693a367.164,367.164,0,0,1-37.978,7.438,452.525,452.525,0,0,1-65.544,4.936Z" transform="translate(-191.819 -419.336)" fill="#3f3d56"/>
  <path id="Path_1343" data-name="Path 1343" d="M428.965,203.624c-12.652,0-24.969-.592-36.852-1.775-27.307-2.72-52.375-8.587-74.509-17.44-49.906-19.963-81.284-15.714-98.819-8.635-18.976,7.661-26.271,20.2-26.342,20.322l-.624-.354c.072-.128,7.461-12.849,26.645-20.611,11.248-4.551,24.3-6.541,38.785-5.914,18.086.783,38.483,5.67,60.622,14.526,49.985,19.994,105.606,20.78,143.464,17.92,41.034-3.1,70.622-11.035,70.916-11.115l.188.693c-.294.08-29.936,8.03-71.034,11.137C450.4,203.209,439.565,203.624,428.965,203.624Z" transform="translate(-191.819 -147.47)" fill="#3f3d56"/>
  <path id="Path_1344" data-name="Path 1344" d="M676.447,122.39s-14.11-5.039-23.18,15.118-23.18,42.329-23.18,42.329l8.063,2.016s2.016-14.11,7.055-16.125l-2.016,18.141s60.47,21.165,87.682-2.016l-1.008-7.055s4.031,1.008,4.031,7.055l3.023-3.024s-3.023-6.047-12.094-14.11c-5.953-5.292-8-15.36-8.7-21.655a26.2,26.2,0,0,0-6.033-14.27C704.06,121.808,693.076,114.383,676.447,122.39Z" transform="translate(-441.16 -118.919)" fill="#2f2e41"/>
  <path id="Path_1345" data-name="Path 1345" d="M888.327,391.56s26.551,22.647,30.456,35.923-14.838,14.838-14.838,14.838l-40.608,3.9s-.781,18.742-7.809,21.085-1.427-30.993-1.427-30.993l39.692-11.177L875.832,406.4Z" transform="translate(-567.403 -274.031)" fill="#fbbebe"/>
  <path id="Path_1346" data-name="Path 1346" d="M611.3,445.907,608.178,487.3,591,557.579s-15.618,32.018-2.343,32.8,12.495-30.456,12.495-30.456l24.99-66.379,2.343-45.294Z" transform="translate(-414.545 -304.95)" fill="#fbbebe"/>
  <circle id="Ellipse_252" data-name="Ellipse 252" cx="25.771" cy="25.771" r="25.771" transform="translate(214.718 16.79)" fill="#fbbebe"/>
  <path id="Path_1347" data-name="Path 1347" d="M711.847,246.635s9.371,33.58-5.467,42.17,37.484,14.838,51.541-10.933c0,0-24.99-8.59-17.961-31.237Z" transform="translate(-483.073 -191.58)" fill="#fbbebe"/>
  <path id="Path_1348" data-name="Path 1348" d="M660.245,351.456l-4.686-1.562s-9.371,3.9-9.371,10.933-1.562,35.142-1.562,35.142l21.085,2.343Z" transform="translate(-449.431 -250.326)" fill="#81d8d0"/>
  <path id="Path_1349" data-name="Path 1349" d="M742.743,619.442c-28.828,4.271-70.846,7.719-114.42,1.726,0-.431,0-.851,0-1.26q0-3.655.28-7.228c2.232-29.327,17.341-53.777,23.187-62.251.294-.431.567-.818.811-1.163.944-1.324,1.493-2.024,1.493-2.024s45.294-.739,68.721,8.631a10.077,10.077,0,0,1,3.05,2C734.6,565.93,739.729,592.1,742.743,619.442Z" transform="translate(-440.154 -362.595)" fill="#2f2e41"/>
  <path id="Path_1350" data-name="Path 1350" d="M848.584,326.474s10.152-5.466,20.3,6.247l20.3,23.428-15.618,17.18L843.9,355.368Z" transform="translate(-562.802 -236.277)" fill="#81d8d0"/>
  <path id="Path_1351" data-name="Path 1351" d="M683.87,177.52c9.123-6.6,16.508-14.207,21.393-23.253,0,0,16.742,18.6,26.974,19.533s.93-22.323.93-22.323l-18.6-4.651-17.672,1.86-13.952,9.3Z" transform="translate(-471.229 -134.796)" fill="#2f2e41"/>
  <path id="Path_1352" data-name="Path 1352" d="M734.8,315.474s-10.929,17.279-43.73,9.03l-18.613,5.126-2.474.681s2.343,46.855,8.59,55.446,4.686,13.276,3.124,14.057-5.466-.781-3.124,3.124,5.466,1.562,2.343,3.9-4.686,10.933-4.686,10.933l73.407,9.371s-2.343-30.456,3.9-46.075,7.809-21.866,7.809-21.866l-4.686-39.046Z" transform="translate(-463.86 -230.744)" fill="#81d8d0"/>
  <rect id="Rectangle_311" data-name="Rectangle 311" width="100.485" height="125.606" transform="translate(17.897 69.442)" fill="#e6e6e6"/>
  <rect id="Rectangle_312" data-name="Rectangle 312" width="21.533" height="14.355" transform="translate(24.895 80.029)" fill="#fff"/>
  <rect id="Rectangle_313" data-name="Rectangle 313" width="83.259" height="5.024" transform="translate(25.074 108.021)" fill="#fff"/>
  <rect id="Rectangle_314" data-name="Rectangle 314" width="83.259" height="5.024" transform="translate(25.074 121.3)" fill="#fff"/>
  <rect id="Rectangle_315" data-name="Rectangle 315" width="83.259" height="5.024" transform="translate(25.074 134.578)" fill="#fff"/>
  <rect id="Rectangle_316" data-name="Rectangle 316" width="83.259" height="5.024" transform="translate(25.074 147.857)" fill="#fff"/>
  <rect id="Rectangle_317" data-name="Rectangle 317" width="83.259" height="5.024" transform="translate(25.074 161.135)" fill="#fff"/>
  <path id="Path_1353" data-name="Path 1353" d="M460.269,544.967a19.683,19.683,0,1,1-3.05-10.544A19.683,19.683,0,0,1,460.269,544.967Z" transform="translate(-322.149 -350.098)" fill="#81d8d0"/>
  <path id="Path_1354" data-name="Path 1354" d="M468.917,542.633l-19.43,19.426c-1.221-1.891-8.024-10.677-8.024-10.677a27.542,27.542,0,0,1,2.785-2.458l5.641,7.522,16.752-16.752A19.658,19.658,0,0,1,468.917,542.633Z" transform="translate(-333.847 -358.308)" fill="#fff"/>
</svg>
