<svg id="Illustration" xmlns="http://www.w3.org/2000/svg" width="279.108" height="170" viewBox="0 0 279.108 170">
  <path id="Path_796" data-name="Path 796" d="M302.615,311.565a46.26,46.26,0,0,1-3.964,7.684,33.245,33.245,0,0,1-2.4,3.33l-.027.032H27.8l.048-.034c.242-.19,1.659-1.348,3.864-3.33,1.582-1.424,3.567-3.272,5.8-5.5,18.233-18.1,53.257-60.948,24.088-100.2-27.117-36.489,2.08-43.112,21.339-43.883a54.667,54.667,0,0,1,21.706,3.581A191.185,191.185,0,0,0,150.987,184.3q1.043.119,2.106.229a201.057,201.057,0,0,0,33.761.617h0c.331-.017.664-.041,1-.066a199.164,199.164,0,0,0,33.022-5.159c.7-.173,1.4-.336,2.087-.488,36.14-8.44,69.457,20.325,61.129,52.835-3.082,12.021-2.3,24.84,7.97,35.206C308.861,284.4,306.815,301.065,302.615,311.565Z" transform="translate(-26.447 -153.013)" fill="#81d8d0" opacity="0.1"/>
  <ellipse id="Ellipse_79" data-name="Ellipse 79" cx="3.393" cy="2.592" rx="3.393" ry="2.592" transform="matrix(0.488, -0.873, 0.873, 0.488, 212.894, 67.973)" fill="#3f3d56"/>
  <ellipse id="Ellipse_80" data-name="Ellipse 80" cx="3.393" cy="2.592" rx="3.393" ry="2.592" transform="matrix(0.488, -0.873, 0.873, 0.488, 214.917, 64.32)" fill="#3f3d56"/>
  <ellipse id="Ellipse_81" data-name="Ellipse 81" cx="3.393" cy="2.592" rx="3.393" ry="2.592" transform="matrix(0.488, -0.873, 0.873, 0.488, 216.942, 60.669)" fill="#3f3d56"/>
  <ellipse id="Ellipse_82" data-name="Ellipse 82" cx="3.393" cy="2.592" rx="3.393" ry="2.592" transform="matrix(0.488, -0.873, 0.873, 0.488, 218.965, 57.014)" fill="#3f3d56"/>
  <ellipse id="Ellipse_83" data-name="Ellipse 83" cx="3.393" cy="2.592" rx="3.393" ry="2.592" transform="matrix(0.488, -0.873, 0.873, 0.488, 220.987, 53.363)" fill="#3f3d56"/>
  <ellipse id="Ellipse_84" data-name="Ellipse 84" cx="3.393" cy="2.592" rx="3.393" ry="2.592" transform="matrix(0.488, -0.873, 0.873, 0.488, 223.012, 49.711)" fill="#3f3d56"/>
  <ellipse id="Ellipse_85" data-name="Ellipse 85" cx="3.393" cy="2.592" rx="3.393" ry="2.592" transform="matrix(0.488, -0.873, 0.873, 0.488, 225.037, 46.059)" fill="#3f3d56"/>
  <path id="Path_797" data-name="Path 797" d="M961.516,124.8a12.656,12.656,0,0,0,1.536-.768l-5.4-4.3,6.4,3.642a12.441,12.441,0,0,0,5.007-8.47l-11.127-.348,11.224-1.4a12.417,12.417,0,1,0-24.667,2.121,12.477,12.477,0,0,0-2.34,1.285l5.48,8.323-6.683-7.362A12.419,12.419,0,0,0,937,128.677a12.415,12.415,0,1,0,17.038,9.523,12.412,12.412,0,0,0,7.487-13.4Z" transform="translate(-710.253 -100.835)" fill="#81d8d0"/>
  <path id="Path_798" data-name="Path 798" d="M938.416,182.814a12.383,12.383,0,0,0-1.415,8,12.415,12.415,0,1,0,17.038,9.523C956.509,199.3,939.1,181.607,938.416,182.814Z" transform="translate(-710.253 -162.969)" opacity="0.1"/>
  <path id="Path_799" data-name="Path 799" d="M992.428,631.77h2.925a6.038,6.038,0,0,1,6.038,6.038v8.963h-15v-8.963A6.038,6.038,0,0,1,992.428,631.77Z" transform="translate(-748.148 -477.672)" fill="#3f3d56"/>
  <path id="Path_800" data-name="Path 800" d="M992.428,631.77h2.925a6.038,6.038,0,0,1,6.038,6.038v8.963h-15v-8.963A6.038,6.038,0,0,1,992.428,631.77Z" transform="translate(-748.148 -477.672)" opacity="0.1"/>
  <circle id="Ellipse_86" data-name="Ellipse 86" cx="1.2" cy="1.2" r="1.2" transform="translate(243.945 154.999)" fill="#3f3d56"/>
  <circle id="Ellipse_87" data-name="Ellipse 87" cx="1.2" cy="1.2" r="1.2" transform="translate(243.945 153.499)" fill="#3f3d56"/>
  <circle id="Ellipse_88" data-name="Ellipse 88" cx="1.2" cy="1.2" r="1.2" transform="translate(243.945 151.996)" fill="#3f3d56"/>
  <circle id="Ellipse_89" data-name="Ellipse 89" cx="1.2" cy="1.2" r="1.2" transform="translate(243.945 150.496)" fill="#3f3d56"/>
  <circle id="Ellipse_90" data-name="Ellipse 90" cx="1.2" cy="1.2" r="1.2" transform="translate(243.945 148.997)" fill="#3f3d56"/>
  <circle id="Ellipse_91" data-name="Ellipse 91" cx="1.2" cy="1.2" r="1.2" transform="translate(243.945 147.497)" fill="#3f3d56"/>
  <circle id="Ellipse_92" data-name="Ellipse 92" cx="1.2" cy="1.2" r="1.2" transform="translate(243.945 145.997)" fill="#3f3d56"/>
  <circle id="Ellipse_93" data-name="Ellipse 93" cx="1.2" cy="1.2" r="1.2" transform="translate(245.744 146.596)" fill="#3f3d56"/>
  <circle id="Ellipse_94" data-name="Ellipse 94" cx="1.2" cy="1.2" r="1.2" transform="translate(246.945 145.997)" fill="#3f3d56"/>
  <circle id="Ellipse_95" data-name="Ellipse 95" cx="1.2" cy="1.2" r="1.2" transform="translate(248.145 145.395)" fill="#3f3d56"/>
  <circle id="Ellipse_96" data-name="Ellipse 96" cx="1.2" cy="1.2" r="1.2" transform="translate(243.945 144.497)" fill="#3f3d56"/>
  <circle id="Ellipse_97" data-name="Ellipse 97" cx="1.2" cy="1.2" r="1.2" transform="translate(243.945 142.997)" fill="#3f3d56"/>
  <circle id="Ellipse_98" data-name="Ellipse 98" cx="1.2" cy="1.2" r="1.2" transform="translate(243.945 141.495)" fill="#3f3d56"/>
  <circle id="Ellipse_99" data-name="Ellipse 99" cx="1.2" cy="1.2" r="1.2" transform="translate(243.945 139.995)" fill="#3f3d56"/>
  <path id="Path_801" data-name="Path 801" d="M1026.1,650.227q-.447.065-.9.094a6.9,6.9,0,0,0,.773-.792,5.072,5.072,0,0,0-.724-1.408,2.5,2.5,0,0,1-.966.307c-.3.043-.6.075-.9.094a16.022,16.022,0,0,0,1.147-1.208,5.1,5.1,0,1,0,1.674,3.77,4.991,4.991,0,0,0-.077-.877Z" transform="translate(-775.982 -513.141)" fill="#81d8d0"/>
  <path id="Path_802" data-name="Path 802" d="M1059.311,686.352a2.361,2.361,0,0,1-1.01.338c-.3.043-.6.075-.9.094a8.808,8.808,0,0,0,.889-.923,3.1,3.1,0,0,0-.768-.1,3,3,0,1,0,1.785.592Z" transform="translate(-805.181 -543.063)" fill="#81d8d0"/>
  <circle id="Ellipse_100" data-name="Ellipse 100" cx="1.2" cy="1.2" r="1.2" transform="translate(242.143 146.596)" fill="#3f3d56"/>
  <circle id="Ellipse_101" data-name="Ellipse 101" cx="1.2" cy="1.2" r="1.2" transform="translate(240.943 145.997)" fill="#3f3d56"/>
  <circle id="Ellipse_102" data-name="Ellipse 102" cx="1.2" cy="1.2" r="1.2" transform="translate(239.745 145.395)" fill="#3f3d56"/>
  <path id="Path_803" data-name="Path 803" d="M996.187,686.352a2.362,2.362,0,0,0,1.01.338c.3.043.6.075.9.094a8.8,8.8,0,0,1-.889-.923,3.1,3.1,0,0,1,.768-.1,3,3,0,1,1-1.785.592Z" transform="translate(-760.019 -543.063)" fill="#81d8d0"/>
  <path id="Path_804" data-name="Path 804" d="M992.428,635.5h2.925a6.038,6.038,0,0,1,6.038,6.038v7.939a1.024,1.024,0,0,1-1.024,1.024H987.414a1.024,1.024,0,0,1-1.024-1.024v-7.939A6.038,6.038,0,0,1,992.428,635.5Z" transform="translate(-748.148 -480.501)" fill="#3f3d56"/>
  <g id="Group_33" data-name="Group 33" transform="translate(240.114 132.912)" opacity="0.1">
    <path id="Path_805" data-name="Path 805" d="M1056.929,664.88a3.907,3.907,0,0,1-.389.367,3.86,3.86,0,0,0,.411-.036C1056.946,665.1,1056.941,664.989,1056.929,664.88Z" transform="translate(-1046.83 -660.386)"/>
    <path id="Path_806" data-name="Path 806" d="M1049.09,655.8c.3-.019.6-.051.9-.094a2.811,2.811,0,0,0,.78-.213,5.466,5.466,0,0,0-.42-.693,1.817,1.817,0,0,1-.483.205A7.134,7.134,0,0,1,1049.09,655.8Z" transform="translate(-1041.18 -652.741)"/>
    <path id="Path_807" data-name="Path 807" d="M1016.869,651.911a5.092,5.092,0,0,1,7.85-4.29l.077-.082a5.1,5.1,0,1,0-6.719,7.664A5.073,5.073,0,0,1,1016.869,651.911Z" transform="translate(-1016.34 -646.275)"/>
  </g>
  <g id="Group_34" data-name="Group 34" transform="translate(249.35 142.697)" opacity="0.1">
    <path id="Path_808" data-name="Path 808" d="M1066.48,689.221c.3-.022.6-.053.9-.1a2.36,2.36,0,0,0,1.01-.336,2.992,2.992,0,0,1,1.208,2.125,2.783,2.783,0,0,0,.017-.319,2.993,2.993,0,0,0-1.208-2.415,2.364,2.364,0,0,1-1.01.338l-.241.029A5.947,5.947,0,0,1,1066.48,689.221Z" transform="translate(-1063.606 -687.595)"/>
    <path id="Path_809" data-name="Path 809" d="M1057.58,686.359a1.379,1.379,0,0,1,.3.022c.157-.167.312-.345.469-.519a3.1,3.1,0,0,0-.768-.1,3,3,0,0,0-3,3,2.035,2.035,0,0,0,.015.3A3,3,0,0,1,1057.58,686.359Z" transform="translate(-1054.58 -685.76)"/>
  </g>
  <g id="Group_35" data-name="Group 35" transform="translate(234.933 142.697)" opacity="0.1">
    <path id="Path_810" data-name="Path 810" d="M998.02,689.221c-.3-.022-.6-.053-.9-.1a2.36,2.36,0,0,1-1.01-.336,2.992,2.992,0,0,0-1.208,2.125,2.8,2.8,0,0,1-.017-.319,2.993,2.993,0,0,1,1.208-2.415,2.362,2.362,0,0,0,1.01.338l.241.029A6.163,6.163,0,0,0,998.02,689.221Z" transform="translate(-994.89 -687.595)"/>
    <path id="Path_811" data-name="Path 811" d="M1004.938,686.359a1.38,1.38,0,0,0-.3.022c-.157-.167-.312-.345-.469-.519a3.1,3.1,0,0,1,.768-.1,3,3,0,0,1,3,3,2.035,2.035,0,0,1-.015.3A3,3,0,0,0,1004.938,686.359Z" transform="translate(-1001.929 -685.76)"/>
  </g>
  <path id="Path_812" data-name="Path 812" d="M38.038,539H61.114a6.038,6.038,0,0,1,6.038,6.038v29.1H32v-29.1A6.038,6.038,0,0,1,38.038,539Z" transform="translate(-24.271 -407.309)" fill="#3f3d56"/>
  <path id="Path_813" data-name="Path 813" d="M38.038,539H61.114a6.038,6.038,0,0,1,6.038,6.038v29.1H32v-29.1A6.038,6.038,0,0,1,38.038,539Z" transform="translate(-24.271 -407.309)" opacity="0.1"/>
  <circle id="Ellipse_103" data-name="Ellipse 103" cx="2.811" cy="2.811" r="2.811" transform="translate(21.093 133.523)" fill="#3f3d56"/>
  <circle id="Ellipse_104" data-name="Ellipse 104" cx="2.811" cy="2.811" r="2.811" transform="translate(21.093 129.978)" fill="#3f3d56"/>
  <circle id="Ellipse_105" data-name="Ellipse 105" cx="2.811" cy="2.811" r="2.811" transform="translate(21.093 126.431)" fill="#3f3d56"/>
  <circle id="Ellipse_106" data-name="Ellipse 106" cx="2.811" cy="2.811" r="2.811" transform="translate(21.093 122.886)" fill="#3f3d56"/>
  <circle id="Ellipse_107" data-name="Ellipse 107" cx="2.811" cy="2.811" r="2.811" transform="translate(21.093 119.339)" fill="#3f3d56"/>
  <circle id="Ellipse_108" data-name="Ellipse 108" cx="2.811" cy="2.811" r="2.811" transform="translate(21.093 115.794)" fill="#3f3d56"/>
  <circle id="Ellipse_109" data-name="Ellipse 109" cx="2.811" cy="2.811" r="2.811" transform="translate(21.093 112.249)" fill="#3f3d56"/>
  <circle id="Ellipse_110" data-name="Ellipse 110" cx="2.811" cy="2.811" r="2.811" transform="translate(25.31 113.667)" fill="#3f3d56"/>
  <circle id="Ellipse_111" data-name="Ellipse 111" cx="2.811" cy="2.811" r="2.811" transform="translate(28.121 112.249)" fill="#3f3d56"/>
  <circle id="Ellipse_112" data-name="Ellipse 112" cx="2.811" cy="2.811" r="2.811" transform="translate(30.935 110.829)" fill="#3f3d56"/>
  <circle id="Ellipse_113" data-name="Ellipse 113" cx="2.811" cy="2.811" r="2.811" transform="translate(21.093 108.702)" fill="#3f3d56"/>
  <circle id="Ellipse_114" data-name="Ellipse 114" cx="2.811" cy="2.811" r="2.811" transform="translate(21.093 105.157)" fill="#3f3d56"/>
  <circle id="Ellipse_115" data-name="Ellipse 115" cx="2.811" cy="2.811" r="2.811" transform="translate(21.093 101.609)" fill="#3f3d56"/>
  <circle id="Ellipse_116" data-name="Ellipse 116" cx="2.811" cy="2.811" r="2.811" transform="translate(21.093 98.065)" fill="#3f3d56"/>
  <path id="Path_814" data-name="Path 814" d="M95.13,446.348q-1.046.152-2.1.222a16.368,16.368,0,0,0,1.809-1.857,11.919,11.919,0,0,0-1.676-3.3,5.734,5.734,0,0,1-2.251.725c-.7.1-1.4.176-2.1.225a37.9,37.9,0,0,0,2.688-2.8,11.977,11.977,0,1,0,3.741,6.777Z" transform="translate(-59.568 -354.593)" fill="#81d8d0"/>
  <path id="Path_815" data-name="Path 815" d="M173.088,530.944a5.535,5.535,0,0,1-2.365.787c-.7.1-1.4.176-2.1.225A19.779,19.779,0,0,0,170.7,529.8a7.036,7.036,0,1,0,2.384,1.147Z" transform="translate(-128.13 -425.058)" fill="#81d8d0"/>
  <circle id="Ellipse_117" data-name="Ellipse 117" cx="2.811" cy="2.811" r="2.811" transform="translate(16.873 113.667)" fill="#3f3d56"/>
  <circle id="Ellipse_118" data-name="Ellipse 118" cx="2.811" cy="2.811" r="2.811" transform="translate(14.062 112.249)" fill="#3f3d56"/>
  <circle id="Ellipse_119" data-name="Ellipse 119" cx="2.811" cy="2.811" r="2.811" transform="translate(11.25 110.829)" fill="#3f3d56"/>
  <path id="Path_816" data-name="Path 816" d="M25.057,530.944a5.535,5.535,0,0,0,2.367.787c.7.1,1.4.176,2.1.225a19.779,19.779,0,0,1-2.082-2.159,7.036,7.036,0,1,1-2.384,1.147Z" transform="translate(-22.207 -425.058)" fill="#81d8d0"/>
  <path id="Path_817" data-name="Path 817" d="M38.038,547.69H61.114a6.038,6.038,0,0,1,6.038,6.038v28.092a1.024,1.024,0,0,1-1.024,1.024h-33.1A1.024,1.024,0,0,1,32,581.82V553.728A6.038,6.038,0,0,1,38.038,547.69Z" transform="translate(-24.271 -413.9)" fill="#3f3d56"/>
  <g id="Group_36" data-name="Group 36" transform="translate(12.119 81.981)" opacity="0.1">
    <path id="Path_818" data-name="Path 818" d="M167.468,480.61a9.088,9.088,0,0,1-.908.86c.321-.022.645-.051.966-.082C167.514,481.127,167.5,480.866,167.468,480.61Z" transform="translate(-143.811 -470.083)"/>
    <path id="Path_819" data-name="Path 819" d="M149.1,459.376c.7-.048,1.4-.121,2.1-.225a6.694,6.694,0,0,0,1.831-.483,12.21,12.21,0,0,0-.985-1.628,4.148,4.148,0,0,1-1.126.483A16.718,16.718,0,0,1,149.1,459.376Z" transform="translate(-130.568 -452.206)"/>
    <path id="Path_820" data-name="Path 820" d="M73.612,450.231A11.929,11.929,0,0,1,92,440.181c.06-.063.121-.133.181-.193a11.941,11.941,0,1,0-15.741,17.959A11.886,11.886,0,0,1,73.612,450.231Z" transform="translate(-72.374 -437.025)"/>
  </g>
  <g id="Group_37" data-name="Group 37" transform="translate(33.742 104.465)" opacity="0.1">
    <path id="Path_821" data-name="Path 821" d="M189.85,537.708q1.053-.068,2.1-.225a5.525,5.525,0,0,0,2.365-.787,7.019,7.019,0,0,1,2.816,4.978,7.352,7.352,0,0,0,.039-.741,7,7,0,0,0-2.848-5.642,5.536,5.536,0,0,1-2.365.787c-.186.027-.37.048-.553.07A13.922,13.922,0,0,1,189.85,537.708Z" transform="translate(-183.099 -533.906)"/>
    <path id="Path_822" data-name="Path 822" d="M168.928,530.961a6.778,6.778,0,0,1,.705.048c.367-.391.725-.807,1.094-1.208a7,7,0,0,0-8.828,6.789c0,.242.012.483.034.7A7.031,7.031,0,0,1,168.928,530.961Z" transform="translate(-161.9 -529.56)"/>
  </g>
  <g id="Group_38" data-name="Group 38" transform="translate(0 104.465)" opacity="0.1">
    <path id="Path_823" data-name="Path 823" d="M29.514,537.708q-1.053-.068-2.1-.225a5.47,5.47,0,0,1-2.367-.787,7.019,7.019,0,0,0-2.809,4.978,7.352,7.352,0,0,1-.039-.741,7,7,0,0,1,2.85-5.642,5.535,5.535,0,0,0,2.367.787c.184.027.367.048.551.07a14.124,14.124,0,0,0,1.546,1.56Z" transform="translate(-22.2 -533.906)"/>
    <path id="Path_824" data-name="Path 824" d="M45.659,530.961a6.778,6.778,0,0,0-.705.048c-.367-.391-.725-.807-1.094-1.208a7,7,0,0,1,8.828,6.789,4.744,4.744,0,0,1-.034.7A7.031,7.031,0,0,0,45.659,530.961Z" transform="translate(-38.628 -529.56)"/>
  </g>
  <path id="Path_825" data-name="Path 825" d="M532.078,627.878l-47.1-.6.138-1.208L487.4,606.14h41.362l3.043,19.926.232,1.51Z" transform="translate(-367.843 -458.233)" fill="#d0d2d5"/>
  <path id="Path_826" data-name="Path 826" d="M532.032,690.15h-23.5l-23.549-.3.138-1.208H531.8Z" transform="translate(-367.843 -520.807)" opacity="0.1"/>
  <rect id="Rectangle_189" data-name="Rectangle 189" width="62.496" height="1.51" transform="translate(109.287 168.135)" fill="#d0d2d5"/>
  <path id="Path_827" data-name="Path 827" d="M407.655,199.4a3.932,3.932,0,0,0-3.91-3.951H229.213A3.932,3.932,0,0,0,225.3,199.4v105.79H407.655Z" transform="translate(-176.245 -172.598)" fill="#444053"/>
  <path id="Path_828" data-name="Path 828" d="M225.3,645.45v12.393a3.91,3.91,0,0,0,3.913,3.922H403.744a3.91,3.91,0,0,0,3.91-3.91v-12.4Z" transform="translate(-176.245 -512.489)" fill="#d0d2d5"/>
  <rect id="Rectangle_190" data-name="Rectangle 190" width="168.165" height="95.102" transform="translate(56.602 30.065)" fill="#81d8d0" opacity="0.1"/>
  <path id="Path_829" data-name="Path 829" d="M593.659,667.742a4.08,4.08,0,0,0,3.208-1.555h0a4.4,4.4,0,0,0,.316-.466l-2.237-.367,2.415.017a4.065,4.065,0,0,0,.077-3.229l-3.244,1.691,2.993-2.2a4.075,4.075,0,1,0-6.731,4.541h0A4.075,4.075,0,0,0,593.659,667.742Z" transform="translate(-452.521 -523.177)" fill="#81d8d0"/>
  <path id="Path_830" data-name="Path 830" d="M601.23,611.76l18.789,18.871-2.881-18.871Z" transform="translate(-456.015 -462.495)" opacity="0.1"/>
  <rect id="Rectangle_191" data-name="Rectangle 191" width="129.822" height="68.935" transform="translate(61.283 43.05)" fill="#fff"/>
  <rect id="Rectangle_192" data-name="Rectangle 192" width="36.21" height="1.877" transform="translate(68.524 60.93)" fill="#81d8d0" opacity="0.1"/>
  <rect id="Rectangle_193" data-name="Rectangle 193" width="3.488" height="9.924" transform="translate(71.744 50.943)" fill="#81d8d0" opacity="0.1"/>
  <rect id="Rectangle_194" data-name="Rectangle 194" width="3.488" height="9.924" transform="translate(76.84 50.943)" fill="#81d8d0" opacity="0.1"/>
  <rect id="Rectangle_195" data-name="Rectangle 195" width="3.488" height="9.924" transform="translate(81.936 50.943)" fill="#81d8d0" opacity="0.1"/>
  <rect id="Rectangle_196" data-name="Rectangle 196" width="3.488" height="9.924" transform="translate(87.033 50.943)" fill="#81d8d0" opacity="0.1"/>
  <rect id="Rectangle_197" data-name="Rectangle 197" width="3.488" height="9.924" transform="translate(92.129 50.943)" fill="#81d8d0" opacity="0.1"/>
  <rect id="Rectangle_198" data-name="Rectangle 198" width="3.488" height="9.924" transform="translate(97.225 50.943)" fill="#81d8d0" opacity="0.1"/>
  <rect id="Rectangle_199" data-name="Rectangle 199" width="3.488" height="1.072" transform="translate(71.744 52.814)" fill="#81d8d0" opacity="0.1"/>
  <rect id="Rectangle_200" data-name="Rectangle 200" width="3.488" height="1.072" transform="translate(76.84 52.814)" fill="#81d8d0" opacity="0.1"/>
  <rect id="Rectangle_201" data-name="Rectangle 201" width="3.488" height="1.072" transform="translate(81.936 52.814)" fill="#81d8d0" opacity="0.1"/>
  <rect id="Rectangle_202" data-name="Rectangle 202" width="3.488" height="1.072" transform="translate(87.033 52.814)" fill="#81d8d0" opacity="0.1"/>
  <rect id="Rectangle_203" data-name="Rectangle 203" width="3.488" height="1.072" transform="translate(92.129 52.814)" fill="#81d8d0" opacity="0.1"/>
  <rect id="Rectangle_204" data-name="Rectangle 204" width="3.488" height="1.072" transform="translate(97.225 52.814)" fill="#81d8d0" opacity="0.1"/>
  <rect id="Rectangle_205" data-name="Rectangle 205" width="3.488" height="1.072" transform="translate(71.744 57.683)" fill="#81d8d0" opacity="0.1"/>
  <rect id="Rectangle_206" data-name="Rectangle 206" width="3.488" height="1.072" transform="translate(76.84 57.683)" fill="#81d8d0" opacity="0.1"/>
  <rect id="Rectangle_207" data-name="Rectangle 207" width="3.488" height="1.072" transform="translate(81.936 57.683)" fill="#81d8d0" opacity="0.1"/>
  <rect id="Rectangle_208" data-name="Rectangle 208" width="3.488" height="1.072" transform="translate(87.033 57.683)" fill="#81d8d0" opacity="0.1"/>
  <rect id="Rectangle_209" data-name="Rectangle 209" width="3.488" height="1.072" transform="translate(92.129 57.683)" fill="#81d8d0" opacity="0.1"/>
  <rect id="Rectangle_210" data-name="Rectangle 210" width="3.488" height="1.072" transform="translate(97.225 57.683)" fill="#81d8d0" opacity="0.1"/>
  <rect id="Rectangle_211" data-name="Rectangle 211" width="36.21" height="1.877" transform="translate(147.92 65.799)" fill="#81d8d0" opacity="0.1"/>
  <rect id="Rectangle_212" data-name="Rectangle 212" width="3.488" height="9.924" transform="translate(151.14 55.814)" fill="#81d8d0" opacity="0.1"/>
  <rect id="Rectangle_213" data-name="Rectangle 213" width="3.488" height="9.924" transform="translate(156.236 55.814)" fill="#81d8d0" opacity="0.1"/>
  <rect id="Rectangle_214" data-name="Rectangle 214" width="3.488" height="9.924" transform="translate(161.332 55.814)" fill="#81d8d0" opacity="0.1"/>
  <rect id="Rectangle_215" data-name="Rectangle 215" width="3.488" height="9.924" transform="translate(166.428 55.814)" fill="#81d8d0" opacity="0.1"/>
  <rect id="Rectangle_216" data-name="Rectangle 216" width="3.488" height="9.924" transform="translate(171.525 55.814)" fill="#81d8d0" opacity="0.1"/>
  <rect id="Rectangle_217" data-name="Rectangle 217" width="3.488" height="9.924" transform="translate(176.621 55.814)" fill="#81d8d0" opacity="0.1"/>
  <rect id="Rectangle_218" data-name="Rectangle 218" width="3.488" height="1.072" transform="translate(151.14 57.683)" fill="#81d8d0" opacity="0.1"/>
  <rect id="Rectangle_219" data-name="Rectangle 219" width="3.488" height="1.072" transform="translate(156.236 57.683)" fill="#81d8d0" opacity="0.1"/>
  <rect id="Rectangle_220" data-name="Rectangle 220" width="3.488" height="1.072" transform="translate(161.332 57.683)" fill="#81d8d0" opacity="0.1"/>
  <rect id="Rectangle_221" data-name="Rectangle 221" width="3.488" height="1.072" transform="translate(166.428 57.683)" fill="#81d8d0" opacity="0.1"/>
  <rect id="Rectangle_222" data-name="Rectangle 222" width="3.488" height="1.072" transform="translate(171.525 57.683)" fill="#81d8d0" opacity="0.1"/>
  <rect id="Rectangle_223" data-name="Rectangle 223" width="3.488" height="1.072" transform="translate(176.621 57.683)" fill="#81d8d0" opacity="0.1"/>
  <rect id="Rectangle_224" data-name="Rectangle 224" width="3.488" height="1.072" transform="translate(151.14 62.552)" fill="#81d8d0" opacity="0.1"/>
  <rect id="Rectangle_225" data-name="Rectangle 225" width="3.488" height="1.072" transform="translate(156.236 62.552)" fill="#81d8d0" opacity="0.1"/>
  <rect id="Rectangle_226" data-name="Rectangle 226" width="3.488" height="1.072" transform="translate(161.332 62.552)" fill="#81d8d0" opacity="0.1"/>
  <rect id="Rectangle_227" data-name="Rectangle 227" width="3.488" height="1.072" transform="translate(166.428 62.552)" fill="#81d8d0" opacity="0.1"/>
  <rect id="Rectangle_228" data-name="Rectangle 228" width="3.488" height="1.072" transform="translate(171.525 62.552)" fill="#81d8d0" opacity="0.1"/>
  <rect id="Rectangle_229" data-name="Rectangle 229" width="3.488" height="1.072" transform="translate(176.621 62.552)" fill="#81d8d0" opacity="0.1"/>
  <rect id="Rectangle_230" data-name="Rectangle 230" width="36.21" height="1.877" transform="translate(147.92 79.596)" fill="#81d8d0" opacity="0.1"/>
  <rect id="Rectangle_231" data-name="Rectangle 231" width="3.488" height="9.924" transform="translate(151.14 69.617)" fill="#81d8d0" opacity="0.1"/>
  <rect id="Rectangle_232" data-name="Rectangle 232" width="3.488" height="9.924" transform="translate(156.236 69.617)" fill="#81d8d0" opacity="0.1"/>
  <rect id="Rectangle_233" data-name="Rectangle 233" width="3.488" height="9.924" transform="translate(161.332 69.617)" fill="#81d8d0" opacity="0.1"/>
  <rect id="Rectangle_234" data-name="Rectangle 234" width="3.488" height="9.924" transform="translate(166.428 69.617)" fill="#81d8d0" opacity="0.1"/>
  <rect id="Rectangle_235" data-name="Rectangle 235" width="3.488" height="9.924" transform="translate(171.525 69.617)" fill="#81d8d0" opacity="0.1"/>
  <rect id="Rectangle_236" data-name="Rectangle 236" width="3.488" height="9.924" transform="translate(176.621 69.617)" fill="#81d8d0" opacity="0.1"/>
  <rect id="Rectangle_237" data-name="Rectangle 237" width="3.488" height="1.072" transform="translate(151.14 71.477)" fill="#81d8d0" opacity="0.1"/>
  <rect id="Rectangle_238" data-name="Rectangle 238" width="3.488" height="1.072" transform="translate(156.236 71.477)" fill="#81d8d0" opacity="0.1"/>
  <rect id="Rectangle_239" data-name="Rectangle 239" width="3.488" height="1.072" transform="translate(161.332 71.477)" fill="#81d8d0" opacity="0.1"/>
  <rect id="Rectangle_240" data-name="Rectangle 240" width="3.488" height="1.072" transform="translate(166.428 71.477)" fill="#81d8d0" opacity="0.1"/>
  <rect id="Rectangle_241" data-name="Rectangle 241" width="3.488" height="1.072" transform="translate(171.525 71.477)" fill="#81d8d0" opacity="0.1"/>
  <rect id="Rectangle_242" data-name="Rectangle 242" width="3.488" height="1.072" transform="translate(176.621 71.477)" fill="#81d8d0" opacity="0.1"/>
  <rect id="Rectangle_243" data-name="Rectangle 243" width="3.488" height="1.072" transform="translate(151.14 76.346)" fill="#81d8d0" opacity="0.1"/>
  <rect id="Rectangle_244" data-name="Rectangle 244" width="3.488" height="1.072" transform="translate(156.236 76.346)" fill="#81d8d0" opacity="0.1"/>
  <rect id="Rectangle_245" data-name="Rectangle 245" width="3.488" height="1.072" transform="translate(161.332 76.346)" fill="#81d8d0" opacity="0.1"/>
  <rect id="Rectangle_246" data-name="Rectangle 246" width="3.488" height="1.072" transform="translate(166.428 76.346)" fill="#81d8d0" opacity="0.1"/>
  <rect id="Rectangle_247" data-name="Rectangle 247" width="3.488" height="1.072" transform="translate(171.525 76.346)" fill="#81d8d0" opacity="0.1"/>
  <rect id="Rectangle_248" data-name="Rectangle 248" width="3.488" height="1.072" transform="translate(176.621 76.346)" fill="#81d8d0" opacity="0.1"/>
  <path id="Path_831" data-name="Path 831" d="M391.443,390.515a9.557,9.557,0,0,1-.739-1.087l5.215-.855-5.649.046a9.523,9.523,0,0,1-.181-7.531l7.565,3.925-6.975-5.128a9.5,9.5,0,1,1,15.7,10.627,9.5,9.5,0,0,1,1.089,1.729l-6.763,3.514,7.214-2.415a9.5,9.5,0,0,1-1.531,8.922,9.5,9.5,0,1,1-14.939,0,9.5,9.5,0,0,1,0-11.75Z" transform="translate(-300.71 -308.127)" fill="#81d8d0" opacity="0.1"/>
  <path id="Path_832" data-name="Path 832" d="M408.442,462.74a9.463,9.463,0,0,1-2.034,5.874,9.5,9.5,0,1,1-14.939,0C390.2,467,408.442,461.672,408.442,462.74Z" transform="translate(-300.736 -374.379)" fill="#81d8d0" opacity="0.1"/>
  <path id="Path_833" data-name="Path 833" d="M423.95,553.148c.017.027.029.053.046.08h-3.227c.017-.027.029-.053.046-.08a3.14,3.14,0,0,1-.415-1.589,3.273,3.273,0,0,1,.2-1.118h0c.179.029.4.06.657.087a11.323,11.323,0,0,0,2.251,0c.213-.022.437-.053.664-.087a.156.156,0,0,1,0,.017,3.223,3.223,0,0,1,.191,1.1A3.14,3.14,0,0,1,423.95,553.148Z" transform="translate(-324.223 -440.916)" fill="#3f3d56" opacity="0.2"/>
  <path id="Path_834" data-name="Path 834" d="M307.278,451.762H289.332c-.041-.1-.077-.213-.109-.319a9.446,9.446,0,0,1,.21-6.212A9.5,9.5,0,0,1,285.965,434a9.828,9.828,0,0,1-1.029-.821l4.729-2.357-5.374,1.705a9.514,9.514,0,0,1-2.4-7.144l8.386,1.514-8.178-2.84a9.5,9.5,0,1,1,18.134,5.529,9.683,9.683,0,0,1,1.548,1.336l-5.43,5.357,6.181-4.444a9.507,9.507,0,0,1,1.169,8.98A9.507,9.507,0,0,1,307.278,451.762Z" transform="translate(-219.146 -339.565)" fill="#81d8d0" opacity="0.1"/>
  <path id="Path_835" data-name="Path 835" d="M329.057,507.9H311.111c-.041-.1-.077-.213-.109-.319a9.446,9.446,0,0,1,.21-6.212c-1.691-1.171,14.168-11.644,14.492-10.627a9.485,9.485,0,0,1-.21,6.215A9.507,9.507,0,0,1,329.057,507.9Z" transform="translate(-240.925 -395.631)" fill="#81d8d0" opacity="0.1"/>
  <path id="Path_836" data-name="Path 836" d="M630.984,463.553a9.459,9.459,0,0,1-4.758,4,9.8,9.8,0,0,1,.041,2.046l-7.613-.457,7.434,1.625a9.526,9.526,0,0,1-3.669,5.661H612.058v.268H601.51c.022-.092.043-.181.068-.268a9.538,9.538,0,0,1,5.8-6.451,9.511,9.511,0,0,1,6.038-10.086,9.508,9.508,0,0,1-.08-1.311l4.915,1.932-4.86-2.855a9.526,9.526,0,0,1,3.7-6.555l4.478,7.246-3.355-7.97a9.5,9.5,0,0,1,12.772,13.183Z" transform="translate(-461.59 -364.196)" fill="#81d8d0" opacity="0.1"/>
  <path id="Path_837" data-name="Path 837" d="M624.953,537.374a9.37,9.37,0,0,1-2.534,2.79H612.058v.268H601.51c.022-.092.043-.181.068-.268a9.538,9.538,0,0,1,5.8-6.451c-.089-.693,1.959-.6,4.686-.14C617.391,534.466,625.315,536.768,624.953,537.374Z" transform="translate(-461.59 -427.859)" fill="#81d8d0" opacity="0.1"/>
  <path id="Path_838" data-name="Path 838" d="M505.12,443.784s1.292,7.045-1.606,9.342,2.449,16.081,11.333,14.475,12.482-13.173,12.482-13.173-8.883-1.836-5.591-11.178Z" transform="translate(-386.662 -359.731)" fill="#efb7b9"/>
  <path id="Path_839" data-name="Path 839" d="M505.12,443.784s1.292,7.045-1.606,9.342,2.449,16.081,11.333,14.475,12.482-13.173,12.482-13.173-8.883-1.836-5.591-11.178Z" transform="translate(-386.662 -359.731)" opacity="0.1"/>
  <circle id="Ellipse_120" data-name="Ellipse 120" cx="14.702" cy="14.702" r="14.702" transform="translate(111.606 59.604)" fill="#efb7b9"/>
  <path id="Path_840" data-name="Path 840" d="M492.727,488.7V498.7H444.18v-9.538a6.161,6.161,0,0,1,3.758-5.671l1.394-.592c3.522-1.5,7.8-3.362,9.2-4.137a2.3,2.3,0,0,0,.43-.278c.766-.766.613.229.613.229s-.022.188-.036.517c-.082,2.249.242,11.093,10.6,10.357,10.11-.725,10.555-7.545,10.463-9.552a4.979,4.979,0,0,0-.048-.556,13.854,13.854,0,0,1,2.048.667,42.624,42.624,0,0,1,6.07,2.628c.261.181.577.374.92.565a6.125,6.125,0,0,1,3.14,5.367Z" transform="translate(-342.259 -386.174)" fill="#81d8d0"/>
  <path id="Path_841" data-name="Path 841" d="M527.634,480.165c-.855,3.966-3.541,11.4-13.229,11.593-10.316.2-10.91-10.057-10.847-12.968a2.234,2.234,0,0,0,.432-.28c.766-.766.613.229.613.229s-1.3,11.717,10.567,10.869S525.586,479.5,525.586,479.5A12.107,12.107,0,0,1,527.634,480.165Z" transform="translate(-387.293 -386.236)" opacity="0.1"/>
  <path id="Path_842" data-name="Path 842" d="M470.045,333.492a2.542,2.542,0,0,1,2.657.966,4.75,4.75,0,0,1,.679,2.522c.64.135,1-.589,1.058-1.133a29.46,29.46,0,0,1,1-6.635,7.938,7.938,0,0,1,4.884-5.048,5.642,5.642,0,0,1,2.657-.254c.529.089,1.029.273,1.558.36,1.828.3,3.821-.565,5.538.039a4.365,4.365,0,0,1,2.261,2.135,4.659,4.659,0,0,0,.879,1.278,6.14,6.14,0,0,0,2.918,1.029,3.769,3.769,0,0,1,2.635,1.365,3.559,3.559,0,0,1-.029,2.362,5.768,5.768,0,0,0,.6,3.647c.193.367.585.783,1.046.664a.923.923,0,0,0,.5-.406c1.208-1.691,1.169-3.884,2.674-5.393.5-.5,1.155-.9,1.645-1.415a3.183,3.183,0,0,0,.853-2.9,9.561,9.561,0,0,0-1.949-3.14,12.319,12.319,0,0,1-2.089-4.335.773.773,0,0,1,0-.565,1.514,1.514,0,0,1,.534-.437,2.019,2.019,0,0,0,.693-2.58,4.257,4.257,0,0,0-2.4-1.918,15.988,15.988,0,0,0-3.3-.725,1.792,1.792,0,0,1-1.836-.906c-.1-.263-.1-.548-.205-.812a1.86,1.86,0,0,0-1.4-.985,4.106,4.106,0,0,0-1.889.133,2.95,2.95,0,0,1-2.109.15c-.319-.181-.5-.51-.841-.657-.7-.3-1.43.3-1.932.8a4.758,4.758,0,0,1-1.746,1.171,2.593,2.593,0,0,1-2.159-.142,6.807,6.807,0,0,1-1.109-1.191,4.171,4.171,0,0,0-2.623-1.075,9.269,9.269,0,0,0-2.961.324,17.931,17.931,0,0,0-5.2,2.174,5.589,5.589,0,0,0-2,1.855,4.21,4.21,0,0,0-.449,1.913,6.911,6.911,0,0,0,2.415,5.729,3.4,3.4,0,0,0-1.725,2.58,14.148,14.148,0,0,0-.669,4.831,10.611,10.611,0,0,1,.184,2.509,5.424,5.424,0,0,0-.164,1.208A1.154,1.154,0,0,0,470.045,333.492Z" transform="translate(-361.14 -258.553)" fill="#454b69"/>
  <g id="Group_39" data-name="Group 39" transform="translate(107.935 56.273)" opacity="0.1">
    <path id="Path_843" data-name="Path 843" d="M598.773,378.18a3.465,3.465,0,0,1-.635.935c-.483.514-1.14.911-1.645,1.418-1.5,1.507-1.473,3.707-2.674,5.393a.918.918,0,0,1-.5.4c-.461.118-.853-.3-1.046-.664a5.866,5.866,0,0,1-.524-1.413q-.039.184-.072.37a5.767,5.767,0,0,0,.6,3.647c.193.367.584.783,1.046.664a.922.922,0,0,0,.5-.406c1.208-1.691,1.169-3.884,2.674-5.393.5-.5,1.155-.9,1.645-1.415a3.183,3.183,0,0,0,.853-2.9A3.483,3.483,0,0,0,598.773,378.18Z" transform="translate(-562.008 -366.925)"/>
    <path id="Path_844" data-name="Path 844" d="M605.866,333.711a1.483,1.483,0,0,0-.534.435.773.773,0,0,0,0,.565,11.8,11.8,0,0,0,.534,1.606h0a2.019,2.019,0,0,0,.684-2.606,2.647,2.647,0,0,0-.242-.411A2.016,2.016,0,0,1,605.866,333.711Z" transform="translate(-572.383 -332.885)"/>
    <path id="Path_845" data-name="Path 845" d="M471.5,335.662a6.557,6.557,0,0,1-2.307-4.082,5.8,5.8,0,0,0-.106.966,7.35,7.35,0,0,0,1.159,4.348A2.471,2.471,0,0,1,471.5,335.662Z" transform="translate(-469.081 -331.58)"/>
    <path id="Path_846" data-name="Path 846" d="M498.9,366.973a3.558,3.558,0,0,0,.029-2.362,3.755,3.755,0,0,0-2.635-1.365,6.123,6.123,0,0,1-2.918-1.029,4.659,4.659,0,0,1-.879-1.278,4.33,4.33,0,0,0-2.261-2.135c-1.717-.6-3.71.263-5.538-.039-.529-.087-1.029-.271-1.558-.36a5.642,5.642,0,0,0-2.657.242A7.927,7.927,0,0,0,475.6,363.7a29.23,29.23,0,0,0-1,6.635c-.058.543-.418,1.268-1.058,1.133a4.794,4.794,0,0,0-.679-2.522,2.523,2.523,0,0,0-2.657-.966,1.28,1.28,0,0,1-.744-.483,4.061,4.061,0,0,1-.014.966,5.423,5.423,0,0,0-.164,1.208,1.154,1.154,0,0,0,.918.913,2.542,2.542,0,0,1,2.657.966,4.75,4.75,0,0,1,.679,2.522c.64.135,1-.589,1.058-1.133a29.46,29.46,0,0,1,1-6.635,7.938,7.938,0,0,1,4.884-5.048,5.642,5.642,0,0,1,2.657-.254c.529.089,1.029.273,1.558.36,1.828.3,3.821-.565,5.538.039a4.365,4.365,0,0,1,2.261,2.135,4.659,4.659,0,0,0,.879,1.278,6.14,6.14,0,0,0,2.918,1.029,3.875,3.875,0,0,1,2.582,1.283C498.883,367.08,498.89,367.026,498.9,366.973Z" transform="translate(-469.231 -351.88)"/>
    <path id="Path_847" data-name="Path 847" d="M469.325,383.371a6.794,6.794,0,0,0-.116-1.961,8.745,8.745,0,0,0-.068,2.055c.014.176.039.35.063.527C469.233,383.784,469.286,383.579,469.325,383.371Z" transform="translate(-469.103 -369.375)"/>
  </g>
  <rect id="Rectangle_249" data-name="Rectangle 249" width="21.738" height="15.084" transform="translate(197.748 97.273)" fill="#fff"/>
  <path id="Path_848" data-name="Path 848" d="M896.576,534.187a2.684,2.684,0,0,1-1.355,1.138,2.757,2.757,0,0,1,.012.582l-2.174-.13,2.116.464a2.722,2.722,0,0,1-1.043,1.609H891.19v.077h-3a.116.116,0,0,1,.019-.077,2.657,2.657,0,0,1,.295-.7,7.738,7.738,0,0,0,3.07-4.007,2.422,2.422,0,0,1-.022-.372l1.4.551-1.384-.812a2.7,2.7,0,0,1,1.055-1.867l1.273,2.063-.954-2.27a2.705,2.705,0,0,1,3.623,3.751Z" transform="translate(-679.028 -425.508)" fill="#81d8d0" opacity="0.1"/>
  <path id="Path_849" data-name="Path 849" d="M894.859,555.189a2.658,2.658,0,0,1-.725.792H891.19v.077h-3a.116.116,0,0,1,.019-.077,2.656,2.656,0,0,1,.295-.7,2.691,2.691,0,0,1,1.353-1.138c-.024-.2.558-.169,1.333-.039C892.707,554.363,894.962,555.017,894.859,555.189Z" transform="translate(-679.028 -443.616)" fill="#81d8d0" opacity="0.1"/>
  <path id="Path_850" data-name="Path 850" d="M843.231,534.187a2.683,2.683,0,0,0,1.355,1.138,2.762,2.762,0,0,0-.012.582l2.174-.13-2.116.464a2.722,2.722,0,0,0,1.043,1.609h2.949v.077h3a.455.455,0,0,0-.019-.077,2.83,2.83,0,0,0-.295-.7,7.721,7.721,0,0,1-3.072-4.007,2.746,2.746,0,0,0,.024-.372l-1.4.551,1.382-.812a2.7,2.7,0,0,0-1.055-1.867l-1.273,2.063.954-2.27a2.705,2.705,0,0,0-3.623,3.751Z" transform="translate(-644.658 -425.508)" fill="#81d8d0" opacity="0.1"/>
  <path id="Path_851" data-name="Path 851" d="M851.448,555.189a2.658,2.658,0,0,0,.725.792h2.949v.077h3a.452.452,0,0,0-.019-.077,2.827,2.827,0,0,0-.295-.7,2.7,2.7,0,0,0-1.355-1.138c.024-.2-.558-.169-1.333-.039C853.6,554.363,851.337,555.017,851.448,555.189Z" transform="translate(-651.157 -443.616)" fill="#81d8d0" opacity="0.1"/>
  <rect id="Rectangle_250" data-name="Rectangle 250" width="4.857" height="5.41" transform="translate(205.906 100.573)" fill="#464353"/>
  <rect id="Rectangle_251" data-name="Rectangle 251" width="4.857" height="5.41" transform="translate(205.906 100.573)" opacity="0.1"/>
  <path id="Path_852" data-name="Path 852" d="M843.629,453.932l-.1,1.406h1.386L845,453.48Z" transform="translate(-639.793 -342.931)" fill="#a1616a"/>
  <path id="Path_853" data-name="Path 853" d="M873.52,453.932l-.21,1.406h1.27l.08-1.857Z" transform="translate(-662.38 -342.931)" fill="#a1616a"/>
  <path id="Path_854" data-name="Path 854" d="M879.01,524.243a2.255,2.255,0,0,1-.217.886,1.671,1.671,0,0,0,2.831.2s-.568-.483-.435-1.024S879.01,524.243,879.01,524.243Z" transform="translate(-671.891 -420.959)" fill="#a1616a"/>
  <path id="Path_855" data-name="Path 855" d="M879.01,524.243a2.255,2.255,0,0,1-.217.886,1.671,1.671,0,0,0,2.831.2s-.568-.483-.435-1.024S879.01,524.243,879.01,524.243Z" transform="translate(-671.891 -420.959)" opacity="0.1"/>
  <circle id="Ellipse_121" data-name="Ellipse 121" cx="2.43" cy="2.43" r="2.43" transform="translate(205.904 99.033)" fill="#a1616a"/>
  <path id="Path_856" data-name="Path 856" d="M870.049,528.117a1.2,1.2,0,0,1-1.171-.947,6.2,6.2,0,0,1-.638.483c-.1.034-1.072.584-1.256.618a1.036,1.036,0,0,0-.483.242,2.108,2.108,0,0,0-.8,1.575c-.034,1.089-.167,3.217-.167,3.217l.051.771v.5a1.763,1.763,0,0,0,1.449-.242s0-.184.1-.241.116-.3.1-.4a3.9,3.9,0,0,1,0-.452.323.323,0,0,0,.135.2,1.031,1.031,0,0,1,.034.42c-.051.1-.1.333-.051.384a.242.242,0,0,1-.034.285,1.662,1.662,0,0,0-.217.42s-.051.3-.1.333a1.392,1.392,0,0,0-.116.386h6.038a5.809,5.809,0,0,1-.242-.94c.017-.15-.15-.771-.034-.937a1.285,1.285,0,0,0,.268-.771l.068.652-.184,1.449s1.121.353,1.239.133a7.756,7.756,0,0,0,.285-1.171s.268-1.208.336-1.374.217-3.517-.688-4a27.111,27.111,0,0,0-2.657-1.28A1.123,1.123,0,0,1,870.049,528.117Z" transform="translate(-661.841 -423.284)" fill="#81d8d0"/>
  <path id="Path_857" data-name="Path 857" d="M871.506,544.65a1.208,1.208,0,0,0-.208.848,2.345,2.345,0,0,0,.285.841" transform="translate(-666.208 -436.543)" fill="none" stroke="#000" stroke-miterlimit="10" stroke-width="1" opacity="0.1"/>
  <path id="Path_858" data-name="Path 858" d="M896.3,545.6a2.545,2.545,0,0,1,.1.377,1.147,1.147,0,0,1-.159.947" transform="translate(-685.133 -437.264)" fill="none" stroke="#000" stroke-miterlimit="10" stroke-width="1" opacity="0.1"/>
  <path id="Path_859" data-name="Path 859" d="M872.478,503.8a.8.8,0,0,1,.568.058,2.973,2.973,0,0,0,.541.215c.126.027.242.027.382.046a1.188,1.188,0,0,1,.952.93c.109.594-.242,1.179-.242,1.785a1.493,1.493,0,0,0,.345.949,2.8,2.8,0,0,1,.483.577c.07.155.085.331.152.483a1.246,1.246,0,0,0,.686.585,4.673,4.673,0,0,1,.838.377c.483.321.768.937,1.328,1.07a.222.222,0,0,0,.176,0,.218.218,0,0,0,.082-.169.79.79,0,0,0-.225-.65c-.138-.138-.338-.242-.382-.427s.072-.345.135-.514a1.7,1.7,0,0,0-.512-1.589,3.263,3.263,0,0,1-.925-1.449,3.823,3.823,0,0,1-.022-.575,3.814,3.814,0,0,0-.2-1.162,1.709,1.709,0,0,0-.29-.558c-.121-.145-.275-.256-.4-.4a5.975,5.975,0,0,1-.449-.725,2.174,2.174,0,0,0-1.775-1,3.661,3.661,0,0,0-1.9.659,1.625,1.625,0,0,0-.536.471c-.242.384-.169.891-.309,1.326s-.471.756-.587,1.181a.829.829,0,0,0-.017.384,1.97,1.97,0,0,0,.172.386,2.877,2.877,0,0,1,.215.978,1.929,1.929,0,0,1-.159,1.188,1.991,1.991,0,0,1-.6.512,1.176,1.176,0,0,0,.843.258,1.489,1.489,0,0,0,1.275-.362,1.266,1.266,0,0,0,.193-.882,3.706,3.706,0,0,0-.2-.985,7.516,7.516,0,0,1-.469-1.338,1.261,1.261,0,0,1,.242-.966c.087-.109.242-.164.314-.28C872.287,504.037,872.261,503.875,872.478,503.8Z" transform="translate(-665.231 -403.986)" fill="#464353"/>
  <g id="Group_40" data-name="Group 40" transform="translate(204.774 99.405)" opacity="0.1">
    <path id="Path_860" data-name="Path 860" d="M871.692,517.4a2.877,2.877,0,0,1,.215.978c0,.106.017.215.019.324a3.327,3.327,0,0,0,0-.71,2.854,2.854,0,0,0-.215-.966,2.172,2.172,0,0,1-.172-.384.816.816,0,0,0-.017.382A1.971,1.971,0,0,0,871.692,517.4Z" transform="translate(-871.148 -514.747)"/>
    <path id="Path_861" data-name="Path 861" d="M872.155,527.627a1.505,1.505,0,0,1-1.275.365,1.887,1.887,0,0,1-.572-.087c-.092.075-.191.145-.287.213a1.176,1.176,0,0,0,.843.258,1.489,1.489,0,0,0,1.275-.362,1.208,1.208,0,0,0,.2-.824A.926.926,0,0,1,872.155,527.627Z" transform="translate(-870.02 -522.748)"/>
    <path id="Path_862" data-name="Path 862" d="M903.843,531.036a.387.387,0,0,0,.029.08c.029-.068.063-.138.089-.208a1,1,0,0,0,.048-.5.986.986,0,0,1-.031.114C903.915,530.693,903.8,530.862,903.843,531.036Z" transform="translate(-895.667 -525.191)"/>
    <path id="Path_863" data-name="Path 863" d="M880.089,510.578a1.511,1.511,0,0,0,0-.5,1.186,1.186,0,0,0-.952-.93c-.128-.022-.256-.022-.382-.046a3.154,3.154,0,0,1-.541-.215.8.8,0,0,0-.568-.06c-.217.077-.191.242-.287.4-.07.116-.227.174-.314.28a1.249,1.249,0,0,0-.242.891,1.089,1.089,0,0,1,.225-.5c.087-.109.242-.164.314-.28.1-.162.07-.324.287-.4a.8.8,0,0,1,.568.058,2.97,2.97,0,0,0,.541.215c.126.027.242.027.382.046a1.188,1.188,0,0,1,.952.93A.952.952,0,0,1,880.089,510.578Z" transform="translate(-875.16 -508.801)"/>
    <path id="Path_864" data-name="Path 864" d="M893.334,525.807a.242.242,0,0,1-.176,0c-.56-.133-.85-.749-1.328-1.07a5.036,5.036,0,0,0-.838-.377,1.242,1.242,0,0,1-.686-.582c-.068-.157-.082-.331-.152-.483a2.81,2.81,0,0,0-.483-.577,1.5,1.5,0,0,1-.348-.848,1.849,1.849,0,0,0-.022.283,1.492,1.492,0,0,0,.362.956,2.8,2.8,0,0,1,.483.577c.07.155.085.331.152.483a1.246,1.246,0,0,0,.686.585,4.675,4.675,0,0,1,.838.377c.483.321.768.937,1.328,1.07a.172.172,0,0,0,.258-.169.8.8,0,0,0-.015-.273A.147.147,0,0,1,893.334,525.807Z" transform="translate(-884.643 -518.713)"/>
  </g>
  <rect id="Rectangle_252" data-name="Rectangle 252" width="3.106" height="4.437" transform="translate(199.965 98.334)" fill="#81d8d0" opacity="0.1"/>
  <rect id="Rectangle_253" data-name="Rectangle 253" width="2.217" height="3.169" transform="translate(200.409 98.968)" fill="#81d8d0" opacity="0.1"/>
  <rect id="Rectangle_254" data-name="Rectangle 254" width="5.101" height="2.662" transform="translate(213.273 98.997)" fill="#81d8d0" opacity="0.1"/>
  <rect id="Rectangle_255" data-name="Rectangle 255" width="3.77" height="1.968" transform="translate(213.94 99.344)" fill="#81d8d0" opacity="0.1"/>
</svg>
