<svg xmlns="http://www.w3.org/2000/svg" width="417.031" height="307.259" viewBox="0 0 417.031 307.259">
  <g id="Illustration" transform="translate(0 -0.001)">
    <rect id="Rectangle_472" data-name="Rectangle 472" width="175.293" height="5.142" transform="translate(241.737 113.774)" fill="#e6e6e6"/>
    <rect id="Rectangle_473" data-name="Rectangle 473" width="44.408" height="44.408" transform="translate(256.228 70.769)" fill="#e6e6e6"/>
    <rect id="Rectangle_474" data-name="Rectangle 474" width="26.645" height="26.645" transform="translate(265.11 79.65)" fill="#ccc"/>
    <rect id="Rectangle_475" data-name="Rectangle 475" width="11.219" height="44.408" transform="translate(355.795 70.769)" fill="#e6e6e6"/>
    <rect id="Rectangle_476" data-name="Rectangle 476" width="11.219" height="5.142" transform="translate(355.795 77.78)" fill="#ccc"/>
    <rect id="Rectangle_477" data-name="Rectangle 477" width="11.219" height="5.142" transform="translate(355.795 100.218)" fill="#ccc"/>
    <rect id="Rectangle_478" data-name="Rectangle 478" width="11.219" height="44.408" transform="translate(338.499 70.769)" fill="#e6e6e6"/>
    <rect id="Rectangle_479" data-name="Rectangle 479" width="11.219" height="5.142" transform="translate(338.499 77.78)" fill="#ccc"/>
    <rect id="Rectangle_480" data-name="Rectangle 480" width="11.219" height="5.142" transform="translate(338.499 100.218)" fill="#ccc"/>
    <rect id="Rectangle_481" data-name="Rectangle 481" width="11.219" height="44.408" transform="matrix(0.896, -0.444, 0.444, 0.896, 366.626, 75.563)" fill="#e6e6e6"/>
    <rect id="Rectangle_482" data-name="Rectangle 482" width="11.219" height="5.142" transform="matrix(0.896, -0.444, 0.444, 0.896, 369.737, 81.847)" fill="#ccc"/>
    <rect id="Rectangle_483" data-name="Rectangle 483" width="11.219" height="5.142" transform="matrix(0.896, -0.444, 0.444, 0.896, 379.692, 101.955)" fill="#ccc"/>
    <path id="Path_1715" data-name="Path 1715" d="M514.257,170.382l5.65,9.785,5.649,9.785h-22.6l5.649-9.785Z" transform="translate(-241.434 -81.788)" fill="#e6e6e6"/>
    <path id="Path_1716" data-name="Path 1716" d="M533.136,173.978l5.649,9.785,5.65,9.785h-22.6l5.65-9.785Z" transform="translate(-250.497 -83.514)" fill="#e6e6e6"/>
    <circle id="Ellipse_298" data-name="Ellipse 298" cx="3.272" cy="3.272" r="3.272" transform="translate(283.34 81.053)" fill="#e6e6e6"/>
    <rect id="Rectangle_484" data-name="Rectangle 484" width="175.293" height="5.142" transform="translate(417.031 48.331) rotate(180)" fill="#e6e6e6"/>
    <rect id="Rectangle_485" data-name="Rectangle 485" width="44.408" height="44.408" transform="translate(402.54 44.592) rotate(180)" fill="#e6e6e6"/>
    <rect id="Rectangle_486" data-name="Rectangle 486" width="26.645" height="26.645" transform="translate(393.658 35.71) rotate(180)" fill="#ccc"/>
    <rect id="Rectangle_487" data-name="Rectangle 487" width="11.219" height="44.408" transform="translate(302.973 44.592) rotate(180)" fill="#e6e6e6"/>
    <rect id="Rectangle_488" data-name="Rectangle 488" width="11.219" height="5.142" transform="translate(302.973 12.338) rotate(180)" fill="#ccc"/>
    <rect id="Rectangle_489" data-name="Rectangle 489" width="11.219" height="5.142" transform="translate(302.973 34.775) rotate(180)" fill="#ccc"/>
    <rect id="Rectangle_490" data-name="Rectangle 490" width="11.219" height="44.408" transform="translate(320.269 44.592) rotate(180)" fill="#e6e6e6"/>
    <rect id="Rectangle_491" data-name="Rectangle 491" width="11.219" height="5.142" transform="translate(320.269 12.338) rotate(180)" fill="#ccc"/>
    <rect id="Rectangle_492" data-name="Rectangle 492" width="11.219" height="5.142" transform="translate(320.269 34.775) rotate(180)" fill="#ccc"/>
    <rect id="Rectangle_493" data-name="Rectangle 493" width="11.219" height="44.408" transform="matrix(-0.896, -0.444, 0.444, -0.896, 272.439, 44.775)" fill="#e6e6e6"/>
    <rect id="Rectangle_494" data-name="Rectangle 494" width="11.219" height="5.142" transform="matrix(-0.896, -0.444, 0.444, -0.896, 286.75, 15.87)" fill="#ccc"/>
    <rect id="Rectangle_495" data-name="Rectangle 495" width="11.219" height="5.142" transform="matrix(-0.896, -0.444, 0.444, -0.896, 276.794, 35.978)" fill="#ccc"/>
    <path id="Path_1717" data-name="Path 1717" d="M731.813,34.634l-5.65,9.785L720.514,54.2h22.6l-5.65-9.785Z" transform="translate(-345.868 -16.625)" fill="#e6e6e6"/>
    <path id="Path_1718" data-name="Path 1718" d="M712.934,38.23l-5.649,9.785L701.635,57.8h22.6l-5.649-9.785Z" transform="translate(-336.805 -18.351)" fill="#e6e6e6"/>
    <circle id="Ellipse_299" data-name="Ellipse 299" cx="3.272" cy="3.272" r="3.272" transform="translate(368.884 10.468)" fill="#e6e6e6"/>
    <rect id="Rectangle_496" data-name="Rectangle 496" width="175.293" height="5.142" transform="translate(417.031 189.501) rotate(180)" fill="#e6e6e6"/>
    <rect id="Rectangle_497" data-name="Rectangle 497" width="44.408" height="44.408" transform="translate(402.54 185.761) rotate(180)" fill="#e6e6e6"/>
    <rect id="Rectangle_498" data-name="Rectangle 498" width="26.645" height="26.645" transform="translate(393.658 176.88) rotate(180)" fill="#ccc"/>
    <rect id="Rectangle_499" data-name="Rectangle 499" width="11.219" height="44.408" transform="translate(302.973 185.761) rotate(180)" fill="#e6e6e6"/>
    <rect id="Rectangle_500" data-name="Rectangle 500" width="11.219" height="5.142" transform="translate(302.973 153.507) rotate(180)" fill="#ccc"/>
    <rect id="Rectangle_501" data-name="Rectangle 501" width="11.219" height="5.142" transform="translate(302.973 175.945) rotate(180)" fill="#ccc"/>
    <rect id="Rectangle_502" data-name="Rectangle 502" width="11.219" height="44.408" transform="translate(320.269 185.761) rotate(180)" fill="#e6e6e6"/>
    <rect id="Rectangle_503" data-name="Rectangle 503" width="11.219" height="5.142" transform="translate(320.269 153.507) rotate(180)" fill="#ccc"/>
    <rect id="Rectangle_504" data-name="Rectangle 504" width="11.219" height="5.142" transform="translate(320.269 175.945) rotate(180)" fill="#ccc"/>
    <rect id="Rectangle_505" data-name="Rectangle 505" width="11.219" height="44.408" transform="matrix(-0.896, -0.444, 0.444, -0.896, 272.439, 185.945)" fill="#e6e6e6"/>
    <rect id="Rectangle_506" data-name="Rectangle 506" width="11.219" height="5.142" transform="matrix(-0.896, -0.444, 0.444, -0.896, 286.75, 157.04)" fill="#ccc"/>
    <rect id="Rectangle_507" data-name="Rectangle 507" width="11.219" height="5.142" transform="matrix(-0.896, -0.444, 0.444, -0.896, 276.794, 177.148)" fill="#ccc"/>
    <path id="Path_1719" data-name="Path 1719" d="M731.813,306.129l-5.65,9.785-5.649,9.786h22.6l-5.65-9.786Z" transform="translate(-345.868 -146.951)" fill="#e6e6e6"/>
    <path id="Path_1720" data-name="Path 1720" d="M712.934,309.725l-5.649,9.785-5.649,9.786h22.6l-5.649-9.786Z" transform="translate(-336.805 -148.677)" fill="#e6e6e6"/>
    <circle id="Ellipse_300" data-name="Ellipse 300" cx="3.272" cy="3.272" r="3.272" transform="translate(368.884 151.637)" fill="#e6e6e6"/>
    <ellipse id="Ellipse_301" data-name="Ellipse 301" cx="206.496" cy="14.666" rx="206.496" ry="14.666" transform="translate(0 277.928)" fill="#e6e6e6"/>
    <path id="Path_1721" data-name="Path 1721" d="M805.641,691.888c-33.671-5.993-70.491-5-109.114,0,17.6-14.861,32.8-29.723,15.193-44.584,34.339,7.084,39.148,6.367,77.347,0C780.207,662.165,796.781,677.027,805.641,691.888Z" transform="translate(-437.82 -391.082)" fill="#ce4e4d"/>
    <path id="Path_1722" data-name="Path 1722" d="M805.641,691.888c-33.671-5.993-70.491-5-109.114,0,17.6-14.861,32.8-29.723,15.193-44.584,34.339,7.084,39.148,6.367,77.347,0C780.207,662.165,796.781,677.027,805.641,691.888Z" transform="translate(-437.82 -391.082)" opacity="0.2"/>
    <path id="Path_1723" data-name="Path 1723" d="M805.01,688c-28.6-4.784-59.88-3.988-92.688,0,14.954-11.863,27.86-23.725,12.906-35.588,29.169,5.655,33.255,5.082,65.7,0C783.4,664.274,797.484,676.137,805.01,688Z" transform="translate(-445.402 -393.534)" fill="#ce4e4d"/>
    <circle id="Ellipse_302" data-name="Ellipse 302" cx="15.24" cy="15.24" r="15.24" transform="translate(333.474 244.873)" fill="#2f2e41"/>
    <path id="Path_1724" data-name="Path 1724" d="M521.885,466.249l10.56,1.76,5.28,15.252-15.252,9.386-17.6-26.4h17.012Z" transform="translate(-242.354 -223.813)" fill="#a0616a"/>
    <circle id="Ellipse_303" data-name="Ellipse 303" cx="24.639" cy="24.639" r="24.639" transform="translate(284.812 216.624)" fill="#a0616a"/>
    <path id="Path_1725" data-name="Path 1725" d="M449.143,445.919s-59.837,6.453-70.4,5.28a130.748,130.748,0,0,1-15.253-2.347s-7.04,9.386-3.52,13.493a25.386,25.386,0,0,0,7.04,5.866s6.453-1.76,11.146,0,52.211,9.386,60.423,2.347S449.143,445.919,449.143,445.919Z" transform="translate(-275.792 -294.411)" fill="#2f2e41"/>
    <path id="Path_1726" data-name="Path 1726" d="M459.034,596.837s-39.3-11.146-46.344-60.424V531.72s-7.777,13.643-10.559,16.426c-3.227,3.226-14.666,32.265-14.079,35.2s0,4.106,0,4.106l-17.012-1.76v-5.28s9.093-27.279,9.68-33.732S403.3,495.349,403.3,495.349s8.213-17.012,22.292,0,15.253,28.745,15.253,28.745l18.186,35.2Z" transform="translate(-281.576 -314.509)" fill="#2f2e41"/>
    <path id="Path_1727" data-name="Path 1727" d="M340.678,436.923l-18.772-6.453s-17.6-12.906-13.493,0,22.879,41.065,28.159,38.131,11.629-10.214,10.214-11.267S335.985,448.655,340.678,436.923Z" transform="translate(-251.216 -284.241)" fill="#2f2e41"/>
    <path id="Path_1728" data-name="Path 1728" d="M351.068,659.259l-15.154,7.4s-18.326,2.819-8.106,8.106,38.413,10.925,39.823,5.991.85-13.122-.632-12.9S355.3,669.126,351.068,659.259Z" transform="translate(-259.337 -396.82)" fill="#2f2e41"/>
    <path id="Path_1729" data-name="Path 1729" d="M523.537,608.425s-7.626,32.852,5.28,39.891,103.248,8.213,110.288-4.693,3.52-12.906,3.52-12.906L623.852,609.6l15.253-1.173a5.476,5.476,0,0,0-5.28-5.28c-5.28-.587-21.706-6.453-35.785-2.346s-22.292-8.213-22.292-8.213Z" transform="translate(-353.706 -364.815)" fill="#1b9a8f"/>
    <path id="Path_1730" data-name="Path 1730" d="M298.23,268.361l-9.973,54.557,68.637-8.213,12.319-49.278Z" transform="translate(-138.372 -127.413)" fill="#3f3d56"/>
    <path id="Path_1731" data-name="Path 1731" d="M303.8,272.31,295.591,321l62.477-7.333,12.026-44.291Z" transform="translate(-141.892 -129.308)" fill="#fff"/>
    <path id="Path_1732" data-name="Path 1732" d="M289.521,376.58l-2.347-.587L286,378.339l18.773,52.211,1.765-.675.581-3.431Z" transform="translate(-137.289 -180.487)" fill="#b3b3b3"/>
    <path id="Path_1733" data-name="Path 1733" d="M288.257,367.824l18.773,54.557,70.983-10.56L356.894,360.2Z" transform="translate(-138.372 -172.905)" fill="#d0cde1"/>
    <path id="Path_1734" data-name="Path 1734" d="M306.309,366.064V369l52.21-5.866-.587-2.933Z" transform="translate(-147.037 -172.905)" fill="#3f3d56"/>
    <path id="Path_1735" data-name="Path 1735" d="M308.565,377.888l8.213,22.879,53.384-6.453-9.386-21.706Z" transform="translate(-148.12 -178.862)" fill="#3f3d56"/>
    <path id="Path_1736" data-name="Path 1736" d="M614.291,577.119l-1.76-4.693S599.038,548.961,592,553.654s14.666,27.572,14.666,27.572h7.04Z" transform="translate(-386.969 -345.829)" fill="#a0616a"/>
    <path id="Path_1737" data-name="Path 1737" d="M547.566,580.628l-1.76-7.04s-4.693-21.706,3.52-20.532,10.559,21.706,10.559,21.706l-.587,4.693Z" transform="translate(-364.829 -345.818)" fill="#a0616a"/>
    <path id="Path_1738" data-name="Path 1738" d="M562.3,599.776s-15.253-2.346-15.839,1.173-3.52,56.317,11.146,58.077,87.409,9.386,79.783-8.8-19.359-15.839-19.359-15.839l-49.864,5.28Z" transform="translate(-365.479 -367.899)" fill="#1b9a8f"/>
    <path id="Path_1739" data-name="Path 1739" d="M443.249,448.9,427.7,438.044l-10.266,7.92,12.906,14.079Z" transform="translate(-200.382 -210.274)" fill="#1b9a8f"/>
    <path id="Path_1740" data-name="Path 1740" d="M386.976,479.224l2.346,22.292L429.8,499.17l-35.2-.587Z" transform="translate(-185.76 -230.041)" opacity="0.2"/>
    <circle id="Ellipse_304" data-name="Ellipse 304" cx="29.332" cy="29.332" r="29.332" transform="translate(292.281 216.408)" fill="#2f2e41"/>
    <path id="Path_1741" data-name="Path 1741" d="M328.309,294.2l36.371-1.266,3.52-13.4-37.545,1.133Z" transform="translate(-157.598 -134.183)" fill="#ce4e4d"/>
    <path id="Path_1742" data-name="Path 1742" d="M310.258,318.612l55.143-1.76.587-2.347-55.143,1.942Z" transform="translate(-148.933 -150.971)" fill="#e6e6e6"/>
    <path id="Path_1743" data-name="Path 1743" d="M308,329.894l55.144-1.76.586-2.347-55.144,1.942Z" transform="translate(-147.849 -156.387)" fill="#e6e6e6"/>
    <path id="Path_1744" data-name="Path 1744" d="M306.873,338.919l55.143-1.76.587-2.347-55.144,1.941Z" transform="translate(-147.308 -160.72)" fill="#e6e6e6"/>
  </g>
</svg>
