<svg xmlns="http://www.w3.org/2000/svg" xmlns:xlink="http://www.w3.org/1999/xlink" width="808" height="581.432" viewBox="0 0 808 581.432"><defs><linearGradient id="a" x1="0.5" y1="1" x2="0.5" gradientUnits="objectBoundingBox"><stop offset="0" stop-color="gray" stop-opacity="0.251"/><stop offset="0.54" stop-color="gray" stop-opacity="0.122"/><stop offset="1" stop-color="gray" stop-opacity="0.102"/></linearGradient><linearGradient id="b" x1="0.5" y1="1" x2="0.5" y2="0" xlink:href="#a"/></defs><g transform="translate(0.001 -0.015)"><path d="M526.4,165.862c-51.8-1.8-101.174-18.5-148.25-36.761S284.418,90.6,233.831,80.917c-32.525-6.232-69.721-7.108-95.922,10.3-25.219,16.75-33.365,45.667-37.747,72.5-3.3,20.189-5.208,41.433,3.8,60.337,6.271,13.118,17.4,24.148,25.1,36.716,26.781,43.728,7.848,97.654-21.18,140.387C94.27,421.21,78.476,440.292,67.972,461.618s-15.37,45.756-6.175,67.5c9.113,21.541,30.821,37.749,54.344,49.135,47.775,23.108,104.068,29.719,158.963,33.507,121.513,8.3,243.681,4.7,365.515,1.107,45.09-1.337,90.38-2.681,134.733-9.656,24.631-3.87,50.066-10.005,67.951-24.817,22.7-18.807,28.329-50.643,13.115-74.227-25.517-39.546-96.063-49.373-113.9-91.816-9.812-23.361.268-49.388,14.536-71.055,30.6-46.476,81.9-87.255,84.6-140.387,1.86-36.493-22.8-73.031-60.935-90.3C740.752,92.5,685.329,94.785,655.847,124.726,625.488,155.574,572.133,167.444,526.4,165.862Z" transform="translate(-56.94 -63.31)" fill="#81d8d0" opacity="0.1"/><path d="M267.6,739.815s-40.916-30.933-48.645-70.279A77.77,77.77,0,0,0,194.991,626.6,130.932,130.932,0,0,0,175.82,612.32" transform="translate(-87.382 -201.262)" fill="none" stroke="#535461" stroke-miterlimit="10" stroke-width="2"/><path d="M162.307,577.478c3.586,4.85,5.208,25.405,5.208,25.405s-19.171-7.551-22.764-12.394a10.926,10.926,0,0,1,17.557-13.011Z" transform="translate(-78.876 -190.953)" fill="#81d8d0"/><path d="M207.8,597.156c.372,6.018-9.426,24.155-9.426,24.155s-12-16.768-12.379-22.787a10.92,10.92,0,1,1,21.8-1.369Z" transform="translate(-89.981 -194.523)" fill="#81d8d0"/><path d="M252.892,657.55c-2.708,5.386-20.332,16.1-20.332,16.1s-1.882-20.532.826-25.918a10.92,10.92,0,1,1,19.507,9.82Z" transform="translate(-101.749 -208.614)" fill="#81d8d0"/><path d="M276.087,712.9c-1.763,5.766-17.319,19.3-17.319,19.3s-5.334-19.915-3.571-25.688a10.923,10.923,0,0,1,20.89,6.39Z" transform="translate(-107.617 -223.402)" fill="#81d8d0"/><path d="M175.541,645.264c5.951.8,24.765-7.692,24.765-7.692s-15.875-13.153-21.857-13.956a10.921,10.921,0,0,0-2.909,21.648Z" transform="translate(-84.886 -203.922)" fill="#81d8d0"/><path d="M202.455,709.02c5.951-1.019,21.328-14.745,21.328-14.745s-19.089-7.8-25.033-6.777a10.921,10.921,0,1,0,3.72,21.522Z" transform="translate(-90.933 -220.49)" fill="#81d8d0"/><path d="M238.838,767.132c6.033,0,23.516-10.928,23.516-10.928s-17.49-10.913-23.523-10.913a10.921,10.921,0,0,0,0,21.842Z" transform="translate(-100.721 -235.312)" fill="#81d8d0"/><path d="M833.49,386.922s25.219-44.673,63.234-57.543a77.762,77.762,0,0,0,39.369-29.452A130.455,130.455,0,0,0,947.691,279" transform="translate(-255.792 -115.366)" fill="none" stroke="#535461" stroke-miterlimit="10" stroke-width="2"/><path d="M1010.653,261.543c-4.33,4.2-24.483,8.54-24.483,8.54s4.947-20.012,9.277-24.215a10.92,10.92,0,1,1,15.207,15.676Z" transform="translate(-294.889 -106.01)" fill="#81d8d0"/><path d="M995.087,309.168c-5.951,1.175-25.2-6.13-25.2-6.13s15.027-14.135,20.942-15.288a10.921,10.921,0,1,1,4.255,21.418Z" transform="translate(-290.72 -117.505)" fill="#81d8d0"/><path d="M941.58,362.037c-5.7-1.971-18.65-18.011-18.65-18.011s20.086-4.6,25.8-2.626a10.92,10.92,0,1,1-7.149,20.638Z" transform="translate(-278.695 -131.243)" fill="#81d8d0"/><path d="M889.4,392.212c-5.951-.982-21.4-14.633-21.4-14.633s19.037-7.93,24.981-6.948a10.932,10.932,0,0,1-3.548,21.574Z" transform="translate(-264.629 -138.865)" fill="#81d8d0"/><path d="M947.3,283.513c-.007,6.033,10.936,23.538,10.936,23.538s10.928-17.482,10.928-23.508a10.921,10.921,0,1,0-21.834,0Z" transform="translate(-284.935 -113.613)" fill="#81d8d0"/><path d="M887.74,318.865c1.8,5.758,17.453,19.186,17.453,19.186s5.208-19.952,3.392-25.71a10.921,10.921,0,0,0-20.83,6.524Z" transform="translate(-269.588 -122.027)" fill="#81d8d0"/><path d="M834.953,362.441c.8,5.951,13.956,21.849,13.956,21.849s8.488-18.784,7.685-24.758a10.921,10.921,0,1,0-21.641,2.909Z" transform="translate(-256.132 -133.539)" fill="#81d8d0"/><path d="M1010.653,261.543c-4.33,4.2-24.483,8.54-24.483,8.54s4.947-20.012,9.277-24.215a10.92,10.92,0,1,1,15.207,15.676Z" transform="translate(-294.889 -106.01)" opacity="0.25"/><path d="M995.087,309.168c-5.951,1.175-25.2-6.13-25.2-6.13s15.027-14.135,20.942-15.288a10.921,10.921,0,1,1,4.255,21.418Z" transform="translate(-290.72 -117.505)" opacity="0.25"/><path d="M941.58,362.037c-5.7-1.971-18.65-18.011-18.65-18.011s20.086-4.6,25.8-2.626a10.92,10.92,0,1,1-7.149,20.638Z" transform="translate(-278.695 -131.243)" opacity="0.25"/><path d="M889.4,392.212c-5.951-.982-21.4-14.633-21.4-14.633s19.037-7.93,24.981-6.948a10.932,10.932,0,0,1-3.548,21.574Z" transform="translate(-264.629 -138.865)" opacity="0.25"/><path d="M947.3,283.513c-.007,6.033,10.936,23.538,10.936,23.538s10.928-17.482,10.928-23.508a10.921,10.921,0,1,0-21.834,0Z" transform="translate(-284.935 -113.613)" opacity="0.25"/><path d="M887.74,318.865c1.8,5.758,17.453,19.186,17.453,19.186s5.208-19.952,3.392-25.71a10.921,10.921,0,0,0-20.83,6.524Z" transform="translate(-269.588 -122.027)" opacity="0.25"/><path d="M834.953,362.441c.8,5.951,13.956,21.849,13.956,21.849s8.488-18.784,7.685-24.758a10.921,10.921,0,1,0-21.641,2.909Z" transform="translate(-256.132 -133.539)" opacity="0.25"/><path d="M835.44,373s4.955-51.063,34.459-78.217a77.793,77.793,0,0,0,24.059-42.88,130.4,130.4,0,0,0,2.15-23.806" transform="translate(-256.291 -102.284)" fill="none" stroke="#535461" stroke-miterlimit="10" stroke-width="2"/><path d="M934.621,199.778c-2.232,5.594-18.926,17.735-18.926,17.735s-3.586-20.3-1.331-25.9a10.924,10.924,0,1,1,20.257,8.183Z" transform="translate(-276.311 -91.094)" fill="#81d8d0"/><path d="M938.777,248.762c-4.932,3.467-25.517,4.6-25.517,4.6s8.02-19,12.952-22.467a10.921,10.921,0,1,1,12.565,17.854Z" transform="translate(-276.219 -102.393)" fill="#81d8d0"/><path d="M909.516,318.929c-6.011.506-24.356-8.927-24.356-8.927s16.515-12.349,22.526-12.855a10.922,10.922,0,0,1,1.83,21.767Z" transform="translate(-269.023 -119.978)" fill="#81d8d0"/><path d="M874.609,367.531c-5.84,1.488-25.509-4.664-25.509-4.664s14.187-14.96,20.026-16.478a10.921,10.921,0,1,1,5.483,21.142Z" transform="translate(-259.789 -132.561)" fill="#81d8d0"/><path d="M883.8,246.589c2.44,5.513,19.506,17.11,19.506,17.11s2.9-20.413.461-25.926a10.921,10.921,0,0,0-19.967,8.838Z" transform="translate(-268.462 -103.111)" fill="#81d8d0"/><path d="M843.515,302.761c3.98,4.531,23.724,10.467,23.724,10.467s-3.333-20.346-7.313-24.877a10.92,10.92,0,1,0-16.412,14.411Z" transform="translate(-257.664 -116.774)" fill="#81d8d0"/><path d="M813.073,364.288c3.154,5.133,21.611,14.321,21.611,14.321s.156-20.614-2.976-25.755a10.921,10.921,0,0,0-18.6,11.434Z" transform="translate(-250.201 -133.053)" fill="#81d8d0"/><path d="M784.44,149.363c1.235-4.531,2.723-9.083,3.764-13.673C786.955,140.28,785.459,144.848,784.44,149.363Z" transform="translate(-243.232 -78.381)" fill="url(#a)"/><path d="M641.984,173.118c-.1-.178-.179-.357-.26-.52h0c0-.074-.074-.134-.1-.208a4.676,4.676,0,0,1-.5.2c-.327.126-.662.245-1,.342s-.484.149-.744.208a4.345,4.345,0,0,1-.662.171l.059.134c.275-.059.543-.111.818-.186l.074.921c.312,0,.6-.045.885-.045a3.677,3.677,0,0,1,.4,0h1.488C642.282,173.8,642.118,173.452,641.984,173.118ZM793,413.161c-3.5-4.7-10.475-55.173-10.475-55.173s-13.726-35.888-9.984-50.21-10.222-50.968-10.222-50.968-9.225-4-9.723-9.947c0,0-37.665-11.886-39.428-20.8-1.428-7.31-24.788-12.554-33.179-14.211-2.559-10.311-5.133-19.931-7.03-25.183-.513-1.634-1-3.046-1.443-4.16-3.206-8.172-13.115-8.914-20.3-8.261a11.048,11.048,0,0,0-1.7-3.885,2.131,2.131,0,0,0-.677-1.033,3.945,3.945,0,0,0-.491-.357,2.348,2.348,0,0,0-.506-.639,3.577,3.577,0,0,0-.67-.475,4.47,4.47,0,0,0-.536-.245,7.161,7.161,0,0,0-1.332-.364,10.983,10.983,0,0,0-1.607-.208,9.782,9.782,0,0,0,3.43-2.5,7.137,7.137,0,0,0,1.406-2.585,7.6,7.6,0,0,0,.313-2.437,6.293,6.293,0,0,1-.67.958c.313-3.291-1.428-6.634-2.425-9.91a29.281,29.281,0,0,1-.655-13.112h0c1-6.582,3.467-13.238,5.141-19.939a.493.493,0,0,0,0-.111,51.7,51.7,0,0,0,1.622-10.17,44.826,44.826,0,0,0-4.344-20.161c-2.537-5.594-6.279-11.1-12.007-13.372-4.255-1.716-9.024-1.441-13.606-1.723-10.281-.639-20.086-4.249-29.861-7.533s-19.833-6.27-30.122-5.7-20.875,5.527-25.569,14.62c-1.488,2.838-2.343,5.995-4.121,8.662-3.333,5.029-9.3,7.548-14.276,11.017s-9.359,8.394-11.159,14.271a19.013,19.013,0,0,0-.4,9.769h0a17.466,17.466,0,0,0,.625,2.154,15.262,15.262,0,0,0,3.236,5.282,15.773,15.773,0,0,0,3.675,2.845h0a21.644,21.644,0,0,0,5.431,2.11c-.067.223-.134.461-.208.691-.119.379-.223.743-.335,1.151-.245.914-.476,1.842-.67,2.778a.871.871,0,0,0,0,.2,60.59,60.59,0,0,0-1.369,12.859,59.261,59.261,0,0,0,.312,6.121h0c2.976,30.146,27.9,53.925,58.689,55.47,1.056.052,2.12.082,3.2.082h1.488c.484.639.96,1.293,1.414,1.931s.87,1.293,1.265,1.931l-1.079-1.114h0l-1.079-.988a8.758,8.758,0,0,1-.975,1.122,18.119,18.119,0,0,0-2.15-.609h0a27.606,27.606,0,0,0-13.978.929c-5.691,1.7-12.647,5.2-20.785,11.849L503.435,247.65,481.98,260.68l-7.729,18.869s-5.81,22.42-12.275,48.108c-.253.074-.5.149-.744.238a13.923,13.923,0,0,0-1.577-.089,14.49,14.49,0,0,0-14.522,13.9c-12.855,15.6-13.584,31.2-10.564,38.362h0a10.22,10.22,0,0,0,1.027,1.909c1.979,2.853,5.676,10.207,9.426,18.044-.1.646-.156,1.189-.186,1.6a3.979,3.979,0,0,0,0,.4s2.232,33.659-5.208,43.309c-1.629,2.1-1.384,4.866,0,7.926h0c4.984,11.009,24.691,25.711,24.691,25.711s23.635-.126,36.8-1.56c-.037,1.322-.067,2.637-.1,3.922-.3,12.985-.3,23.868-.3,23.868l-.491,13.617s-4.464,28.7-6.7,36.609c-1.406,4.962.216,50.909,1.629,84.687H728.034c2.738-19.983-1.123-80.7-1.123-80.7s-3.668-15.7-3.8-29.38a.111.111,0,0,1,0-.1c0-1.2,0-2.362.045-3.506l1.689-.059,3.035-.1h.275s.074-.282.246-.743h0a14.2,14.2,0,0,1,1.629-3.246,8.066,8.066,0,0,1,6.361-3.907c1.681-.067,4.285-1.426,7.224-3.432a.133.133,0,0,0,.06,0c7.908-5.341,18.36-15.2,20.9-16.819,3.489-2.229,20.2-17.086,20.2-17.086s2.492-3.15,5.148-6.946l.1-.134c3.3-4.754,6.814-10.437,5.952-12.228-1.488-3.209,1-10.883,1-10.883C804.719,436.658,796.5,417.863,793,413.161ZM649.148,184.669a2.978,2.978,0,0,1,.134.683c-.186-.245-.372-.505-.558-.743l-.179-.238-.127-.178.283-.386v.052h0a2.574,2.574,0,0,1,.446.81Zm-2.5-6.582c-.811.163-1.451.312-1.867.423-.528-.936-1.034-1.872-1.488-2.823a21.565,21.565,0,0,1,3.355,2.4Zm-1.4,1.174a.16.16,0,0,1,0-.045l.06.045h0c.3.2.6.394.878.594h0c.246.178.469.349.692.527a7.113,7.113,0,0,1-.476.743c-.26-.409-.506-.8-.744-1.211A2.673,2.673,0,0,1,645.25,179.261Zm-4.464-9.167a22.047,22.047,0,0,1,4.322,0h0a3.276,3.276,0,0,1,.558.067h0a6.192,6.192,0,0,1,1.183.3,8.623,8.623,0,0,1,1.57,4.167l-.4.059-.394.074c-.744.126-1.488.253-2.068.371l-.744.156c-.989.215-1.562.379-1.584.386-.1-.2-.193-.386-.3-.579-.164-.319-.335-.646-.484-.966s-.342-.683-.5-1.018c-.1-.178-.178-.357-.26-.52h0c0-.074-.074-.134-.1-.208a1.782,1.782,0,0,1-.112-.245c-.454-.921-.87-1.842-1.272-2.749-.045-.089-.082-.186-.119-.275l.565-.037v.193ZM463.292,630.925a184.031,184.031,0,0,0-3.095-34.261c-.952-4.777-1.934-9.553-2.931-14.248-.253-1.174-.5-2.333-.744-3.491l-2.291.3h-.208c-6.249-29.425-12.781-55.351-12.781-55.351s-12.974-49.468-11.471-53.412c.193-.513-.052-1.894-.6-3.922-3.139-11.247-16.247-42.24-20.83-52.833h0a.417.417,0,0,0-.052-.134h0c-.744-1.775-1.279-2.971-1.443-3.321l1.079-15.808.06-.951.141-2.021-.059-.052.059-.936s-11.323-9.271-30.5-15.964c-.744-.267-1.533-.527-2.314-.78.96-6.4,2.232-13.617,3.891-20.652.156-.706.327-1.389.506-2.08h0c.156-.691.335-1.359.513-2.035.283-1.1.588-2.184.9-3.254,1.034-.327,2.053-.691,3.058-1.077l.387-.149a54.807,54.807,0,0,0,33.477-63.887h0a54.487,54.487,0,0,0-9.582-20.169h0c-.342-.461-.707-.921-1.071-1.374s-.8-.958-1.213-1.419c2.15-4.881,4.687-9.524,4.9-14.271a14.613,14.613,0,0,0,0-1.805h0V241.5c-.275-3.053-1.629-6.144-4.783-9.39-4.6-4.762-11.159-7.176-17.713-8.335s-13.235-1.189-19.826-1.969c-10.928-1.307-21.574-4.673-32.5-5.705a77.325,77.325,0,0,0-39.3,6.686c-8.131,3.714-16.366,10.207-16.857,19.114-.4,7.362,4.731,14.419,3.437,21.692-1.287,7.146-8.577,12.77-7.938,20a14.342,14.342,0,0,0,3.511,7.6h0c.625.743,1.287,1.486,1.971,2.229,2.648,2.8,5.565,5.49,7.045,9.018.06.149.119.3.171.446,1.257,3.484.692,7.889-2.418,9.888a.112.112,0,0,1,.037.052h0c.045.059.089.1.126.163a.051.051,0,0,0,0-.037,8.141,8.141,0,0,0,4.248,2.645l.632.193c-.513.557-1,1.137-1.488,1.746l-.32.423a30.935,30.935,0,0,0-2.232,3.454c-.379.669-.744,1.337-1.049,2.006a25.17,25.17,0,0,0-2.195,6.441c-.8,4.918.327,10.044-.878,14.857-1.488,5.943-6.2,10.5-8.853,16.024-5.029,10.4-2.18,22.605-1.168,34.09,1.376,15.6-.856,31.267-3.08,46.764q-1.77,12.361-3.541,24.745L257.179,528.5c-1.086,7.592-2.373,15.6-7.439,21.462h.052a.066.066,0,0,1-.052.06,15.568,15.568,0,0,0,4.791,1.233h0c6.614.661,13.621-2.533,19.573-6.025a92.506,92.506,0,0,0,13.339-9.353q-.915,3.343-1.964,7.273a.4.4,0,0,1,0,.074h0c-8.4,31.943-21.909,90.5-21.909,90.5s-1.228,2.548-2.82,6.344H470.538c-2.455-2.971-4.739-5.817-6.524-8.112ZM307.96,335.561c.052-.089.089-.171.141-.253v1.612h0a5.49,5.49,0,0,1-.119.914v.067l.744.275.863.357h0q7.648,3.016,15.489,5.46c.536.171,1.079.334,1.622.49l.112.921c.134.943.26,1.9.379,2.86v.074c.335,2.652.662,5.3.952,7.882,0,0-13.659-5.2-13.487,2.7a3.828,3.828,0,0,0,0,.423,3.509,3.509,0,0,0,0,.565c.126,6.151,2.053,9.8,2.44,11.67a.526.526,0,0,1-.119.208,4.058,4.058,0,0,0-.327,2.3,22.55,22.55,0,0,0,.312,3.967c-.4.245-.8.49-1.19.743h0c-.3.186-.58.394-.87.6a110.217,110.217,0,0,0-7.134-18.364c-2.046-4.2-4.345-8.588-4.322-13.2a7.44,7.44,0,0,1,.037-.906,15.582,15.582,0,0,1,.759-3.93c.171-.483.357-.958.565-1.426a34.964,34.964,0,0,1,1.629-3.254h0c.387-.7.8-1.389,1.19-2.087.126-.208.246-.424.365-.631ZM641.984,173.118c-.1-.178-.179-.357-.26-.52h0c0-.074-.074-.134-.1-.208a4.676,4.676,0,0,1-.5.2c-.327.126-.662.245-1,.342s-.484.149-.744.208l-.662.171.06.134c.275-.059.543-.111.818-.186l.074.921c.312,0,.6-.045.885-.045h1.89C642.282,173.8,642.118,173.452,641.984,173.118Z" transform="translate(-106.311 -58.66)" fill="url(#b)"/><path d="M546.949,358.248l-4.464,1.971S513.39,473.252,513.39,482.387s61.694,59.968,61.694,59.968l9.626-64.975S570.888,328.379,546.949,358.248Z" transform="translate(-173.824 -134.822)" fill="#e8f5ff"/><path d="M723.069,280.813l-25.777-13.45a51.636,51.636,0,0,0-7.558-17.222c-3.772-5.446-8.786-10.794-15.035-13.584-15.794-7.082,66.8-44.256,66.8-44.256a134.388,134.388,0,0,0,4.59,13.168c4.255,10.5,11.315,24.088,20.413,27.957C781.974,240.008,723.069,280.813,723.069,280.813Z" transform="translate(-214.616 -93.045)" fill="#ffc1c7"/><path d="M746.094,205.468a61.583,61.583,0,0,1-56.36,44.673c-3.772-5.446-8.786-10.794-15.035-13.584-15.794-7.082,66.8-44.256,66.8-44.256a134.364,134.364,0,0,0,4.59,13.168Z" transform="translate(-214.616 -93.035)" opacity="0.1"/><path d="M732.11,163.59A61.255,61.255,0,1,1,714.167,120,61.548,61.548,0,0,1,732.11,163.59Z" transform="translate(-198.312 -69.769)" fill="#ffc1c7"/><path d="M697.538,238.149l-16.783,39.16L665.95,303.3H618.562L604.74,267.764l5.6-36.854h36.192l23.367-1.317,7.893-2.633,5.088,2.886Z" transform="translate(-154.856 -58.391)" fill="#575a89"/><path d="M764.669,230.48s10.467,2.232,1.094,9.917S724.05,272.52,724.05,272.52s11.36,10.117,9.009,21.968l37.635-20.979,6.7-33.566S778.141,229.855,764.669,230.48Z" transform="translate(-227.768 -102.852)" opacity="0.1"/><path d="M723.184,287l-23.94,3.95s4.94,18.263,2.47,23.449a3.468,3.468,0,0,0-.186.5l-9.768,26.4,7.32,20.733,25.338-34.555L715.782,314.4s9.128-12.1,14.559-16.292S723.184,287,723.184,287Z" transform="translate(-219.499 -117.405)" opacity="0.1"/><path d="M723.184,285.63l-23.94,3.943s4.94,18.263,2.47,23.449a3.47,3.47,0,0,0-.186.5l-9.768,26.4,7.32,20.733,25.338-34.578L715.781,313s9.128-12.1,14.559-16.292S723.184,285.63,723.184,285.63Z" transform="translate(-219.499 -117.053)" fill="#dce6f2"/><path d="M765.673,227.83s10.467,2.232,1.086,9.917-42.709,34.094-42.709,34.094,12.342,8.146,10,19.989l37.635-20.971,6.7-33.566S779.123,227.205,765.673,227.83Z" transform="translate(-227.768 -102.17)" fill="#575a89"/><path d="M688.3,273.18s2.284,4.27,12.364,11.97c0,0-16.783,8.927-10.363,21.477l-25.673-6.7-3.95-12.342Z" transform="translate(-211.54 -113.83)" opacity="0.1"/><path d="M686.975,271.86s2.284,4.27,12.364,11.97c0,0-16.783,8.883-10.363,21.47l-25.666-6.7-3.95-12.334Z" transform="translate(-211.202 -113.49)" fill="#575a89"/><path d="M754.478,297.8l-16.783,39.16L722.92,362.956H675.5L661.68,327.418l5.594-36.854H677.34c-.164,8.6,2.976,18.7,2.775,22.459-.342,6.175,9.21,39.488,9.21,39.488s19.989-32.331,27.882-35.21c4.962-1.808,15.474-16.85,22.608-27.8Z" transform="translate(-211.797 -118.048)" opacity="0.1"/><path d="M792.651,498.818l-1.7,2.143s12.342,61.947,8.927,76.015a39.947,39.947,0,0,0-.989,7.722v.112c-.6,14.313,3.72,32.889,3.72,32.889s3.452,54.753,1.488,77.272H573.013c-1.354-33.3-2.812-76.439-1.488-81.222,2.232-7.893,6.7-36.527,6.7-36.527l.491-13.569s0-13.115.4-27.726c.171-6.569.424-13.465.789-19.58.469-7.692,1.123-14.172,2.023-17.356a38.272,38.272,0,0,0,.952-7.35,3.8,3.8,0,0,1,.045-.707c0-.744.074-1.547.1-2.373v-.744c.141-4.791.089-10.475-.067-16.366v-.975c-.126-4.419-.312-8.927-.521-13.212-.647-13.391-1.488-24.713-1.488-24.713L552.57,338.516l7.648-18.836,21.224-13,39.242-23.694c19.141-15.734,31.744-13.844,36.549-12.119a12.692,12.692,0,0,1,1.369.558c.149.074.268.134.379.2a3.155,3.155,0,0,1,.439.253h0a9.063,9.063,0,0,0-3.333,2.745,12.141,12.141,0,0,0-2.061,4.464,20.753,20.753,0,0,0-.528,3.043c-.1,1.079-.134,2.195-.134,3.318A57.565,57.565,0,0,0,654,292.8v.164c.246,1.741.551,3.444.848,5.044a.334.334,0,0,0,0,.082c.342,1.867.684,3.593.915,5.081.045.268.082.513.119.744a17,17,0,0,1,.231,2.976,36.156,36.156,0,0,0,.967,7.142c.193.982.417,2.031.662,3.124.335,1.488.7,3.11,1.094,4.761.216.908.446,1.845.685,2.775.089.372.186.744.275,1.123l.149.588c1.585,6.3,3.3,12.572,4.359,16.366.625,2.232,1.019,3.608,1.019,3.608s11.2-18.115,20.146-28.426c.134-.149.253-.29.379-.424.885-1.019,1.756-1.949,2.589-2.767a15.292,15.292,0,0,1,4.776-3.586,5.2,5.2,0,0,0,.811-.38c3.66-2.075,9.567-9.612,15.094-17.5.543-.744,1.071-1.555,1.607-2.321,1.227-1.771,2.418-3.549,3.541-5.252.863-1.3,1.689-2.566,2.47-3.772,3.72-5.788,6.338-10.1,6.338-10.1l5.163-.231.9-.045h.6l23.441-1.086s1.012.171,2.678.506a.476.476,0,0,1,.275.059c8.317,1.652,31.424,6.881,32.837,14.135,1.726,8.882,39,20.733,39,20.733.491,5.951,9.619,9.872,9.619,9.872s13.822,36.527,10.125,50.84c-3.653,14.135,9.507,49.1,9.857,50.081h0l-2.522,3.184Z" transform="translate(-183.857 -113.537)" fill="#e8f5ff"/><path d="M767.857,226.459s22.816-6.472,28,6.852,16.783,67.132,16.783,67.132-30.114,5.676-38.007,0a22.742,22.742,0,0,0-16.047-4.2l-17.028,11.6-5.029-1.488s27.243-40.5,33.164-54.262S777.617,232.18,767.857,226.459Z" transform="translate(-230.963 -101.428)" opacity="0.1"/><path d="M766.537,222.459s22.831-6.472,28.039,6.852,16.783,67.132,16.783,67.132-30.107,5.676-38.007,0a22.72,22.72,0,0,0-16.039-4.2l-17.043,11.6-5.029-1.488s27.243-40.5,33.164-54.262S776.3,228.195,766.537,222.459Z" transform="translate(-230.633 -100.399)" fill="#e8f5ff"/><path d="M571.348,511.55s17.029,4.2,20.242,13.822S579,535.244,579,535.244,569.377,518.216,571.348,511.55Z" transform="translate(-188.597 -175.129)" opacity="0.1"/><path d="M645.162,607.09s-41.7,85.4-32.078,93.542S645.162,607.09,645.162,607.09Z" transform="translate(-198.983 -199.923)" opacity="0.1"/><path d="M734,522.5s33.321,82.948,26.655,95.759,14.313,0,14.313,0Z" transform="translate(-230.316 -178.028)" opacity="0.1"/><path d="M766.866,632.64s-112.542,5.431-79.712,40.477,100.2,1.488,100.2,1.488Z" transform="translate(-216.783 -206.31)" fill="#ffc1c7"/><path d="M732.82,163.593a61.255,61.255,0,0,1-4.664,23.523c-1.034.119-2.068.193-3.065.238-1.488-3.266-.692-7.038-.662-10.631s-1.294-7.819-4.754-8.786c-6.9-1.942-11.657,10.951-18.457,8.622-5.208-1.771-3.846-9.671-6.844-14.231-2.373-3.608-7.127-4.627-10.824-6.889-7.863-4.828-7.625-12.55-11.278-19.855-3.824-7.655-11.9-5.393-18.918-.878-5.327,3.437-9.924,8.042-15.623,10.78a38.646,38.646,0,0,1-15.943,3.37,35.032,35.032,0,0,1-10-1.056,61.545,61.545,0,0,1,121.022,15.794Z" transform="translate(-199.021 -69.772)" opacity="0.1"/><path d="M648.995,123.525c-5.334,3.437-9.924,8.034-15.622,10.787a38.759,38.759,0,0,1-15.942,3.363c-6.7.149-13.9-1.027-18.479-5.862-4.2-4.464-5.207-11.33-3.43-17.185s6.041-10.713,11.047-14.231,10.817-5.951,14.135-10.988c1.756-2.663,2.6-5.8,4.062-8.637,4.664-9.068,15.154-13.978,25.294-14.588s20.19,2.41,29.846,5.684,19.387,6.874,29.579,7.551c4.538.283,9.255,0,13.465,1.718,5.661,2.3,9.374,7.8,11.9,13.391a44.77,44.77,0,0,1,4.3,20.086c-.625,14.707-10.341,29.14-6.071,43.23,1.131,3.757,3.251,7.61,2.12,11.367-1.652,5.483-8.726,6.733-14.447,6.993-1.488-3.266-.692-7.045-.662-10.631s-1.295-7.819-4.746-8.786c-6.9-1.927-11.665,10.943-18.449,8.622-5.17-1.778-3.831-9.671-6.837-14.231-2.373-3.615-7.134-4.627-10.824-6.889-7.863-4.828-7.625-12.55-11.278-19.855C664.1,116.74,656.018,119,648.995,123.525Z" transform="translate(-194.64 -60.562)" fill="#99607e"/><path d="M516.866,520.076l-5.676,1.979s2.232,33.566-5.207,43.193,24.431,33.559,24.431,33.559,43.684-.245,44.918-3.72-2.232-62.192-2.232-62.192-23.449-9.135-21.477-23.694c0,0-7.157,34.3-17.765,32.822S511.2,531.682,516.866,520.076Z" transform="translate(-171.639 -174.591)" fill="#e8f5ff"/><ellipse cx="14.975" cy="13.696" rx="14.975" ry="13.696" transform="translate(349.185 350.465)" opacity="0.1"/><path d="M550.358,499.842s-2.976-90.819-28.879-70.584-26.157,44.435-21.224,51.584S521,523.781,521,523.781h0a18.1,18.1,0,0,0,26.781-11.9Z" transform="translate(-169.823 -153.273)" fill="#ffc1c7"/><path d="M716.372,215.1a2.187,2.187,0,0,0-.669-1.027c-1.28-1.168-4.032-1.577-8.183-1.22l.171,1.964c5.535-.476,6.628.625,6.77.811v.186l.171.245a8.3,8.3,0,0,1,1.488,6.547c-1.213,6.063-8.659,10.891-8.734,10.943l-.178.1-.112.171c-3.214,4.769-21.388,18.226-26.142,21.708l-.417-.476c-2.128,1.845-20.83,18.219-21.842,24.49-.655,3.935-5.089,5.46-6.7,5.884-1.7-1.287-7.2-5.669-10.065-10.579-2.686-4.62,8.124-13.636,9.076-17.155l-1.488-1.525c-.156.565-14.038,13.539-10.177,20.168,3.095,5.319,8.749,9.872,10.727,11.375-.632,5.743-4.568,39.465-10.616,47.455-7.514,9.931-13.83,59.983-13.13,77.458.617,15.526-3.437,44.851-16.977,57.446a21.7,21.7,0,0,1-17.906,5.951h-.327c-.194,0-19.833,2.009-36.334-11.9-13.5-11.36-21.15-29.9-22.742-55.118h-.327l-.134-7.343a14.321,14.321,0,1,0-2.135.171h.164l.134,7.3-.655.045c1.637,26.037,9.671,45.3,23.806,57.193a55.051,55.051,0,0,0,38.394,12.565,27.657,27.657,0,0,0,2.976.164,24.4,24.4,0,0,0,17.11-6.881c14.261-13.279,18.6-43.684,17.921-59.737-.744-18.516,5.884-66.768,12.535-75.553,6.517-8.622,10.467-42.218,11.159-48.727,2.358-.662,7.692-2.752,8.6-8.183.655-3.928,13.145-16.032,20.83-22.734l-.231-.268c4.136-3.02,17-12.543,23.374-18.658,1.979-1.9,3.943-3.794,6-5.6,2.47-2.187,5.609-5.661,6.435-9.768A10.154,10.154,0,0,0,716.372,215.1Z" transform="translate(-174.249 -98.411)" opacity="0.1"/><path d="M692.042,301.863c-.312-.216-7.722-5.52-11.434-11.9-3.854-6.628,10.028-19.6,10.177-20.161l1.488,1.525c-.945,3.511-11.754,12.535-9.069,17.148,3.385,5.825,10.512,10.921,10.586,10.973Z" transform="translate(-216.47 -112.96)" fill="#353146"/><path d="M736.361,256.639l-1.161-1.6c.238-.171,23.6-17.073,27.287-22.541l.119-.164.171-.112c.074-.052,7.521-4.873,8.734-10.943a8.25,8.25,0,0,0-1.488-6.539l-.171-.253v-.179c-.149-.193-1.242-1.287-6.777-.811l-.171-1.971c4.159-.357,6.9.052,8.183,1.22a2.231,2.231,0,0,1,.677,1.034,10.162,10.162,0,0,1,1.681,7.893c-.826,4.114-3.958,7.588-6.435,9.768-2.046,1.808-4.017,3.72-5.989,5.6C753.545,244.208,737.179,256.051,736.361,256.639Z" transform="translate(-230.623 -97.945)" fill="#e8f5ff"/><rect width="1.971" height="11.985" transform="translate(354.398 300.566) rotate(-1.05)" fill="#e8f5ff"/><circle cx="14.395" cy="14.395" r="14.395" transform="translate(339.841 273.582)" fill="#81d8d0"/><circle cx="11.955" cy="11.955" r="11.955" transform="translate(342.282 276.022)" fill="#e8f5ff"/><path d="M597.836,492.374a27.623,27.623,0,0,1-2.976-.156,55.132,55.132,0,0,1-38.394-12.565c-14.135-11.9-22.154-31.141-23.806-57.2l2.976-.186c1.592,25.219,9.24,43.765,22.749,55.118,16.5,13.874,36.133,11.9,36.326,11.9h.327a21.745,21.745,0,0,0,17.914-5.951c13.532-12.595,17.586-41.92,16.969-57.446-.744-17.49,5.572-67.541,13.093-77.465,6.584-8.7,10.668-47.894,10.713-48.288l.112-1.116,1.1-.193c.067,0,6.494-1.22,7.3-6.026,1.042-6.264,19.714-22.638,21.834-24.49l1.942,2.232c-7.715,6.7-20.205,18.807-20.83,22.742-.907,5.446-6.241,7.529-8.592,8.183-.744,6.517-4.664,40.105-11.159,48.727-6.651,8.786-13.279,57.037-12.535,75.553.64,16.054-3.653,46.466-17.914,59.738A24.409,24.409,0,0,1,597.836,492.374Z" transform="translate(-178.758 -112.703)" fill="#353146"/><g transform="translate(400.677 53.016)" opacity="0.1"><path d="M783,156.444c1.22-4.508,2.693-9.046,3.72-13.614C785.492,147.42,784.012,151.936,783,156.444Z" transform="translate(-643.54 -133.226)"/><path d="M722.55,188.564c-1.488-3.266-.692-7.045-.662-10.631s-1.294-7.782-4.746-8.786c-6.9-1.927-11.665,10.951-18.45,8.622-5.207-1.778-3.831-9.671-6.837-14.231-2.373-3.615-7.127-4.627-10.817-6.889-7.871-4.828-7.633-12.55-11.278-19.855-3.831-7.662-11.9-5.4-18.926-.878-5.334,3.437-9.924,8.042-15.622,10.787a38.759,38.759,0,0,1-15.943,3.363c-6.658.156-13.9-1.027-18.479-5.862-3.526-3.72-4.8-9.173-4.069-14.283-.126.35-.238.7-.35,1.049-1.785,5.855-.744,12.736,3.43,17.185,4.575,4.836,11.821,6.011,18.479,5.862a38.793,38.793,0,0,0,15.95-3.363c5.713-2.753,10.3-7.35,15.622-10.787,7.023-4.523,15.1-6.785,18.926.878,3.645,7.305,3.415,15.027,11.278,19.855,3.72,2.232,8.444,3.273,10.824,6.889,2.976,4.575,1.659,12.453,6.837,14.231,6.777,2.321,11.538-10.549,18.442-8.622,3.452.967,4.784,5.208,4.746,8.786s-.811,7.365.662,10.631c5.721-.26,12.8-1.488,14.455-6.993a8.01,8.01,0,0,0,.312-2.433C733.917,187.262,727.7,188.333,722.55,188.564Z" transform="translate(-595.536 -129.92)"/></g><path d="M904.781,426.3l8.637,9.135s6.911,50.342,10.363,55.051,11.605,23.441,3.95,37.509c0,0-2.47,7.655-.989,10.861s-11.1,19.253-11.1,19.253-16.538,14.8-20,17.028-21.715,19.99-27.882,20.235-8.183,7.9-8.183,7.9l-34.8,1.235s-19.223-1-23.4,1.711c0,0,2.232-29.37-19.245-48.623l27.391-9.872s10.37-4.464,13.577-9.128a16.762,16.762,0,0,1,8.183-6.167s7.648-5.431,7.893-8.392,9.351-6.591,9.351-6.591l-5.156-44,2.715-73.054s8.637-61.211,26.9-57.751S904.781,426.3,904.781,426.3Z" transform="translate(-242.64 -131.889)" opacity="0.1"/><path d="M908.781,426.3l8.637,9.135s6.911,50.342,10.363,55.051,11.605,23.441,3.95,37.509c0,0-2.462,7.655-.982,10.861s-11.107,19.253-11.107,19.253-16.537,14.8-20,17.028-21.716,19.99-27.883,20.235-8.183,7.9-8.183,7.9l-34.8,1.235s-19.238-1-23.4,1.711c0,0,2.232-29.37-19.245-48.623l27.391-9.872s10.37-4.464,13.577-9.128a16.761,16.761,0,0,1,8.183-6.167s7.648-5.431,7.893-8.392,9.351-6.591,9.351-6.591l-5.155-44,2.715-73.054s8.637-61.211,26.9-57.751S908.781,426.3,908.781,426.3Z" transform="translate(-243.664 -131.889)" fill="#e8f5ff"/><path d="M907.84,553.462s25.42-6.7,32.086,1.488S907.84,553.462,907.84,553.462Z" transform="translate(-274.831 -185.229)" opacity="0.1"/><path d="M899.88,569.44c8.637,6.048,35.292,6.294,35.292,6.294Z" transform="translate(-272.793 -190)" opacity="0.1"/><path d="M917.46,610.08c.744.245,18.323,19.007,25.7,13.331S917.46,610.08,917.46,610.08Z" transform="translate(-277.294 -200.458)" opacity="0.1"/><path d="M599.22,398.42s5.163,35.545,2.619,50.022,6.74,32.413,6.74,32.413Z" transform="translate(-195.802 -146.079)" opacity="0.1"/><path d="M421.284,415.521c-5.951,4.664-10.3,15.7-13.443,27.838-5.49,21.165-7.283,45.707-7.283,45.707S353.17,478.2,356.622,473.272c2.172-3.1-.744-26.476-3.177-43.423-1.451-10.013-2.745-17.787-2.745-17.787S437.576,402.681,421.284,415.521Z" transform="translate(-132.164 -148.736)" fill="#ffccd0"/><path d="M421.284,414.192c-5.951,4.672-10.3,15.7-13.443,27.838a54.679,54.679,0,0,1-54.4-13.5c-1.451-10.021-2.745-17.795-2.745-17.795S437.576,401.359,421.284,414.192Z" transform="translate(-132.164 -148.361)" opacity="0.1"/><path d="M442.083,361.919a54.813,54.813,0,1,1-12.059-34.28A54.813,54.813,0,0,1,442.083,361.919Z" transform="translate(-127.49 -122.605)" fill="#ffccd0"/><path d="M531.6,821.454H515.973l-1.317-27.592L513.28,765.3s3.549-.528,9.2-1.317l2.284-.3h.186c1.235,5.8,2.455,11.747,3.63,17.69a181.784,181.784,0,0,1,3.043,31.989v2.187C531.67,817.533,531.625,819.519,531.6,821.454Z" transform="translate(-173.796 -240.021)" opacity="0.1"/><path d="M466.431,751.113H270.51c.848-1.927,1.413-3.095,1.413-3.095s15.675-68.575,23.642-97.589a.378.378,0,0,0,0-.074,116.047,116.047,0,0,1,3.6-11.643h0a4,4,0,0,1,.35-.744c3.943-6.413,8.883-13.324,1.971-23.2s-4.464-53.31-4.464-53.31,8.391-37.025,17.274-56.769a26.558,26.558,0,0,1,5.639-8.183,23.053,23.053,0,0,1,2.47-2.1h0a21.7,21.7,0,0,1,2.068-1.376l.141-.089a29.846,29.846,0,0,1,12.148-3.772,34.666,34.666,0,0,1,9.113.253,136.017,136.017,0,0,1,35.1,9.671c24.84,10.913,32.361,25.539,32.51,25.844h0l.059.126c1,2.328,15.578,36.371,20.83,52.254,1.361,4.136,2.105,7.045,1.808,7.841-1.488,3.943,11.352,53.3,11.352,53.3s5.951,23.806,11.9,51.711c.26,1.16.506,2.321.744,3.5,1.064,5.066,2.12,10.229,3.139,15.384a180.846,180.846,0,0,1,3.043,32.212Q466.528,746.322,466.431,751.113Z" transform="translate(-111.629 -169.681)" fill="#ff748e"/><path d="M353.4,465.84s-13.517-5.207-13.354,2.693,3.3,11.68,2.306,12.833.491,8.064.491,8.064,18.263,0,26.655,3.779,39.324,11.352,43.274,13.659,18.6,12.647,18.6,12.647l1.317-19.58s-15.139-12.505-39.979-18.918S353.4,465.84,353.4,465.84Z" transform="translate(-129.436 -162.967)" opacity="0.1"/><path d="M353.4,464.51s-13.517-5.207-13.354,2.693,3.3,11.68,2.306,12.833.491,8.064.491,8.064,18.263,0,26.655,3.787,39.324,11.352,43.274,13.651,18.6,12.647,18.6,12.647l1.332-19.521s-15.139-12.505-39.979-18.918S353.4,464.51,353.4,464.51Z" transform="translate(-129.436 -162.625)" fill="#ff748e"/><path d="M412.85,528.43s25.829,27.964,24.512,35.709S412.85,528.43,412.85,528.43Z" transform="translate(-148.078 -179.482)" opacity="0.1"/><path d="M439.02,741.85s-10.036,20.406-4.6,19.089S439.02,741.85,439.02,741.85Z" transform="translate(-153.188 -234.431)" fill="none"/><path d="M347.445,664.22s-18.933,17.445-24.513,18.435,4.278,4.278,10.69,1.651,20.086-9.537,20.086-9.537Z" transform="translate(-124.631 -214.389)" opacity="0.1"/><path d="M517.837,820.849H473.685c-6.175-5.356-12.014-10.318-15.734-13.3-5.951-4.776-10.244-11.806-12.982-17.46-.617-1.287-1.153-2.492-1.607-3.586a59.828,59.828,0,0,1-2.143-5.766l32.7-19.416A51.115,51.115,0,0,1,479,766.289l.394.454c1.815,2.142,3.415,4.575,3.556,6.569.164,2.321,6.621,11.3,13.22,19.922,6.7,8.771,13.555,17.155,14.008,17.72h0s1.131,1.54,2.976,3.906C514.452,816.572,516.059,818.625,517.837,820.849Z" transform="translate(-155.343 -239.417)" fill="#ffccd0"/><path d="M430.033,327.648a31.891,31.891,0,0,0-3.184,11.159c-.588,11.382.365,36.832-12.238,42.545-6.242,2.812-12.922-3.363-19.766-3.511-4.925-.1-9.44,3.02-12.446,6.926s-4.873,8.54-7.053,12.959a88.518,88.518,0,0,1-6.837,11.531,29.026,29.026,0,0,1-2.529,3.191,54.8,54.8,0,1,1,64.052-84.771Z" transform="translate(-127.5 -122.612)" opacity="0.1"/><path d="M405.764,328.979c-.6,11.382.365,36.832-12.245,42.538-6.242,2.812-12.922-3.355-19.766-3.5-4.925-.112-9.433,3.02-12.446,6.919s-4.865,8.54-7.052,12.967a88.7,88.7,0,0,1-6.837,11.531c-1.533,2.172-3.229,4.352-5.587,5.572-4.106,2.143-9.083.937-13.487-.439q-8.57-2.7-16.887-6.085a17.029,17.029,0,0,0,.194-2.529c-.164.312-.342.6-.521.915l-.35.61c-.632,1.116-1.25,2.232-1.815,3.377-.216.439-.424.893-.61,1.347a17.112,17.112,0,0,0-1.391,5.327c-.379,4.962,2.068,9.671,4.24,14.135,8.354,17.267,13.517,37.457,7.231,55.572-2.723,7.878-7.439,14.879-10.884,22.489A72.66,72.66,0,0,0,302.47,542.7c1.718,9.016,5.163,17.944,4.315,27.086-1.488,15.734-15.057,27.444-28.649,35.493-7.343,4.33-16.329,8.183-24.126,4.761,4.969-5.8,6.249-13.83,7.32-21.4q4.4-30.985,8.816-62,1.763-12.342,3.519-24.684c2.187-15.459,4.4-31.089,3.035-46.644-1-11.464-3.809-23.635,1.16-34.012,2.626-5.5,7.305-10.05,8.763-15.972,1.2-4.813.082-9.931.87-14.834a25.248,25.248,0,0,1,2.172-6.428,31.579,31.579,0,0,1,4.984-7.6c-1.994-.58-3.854-1.376-4.984-3.043,3.2-2.083,3.682-6.777,2.232-10.3s-4.352-6.212-6.963-8.994-5.126-6.026-5.453-9.82c-.632-7.224,6.584-12.818,7.856-19.945,1.287-7.253-3.8-14.306-3.392-21.648.476-8.875,8.63-15.325,16.679-19.067a75.881,75.881,0,0,1,38.893-6.7c10.846,1.027,21.343,4.382,32.16,5.684,6.524.744,13.138.818,19.617,1.964s12.974,3.563,17.534,8.317C420.851,305.448,406.449,315.766,405.764,328.979Z" transform="translate(-107.404 -115.3)" fill="#ffe0d0"/><path d="M413.774,734.89c-3.794-1.644-10.7-.662-22.549-4.27s-14.135-19.915-14.135-19.915v-.052h0c-.141-.372-1.242-2.8-8.7-11.293-8.235-9.381-26.038-56.762-26.038-56.762s-15.786-16.954-15.288-23.2-2.8-22.876-2.477-41.474,35.538-30.933,35.538-30.933c67.794-12.015,51.83,66.143,50.022,72.064s7.573,21.916,7.573,21.916c-1.324,6.963,5.431,17.743,5.431,17.743s1.637,9.537,1.971,13.16a2.238,2.238,0,0,0,.112.491c1.086,3.415,9.939,6.509,13.54,8.392,3.787,1.979,15.965,19.253,15.965,19.253C457.369,712.691,417.554,736.557,413.774,734.89Z" transform="translate(-125.472 -184.212)" opacity="0.1"/><path d="M416.427,730.9c-3.787-1.652-10.7-.662-22.541-4.278s-14.135-19.908-14.135-19.908v-.052h0c-.134-.379-1.242-2.8-8.7-11.293-8.235-9.381-26.038-56.769-26.038-56.769s-15.786-16.947-15.3-23.2-2.8-22.876-2.47-41.459,35.515-30.91,35.515-30.91c67.794-12.014,51.829,66.143,50.022,72.064s7.573,21.916,7.573,21.916c-1.324,6.963,5.431,17.743,5.431,17.743s1.637,9.537,1.979,13.16a1.87,1.87,0,0,0,.1.491c1.086,3.415,9.939,6.509,13.547,8.391,3.779,1.972,15.965,19.253,15.965,19.253C460.029,708.719,420.213,732.584,416.427,730.9Z" transform="translate(-126.153 -183.2)" fill="#ff748e"/><path d="M376.8,598.32s29.616,31.245,37.345,31.245S376.8,598.32,376.8,598.32Z" transform="translate(-138.847 -197.452)" opacity="0.1"/><path d="M434.506,774.48c-3.787-1.652-10.7-.662-22.541-4.277s-14.135-19.908-14.135-19.908v-.052h0c7.848-5.208,27.726-19.915,35.56-25.294,5.513-3.772,10.013-9.314,12.647-12.989,1.086,3.415,9.939,6.509,13.547,8.392,3.779,1.971,15.965,19.253,15.965,19.253C478.107,752.3,438.292,776.161,434.506,774.48Z" transform="translate(-144.232 -226.777)" fill="#ff748e"/><g transform="translate(146.606 175.619)" opacity="0.1"><path d="M302,406.622c.037.059.089.112.134.171.223-.283.454-.565.692-.833a5.55,5.55,0,0,1-.826.662Z" transform="translate(-266.299 -324.039)"/><path d="M306.97,447.348c.313-4.129,2.522-7.767,4.59-11.4-1.354-.521-2.708-1.049-4.047-1.6a16.866,16.866,0,0,0,.193-2.522c-2.09,3.72-4.367,7.38-4.687,11.568-.379,4.969,2.068,9.671,4.24,14.135,8.362,17.259,13.517,37.449,7.231,55.572-2.73,7.871-7.439,14.879-10.884,22.489a72.63,72.63,0,0,0-5.074,42.977c1.7,9.024,5.155,17.944,4.307,27.086-1.488,15.734-15.05,27.444-28.649,35.485-5.557,3.288-12.052,6.3-18.263,6.085a22.485,22.485,0,0,1-1.919,2.641c7.8,3.445,16.783-.431,24.126-4.776,13.606-8.034,27.2-19.714,28.686-35.478.848-9.143-2.6-18.062-4.315-27.086a72.689,72.689,0,0,1,5.059-42.977c3.422-7.6,8.183-14.618,10.884-22.489,6.286-18.122,1.123-38.312-7.231-55.571C309.053,457,306.591,452.318,306.97,447.348Z" transform="translate(-254.01 -330.663)"/><path d="M428.588,297.923a21.492,21.492,0,0,0-2.351-2.083c9.016,11.695-4,21.633-4.65,34.221-.58,11.382.372,36.839-12.238,42.538-6.234,2.82-12.922-3.355-19.759-3.5-4.932-.1-9.44,3.028-12.453,6.926s-4.865,8.54-7.045,12.959a89.1,89.1,0,0,1-6.844,11.531,16.322,16.322,0,0,1-5.594,5.579c-4.092,2.135-9.069.937-13.48-.446q-6.435-2.023-12.751-4.464a16.083,16.083,0,0,1-.193,2.314q8.325,3.392,16.895,6.085c4.4,1.384,9.381,2.581,13.48.446,2.358-1.227,4.069-3.407,5.594-5.587a87.634,87.634,0,0,0,6.837-11.523c2.187-4.419,4.032-9.069,7.052-12.967s7.521-7.023,12.446-6.919c6.844.149,13.532,6.323,19.766,3.5,12.61-5.7,11.65-31.156,12.238-42.538C426.222,320.762,440.625,310.451,428.588,297.923Z" transform="translate(-273.784 -295.84)"/></g><path d="M323.063,432.527c-.632,1.116-1.25,2.232-1.815,3.378-.216.439-.424.893-.61,1.346-3.9-3.928-13.391-13.264-18.687-16.158a31.724,31.724,0,0,1,4.984-7.6S319.559,420.163,323.063,432.527Z" transform="translate(-119.68 -149.91)" opacity="0.1"/><path d="M323.412,431.238c-2.924-13.234-16.478-20.4-16.478-20.4a31.576,31.576,0,0,0-4.984,7.6c5.587,3.058,15.883,13.309,19.3,16.783Z" transform="translate(-119.68 -149.229)" fill="#ff748e"/></g></svg>