<svg xmlns="http://www.w3.org/2000/svg" xmlns:xlink="http://www.w3.org/1999/xlink" width="439.993" height="323.062" viewBox="0 0 439.993 323.062"><defs><linearGradient id="a" x1="0.5" y1="1.198" x2="0.5" y2="-0.168" gradientUnits="objectBoundingBox"><stop offset="0" stop-color="gray" stop-opacity="0.251"/><stop offset="0.535" stop-color="gray" stop-opacity="0.122"/><stop offset="1" stop-color="gray" stop-opacity="0.102"/></linearGradient><linearGradient id="b" x1="0.5" y1="1" x2="0.5" y2="0" xlink:href="#a"/></defs><g transform="translate(-0.019 0.176)"><path d="M31.514.006,315.73,1.8c17.512.111,31.8,14.136,31.909,31.326l.941,146.163c.111,17.19-14,31.036-31.508,30.925l-284.216-1.8c-17.512-.111-31.8-14.136-31.909-31.326L.006,30.931C-.1,13.741,14-.1,31.514.006Z" transform="translate(0.012 103.253) rotate(-17.261)" fill="url(#a)"/><path d="M31.521.006,308.745,1.8c17.518.113,31.812,14.139,31.925,31.328l.916,138.773c.113,17.189-14,31.031-31.514,30.917L32.847,201.025C15.329,200.912,1.035,186.886.922,169.7L.006,30.924C-.107,13.735,14-.107,31.521.006Z" transform="translate(5.12 103.941) rotate(-17.261)" fill="#fff"/><rect width="335.149" height="28.906" transform="translate(12.752 129.654) rotate(-17.261)" fill="#81d8d0"/><rect width="85.155" height="12.5" transform="translate(80.515 251.969) rotate(-17.261)" fill="#bdbdbd"/><rect width="147.653" height="12.5" transform="translate(74.434 231.95) rotate(-17.261)" fill="#e0e0e0"/><rect width="344.058" height="209.16" rx="27.5" transform="translate(95.954 113.726)" fill="url(#b)"/><rect width="335.149" height="201.558" rx="27.5" transform="translate(99.86 115.859)" fill="#fff"/><rect width="9.765" height="27.734" transform="translate(175.4 214.09)" fill="#e0e0e0"/><rect width="9.765" height="27.734" transform="translate(188.107 214.09)" fill="#e0e0e0"/><rect width="9.765" height="27.734" transform="translate(200.814 214.09)" fill="#e0e0e0"/><rect width="9.765" height="27.734" transform="translate(223.052 214.09)" fill="#e0e0e0"/><rect width="9.765" height="27.734" transform="translate(235.759 214.09)" fill="#e0e0e0"/><rect width="9.765" height="27.734" transform="translate(248.466 214.09)" fill="#e0e0e0"/><rect width="9.765" height="27.734" transform="translate(270.704 214.09)" fill="#e0e0e0"/><rect width="9.765" height="27.734" transform="translate(283.411 214.09)" fill="#e0e0e0"/><rect width="9.765" height="27.734" transform="translate(296.118 214.09)" fill="#e0e0e0"/><rect width="9.765" height="27.734" transform="translate(318.356 214.09)" fill="#e0e0e0"/><rect width="9.765" height="27.734" transform="translate(331.063 214.09)" fill="#e0e0e0"/><rect width="9.765" height="27.734" transform="translate(343.77 214.09)" fill="#e0e0e0"/><rect width="58.225" height="31.93" transform="translate(116.298 169.249)" fill="#81d8d0"/><rect width="35.686" height="35.686" transform="translate(347.509 273.376)" fill="#81d8d0" opacity="0.1"/><rect width="35.686" height="35.686" transform="translate(365.352 273.376)" fill="#81d8d0" opacity="0.1"/></g></svg>