<svg xmlns="http://www.w3.org/2000/svg" xmlns:xlink="http://www.w3.org/1999/xlink" width="528" height="366.616" viewBox="0 0 528 366.616"><defs><linearGradient id="a" x1="0.5" y1="1" x2="0.5" gradientUnits="objectBoundingBox"><stop offset="0" stop-color="gray" stop-opacity="0.251"/><stop offset="0.54" stop-color="gray" stop-opacity="0.122"/><stop offset="1" stop-color="gray" stop-opacity="0.102"/></linearGradient></defs><g transform="translate(0.004 0.003)"><path d="M264.259,387.753c-5.23,5.288-5.549,13.394-5.549,13.394s8.1-.46,13.311-5.753S277.575,382,277.575,382,269.468,382.476,264.259,387.753Z" transform="translate(-173.211 -217.502)" fill="#81d8d0" opacity="0.1"/><path d="M309.1,130.137c1.846,7.191,8.619,11.663,8.619,11.663s3.781-7.181,1.935-14.372-8.619-11.658-8.619-11.658S307.232,122.951,309.1,130.137Z" transform="translate(-197 -90.102)" fill="#81d8d0" opacity="0.1"/><path d="M889.344,175.808c-5.23,5.288-5.554,13.394-5.554,13.394s8.107-.46,13.316-5.753,5.549-13.4,5.549-13.4S894.553,170.547,889.344,175.808Z" transform="translate(-471.368 -115.993)" fill="#81d8d0" opacity="0.1"/><path d="M589.573,310.939c-.607,7.4,4.325,13.839,4.325,13.839s5.926-5.549,6.532-12.95S596.105,298,596.105,298,590.18,303.539,589.573,310.939Z" transform="translate(-331.005 -177.332)" fill="#81d8d0" opacity="0.1"/><path d="M917.633,509.244c-.607,7.4,4.325,13.839,4.325,13.839s5.926-5.549,6.532-12.944-4.325-13.839-4.325-13.839S918.24,501.849,917.633,509.244Z" transform="translate(-487.486 -272.183)" fill="#81d8d0" opacity="0.1"/><path d="M402,116.939c-33.849-1.017-66.087-10.428-96.872-20.751s-61.276-21.736-94.314-27.2c-21.25-3.514-45.554-4.009-62.672,5.819-16.48,9.453-21.8,25.777-24.665,40.923-2.155,11.392-3.42,23.384,2.479,34.051,4.1,7.409,11.37,13.634,16.4,20.725,17.505,24.687,5.131,55.126-13.834,79.25-8.891,11.309-19.221,22.091-26.088,34.13s-10.042,25.824-4.032,38.1c5.952,12.169,20.141,21.309,35.512,27.738,31.218,13.035,67.991,16.794,103.875,18.911,79.408,4.692,159.235,2.659,238.853.626,29.466-.751,59.058-1.512,88.043-5.443,16.1-2.179,32.714-5.641,44.4-14,14.833-10.615,18.509-28.587,8.567-41.9-16.673-22.32-62.761-27.868-74.429-51.825-6.412-13.186.173-27.873,9.5-40.1,20-26.236,53.519-49.255,55.282-79.25,1.213-20.595-14.9-41.221-39.817-50.965-26.114-10.219-62.332-8.931-81.589,7.977C466.753,111.131,431.889,117.831,402,116.939Z" transform="translate(-95.23 -66.69)" fill="#ce4e4d" opacity="0.1"/><path d="M628.406,225.632a4.7,4.7,0,0,0-3.211,2.822l-.523-.083-1.951-.313s-10.335-.85-12.265-.72a3.861,3.861,0,0,1-3.138-1.768l-7.683-6.484-.6-.522c.832-.313,1.349-.475,1.349-.475s-20.617-25.559-25.063-26.055-11.794-6.463-11.867-6.52l-.078-.407c-.162-.861-.282-1.732-.371-2.608l1.093.668h0a8.774,8.774,0,0,1,.031-.908h0a16.476,16.476,0,0,1,3.075-8.763c2.15-2.973,5.329-5.31,6.6-8.737a12.6,12.6,0,0,0,.675-4.585,15.251,15.251,0,0,0-2.144-7.975,9.99,9.99,0,0,0-6.747-4.642c-.732-.115-1.48-.13-2.2-.3-4.294-1.007-5.873-6.75-10.047-8.158a8.483,8.483,0,0,0-5.988.589c-1.878.814-3.577,1.982-5.413,2.885s-3.917,1.565-5.586,2.843a5.83,5.83,0,0,0-.523.449h0l-.329.318h0a11.812,11.812,0,0,0-1.783,2.321l-.078.13c-.052.089-.1.183-.146.276s-.078.146-.11.219-.084.167-.12.25l-.11.25-.094.24c-.031.089-.068.177-.094.271s-.052.151-.073.23l-.078.276-.047.224a1.839,1.839,0,0,1-.052.287.924.924,0,0,0,0,.209v.965a3.168,3.168,0,0,0,.094.454h0a9.114,9.114,0,0,0,2,2.8c-.084.078-.167.151-.251.235a18.16,18.16,0,0,0-5.581,13.1,17.893,17.893,0,0,0,.3,3.239,17.436,17.436,0,0,0-3.049-1.841,26.674,26.674,0,0,0-11.344-2.608c-6.407-.073-15.408-2.472-15.408-2.472a6.092,6.092,0,0,1,.523,1.382c-.392-.224-.816-.464-1.281-.715a37.631,37.631,0,0,0-12.029-4.016s-2.667.37-3.023-5.216a23.629,23.629,0,0,0-.941-5.148,87.541,87.541,0,0,1-3.169-15.648l-.894-8.2s4.027-21.386,1.606-30.5c.779-2.858.34-5.477-2.228-7.36-10.131-7.438-20.35,21.511-20.35,21.511l-3.8,3.677a8.162,8.162,0,0,0-3.222-1.226s-2.045,2.086-3.468,7.782c-.753,3.02-5.9,8.064-10.554,12.127-3.305,2.885-6.5,5.884-9.681,8.893-2.354,2.232-7.6,5.425-19.043,7.23-1.794.282-3.426.548-4.916.793a15.259,15.259,0,0,0,.575-4.142,15.543,15.543,0,0,0-12.217-15.09,3.882,3.882,0,0,0,0-1.1,4.556,4.556,0,0,0-1.156-2.086c-2.411-2.973-5.026-6.03-8.614-7.438a11.245,11.245,0,0,0-4.65-.746h-1.276a11.924,11.924,0,0,0-8.713,4.528c-1.287,1.716-2.061,3.75-3.169,5.581a24.866,24.866,0,0,1-8.666,8.069c-2.066,1.247-4.236,2.321-6.187,3.735-7.076,5.127-10.34,14.605-8.562,23.076.784,3.719,2.442,7.381,2,11.152-.35,2.926-1.93,5.555-3.541,8.038s-3.316,5.007-3.954,7.882.031,6.259,2.448,8a19.311,19.311,0,0,1,2.725,1.815,8.71,8.71,0,0,1,1.255,1.961,19.563,19.563,0,0,0,12.17,9.431,8.914,8.914,0,0,0,2.49.271h.251c1.919.12,3.886-.391,4.529-2.086a4.731,4.731,0,0,1,.434-1.106,1.3,1.3,0,0,1,.758-.522,6.978,6.978,0,0,1,1.773.668,22.6,22.6,0,0,0,8.619,2.457,12.165,12.165,0,0,0,1.511.026,6.7,6.7,0,0,0,3.081-.438,6.6,6.6,0,0,0,2.369-2.024c.136-.172.262-.355.392-.522a43.063,43.063,0,0,1-3.86,12s-3.138,5.216-2.913,10.474a10.5,10.5,0,0,0,1.177,5.529s.089-.23.272-.589c.9,1.5,3.849,6.306,5.784,7.991.094,4.961.073,11.173-.549,12.451-1.046,2.186-4.351,17.735,9.864,28.339l3.279,7.162-13.5.955c-1.365-.188-19.017-2.556-19.106.892-.089,3.583,2.667,38.479,11.82,36.116,8.53-2.2,5.716-12.378,5.293-13.744l.3-.083-.335-.094,6.825-6.452a3.009,3.009,0,0,0-.523-2.238l.068-.036,16.485.735,3.876,8.4s6.574,9.973,1.245,18.366-10.842,21.516-11.731,29.476c-.727,6.51-5.56,12.9-7.291,15.012-3.091,1.043-14.948,5.686-10.214,12.712,5.418,8.043,23.012,23.353,30.125,22.826s4.263-5.686,4.263-5.686l-5.947-5.748s-1.046-12.247-.622-15.831a3.689,3.689,0,0,0-2.615-3.771c.56-3.99,1.977-11.554,5.021-15.732,4.263-5.863,17.95-31.662,17.95-31.662s4.351-3.85,3.373-15.3c-.392-4.621-.612-8.68-.737-11.888l15.492.694s16.616-1.664,5.329-19.42S412.3,256.678,412.3,256.678l-.214-10.99c1.088.271,1.726.407,1.726.407s-.094-.4-.251-1.106l.251.057a238.069,238.069,0,0,1-4.535-26.863l.978.449c10.309,11.9,17.259,1.841,17.259,1.841s21.773-30.525,19.639-29.127a1.856,1.856,0,0,1-1.433.089l1.569-4.987s6.428-9.8-2.9-15.3c-7.615-4.5-7.416,9.6-7.087,14.923l-.377-.318s-7.285,10.954-11.2,17.057-7.2,2.086-7.2,2.086l-4.942-5.555a19.467,19.467,0,0,0,1.177-6.948,11.786,11.786,0,0,0-3.342-9.013c-3.771-3.834-4.874-7.548-4.99-10.406a10.992,10.992,0,0,1,.989-4.288l25.685-13.562s5.418.083,12.7-11.11a192.221,192.221,0,0,1,15.554-20.463s-.152-.219-.413-.579c.262-.308.413-.475.413-.475s-.3-.433-.805-1.1l3.959-4.554a58.254,58.254,0,0,0-.047,6.181l2.05,6.911,1.151,38.479s-1.245,3.651,6.757,7.35c6.768,3.13,17.489,8.346,20.617,9.885-.115.282-.183.433-.183.433l.931-.063.136.063h0c15.633-1.4,15.1,14.167,15.1,14.167s1.046,31.662-3.729,42.684-4.09,24.662-4.09,24.662.476-2.326,3.138.715c-.052.266-.11.553-.173.85-1.527,7.631-4.707,23.864-5.3,30.447a106.426,106.426,0,0,1-3.467,17.735l-1.569,29.122,9.995.485-.11,1.043a3.275,3.275,0,0,1-1.695,2.54c-3.42,1.852-11.506,8.346-10.858,28.386l-.345,3.224a40.42,40.42,0,0,1-4.88,15.549c-.23.407-.434.8-.607,1.174a.959.959,0,0,1,.272-.558s-5.193,1.074-4.127,15.069,2.667,16.441,4.8,16.613,12.552,2.712,11.993-2.446-1.046-16.619-.356-18.366,3.525-6.463.837-7.6h0a39.874,39.874,0,0,0,1.124-9.806s5.23-8.221,8.97-11.282,5.753-8.262,7.108-14.955c.094-.438,11.02-7.7,9.414-13.729-.282-1.043-.486-1.966-.643-2.8-.068-.37-.125-.72-.178-1.043h.193l2.223-13.3v12.946l1.318.172-.047,1.043-.56,12.414a20.391,20.391,0,0,1-1.569,7.031c-2.354,5.555-6.695,17.923-5.513,31.3l-.125,11.924c-.377.073-5.805,1.351-4.775,14.866,1.046,13.99,2.662,16.441,4.8,16.613s12.552,2.712,12-2.446-1.046-16.619-.356-18.366,1.935-6.369-.753-7.506a9.972,9.972,0,0,1,1.119-4.5c1.172-1.987,5.084-11.434,8.028-18.7a66.776,66.776,0,0,0,4.943-23.123q0-.133,0-.266a21.628,21.628,0,0,1,1.7-7.788,50.123,50.123,0,0,0,2.845-8.56c.073-.349.131-.688.183-1.043l2.552.339,8.713-37.608s2.385-20.385,1.219-29.591c-.047-.381-.1-.73-.162-1.069l.523.047s1.778-4.543,1.245-23.963,3.557-25.559,3.557-25.559c2.207-6.979,4.644-9.316,6.067-10.1h0a2.573,2.573,0,0,1,1.219-.4l6.6,7.527h0l1.213,1.387a.443.443,0,0,0,0-.083l.523.61a5.6,5.6,0,0,1-.042-.934c3.52,2.04,11.653,6.807,16.506,10.229,6.328,4.46,8.065,3.938,13.6,3.474,3.358-.276,7.9-2.154,10.941-3.583l.277-.13a13.378,13.378,0,0,0,2.573,1.043s8.933,7.548,9.8-6.228S628.406,225.632,628.406,225.632ZM396.713,386.059a12.936,12.936,0,0,1-2.615-1.1ZM382.728,236.941l.031,1.956-.136.063C382.665,238.271,382.7,237.593,382.728,236.941ZM522.444,411.535v.762A.557.557,0,0,1,522.444,411.535Z" transform="translate(-209.431 -77.136)" fill="url(#a)"/><rect width="15.167" height="15.952" transform="translate(326.361 105.192)" fill="#ff7590"/><path d="M656.087,599.34c-1.334,6.668-3.311,11.851-6.972,14.906s-8.8,11.245-8.8,11.245c-.089,10.894-2.965,14.2-2.965,14.2l-2.965.784H627.06a36.235,36.235,0,0,1-1.569-5.837,6.848,6.848,0,0,1,1.151-3.253,40.753,40.753,0,0,0,4.786-15.5l.34-3.217c-.617-19.963,7.322-26.443,10.654-28.29a3.264,3.264,0,0,0,1.658-2.531h0l.591-5.706,19.7.968s-.418,1.736.329,5.753c.152.832.356,1.757.628,2.788C666.892,591.668,656.171,598.9,656.087,599.34Z" transform="translate(-348.157 -310.452)" fill="#8e5362"/><path d="M721.357,587.385a50.77,50.77,0,0,1-2.788,8.53,21.906,21.906,0,0,0-1.674,7.761v.267a67.558,67.558,0,0,1-4.848,23.044c-2.892,7.238-6.726,16.658-7.877,18.64-1.914,3.311-.784,8.891-.784,8.891l-11.088-.784.194-18.656c-1.156-13.321,3.1-25.627,5.408-31.187a20.44,20.44,0,0,0,1.569-7l.523-12.374.162-3.661s19.6-2.788,21.255,1.658A9.41,9.41,0,0,1,721.357,587.385Z" transform="translate(-380.028 -312.482)" fill="#8e5362"/><path d="M681.638,582.871,661,581.856l.591-5.706,19.717.968S680.874,578.849,681.638,582.871Z" transform="translate(-365.099 -310.342)" opacity="0.1"/><path d="M728.37,587.385,707,584.514l.162-3.661s19.6-2.788,21.255,1.658A9.347,9.347,0,0,1,728.37,587.385Z" transform="translate(-387.041 -312.18)" opacity="0.1"/><path d="M708.828,477.2l-8.541,37.484-25.277-3.4v-12.9l-2.186,13.258L642.49,510.16l1.569-29.027a107.664,107.664,0,0,0,3.4-17.693c.591-6.559,3.7-22.735,5.2-30.335.523-2.505.816-4.085.816-4.085s51.956,10.805,55.355,14.728a8.271,8.271,0,0,1,1.2,3.98C711.166,456.891,708.828,477.2,708.828,477.2Z" transform="translate(-356.27 -240.091)" fill="#bdd2e8"/><path d="M653.33,517.821s20.45-10.722,25.434-8.457Z" transform="translate(-361.441 -278.254)" opacity="0.1"/><path d="M674.66,458.82s17,12.9,17.521,16.386Z" transform="translate(-371.615 -254.241)" opacity="0.1"/><path d="M665.83,543.79s12.291-.523,16.213,2.615Z" transform="translate(-367.403 -294.844)" opacity="0.1"/><path d="M706.49,517.44s5.842,19.121,3.311,24.351-5.141-1.224-5.141-1.224Z" transform="translate(-385.925 -282.294)" opacity="0.1"/><path d="M688.061,708s-5.753.873-4.707,14.817,2.615,16.391,4.707,16.564,12.291,2.7,11.768-2.442-1.046-16.558-.35-18.305,1.9-6.344-.737-7.479l-.57,2.688s-5.581-5.146-8.891-1.4a14.488,14.488,0,0,0-.685-2.683C688.265,708.947,687.543,708.523,688.061,708Z" transform="translate(-375.701 -373.542)" fill="#494457"/><path d="M852.558,360.014s-1.318.737-3.253,1.658c-2.986,1.423-7.437,3.295-10.732,3.572-5.429.46-7.129.983-13.337-3.462-4.765-3.41-12.74-8.164-16.213-10.193l-1.511-.894-.152-.089v-.063l2.882-7.918,10.2-5.424,2.531,2.171,7.537,6.459a3.762,3.762,0,0,0,3.075,1.763c1.9-.131,12.029.716,12.029.716l1.914.314,4.032.669Z" transform="translate(-434.912 -196.083)" fill="#8e5362"/><path d="M887.325,370.445s-1.318.737-3.253,1.658c-2.045-1.046-4.587-3.007-3.609-6.234.884-2.9,1.125-5.167,1.851-6.8l4.032.669Z" transform="translate(-469.678 -206.529)" opacity="0.1"/><path d="M886.431,353.51s11.375-3.269,10.528,10.46-9.613,6.213-9.613,6.213-7.453-1.961-5.884-7.129S882.576,354.755,886.431,353.51Z" transform="translate(-470.154 -203.713)" fill="#8e5362"/><path d="M626.49,188.945l-11.851,4.979-.183.078-.131-.063-.737-.371c-3.065-1.527-13.6-6.752-20.225-9.853-7.845-3.661-6.626-7.322-6.626-7.322l-1.13-38.352-2.008-6.888s-1.417-23.347,9.937-29.2,4.011,33.818,4.011,33.818l.879,8.243a88.268,88.268,0,0,0,3.112,15.57,24.188,24.188,0,0,1,.92,5.131c.35,5.575,2.965,5.2,2.965,5.2a36.406,36.406,0,0,1,11.789,4.006,29.484,29.484,0,0,1,3.9,2.469Z" transform="translate(-328.152 -83.23)" fill="#8e5362"/><path d="M737.1,279.651,726.99,278.6a38.863,38.863,0,0,0,4.294-8.75,14.855,14.855,0,0,0,.445-1.8,6.02,6.02,0,0,0-.554-4.44c-2.96-4.357,17.61-10.46,17.61-10.46a50.247,50.247,0,0,0-.225,7.259,36.729,36.729,0,0,0,.523,5.026c.622,3.384,1.862,6.569,4.226,8.2C759.767,278.082,737.1,279.651,737.1,279.651Z" transform="translate(-396.576 -155.879)" fill="#8e5362"/><path d="M737.1,290.855l-10.115-1.046a38.863,38.863,0,0,0,4.294-8.75c1.166,1.658,1.569,1.621,3.206,1.951,0,0,10.209,1.512,14.6-6.37.622,3.384,1.862,6.569,4.226,8.2C759.767,289.286,737.1,290.855,737.1,290.855Z" transform="translate(-396.576 -167.106)" opacity="0.1"/><path d="M809.068,351.588a5.6,5.6,0,0,0,.042.931l-1.569-1.825-.131-.152,2.882-7.918,10.2-5.424,2.531,2.171C819.4,340.756,809.23,345.155,809.068,351.588Z" transform="translate(-434.936 -196.071)" opacity="0.1"/><path d="M653.73,255.107l-11.851,4.979h-.314l-.915.063s.068-.152.178-.434c.988-2.4,5.575-14.121,3.593-19.644a29.48,29.48,0,0,1,3.9,2.469Z" transform="translate(-355.393 -149.619)" opacity="0.1"/><path d="M719.3,447.708c-4.613-.413-50.763-4.681-55.068-11.475a23.861,23.861,0,0,0-2.3-3.138c.523-2.505.816-4.085.816-4.085S714.7,439.815,718.1,443.738A8.161,8.161,0,0,1,719.3,447.708Z" transform="translate(-365.543 -239.986)" opacity="0.1"/><path d="M694.265,265.493s10.319,1.527,14.681-6.491c0,0,7.285,5.983,11.642,6.5s24.581,25.973,24.581,25.973S728.956,296.7,730,305.07l-7.672-8.891s-3.834-.178-7.144,10.46c0,0-4.011,6.1-3.489,25.45s-1.219,23.886-1.219,23.886-50.91-4.357-55.439-11.506-5.23-3.661-5.23-3.661-.7-13.6,4.006-24.581,3.661-42.536,3.661-42.536.523-15.518-14.817-14.121c0,0,6.449-14.995,3.488-20.748,0,0,8.823,2.4,15.11,2.469a25.847,25.847,0,0,1,11.13,2.615,12.345,12.345,0,0,1,4.618,3.483c2.96,4.184,7.845,2.27,7.845,2.27a79.193,79.193,0,0,0,4.55,11.156c.2.382.408.758.617,1.119a17.142,17.142,0,0,0,.931,1.475C692.2,265.2,692.56,265.154,694.265,265.493Z" transform="translate(-356.351 -149.098)" fill="#ff7590"/><path d="M752.123,260.379a17.9,17.9,0,0,1-1.851,2.223,18.248,18.248,0,0,1-13.075,5.513,18.781,18.781,0,0,1-1.888-.094,6.02,6.02,0,0,0-.554-4.44c-2.96-4.357,17.61-10.46,17.61-10.46A50.25,50.25,0,0,0,752.123,260.379Z" transform="translate(-400.14 -155.857)" opacity="0.1"/><path d="M741.271,229.125a18.237,18.237,0,1,1-5.341-12.964A18.305,18.305,0,0,1,741.271,229.125Z" transform="translate(-385.925 -135.637)" fill="#8e5362"/><path d="M792,325.8l.377,12.249s5.465-4.4,5.638-8.588S792,325.8,792,325.8Z" transform="translate(-427.585 -190.607)" opacity="0.1"/><path d="M707.66,349.24s14.383,19.744,22.751,21.747S710.8,355.642,707.66,349.24Z" transform="translate(-387.356 -201.836)" opacity="0.1"/><path d="M736.83,353.17s8.018,9.059,13.771,10.188Z" transform="translate(-401.27 -203.705)" opacity="0.1"/><path d="M682.83,396.82s14.644,14.383,23.012,15.256Z" transform="translate(-375.512 -224.586)" opacity="0.1"/><path d="M746.231,229.123A18.237,18.237,0,0,1,741,241.916l-2.008-1.25a5.555,5.555,0,0,1-1.956-1.7c-.664-1.109-.471-2.5-.418-3.792.11-2.735-.643-5.7-2.782-7.406-3.468-2.777-9.027-1.24-12.552-3.964a12.374,12.374,0,0,1-2.223-2.474l-3.305-4.43c-.2-.262-.439-.523-.7-.832a18.305,18.305,0,0,1,31.14,13.075Z" transform="translate(-390.885 -135.632)" opacity="0.1"/><path d="M715.242,194.973a32.852,32.852,0,0,1,5.476-2.829c1.841-.921,3.468-2.092,5.309-2.877a8.361,8.361,0,0,1,5.879-.591c4.1,1.407,5.643,7.129,9.854,8.133.711.167,1.443.183,2.16.293a9.833,9.833,0,0,1,6.616,4.629,15.408,15.408,0,0,1,2.092,7.955,12.744,12.744,0,0,1-.664,4.566c-1.245,3.415-4.367,5.753-6.475,8.708a16.559,16.559,0,0,0-3.028,9.67l-5.1-3.175a5.5,5.5,0,0,1-1.956-1.7c-.664-1.109-.471-2.5-.418-3.792.11-2.735-.643-5.7-2.777-7.406-3.473-2.777-9.032-1.24-12.552-3.964a12.376,12.376,0,0,1-2.223-2.474l-3.305-4.43c-.717-.962-2.092-2.16-2.406-3.332C711.021,199.837,713.4,196.39,715.242,194.973Z" transform="translate(-389.232 -124.899)" fill="#362133"/><path d="M737.916,235.311a5.5,5.5,0,0,1-1.956-1.7c-.664-1.109-.471-2.5-.418-3.792.11-2.735-.643-5.7-2.782-7.406-3.468-2.777-9.027-1.24-12.552-3.964a12.373,12.373,0,0,1-2.223-2.474l-3.305-4.43c-.722-.962-2.092-2.16-2.406-3.332-.57-2.019.873-4.65,2.416-6.334-1.731,1.6-3.63,4.639-2.986,6.9.335,1.172,1.689,2.369,2.406,3.332l3.305,4.43a12.374,12.374,0,0,0,2.223,2.474c3.509,2.725,9.069,1.187,12.552,3.964,2.134,1.71,2.887,4.67,2.777,7.406-.052,1.292-.246,2.683.418,3.792a5.5,5.5,0,0,0,1.956,1.7l5.1,3.175a8.67,8.67,0,0,1,.031-.9Z" transform="translate(-389.223 -131.361)" opacity="0.1"/><path d="M623.249,682.94s-5.094,1.046-4.048,15.016,2.615,16.391,4.707,16.564,12.291,2.7,11.768-2.443-1.046-16.558-.35-18.305,3.457-6.438.821-7.573l-2.129,2.782s-5.58-5.146-8.891-1.4C625.127,687.584,622.03,684.159,623.249,682.94Z" transform="translate(-345.094 -361.588)" fill="#494457"/><path d="M633.23,699.5c1.1.523,2.134,1.161,3.232,1.684a7.254,7.254,0,0,0,3.509.826,2.446,2.446,0,0,0,1.433-.5" transform="translate(-351.853 -369.487)" opacity="0.1"/><path d="M697.33,725.62a17.772,17.772,0,0,0,1.9,1.867,6.626,6.626,0,0,0,3.661.758,1.484,1.484,0,0,0,.628-.078,1.527,1.527,0,0,0,.56-.523l.685-.884" transform="translate(-382.428 -381.946)" opacity="0.1"/><path d="M532.752,266.017s-2.354-22.312,6.8-16.82,2.85,15.251,2.85,15.251l-2.15,6.888Z" transform="translate(-303.797 -153.57)" fill="#ffc1c7"/><path d="M561,120.469l5.23-5.136s10.026-28.854,19.963-21.443S573.6,120.04,573.6,120.04l-5.973,6.972Z" transform="translate(-317.4 -79.085)" fill="#ffc1c7"/><path d="M414.422,361.453l-.262,5.926s4.8,8.368,6.8,8.98,1.831-17.7,1.831-17.7Z" transform="translate(-247.359 -206.338)" fill="#ff5374"/><path d="M414.422,361.453l-.262,5.926s4.8,8.368,6.8,8.98,1.831-17.7,1.831-17.7Z" transform="translate(-247.359 -206.338)" opacity="0.1"/><path d="M334.76,284.87l.356,21.841H359.43L357.6,293.986Z" transform="translate(-159.68 -136.256)" fill="#ffc1c7"/><path d="M438.369,455.82l1.135,6.972,14.21,31.558s6.449,9.937,1.219,18.305S444.3,534.1,443.426,542.028s-7.756,15.69-7.756,15.69l14.995,6.365s1.046-12.463,5.23-18.305,17.6-31.553,17.6-31.553,4.273-3.839,3.316-15.256-.873-19.44-.873-19.44l-1.48-18.216Z" transform="translate(-257.619 -252.964)" fill="#575988"/><path d="M438.369,455.82l1.135,6.972,14.21,31.558s6.449,9.937,1.219,18.305S444.3,534.1,443.426,542.028s-7.756,15.69-7.756,15.69l14.995,6.365s1.046-12.463,5.23-18.305,17.6-31.553,17.6-31.553,4.273-3.839,3.316-15.256-.873-19.44-.873-19.44l-1.48-18.216Z" transform="translate(-257.619 -252.964)" opacity="0.1"/><path d="M427.4,648.82s-16.041,4.88-10.722,12.9,22.578,23.274,29.55,22.751,4.184-5.669,4.184-5.669l-5.842-5.753s-1.046-12.2-.607-15.774-4.969-5.23-5.669-3.138S427.4,648.82,427.4,648.82Z" transform="translate(-248.042 -345.155)" fill="#c4747b"/><path d="M440.161,375.58l-12.714,1.407a4.561,4.561,0,0,0-4.059,4.65c.136,5.084.225,13.169-.486,14.644-1.046,2.181-4.268,17.7,9.676,28.242l18.917,6.015-30.335,2.181.962,16.825,4.707-2.615,57.531,2.615s16.3-1.658,5.23-19.351-34.6-35.042-34.6-35.042l-.261-13.776-1.747-4.006Z" transform="translate(-250.698 -214.499)" fill="#575988"/><path d="M487.66,478.905a16.339,16.339,0,0,1,13.075,0Z" transform="translate(-282.418 -263.175)" opacity="0.1"/><path d="M406.826,483.759s-18.739-2.7-18.828.873,2.615,38.352,11.6,36,5.141-13.86,5.141-13.86l6.715-6.449s.7-3.572-3.75-3.227Z" transform="translate(-234.879 -265.734)" fill="#c4747b"/><path d="M479.991,288.453l7.406,8.457s3.227,4.011,7.061-2.092,10.983-17,10.983-17,7.934,6.972,10.026,5.581S496.2,312.433,496.2,312.433s-6.8,10.021-16.914-1.831l-2.96-1.4Z" transform="translate(-277.013 -167.688)" fill="#ff5374"/><path d="M479.991,288.453l7.406,8.457s3.227,4.011,7.061-2.092,10.983-17,10.983-17,7.934,6.972,10.026,5.581S496.2,312.433,496.2,312.433s-6.8,10.021-16.914-1.831l-2.96-1.4Z" transform="translate(-277.013 -167.688)" opacity="0.1"/><circle cx="15.429" cy="15.429" r="15.429" transform="translate(164.892 55.83)" fill="#ffc1c7"/><path d="M426.6,182.488s-13.258,6.276-11.689,17.259a242.844,242.844,0,0,1,1.831,24.843s6.02,8.891-1.961,25.889c0,0-5.1,8.63-1.7,14.906,0,0,3.771-9.937,13.52-2.615s25.444,10.722,25.444,10.722-8.107-35.565-3.138-40.533c0,0,8.63-12.814.785-20.92s-3.923-15.69-3.923-15.69l25.193-13.509s5.314.084,12.463-11.072a192.122,192.122,0,0,1,15.256-20.4s-5.408-8.107-10.46-8.719c0,0-2.008,2.092-3.4,7.761-.743,3.007-5.79,8.033-10.356,12.087-3.243,2.877-6.37,5.863-9.493,8.891-2.312,2.223-7.458,5.4-18.682,7.2C427.823,181.536,426.6,182.488,426.6,182.488Z" transform="translate(-246.288 -102.924)" opacity="0.1"/><path d="M426.6,180.488s-13.258,6.276-11.689,17.259a242.844,242.844,0,0,1,1.831,24.843s6.02,8.891-1.961,25.889c0,0-5.1,8.63-1.7,14.906,0,0,3.771-9.937,13.52-2.615s25.444,10.722,25.444,10.722-8.107-35.565-3.138-40.533c0,0,8.63-12.814.785-20.92s-3.923-15.69-3.923-15.69l25.193-13.509s5.314.084,12.463-11.072a192.12,192.12,0,0,1,15.256-20.4s-5.408-8.107-10.46-8.719c0,0-2.008,2.092-3.4,7.761-.743,3.007-5.79,8.033-10.356,12.087-3.243,2.877-6.37,5.863-9.493,8.891-2.312,2.223-7.458,5.4-18.682,7.2C427.823,179.536,426.6,180.488,426.6,180.488Z" transform="translate(-246.288 -101.97)" fill="#ff5374"/><path d="M461.83,342.49s10.282,15.167,10.544,17.782C472.379,360.272,470.81,343.97,461.83,342.49Z" transform="translate(-270.097 -198.604)" opacity="0.1"/><path d="M436,244.82s7.17,8.63,17.531,1.4A22.223,22.223,0,0,1,436,244.82Z" transform="translate(-257.776 -151.881)" opacity="0.1"/><path d="M396.828,162.744a4.629,4.629,0,0,0-1.13-2.092c-2.364-2.965-4.932-6.009-8.452-7.416a11.684,11.684,0,0,0-13.331,3.8c-1.266,1.705-2.019,3.734-3.112,5.56a24.662,24.662,0,0,1-8.5,8.044c-2.024,1.24-4.158,2.312-6.067,3.719-6.94,5.11-10.146,14.555-8.4,23.012.769,3.7,2.4,7.354,1.956,11.114-.34,2.918-1.893,5.533-3.468,8.012s-3.253,4.99-3.881,7.845.031,6.24,2.4,7.971a19.95,19.95,0,0,1,2.673,1.81,8.687,8.687,0,0,1,1.229,1.956,19.231,19.231,0,0,0,11.94,9.414c2.249.591,5.267.377,6.088-1.8a4.708,4.708,0,0,1,.424-1.1c.743-1.046,2.38-.46,3.53.141a21.857,21.857,0,0,0,8.436,2.422,7.034,7.034,0,0,0,3.457-.413,6.386,6.386,0,0,0,2.327-2.014c2.751-3.583,3.541-8.264,4.011-12.756a29.8,29.8,0,0,0-.037-8.787c-.889-4.634-3.708-8.964-3.29-13.661.445-5.021,4.519-9.126,5.141-14.121a10.769,10.769,0,0,0-1.836-7.421,10.613,10.613,0,0,1-1.4-2.186,2.17,2.17,0,0,1,.418-2.4,3.661,3.661,0,0,1,1.088-.523c3.363-1.292,5.157-4.66,5.4-8.107a18.011,18.011,0,0,1,.361-3.787C395.385,167,397.126,164.846,396.828,162.744Z" transform="translate(-213.045 -107.62)" opacity="0.1"/><path d="M394.828,162.744a4.629,4.629,0,0,0-1.13-2.092c-2.364-2.965-4.932-6.009-8.452-7.416a11.684,11.684,0,0,0-13.331,3.8c-1.266,1.705-2.019,3.734-3.112,5.56a24.662,24.662,0,0,1-8.5,8.044c-2.024,1.24-4.158,2.312-6.067,3.719-6.94,5.11-10.146,14.555-8.4,23.012.769,3.7,2.4,7.354,1.956,11.114-.34,2.918-1.893,5.533-3.468,8.012s-3.253,4.99-3.881,7.845.031,6.24,2.4,7.971a19.95,19.95,0,0,1,2.673,1.81,8.687,8.687,0,0,1,1.229,1.956,19.231,19.231,0,0,0,11.94,9.414c2.249.591,5.267.377,6.088-1.8a4.707,4.707,0,0,1,.424-1.1c.743-1.046,2.38-.46,3.53.141a21.856,21.856,0,0,0,8.436,2.422,7.034,7.034,0,0,0,3.457-.413,6.386,6.386,0,0,0,2.327-2.014c2.751-3.583,3.541-8.264,4.011-12.756a29.8,29.8,0,0,0-.037-8.787c-.889-4.634-3.708-8.964-3.29-13.661.445-5.021,4.519-9.126,5.141-14.121a10.769,10.769,0,0,0-1.836-7.421,10.609,10.609,0,0,1-1.4-2.186,2.17,2.17,0,0,1,.418-2.4,3.661,3.661,0,0,1,1.088-.523c3.363-1.292,5.157-4.66,5.4-8.107a18.011,18.011,0,0,1,.361-3.787C393.385,167,395.126,164.846,394.828,162.744Z" transform="translate(-212.091 -107.62)" fill="#bb7684"/><g transform="translate(147.947 44.858)" opacity="0.1"><path d="M381.714,324.171a4.932,4.932,0,0,0-.429,1.1,3.5,3.5,0,0,1-3.175,2.04c1.972.2,4.079-.277,4.744-2.04a4.93,4.93,0,0,1,.429-1.1,1.307,1.307,0,0,1,.523-.445A1.8,1.8,0,0,0,381.714,324.171Z" transform="translate(-378.11 -234.089)"/><path d="M428.739,162.722a4.514,4.514,0,0,0-1.13-2.092c-2.364-2.965-4.932-6.009-8.452-7.416a10.983,10.983,0,0,0-4.812-.722,10.681,10.681,0,0,1,3.243.722c3.52,1.407,6.088,4.451,8.452,7.416a4.514,4.514,0,0,1,1.13,2.092c.3,2.092-1.438,4.263-2.014,6.2a16.4,16.4,0,0,0-.361,3.787c-.246,3.441-2.035,6.8-5.4,8.107a3.661,3.661,0,0,0-1.088.523,2.17,2.17,0,0,0-.413,2.406,10.585,10.585,0,0,0,1.391,2.186,10.758,10.758,0,0,1,1.841,7.416c-.628,5.005-4.707,9.106-5.146,14.121-.418,4.707,2.406,9.027,3.29,13.656a29.98,29.98,0,0,1,.037,8.787c-.471,4.493-1.255,9.179-4.012,12.756a6.365,6.365,0,0,1-2.322,2.014,5.2,5.2,0,0,1-1.71.424,6.762,6.762,0,0,0,3.279-.424,6.365,6.365,0,0,0,2.338-1.977c2.756-3.577,3.541-8.264,4.012-12.756a29.8,29.8,0,0,0-.037-8.787c-.884-4.629-3.708-8.964-3.29-13.656.45-5.026,4.519-9.126,5.146-14.121a10.758,10.758,0,0,0-1.841-7.416,10.586,10.586,0,0,1-1.391-2.186,2.171,2.171,0,0,1,.413-2.406,3.661,3.661,0,0,1,1.088-.523c3.368-1.3,5.157-4.665,5.4-8.107a17.64,17.64,0,0,1,.361-3.787C427.3,166.985,429.037,164.83,428.739,162.722Z" transform="translate(-393.922 -152.462)"/></g><path d="M406.82,525a7.066,7.066,0,0,0,7.233,2" transform="translate(-243.858 -285.873)" opacity="0.1"/><path d="M467.609,696a4.44,4.44,0,0,1-3.609.91" transform="translate(-271.132 -367.818)" opacity="0.1"/><ellipse cx="14.085" cy="2.38" rx="14.085" ry="2.38" transform="translate(40.908 339.657)" fill="#ce4e4d" opacity="0.1"/><ellipse cx="14.085" cy="2.38" rx="14.085" ry="2.38" transform="translate(80.845 361.754)" fill="#ce4e4d" opacity="0.1"/><path d="M304.6,639.349s-7.348-24.953,1.381-43.316a39.414,39.414,0,0,0,3.2-24.738,66.19,66.19,0,0,0-3.5-11.606" transform="translate(-193.721 -302.611)" fill="none" stroke="#535461" stroke-miterlimit="10" stroke-width="2"/><path d="M309.56,532.294c0,3.06-5.539,11.925-5.539,11.925s-5.533-8.865-5.533-11.925a5.539,5.539,0,1,1,11.072,0Z" transform="translate(-192.183 -286.654)" fill="#81d8d0"/><path d="M327.01,562.21c-1.663,2.563-11.13,7-11.13,7s.173-10.46,1.836-13.018a5.539,5.539,0,0,1,9.294,6.02Z" transform="translate(-200.48 -299.661)" fill="#81d8d0"/><path d="M324.413,615.735c-2.73,1.381-13.143.429-13.143.429s5.424-8.938,8.154-10.314a5.539,5.539,0,0,1,4.99,9.885Z" transform="translate(-198.281 -324.303)" fill="#81d8d0"/><path d="M314.642,658c-2.458,1.815-12.882,2.615-12.882,2.615s3.839-9.728,6.276-11.548a5.539,5.539,0,0,1,6.585,8.891Z" transform="translate(-193.745 -344.782)" fill="#81d8d0"/><path d="M292.2,575.826c2.2,2.129,12.411,4.336,12.411,4.336s-2.5-10.152-4.707-12.28a5.539,5.539,0,0,0-7.714,7.944Z" transform="translate(-188.426 -305.697)" fill="#81d8d0"/><path d="M279.79,623.818c2.73,1.376,13.138.424,13.138.424s-5.424-8.938-8.154-10.314a5.538,5.538,0,1,0-4.985,9.891Z" transform="translate(-181.812 -328.133)" fill="#81d8d0"/><path d="M276.49,673.458c2.458,1.82,12.882,2.615,12.882,2.615s-3.839-9.728-6.276-11.543a5.539,5.539,0,0,0-6.585,8.891Z" transform="translate(-180.734 -352.176)" fill="#81d8d0"/><path d="M274,701.042s8.949-1.778,11.339-4.147,13.122-6.511,14.315-3.551,16.109,13.028,5.968,14.806-23.865,2.369-26.846,1.187S274,701.042,274,701.042Z" transform="translate(-180.504 -366.06)" fill="#a8a8a8"/><path d="M305.637,714.922c-10.141,1.778-23.865,2.369-26.846,1.182-2.275-.9-3.855-5.23-4.477-7.254l-.314.078s1.789,7.108,4.775,8.295,16.7.591,26.846-1.187c2.929-.523,3.766-1.715,3.452-3.243C308.838,713.772,307.818,714.54,305.637,714.922Z" transform="translate(-180.504 -373.947)" opacity="0.2"/></g></svg>