<svg id="Illustration" xmlns="http://www.w3.org/2000/svg" width="283" height="170" viewBox="0 0 283 170">
  <path id="Path_767" data-name="Path 767" d="M694.291,241.914l2.431-.418c.233-.041.465-.09.7-.132a19.865,19.865,0,0,1,12.742-36.629l-3.186,7.549,7.549-6.563a.346.346,0,0,1,.052.017,19.85,19.85,0,0,1,12.193,25.345c-.126.358-.277.7-.421,1.046a23.866,23.866,0,0,0,5.843-3.9c3.375-3.22,5.225-7.665,7.291-13.14,4.094-10.85,8.036-21.857,11.821-32.888a19.826,19.826,0,0,1-9.326-24.054c.2-.574.438-1.126.687-1.668.062-.136.125-.271.19-.4.253-.52.52-1.03.813-1.519.048-.08.1-.155.151-.234q.383-.619.807-1.2c.105-.146.21-.291.32-.433.321-.418.653-.824,1-1.212.117-.13.241-.251.361-.378q.4-.424.83-.823c.15-.14.3-.281.451-.416.039-.035.076-.072.116-.107l.005.008a20.008,20.008,0,0,1,25.516-.571l-4.146,9.824,7.463-6.485a19.694,19.694,0,0,1,.738,23.4l.021.007c-.082.119-.174.228-.258.346q-.236.33-.483.648c-.212.272-.432.535-.657.794-.17.2-.337.393-.514.581-.258.275-.529.536-.8.8-.159.151-.311.31-.475.456q-.644.572-1.331,1.086c-.161.12-.331.226-.495.341-.322.226-.646.448-.98.654-.207.128-.42.244-.632.364-.307.174-.615.342-.93.5-.224.112-.449.217-.676.321-.324.147-.651.283-.982.413-.222.087-.443.175-.669.254-.372.13-.749.244-1.128.352-.192.055-.38.118-.573.167-.569.145-1.145.268-1.727.362-.109.018-.221.025-.331.04-.483.07-.968.126-1.457.161-.21.015-.422.017-.633.025-.4.015-.791.023-1.189.015-.232,0-.464-.017-.7-.03q-.581-.033-1.163-.1c-.229-.026-.458-.053-.688-.087-.416-.063-.831-.145-1.246-.235l-.082-.015q-2.4,6.981-4.881,13.932a20,20,0,0,1,28.918,2.374l-6.9,7.6,9.342-3.713a19.726,19.726,0,0,1,.8,15.127,19.462,19.462,0,0,1-2.535,4.883A19.972,19.972,0,0,1,745.2,215.63c-.176.467-.345.94-.521,1.406-1.824,4.83-4.092,10.842-8.649,15.188a35.018,35.018,0,0,1-10.534,6.395q-3.561,1.543-7.217,2.853a20.061,20.061,0,0,1-8.931,2.834c-3.846,1.064-7.74,1.952-11.67,2.637l-2.451.421c-2.2.376-4.461.762-6.7,1.208.323.1.646.186.967.3A19.88,19.88,0,0,1,702.82,268.21l-15.365,4.7,13.9,2.2a20.006,20.006,0,0,1-33.268,5.879q.212.706.425,1.41c.282.933.562,1.86.831,2.779,3.659,12.517,2.084,22.364-4.434,27.724l-3.537-4.263c6.344-5.218,4.376-15.97,2.639-21.916-.264-.9-.54-1.813-.817-2.729-2.383-7.882-5.084-16.816-1.585-25.026C666.885,246.587,682.081,244,694.291,241.914Z" transform="translate(-501.92 -144.876)" fill="#f2f2f2"/>
  <path id="Path_768" data-name="Path 768" d="M455.193,434.836H347.54a13.311,13.311,0,0,1-13.311-13.311V372.2a5.273,5.273,0,0,1,1.646-3.827L392.92,314.3a12.277,12.277,0,0,1,16.893,0L464.2,365.86a13.784,13.784,0,0,1,4.3,10v45.662A13.311,13.311,0,0,1,455.193,434.836Z" transform="translate(-267.051 -265.203)" fill="#3f3d56"/>
  <path id="Path_769" data-name="Path 769" d="M240.954,387.992H374.109v53.785a8.037,8.037,0,0,1-8.038,8.038H248.992a8.038,8.038,0,0,1-8.038-8.038Z" transform="translate(-173.774 -280.181)" opacity="0.1"/>
  <path id="Path_770" data-name="Path 770" d="M333.73,521.351" transform="translate(-266.584 -416.481)" fill="none" stroke="#3f3d56" stroke-miterlimit="10" stroke-width="1"/>
  <rect id="Rectangle_156" data-name="Rectangle 156" width="99.027" height="99.027" rx="26.181" transform="translate(84.658 65.43)" fill="#81d8d0"/>
  <path id="Path_771" data-name="Path 771" d="M402.481,395.942v54.423H303.454V395.942l49.514,23.932Z" transform="translate(-218.796 -285.907)" opacity="0.1"/>
  <path id="Path_772" data-name="Path 772" d="M400.867,557.737l-63.443-30.664a2.574,2.574,0,0,0-3.694,2.318V582.15a8.038,8.038,0,0,0,8.038,8.038h118.2A8.038,8.038,0,0,0,468,582.15V530.295a3.141,3.141,0,0,0-4.508-2.828Z" transform="translate(-266.691 -420.694)" fill="#3f3d56"/>
  <rect id="Rectangle_157" data-name="Rectangle 157" width="27.694" height="3.916" transform="translate(93.237 74.917)" fill="#f2f2f2"/>
  <rect id="Rectangle_158" data-name="Rectangle 158" width="82.243" height="2.238" transform="translate(90.955 89.126)" fill="#f2f2f2"/>
  <rect id="Rectangle_159" data-name="Rectangle 159" width="82.243" height="2.238" transform="translate(90.955 96.647)" fill="#f2f2f2"/>
  <rect id="Rectangle_160" data-name="Rectangle 160" width="82.243" height="2.238" transform="translate(90.955 104.168)" fill="#f2f2f2"/>
  <line id="Line_12" data-name="Line 12" x2="230.004" transform="translate(17.051 169.493)" fill="none" stroke="#3f3d56" stroke-miterlimit="10" stroke-width="1"/>
  <path id="Path_773" data-name="Path 773" d="M93.275,630.212c0,16.493,10.347,29.84,23.134,29.84" transform="translate(-93.275 -495.166)" fill="#46455b"/>
  <path id="Path_774" data-name="Path 774" d="M175.975,659.189c0-16.679,11.547-30.175,25.816-30.175" transform="translate(-152.841 -494.303)" fill="#81d8d0"/>
  <path id="Path_775" data-name="Path 775" d="M123.239,635.557c0,15.667,6.6,28.345,14.752,28.345" transform="translate(-114.857 -499.016)" fill="#81d8d0"/>
  <path id="Path_776" data-name="Path 776" d="M175.975,637.607c0-21.312,13.346-38.557,29.84-38.557" transform="translate(-152.841 -472.721)" fill="#46455b"/>
  <path id="Path_777" data-name="Path 777" d="M158.577,733.07s3.281-.1,4.27-.805,5.047-1.545,5.292-.416,4.93,5.616,1.226,5.646-8.606-.577-9.593-1.178S158.577,733.07,158.577,733.07Z" transform="translate(-140.31 -567.973)" fill="#a8a8a8"/>
  <path id="Path_778" data-name="Path 778" d="M169.431,741.656c-3.7.03-8.606-.577-9.593-1.178-.752-.458-1.051-2.1-1.151-2.858l-.11,0s.208,2.646,1.195,3.247,5.889,1.208,9.593,1.178c1.069-.009,1.439-.389,1.418-.952C170.635,741.437,170.227,741.649,169.431,741.656Z" transform="translate(-140.31 -572.527)" opacity="0.2"/>
  <path id="Path_779" data-name="Path 779" d="M808.049,295.564c-.168,1.5-1.311,2.7-1.734,4.151-.637,2.177.465,4.514,1.972,6.21a13.752,13.752,0,0,0,9.576,4.547,4.085,4.085,0,0,0,1.583-.173,3.39,3.39,0,0,0,1.2-.823,7.7,7.7,0,0,0,1.987-4.309,22.939,22.939,0,0,0,.053-4.815,2.718,2.718,0,0,0-.178-.971,2.488,2.488,0,0,0-.625-.768,14.564,14.564,0,0,0-2.683-1.949,3.079,3.079,0,0,1-1.124-.86,2.78,2.78,0,0,1-.347-1.03l-.3-1.51a2.968,2.968,0,0,0-.435-1.224,3.012,3.012,0,0,0-2.4-.837l-3.218-.126a15.507,15.507,0,0,0-3.3-.13c-.913.184-.609,1.025-.444,1.79A12.94,12.94,0,0,1,808.049,295.564Z" transform="translate(-607.092 -250.23)" fill="#a0616a"/>
  <path id="Path_780" data-name="Path 780" d="M808.049,295.564c-.168,1.5-1.311,2.7-1.734,4.151-.637,2.177.465,4.514,1.972,6.21a13.752,13.752,0,0,0,9.576,4.547,4.085,4.085,0,0,0,1.583-.173,3.39,3.39,0,0,0,1.2-.823,7.7,7.7,0,0,0,1.987-4.309,22.939,22.939,0,0,0,.053-4.815,2.718,2.718,0,0,0-.178-.971,2.488,2.488,0,0,0-.625-.768,14.564,14.564,0,0,0-2.683-1.949,3.079,3.079,0,0,1-1.124-.86,2.78,2.78,0,0,1-.347-1.03l-.3-1.51a2.968,2.968,0,0,0-.435-1.224,3.012,3.012,0,0,0-2.4-.837l-3.218-.126a15.507,15.507,0,0,0-3.3-.13c-.913.184-.609,1.025-.444,1.79A12.94,12.94,0,0,1,808.049,295.564Z" transform="translate(-607.092 -250.23)" opacity="0.1"/>
  <path id="Path_781" data-name="Path 781" d="M843.065,529.548q-.684,7.5-1.368,15c-.357,3.933-.721,7.883-1.421,11.765-.242,1.338-.525,2.669-.861,3.989-.935,3.664-2.291,7.245-2.729,11-.014.108-.025.219-.037.329a9.564,9.564,0,0,1-.468,2.441c-.219.573-.555,1.1-.792,1.663a10.609,10.609,0,0,0-.592,3.613,15.579,15.579,0,0,0-5.363-1.833,4.1,4.1,0,0,1-2.542-.912,3.635,3.635,0,0,1-.5-2.909q.542-4.7,1.082-9.391a24.474,24.474,0,0,1,.684-3.989c.124-.435.274-.864.426-1.292.21-.59.421-1.179.58-1.785a21.5,21.5,0,0,0,.479-2.973c.371-3.15.818-6.294,1.209-9.442l.021-.166a96.57,96.57,0,0,0,.905-14.372c-.018-.712-.048-1.423-.094-2.137-.064-1.034-.159-1.582.7-2.229a16.108,16.108,0,0,1,3.275-1.681c.583-.253,7-2.531,7.148-2.031a12.5,12.5,0,0,1,.47,3.275A36.44,36.44,0,0,1,843.065,529.548Z" transform="translate(-621.645 -417.32)" fill="#605d82"/>
  <path id="Path_782" data-name="Path 782" d="M846.116,614.3c-.242,1.338-.525,2.669-.861,3.989-.935,3.664-2.291,7.245-2.729,11-.014.108-.025.219-.037.329-2.86-4.085-5.269-8.479-8.06-12.608.21-.59.421-1.179.58-1.785a21.5,21.5,0,0,0,.479-2.973c.371-3.15.818-6.294,1.209-9.442l.021-.166a9.781,9.781,0,0,0,.7,1.937c1.875,3.809,6.328,5.734,8.507,9.38Q846.022,614.13,846.116,614.3Z" transform="translate(-627.481 -475.31)" opacity="0.1"/>
  <path id="Path_783" data-name="Path 783" d="M793.215,476.85a70.87,70.87,0,0,0,1.072,9.1l1.007,6.225c.551,3.407,1.125,6.884,2.737,9.935a46.006,46.006,0,0,0,4.516,6.279c3.865,5.035,6.768,10.738,10.433,15.921,1.065,1.506,2.588,3.135,4.406,2.821,1.193-.206,2.06-1.2,3-1.966a18.659,18.659,0,0,0,3.308-2.7c.87-1.132,1.04-3.013-.138-3.818a6.219,6.219,0,0,0-1.349-.552,7.324,7.324,0,0,1-3.762-4.283,40.967,40.967,0,0,0-2.211-5.422c-2.178-3.645-6.633-5.571-8.508-9.381a16.933,16.933,0,0,1-1.231-6.971l-.2-6.06a4.424,4.424,0,0,1,.229-1.958c.717-1.613,2.883-1.763,4.636-1.968a15.86,15.86,0,0,0,5.682-1.793,5.927,5.927,0,0,0,2.537-2.253,7.262,7.262,0,0,0,.619-3.053l.607-10.982a6.877,6.877,0,0,0-.233-2.807c-.836-2.224-3.645-2.951-6.018-2.845-4.417.2-8.495,2.1-12.659,3.381a32.181,32.181,0,0,1-3.138.818,25.228,25.228,0,0,0-2.957.41c-1.585.534-1.545,4-1.77,5.44A45.791,45.791,0,0,0,793.215,476.85Z" transform="translate(-597.795 -371.354)" fill="#605d82"/>
  <path id="Path_784" data-name="Path 784" d="M875.234,687.682a2.808,2.808,0,0,1,.618,1.512,51.646,51.646,0,0,1,.874,9.145,1.493,1.493,0,0,0,.165.829,1.041,1.041,0,0,0,.43.346c1.126.537,2.432-.211,3.37-1.033A8.694,8.694,0,0,0,884,692.6a13.654,13.654,0,0,1,.062-1.783,7.439,7.439,0,0,1,1.108-2.388,20.154,20.154,0,0,0,1.831-4.1c.171-.538.285-1.216-.137-1.591a1.533,1.533,0,0,0-.5-.26l-5.085-1.888c-.441-.164-1.537,2.653-1.711,2.961a2.327,2.327,0,0,1-1.7,1.355c-.872.177-1.91-.077-2.723.358C873.766,686,874.455,686.9,875.234,687.682Z" transform="translate(-656.26 -531.445)" fill="#535070"/>
  <path id="Path_785" data-name="Path 785" d="M834.542,709.92a1.559,1.559,0,0,0-.387-.491,1.75,1.75,0,0,0-.781-.265c-.968-.164-2.116-.273-2.784.447-.626.675-.519,1.774-1.042,2.531-.166.24-.39.437-.534.691a2.6,2.6,0,0,0-.234,1.239c-.027,1.174-.054,2.349.027,3.52a4.924,4.924,0,0,0,.847,2.778c.985,1.234,2.761,1.411,4.338,1.492l1.277.065a2.494,2.494,0,0,0,1.047-.1,1.723,1.723,0,0,0,.9-.993c.665-1.652-.388-3.432-1.036-5.091C835.437,713.839,835.57,711.722,834.542,709.92Z" transform="translate(-623.386 -551.944)" fill="#535070"/>
  <path id="Path_786" data-name="Path 786" d="M800.361,254.119a1.055,1.055,0,0,1,.072-.492c.187-.331.675-.241,1.044-.148,1.482.374,3.043.035,4.569.123s3.244.85,3.551,2.347a11.14,11.14,0,0,0,2.817-2.894,3.474,3.474,0,0,0,.735-2.119,4.139,4.139,0,0,0-1.854-2.611l-2.538-2.072a3.825,3.825,0,0,0-1.136-.723,5.664,5.664,0,0,0-1.845-.1c-1.848,0-3.818-.84-5.461.005a5.9,5.9,0,0,0-1.7,1.547l-2.265,2.682a1.433,1.433,0,0,0-.362.614,2.727,2.727,0,0,0,.162.979c.107.6-.151,1.238.047,1.814.329.955,1.489,1.09,2.2,1.638.264.2.678.9.993.887C799.953,255.575,800.346,254.56,800.361,254.119Z" transform="translate(-599.769 -217.157)" fill="#3f3d56"/>
  <circle id="Ellipse_77" data-name="Ellipse 77" cx="7.254" cy="7.254" r="7.254" transform="translate(197.184 30.344)" fill="#a0616a"/>
  <path id="Path_787" data-name="Path 787" d="M786.537,316.371a3.514,3.514,0,0,0-3.421-2.354,1.043,1.043,0,0,1-.631-.08.87.87,0,0,1-.259-.324,12.672,12.672,0,0,1-1.058-2.5c-.116-.384-.274-.837-.662-.936a.9.9,0,0,0-.844.367,7.442,7.442,0,0,1-.6.758c-.912.816-2.53.072-3.5.821-.158.122-.289.279-.455.39a2.125,2.125,0,0,1-.533.228,51.084,51.084,0,0,0-5.49,2.15,51.716,51.716,0,0,0,2.814,11.457c.719,1.728,1.533,3.42,2.108,5.2,1.275,3.945,1.331,8.167,1.346,12.313a25.651,25.651,0,0,1-.922,8.421,7.948,7.948,0,0,0-.518,1.85,1.917,1.917,0,0,0,.649,1.724,2.221,2.221,0,0,0,1,.352,12.98,12.98,0,0,0,4.761-.553c4.2-.972,8.48-1.529,12.754-2.084l7.161-.93a4.157,4.157,0,0,0,1.482-.383c1.31-.717,1.435-2.689.621-3.942a21.434,21.434,0,0,1-1.268-1.73,1.607,1.607,0,0,1,.209-1.968c1.148-.9.805-2.562.86-4.018q.23-6.106-.062-12.217a24.319,24.319,0,0,1-.04-2.534,22.437,22.437,0,0,1,.79-4.228L805,313.054a4.465,4.465,0,0,0-2.688-1.727c-1.031-.259-2.1-.335-3.12-.65-2.08-.645-3.932-2.28-6.1-2.128a1.108,1.108,0,0,0-.473.116c-.49.278-.412.984-.444,1.546a4.269,4.269,0,0,1-1.995,3.013,35.488,35.488,0,0,0-3.092,2.092A1.38,1.38,0,0,0,786.537,316.371Z" transform="translate(-580.415 -263.025)" fill="#3f3d56"/>
  <path id="Path_788" data-name="Path 788" d="M718.8,358.675a8.564,8.564,0,0,1-1.526.785,5.016,5.016,0,0,0-1.462.709,2.291,2.291,0,0,0-.508.628,2.793,2.793,0,0,0,2.575,4.161,5.606,5.606,0,0,0,1.9-.568l5.116-2.217a4.024,4.024,0,0,0,2.211-1.665.387.387,0,0,0,.05-.264.437.437,0,0,0-.21-.221,11.431,11.431,0,0,1-2.979-2.809c-.21-.285-.467-.958-.763-1.129C722.127,355.461,719.669,358.112,718.8,358.675Z" transform="translate(-541.362 -297.196)" fill="#a0616a"/>
  <path id="Path_789" data-name="Path 789" d="M892.811,359.084l1.886,2.155c.4.463.81.926,1.179,1.417a16.542,16.542,0,0,1,2.16,4.07,7.107,7.107,0,0,1,.607,3.364,8.228,8.228,0,0,1-.472,1.711,21.3,21.3,0,0,1-1.282,3.087,17.584,17.584,0,0,1-1.442,2.162,50.475,50.475,0,0,1-4.782,5.469,6.233,6.233,0,0,0-1.2,2.534,10.581,10.581,0,0,1-2.941,4.007,8.185,8.185,0,0,1-1.263,1.087,4.114,4.114,0,0,1-2.3.655,2.523,2.523,0,0,1-1.035-.214,2.676,2.676,0,0,1-1.315-2.229,4.741,4.741,0,0,1,.4-2.384c1.082-2.4,3.862-3.437,5.827-5.186a18.925,18.925,0,0,0,2.9-3.589,12.406,12.406,0,0,0,1.468-2.573c.439-1.171.268-2.557.651-3.747.162-.5.45-.957.624-1.456a1.7,1.7,0,0,0-.087-1.523,2.213,2.213,0,0,0-.854-.625c-1.255-.637-2.661-1.457-2.9-2.844a3.047,3.047,0,0,1,.562-2.172,9.047,9.047,0,0,1,1.583-1.659C891.339,360.115,892.262,359.569,892.811,359.084Z" transform="translate(-660.769 -299.472)" fill="#a0616a"/>
  <path id="Path_790" data-name="Path 790" d="M702,371.421a3.5,3.5,0,0,0-1.422-1.694,2.62,2.62,0,0,0-2.066-.009,7.767,7.767,0,0,0-1.813,1.1l-1.626,1.2a4,4,0,0,0-.965.891,3.76,3.76,0,0,0-.5,1.379,9.86,9.86,0,0,0-.256,3.412,9.7,9.7,0,0,0,2.58,4.83,4.294,4.294,0,0,0,2.855,1.789,1.31,1.31,0,0,0,1.262-.635,1.585,1.585,0,0,0,.113-.566,12.606,12.606,0,0,0-1.46-5.906,3.785,3.785,0,0,1-.471-1.587.436.436,0,0,1,.069-.266.449.449,0,0,1,.278-.136c1.168-.231,3.179.676,4-.621C703.106,373.759,702.379,372.183,702,371.421Z" transform="translate(-525.758 -306.962)" fill="#a0616a"/>
  <path id="Path_791" data-name="Path 791" d="M799,245.959a1.056,1.056,0,0,1,.072-.492c.187-.331.675-.241,1.044-.148,1.482.374,3.043.035,4.569.123s3.244.85,3.551,2.347a11.14,11.14,0,0,0,2.817-2.894,3.474,3.474,0,0,0,.735-2.119,4.139,4.139,0,0,0-1.854-2.611l-2.538-2.072a3.824,3.824,0,0,0-1.136-.723,5.663,5.663,0,0,0-1.845-.1c-1.848,0-3.817-.84-5.461.005a5.9,5.9,0,0,0-1.7,1.547l-2.265,2.682a1.432,1.432,0,0,0-.362.614,2.728,2.728,0,0,0,.162.979c.107.6-.151,1.238.047,1.814.329.955,1.489,1.09,2.2,1.638.264.2.678.9.993.887C798.593,247.415,798.986,246.4,799,245.959Z" transform="translate(-598.789 -211.269)" fill="#3f3d56"/>
  <path id="Path_792" data-name="Path 792" d="M745.242,334.154a2.948,2.948,0,0,0-.759.707c-.266.4-.32.91-.548,1.334-.489.908-1.632,1.232-2.346,1.977a.738.738,0,0,0-.225.387.862.862,0,0,0,.192.557l3.44,5.408c1.145.1,2.244-.617,3.39-.521a3.4,3.4,0,0,0,1.276.057,3.658,3.658,0,0,0,.819-.5c.684-.432,1.594-.483,2.168-1.053a2.969,2.969,0,0,0,.614-2.18,8.764,8.764,0,0,0-.2-2.005c-.506-2.076-2.094-3.669-3.089-5.507-.484-.9-.748-1.419-1.774-.8S746.212,333.444,745.242,334.154Z" transform="translate(-560.402 -279.707)" fill="#3f3d56"/>
  <path id="Path_793" data-name="Path 793" d="M889.353,325.888a8.047,8.047,0,0,1,1.731,1.516c.524.676.821,1.5,1.324,2.194a24.478,24.478,0,0,0,1.706,1.806,13.945,13.945,0,0,1,1.966,3.2,47.851,47.851,0,0,1-4.45,5.029,1.435,1.435,0,0,1-.676.444,1.09,1.09,0,0,1-.955-.389c-.248-.26-.423-.58-.66-.85a3.4,3.4,0,0,0-2.1-1.017,14.444,14.444,0,0,0-2.383-.033.942.942,0,0,1-.509-.086.855.855,0,0,1-.278-.318c-.931-1.585-.632-3.575-.3-5.383l.754-4.15a9.315,9.315,0,0,1,.628-2.306c.286-.61.924-1.645,1.709-1.463S888.687,325.41,889.353,325.888Z" transform="translate(-662.811 -274.171)" fill="#3f3d56"/>
  <ellipse id="Ellipse_78" data-name="Ellipse 78" cx="11.469" cy="11.49" rx="11.469" ry="11.49" transform="translate(77.326 55.946)" fill="#fff"/>
  <path id="Path_794" data-name="Path 794" d="M375.937,338.851a13.707,13.707,0,1,0,13.707,13.707A13.707,13.707,0,0,0,375.937,338.851Zm-2.814,21.015-7.025-7.025,1.97-1.97,5.061,5.061,10.682-10.682,1.97,1.97Z" transform="translate(-287.14 -284.862)" fill="#57b894"/>
</svg>
