<svg id="Illustration" xmlns="http://www.w3.org/2000/svg" xmlns:xlink="http://www.w3.org/1999/xlink" width="244.539" height="170" viewBox="0 0 244.539 170">
  <defs>
    <linearGradient id="linear-gradient" x1="0.5" y1="1" x2="0.5" gradientUnits="objectBoundingBox">
      <stop offset="0" stop-color="gray" stop-opacity="0.251"/>
      <stop offset="0.54" stop-color="gray" stop-opacity="0.122"/>
      <stop offset="1" stop-color="gray" stop-opacity="0.102"/>
    </linearGradient>
  </defs>
  <path id="Path_865" data-name="Path 865" d="M374.872,103.459a57.234,57.234,0,0,0-9.329-14.85L236.116,87.336,342.678,72.384A60.514,60.514,0,0,0,321.057,68.1a60.644,60.644,0,0,0-72.4-2.452,60.39,60.39,0,0,0-27.7-6.666c-28.757,0-52.719,19.9-58.1,46.285Z" transform="translate(-134.87 -54.842)" fill="#81d8d0" opacity="0.1"/>
  <path id="Path_866" data-name="Path 866" d="M311.623,307.175a55.846,55.846,0,0,0-4.032-20.885L83.3,309.812a56.213,56.213,0,0,0-5.253,13.256L147.5,333.408l-71.041,7.54c2.137,29.87,27.768,53.459,59.082,53.459a59.972,59.972,0,0,0,40.693-15.727A60.207,60.207,0,0,0,270.8,361.833a58.362,58.362,0,0,0,38.932-40.2l-87.84-13.6H311.61C311.61,307.746,311.623,307.461,311.623,307.175Z" transform="translate(-67.084 -236.688)" fill="#81d8d0" opacity="0.1"/>
  <ellipse id="Ellipse_122" data-name="Ellipse 122" cx="89.637" cy="8.51" rx="89.637" ry="8.51" transform="translate(15.191 149.749)" fill="#81d8d0"/>
  <path id="Path_867" data-name="Path 867" d="M335.132,481.963a14.063,14.063,0,0,1-2.611,1.293l-.246.1a.793.793,0,0,0,.3-.511c0-2.068-15.746,2.066-18.8,2.066a13.237,13.237,0,0,1-4.2-.862,34.844,34.844,0,0,0-6.814-1.691h0a23.949,23.949,0,0,0-3.132-1.635v-.015c.062-.123.121-.248.17-.373a.206.206,0,0,1,.024-.062l.078-.2c.024-.065.047-.129.067-.194.924-2.725.388-5.778-.59-8.508-.485-1.346-1.077-2.773-.743-4.162a3.9,3.9,0,0,1,.267-.748h0a3.383,3.383,0,0,1,.159-.306c.026-.049.056-.1.086-.151.078-.131.157-.263.241-.392.056-.084.112-.17.17-.254.157-.23.319-.463.472-.7l.019-.028c.052-.078.1-.157.149-.237s.078-.125.114-.187l.054-.095a.31.31,0,0,0,.026-.037c.024-.045.052-.095.075-.142l.028-.056a3.959,3.959,0,0,0,.168-.364c.022-.058.045-.114.062-.17s.015-.054.024-.08c.022-.069.043-.136.063-.215l.013-.05.013-.052c.011-.043.024-.086.032-.129a.125.125,0,0,1,0,.017,8.211,8.211,0,0,0-.073-3.372,23.708,23.708,0,0,0-.836-3.143,6.822,6.822,0,0,1-.605-3.335,4.909,4.909,0,0,1,.319-.985h0c.093-.215.19-.431.278-.659.052-.129.1-.261.144-.392l.039-.119c.022-.065.037-.129.054-.194l.013-.06v-.03h0a6.914,6.914,0,0,0,.1-2.066,9.473,9.473,0,0,0-1.394-4.613,5.941,5.941,0,0,0-2.019-1.894,4.484,4.484,0,0,0-.842-.364c.024-.043.052-.084.075-.125a1.606,1.606,0,0,0,.17-.431,2.428,2.428,0,0,0-.082-1.066,18.278,18.278,0,0,0-1.467-4.453,6.134,6.134,0,0,0-3.4-3.079,20.252,20.252,0,0,1-2.273-.6c-.3-.138-.586-.323-.881-.483a5.817,5.817,0,0,0-2.585-.709c-.177-.011-.349,0-.523,0h-.11a3.775,3.775,0,0,0-.431.041c-.179.024-.36.043-.528.075a.747.747,0,0,0-.687.564v.024a.177.177,0,0,1-.015.078c-.095-.015-.192-.03-.289-.041a9.594,9.594,0,0,0-1.06-.058,9.251,9.251,0,0,0-9.15,8.057,4.917,4.917,0,0,1-.6.047,9.909,9.909,0,0,1-2.417-.3l-1.384-.4h0s.013-.034.043-.1l.252-.192-.187.037c.31-.713,1.181-2.717,1.663-3.678.59-1.181,4.822-2.656,4.822-2.656,5.817-.3,10.341-4.524,10.341-4.524s12.09,1.967,19.566,1.37,10.037,1.773,10.037,1.773,4.923,13.484,13.092,9.824c6.146-2.751-4.819-10.606-10.621-14.324.334.187.664.381.987.588s.7.448,1.064.689c-.689-.463-1.346-.894-1.95-1.28a19.821,19.821,0,0,0-6.6-2.706l-21.354-4.509h-.106a65.654,65.654,0,0,0-16.408,3.962c-6.332,2.424-13.7,5.782-14.4,6.463a34.1,34.1,0,0,1-4.725,3.641c-2.085.3-4.847,2.23-6.711,3.71l-.306.243c-.034-.164-.045-.263-.045-.263s-2.622,1.588-2.658,2.473-5.351,5.171-5.351,5.171-2.99,4.733-4.615,4.962-3.988,5.351-3.988,5.351l-2.8,5.5s-1.476,1.508-1.293,2.437-1.144,2.029-1.144,2.029-2.141,1.844-2.1,2.473-1.107,1.293-1.107,1.293a33.932,33.932,0,0,0-2.066,4.356.588.588,0,0,0,0,.355l-.028.013s-1.338,3.016-1.293,4.207a4.693,4.693,0,0,1-.726,2.277l-.1.037h.08c-.06.1-.1.162-.1.166h0a19.823,19.823,0,0,0-14.665-2.178c-8.71,1.915-8.128,7.015-8.128,7.015s.345,6.274,2.855,8.426,4.093,2.251,5.511,3.878,8.809,2.37,8.809,2.37,14.615.737,22.49,0,11.435-.739,11.435-.739,8.65-1.077,12.536-.394a55.837,55.837,0,0,0,9.4.493,2.239,2.239,0,0,0,.215-.59h.08a2.206,2.206,0,0,0,.215-.569,39.213,39.213,0,0,1,5.685-.81,23.853,23.853,0,0,0,7.575-1.771s3.031.026,7.581,3.173,18.112,1.353,18.112,1.353l7.482-.59s4.918-.788,6.5,1.28,5.412,2.855,6.691,0,7.284-8.365,7.284-8.365,5.513-3.152,7.971-11.317S336.211,480.983,335.132,481.963ZM292.159,449.41c.416-.444.756-.957,1.174-1.4.564-.6,1.267-1.051,1.825-1.652a3.446,3.446,0,0,0,.689-1.077l.013.024.116.308c.015.05.026.1.039.147s.026.114.037.172.013.065.017.1c.013.088.022.179.026.269v.433a1.369,1.369,0,0,1-.026.265,1.046,1.046,0,0,1-.024.162c-.009.054-.015.093-.024.138s-.015.086-.026.129v.013c-.021.095-.043.19-.067.284h0a6.541,6.541,0,0,1-.239.745c-.162.431-.351.862-.517,1.293h0c-.045.116-.088.235-.129.351-.017.052-.034.1-.054.153s-.037.118-.056.177v.026a5.894,5.894,0,0,0-.157.646.4.4,0,0,0,0,.05c0,.015,0,.032,0,.047l-.019.147v.106a1.391,1.391,0,0,1-.015.25v.125a2.008,2.008,0,0,0,.015.3.321.321,0,0,0,.015.118c.015.039,0,.095.015.142a.078.078,0,0,1,0,.022.675.675,0,0,0,.024.131c.009.043.024.127.037.192l.019.082a.483.483,0,0,0,.03.131c.013.043.015.06.024.091s0,.045.017.067l.032.116a.369.369,0,0,0,.028.095l.065.215c.022.062.041.125.06.187a6.562,6.562,0,0,1,.558,2.982h0a2.338,2.338,0,0,1-.045.239,5.7,5.7,0,0,1-1.323,2.135,36.849,36.849,0,0,0-2.236,2.967,8.451,8.451,0,0,0-.758,1.282h0c-.052.114-.1.23-.142.347l-.054.144a7.805,7.805,0,0,0,.028,3.63l.823,4.942c.026.153.052.306.075.461l.026.17.019.134c.03.215.056.444.073.666v.067a1.876,1.876,0,0,0,.013.269v.431a1.616,1.616,0,0,1-.024.334v.026c-.013.114-.03.228-.052.34h0a3.187,3.187,0,0,1-.1.4,6.607,6.607,0,0,1-.877,1.644h0l-.541-.194s-4.524-5.817-6.4-8.465-1.28-3.936-1.28-3.936a10.3,10.3,0,0,0-5.02-9.048,5.148,5.148,0,0,1-1.767-1.8,2.615,2.615,0,0,1,.487.03l-.127-.31a.367.367,0,0,1,.127.015l-2.055-5a5.911,5.911,0,0,1,1.555-.442c.164-.026.33-.05.493-.069a9.189,9.189,0,0,0,4.139,1.668c.093.013.185.017.278.028-.024.032-.045.067-.065.1l-.026.052a.415.415,0,0,0-.028.065.431.431,0,0,0-.022.075v.047a.447.447,0,0,0,0,.131,3.438,3.438,0,0,1,2.417.862,1.522,1.522,0,0,0,.409.4,1.031,1.031,0,0,0,.444.067h.954a16.916,16.916,0,0,0,3.331-.269A7.153,7.153,0,0,0,292.159,449.41Zm-18.11-.493a2.131,2.131,0,0,1,.448-.287C274.45,448.658,274.292,448.757,274.049,448.917Zm6.261,32.656c-4.393-2.652-7.086-1.575-7.086-1.575h-.491c-2.154,0-19-.879-19-.879h-.293a1.66,1.66,0,0,1,.293,0,5.019,5.019,0,0,0-.5-1.538,1.383,1.383,0,0,0-.1-.136,18.2,18.2,0,0,0,.521-4.473c-.112-2.1,0-4.022,0-4.022,4.578,1.575,10.9-1.6,10.987-1.646,4.955-1.39,6.894-.3,6.894-.3.394,1.771,4.824,9.251,4.824,9.251s4.035,3.051,5.6,5.414a6.75,6.75,0,0,0,.773.944c-.246-.084-.48-.168-.7-.252a11.081,11.081,0,0,1-1.73-.791Z" transform="translate(-159.908 -340.862)" fill="url(#linear-gradient)"/>
  <path id="Path_868" data-name="Path 868" d="M512.077,443.387c-8.036,3.6-12.877-9.662-12.877-9.662s-2.514-2.325-9.874-1.743-19.264-1.357-19.264-1.357-4.453,4.167-10.164,4.451c0,0-4.162,1.452-4.74,2.615-.472.944-1.329,2.915-1.635,3.615a1.353,1.353,0,0,1-.062.153c-.03.067-.043.1-.043.1l-.239.112h0l-4.8,2.3-6.582,1.842-4.164.483-7.066-4.9s.816-.763,2.016-1.724c1.833-1.454,4.55-3.354,6.6-3.647a33.609,33.609,0,0,0,4.647-3.581c.692-.679,7.935-3.981,14.161-6.366a64.629,64.629,0,0,1,16.138-3.9l21,4.436a19.549,19.549,0,0,1,6.5,2.656C507.331,432.951,518.13,440.677,512.077,443.387Z" transform="translate(-344.796 -343.19)" fill="#ffc1c7"/>
  <g id="Group_41" data-name="Group 41" transform="translate(85.868 79.024)" opacity="0.1">
    <path id="Path_869" data-name="Path 869" d="M431.9,442.079s.816-.765,2.016-1.724c1.833-1.454,4.55-3.354,6.6-3.647a33.61,33.61,0,0,0,4.647-3.581c.692-.681,7.935-3.981,14.161-6.366a64.539,64.539,0,0,1,16.138-3.88l21,4.434a19.526,19.526,0,0,1,6.493,2.659q.5.321,1.047.679c-.679-.457-1.325-.881-1.917-1.26a19.539,19.539,0,0,0-6.493-2.656l-21-4.436a64.608,64.608,0,0,0-16.138,3.9c-6.228,2.385-13.471,5.688-14.161,6.366a33.747,33.747,0,0,1-4.647,3.581c-2.051.293-4.77,2.193-6.6,3.647-1.2.954-2.016,1.724-2.016,1.724l7.066,4.9h.028Z" transform="translate(-431.03 -422.3)"/>
    <path id="Path_870" data-name="Path 870" d="M750.522,476.435a4.289,4.289,0,0,0-.862-.545c.194.513,2.646,6.864,6.827,9.3C752.674,482.329,750.522,476.435,750.522,476.435Z" transform="translate(-681.015 -464.345)"/>
  </g>
  <path id="Path_871" data-name="Path 871" d="M646.076,545.849a3.386,3.386,0,0,1-.1.33c-.017.056-.041.112-.06.166a4.124,4.124,0,0,1-.185.394c-.028.058-.06.116-.088.172a.282.282,0,0,1-.024.037c-.03.056-.06.108-.093.159-.215.366-.465.715-.7,1.077-.08.116-.159.235-.235.355a.645.645,0,0,1-.045.071c-.041.067-.084.138-.123.215s-.069.116-.1.175-.034.06-.05.09l-.093.179a3.834,3.834,0,0,0-.256.7c-.332,1.368.254,2.771.73,4.093.961,2.684,1.491,5.688.582,8.368-.021.062-.043.127-.067.192s-.065.17-.1.254c-.052.129-.11.256-.174.383a2.663,2.663,0,0,1-2.37,1.724c-1.424-.125-2.116-1.87-3.413-2.465-1.127-.517-2.551-.095-3.613-.732a4.081,4.081,0,0,1,.36-.834c.192-.353.431-.692.646-1.028a6.574,6.574,0,0,0,.862-1.618,3.5,3.5,0,0,0,.1-.392.125.125,0,0,0,0-.03c.011-.067.024-.129.032-.2s.017-.127.024-.2a.18.18,0,0,0,0-.034,1.18,1.18,0,0,1,.015-.228,10.685,10.685,0,0,0-.215-2.167q-.4-2.43-.81-4.86a7.635,7.635,0,0,1-.026-3.57c.028-.082.058-.164.088-.243s.067-.162.1-.239a8.466,8.466,0,0,1,.745-1.26q1.025-1.508,2.2-2.919a5.544,5.544,0,0,0,1.293-2.1,1.833,1.833,0,0,0,.047-.237,4.955,4.955,0,0,0-.353-2.331q-.05-.136-.091-.271c-.09-.267-.181-.536-.259-.81-.026-.088-.049-.179-.073-.269a5.5,5.5,0,0,1-.11-.549,3.946,3.946,0,0,1-.047-.552v-.261a.686.686,0,0,1,.017-.2,2,2,0,0,0,.03-.215c.011-.078.017-.1.028-.155s.032-.157.054-.233a1.359,1.359,0,0,1,.049-.183c.011-.05.026-.1.039-.146l.056-.172.088-.25c.028-.082.06-.166.093-.248.162-.431.347-.862.508-1.275a7.381,7.381,0,0,0,.235-.73h0a.719.719,0,0,1,.034-.142,1.425,1.425,0,0,0,.032-.144,1.582,1.582,0,0,0,.034-.181c.015-.08.03-.164.039-.246s.017-.166.024-.25,0-.166,0-.248a2.834,2.834,0,0,0-.123-.862,2.056,2.056,0,0,0-.125-.332h0q-.056-.111-.123-.216c-.276-.448-.7-.791-.954-1.258a1.952,1.952,0,0,1-.215-.929,1.778,1.778,0,0,1,.017-.263,1.671,1.671,0,0,1,.06-.263.7.7,0,0,1,.034-.1l.045-.1a1.184,1.184,0,0,1,.071-.125c.022-.028.041-.058.063-.084a.958.958,0,0,1,1.1-.284l.123.041a4.534,4.534,0,0,1,.827.36,5.852,5.852,0,0,1,1.986,1.861,9.325,9.325,0,0,1,1.37,4.537,6.919,6.919,0,0,1-.1,2.034.664.664,0,0,1-.019.088c-.017.065-.032.129-.054.192a11.923,11.923,0,0,1-.452,1.15h0a4.889,4.889,0,0,0-.315.969,6.733,6.733,0,0,0,.6,3.279,23.44,23.44,0,0,1,.806,3.1A7.423,7.423,0,0,1,646.076,545.849Z" transform="translate(-505.571 -423.677)" fill="#965d7b"/>
  <g id="Group_42" data-name="Group 42" transform="translate(129.927 101.365)" opacity="0.1">
    <path id="Path_872" data-name="Path 872" d="M679.37,567.4a11.79,11.79,0,0,0,.455-1.155c.028-.093.054-.185.075-.28A8.4,8.4,0,0,0,679.37,567.4Z" transform="translate(-669.917 -557.421)"/>
    <path id="Path_873" data-name="Path 873" d="M657.078,529.416a3.351,3.351,0,0,1,.194,2.635c.017-.047.037-.093.054-.14a3.913,3.913,0,0,0,.043-3.365c-.278-.448-.709-.793-.957-1.258a1.978,1.978,0,0,1-.215-1,1.807,1.807,0,0,0-.065,1.87C656.369,528.625,656.8,528.968,657.078,529.416Z" transform="translate(-651.507 -526.29)"/>
    <path id="Path_874" data-name="Path 874" d="M675.9,625.5c-.011.047-.019.095-.028.144.474-1.006,1.31-1.859,1.723-2.9a4.178,4.178,0,0,0,.2-.674C677.245,623.257,676.2,624.22,675.9,625.5Z" transform="translate(-667.171 -601.435)"/>
    <path id="Path_875" data-name="Path 875" d="M645.353,694.074c-.444,1.094-1.368,2.208-2.547,2.1-1.424-.123-2.113-1.868-3.412-2.465-1.1-.506-2.49-.114-3.544-.694a4.2,4.2,0,0,0-.36.834c1.062.646,2.486.215,3.613.73,1.293.6,1.989,2.344,3.413,2.467,1.178.1,2.1-1.013,2.547-2.107a8.113,8.113,0,0,0,.3-.9Z" transform="translate(-635.49 -657.1)"/>
    <path id="Path_876" data-name="Path 876" d="M640.257,633.215a8.021,8.021,0,0,1,.127,2.852,4.161,4.161,0,0,0,.187-.478,6.973,6.973,0,0,0-.024-3.244q-.4-2.43-.81-4.862a8.63,8.63,0,0,1-.125-3.182,4.287,4.287,0,0,0-.192.485,7.655,7.655,0,0,0,.026,3.568Q639.854,630.787,640.257,633.215Z" transform="translate(-638.413 -603.185)"/>
    <path id="Path_877" data-name="Path 877" d="M657.834,568.55c.416-1.667-.862-3.3-.885-5.02a4.456,4.456,0,0,1,.17-1.181,5.589,5.589,0,0,0-.459,2.053c.015,1.637,1.181,3.2.929,4.789A3.084,3.084,0,0,0,657.834,568.55Z" transform="translate(-652.099 -554.581)"/>
  </g>
  <path id="Path_878" data-name="Path 878" d="M497.619,690.566c-2.419,8.034-7.842,11.132-7.842,11.132s-5.905,5.423-7.165,8.236-5.033,2.034-6.579,0-6.39-1.256-6.39-1.256l-7.359.58s-13.336,1.769-17.812-1.329-7.454-3.122-7.454-3.122a23.569,23.569,0,0,1-7.452,1.743,38.214,38.214,0,0,0-5.6.793c-1.028.215-1.926.431-2.57.584s-1.028.267-1.028.267l-9.858-.993-9.311-.941-5.033-.681-1.321-2.874-1.271-2.762L393.14,699l.6-9.869h15.878s16.559.862,18.685.862h.483s2.648-1.06,6.969,1.547a10.99,10.99,0,0,0,1.723.78c6.868,2.566,26.165,5.9,26.165,5.9l12.5-.776s7.025-2.559,10.987-4.246a14.128,14.128,0,0,0,2.566-1.271C490.744,690.954,500.038,682.53,497.619,690.566Z" transform="translate(-315.424 -551.167)" fill="#ffc1c7"/>
  <path id="Path_879" data-name="Path 879" d="M399.208,706.1l.765,2.723-2.615,1.418-2.506-.276-1.271-2.762-.431-.944.6-9.869H409.62C406.309,696.687,399.208,706.1,399.208,706.1Z" transform="translate(-315.477 -558.436)" opacity="0.1"/>
  <path id="Path_880" data-name="Path 880" d="M329.366,681.159l.765,2.723-2.613,1.418-6.607-.726-3.559-2.867c-5.817-9.438-12.851-9.479-12.851-9.479a4.921,4.921,0,0,0,.836-2.434c-.037-1.161,1.28-4.139,1.28-4.139l.125-.06c.444-.215,1.95-.961,2.044-.993,0,0,29.875,4.828,30.456,5.011a.683.683,0,0,1,.347.321,4.89,4.89,0,0,1,.489,1.508C336.923,671.149,329.366,681.159,329.366,681.159Z" transform="translate(-245.938 -533.495)" fill="#565988"/>
  <path id="Path_881" data-name="Path 881" d="M482.94,520.667a15.649,15.649,0,0,0-2.624.166c-1.446.235-2.831.784-2.217,2.062,1.161,2.419-6.2,6.679-6.2,6.679l-10.263,6.584-6.39-9.682,3.294-7.842,9.195-4.647,5.037-2.417a12.143,12.143,0,0,0,3.749.685,2.966,2.966,0,0,0,2.06-.685C480.131,510.02,482.94,520.667,482.94,520.667Z" transform="translate(-364.182 -413.228)" fill="#ffc1c7"/>
  <path id="Path_882" data-name="Path 882" d="M560.165,520.667a15.649,15.649,0,0,0-2.624.166,9.078,9.078,0,0,1-3.861-7.443,8.97,8.97,0,0,1,.069-1.135,2.966,2.966,0,0,0,2.06-.685C557.355,510.02,560.165,520.667,560.165,520.667Z" transform="translate(-441.395 -413.211)" opacity="0.1"/>
  <path id="Path_883" data-name="Path 883" d="M574.527,487.44a9.1,9.1,0,0,1-9.1,9.1,9,9,0,0,1-1.259-.089,9.1,9.1,0,0,1,1.261-18.114,9.837,9.837,0,0,1,1.043.058A9.1,9.1,0,0,1,574.527,487.44Z" transform="translate(-443.46 -387.259)" fill="#ffc1c7"/>
  <path id="Path_884" data-name="Path 884" d="M648.658,712.27c0,1.155-6.138,3.5-11.431,5.31a32.962,32.962,0,0,1-11.528,1.674,3.375,3.375,0,0,0-.942.084c-1.452.386-20.329-4.067-20.329-4.067s-3.854-1.788-5.448-4.061c6.868,2.566,26.165,5.9,26.165,5.9l12.5-.776s7.025-2.559,10.987-4.246A.341.341,0,0,1,648.658,712.27Z" transform="translate(-476.904 -570.064)" opacity="0.1"/>
  <path id="Path_885" data-name="Path 885" d="M514.06,568.84s1.355,3.561,3.1,4.432a10.147,10.147,0,0,1,4.938,8.906s-.582,1.26,1.258,3.878,6.293,8.325,6.293,8.325,9.1,3.195,12,5.132h.011a34.017,34.017,0,0,1,6.7,1.67,13.306,13.306,0,0,0,4.134.847c3,0,18.491-4.065,18.491-2.034,0,1.157-6.138,3.5-11.433,5.313a32.993,32.993,0,0,1-11.526,1.667,3.458,3.458,0,0,0-.941.084c-1.452.386-20.331-4.068-20.331-4.068s-3.979-1.838-5.528-4.171-5.515-5.315-5.515-5.315-4.356-7.357-4.74-9.1c0,0-2.225-1.258-8.036.676s-1.265-4.358-1.265-4.358l6.487-7.54Z" transform="translate(-399.239 -458.366)" fill="#ffc1c7"/>
  <path id="Path_886" data-name="Path 886" d="M441.346,522.778l-2.023-4.921A32.212,32.212,0,0,0,434.086,522c-2.422,2.419-4.068,3.878-5.229,4.162s-5.13,2.305-6.776-1.849-.969-6.961.58-8.316,12.03-7.728,12.03-7.728l-1.377-.106s-9.583,3.354-12.584,1.823c0,0-5.326.89-6.487-1.047s-2.258-2.243-2.258-2.243l-7.036,9.5,2.518,21.007h6.485l6.969-2.71,9.294-.776s3.486-3.292,3.971-4.841S438.354,522.293,441.346,522.778Z" transform="translate(-324.725 -409.534)" opacity="0.1"/>
  <path id="Path_887" data-name="Path 887" d="M441.346,521.432l-2.023-4.921a32.208,32.208,0,0,0-5.237,4.145c-2.422,2.422-4.068,3.878-5.229,4.162s-5.13,2.305-6.776-1.848-.969-6.961.58-8.316,12.03-7.441,12.03-7.441l-1.377-.394s-9.583,3.352-12.584,1.82c0,0-5.326.89-6.487-1.047s-2.258-2.243-2.258-2.243l-7.036,9.5,2.518,21.007h6.485l6.969-2.71,9.294-.776s3.486-3.29,3.971-4.839S438.354,520.943,441.346,521.432Z" transform="translate(-324.725 -408.474)" fill="#565988"/>
  <path id="Path_888" data-name="Path 888" d="M347.263,669.984c-.112.534-.2.877-.2.877s-.4-.146-5.3.8a29.091,29.091,0,0,1-9.766,0,56.284,56.284,0,0,1-8.424-1.635c-4.21-1.2-9.729-2.615-9.264-4.093.03-.086.06-.183.1-.278.444-.215,1.95-.961,2.044-.993,0,0,29.875,4.828,30.456,5.011A.683.683,0,0,1,347.263,669.984Z" transform="translate(-253.611 -533.492)" opacity="0.1"/>
  <path id="Path_889" data-name="Path 889" d="M369.283,516.328l1.68,3.8s-2.585-1.372-5.89,4.255-3.74,6.427-3.74,6.427-2.322,1.586-1.741,3.606c0,0-6.881,2.37-11.418.8a17.856,17.856,0,0,0-.907,5.138,29.639,29.639,0,0,1,.017,3.32s1.293-.98-3.611-.034a45.113,45.113,0,0,1-9.766.67,71.747,71.747,0,0,1-7.932-1.76c-4.212-1.2-10.746-.89-10.274-2.37a33.825,33.825,0,0,1,2.034-4.283s1.125-.646,1.077-1.271,2.07-2.432,2.07-2.432,1.306-1.088,1.125-2,1.271-2.4,1.271-2.4l2.76-5.408s2.322-5.048,3.921-5.265,4.537-4.865,4.537-4.865,5.227-4.21,5.263-5.082,2.613-2.432,2.613-2.432.416,3.563,3.878,3.71,8.036,0,8.036,0l8.982-2.111s-3.934,3.557-4.843,3.811-3.641,2.215-5.033,2.585-4.22,2.271-4.111,4.985a8.291,8.291,0,0,0,1.053,4.093s2.831,5.386,5.662,4.74c0,0,3.163.17,4.429-1.706S369.283,516.328,369.283,516.328Z" transform="translate(-254.699 -408.016)" opacity="0.1"/>
  <path id="Path_890" data-name="Path 890" d="M453.686,504.99l-.246.187-.282.215h0l-4.8,2.3-6.582,1.842-4.164.483-7.066-4.9s.817-.763,2.016-1.724a4.066,4.066,0,0,0,3.815,3.4c3.458.149,8.036,0,8.036,0l9.087-1.786Z" transform="translate(-344.81 -406.917)" opacity="0.1"/>
  <path id="Path_891" data-name="Path 891" d="M368.188,514.946l1.68,4.093s-2.876-1.661-6.181,3.966-3.738,6.424-3.738,6.424-2.034,1.876-1.452,3.9c0,0-6.282,3.182-10.819,1.62,0,0-.108,1.889,0,3.958a19.391,19.391,0,0,1-.616,4.828s-.4-.144-5.3.8a29.135,29.135,0,0,1-9.764,0,56.115,56.115,0,0,1-8.424-1.633c-4.21-1.2-9.729-2.615-9.264-4.093a33.139,33.139,0,0,1,2.034-4.285s1.125-.646,1.09-1.271,2.068-2.432,2.068-2.432,1.308-1.077,1.125-1.995,1.271-2.4,1.271-2.4l2.76-5.407s2.322-5.048,3.921-5.265,4.537-4.865,4.537-4.865,5.235-4.223,5.27-5.1S341,503.36,341,503.36s.414,3.563,3.878,3.71,8.038,0,8.038,0l9.264-1.82s-4.223,3.266-5.13,3.52-3.643,2.215-5.035,2.585-4.223,2.288-4.115,5.011a8.219,8.219,0,0,0,1.053,4.093s2.831,5.373,5.664,4.72c0,0,3.16.168,4.427-1.706S368.188,514.946,368.188,514.946Z" transform="translate(-253.604 -406.928)" fill="#e8f4ff"/>
  <path id="Path_892" data-name="Path 892" d="M433.75,618.28s3.557,6.607,5.19,7.325,1.308-.508,1.308-.508S434.258,619.728,433.75,618.28Z" transform="translate(-347.325 -497.088)" opacity="0.1"/>
  <path id="Path_893" data-name="Path 893" d="M401.9,641.54s3.486,5.554,6.062,5.554Z" transform="translate(-322.343 -515.343)" opacity="0.1"/>
  <path id="Path_894" data-name="Path 894" d="M366.34,609.69s4.067,12.851,11.545,13.868C377.885,623.558,368.12,616.371,366.34,609.69Z" transform="translate(-294.449 -490.354)" opacity="0.1"/>
  <path id="Path_895" data-name="Path 895" d="M369.71,661.25s6.717,5.336,10.819,4.539C380.529,665.789,373.523,664.591,369.71,661.25Z" transform="translate(-297.093 -530.812)" opacity="0.1"/>
  <path id="Path_896" data-name="Path 896" d="M346.57,703.75s6.715,5.336,10.819,4.537C357.389,708.287,350.381,707.089,346.57,703.75Z" transform="translate(-278.943 -564.211)" opacity="0.1"/>
  <path id="Path_897" data-name="Path 897" d="M354.72,717.81s6.715,5.336,10.817,4.539C365.537,722.349,358.531,721.151,354.72,717.81Z" transform="translate(-285.335 -575.242)" opacity="0.1"/>
  <path id="Path_898" data-name="Path 898" d="M359.43,695s6.715,5.33,10.817,4.524C370.247,699.524,363.241,698.333,359.43,695Z" transform="translate(-289.03 -557.346)" opacity="0.1"/>
  <path id="Path_899" data-name="Path 899" d="M454.73,493.49l-4.21,5.41.58,1.088Z" transform="translate(-353.378 -387.339)" opacity="0.1"/>
  <path id="Path_900" data-name="Path 900" d="M602.236,487.691a9.1,9.1,0,0,1-9.1,9.1,9,9,0,0,1-1.259-.088,2.205,2.205,0,0,0,.335-.508c.269-.752-.862-1.536-.506-2.256a1.185,1.185,0,0,1,1.1-.491,1.752,1.752,0,0,0,1.2-.293c.356-.343.306-.907.4-1.392a3.51,3.51,0,0,1,1.222-1.853,16.2,16.2,0,0,0,1.676-1.508,5.618,5.618,0,0,0,1.185-3.188,3.509,3.509,0,0,0-.392-2.154,5.265,5.265,0,0,0-1.846-1.45,5.063,5.063,0,0,1-1.607-1.4,2.366,2.366,0,0,1-.463-1.549A9.1,9.1,0,0,1,602.236,487.691Z" transform="translate(-471.165 -387.51)" opacity="0.1"/>
  <path id="Path_901" data-name="Path 901" d="M608.345,485.414a1.609,1.609,0,0,1-.17.431c-.022.039-.047.08-.071.121l-.131.2a1.939,1.939,0,0,0-.4.894,2.86,2.86,0,0,0,.334,1.142l.024.067h0a1.591,1.591,0,0,1,.05.164,1.879,1.879,0,0,1-.084,1.125h0a3.376,3.376,0,0,1-.679,1.077c-.549.592-1.241,1.041-1.795,1.627-.414.431-.747.941-1.157,1.377a6.948,6.948,0,0,1-3.708,1.894,16.878,16.878,0,0,1-3.277.265h-.937a1.031,1.031,0,0,1-.431-.067,1.508,1.508,0,0,1-.4-.4,3.415,3.415,0,0,0-2.37-.842.6.6,0,0,1,.142-.459,2.65,2.65,0,0,0,.353-.541c.271-.754-.862-1.536-.5-2.26a.617.617,0,0,1,.134-.181.753.753,0,0,1,.119-.1,1.683,1.683,0,0,1,.849-.215,4.116,4.116,0,0,0,.487-.019,1.151,1.151,0,0,0,.7-.271h0c.356-.338.306-.9.4-1.387a3.485,3.485,0,0,1,1.222-1.853,15.961,15.961,0,0,0,1.676-1.508,5.618,5.618,0,0,0,1.185-3.186,3.506,3.506,0,0,0-.392-2.154,4.419,4.419,0,0,0-1.592-1.293l-.254-.151a5.969,5.969,0,0,1-1.273-.984,3.938,3.938,0,0,1-.321-.452,2.427,2.427,0,0,1-.47-1.508.533.533,0,0,1,.017-.1c.127-.554.674-.56,1.193-.629.14-.017.278-.032.418-.041a5.424,5.424,0,0,1,.62,0,5.745,5.745,0,0,1,2.529.694c.289.157.565.34.862.476a20.571,20.571,0,0,0,2.236.59,6.021,6.021,0,0,1,3.344,3.029,18.012,18.012,0,0,1,1.443,4.38A2.4,2.4,0,0,1,608.345,485.414Z" transform="translate(-472.282 -384.788)" fill="#965d7b"/>
  <path id="Path_902" data-name="Path 902" d="M425.479,746.735a2.13,2.13,0,0,1-.215.56s-.961.034-2.37.024a44.984,44.984,0,0,1-6.894-.506,22.456,22.456,0,0,0-4-.215l-9.311-.941-5.033-.681-2.585-5.636c1.5.082,2.783.024,2.783.024,2.859-2.71,5.52-2.275,6.972-1.1a14.483,14.483,0,0,0,4.356,2.113c.129,0,4.41.091,7.163.147a12.913,12.913,0,0,1,6.088,1.629C425.647,743.949,425.694,745.828,425.479,746.735Z" transform="translate(-316.978 -590.568)" opacity="0.1"/>
  <path id="Path_903" data-name="Path 903" d="M224.973,689.593l-2.113.776a19.477,19.477,0,0,0-14.424-2.141c-8.568,1.887-7.986,6.922-7.986,6.922s.338,6.17,2.8,8.288,4.018,2.215,5.42,3.813,8.665,2.322,8.665,2.322,14.376.726,22.121,0,11.242-.726,11.242-.726,8.506-1.064,12.33-.388a54.368,54.368,0,0,0,9.247.485s1.6-2.646-2.82-5.147a12.881,12.881,0,0,0-6.088-1.629c-2.751-.058-7.032-.146-7.163-.146a14.459,14.459,0,0,1-4.356-2.113c-1.452-1.176-4.113-1.614-6.969,1.1,0,0-6.34.291-7.213-1.306s-5.373-6.607-5.373-6.607Z" transform="translate(-164.355 -551.638)" fill="#ffc1c7"/>
  <path id="Path_904" data-name="Path 904" d="M316.168,706.4s-.047.877,1.913.733c1.814-.136-5.373-6.607-5.373-6.607l-7.325-3.5-2.113.778S310.36,696.958,316.168,706.4Z" transform="translate(-244.978 -558.931)" opacity="0.1"/>
  <path id="Path_905" data-name="Path 905" d="M317.51,705.046s-.047.877,1.913.733c1.814-.134-5.373-6.608-5.373-6.608l-7.325-3.5-2.116.778S311.7,695.608,317.51,705.046Z" transform="translate(-246.029 -557.872)" fill="#565988"/>
  <path id="Path_906" data-name="Path 906" d="M267.88,709.943a6.291,6.291,0,0,1,5.132.267,24.556,24.556,0,0,0,3.357,1.166,21.568,21.568,0,0,1,5.244,2.191c2.124,1.234,5.007,2.717,6.61,2.717" transform="translate(-217.218 -568.754)" fill="none" stroke="#000" stroke-miterlimit="10" stroke-width="1" opacity="0.1"/>
  <path id="Path_907" data-name="Path 907" d="M596.89,495.8a.989.989,0,0,1-.431-.067,1.448,1.448,0,0,1-.4-.4,3.421,3.421,0,0,0-2.37-.84c-.069-.375.364-.646.493-1,.274-.754-.862-1.536-.5-2.258a1.194,1.194,0,0,1,1.1-.489,1.733,1.733,0,0,0,1.2-.3c.355-.34.306-.907.4-1.39a3.477,3.477,0,0,1,1.219-1.853,15.976,15.976,0,0,0,1.678-1.508,5.643,5.643,0,0,0,1.185-3.186,3.536,3.536,0,0,0-.394-2.165,5.315,5.315,0,0,0-1.846-1.45,5.064,5.064,0,0,1-1.607-1.4,2.287,2.287,0,0,1-.452-1.605c.121-.528.676-.56,1.2-.629.153-.022.3-.034.459-.043a6,6,0,0,0-1.041.043c-.519.069-1.077.075-1.2.629a2.253,2.253,0,0,0,.455,1.605,5.062,5.062,0,0,0,1.607,1.4,5.584,5.584,0,0,1,1.833,1.439,3.477,3.477,0,0,1,.394,2.165,5.551,5.551,0,0,1-1.185,3.186,15.264,15.264,0,0,1-1.676,1.508,3.5,3.5,0,0,0-1.221,1.853c-.093.483-.043,1.049-.4,1.39a1.75,1.75,0,0,1-1.2.3,1.194,1.194,0,0,0-1.1.489c-.349.722.778,1.508.506,2.258-.131.358-.562.625-.5,1a3.359,3.359,0,0,1,2.37.84,1.391,1.391,0,0,0,.4.4.974.974,0,0,0,.431.067h.942Z" transform="translate(-472.249 -384.805)" opacity="0.1"/>
  <path id="Path_908" data-name="Path 908" d="M662.052,528.664h0c.086-.276.183-.584.278-.911a17.646,17.646,0,0,0,.631-2.652,4.53,4.53,0,0,0-.827-.36c.024-.041.049-.082.071-.121l-.194.08v.241c-.015.409-.045,1.275-.065,2.036v.034c-.015.6-.024,1.133,0,1.323h0Z" transform="translate(-526.308 -423.57)" fill="#565988"/>
  <ellipse id="Ellipse_123" data-name="Ellipse 123" cx="9.376" cy="1.288" rx="9.376" ry="1.288" transform="translate(188.482 150.266)" fill="#81d8d0" opacity="0.1"/>
  <path id="Path_909" data-name="Path 909" d="M937.142,736.644a2.671,2.671,0,0,0,.877-1.323,1.178,1.178,0,0,0-.614-1.349c-.562-.215-1.163.177-1.618.569a2.168,2.168,0,0,1-1.575.76,2.4,2.4,0,0,0,.735-2.243.925.925,0,0,0-.216-.457c-.312-.334-.879-.19-1.252.073-1.189.836-1.521,2.452-1.527,3.906a7.3,7.3,0,0,1-.022-1.609,1.655,1.655,0,0,0-.605-1.424,1.826,1.826,0,0,0-.922-.215,1.884,1.884,0,0,0-1.5.431,1.486,1.486,0,0,0,.06,1.836,5.79,5.79,0,0,0,1.547,1.239,3.446,3.446,0,0,1,1.105,1.056,1.141,1.141,0,0,1,.082.187h3.352A9.279,9.279,0,0,0,937.142,736.644Z" transform="translate(-735.484 -586.695)" fill="#81d8d0"/>
  <ellipse id="Ellipse_124" data-name="Ellipse 124" cx="9.376" cy="1.288" rx="9.376" ry="1.288" transform="translate(218.495 155.796)" fill="#81d8d0" opacity="0.1"/>
  <path id="Path_910" data-name="Path 910" d="M1076.316,762.312a2.671,2.671,0,0,0,.877-1.323,1.178,1.178,0,0,0-.614-1.349,1.717,1.717,0,0,0-1.618.569,2.16,2.16,0,0,1-1.575.76,2.4,2.4,0,0,0,.741-2.245.927.927,0,0,0-.215-.455c-.312-.334-.879-.192-1.252.073-1.189.836-1.521,2.452-1.527,3.9a7.29,7.29,0,0,1-.021-1.607,1.658,1.658,0,0,0-.605-1.424,1.824,1.824,0,0,0-.922-.215,1.892,1.892,0,0,0-1.495.431,1.485,1.485,0,0,0,.06,1.836,5.788,5.788,0,0,0,1.547,1.239,3.428,3.428,0,0,1,1.105,1.056,1,1,0,0,1,.082.187h3.352A9.346,9.346,0,0,0,1076.316,762.312Z" transform="translate(-844.643 -606.832)" fill="#81d8d0"/>
  <ellipse id="Ellipse_125" data-name="Ellipse 125" cx="9.376" cy="1.288" rx="9.376" ry="1.288" transform="translate(199.741 167.423)" fill="#81d8d0" opacity="0.1"/>
  <path id="Path_911" data-name="Path 911" d="M989.27,816.284a2.672,2.672,0,0,0,.877-1.323,1.174,1.174,0,0,0-.612-1.346,1.722,1.722,0,0,0-1.62.567,2.168,2.168,0,0,1-1.575.761,2.4,2.4,0,0,0,.741-2.243.925.925,0,0,0-.215-.457c-.312-.334-.877-.19-1.252.073-1.189.836-1.521,2.452-1.527,3.906a7.3,7.3,0,0,1-.022-1.609,1.655,1.655,0,0,0-.605-1.424,1.818,1.818,0,0,0-.92-.215,1.887,1.887,0,0,0-1.5.431,1.485,1.485,0,0,0,.058,1.836,5.79,5.79,0,0,0,1.547,1.239,3.43,3.43,0,0,1,1.105,1.056.863.863,0,0,1,.082.187h3.352A9.274,9.274,0,0,0,989.27,816.284Z" transform="translate(-776.351 -649.177)" fill="#81d8d0"/>
  <ellipse id="Ellipse_126" data-name="Ellipse 126" cx="9.376" cy="1.288" rx="9.376" ry="1.288" transform="translate(9.378 148.163)" fill="#81d8d0" opacity="0.1"/>
  <path id="Path_912" data-name="Path 912" d="M106.6,726.882a2.657,2.657,0,0,0,.877-1.323,1.179,1.179,0,0,0-.612-1.349c-.562-.215-1.163.174-1.62.569a2.164,2.164,0,0,1-1.575.76,2.394,2.394,0,0,0,.741-2.245.941.941,0,0,0-.215-.455c-.312-.334-.879-.192-1.254.073-1.189.836-1.521,2.452-1.527,3.9a7.558,7.558,0,0,1-.022-1.607,1.668,1.668,0,0,0-.6-1.424,1.828,1.828,0,0,0-.922-.215,1.89,1.89,0,0,0-1.5.431,1.485,1.485,0,0,0,.058,1.836,5.768,5.768,0,0,0,1.549,1.239,3.427,3.427,0,0,1,1.105,1.056,1.144,1.144,0,0,1,.082.188h3.359A9.351,9.351,0,0,0,106.6,726.882Z" transform="translate(-84.048 -579.035)" fill="#81d8d0"/>
  <ellipse id="Ellipse_127" data-name="Ellipse 127" cx="9.376" cy="1.288" rx="9.376" ry="1.288" transform="translate(0 166.434)" fill="#81d8d0" opacity="0.1"/>
  <path id="Path_913" data-name="Path 913" d="M63.129,811.692a2.671,2.671,0,0,0,.877-1.323,1.176,1.176,0,0,0-.612-1.349,1.719,1.719,0,0,0-1.62.569,2.16,2.16,0,0,1-1.575.76,2.4,2.4,0,0,0,.752-2.245.927.927,0,0,0-.215-.455c-.312-.334-.877-.192-1.252.073-1.189.836-1.521,2.452-1.527,3.906a7.3,7.3,0,0,1-.022-1.609,1.655,1.655,0,0,0-.605-1.424,1.8,1.8,0,0,0-.92-.215,1.872,1.872,0,0,0-1.5.431,1.485,1.485,0,0,0,.058,1.836,5.788,5.788,0,0,0,1.547,1.239,3.406,3.406,0,0,1,1.105,1.056.861.861,0,0,1,.082.187h3.35A9.35,9.35,0,0,0,63.129,811.692Z" transform="translate(-49.951 -645.574)" fill="#81d8d0"/>
</svg>
