<svg xmlns="http://www.w3.org/2000/svg" xmlns:xlink="http://www.w3.org/1999/xlink" width="472.849" height="274.57" viewBox="0 0 472.849 274.57">
  <defs>
    <linearGradient id="linear-gradient" x1="0.5" y1="1" x2="0.5" y2="-0.001" gradientUnits="objectBoundingBox">
      <stop offset="0" stop-color="gray" stop-opacity="0.251"/>
      <stop offset="0.54" stop-color="gray" stop-opacity="0.122"/>
      <stop offset="1" stop-color="gray" stop-opacity="0.102"/>
    </linearGradient>
  </defs>
  <g id="Illustration" transform="translate(0 -0.043)">
    <g id="Group_84" data-name="Group 84" transform="translate(303.674 0.043)" opacity="0.1">
      <ellipse id="Ellipse_278" data-name="Ellipse 278" cx="9.138" cy="11.96" rx="9.138" ry="11.96" transform="translate(34.842 246.592)" fill="#3f3d56"/>
      <path id="Path_1530" data-name="Path 1530" d="M863.178,592.18a14.41,14.41,0,0,0,1.924-7.31c0-6.619-4.091-11.96-9.139-11.96s-9.134,5.353-9.134,11.96a14.408,14.408,0,0,0,1.907,7.31,14.955,14.955,0,0,0,0,14.616,14.964,14.964,0,0,0,0,14.62,14.408,14.408,0,0,0-1.907,7.31c0,6.619,4.091,11.96,9.134,11.96s9.139-5.353,9.139-11.96a14.409,14.409,0,0,0-1.907-7.31,14.963,14.963,0,0,0,0-14.62,14.955,14.955,0,0,0,0-14.616Z" transform="translate(-811.966 -384.794)" fill="#3f3d56"/>
      <ellipse id="Ellipse_279" data-name="Ellipse 279" cx="9.138" cy="11.96" rx="9.138" ry="11.96" transform="translate(34.842 173.501)" fill="#3f3d56"/>
      <ellipse id="Ellipse_280" data-name="Ellipse 280" cx="9.138" cy="11.96" rx="9.138" ry="11.96" transform="translate(34.842 158.881)" fill="#3f3d56"/>
      <path id="Path_1531" data-name="Path 1531" d="M840.743,188.985a44.041,44.041,0,0,0,3.4-5.01l-23.994-3.943,25.967.194a43.851,43.851,0,0,0,.827-34.676L812.1,163.614l32.136-23.605a43.769,43.769,0,1,0-72.293,48.977,43.854,43.854,0,0,0-4.989,7.98l31.163,16.192-33.228-11.17a43.769,43.769,0,0,0,7.033,41.1,43.764,43.764,0,1,0,68.8,0,43.764,43.764,0,0,0,0-54.115Z" transform="translate(-762.558 -118.183)" fill="#81d8d0"/>
      <path id="Path_1532" data-name="Path 1532" d="M762.609,353.825a43.566,43.566,0,0,0,9.366,27.055,43.764,43.764,0,1,0,68.8,0C846.638,373.434,762.609,348.91,762.609,353.825Z" transform="translate(-762.588 -255.964)" opacity="0.1"/>
    </g>
    <g id="Group_85" data-name="Group 85" transform="translate(64.825 93.095)" opacity="0.1">
      <ellipse id="Ellipse_281" data-name="Ellipse 281" cx="5.56" cy="7.281" rx="5.56" ry="7.281" transform="translate(20.962 150.106)" fill="#3f3d56"/>
      <path id="Path_1533" data-name="Path 1533" d="M245.881,631.642a8.783,8.783,0,0,0,1.162-4.451c0-4.021-2.482-7.281-5.564-7.281s-5.56,3.26-5.56,7.281a8.782,8.782,0,0,0,1.158,4.451,9.126,9.126,0,0,0,0,8.9,9.126,9.126,0,0,0,0,8.9,8.753,8.753,0,0,0-1.158,4.447c0,4.025,2.482,7.285,5.56,7.285s5.564-3.26,5.564-7.285a8.754,8.754,0,0,0-1.162-4.447,9.1,9.1,0,0,0,0-8.9A9.1,9.1,0,0,0,245.881,631.642Z" transform="translate(-214.936 -505.402)" fill="#3f3d56"/>
      <ellipse id="Ellipse_282" data-name="Ellipse 282" cx="5.56" cy="7.281" rx="5.56" ry="7.281" transform="translate(20.962 105.61)" fill="#3f3d56"/>
      <ellipse id="Ellipse_283" data-name="Ellipse 283" cx="5.56" cy="7.281" rx="5.56" ry="7.281" transform="translate(20.962 96.711)" fill="#3f3d56"/>
      <path id="Path_1534" data-name="Path 1534" d="M190.908,386.2a26.517,26.517,0,0,1-2.068-3.049l14.616-2.4-15.807.12a26.712,26.712,0,0,1-.509-21.1l21.193,11.008-19.555-14.4a26.642,26.642,0,1,1,44,29.815,26.613,26.613,0,0,1,3.036,4.853l-18.972,9.862,20.23-6.789a26.658,26.658,0,0,1-4.294,25.02,26.642,26.642,0,1,1-41.882,0,26.65,26.65,0,0,1,0-32.946Z" transform="translate(-185.199 -343.114)" fill="#81d8d0"/>
      <path id="Path_1535" data-name="Path 1535" d="M238.483,486.534a26.538,26.538,0,0,1-5.7,16.473,26.642,26.642,0,1,1-41.882,0C187.33,498.494,238.483,483.543,238.483,486.534Z" transform="translate(-185.199 -426.972)" opacity="0.1"/>
    </g>
    <g id="Group_86" data-name="Group 86" transform="translate(181.205 43.631)" opacity="0.1">
      <ellipse id="Ellipse_284" data-name="Ellipse 284" cx="7.442" cy="9.742" rx="7.442" ry="9.742" transform="translate(28.049 200.985)" fill="#3f3d56"/>
      <path id="Path_1536" data-name="Path 1536" d="M547.641,609.92a11.753,11.753,0,0,0,1.551-5.957c0-5.378-3.31-9.742-7.446-9.742s-7.446,4.364-7.446,9.742a11.716,11.716,0,0,0,1.555,5.957,12.179,12.179,0,0,0,0,11.91,12.17,12.17,0,0,0,0,11.906,11.716,11.716,0,0,0-1.556,5.957c0,5.378,3.334,9.742,7.446,9.742s7.446-4.364,7.446-9.742a11.753,11.753,0,0,0-1.551-5.957,12.2,12.2,0,0,0,0-11.906,12.2,12.2,0,0,0,0-11.91Z" transform="translate(-506.258 -440.876)" fill="#3f3d56"/>
      <ellipse id="Ellipse_285" data-name="Ellipse 285" cx="7.442" cy="9.742" rx="7.442" ry="9.742" transform="translate(28.049 141.438)" fill="#3f3d56"/>
      <ellipse id="Ellipse_286" data-name="Ellipse 286" cx="7.442" cy="9.742" rx="7.442" ry="9.742" transform="translate(28.049 129.528)" fill="#3f3d56"/>
      <path id="Path_1537" data-name="Path 1537" d="M474.164,281.32a35.539,35.539,0,0,1-2.772-4.079l19.555-3.21-21.148.157a35.722,35.722,0,0,1-.683-28.251L497.5,260.656,471.322,241.42a35.656,35.656,0,1,1,58.872,39.9,35.713,35.713,0,0,1,4.062,6.5l-25.384,13.188,27.068-9.1a35.668,35.668,0,0,1-5.746,33.48,35.652,35.652,0,1,1-56.047,0,35.664,35.664,0,0,1,0-44.087Z" transform="translate(-466.519 -223.547)" fill="#81d8d0"/>
      <path id="Path_1538" data-name="Path 1538" d="M537.823,415.745a35.5,35.5,0,0,1-7.628,22.041,35.652,35.652,0,1,1-56.047,0C469.37,431.721,537.823,411.74,537.823,415.745Z" transform="translate(-466.519 -335.926)" opacity="0.1"/>
    </g>
    <path id="Path_1539" data-name="Path 1539" d="M527.88,738.254c0,2.842-20.776,5.44-55.124,7.446-6.247.36-12.94.7-20.039,1.026q-9.2.414-19.286.782-9.771.348-20.292.645c-22.149.633-46.635,1.088-72.648,1.315q-9.469.087-19.191.132-10.127.046-20.486.041c-125.406,0-227.063-5.093-227.063-11.377S175.406,726.89,300.813,726.89c53.991,0,103.572.947,142.542,2.519l4.261.174h.025C496.729,731.664,527.88,734.8,527.88,738.254Z" transform="translate(-55.03 -475.03)" fill="#3f3d56"/>
    <path id="Path_1540" data-name="Path 1540" d="M527.88,738.254c0,2.842-20.776,5.44-55.124,7.446-6.247.36-12.94.7-20.039,1.026q-9.2.414-19.286.782-9.771.348-20.292.645c-22.149.633-46.635,1.088-72.648,1.315q-9.469.087-19.191.132-10.127.046-20.486.041c-125.406,0-227.063-5.093-227.063-11.377S175.406,726.89,300.813,726.89c53.991,0,103.572.947,142.542,2.519l4.261.174h.025C496.729,731.664,527.88,734.8,527.88,738.254Z" transform="translate(-55.03 -475.03)" opacity="0.15"/>
    <path id="Path_1541" data-name="Path 1541" d="M482.63,736.017c0,2.375-20.776,4.551-55.124,6.205-6.243.3-12.94.587-20.035.856q-9.2.347-19.286.654-9.771.29-20.292.542c-22.153.53-46.64.91-72.652,1.1q-9.461.07-19.191.108-10.127.037-20.482.037C130.161,745.52,28.5,741.263,28.5,736s101.661-9.515,227.067-9.515c53.987,0,103.568.79,142.537,2.106l4.261.145h.029C451.5,730.507,482.63,733.109,482.63,736.017Z" transform="translate(-28.5 -474.796)" fill="#3f3d56"/>
    <path id="Path_1542" data-name="Path 1542" d="M162.181,513.737l-5.7-17.454L293,494.79l5.593,17.28Z" transform="translate(-103.536 -338.948)" fill="#3f3d56"/>
    <path id="Path_1543" data-name="Path 1543" d="M162.181,513.737l-5.7-17.454L293,494.79l5.593,17.28Z" transform="translate(-103.536 -338.948)" opacity="0.15"/>
    <path id="Path_1544" data-name="Path 1544" d="M140.181,513.737l-5.7-17.454L271,494.79l5.593,17.28Z" transform="translate(-90.637 -338.948)" fill="#3f3d56"/>
    <path id="Path_1545" data-name="Path 1545" d="M647.022,313.171q-21.173,0-33.372-16.808t-12.2-40.724q0-24.077,11.8-40.641t33.286-16.548q22.786,0,34.336,17.454t11.554,40.4q0,22.782-11.956,39.83T647.022,313.171Zm.414-12.605q13.929,0,20.821-12.142t6.892-30.613q0-20.56-7.053-33.67T646.46,211.026q-27.717,0-27.717,44.033,0,45.51,28.685,45.506Zm4.65,120.711H631.67L765.326,200.7h20.031Zm118.241,2.263q-21.491,0-33.509-16.961T724.751,365.85q0-23.915,11.716-40.48t33.368-16.548q22.625,0,34.1,17.454t11.476,40.4q0,22.633-11.877,39.756t-33.211,17.11Zm.24-12.928q13.863,0,20.709-11.935t6.847-30.489q0-19.857-6.929-33.306T769.6,321.411q-27.879,0-27.879,44.033-.008,45.171,28.834,45.167Z" transform="translate(-364.426 -165.201)" fill="#3f3d56"/>
    <path id="Path_1546" data-name="Path 1546" d="M647.022,313.171q-21.173,0-33.372-16.808t-12.2-40.724q0-24.077,11.8-40.641t33.286-16.548q22.786,0,34.336,17.454t11.554,40.4q0,22.782-11.956,39.83T647.022,313.171Zm.414-12.605q13.929,0,20.821-12.142t6.892-30.613q0-20.56-7.053-33.67T646.46,211.026q-27.717,0-27.717,44.033,0,45.51,28.685,45.506Zm4.65,120.711H631.67L765.326,200.7h20.031Zm118.241,2.263q-21.491,0-33.509-16.961T724.751,365.85q0-23.915,11.716-40.48t33.368-16.548q22.625,0,34.1,17.454t11.476,40.4q0,22.633-11.877,39.756t-33.211,17.11Zm.24-12.928q13.863,0,20.709-11.935t6.847-30.489q0-19.857-6.929-33.306T769.6,321.411q-27.879,0-27.879,44.033-.008,45.171,28.834,45.167Z" transform="translate(-364.426 -165.201)" fill="#3f3d56"/>
    <path id="Path_1547" data-name="Path 1547" d="M647.022,313.171q-21.173,0-33.372-16.808t-12.2-40.724q0-24.077,11.8-40.641t33.286-16.548q22.786,0,34.336,17.454t11.554,40.4q0,22.782-11.956,39.83T647.022,313.171Zm.414-12.605q13.929,0,20.821-12.142t6.892-30.613q0-20.56-7.053-33.67T646.46,211.026q-27.717,0-27.717,44.033,0,45.51,28.685,45.506Zm4.65,120.711H631.67L765.326,200.7h20.031Zm118.241,2.263q-21.491,0-33.509-16.961T724.751,365.85q0-23.915,11.716-40.48t33.368-16.548q22.625,0,34.1,17.454t11.476,40.4q0,22.633-11.877,39.756t-33.211,17.11Zm.24-12.928q13.863,0,20.709-11.935t6.847-30.489q0-19.857-6.929-33.306T769.6,321.411q-27.879,0-27.879,44.033-.008,45.171,28.834,45.167Z" transform="translate(-364.426 -165.201)" opacity="0.15"/>
    <path id="Path_1548" data-name="Path 1548" d="M616.022,313.171q-21.173,0-33.372-16.808t-12.2-40.724q0-24.077,11.8-40.641t33.286-16.548q22.786,0,34.336,17.454t11.554,40.4q0,22.782-11.956,39.83T616.022,313.171Zm.414-12.605q13.929,0,20.821-12.142t6.892-30.613q0-20.56-7.053-33.67T615.46,211.026q-27.717,0-27.717,44.033,0,45.51,28.685,45.506Zm4.65,120.711H600.67L734.326,200.7h20.031Zm118.241,2.263q-21.491,0-33.509-16.961T693.751,365.85q0-23.915,11.716-40.48t33.368-16.548q22.625,0,34.1,17.454t11.476,40.4q0,22.633-11.877,39.756t-33.211,17.11Zm.24-12.928q13.863,0,20.709-11.935t6.847-30.489q0-19.857-6.929-33.306t-21.6-13.47q-27.879,0-27.879,44.033,0,45.171,28.843,45.167Z" transform="translate(-346.25 -165.201)" fill="#3f3d56"/>
    <path id="Path_1549" data-name="Path 1549" d="M778.168,651.831c1.7-3.161-.232-7.033-2.457-9.854s-4.94-5.75-4.882-9.345c.083-5.159,5.56-8.208,9.929-10.946a48.429,48.429,0,0,0,8.927-7.173,13.107,13.107,0,0,0,2.743-3.674,15.012,15.012,0,0,0,.827-6.524q-.286-11.054-1.092-22.075" transform="translate(-463.733 -390.22)" fill="none" stroke="#3f3d56" stroke-miterlimit="10" stroke-width="4"/>
    <path id="Path_1550" data-name="Path 1550" d="M819.713,570.384a8.038,8.038,0,0,0-4.017-6.594l-1.8,3.566.054-4.319a8.146,8.146,0,0,0-2.652-.319,8.05,8.05,0,1,0,8.419,7.666Z" transform="translate(-482.96 -378.77)" fill="#81d8d0"/>
    <path id="Path_1551" data-name="Path 1551" d="M786.276,696.377a8.046,8.046,0,1,1,.389-6.483l-5.031,4.091,5.543-1.291A8.027,8.027,0,0,1,786.276,696.377Z" transform="translate(-463.879 -450.263)" fill="#81d8d0"/>
    <path id="Path_1552" data-name="Path 1552" d="M786.265,652.364a8.05,8.05,0,0,1-8.419-7.666,7.958,7.958,0,0,1,.695-3.669,8.063,8.063,0,0,1,5.155-4.464l-.045,3.31,1.824-3.607h0a8.051,8.051,0,0,1,.753,16.084Z" transform="translate(-467.842 -421.892)" fill="#81d8d0"/>
    <path id="Path_1553" data-name="Path 1553" d="M833.5,620.943a8.054,8.054,0,1,1,3.558-15.067l-1.423,3.9,2.929-2.809a8.026,8.026,0,0,1,2.61,5.556,7.861,7.861,0,0,1-.207,2.217,8.055,8.055,0,0,1-7.467,6.205Z" transform="translate(-495.536 -403.473)" fill="#81d8d0"/>
    <path id="Path_1554" data-name="Path 1554" d="M818.635,578.781c-1.858.2-3.661.782-5.527.9a6,6,0,0,1-5.092-1.783,24.592,24.592,0,0,1-1.489-2.619,5.7,5.7,0,0,0-2.027-1.907,8.05,8.05,0,1,0,15.05,5.341C819.243,578.727,818.941,578.748,818.635,578.781Z" transform="translate(-482.966 -385.02)" opacity="0.1"/>
    <path id="Path_1555" data-name="Path 1555" d="M833.509,627.484A8.059,8.059,0,0,1,825.851,616a6.031,6.031,0,0,1,1.618,1.622,26.455,26.455,0,0,0,1.6,2.66,6.562,6.562,0,0,0,5.337,1.87c1.94-.087,3.818-.641,5.754-.827.269-.025.542-.041.827-.05a8.054,8.054,0,0,1-7.475,6.209Z" transform="translate(-495.544 -410.014)" opacity="0.1"/>
    <path id="Path_1556" data-name="Path 1556" d="M786.265,659.125a8.05,8.05,0,0,1-8.419-7.666,7.959,7.959,0,0,1,.695-3.669,6.477,6.477,0,0,1,1.7,1.655,27.575,27.575,0,0,0,1.75,2.714,7.447,7.447,0,0,0,5.7,1.994c2.056-.05,3.914-.529,5.9-.683A8.055,8.055,0,0,1,786.265,659.125Z" transform="translate(-467.842 -428.653)" opacity="0.1"/>
    <path id="Path_1557" data-name="Path 1557" d="M786.239,703.689a8.05,8.05,0,0,1-14.678-6.569,8.108,8.108,0,0,1,1.766,1.576,31.57,31.57,0,0,0,2.155,2.863,10.113,10.113,0,0,0,6.669,2.342A34.247,34.247,0,0,0,786.239,703.689Z" transform="translate(-463.841 -457.576)" opacity="0.1"/>
    <path id="Path_1558" data-name="Path 1558" d="M1079.167,650.831c1.7-3.161-.232-7.033-2.457-9.854s-4.94-5.75-4.882-9.345c.083-5.159,5.56-8.208,9.928-10.946a48.425,48.425,0,0,0,8.927-7.173,13.1,13.1,0,0,0,2.743-3.674,15.013,15.013,0,0,0,.827-6.524q-.285-11.054-1.092-22.075" transform="translate(-640.212 -389.634)" fill="none" stroke="#3f3d56" stroke-miterlimit="10" stroke-width="4"/>
    <path id="Path_1559" data-name="Path 1559" d="M1120.713,569.384a8.039,8.039,0,0,0-4.017-6.594l-1.8,3.566.054-4.319a8.144,8.144,0,0,0-2.652-.319,8.05,8.05,0,1,0,8.418,7.666Z" transform="translate(-659.439 -378.183)" fill="#81d8d0"/>
    <path id="Path_1560" data-name="Path 1560" d="M1087.276,695.377a8.046,8.046,0,1,1,.389-6.483l-5.031,4.091,5.544-1.291A8.028,8.028,0,0,1,1087.276,695.377Z" transform="translate(-640.357 -449.677)" fill="#81d8d0"/>
    <path id="Path_1561" data-name="Path 1561" d="M1087.265,651.364a8.05,8.05,0,0,1-8.418-7.666,7.961,7.961,0,0,1,.695-3.669,8.063,8.063,0,0,1,5.155-4.464l-.046,3.31,1.824-3.607h.021a8.051,8.051,0,1,1,.753,16.084Z" transform="translate(-644.321 -421.305)" fill="#81d8d0"/>
    <path id="Path_1562" data-name="Path 1562" d="M1134.5,619.943a8.054,8.054,0,1,1,3.558-15.067l-1.423,3.9,2.929-2.809a8.026,8.026,0,0,1,2.61,5.556,7.865,7.865,0,0,1-.207,2.217A8.055,8.055,0,0,1,1134.5,619.943Z" transform="translate(-672.014 -402.887)" fill="#81d8d0"/>
    <path id="Path_1563" data-name="Path 1563" d="M1119.635,577.781c-1.857.2-3.661.782-5.527.9a6,6,0,0,1-5.093-1.783,24.587,24.587,0,0,1-1.489-2.619,5.7,5.7,0,0,0-2.027-1.907,8.05,8.05,0,1,0,15.05,5.341C1120.243,577.727,1119.941,577.748,1119.635,577.781Z" transform="translate(-659.444 -384.434)" opacity="0.1"/>
    <path id="Path_1564" data-name="Path 1564" d="M1134.509,626.484A8.059,8.059,0,0,1,1126.851,615a6.032,6.032,0,0,1,1.617,1.622,26.48,26.48,0,0,0,1.6,2.66,6.562,6.562,0,0,0,5.337,1.87c1.94-.087,3.818-.641,5.754-.827.269-.025.542-.041.827-.05a8.055,8.055,0,0,1-7.475,6.209Z" transform="translate(-672.022 -409.428)" opacity="0.1"/>
    <path id="Path_1565" data-name="Path 1565" d="M1087.265,658.125a8.05,8.05,0,0,1-8.418-7.666,7.961,7.961,0,0,1,.695-3.669,6.479,6.479,0,0,1,1.7,1.655,27.548,27.548,0,0,0,1.75,2.714,7.447,7.447,0,0,0,5.7,1.994c1.994-.041,3.913-.53,5.9-.683A8.055,8.055,0,0,1,1087.265,658.125Z" transform="translate(-644.321 -428.067)" opacity="0.1"/>
    <path id="Path_1566" data-name="Path 1566" d="M1087.239,702.689a8.05,8.05,0,0,1-14.678-6.569,8.109,8.109,0,0,1,1.766,1.576,31.6,31.6,0,0,0,2.155,2.863,10.115,10.115,0,0,0,6.669,2.341A34.283,34.283,0,0,0,1087.239,702.689Z" transform="translate(-640.32 -456.989)" opacity="0.1"/>
    <path id="Path_1567" data-name="Path 1567" d="M117.019,637.831c-1.7-3.161.232-7.033,2.457-9.854s4.939-5.75,4.882-9.345c-.083-5.159-5.56-8.208-9.929-10.946a48.434,48.434,0,0,1-8.927-7.173,13.106,13.106,0,0,1-2.743-3.674,15.012,15.012,0,0,1-.827-6.524q.285-11.054,1.092-22.075" transform="translate(-71.542 -382.012)" fill="none" stroke="#3f3d56" stroke-miterlimit="10" stroke-width="4"/>
    <path id="Path_1568" data-name="Path 1568" d="M84.467,556.384a8.038,8.038,0,0,1,4.017-6.594l1.8,3.566-.054-4.319a8.144,8.144,0,0,1,2.652-.319,8.05,8.05,0,1,1-8.419,7.666Z" transform="translate(-61.309 -370.561)" fill="#81d8d0"/>
    <path id="Path_1569" data-name="Path 1569" d="M117.9,682.377a8.046,8.046,0,1,0-.389-6.483l5.03,4.091L117,678.7a8.026,8.026,0,0,0,.9,3.682Z" transform="translate(-80.388 -442.055)" fill="#81d8d0"/>
    <path id="Path_1570" data-name="Path 1570" d="M117.966,638.364a8.05,8.05,0,0,0,8.419-7.666,7.959,7.959,0,0,0-.695-3.669,8.063,8.063,0,0,0-5.155-4.464l.046,3.31-1.824-3.607h0A8.051,8.051,0,1,0,118,638.352Z" transform="translate(-76.477 -413.683)" fill="#81d8d0"/>
    <path id="Path_1571" data-name="Path 1571" d="M70.661,606.944a8.054,8.054,0,1,0-3.537-15.067l1.423,3.9-2.95-2.8a8.025,8.025,0,0,0-2.61,5.543,7.86,7.86,0,0,0,.207,2.217A8.055,8.055,0,0,0,70.661,606.944Z" transform="translate(-48.714 -395.266)" fill="#81d8d0"/>
    <path id="Path_1572" data-name="Path 1572" d="M85.8,564.781c1.857.2,3.661.782,5.527.9a6,6,0,0,0,5.093-1.783,24.593,24.593,0,0,0,1.489-2.619,5.7,5.7,0,0,1,2.027-1.907,8.05,8.05,0,1,1-15.05,5.341C85.2,564.727,85.5,564.748,85.8,564.781Z" transform="translate(-61.562 -376.811)" opacity="0.1"/>
    <path id="Path_1573" data-name="Path 1573" d="M70.955,613.484A8.059,8.059,0,0,0,78.613,602,6.032,6.032,0,0,0,77,603.622a26.477,26.477,0,0,1-1.6,2.66,6.562,6.562,0,0,1-5.337,1.87c-1.94-.087-3.818-.641-5.754-.827-.269-.025-.542-.041-.827-.05A8.055,8.055,0,0,0,70.955,613.484Z" transform="translate(-49.009 -401.806)" opacity="0.1"/>
    <path id="Path_1574" data-name="Path 1574" d="M118.418,645.125a8.05,8.05,0,0,0,8.419-7.666,7.96,7.96,0,0,0-.695-3.669,6.479,6.479,0,0,0-1.7,1.655,27.561,27.561,0,0,1-1.75,2.714,7.447,7.447,0,0,1-5.7,1.994c-1.994-.041-3.914-.529-5.9-.683A8.055,8.055,0,0,0,118.418,645.125Z" transform="translate(-76.929 -420.445)" opacity="0.1"/>
    <path id="Path_1575" data-name="Path 1575" d="M119.18,689.689a8.05,8.05,0,0,0,14.678-6.569,8.109,8.109,0,0,0-1.766,1.576,31.572,31.572,0,0,1-2.155,2.863,10.114,10.114,0,0,1-6.669,2.341,34.285,34.285,0,0,1-4.087-.211Z" transform="translate(-81.666 -449.367)" opacity="0.1"/>
    <path id="Path_1576" data-name="Path 1576" d="M577.683,616.694a6.425,6.425,0,0,0-2.557-5.179,7.506,7.506,0,0,0-6.284-7.372,7.5,7.5,0,0,0-5-5.593h0a6.353,6.353,0,0,0-.931-.219h-.091l-.161-.021h-.852A7.36,7.36,0,0,0,554.7,604.6c-2.3-.53-4.4.157-4.778,1.609a1.965,1.965,0,0,0,.062,1.162,5.033,5.033,0,0,0,3.372,2.735l.223.066c.112.033.223.058.335.083h.074a5.792,5.792,0,0,0,2.528,7.575,1.29,1.29,0,0,0-.149.1,2.069,2.069,0,0,0-.5.7,10.073,10.073,0,0,0-.96,2.313c-.166.691-.194,1.415-.414,2.1-.376,1.241-1.344,2.329-1.456,3.649-.05.587.045,1.278-.372,1.68a2.727,2.727,0,0,1-.331.244,2.556,2.556,0,0,0-.728.761,2.432,2.432,0,0,1-.484.67c-.376.285-1,.257-1.183.7s.294.956.182,1.436c-.091.389-.517.567-.827.827a2.932,2.932,0,0,0-.7,1.336,4.278,4.278,0,0,1-3.529-.9,6.621,6.621,0,0,1,.364,1.32,5.562,5.562,0,0,0-1.9-.951,6.078,6.078,0,0,1-2.027-1.506l1.084-.149-4.8-7.281-1.415-.29,1.27,2.437a.761.761,0,0,0-.414.521,2.219,2.219,0,0,0-.05.827,15.322,15.322,0,0,0,.327,1.94l.368,1.713a4.447,4.447,0,0,0,.12.476,4.825,4.825,0,0,0-1.423.161,12.505,12.505,0,0,0-2.95-.7,1.506,1.506,0,0,0-.666.033,1.613,1.613,0,0,0-.621.5,19.853,19.853,0,0,0-2.193,3.086c-2.577,4.484-6.019,8.4-9.242,12.452-2.226.906-4.468,1.766-6.714,2.619l-4.828,1.841a7.251,7.251,0,0,1-2.991.678c-.463-.029-1.026-.1-1.287.294a2.485,2.485,0,0,0-.294.629c-.17,0-.339.041-.5.05h-.029a5.73,5.73,0,0,0-1.158-2.13.72.72,0,0,0-.546.414c-.116.215-.186.451-.319.649-.261.381-.712.567-1.034.889s-.525.827-.873,1.142a3.466,3.466,0,0,1-1.655.641,10.444,10.444,0,0,0-2.569.976,4.4,4.4,0,0,1-.951.439,3.585,3.585,0,0,1-1.113.037l-2.557-.186a1.992,1.992,0,0,0-.683.029,1.27,1.27,0,0,0-.827,1.311,2.04,2.04,0,0,0,.807,1.406,5.377,5.377,0,0,0,1.456.757,42.292,42.292,0,0,0,6.847,2.006v.517a11.612,11.612,0,0,0,5.217,1.241.778.778,0,0,0,.389-.07.864.864,0,0,0,.327-.513,21.1,21.1,0,0,0,1.022-5.01h0a2.58,2.58,0,0,0,.923-.236c.881-.24,1.754.364,2.66.463,1.117.12,2.155-.529,3.21-.931.153-.058.306-.108.459-.157a5.141,5.141,0,0,1-1.055,1.022c-.439.314-.931.546-1.361.873a9.056,9.056,0,0,1-1.146.889,6.923,6.923,0,0,1-.881.339,5.977,5.977,0,0,0-1.241.625,2.581,2.581,0,0,0-.861.827,1.129,1.129,0,0,0,.77,1.762,3.55,3.55,0,0,0,1.047.029c1.382-.1,2.759-.232,4.137-.356a11.583,11.583,0,0,0,1.733-.248c.3-.074.6-.174.9-.252a7.3,7.3,0,0,1,1.576-.236,1.309,1.309,0,0,1,.459.046c.323.1.55.414.877.5a1.352,1.352,0,0,0,.625-.087,14.349,14.349,0,0,1,3.07-.327c.451-.025.98-.112,1.191-.53.257-.517-.174-1.1-.343-1.655a4.992,4.992,0,0,1-.141-1.084,6.759,6.759,0,0,0-.761-2.577,6.981,6.981,0,0,1-.567-1.175,29.9,29.9,0,0,0,5.643-2.863,10.224,10.224,0,0,1,3.219-1.547,8.642,8.642,0,0,1,4.042.468,90.9,90.9,0,0,1,9.263,3.231,45.983,45.983,0,0,0,4.377,1.655,6.813,6.813,0,0,0,1.551,1.514,7.167,7.167,0,0,0,3.372.918,44.249,44.249,0,0,0,4.741.178,8.011,8.011,0,0,0,3.533-.654,4.1,4.1,0,0,0,.74-.488,2.931,2.931,0,0,0,2.325-.861,5.626,5.626,0,0,0,1.779-2.792c.381-1.493.087-3.235,1.005-4.455.244-.327.563-.592.8-.922a2.482,2.482,0,0,0,.414-1.5l.041-.062a5.574,5.574,0,0,0,.414-1.506,8.634,8.634,0,0,1,.414-1.187,35.854,35.854,0,0,0,1.216-3.529,19.37,19.37,0,0,0,.563-2.42c.1-.654.157-1.311.211-1.969a11.876,11.876,0,0,1,.6-3.024,24.7,24.7,0,0,0,1.369-7.248V627a4.853,4.853,0,0,0,4.323-4.9,5.189,5.189,0,0,0-.447-2.114,6.561,6.561,0,0,0,.86-3.289Zm-23.394,28.425c.07.252.153.5.236.757-.381-.376-.757-.765-1.142-1.138.153.046.306.1.455.149a2.729,2.729,0,0,1,.455.232Zm-1.853-1.241c-2.259-1.961-4.873-3.483-7.186-5.378,1.241.625,2.482,1.349,3.723,2.044q2.168,1.241,4.385,2.375a3.566,3.566,0,0,1-.91.943Zm.964-4.939.107-.112v.774c-.2-.066-.414-.132-.608-.207a5.128,5.128,0,0,0,.5-.472Zm-19.886,5.312a18.743,18.743,0,0,0,2.412-3.438,22.533,22.533,0,0,0,3.591,4.009c-1.994-.281-3.992-.5-6-.587Z" transform="translate(-299.062 -399.642)" fill="url(#linear-gradient)"/>
    <path id="Path_1577" data-name="Path 1577" d="M574.53,545.12l1.427.29,4.861,7.182-2.147.29Z" transform="translate(-336.852 -319.583)" fill="#2f2e41"/>
    <path id="Path_1578" data-name="Path 1578" d="M519.48,733.57a28.282,28.282,0,0,0,1.419,3.723,34.4,34.4,0,0,0,4.741-1.353,12.921,12.921,0,0,0-.985-1.336,4.645,4.645,0,0,0-1.34-1.03,3.65,3.65,0,0,0-1.626-.025Q520.585,733.591,519.48,733.57Z" transform="translate(-316.366 -478.884)" fill="#fbbebe"/>
    <path id="Path_1579" data-name="Path 1579" d="M506.025,732.614a2.976,2.976,0,0,1-1.622-1.845,5.994,5.994,0,0,0-1.212-2.209.724.724,0,0,0-.546.414c-.12.207-.19.443-.327.641-.257.372-.712.554-1.038.873s-.53.8-.881,1.121a3.5,3.5,0,0,1-1.655.637,10.489,10.489,0,0,0-2.59.96,4.429,4.429,0,0,1-.96.414,3.638,3.638,0,0,1-1.121.037l-2.577-.186a2.009,2.009,0,0,0-.687.033,1.241,1.241,0,0,0-.827,1.291,2,2,0,0,0,.827,1.386,5.5,5.5,0,0,0,1.465.745,44.161,44.161,0,0,0,6.909,1.973v.509a11.961,11.961,0,0,0,5.258,1.241.827.827,0,0,0,.414-.07.86.86,0,0,0,.331-.5,20.344,20.344,0,0,0,1.071-5.6,4.2,4.2,0,0,0-.108-1.44c-.141-.463.339-.269-.108-.451" transform="translate(-299.068 -476.009)" fill="#2f2e41"/>
    <path id="Path_1580" data-name="Path 1580" d="M576.342,711.989c-7.641.463-15.187-1.779-22.84-2.019a11.424,11.424,0,0,0-2.838.182,13.953,13.953,0,0,0-2.813,1.092c-4.1,1.907-8.344,3.487-12.584,5.068l-4.865,1.812a7.572,7.572,0,0,1-3.02.666c-.463-.029-1.03-.1-1.295.29-.79,1.171-.414,2.9.108,4.211.17.414.455.889.91.939a2.687,2.687,0,0,0,.931-.236c.885-.236,1.771.36,2.681.455,1.129.12,2.176-.521,3.239-.914a30.2,30.2,0,0,1,5.543-.939,24.771,24.771,0,0,0,8.688-3.607,10.2,10.2,0,0,1,3.243-1.522,8.878,8.878,0,0,1,4.075.459,93.976,93.976,0,0,1,9.337,3.181,43.026,43.026,0,0,0,4.882,1.779,17.648,17.648,0,0,0,10.938-.637c1.241-.484,2.548-1.336,2.619-2.656.041-.753-.542-1.415-.931-2.068-.252-.414-.5-.827-.774-1.22C580.259,714.384,578.663,711.848,576.342,711.989Z" transform="translate(-319.973 -465.097)" fill="#2f2e41"/>
    <path id="Path_1581" data-name="Path 1581" d="M576.342,711.989c-7.641.463-15.187-1.779-22.84-2.019a11.424,11.424,0,0,0-2.838.182,13.953,13.953,0,0,0-2.813,1.092c-4.1,1.907-8.344,3.487-12.584,5.068l-4.865,1.812a7.572,7.572,0,0,1-3.02.666c-.463-.029-1.03-.1-1.295.29-.79,1.171-.414,2.9.108,4.211.17.414.455.889.91.939a2.687,2.687,0,0,0,.931-.236c.885-.236,1.771.36,2.681.455,1.129.12,2.176-.521,3.239-.914a30.2,30.2,0,0,1,5.543-.939,24.771,24.771,0,0,0,8.688-3.607,10.2,10.2,0,0,1,3.243-1.522,8.878,8.878,0,0,1,4.075.459,93.976,93.976,0,0,1,9.337,3.181,43.026,43.026,0,0,0,4.882,1.779,17.648,17.648,0,0,0,10.938-.637c1.241-.484,2.548-1.336,2.619-2.656.041-.753-.542-1.415-.931-2.068-.252-.414-.5-.827-.774-1.22C580.259,714.384,578.663,711.848,576.342,711.989Z" transform="translate(-319.973 -465.097)" opacity="0.1"/>
    <path id="Path_1582" data-name="Path 1582" d="M554.93,730.12q1.8.608,3.616,1.125c.683-1.121,1.957-1.9,2.246-3.177a.3.3,0,0,0,0-.17.306.306,0,0,0-.136-.124,6.764,6.764,0,0,0-2.834-.828c-.786-.05-1.142.77-1.5,1.345C556.2,728.523,555.249,730.227,554.93,730.12Z" transform="translate(-337.15 -475.062)" fill="#fbbebe"/>
    <path id="Path_1583" data-name="Path 1583" d="M542.265,730.053a2.6,2.6,0,0,1-1.758-1.154c-.17-.294-.348-.691-.687-.67s-.455.393-.525.7a20.084,20.084,0,0,1-.989,3.4,6.368,6.368,0,0,1-2.114,2.776c-.443.306-.935.538-1.369.86a9.068,9.068,0,0,1-1.158.877,6.551,6.551,0,0,1-.889.331,6.109,6.109,0,0,0-1.27.616,2.586,2.586,0,0,0-.865.827,1.113,1.113,0,0,0,.753,1.742,3.753,3.753,0,0,0,1.055.025c1.394-.1,2.784-.228,4.174-.352a11.878,11.878,0,0,0,1.75-.24c.306-.074.6-.174.906-.252a7.671,7.671,0,0,1,1.593-.232,1.348,1.348,0,0,1,.463.046c.323.1.55.414.881.488a1.366,1.366,0,0,0,.629-.083,14.893,14.893,0,0,1,3.094-.323c.455-.025.993-.112,1.2-.521.261-.509-.17-1.08-.343-1.626a5.1,5.1,0,0,1-.145-1.067,6.5,6.5,0,0,0-.765-2.536c-.356-.654-.827-1.373-.592-2.068a1.813,1.813,0,0,0,.236-.707C545.471,729.789,542.893,730.2,542.265,730.053Z" transform="translate(-322.801 -475.814)" fill="#2f2e41"/>
    <path id="Path_1584" data-name="Path 1584" d="M611.366,675.738a5.991,5.991,0,0,1-3.045-3.024c-.124-.29-.232-.592-.352-.885a6.773,6.773,0,0,0-1.82-2.523.873.873,0,0,0-.674-.285.72.72,0,0,0-.5.53,2.172,2.172,0,0,0-.054.827,15.582,15.582,0,0,0,.331,1.907l.372,1.688a3.308,3.308,0,0,0,.232.753,2.622,2.622,0,0,0,.62.74c.339.314.683.616,1.03.91a3.64,3.64,0,0,0,.625.455,3.831,3.831,0,0,0,1.162.339,10.024,10.024,0,0,1,4.34,1.655s0-1.129-.029-1.241a1.656,1.656,0,0,0-.323-.906A5.465,5.465,0,0,0,611.366,675.738Z" transform="translate(-366.453 -441.1)" fill="#fbbebe"/>
    <path id="Path_1585" data-name="Path 1585" d="M611.366,675.738a5.991,5.991,0,0,1-3.045-3.024c-.124-.29-.232-.592-.352-.885a6.773,6.773,0,0,0-1.82-2.523.873.873,0,0,0-.674-.285.72.72,0,0,0-.5.53,2.172,2.172,0,0,0-.054.827,15.582,15.582,0,0,0,.331,1.907l.372,1.688a3.308,3.308,0,0,0,.232.753,2.622,2.622,0,0,0,.62.74c.339.314.683.616,1.03.91a3.64,3.64,0,0,0,.625.455,3.831,3.831,0,0,0,1.162.339,10.024,10.024,0,0,1,4.34,1.655s0-1.129-.029-1.241a1.656,1.656,0,0,0-.323-.906A5.465,5.465,0,0,0,611.366,675.738Z" transform="translate(-366.453 -441.1)" opacity="0.1"/>
    <ellipse id="Ellipse_287" data-name="Ellipse 287" cx="1.857" cy="1.87" rx="1.857" ry="1.87" transform="translate(258.611 217.991)" fill="#2f2e41"/>
    <path id="Path_1586" data-name="Path 1586" d="M637.088,646.737a2.069,2.069,0,0,0-1.469.211,1.978,1.978,0,0,0-.5.687,9.756,9.756,0,0,0-.968,2.275c-.165.682-.194,1.394-.414,2.068-.381,1.241-1.357,2.3-1.469,3.591-.05.579.046,1.262-.376,1.655a2.434,2.434,0,0,1-.335.236,2.542,2.542,0,0,0-.732.753,2.385,2.385,0,0,1-.517.716c-.381.281-1.005.252-1.191.687s.294.939.182,1.411c-.091.385-.521.563-.827.827a2.863,2.863,0,0,0-.707,1.32,4.381,4.381,0,0,1-3.554-.89,11.2,11.2,0,0,1,.55,4.067,1.68,1.68,0,0,1-.327,1.241,21.019,21.019,0,0,1,4.365.757,3,3,0,0,0,1.9,0,3.145,3.145,0,0,0,.873-.695,5.54,5.54,0,0,0,1.8-2.768,15.018,15.018,0,0,0,.033-1.882,10.8,10.8,0,0,1,.476-2.279,26.659,26.659,0,0,0,.828-4.7c.087-.98.931-1.766,1.378-2.643a13.062,13.062,0,0,0,1.762-5.225C637.907,647.556,637.7,646.815,637.088,646.737Z" transform="translate(-377.77 -428.005)" fill="#2f2e41"/>
    <path id="Path_1587" data-name="Path 1587" d="M637.088,646.737a2.069,2.069,0,0,0-1.469.211,1.978,1.978,0,0,0-.5.687,9.756,9.756,0,0,0-.968,2.275c-.165.682-.194,1.394-.414,2.068-.381,1.241-1.357,2.3-1.469,3.591-.05.579.046,1.262-.376,1.655a2.434,2.434,0,0,1-.335.236,2.542,2.542,0,0,0-.732.753,2.385,2.385,0,0,1-.517.716c-.381.281-1.005.252-1.191.687s.294.939.182,1.411c-.091.385-.521.563-.827.827a2.863,2.863,0,0,0-.707,1.32,4.381,4.381,0,0,1-3.554-.89,11.2,11.2,0,0,1,.55,4.067,1.68,1.68,0,0,1-.327,1.241,21.019,21.019,0,0,1,4.365.757,3,3,0,0,0,1.9,0,3.145,3.145,0,0,0,.873-.695,5.54,5.54,0,0,0,1.8-2.768,15.018,15.018,0,0,0,.033-1.882,10.8,10.8,0,0,1,.476-2.279,26.659,26.659,0,0,0,.828-4.7c.087-.98.931-1.766,1.378-2.643a13.062,13.062,0,0,0,1.762-5.225C637.907,647.556,637.7,646.815,637.088,646.737Z" transform="translate(-377.77 -428.005)" opacity="0.1"/>
    <path id="Path_1588" data-name="Path 1588" d="M597.037,696.487a17.146,17.146,0,0,1-4.042-3.376c-2.457-2.308-5.461-3.938-8.042-6.1a51.6,51.6,0,0,0-5.122-4.3,12.718,12.718,0,0,0-5.486-1.924,1.523,1.523,0,0,0-.67.033,1.61,1.61,0,0,0-.625.5,19.492,19.492,0,0,0-2.213,3.041c-3.272,5.552-7.918,10.222-11.769,15.389a.691.691,0,0,0-.046.935l.782,1.535c.439.856,1.142,1.857,2.068,1.688a2.3,2.3,0,0,0,1.1-.7l3.516-3.363,3.686-3.525a28.44,28.44,0,0,0,5.767-6.818c1.1,1.907,3.053,3.156,4.393,4.906.509.662.922,1.394,1.378,2.1.732,1.129,1.56,2.188,2.387,3.243l4.232,5.4a8.186,8.186,0,0,0,1.957,1.986,7.509,7.509,0,0,0,3.4.906,43.811,43.811,0,0,0,4.778.174,8.2,8.2,0,0,0,3.558-.641,3.276,3.276,0,0,0,1.932-2.867,4.256,4.256,0,0,0-.608-1.791A14.12,14.12,0,0,0,597.037,696.487Z" transform="translate(-339.456 -447.986)" fill="#2f2e41"/>
    <ellipse id="Ellipse_288" data-name="Ellipse 288" cx="1.427" cy="1.436" rx="1.427" ry="1.436" transform="translate(260.183 219.72)" fill="#e8e8f0"/>
    <path id="Path_1589" data-name="Path 1589" d="M657.347,643.7a2.73,2.73,0,0,1,.157,2.068,8,8,0,0,1-.918,1.9,9.48,9.48,0,0,1-1.2,1.7,12.261,12.261,0,0,0,6.288-1.808,9.026,9.026,0,0,0,3.967-3.458,1.837,1.837,0,0,1-1.46-.269,5.469,5.469,0,0,1-1.121-1.043l-1.1-1.241a4.96,4.96,0,0,1-.683-.9,2.482,2.482,0,0,1-.294-1.444,8.271,8.271,0,0,1-1.464,1.216c-.79.517-1.655.889-2.453,1.4-.281.182-.906.476-.745.827S657.123,643.307,657.347,643.7Z" transform="translate(-396.051 -423.628)" fill="#fbbebe"/>
    <path id="Path_1590" data-name="Path 1590" d="M657.347,643.7a2.73,2.73,0,0,1,.157,2.068,8,8,0,0,1-.918,1.9,9.48,9.48,0,0,1-1.2,1.7,12.261,12.261,0,0,0,6.288-1.808,9.026,9.026,0,0,0,3.967-3.458,1.837,1.837,0,0,1-1.46-.269,5.469,5.469,0,0,1-1.121-1.043l-1.1-1.241a4.96,4.96,0,0,1-.683-.9,2.482,2.482,0,0,1-.294-1.444,8.271,8.271,0,0,1-1.464,1.216c-.79.517-1.655.889-2.453,1.4-.281.182-.906.476-.745.827S657.123,643.307,657.347,643.7Z" transform="translate(-396.051 -423.628)" opacity="0.1"/>
    <path id="Path_1591" data-name="Path 1591" d="M647.819,650.235a1.866,1.866,0,0,0,0,2.155c.062.079.3.571.414.575a.376.376,0,0,0,.252-.128,17.519,17.519,0,0,0,1.4-1.655,3.085,3.085,0,0,1,1.779-1.167,3.892,3.892,0,0,1,2.453.761,2.342,2.342,0,0,1,.827.687,2.255,2.255,0,0,1,.277.935,43.783,43.783,0,0,1,.248,5.941,22.859,22.859,0,0,1-.281,4.273c-.141.728-.352,1.44-.451,2.176a14.622,14.622,0,0,0-.087,1.953v2.73a6.928,6.928,0,0,0,.108,1.493,18.231,18.231,0,0,0,.6,1.733,11.43,11.43,0,0,1,.414,2.068l.372,2.826a3.45,3.45,0,0,1-.335,2.581c-.24.327-.563.583-.827.906-.931,1.183-.621,2.9-1.034,4.369a5.531,5.531,0,0,1-1.8,2.751,2.906,2.906,0,0,1-2.362.827,3.24,3.24,0,0,1-2.151-2.54,9.86,9.86,0,0,0-1.1-3.31,8.727,8.727,0,0,0-2.184-1.828,3.788,3.788,0,0,1-1.7-2.217c-.074-.414-.029-.827-.07-1.241a2.958,2.958,0,0,0-1.828-2.4c-.587-.227-1.316-.31-1.655-.827a3.983,3.983,0,0,0,1.721-2.312,11.871,11.871,0,0,0,.414-2.9l.2-3.285a10.876,10.876,0,0,1,.774-4.245c.29-.587.65-1.142.947-1.725a19.147,19.147,0,0,0,1.018-2.532c.468-1.344.939-2.693,1.357-4.054a8.037,8.037,0,0,1,.745-1.891C646.648,651.1,647.157,650.359,647.819,650.235Z" transform="translate(-386.494 -429.943)" fill="#e8e8f0"/>
    <path id="Path_1592" data-name="Path 1592" d="M642.429,670.78l.869.029.186-1.311a2.834,2.834,0,0,1,.182-.765,4.86,4.86,0,0,1,.5-.732c.856-1.208.794-2.813,1.005-4.282a21.281,21.281,0,0,1,1.911-5.6l1.688-3.761a5.406,5.406,0,0,0,.36-.964,5.281,5.281,0,0,0,.1-1.113c0-.579.19-2.693.2-3.276,0-.215-.472-.1-.571-.285-.211-.414-.5.712-.9.96a2.2,2.2,0,0,0-.778,1.138c-.364.947-.587,1.944-.927,2.9a5.953,5.953,0,0,1-1.576,2.561c-.343.306-.745.546-1.072.869-1.051,1.038-1.15,2.677-1.187,4.137C642.4,662.187,642.235,670.78,642.429,670.78Z" transform="translate(-388.398 -429.146)" fill="#2f2e41"/>
    <path id="Path_1593" data-name="Path 1593" d="M661.572,646.654a3.009,3.009,0,0,0-1.543,2.126,10.4,10.4,0,0,1-.79,2.606c-1.059,1.845-3.76,2.383-4.509,4.377a8.006,8.006,0,0,0-.3,2.068c-.132,1.427-.6,2.809-.745,4.236a18.673,18.673,0,0,0,.079,3.33l.947,11.265a14.892,14.892,0,0,1-.286,4.964,4.769,4.769,0,0,0,2.838-.468c.889-.414,1.7-.96,2.552-1.431a25.921,25.921,0,0,0,4.373-2.482,2.592,2.592,0,0,0,.592-.649,5.589,5.589,0,0,0,.414-1.485,8.344,8.344,0,0,1,.414-1.167,34.637,34.637,0,0,0,1.241-3.475,18.71,18.71,0,0,0,.567-2.387c.1-.641.157-1.291.215-1.936a11.4,11.4,0,0,1,.6-2.979,23.882,23.882,0,0,0,1.378-7.136,3.572,3.572,0,0,0-.07-1.051,5.631,5.631,0,0,0-.571-1.191c-.393-.741-.629-1.556-1-2.3a11.214,11.214,0,0,0-3.864-4.062C663.305,646.9,662.432,646.327,661.572,646.654Z" transform="translate(-395.026 -427.931)" fill="#2f2e41"/>
    <path id="Path_1594" data-name="Path 1594" d="M610.5,685.863a6.785,6.785,0,0,1-1.8-1.365c-.236-.277-.414-.587-.67-.86a4.423,4.423,0,0,0-2.263-1.291,10.917,10.917,0,0,0-2.623-.252,4.658,4.658,0,0,0-1.742.211,1.758,1.758,0,0,0-1.158,1.241,2.042,2.042,0,0,0,.881,1.833,4.257,4.257,0,0,0,1.758.856,14.574,14.574,0,0,0,1.589.186c3.128.327,5.92,2.027,8.659,3.578q3.612,2.04,7.364,3.818a14.749,14.749,0,0,0,.124-2.259c0-.563-.041-1.423-.575-1.754a11.789,11.789,0,0,0-2.341-.707A37.149,37.149,0,0,1,613,687.2C612.13,686.777,611.3,686.335,610.5,685.863Z" transform="translate(-363.709 -448.759)" fill="#fbbebe"/>
    <ellipse id="Ellipse_289" data-name="Ellipse 289" cx="5.572" cy="5.606" rx="5.572" ry="5.606" transform="translate(254.896 208.224)" fill="#fbbebe"/>
    <path id="Path_1595" data-name="Path 1595" d="M657.212,661.14a9.058,9.058,0,0,0-1.08,2.015c-.691,1.419-1.771,2.635-2.308,4.137-.571,1.56-.55,3.417-1.655,4.646a1.6,1.6,0,0,0-.484.7,3.5,3.5,0,0,1-.058.509c-.157.447-.89.467-1.026.923-.037.132,0,.277-.066.414-.112.294-.5.335-.757.513-.542.368-.414,1.22-.827,1.75a1.468,1.468,0,0,1-1.39.488,5.157,5.157,0,0,1-1.448-.542,1.3,1.3,0,0,0-.517-.161,1.055,1.055,0,0,0-.6.2,3.7,3.7,0,0,0-1.506,3.177,10.343,10.343,0,0,0,.856,3.549,1.494,1.494,0,0,0,.285.53,1.242,1.242,0,0,0,1.39.1,6.468,6.468,0,0,1,1.353-.6c.861-.157,1.7.438,2.577.389a3.632,3.632,0,0,0,1.742-.769,9.636,9.636,0,0,0,2.35-2.006c.381-.5.662-1.071,1-1.605a18.2,18.2,0,0,1,1.407-1.878l3.214-3.934a8.447,8.447,0,0,0,.865-1.2,8.761,8.761,0,0,0,.674-1.8,14.2,14.2,0,0,0,.666-3.2,12.763,12.763,0,0,0-.236-2.685,9.327,9.327,0,0,0-.691-2.552C660.224,660.809,658.523,659.609,657.212,661.14Z" transform="translate(-389.074 -436.062)" fill="#2f2e41"/>
    <path id="Path_1596" data-name="Path 1596" d="M663.955,618.75a6.275,6.275,0,0,0-2.581-5.1,7.446,7.446,0,0,0-6.334-7.26,7.24,7.24,0,0,0-14.26.385c-2.317-.521-4.435.157-4.82,1.584-.414,1.493,1.241,3.239,3.69,3.9a6.777,6.777,0,0,0,2.362.236A7.26,7.26,0,0,0,647,615.6a7.418,7.418,0,0,0,5.44,5.614,6.205,6.205,0,0,0,1.68,2.325c0,.174-.029.352-.029.534a4.72,4.72,0,1,0,9.432,0,4.964,4.964,0,0,0-.451-2.069A6.342,6.342,0,0,0,663.955,618.75Z" transform="translate(-384.622 -400.974)" fill="#f86d70"/>
    <path id="Path_1597" data-name="Path 1597" d="M637.509,608.6c.385-1.427,2.482-2.106,4.82-1.584a7.36,7.36,0,0,1,7.169-6.205h.48a7.035,7.035,0,0,0-2.068-.306,7.36,7.36,0,0,0-7.169,6.205c-2.317-.521-4.435.157-4.819,1.584-.414,1.493,1.241,3.239,3.69,3.9a7.086,7.086,0,0,0,1.394.24C638.679,611.752,637.116,610.056,637.509,608.6Z" transform="translate(-384.598 -400.926)" opacity="0.1"/>
    <path id="Path_1598" data-name="Path 1598" d="M664.59,641.6a3.326,3.326,0,0,1,.029-.538,6.182,6.182,0,0,1-1.68-2.321,7.446,7.446,0,0,1-5.44-5.618,7.248,7.248,0,0,1-4.989-3.1,6.591,6.591,0,0,1-1.39-.037,7.236,7.236,0,0,0,4.807,2.855,7.417,7.417,0,0,0,5.44,5.614,6.205,6.205,0,0,0,1.68,2.325c0,.174-.029.352-.029.534a4.8,4.8,0,0,0,4.691,4.882,4.873,4.873,0,0,1-3.119-4.592Z" transform="translate(-393.547 -418.211)" opacity="0.1"/>
    <ellipse id="Ellipse_290" data-name="Ellipse 290" cx="0.86" cy="1.146" rx="0.86" ry="1.146" transform="translate(260.947 214.578) rotate(-37.22)" fill="#fbbebe"/>
    <path id="Path_1599" data-name="Path 1599" d="M315.154,693.47l5.51-3.239a13.237,13.237,0,0,0-2.817-3.372l-10.392,3.231L315.6,685.3A13.238,13.238,0,0,0,296,696.916c0,7.31,5.928,7.562,13.238,7.562s13.238-.252,13.238-7.562a13.134,13.134,0,0,0-1.138-5.378Z" transform="translate(-185.338 -449.694)" fill="#81d8d0"/>
    <path id="Path_1600" data-name="Path 1600" d="M316.556,712.581a10.342,10.342,0,0,0-1.953-1.535,9.015,9.015,0,0,0-3.214-1.568,24.284,24.284,0,0,0-3.156-.091,7.376,7.376,0,0,1-4.836-2.217,14.825,14.825,0,0,0-2.25-2.329,4.923,4.923,0,0,0-3.367-.616,8.191,8.191,0,0,0-1,.2A13.238,13.238,0,0,0,296,708.92c0,7.31,5.928,7.562,13.238,7.562,3.549,0,6.768-.058,9.147-.956l-.414-.74A10.292,10.292,0,0,0,316.556,712.581Z" transform="translate(-185.338 -461.697)" opacity="0.1"/>
  </g>
</svg>
