<svg xmlns="http://www.w3.org/2000/svg" xmlns:xlink="http://www.w3.org/1999/xlink" width="465.505" height="313.091" viewBox="0 0 465.505 313.091">
  <defs>
    <linearGradient id="linear-gradient" x1="0.081" y1="1" x2="0.081" gradientUnits="objectBoundingBox">
      <stop offset="0" stop-color="gray" stop-opacity="0.251"/>
      <stop offset="0.54" stop-color="gray" stop-opacity="0.122"/>
      <stop offset="1" stop-color="gray" stop-opacity="0.102"/>
    </linearGradient>
  </defs>
  <g id="Illustration" transform="translate(0)">
    <ellipse id="Ellipse_253" data-name="Ellipse 253" cx="57.695" cy="4.063" rx="57.695" ry="4.063" transform="translate(255.912 304.965)" fill="#81d8d0" opacity="0.1"/>
    <path id="Path_1355" data-name="Path 1355" d="M492.655,249.214A108.914,108.914,0,0,1,366.5,356.69H193.939a147.926,147.926,0,0,1-20.112,1.373q-7.244,0-14.314-.691A146.682,146.682,0,1,1,313.4,166.205a108.844,108.844,0,0,1,179.254,83.008Z" transform="translate(-27.15 -64.71)" fill="#81d8d0" opacity="0.1"/>
    <path id="Path_1356" data-name="Path 1356" d="M460.8,538.978a109.016,109.016,0,0,1-84.341,21.717H203.895a147.917,147.917,0,0,1-20.112,1.373q-7.244,0-14.314-.691A146.745,146.745,0,0,1,43.92,459.716c14.05-30.022,50.146-51.386,92.467-51.386,41.24,0,76.589,20.291,91.342,49.11a122.635,122.635,0,0,1,22.018-1.979c42.743,0,79.136,21.807,92.878,52.279a120.116,120.116,0,0,1,35.109-5.164C412.594,502.593,443.234,517.086,460.8,538.978Z" transform="translate(-37.106 -268.715)" fill="#81d8d0" opacity="0.1"/>
    <path id="Path_1357" data-name="Path 1357" d="M263.121,679.759c0,10.41-3.994,16.061-10.536,19.125a145.892,145.892,0,0,1-68.666-25.02A39.445,39.445,0,0,1,186.9,663.6l18.6,5.786-16.569-9.751a39.871,39.871,0,0,1,8.471-10.133l31.257,9.719-24.488-14.383a39.818,39.818,0,0,1,56.594,21.416l.085.244c.065.183.13.366.191.553q.329.971.605,1.962c.069.236.134.471.191.711s.118.455.171.683.1.406.138.593c.028.122.057.244.081.366.045.2.085.406.122.589.057.284.114.573.163.857s.1.593.146.89.1.658.138.991.073.593.1.89c0,.093.02.183.028.276.028.26.049.52.069.78a.855.855,0,0,1,0,.1q.037.488.061.975t.037.951a.681.681,0,0,1,0,.093C263.117,679.088,263.121,679.422,263.121,679.759Z" transform="translate(-120.224 -406.221)" fill="#81d8d0"/>
    <path id="Path_1358" data-name="Path 1358" d="M296.107,717.043c0,10.41-3.994,16.061-10.536,19.125a145.635,145.635,0,0,1-46.091-12.287l.666-.443c3.011-1.995,6.123-4.035,9.666-4.713,3.116-.6,6.33-.093,9.5-.272a22.213,22.213,0,0,0,14.55-6.668c2.263-2.34,4.063-5.213,6.765-7a14.82,14.82,0,0,1,10.133-1.861,26.869,26.869,0,0,1,3,.614l.085.244c.065.183.13.366.191.553q.329.971.605,1.962c.069.236.134.471.191.711s.118.455.171.683.1.406.138.593c.028.122.057.244.081.366.045.2.085.406.122.589.057.284.114.573.163.857s.1.593.146.89.1.658.138.991.073.593.1.89c0,.093.02.183.028.276.028.26.049.52.069.78a.854.854,0,0,1,0,.1q.037.488.061.975t.037.951a.692.692,0,0,1,0,.093C296.1,716.372,296.107,716.705,296.107,717.043Z" transform="translate(-153.209 -443.505)" opacity="0.1"/>
    <path id="Path_1359" data-name="Path 1359" d="M935.916,737.044a15.032,15.032,0,0,1-.325,3.153c-.041.2-.085.386-.13.573-1.154,4.628-4.408,8.012-8.293,8.228h-.406c-4.108,0-7.582-3.543-8.727-8.423-.033-.13-.061-.26-.089-.406a15.044,15.044,0,0,1-.325-3.153c0-6.611,4.092-11.966,9.142-11.966S935.916,730.434,935.916,737.044Z" transform="translate(-555.817 -456.75)" fill="#3f3d56"/>
    <path id="Path_1360" data-name="Path 1360" d="M935.94,737.074a15.031,15.031,0,0,1-.325,3.153c-.041.2-.085.386-.13.573h-.406a18.594,18.594,0,0,1-2.99-.406,18.258,18.258,0,0,1-2.665.609,18.636,18.636,0,0,1-2.089.2h-.707a18.866,18.866,0,0,1-2.5-.167,18.358,18.358,0,0,1-3.927-.975,18.5,18.5,0,0,1-2.121.569c-.033-.13-.061-.26-.089-.406a15.044,15.044,0,0,1-.325-3.153c0-6.611,4.091-11.966,9.142-11.966S935.94,730.463,935.94,737.074Z" transform="translate(-555.84 -456.779)" opacity="0.1"/>
    <path id="Path_1361" data-name="Path 1361" d="M923.417,660.352a18.5,18.5,0,0,0-1.991-8.374l-10.751,3.344,9.438-5.546a18.572,18.572,0,0,0-13.961-7.959A18.553,18.553,0,0,0,904.7,639.9l-15.44,4.807,12.665-7.448a18.58,18.58,0,0,0-29.254,9.91L885.9,662.392l-14.347-10.377a18.584,18.584,0,0,0,16.63,32.789,18.658,18.658,0,0,0,11.9.329,18.6,18.6,0,0,0,22.578-18.162c0-.406,0-.813-.041-1.219A18.537,18.537,0,0,0,923.417,660.352Z" transform="translate(-523.815 -402.348)" fill="#81d8d0"/>
    <path id="Path_1362" data-name="Path 1362" d="M923.055,701.953a49.529,49.529,0,0,0-17.2-.219c-6.456,1.069-13.055,3.417-19.369,1.7-3.706-1.008-6.907-3.34-10.527-4.636a19.983,19.983,0,0,0-10.869-.65,18.593,18.593,0,0,0,23.034,24.809,18.658,18.658,0,0,0,11.9.329,18.6,18.6,0,0,0,22.6-18.162c0-.406,0-.813-.041-1.219A18.345,18.345,0,0,0,923.055,701.953Z" transform="translate(-523.774 -440.503)" opacity="0.1"/>
    <rect id="Rectangle_321" data-name="Rectangle 321" width="3.6" height="29.668" rx="1.8" transform="translate(287.238 101.747)" fill="#3a3768"/>
    <rect id="Rectangle_322" data-name="Rectangle 322" width="2.019" height="9.768" rx="1.01" transform="translate(167.605 78.502)" fill="#3a3768"/>
    <rect id="Rectangle_323" data-name="Rectangle 323" width="2.275" height="17" rx="1.138" transform="translate(167.532 96.388)" fill="#3a3768"/>
    <rect id="Rectangle_324" data-name="Rectangle 324" width="2.166" height="17.146" rx="1.083" transform="translate(167.569 119.336)" fill="#3a3768"/>
    <rect id="Rectangle_325" data-name="Rectangle 325" width="120.429" height="244.755" rx="14" transform="translate(168.751 46.225)" fill="#3f3d56"/>
    <rect id="Rectangle_326" data-name="Rectangle 326" width="16.817" height="3.413" rx="1.706" transform="translate(217.349 53.535)" fill="#e6e8ec"/>
    <circle id="Ellipse_254" data-name="Ellipse 254" cx="1.938" cy="1.938" r="1.938" transform="translate(236.706 53.303)" fill="#e6e8ec"/>
    <path id="Path_1363" data-name="Path 1363" d="M556.764,194.17H542.99v1.662a7.874,7.874,0,0,1-7.874,7.874H491.161a7.874,7.874,0,0,1-7.874-7.874V194.17H470.35a9.56,9.56,0,0,0-9.56,9.564V416.61a9.56,9.56,0,0,0,9.56,9.564h86.413a9.564,9.564,0,0,0,9.564-9.564V203.734a9.564,9.564,0,0,0-9.564-9.564Z" transform="translate(-284.599 -141.57)" fill="#81d8d0"/>
    <rect id="Rectangle_327" data-name="Rectangle 327" width="60.54" height="9.751" transform="translate(180.615 90.797)" stroke="#81d8d0" stroke-miterlimit="10" stroke-width="1" opacity="0.1"/>
    <circle id="Ellipse_255" data-name="Ellipse 255" cx="13.002" cy="13.002" r="13.002" transform="translate(182.24 131.428)" stroke="#81d8d0" stroke-miterlimit="10" stroke-width="1" opacity="0.1"/>
    <path id="Path_1364" data-name="Path 1364" d="M498.68,407.97v4.876h3.25l4.063,4.246V403.72l-4.063,4.25Z" transform="translate(-307.094 -265.978)" fill="#fff"/>
    <circle id="Ellipse_256" data-name="Ellipse 256" cx="13.002" cy="13.002" r="13.002" transform="translate(216.776 131.428)" stroke="#81d8d0" stroke-miterlimit="10" stroke-width="1" opacity="0.1"/>
    <path id="Path_1365" data-name="Path 1365" d="M583.745,413.141a1.552,1.552,0,1,0,1.544,1.552,1.552,1.552,0,0,0-1.544-1.552Zm-4.551-13.961a1.552,1.552,0,1,0,1.54,1.552,1.552,1.552,0,0,0-1.54-1.552Zm0,4.656a1.552,1.552,0,1,0,1.54,1.548,1.552,1.552,0,0,0-1.54-1.548Zm0,4.652a1.552,1.552,0,1,0,1.54,1.552,1.552,1.552,0,0,0-1.54-1.552Zm9.1-6.2a1.552,1.552,0,1,0-1.544-1.552,1.552,1.552,0,0,0,1.544,1.552Zm-4.551,6.2a1.552,1.552,0,1,0,1.544,1.552A1.552,1.552,0,0,0,583.745,408.488Zm4.551,0a1.552,1.552,0,1,0,1.544,1.552A1.552,1.552,0,0,0,588.3,408.488Zm0-4.652a1.552,1.552,0,1,0,1.544,1.548,1.552,1.552,0,0,0-1.544-1.548Zm-4.551,0a1.552,1.552,0,1,0,1.544,1.548A1.552,1.552,0,0,0,583.745,403.836Zm0-4.656a1.552,1.552,0,1,0,1.544,1.552A1.552,1.552,0,0,0,583.745,399.18Z" transform="translate(-353.967 -263.283)" fill="#fff"/>
    <g id="Group_79" data-name="Group 79" transform="translate(182.24 170.433)" opacity="0.4">
      <circle id="Ellipse_257" data-name="Ellipse 257" cx="13.002" cy="13.002" r="13.002" stroke="#81d8d0" stroke-miterlimit="10" stroke-width="1" opacity="0.1"/>
      <path id="Path_1366" data-name="Path 1366" d="M504.869,508.087h-5.282v5.282h-1.625v-5.282H492.68v-1.625h5.282V501.18h1.625v5.282h5.282Z" transform="translate(-485.773 -494.273)" fill="#fff"/>
    </g>
    <circle id="Ellipse_258" data-name="Ellipse 258" cx="13.002" cy="13.002" r="13.002" transform="translate(251.312 131.428)" stroke="#81d8d0" stroke-miterlimit="10" stroke-width="1" opacity="0.1"/>
    <path id="Path_1367" data-name="Path 1367" d="M666.992,400.67a7.411,7.411,0,0,0-7.313,7.509v5.839a2.47,2.47,0,0,0,2.438,2.5h2.438v-6.708H661.3v-1.625a5.688,5.688,0,1,1,11.377,0v1.625h-3.25v6.7h2.438a2.466,2.466,0,0,0,2.438-2.5v-5.835a7.411,7.411,0,0,0-7.314-7.509Z" transform="translate(-402.678 -264.167)" fill="#fff"/>
    <g id="Group_80" data-name="Group 80" transform="translate(216.776 170.433)" opacity="0.4">
      <circle id="Ellipse_259" data-name="Ellipse 259" cx="13.002" cy="13.002" r="13.002" stroke="#81d8d0" stroke-miterlimit="10" stroke-width="1" opacity="0.1"/>
      <path id="Path_1368" data-name="Path 1368" d="M585.082,506.647V503.4a.939.939,0,0,0-.951-.926H572.617a.939.939,0,0,0-.947.926v9.268a.943.943,0,0,0,.947.926h11.511a.943.943,0,0,0,.951-.926v-3.25l3.657,3.706V502.941Z" transform="translate(-567.205 -495.038)" fill="#fff"/>
    </g>
    <circle id="Ellipse_260" data-name="Ellipse 260" cx="13.002" cy="13.002" r="13.002" transform="translate(251.312 170.433)" stroke="#81d8d0" stroke-miterlimit="10" stroke-width="1" opacity="0.1"/>
    <path id="Path_1369" data-name="Path 1369" d="M664.57,511.952a4.648,4.648,0,0,1-4.587,0,5.426,5.426,0,0,0-3.3,3.961h11.194A5.418,5.418,0,0,0,664.57,511.952Zm-2.292-8.532a4.035,4.035,0,1,0,4.031,4.031,4.034,4.034,0,0,0-4.031-4.031Zm0,7.1a3.112,3.112,0,0,1-2.82-1.926h5.635a3.112,3.112,0,0,1-2.816,1.93Z" transform="translate(-400.898 -325.169)" fill="#fff"/>
    <path id="Path_1370" data-name="Path 1370" d="M679.539,510.365h6a4.99,4.99,0,0,0-3.3-3.657,4.66,4.66,0,0,1-2.3.605,4.573,4.573,0,0,1-1.585-.268,5.474,5.474,0,0,1-1.065,1.333A5.188,5.188,0,0,1,679.539,510.365Zm-.61-7.009h3.827a3.112,3.112,0,0,1-2.82,1.918,2.949,2.949,0,0,1-.967-.171,4.87,4.87,0,0,1-.248.955,4.034,4.034,0,1,0-2.182-6.009A4.977,4.977,0,0,1,678.929,503.356Z" transform="translate(-412.689 -322.058)" fill="#fff"/>
    <circle id="Ellipse_261" data-name="Ellipse 261" cx="13.002" cy="13.002" r="13.002" transform="translate(216.776 222.44)" fill="#ff6f61"/>
    <path id="Path_1371" data-name="Path 1371" d="M571.38,641.81a9.594,9.594,0,0,1,2.4-1.658.76.76,0,0,0,.451-.707l.069-2.527a12.214,12.214,0,0,1,7.582.2l-.069,2.527a.841.841,0,0,0,.406.731,8.9,8.9,0,0,1,2.365,1.788.813.813,0,0,0,1.15.032l2.064-1.958a.813.813,0,0,0,.032-1.146,13.814,13.814,0,0,0-19.531-.528.813.813,0,0,0-.028,1.15l1.954,2.064a.813.813,0,0,0,1.15.028Z" transform="translate(-348.278 -403.157)" fill="#fff"/>
    <circle id="Ellipse_262" data-name="Ellipse 262" cx="10.158" cy="10.158" r="10.158" transform="translate(255.782 88.766)" stroke="#81d8d0" stroke-miterlimit="10" stroke-width="1" opacity="0.1"/>
    <path id="Path_1372" data-name="Path 1372" d="M675.795,301.322a4.656,4.656,0,0,1-4.591,0,5.426,5.426,0,0,0-3.3,3.966h11.2A5.425,5.425,0,0,0,675.795,301.322Zm-2.3-8.532a4.035,4.035,0,1,0,4.031,4.035,4.035,4.035,0,0,0-4.031-4.035Zm0,7.106a3.121,3.121,0,0,1-2.82-1.926h5.64a3.129,3.129,0,0,1-2.82,1.93Z" transform="translate(-407.559 -200.12)" fill="#fff"/>
    <path id="Path_1373" data-name="Path 1373" d="M400.217,125.027a2.335,2.335,0,0,0-2.877.857,7.133,7.133,0,0,0-1,3.1c-.362,2.4-.626,5.16,1,6.972a22.673,22.673,0,0,0-18.69-15.086" transform="translate(-235.833 -98.052)" fill="none" stroke="#81d8d0" stroke-miterlimit="10" stroke-width="3" opacity="0.1"/>
    <path id="Path_1374" data-name="Path 1374" d="M815.515,453.426a1.517,1.517,0,0,0-1.849.553,4.4,4.4,0,0,0-.642,1.991c-.232,1.548-.406,3.32.642,4.469a14.57,14.57,0,0,0-12.006-9.7" transform="translate(-486.972 -293.894)" fill="none" stroke="#81d8d0" stroke-miterlimit="10" stroke-width="3" opacity="0.1"/>
    <path id="Path_1375" data-name="Path 1375" d="M306.015,324.152a1.522,1.522,0,0,0-1.849.553,4.4,4.4,0,0,0-.642,1.995c-.232,1.544-.406,3.315.642,4.469a14.578,14.578,0,0,0-12.006-9.7" transform="translate(-184.485 -217.147)" fill="none" stroke="#81d8d0" stroke-miterlimit="10" stroke-width="3" opacity="0.1"/>
    <path id="Path_1376" data-name="Path 1376" d="M723.665,609.543a4.523,4.523,0,0,0,1.906,1.658,90.475,90.475,0,0,0,16.073,7.236,1.073,1.073,0,0,0,1.56-.605,7.667,7.667,0,0,0,1.178-4.27,2.381,2.381,0,0,0,1.069-1.43,7.109,7.109,0,0,1,.991-2.031,8.363,8.363,0,0,0,1.8-3.689,6.365,6.365,0,0,1,.142-1.479,5.343,5.343,0,0,1,1.219-1.576,8.024,8.024,0,0,0,1.3-2.881c1.268-4.238,2.535-8.476,3.592-12.778.341-1.394.658-2.791,1.125-4.144.406-1.186.926-2.324,1.442-3.462a91.93,91.93,0,0,1,6.424-11.913,31.89,31.89,0,0,0,1.377,3.754c.276.63.573,1.251.853,1.881,1.06,2.373.87,5.42,2.174,7.651q.813,1.373,1.6,2.743a5.52,5.52,0,0,1,.687,1.451c.085.358.093.731.154,1.093.276,1.625,1.6,2.771,2.328,4.222a22.981,22.981,0,0,1,1.219,4.3c.963,3.372,3.328,6.3,3.567,9.816a25.346,25.346,0,0,1-.069,2.844,24.117,24.117,0,0,0,.329,4.949,1.9,1.9,0,0,0,.13.479A14.359,14.359,0,0,1,768.9,619.4a2.506,2.506,0,0,0-1.845.918,1.715,1.715,0,0,0,.813,2.2,4.253,4.253,0,0,0,2.438.293,88.527,88.527,0,0,0,17.215-3.177,1.467,1.467,0,0,0,.748-.406,1.507,1.507,0,0,0,.248-1.012,8.533,8.533,0,0,0-.894-3.783l.406-.142c.228-1.625-.609-3.2-1.26-4.705-1.13-2.629-1.747-5.469-2.641-8.2-1.723-5.282-4.506-10.211-5.176-15.736-.183-1.52-.638-3.063-.735-4.591a59.406,59.406,0,0,0-1.085-9.272c-.569-2.495-1.467-4.876-2.031-7.4a14.029,14.029,0,0,1,.081-7.59c.236-.691.553-1.345.768-2.031.813-2.686.037-5.595-.752-8.293q-.374-1.28-.739-2.552c-.329-1.117-.654-2.239-1.012-3.348.049-.045.093-.089.142-.142.715-.813.707-2.056,1.219-3.027.252-.5.634-.91.9-1.4a5.12,5.12,0,0,0,.37-3.389c-.215-1.138-.646-2.219-.971-3.328a18.088,18.088,0,0,1-.2-9.345,20.873,20.873,0,0,0,.882-3.953,11.532,11.532,0,0,0-.248-2.694c-.63-3.413-1.865-6.875-4.372-9.13-1.337-1.219-3.145-2.287-3.287-4.14a1.036,1.036,0,0,0-.674-.024,7.253,7.253,0,0,1-.228-1.288H767a1.657,1.657,0,0,0,.374,0,.743.743,0,0,0,.3-.085.856.856,0,0,0,.146-.11,2.645,2.645,0,0,0,.406-.54c.167-.276.317-.573.443-.776s.329-.528.488-.813q.711-1.219,1.32-2.478v-.032c.041-.077.077-.159.114-.236l.049-.11.073-.167c0-.041.037-.085.053-.126s.045-.1.065-.154l.057-.134c.02-.049.036-.1.057-.15a1.359,1.359,0,0,0,.053-.138c.02-.049.036-.1.053-.146s.033-.093.053-.142.028-.1.045-.146l.049-.146a.469.469,0,0,1,.041-.142l.041-.15.037-.142.037-.154a.25.25,0,0,1,.028-.138c.028-.049,0-.106.028-.159s0-.089,0-.134l.024-.159v-1.26a3.225,3.225,0,0,0-.093-.471,4.848,4.848,0,0,0-1.593-2.409,9.977,9.977,0,0,0-2.438-1.467,1.78,1.78,0,0,1-.577-.362,4.52,4.52,0,0,1-.484-.91,2.62,2.62,0,0,0-1.743-1.073,5.13,5.13,0,0,1-1.95-.7.516.516,0,0,0-.171-.1.443.443,0,0,0-.248.053l-1.564.695a.744.744,0,0,0-.861-.614,2.085,2.085,0,0,0-1.012.581.378.378,0,0,1-.093-.374l-1.219.813c-.15.1-.427.122-.406-.065a12.712,12.712,0,0,0-1.751,2.438,5.229,5.229,0,0,0-.382.841h0a.777.777,0,0,1-.053.183.115.115,0,0,0,0,.037,1.339,1.339,0,0,1-.033.167.2.2,0,0,0,0,.049v.211h0a2.248,2.248,0,0,0,0,.236,1.3,1.3,0,0,0,.7,1.081,1.251,1.251,0,0,0,.488.077,6.294,6.294,0,0,0,1.032-.211,2.377,2.377,0,0,1,.333-.057,1.033,1.033,0,0,1,.159,0,.9.9,0,0,1,.585.2l.024.024a6.838,6.838,0,0,0-2.844,5.6,7.045,7.045,0,0,0,.715,3.1.987.987,0,0,0-.508.918,3.121,3.121,0,0,1-.167-.967c-.666-.134-1.15.646-1.39,1.316a32.715,32.715,0,0,0-1.142,4.636c-.207,1.044-.406,2.088-.618,3.133s-.406,2.166-.561,3.25a24.785,24.785,0,0,0,.378,8.447c-.041.089-.077.183-.114.272-.122.325-.467.6-.508.947-.219,2.068,1.089,3.933,2.324,5.554a1.219,1.219,0,0,0,.406.406,1.1,1.1,0,0,0,.573.073,14.684,14.684,0,0,0,1.471-.146c.028.276.061.548.093.813a73.441,73.441,0,0,1,.943,8.772c0,2.938-.561,5.916.565,8.532.187.447.549.813.585,1.276h.069a26.527,26.527,0,0,0-1.682,4.364c-.447,1.763-.54,3.616-1.04,5.363-.427,1.483-1.138,2.844-1.711,4.291a23.567,23.567,0,0,0-1.625,7.358,9.2,9.2,0,0,1-.691,3.376,34.37,34.37,0,0,0-1.723,3.97c-.813,2.414-2.182,4.7-2.438,7.257-.142,1.446.065,2.99-.54,4.3-.236.512-.585.955-.861,1.438a11.625,11.625,0,0,0-.939,2.438l-4.022,13.339a4.356,4.356,0,0,1-.983,1.979c-.374.357-.865.553-1.219.922a3.173,3.173,0,0,0-.715,2.283,4.8,4.8,0,0,0-1.243.406,13.7,13.7,0,0,1-10.763,0,2.473,2.473,0,0,0-2.032-.293A1.731,1.731,0,0,0,723.665,609.543ZM755.711,508.5a8.755,8.755,0,0,1,1.333-3.084c.91-1.5,1.869-2.982,2.739-4.514l.248-.24c.069.2.134.406.2.589a14.179,14.179,0,0,1,.362,1.585,7.635,7.635,0,0,1,.114,2.031l-.057.045a2.165,2.165,0,0,0-.768.857,1.727,1.727,0,0,0,0,1.073l-.037.041.041-.028a4.507,4.507,0,0,1,.321,1.706,5.2,5.2,0,0,1-.991,1.776c-.813,1.418-.553,3.571-1.889,4.441l-.024.057h0a1.926,1.926,0,0,1-1.312-1.081h0C756.089,512.021,755.439,510.242,755.711,508.5Z" transform="translate(-440.531 -312.545)" fill="url(#linear-gradient)"/>
    <path id="Path_1377" data-name="Path 1377" d="M852.008,807.734a1.411,1.411,0,0,1-.256,1,1.581,1.581,0,0,1-.78.406,96.942,96.942,0,0,1-17.934,3.137,4.723,4.723,0,0,1-2.556-.288,1.644,1.644,0,0,1-.813-2.174,2.687,2.687,0,0,1,1.922-.906,15.033,15.033,0,0,0,9.41-6.095,4.363,4.363,0,0,1,1.024-1.186,3.608,3.608,0,0,1,2.739-.224,20.459,20.459,0,0,1,5.249,1.524C851.479,803.72,851.983,806.178,852.008,807.734Z" transform="translate(-503.495 -501.984)" fill="#3f3d56"/>
    <path id="Path_1378" data-name="Path 1378" d="M852.008,807.734a1.411,1.411,0,0,1-.256,1,1.581,1.581,0,0,1-.78.406,96.942,96.942,0,0,1-17.934,3.137,4.723,4.723,0,0,1-2.556-.288,1.644,1.644,0,0,1-.813-2.174,2.687,2.687,0,0,1,1.922-.906,15.033,15.033,0,0,0,9.41-6.095,4.363,4.363,0,0,1,1.024-1.186,3.608,3.608,0,0,1,2.739-.224,20.459,20.459,0,0,1,5.249,1.524C851.479,803.72,851.983,806.178,852.008,807.734Z" transform="translate(-503.495 -501.984)" opacity="0.1"/>
    <path id="Path_1379" data-name="Path 1379" d="M738.6,800.772a1.442,1.442,0,0,1-.76.7,1.556,1.556,0,0,1-.865-.1,97.035,97.035,0,0,1-16.748-7.139,4.686,4.686,0,0,1-1.987-1.625,1.666,1.666,0,0,1,.488-2.275,2.626,2.626,0,0,1,2.1.288,14.993,14.993,0,0,0,11.214,0,4.344,4.344,0,0,1,1.507-.439,3.677,3.677,0,0,1,2.438,1.3,20.447,20.447,0,0,1,3.571,4.136C740.359,797.082,739.424,799.451,738.6,800.772Z" transform="translate(-437.303 -495.416)" fill="#3f3d56"/>
    <path id="Path_1380" data-name="Path 1380" d="M738.6,800.772a1.442,1.442,0,0,1-.76.7,1.556,1.556,0,0,1-.865-.1,97.035,97.035,0,0,1-16.748-7.139,4.686,4.686,0,0,1-1.987-1.625,1.666,1.666,0,0,1,.488-2.275,2.626,2.626,0,0,1,2.1.288,14.993,14.993,0,0,0,11.214,0,4.344,4.344,0,0,1,1.507-.439,3.677,3.677,0,0,1,2.438,1.3,20.447,20.447,0,0,1,3.571,4.136C740.359,797.082,739.424,799.451,738.6,800.772Z" transform="translate(-437.303 -495.416)" opacity="0.1"/>
    <path id="Path_1381" data-name="Path 1381" d="M791.121,624.694c.605,1.625,1.113,3.25,1.625,4.876l.772,2.519c.813,2.661,1.625,5.53.784,8.183-.224.687-.553,1.333-.813,2.031a13.272,13.272,0,0,0-.085,7.492c.577,2.466,1.511,4.835,2.1,7.314a54.58,54.58,0,0,1,1.13,9.146c.1,1.507.573,3.031.768,4.53.7,5.449,3.6,10.332,5.392,15.525.93,2.694,1.572,5.493,2.755,8.089.674,1.487,1.548,3.027,1.312,4.64a12.717,12.717,0,0,1-10.076-.455,1.032,1.032,0,0,1-.683-.947,22.42,22.42,0,0,1-.325-4.876,23.775,23.775,0,0,0,.069-2.8c-.248-3.466-2.714-6.355-3.714-9.686a21.087,21.087,0,0,0-1.292-4.242c-.764-1.43-2.137-2.572-2.438-4.165-.065-.358-.073-.723-.158-1.077a5.4,5.4,0,0,0-.719-1.434l-1.658-2.718c-1.361-2.2-1.162-5.209-2.263-7.549-.293-.622-.605-1.219-.894-1.853a31.025,31.025,0,0,1-1.434-3.705,88.67,88.67,0,0,0-6.7,11.738,36.456,36.456,0,0,0-1.5,3.417c-.488,1.333-.813,2.714-1.174,4.087-1.1,4.246-2.438,8.427-3.742,12.6a7.853,7.853,0,0,1-1.349,2.844,5.317,5.317,0,0,0-1.268,1.556,5.972,5.972,0,0,0-.146,1.455c-.13,1.377-1.085,2.511-1.877,3.657a6.864,6.864,0,0,0-1.032,2.031,2.381,2.381,0,0,1-3.25,1.524H759.2a7.149,7.149,0,0,1-.926-.553,17.11,17.11,0,0,1-2.182-1.625,12.6,12.6,0,0,1-1.625-1.918.926.926,0,0,1,.463-1.406h0c-.085-1.13-.11-2.418.7-3.2.378-.366.89-.561,1.28-.91a4.225,4.225,0,0,0,1.024-1.95q2.08-6.55,4.152-13.1a11.138,11.138,0,0,1,.979-2.414c.288-.479.65-.914.9-1.418.63-1.292.406-2.812.561-4.242.264-2.523,1.678-4.774,2.535-7.155a33.119,33.119,0,0,1,1.8-3.921,8.6,8.6,0,0,0,.719-3.328,22.224,22.224,0,0,1,1.69-7.261,44.226,44.226,0,0,0,1.78-4.234c.524-1.723.618-3.551,1.089-5.282a25.386,25.386,0,0,1,1.759-4.323,11.721,11.721,0,0,1,2.166-3.413,9.108,9.108,0,0,1,6.16-2.129C786.444,624.6,788.906,624.926,791.121,624.694Z" transform="translate(-458.856 -397.147)" fill="#3f3d56"/>
    <path id="Path_1382" data-name="Path 1382" d="M809.676,531.692q4.291-2.535,8.488-5.233a5.392,5.392,0,0,1-1.06-3.116v-.134c-.041-1.093.374-2.032-1-1.889a26.16,26.16,0,0,0-3.913.813,37.823,37.823,0,0,1-3.657,1.142,7.8,7.8,0,0,1,1.532,2.868,13.927,13.927,0,0,1,.378,1.564C810.716,529.1,810.728,530.745,809.676,531.692Z" transform="translate(-491.051 -335.787)" fill="#a0616a"/>
    <path id="Path_1383" data-name="Path 1383" d="M801.521,555.649a68.506,68.506,0,0,1,.983,8.65c0,2.893-.585,5.839.589,8.431.2.439.569.78.609,1.26,1.625.28,3.21-.479,4.758-1.028a19.326,19.326,0,0,1,4.388-.983c1.219-.122,2.47-.13,3.681-.362a5.729,5.729,0,0,0,3.181-1.625c.744-.813.735-2.032,1.255-2.986.264-.492.662-.894.943-1.377a4.831,4.831,0,0,0,.382-3.344A33.958,33.958,0,0,0,821.28,559a16.874,16.874,0,0,1-.2-9.215,20.487,20.487,0,0,0,.918-3.9,10.862,10.862,0,0,0-.256-2.657c-.658-3.364-1.946-6.781-4.555-9-1.394-1.19-3.279-2.259-3.425-4.063-.6-.236-1.247.167-1.763.548l-5.794,4.27a2.17,2.17,0,0,0-.813.849c-.362.866.471,1.816.337,2.751-.1.679-.674,1.17-1.032,1.755-.853,1.394-.577,3.519-1.971,4.376-.126.26-.244.528-.349.813a19.762,19.762,0,0,0-1,4.388A22.831,22.831,0,0,0,801.521,555.649Z" transform="translate(-486.735 -341.002)" fill="#3f3d56"/>
    <path id="Path_1384" data-name="Path 1384" d="M808.57,522.932A7.8,7.8,0,0,1,810.1,525.8a6.426,6.426,0,0,0,1.406.154c2.365,0,3.949-2.71,5.123-4.571-.037-1.093.87-.549-.508-.406a26.145,26.145,0,0,0-3.913.813C811.845,521.884,808.676,523.05,808.57,522.932Z" transform="translate(-491.074 -335.438)" opacity="0.1"/>
    <circle id="Ellipse_263" data-name="Ellipse 263" cx="6.647" cy="6.647" r="6.647" transform="translate(313.786 176.666)" fill="#a0616a"/>
    <rect id="Rectangle_328" data-name="Rectangle 328" width="4.985" height="9.694" rx="2.493" transform="translate(317.798 190.704) rotate(-132.39)" fill="#3f3d56"/>
    <rect id="Rectangle_329" data-name="Rectangle 329" width="4.985" height="9.694" rx="2.493" transform="translate(317.798 190.704) rotate(-132.39)" opacity="0.1"/>
    <circle id="Ellipse_264" data-name="Ellipse 264" cx="0.553" cy="0.553" r="0.553" transform="translate(320.295 184.008)" fill="#fff"/>
    <path id="Path_1385" data-name="Path 1385" d="M801.523,563.237c5.128-.756,9.784-3.836,13.347-7.655a6.07,6.07,0,0,0,1.507-2.255,6.806,6.806,0,0,0,.183-2.19l-.085-2.934a8.09,8.09,0,0,0-.711-3.738,2.768,2.768,0,0,0-3.2-1.463c-3.141,1.219-5.184,4.006-6.98,6.858a29.258,29.258,0,0,1-1.678,2.58,1.5,1.5,0,0,1-1.219.727.919.919,0,0,1-.3-.081,19.76,19.76,0,0,0-1,4.388A22.832,22.832,0,0,0,801.523,563.237Z" transform="translate(-486.737 -348.589)" opacity="0.1"/>
    <path id="Path_1386" data-name="Path 1386" d="M794.11,532.24a8.428,8.428,0,0,1,1.39-3.047c1.987-3.108,4.221-6.143,5.282-9.682-1.548.28-1.792,2.946-3.36,3.064l.122-1.922c0-.325,0-.719-.264-.89s-.736.053-.91.374-.211.711-.374,1.04-.544.622-.882.475l-.138-.638A.975.975,0,0,0,793.8,522a2.941,2.941,0,0,1-.175-.955c-.695-.13-1.2.638-1.446,1.3a30.855,30.855,0,0,0-1.195,4.571l-.638,3.092c-.223,1.069-.443,2.137-.589,3.214a23.283,23.283,0,0,0,.447,8.565,27.621,27.621,0,0,0,2.474-1.548,4.332,4.332,0,0,0,1.532-1.9C794.785,536.343,793.773,534.251,794.11,532.24Z" transform="translate(-479.784 -334.722)" fill="#a0616a"/>
    <path id="Path_1387" data-name="Path 1387" d="M805.5,540.963a2.768,2.768,0,0,1,3.2,1.463,8.049,8.049,0,0,1,.711,3.738l.081,2.942a6.71,6.71,0,0,1-.179,2.19,6.143,6.143,0,0,1-1.5,2.255c-3.941,4.222-9.211,7.533-14.981,7.813a1.194,1.194,0,0,1-.6-.073,1.3,1.3,0,0,1-.406-.406c-1.288-1.6-2.649-3.441-2.438-5.481.037-.341.406-.618.528-.934a8.244,8.244,0,0,1,3.994-4.226l.349-.163a2.031,2.031,0,0,0,1.369,1.073,1.536,1.536,0,0,0,1.219-.727,29.3,29.3,0,0,0,1.678-2.584C800.314,544.961,802.361,542.186,805.5,540.963Z" transform="translate(-479.673 -347.378)" fill="#3f3d56"/>
    <path id="Path_1388" data-name="Path 1388" d="M810.291,502.971c-.565-.293-.654-1.044-.711-1.678a16.645,16.645,0,0,0-.337-2.194,3.081,3.081,0,0,0-1.154-2.08,1.686,1.686,0,0,0-2.564,1.255.573.573,0,0,1-.114.378.406.406,0,0,1-.2.1,1.312,1.312,0,0,1-1.54-.87c-.118-.406-.028-.93-.317-1.264s-.63-.325-.91-.544a1.58,1.58,0,0,1-.459-1.3c0-.605.081-1.329-.406-1.7-.735-.573-1.841.337-2.706,0a1.329,1.329,0,0,1-.744-1.3,3.219,3.219,0,0,1,.528-1.487,12.484,12.484,0,0,1,1.824-2.4c0,.179.28.158.435.061l1.284-.78a.345.345,0,0,0,.1.37,2.207,2.207,0,0,1,1.052-.569.772.772,0,0,1,.9.605l1.625-.7a.337.337,0,0,1,.435.045,5.782,5.782,0,0,0,2.031.687,2.751,2.751,0,0,1,1.816,1.06,4.381,4.381,0,0,0,.508.894,1.9,1.9,0,0,0,.613.362,10.646,10.646,0,0,1,2.56,1.442,4.827,4.827,0,0,1,1.662,2.381,6.751,6.751,0,0,1-.93,4.709,30.173,30.173,0,0,1-1.885,3.23c-.26.406-.618,1.174-1.036,1.41A1.942,1.942,0,0,1,810.291,502.971Z" transform="translate(-484.876 -315.31)" fill="#3f3d56"/>
    <path id="Path_1389" data-name="Path 1389" d="M798.908,497.4c.865.333,1.971-.577,2.706,0,.475.374.406,1.1.406,1.7a1.581,1.581,0,0,0,.459,1.3c.28.219.679.272.91.544s.2.841.317,1.264a1.312,1.312,0,0,0,1.54.87.407.407,0,0,0,.2-.1.573.573,0,0,0,.114-.378,1.686,1.686,0,0,1,2.564-1.255,3.118,3.118,0,0,1,1.154,2.08,16.632,16.632,0,0,1,.337,2.194c.057.634.146,1.386.711,1.678a1.942,1.942,0,0,0,1.39.122c.406-.236.776-1.016,1.036-1.41a30.174,30.174,0,0,0,1.885-3.25,10.062,10.062,0,0,0,1-2.763,7.146,7.146,0,0,1-1,4.425,30.174,30.174,0,0,1-1.885,3.23c-.26.406-.618,1.174-1.036,1.41a1.942,1.942,0,0,1-1.39-.122c-.565-.293-.654-1.044-.711-1.678a16.635,16.635,0,0,0-.337-2.194,3.081,3.081,0,0,0-1.154-2.08,1.686,1.686,0,0,0-2.564,1.255.573.573,0,0,1-.114.378.406.406,0,0,1-.2.1,1.312,1.312,0,0,1-1.54-.869c-.118-.406-.028-.93-.317-1.264s-.63-.325-.91-.544a1.581,1.581,0,0,1-.459-1.3c0-.605.081-1.329-.406-1.7-.735-.573-1.841.337-2.706,0a1.329,1.329,0,0,1-.744-1.3,2.365,2.365,0,0,1,.2-.849A1.1,1.1,0,0,0,798.908,497.4Z" transform="translate(-484.894 -321.299)" opacity="0.1"/>
  </g>
</svg>
