<svg xmlns="http://www.w3.org/2000/svg" width="448.631" height="277.508" viewBox="0 0 448.631 277.508">
  <g id="Illustration" transform="translate(0)">
    <path id="Path_1390" data-name="Path 1390" d="M51.073,544.263c2.836,5.26,8.856,7.518,8.856,7.518s1.421-6.27-1.415-11.53-8.856-7.518-8.856-7.518S48.236,539,51.073,544.263Z" transform="translate(-41.571 -361.441)" fill="#3f3d56"/>
    <path id="Path_1391" data-name="Path 1391" d="M41.1,554.323c5.121,3.081,7.093,9.2,7.093,9.2s-6.33,1.124-11.451-1.956-7.093-9.2-7.093-9.2S35.977,551.242,41.1,554.323Z" transform="translate(-29.647 -373.231)" fill="#81d8d0"/>
    <path id="Path_1392" data-name="Path 1392" d="M568.061,192.758c0,42.056-25,56.741-55.843,56.741s-55.843-14.685-55.843-56.741S512.218,97.2,512.218,97.2,568.061,150.7,568.061,192.758Z" transform="translate(-288.546 -97.199)" fill="#f2f2f2"/>
    <path id="Path_1393" data-name="Path 1393" d="M528.92,145.867l.572-35.2,23.8-43.544-23.712,38.023.257-15.826,16.4-31.5L529.907,85.133h0l.463-28.464,17.566-25.081-17.493,20.6L530.731,0l-1.815,69.094.149-2.85L511.205,38.907l17.573,32.808-1.664,31.789-.05-.844L506.476,73.894,527,105.642l-.208,3.976-.037.06.017.326-4.222,80.653h5.641L528.87,149l20.476-31.671Z" transform="translate(-307.283)" fill="#3f3d56"/>
    <path id="Path_1394" data-name="Path 1394" d="M965.061,192.758c0,42.056-25,56.741-55.843,56.741s-55.843-14.685-55.843-56.741S909.218,97.2,909.218,97.2,965.061,150.7,965.061,192.758Z" transform="translate(-529.409 -97.199)" fill="#f2f2f2"/>
    <path id="Path_1395" data-name="Path 1395" d="M925.92,145.867l.572-35.2,23.8-43.544-23.712,38.023.257-15.826,16.4-31.5L926.907,85.133h0l.463-28.464,17.566-25.081-17.493,20.6L927.731,0l-1.815,69.094.149-2.85L908.205,38.907l17.573,32.808-1.664,31.789-.05-.844L903.476,73.894,924,105.642l-.208,3.976-.037.06.017.326-4.222,80.653h5.641L925.87,149l20.476-31.671Z" transform="translate(-548.146)" fill="#3f3d56"/>
    <circle id="Ellipse_265" data-name="Ellipse 265" cx="21.362" cy="21.362" r="21.362" transform="translate(21.592 86.586)" fill="#ff6584"/>
    <path id="Path_1396" data-name="Path 1396" d="M35.466,329.874l-3.136-5.226L61.6,299.561h75.259v7.317L109.68,336.145l-31.358,6.272Z" transform="translate(-19.615 -181.746)" fill="#3f3d56"/>
    <path id="Path_1397" data-name="Path 1397" d="M257.847,311.765V295.411h-9.853v5.157l-3.1-3.525-25.087,25.086-4.181,4.181L210.4,347.216l9.407,23h48.082V323.175Z" transform="translate(-127.65 -179.228)" fill="#ccc"/>
    <rect id="Rectangle_333" data-name="Rectangle 333" width="79.44" height="48.082" transform="translate(12.715 142.901)" fill="#f2f2f2"/>
    <rect id="Rectangle_334" data-name="Rectangle 334" width="16.724" height="14.634" transform="translate(64.456 158.058)" fill="#3f3d56"/>
    <rect id="Rectangle_335" data-name="Rectangle 335" width="14.634" height="33.448" transform="translate(43.028 157.535)" fill="#ccc"/>
    <path id="Path_1398" data-name="Path 1398" d="M57.205,405.781v-5.226H50.934v5.226h6.271Z" transform="translate(-30.902 -243.02)" fill="#3f3d56"/>
    <path id="Path_1399" data-name="Path 1399" d="M56.683,424.474H50.934V429.7h6.271v-5.226Z" transform="translate(-30.902 -257.532)" fill="#3f3d56"/>
    <rect id="Rectangle_336" data-name="Rectangle 336" width="6.272" height="5.226" transform="translate(30.485 157.535)" fill="#3f3d56"/>
    <rect id="Rectangle_337" data-name="Rectangle 337" width="6.272" height="5.226" transform="translate(30.485 166.942)" fill="#3f3d56"/>
    <path id="Path_1400" data-name="Path 1400" d="M281.784,407.11v-5.226h-6.272v5.226h6.272Z" transform="translate(-167.155 -243.826)" fill="#3f3d56"/>
    <path id="Path_1401" data-name="Path 1401" d="M281.261,425.8h-5.749v5.226h6.272V425.8Z" transform="translate(-167.155 -258.338)" fill="#3f3d56"/>
    <rect id="Rectangle_338" data-name="Rectangle 338" width="6.272" height="5.226" transform="translate(118.809 158.058)" fill="#3f3d56"/>
    <rect id="Rectangle_339" data-name="Rectangle 339" width="6.272" height="5.226" transform="translate(118.809 167.465)" fill="#3f3d56"/>
    <path id="Path_1402" data-name="Path 1402" d="M418.975,329.8l-3.136-5.226,29.268-25.087h75.259V306.8l-27.177,29.268-31.358,6.271Z" transform="translate(-252.293 -181.702)" fill="#3f3d56"/>
    <path id="Path_1403" data-name="Path 1403" d="M641.356,311.692V295.338H631.5v5.157l-3.1-3.525-25.086,25.087-4.181,4.181-5.226,20.905,9.408,23H651.4V323.1Z" transform="translate(-360.328 -179.184)" fill="#ccc"/>
    <rect id="Rectangle_340" data-name="Rectangle 340" width="79.44" height="48.082" transform="translate(163.546 142.873)" fill="#f2f2f2"/>
    <rect id="Rectangle_341" data-name="Rectangle 341" width="16.724" height="14.634" transform="translate(215.287 158.029)" fill="#3f3d56"/>
    <rect id="Rectangle_342" data-name="Rectangle 342" width="14.634" height="33.448" transform="translate(193.859 157.506)" fill="#ccc"/>
    <path id="Path_1404" data-name="Path 1404" d="M440.715,405.708v-5.226h-6.272v5.226h6.272Z" transform="translate(-263.58 -242.976)" fill="#3f3d56"/>
    <path id="Path_1405" data-name="Path 1405" d="M440.192,424.4h-5.749v5.226h6.272V424.4Z" transform="translate(-263.58 -257.487)" fill="#3f3d56"/>
    <rect id="Rectangle_343" data-name="Rectangle 343" width="6.272" height="5.226" transform="translate(181.316 157.506)" fill="#3f3d56"/>
    <rect id="Rectangle_344" data-name="Rectangle 344" width="6.272" height="5.226" transform="translate(181.316 166.914)" fill="#3f3d56"/>
    <path id="Path_1406" data-name="Path 1406" d="M665.293,407.037v-5.226h-6.271v5.226h6.271Z" transform="translate(-399.834 -243.782)" fill="#3f3d56"/>
    <path id="Path_1407" data-name="Path 1407" d="M664.771,425.73h-5.749v5.226h6.271V425.73Z" transform="translate(-399.834 -258.294)" fill="#3f3d56"/>
    <rect id="Rectangle_345" data-name="Rectangle 345" width="6.272" height="5.226" transform="translate(269.641 158.029)" fill="#3f3d56"/>
    <rect id="Rectangle_346" data-name="Rectangle 346" width="6.272" height="5.226" transform="translate(269.641 167.436)" fill="#3f3d56"/>
    <path id="Path_1408" data-name="Path 1408" d="M790.975,329.8l-3.136-5.226,29.268-25.087h75.259V306.8l-27.177,29.268-31.358,6.271Z" transform="translate(-477.988 -181.702)" fill="#3f3d56"/>
    <path id="Path_1409" data-name="Path 1409" d="M1013.356,311.692V295.338H1003.5v5.157l-3.1-3.525-25.086,25.087-4.181,4.181-5.226,20.905,9.408,23H1023.4V323.1Z" transform="translate(-586.023 -179.184)" fill="#ccc"/>
    <rect id="Rectangle_347" data-name="Rectangle 347" width="79.44" height="48.082" transform="translate(309.851 142.873)" fill="#f2f2f2"/>
    <rect id="Rectangle_348" data-name="Rectangle 348" width="16.724" height="14.634" transform="translate(361.592 158.029)" fill="#3f3d56"/>
    <rect id="Rectangle_349" data-name="Rectangle 349" width="14.634" height="33.448" transform="translate(340.164 157.506)" fill="#ccc"/>
    <path id="Path_1410" data-name="Path 1410" d="M812.715,405.708v-5.226h-6.272v5.226h6.272Z" transform="translate(-489.275 -242.976)" fill="#3f3d56"/>
    <path id="Path_1411" data-name="Path 1411" d="M812.192,424.4h-5.749v5.226h6.272V424.4Z" transform="translate(-489.275 -257.487)" fill="#3f3d56"/>
    <rect id="Rectangle_350" data-name="Rectangle 350" width="6.272" height="5.226" transform="translate(327.621 157.506)" fill="#3f3d56"/>
    <rect id="Rectangle_351" data-name="Rectangle 351" width="6.272" height="5.226" transform="translate(327.621 166.914)" fill="#3f3d56"/>
    <path id="Path_1412" data-name="Path 1412" d="M1037.293,407.037v-5.226h-6.271v5.226h6.271Z" transform="translate(-625.529 -243.782)" fill="#3f3d56"/>
    <path id="Path_1413" data-name="Path 1413" d="M1036.771,425.73h-5.749v5.226h6.271V425.73Z" transform="translate(-625.529 -258.294)" fill="#3f3d56"/>
    <rect id="Rectangle_352" data-name="Rectangle 352" width="6.272" height="5.226" transform="translate(415.945 158.029)" fill="#3f3d56"/>
    <rect id="Rectangle_353" data-name="Rectangle 353" width="6.272" height="5.226" transform="translate(415.945 167.436)" fill="#3f3d56"/>
    <rect id="Rectangle_354" data-name="Rectangle 354" width="0.787" height="31.07" transform="translate(298.541 159.912)" fill="#3f3d56"/>
    <path id="Path_1414" data-name="Path 1414" d="M785.479,483.572c.05,10.864-7.594,19.707-7.594,19.707s-7.725-8.772-7.775-19.636,7.594-19.707,7.594-19.707S785.428,472.708,785.479,483.572Z" transform="translate(-478.891 -319.701)" fill="#81d8d0"/>
    <rect id="Rectangle_355" data-name="Rectangle 355" width="0.787" height="31.07" transform="translate(155.383 159.125)" fill="#3f3d56"/>
    <path id="Path_1415" data-name="Path 1415" d="M421.479,481.572c.05,10.864-7.594,19.707-7.594,19.707s-7.725-8.772-7.775-19.636,7.594-19.707,7.594-19.707S421.429,470.708,421.479,481.572Z" transform="translate(-258.05 -318.488)" fill="#81d8d0"/>
    <path id="Path_1416" data-name="Path 1416" d="M421.479,481.572c.05,10.864-7.594,19.707-7.594,19.707s-7.725-8.772-7.775-19.636,7.594-19.707,7.594-19.707S421.429,470.708,421.479,481.572Z" transform="translate(-258.05 -318.488)" opacity="0.1"/>
    <rect id="Rectangle_356" data-name="Rectangle 356" width="0.787" height="31.07" transform="translate(145.157 159.125)" fill="#3f3d56"/>
    <path id="Path_1417" data-name="Path 1417" d="M395.479,481.572c.05,10.864-7.594,19.707-7.594,19.707s-7.725-8.772-7.775-19.636,7.594-19.707,7.594-19.707S395.429,470.708,395.479,481.572Z" transform="translate(-242.275 -318.488)" fill="#81d8d0"/>
    <rect id="Rectangle_357" data-name="Rectangle 357" width="447.173" height="0.787" transform="translate(1.458 190.197)" fill="#3f3d56"/>
    <path id="Path_1418" data-name="Path 1418" d="M289.872,520.148s.4.462-.287,1.355-.133,2.832,1.179,2.881,1.947.6,1.631,1.322-.7,2.443.732,2.181,1.88.307,1.627.744.637-.869.637-.869.8,1.186,1.773.356,1.365-8.354-.626-8.481A50.745,50.745,0,0,0,289.872,520.148Z" transform="translate(-187.172 -353.485)" fill="#2f2e41"/>
    <path id="Path_1419" data-name="Path 1419" d="M286.8,514.035l.453,3.177h2.042l-.681-3.63Z" transform="translate(-174.002 -311.594)" fill="#ffb8b8"/>
    <path id="Path_1420" data-name="Path 1420" d="M314.5,615.107s2.723,2.5,2.042,2.723-3.177,2.95-3.63,3.177c-.406.2-4.765,1.588-4.084,0a5.968,5.968,0,0,1,2.269-2.5l.454-2.723Z" transform="translate(-198.987 -411.418)" fill="#f2f2f2"/>
    <path id="Path_1421" data-name="Path 1421" d="M314.5,615.107s2.723,2.5,2.042,2.723-3.177,2.95-3.63,3.177c-.406.2-4.765,1.588-4.084,0a5.968,5.968,0,0,1,2.269-2.5l.454-2.723Z" transform="translate(-198.987 -411.418)" opacity="0.1"/>
    <path id="Path_1422" data-name="Path 1422" d="M293.72,507.978l.454,3.177h2.042l-.681-3.63Z" transform="translate(-178.202 -307.919)" fill="#ffb8b8"/>
    <path id="Path_1423" data-name="Path 1423" d="M301.671,559.889l2.974-9.833s-4.992-4.538-1.588-5.9,4.311,5.446,4.311,5.446l-1.135,11.8h-4.538Z" transform="translate(-194.686 -368.262)" fill="#ffb8b8"/>
    <path id="Path_1424" data-name="Path 1424" d="M311.513,566.069s-5.864,7.522-4.974,8.639,2.478,7.925,2.478,7.925-.227,2.723.681,2.723,3.177-.454,3.177-1.135-2.042-9.3-2.042-9.3l5.9-7.715Z" transform="translate(-197.583 -381.666)" fill="#81d8d0"/>
    <path id="Path_1425" data-name="Path 1425" d="M315.708,562.322l5.9-3.177s4.084,2.042,2.95,3.857-6.353,6.58-6.353,6.58,1.588,7.715,1.361,7.942-2.723,1.135-3.4.908-4.311-9.076-3.4-9.53,3.857-5.219,3.857-5.219Z" transform="translate(-201.325 -377.465)" fill="#81d8d0"/>
    <path id="Path_1426" data-name="Path 1426" d="M272.514,786.9a40.79,40.79,0,0,0,4.538,2.5c.454,0,6.58,1.588,3.857,2.723s-13.16-.454-12.933-1.134,0-4.765.454-4.765S272.514,786.9,272.514,786.9Z" transform="translate(-174.241 -515.236)" fill="#2f2e41"/>
    <path id="Path_1427" data-name="Path 1427" d="M284.053,785.982a40.787,40.787,0,0,0,4.538,2.5c.454,0,6.58,1.588,3.857,2.723s-13.16-.454-12.933-1.135,0-4.765.454-4.765S284.053,785.982,284.053,785.982Z" transform="translate(-181.241 -514.676)" fill="#2f2e41"/>
    <path id="Path_1428" data-name="Path 1428" d="M272.45,666.723s1.074,6.157,2.208,8.652-.227,14.295-.908,16.11-7.261,23.371-5.219,23.6a51.746,51.746,0,0,0,6.126,0l6.58-20.648L280.1,666.753Z" transform="translate(-174.343 -442.734)" fill="#575a88"/>
    <path id="Path_1429" data-name="Path 1429" d="M272.45,666.723s1.074,6.157,2.208,8.652-.227,14.295-.908,16.11-7.261,23.371-5.219,23.6a51.746,51.746,0,0,0,6.126,0l6.58-20.648L280.1,666.753Z" transform="translate(-174.343 -442.734)" opacity="0.1"/>
    <path id="Path_1430" data-name="Path 1430" d="M278.556,659.628s.908,6.126,2.95,7.488,1.361,2.723,1.361,2.723l-.908,12.026s-8.849,21.782-6.126,24.505,5.219,1.588,6.353,1.361,3.177-4.992,2.042-6.353,2.269-9.53,3.177-10.891,0-3.177,1.135-3.63,3.63-3.4,3.63-5.446,3.177-23.825,1.135-25.186-15.132,2.81-15.132,2.81Z" transform="translate(-178.694 -436.199)" fill="#575a88"/>
    <circle id="Ellipse_266" data-name="Ellipse 266" cx="4.992" cy="4.992" r="4.992" transform="translate(90.559 181.68)" fill="#ffb8b8"/>
    <circle id="Ellipse_267" data-name="Ellipse 267" cx="4.084" cy="4.084" r="4.084" transform="translate(102.811 164.435)" fill="#ffb8b8"/>
    <path id="Path_1431" data-name="Path 1431" d="M274.9,571.838s2.723,4.992,4.084,4.992-5.446,5.219-5.446,5.219-2.269-6.58-2.723-6.807S274.9,571.838,274.9,571.838Z" transform="translate(-175.947 -385.166)" fill="#ffb8b8"/>
    <path id="Path_1432" data-name="Path 1432" d="M272.314,581.276s-5.9,2.042-5.673,2.723-1.588,2.269-1.588,2.95-.454,6.807,2.269,11.8,7.034,8.622,4.992,10.891-5.219,6.126-1.815,6.126,8.849-4.992,13.841-3.177S288.2,607.6,288.2,607.6s.681-5.219-.681-6.807-6.126-12.933-6.126-14.295-4.538-6.58-5.673-6.58A10.224,10.224,0,0,0,272.314,581.276Z" transform="translate(-172.453 -390.066)" fill="#8985a8"/>
    <path id="Path_1433" data-name="Path 1433" d="M301.443,532.03" transform="translate(-194.548 -361.014)" fill="none" stroke="#2f2e41" stroke-miterlimit="10" stroke-width="1"/>
    <path id="Path_1434" data-name="Path 1434" d="M304.328,528.18a38.75,38.75,0,0,1,1.945,4.139c.1.626,3.274-4.139,3.274-4.139l-3.63-2.5Z" transform="translate(-196.298 -357.164)" fill="#ffb8b8"/>
    <path id="Path_1435" data-name="Path 1435" d="M305.281,532.653l3.857-4.084,4.538,2.042s4.232,9.3,4.5,9.984-6.768,3.857-7.448,3.857-5.446-7.034-5.446-7.034S304.147,534.014,305.281,532.653Z" transform="translate(-196.57 -358.914)" fill="#f2f2f2"/>
    <path id="Path_1436" data-name="Path 1436" d="M271.8,455.6v4.084h2.723l-.9-4.084Z" transform="translate(-164.901 -276.416)" fill="#ffb8b8"/>
    <path id="Path_1437" data-name="Path 1437" d="M302.8,560.588a1.692,1.692,0,0,0-1.6,1.074c-.177.48-.117.984.726,1.195,1.815.454,2.042,0,2.042,0s3.151-.454,2.483-1.361-2.483-.908-2.483-.908Z" transform="translate(-194.354 -378.34)" fill="#ffb8b8"/>
    <path id="Path_1438" data-name="Path 1438" d="M321.428,610.492s2.723,2.5,2.042,2.723-3.177,2.95-3.63,3.177c-.406.2-4.765,1.588-4.084,0a5.968,5.968,0,0,1,2.269-2.5l.454-2.723Z" transform="translate(-203.188 -408.618)" fill="#f2f2f2"/>
    <path id="Path_1439" data-name="Path 1439" d="M258.824,559.779c.312-.183.681-.411.69-.773a.684.684,0,0,0-.449-.6,2.007,2.007,0,0,0-.784-.106,1.021,1.021,0,0,0-.3.03c-.258.08-.407.342-.611.52a2.553,2.553,0,0,1-1.083.433,7.085,7.085,0,0,0-1.815.752.852.852,0,0,0-.287.236,1.159,1.159,0,0,0-.115.587,5.88,5.88,0,0,1-.857,2.13,2.332,2.332,0,0,0-.167,2.207,7.506,7.506,0,0,1,.449.637c.287.6-.071,1.333.136,1.962a1.716,1.716,0,0,0,.434.651,3.453,3.453,0,0,0,1.43.866c.516.159,1.155.265,1.357.765a4.066,4.066,0,0,0,.191.664,1.052,1.052,0,0,0,.746.374,3.188,3.188,0,0,0,.966.07,1.2,1.2,0,0,0,.833-.446,2.431,2.431,0,0,1,.337-.5c.329-.275.828-.058,1.25-.13a.914.914,0,0,0,.716-.672,1.272,1.272,0,0,1,.145-.514c.262-.335.952-.1,1.125-.487.112-.253-.123-.519-.35-.677a9.961,9.961,0,0,1-1.118-.758,1.3,1.3,0,0,1-.475-1.2c.156-.658,1.015-1.02,1.044-1.7a1.215,1.215,0,0,0-.573-.957,8.841,8.841,0,0,1-.95-.666c-.2-.2-.357-.444-.578-.621a2.712,2.712,0,0,0-1.457-.411c-.273-.028-1.363-.154-1.32-.57C257.415,560.539,258.546,559.942,258.824,559.779Z" transform="translate(-165.052 -376.95)" fill="#2f2e41"/>
    <path id="Path_1440" data-name="Path 1440" d="M301.431,538.376s-2.5.908-2.5,2.042-1.135,4.765,0,4.765a13.881,13.881,0,0,0,3.4-.871Z" transform="translate(-192.72 -364.865)" fill="#f2f2f2"/>
    <path id="Path_1441" data-name="Path 1441" d="M301.681,552.263s6.58-2.269,6.807-2.269,3.4-1.815,3.177-2.5l-.908-5.673s-3.63-7.488-1.135-7.488,3.857,5.9,3.857,5.9,5.446,10.211,2.5,12.48-15.2,6.353-15.883,5.673S301.681,552.263,301.681,552.263Z" transform="translate(-193.651 -362.414)" fill="#ffb8b8"/>
    <path id="Path_1442" data-name="Path 1442" d="M315.911,538.544l1.532,1.476-1.985,1.928s-2.723-1.134-2.5-.454,1.588,2.723,2.5,2.723,5.631-2.95,5.652-3.857-2.929-4.084-3.61-4.311S315.911,538.544,315.911,538.544Z" transform="translate(-201.528 -363.444)" fill="#ffb8b8"/>
    <path id="Path_1443" data-name="Path 1443" d="M313.16,534.018s3.334,2.943,3.787,2.943,1.279-4.422,1.279-4.422-2.69-1.753-3.686-1.275S313.16,534.018,313.16,534.018Z" transform="translate(-201.656 -360.5)" fill="#f2f2f2"/>
    <path id="Path_1444" data-name="Path 1444" d="M283.559,581.938s0-3.177,6.807-3.177h2.95l-1.361,7.488-4.538,1.361Z" transform="translate(-183.697 -389.366)" fill="#8985a8"/>
    <path id="Path_1445" data-name="Path 1445" d="M302.409,515a17.607,17.607,0,0,1-2-.123,5.569,5.569,0,0,0-1.9-2.705,7.185,7.185,0,0,0-1.909-1.048c-1.512-.642-4.029-.242-4.176.489-2.975,1.422-2.223,3.918-2.223,3.918.462.977,1.5.544,2.379.1a1.738,1.738,0,0,0,1.515,1.338c1.453.055,2.157.663,1.807,1.465s-.771,2.706.811,2.417,2.082.34,1.8.824.706-.963.706-.963.882,1.313,1.964.394a.822.822,0,0,0,.225-.386,1.627,1.627,0,0,0,1.128.2c1.3-.58.491-1.942.491-1.942s1.73-.266,1.173-.221-.91-.679.033-1.981S303.283,515.028,302.409,515Z" transform="translate(-187.678 -348.135)" fill="#2f2e41"/>
    <rect id="Rectangle_358" data-name="Rectangle 358" width="0.681" height="2.042" transform="matrix(0.949, 0.316, -0.316, 0.949, 105.307, 165.628)" fill="#81d8d0"/>
    <rect id="Rectangle_359" data-name="Rectangle 359" width="112.875" height="0.787" transform="translate(41.18 276.721)" fill="#3f3d56"/>
    <rect id="Rectangle_360" data-name="Rectangle 360" width="112.875" height="0.787" transform="translate(283.841 239.752)" fill="#3f3d56"/>
    <path id="Path_1446" data-name="Path 1446" d="M962.586,518.045l6.343-1.238s1.547-5.26,3.4-4.641-1.238,5.879-1.238,5.879l-8.818,4.022Z" transform="translate(-595.48 -348.932)" fill="#a0616a"/>
    <path id="Path_1447" data-name="Path 1447" d="M856.159,540.566l-2.785,3.558s-4.022-.155-2.785,2.011,4.022.928,4.177.464a61.281,61.281,0,0,1,4.641-4.487Z" transform="translate(-527.576 -366.193)" fill="#a0616a"/>
    <path id="Path_1448" data-name="Path 1448" d="M894.028,528.056l2.321-1.238s9.9-.774,13.614,1.7-15.625,2.785-15.625,2.785Z" transform="translate(-554.073 -357.783)" fill="#81d8d0"/>
    <path id="Path_1449" data-name="Path 1449" d="M904.568,519.206s-1.238-2.939.464-3.249a7.638,7.638,0,0,1,2.939,0l-1.857,1.547Z" transform="translate(-560.205 -351.176)" fill="#3f3d56"/>
    <path id="Path_1450" data-name="Path 1450" d="M904.568,519.206s-1.238-2.939.464-3.249a7.638,7.638,0,0,1,2.939,0l-1.857,1.547Z" transform="translate(-560.205 -351.176)" opacity="0.1"/>
    <path id="Path_1451" data-name="Path 1451" d="M870.812,569.2l-4.487-.309.774,1.392s-6.188,1.856-4.177,7.117a67.989,67.989,0,0,0,5.105,10.211l2.011,3.868s4.177.619,4.332-.619,0-1.856-.774-2.475a3.79,3.79,0,0,1-1.238-2.475c0-.619.155-1.238-.309-1.547s-.619-.773-.619-1.7-1.7-4.332-1.7-4.332,5.415-.155,7.117,1.238,7.271,6.652,7.271,6.652a4.685,4.685,0,0,1,.773,1.083c.309.619.309.928.928,1.238s.155,1.547,0,1.7-1.7,6.343-1.7,6.343-1.7,2.939.155,3.094,3.558.309,3.713,0a8.408,8.408,0,0,1,.619-1.238,4.256,4.256,0,0,0,0-2.475s4.487-5.724,3.094-9.282-4.332-11.6-4.332-11.6l-4.487-1.857-8.2-2.939Z" transform="translate(-534.957 -383.376)" fill="#2f2e41"/>
    <path id="Path_1452" data-name="Path 1452" d="M877.518,624.14s-.928,3.558-1.238,3.713-3.713,3.094-1.392,3.558,4.022.309,4.486-.155.309-.928,1.083-1.083,2.166-.619,2.011-1.7-.928-4.022-1.392-4.332S877.518,624.14,877.518,624.14Z" transform="translate(-541.973 -416.815)" fill="#2f2e41"/>
    <path id="Path_1453" data-name="Path 1453" d="M915.724,644.414a2.645,2.645,0,0,0-.619,3.094c.773,2.011,1.857,4.177,1.857,4.177s1.238,3.868,3.249,3.249a2.194,2.194,0,0,0,1.423-1.662,3.975,3.975,0,0,0-.562-3.235l-1.17-1.755-1.238-3.249Z" transform="translate(-566.719 -429.198)" fill="#2f2e41"/>
    <path id="Path_1454" data-name="Path 1454" d="M902.584,528.727s-1.857-.155-2.166.309-1.7,6.652,0,7.271,6.807,1.7,7.581.928,1.083-7.581,1.083-7.581Z" transform="translate(-557.447 -358.995)" fill="#a0616a"/>
    <path id="Path_1455" data-name="Path 1455" d="M902.584,528.727s-1.857-.155-2.166.309-1.7,6.652,0,7.271,6.807,1.7,7.581.928,1.083-7.581,1.083-7.581Z" transform="translate(-557.447 -358.995)" opacity="0.1"/>
    <path id="Path_1456" data-name="Path 1456" d="M883.81,539.837s2.166,2.166,3.558,1.856,4.641-1.7,4.951-2.321,4.177-.773,4.177-.773l-4.177,11.6,2.939,9.747s1.7-2.011-2.939-2.166-10.829-2.475-11.912-5.569c0,0-6.807-.928-7.117-1.083s.774-1.083.774-1.083l4.486-1.238,3.249-4.177Z" transform="translate(-541.458 -365)" fill="#f2f2f2"/>
    <path id="Path_1457" data-name="Path 1457" d="M882.547,527.871s.774-1.083,0-1.083a29.826,29.826,0,0,0-3.713.155c-.774.155-3.713-.619-4.022.309s-.309,6.652.309,7.117.928.464.155,1.392-2.63,4.022-2.166,5.105-4.951,1.392-4.177,2.63a2.541,2.541,0,0,0,2.011,1.238s.309-2.475,2.166-1.238,4.332,4.332,6.343,2.321a9.071,9.071,0,0,0,2.939-6.5,21.9,21.9,0,0,0-.309-5.879C881.773,531.894,882.547,527.871,882.547,527.871Z" transform="translate(-538.802 -357.83)" fill="#81d8d0"/>
    <path id="Path_1458" data-name="Path 1458" d="M919.713,531.7s1.238,1.083,0,3.713-4.486,8.818-1.857,12.841,3.713,5.105,3.094,5.879a3,3,0,0,0-.619,1.7l1.7-.619a19.473,19.473,0,0,1,.928-3.713c.619-1.547-1.238-6.188-1.238-6.188l.619-6.034a47.863,47.863,0,0,1,2.785-4.022c.309-.155-.619-6.807-.619-6.807a3.724,3.724,0,0,0-2.321,0C921.415,528.911,919.713,531.7,919.713,531.7Z" transform="translate(-567.924 -358.715)" fill="#81d8d0"/>
    <path id="Path_1459" data-name="Path 1459" d="M871.337,528.372h-.928l-6.343,3.249s-.464-2.011-.773-1.547-.155,1.7-.928,2.011-1.238.773,0,1.392,1.392.155,1.392,1.238.928,1.238,1.7.928.928-.464,1.7-.155.309.773,1.392.309a12.794,12.794,0,0,1,3.868-.309Z" transform="translate(-534.399 -358.795)" fill="#81d8d0"/>
    <path id="Path_1460" data-name="Path 1460" d="M933.561,527.181l1.083-.309s3.249.309,4.022.309,1.547-.155,2.011-.155a10,10,0,0,0,3.094-.619c.309-.309,1.7-1.083,1.856-.619s1.857,3.4.31,4.8-1.857.773-2.785,1.392-8.354,1.856-8.509,1.7S933.561,527.181,933.561,527.181Z" transform="translate(-578.058 -357.14)" fill="#81d8d0"/>
    <circle id="Ellipse_268" data-name="Ellipse 268" cx="4.641" cy="4.641" r="4.641" transform="translate(344.518 166.637)" fill="#a0616a"/>
    <path id="Path_1461" data-name="Path 1461" d="M906.569,527.808a.876.876,0,0,1,.1.325,1.215,1.215,0,0,0,1.163.937.726.726,0,0,0,.63.879,4,4,0,0,0,.69-1.35,1.239,1.239,0,0,1,.233-.529,1.063,1.063,0,0,1,.661-.248,34.744,34.744,0,0,1,3.723-.277.925.925,0,0,0,.489-.1c.35-.225.233-.769.012-1.122a3.51,3.51,0,0,0-1.872-1.461,8.859,8.859,0,0,0-1.724-.286,21.231,21.231,0,0,0-2.33-.242,3.814,3.814,0,0,0-2.228.6c-.465.328-1.229,1.247-.855,1.826.06.093.249.139.329.233.109.129.11.323.234.44C906.026,527.624,906.4,527.562,906.569,527.808Z" transform="translate(-560.825 -356.342)" fill="#2f2e41"/>
    <path id="Path_1462" data-name="Path 1462" d="M909.99,513.031s-5.26,1.857-4.8,4.486,1.857,5.724,4.8,5.569,4.486-3.354,4.486-3.354l-.773-4.381S910.763,513.031,909.99,513.031Z" transform="translate(-560.831 -349.487)" fill="#3f3d56"/>
    <path id="Path_1463" data-name="Path 1463" d="M915.745,534.556s2.068-2.244,3.109-.943A20.932,20.932,0,0,0,915.745,534.556Z" transform="translate(-567.25 -361.729)" fill="#2f2e41"/>
    <path id="Path_1464" data-name="Path 1464" d="M886.2,661.672a13.288,13.288,0,0,1-9.548-4.239c-8.185-8.13-15.962-8.945-16.04-8.952l.029-.308c.079.007,7.966.834,16.229,9.041,4.246,4.217,8.629,4.475,11.558,3.949a14.442,14.442,0,0,0,5.415-2.182l.183.25a14.764,14.764,0,0,1-5.53,2.235,12.926,12.926,0,0,1-2.295.208Z" transform="translate(-533.8 -431.479)" fill="#2f2e41"/>
    <circle id="Ellipse_269" data-name="Ellipse 269" cx="1.856" cy="1.856" r="1.856" transform="translate(329.125 219.779)" fill="#2f2e41"/>
    <circle id="Ellipse_270" data-name="Ellipse 270" cx="1.856" cy="1.856" r="1.856" transform="translate(342.275 228.443)" fill="#2f2e41"/>
  </g>
</svg>
