<svg xmlns="http://www.w3.org/2000/svg" xmlns:xlink="http://www.w3.org/1999/xlink" width="436.518" height="315.013" viewBox="0 0 436.518 315.013"><defs><linearGradient id="a" x1="0.5" y1="1" x2="0.5" gradientUnits="objectBoundingBox"><stop offset="0" stop-color="gray" stop-opacity="0.251"/><stop offset="0.54" stop-color="gray" stop-opacity="0.122"/><stop offset="1" stop-color="gray" stop-opacity="0.102"/></linearGradient><linearGradient id="b" x1="0.5" y1="1" x2="0.5" y2="0" xlink:href="#a"/></defs><g transform="translate(0.001 -0.015)"><path d="M310.565,125.079c-27.985-.974-54.659-10.023-80.091-19.921S179.834,84.292,152.5,79.047c-17.571-3.377-37.666-3.852-51.822,5.583-13.625,9.077-18.025,24.747-20.393,39.286-1.78,10.94-2.813,22.452,2.054,32.7,3.388,7.108,9.4,13.086,13.56,19.9,14.469,23.7,4.24,52.919-11.442,76.076-7.355,10.868-15.887,21.209-21.562,32.765s-8.3,24.795-3.336,36.581c4.923,11.673,16.651,20.456,29.359,26.626,25.81,12.522,56.222,16.1,85.879,18.158,65.647,4.5,131.648,2.548,197.468.6,24.359-.725,48.827-1.453,72.789-5.233,13.307-2.1,27.048-5.422,36.71-13.448,12.262-10.192,15.3-27.444,7.086-40.223-13.785-21.43-51.9-26.755-61.535-49.755-5.3-12.659.145-26.763,7.853-38.5,16.53-25.185,44.246-47.284,45.7-76.076,1-19.776-12.318-39.575-32.92-48.934-21.59-9.817-51.532-8.578-67.46,7.648C364.095,119.5,335.27,125.936,310.565,125.079Z" transform="translate(-56.94 -69.521)" fill="#81d8d0" opacity="0.1"/><path d="M225.41,681.208s-22.108-16.714-26.284-37.973a42.02,42.02,0,0,0-12.947-23.2,70.735,70.735,0,0,0-10.359-7.718" transform="translate(-128.035 -389.358)" fill="none" stroke="#535461" stroke-miterlimit="10" stroke-width="2"/><path d="M153.249,575.446c1.937,2.621,2.814,13.727,2.814,13.727s-10.359-4.08-12.3-6.7a5.9,5.9,0,1,1,9.486-7.03Z" transform="translate(-108.17 -366.001)" fill="#81d8d0"/><path d="M197.764,592.451c.2,3.252-5.093,13.052-5.093,13.052s-6.484-9.06-6.689-12.312a5.9,5.9,0,1,1,11.778-.74Z" transform="translate(-134.106 -374.281)" fill="#81d8d0"/><path d="M243.254,650.272c-1.463,2.91-10.986,8.7-10.986,8.7s-1.017-11.094.446-14a5.9,5.9,0,1,1,10.54,5.306Z" transform="translate(-161.588 -407.024)" fill="#81d8d0"/><path d="M266.32,706.409c-.953,3.115-9.358,10.427-9.358,10.427s-2.882-10.76-1.929-13.88a5.9,5.9,0,0,1,11.287,3.453Z" transform="translate(-175.304 -441.063)" fill="#81d8d0"/><path d="M171.189,635.268c3.216.434,13.381-4.156,13.381-4.156s-8.578-7.107-11.81-7.541a5.9,5.9,0,0,0-1.572,11.7Z" transform="translate(-122.206 -396.155)" fill="#81d8d0"/><path d="M196.586,699.085c3.216-.551,11.524-7.967,11.524-7.967s-10.314-4.212-13.526-3.662a5.9,5.9,0,1,0,2.01,11.629Z" transform="translate(-136.329 -434.262)" fill="#81d8d0"/><path d="M233.815,757.092c3.26,0,12.706-5.9,12.706-5.9s-9.45-5.9-12.71-5.9a5.9,5.9,0,1,0,0,11.8Z" transform="translate(-159.198 -468.879)" fill="#81d8d0"/><path d="M833.49,337.313s13.626-24.138,34.167-31.092a42.018,42.018,0,0,0,21.272-15.914A70.478,70.478,0,0,0,895.2,279" transform="translate(-521.41 -190.284)" fill="none" stroke="#535461" stroke-miterlimit="10" stroke-width="2"/><path d="M999.4,252.921c-2.339,2.267-13.229,4.615-13.229,4.615s2.673-10.813,5.013-13.084a5.9,5.9,0,1,1,8.217,8.47Z" transform="translate(-612.719 -168.666)" fill="#81d8d0"/><path d="M983.5,299.2c-3.216.635-13.615-3.312-13.615-3.312s8.12-7.637,11.315-8.26a5.9,5.9,0,1,1,2.3,11.573Z" transform="translate(-602.982 -195.378)" fill="#81d8d0"/><path d="M933.007,352.325c-3.079-1.065-10.077-9.731-10.077-9.731s10.853-2.484,13.94-1.419a5.9,5.9,0,1,1-3.863,11.151Z" transform="translate(-574.888 -227.296)" fill="#81d8d0"/><path d="M879.561,382.253c-3.216-.531-11.561-7.907-11.561-7.907s10.286-4.285,13.5-3.754a5.907,5.907,0,0,1-1.917,11.657Z" transform="translate(-542.034 -245.004)" fill="#81d8d0"/><path d="M947.3,278.375c0,3.26,5.909,12.718,5.909,12.718s5.9-9.446,5.9-12.7a5.9,5.9,0,1,0-11.8,0Z" transform="translate(-589.473 -186.32)" fill="#81d8d0"/><path d="M887.567,312.515c.973,3.111,9.43,10.367,9.43,10.367s2.814-10.781,1.833-13.892a5.9,5.9,0,0,0-11.255,3.525Z" transform="translate(-553.615 -205.868)" fill="#81d8d0"/><path d="M834.891,356.634c.434,3.216,7.541,11.806,7.541,11.806s4.586-10.15,4.152-13.377a5.9,5.9,0,1,0-11.693,1.572Z" transform="translate(-522.188 -232.609)" fill="#81d8d0"/><path d="M999.4,252.921c-2.339,2.267-13.229,4.615-13.229,4.615s2.673-10.813,5.013-13.084a5.9,5.9,0,1,1,8.217,8.47Z" transform="translate(-612.719 -168.666)" opacity="0.25"/><path d="M983.5,299.2c-3.216.635-13.615-3.312-13.615-3.312s8.12-7.637,11.315-8.26a5.9,5.9,0,1,1,2.3,11.573Z" transform="translate(-602.982 -195.378)" opacity="0.25"/><path d="M933.007,352.325c-3.079-1.065-10.077-9.731-10.077-9.731s10.853-2.484,13.94-1.419a5.9,5.9,0,1,1-3.863,11.151Z" transform="translate(-574.888 -227.296)" opacity="0.25"/><path d="M879.561,382.253c-3.216-.531-11.561-7.907-11.561-7.907s10.286-4.285,13.5-3.754a5.907,5.907,0,0,1-1.917,11.657Z" transform="translate(-542.034 -245.004)" opacity="0.25"/><path d="M947.3,278.375c0,3.26,5.909,12.718,5.909,12.718s5.9-9.446,5.9-12.7a5.9,5.9,0,1,0-11.8,0Z" transform="translate(-589.473 -186.32)" opacity="0.25"/><path d="M887.567,312.515c.973,3.111,9.43,10.367,9.43,10.367s2.814-10.781,1.833-13.892a5.9,5.9,0,0,0-11.255,3.525Z" transform="translate(-553.615 -205.868)" opacity="0.25"/><path d="M834.891,356.634c.434,3.216,7.541,11.806,7.541,11.806s4.586-10.15,4.152-13.377a5.9,5.9,0,1,0-11.693,1.572Z" transform="translate(-522.188 -232.609)" opacity="0.25"/><path d="M835.44,306.394s2.677-27.591,18.619-42.262a42.035,42.035,0,0,0,13-23.169A70.473,70.473,0,0,0,868.22,228.1" transform="translate(-522.562 -159.867)" fill="none" stroke="#535461" stroke-miterlimit="10" stroke-width="2"/><path d="M924.967,192.885c-1.206,3.023-10.226,9.583-10.226,9.583s-1.937-10.97-.719-13.992a5.9,5.9,0,1,1,10.945,4.422Z" transform="translate(-569.319 -134.008)" fill="#81d8d0"/><path d="M927.047,239.551c-2.665,1.873-13.787,2.488-13.787,2.488s4.333-10.266,7-12.139a5.9,5.9,0,1,1,6.789,9.647Z" transform="translate(-569.104 -160.264)" fill="#81d8d0"/><path d="M898.32,308.9c-3.248.273-13.16-4.823-13.16-4.823s8.924-6.673,12.172-6.946a5.9,5.9,0,0,1,.989,11.761Z" transform="translate(-552.298 -201.124)" fill="#81d8d0"/><path d="M862.883,357.651c-3.155.8-13.783-2.52-13.783-2.52s7.665-8.083,10.821-8.9a5.9,5.9,0,0,1,2.962,11.424Z" transform="translate(-530.73 -230.359)" fill="#81d8d0"/><path d="M883.419,239.656c1.318,2.979,10.539,9.245,10.539,9.245s1.568-11.03.249-14.008a5.9,5.9,0,0,0-10.789,4.775Z" transform="translate(-550.986 -161.926)" fill="#81d8d0"/><path d="M842.267,294.429c2.151,2.448,12.819,5.656,12.819,5.656s-1.8-10.994-3.951-13.442a5.9,5.9,0,1,0-8.868,7.786Z" transform="translate(-525.766 -193.67)" fill="#81d8d0"/><path d="M812.423,356.768c1.7,2.774,11.677,7.738,11.677,7.738s.084-11.138-1.608-13.916a5.9,5.9,0,0,0-10.049,6.178Z" transform="translate(-508.336 -231.487)" fill="#81d8d0"/><path d="M784.44,143.078c.667-2.448,1.471-4.908,2.034-7.388C785.8,138.17,784.991,140.638,784.44,143.078Z" transform="translate(-492.056 -104.718)" fill="url(#a)"/><path d="M461.679,120.678c-.056-.1-.1-.193-.141-.282h0c0-.04-.04-.072-.056-.113a2.52,2.52,0,0,1-.269.109c-.177.068-.358.133-.543.185s-.261.08-.4.113a2.344,2.344,0,0,1-.358.093l.032.072c.149-.032.293-.06.442-.1l.04.5c.169,0,.326-.024.478-.024a1.973,1.973,0,0,1,.217,0h.8C461.839,121.049,461.751,120.86,461.679,120.678Zm81.6,130.052c-1.889-2.548-5.66-29.892-5.66-29.892s-7.416-19.444-5.394-27.2-5.523-27.614-5.523-27.614-4.984-2.169-5.254-5.389c0,0-20.351-6.44-21.3-11.269-.772-3.96-13.393-6.8-17.927-7.7-1.383-5.586-2.774-10.8-3.8-13.644-.277-.885-.539-1.65-.78-2.254-1.732-4.427-7.087-4.83-10.97-4.476a5.993,5.993,0,0,0-.921-2.1,1.155,1.155,0,0,0-.366-.559,2.142,2.142,0,0,0-.265-.193,1.272,1.272,0,0,0-.273-.346,1.931,1.931,0,0,0-.362-.258,2.417,2.417,0,0,0-.289-.133,3.86,3.86,0,0,0-.72-.2,5.92,5.92,0,0,0-.868-.113,5.285,5.285,0,0,0,1.853-1.356,3.87,3.87,0,0,0,.76-1.4,4.125,4.125,0,0,0,.169-1.32,3.412,3.412,0,0,1-.362.519c.169-1.783-.772-3.594-1.31-5.369a15.907,15.907,0,0,1-.354-7.1h0c.539-3.566,1.873-7.172,2.778-10.8a.263.263,0,0,0,0-.06,28.079,28.079,0,0,0,.876-5.51,24.341,24.341,0,0,0-2.348-10.923c-1.371-3.031-3.393-6.013-6.488-7.245-2.3-.93-4.876-.781-7.352-.934-5.555-.346-10.853-2.3-16.135-4.081s-10.716-3.4-16.275-3.087-11.279,2.994-13.815,7.921a49.663,49.663,0,0,1-2.227,4.693c-1.8,2.725-5.025,4.089-7.714,5.969a15.271,15.271,0,0,0-6.029,7.732,10.328,10.328,0,0,0-.217,5.293h0a9.493,9.493,0,0,0,.338,1.167,8.274,8.274,0,0,0,1.749,2.862,8.525,8.525,0,0,0,1.986,1.541h0a11.675,11.675,0,0,0,2.934,1.143c-.036.121-.072.25-.113.374-.064.205-.121.4-.181.624-.133.5-.257,1-.362,1.505a.472.472,0,0,0,0,.109,32.913,32.913,0,0,0-.74,6.967,32.193,32.193,0,0,0,.169,3.316h0A33.523,33.523,0,0,0,425.9,139.981c.571.028,1.146.044,1.728.044h.8c.261.346.519.7.764,1.046s.47.7.683,1.046l-.583-.6h0l-.583-.535a4.742,4.742,0,0,1-.527.608,9.764,9.764,0,0,0-1.162-.33h0a14.877,14.877,0,0,0-7.553.5,33.021,33.021,0,0,0-11.231,6.419l-21.429,12.879-11.593,7.059-4.176,10.223s-3.139,12.147-6.632,26.064c-.137.04-.269.081-.4.129a7.5,7.5,0,0,0-.852-.048,7.839,7.839,0,0,0-7.846,7.53c-6.946,8.452-7.34,16.9-5.708,20.784h0a5.543,5.543,0,0,0,.555,1.034,97.741,97.741,0,0,1,5.093,9.776c-.052.35-.084.644-.1.865a2.116,2.116,0,0,0,0,.217s1.206,18.236-2.814,23.464c-.88,1.139-.748,2.636,0,4.294h0c2.693,5.965,13.341,13.93,13.341,13.93s12.77-.068,19.885-.845c-.02.716-.036,1.429-.052,2.125-.161,7.035-.161,12.932-.161,12.932l-.265,7.377s-2.412,15.548-3.618,19.834c-.76,2.689.117,27.582.88,45.882H508.173c1.479-10.827-.607-43.721-.607-43.721a86.527,86.527,0,0,1-2.054-15.918.061.061,0,0,1,0-.052c0-.648,0-1.28.024-1.9l.912-.032,1.64-.056h.149s.04-.153.133-.4h0a7.694,7.694,0,0,1,.88-1.759,4.357,4.357,0,0,1,3.437-2.117,9.3,9.3,0,0,0,3.9-1.859.073.073,0,0,0,.032,0c4.273-2.894,9.92-8.235,11.291-9.112,1.885-1.207,10.913-9.257,10.913-9.257s1.346-1.707,2.782-3.763l.052-.072c1.785-2.576,3.682-5.655,3.216-6.625-.8-1.739.539-5.9.539-5.9C549.608,263.461,545.166,253.279,543.277,250.731ZM465.549,126.937a1.613,1.613,0,0,1,.072.37c-.1-.133-.2-.274-.3-.4l-.1-.129-.068-.1.153-.209v.028h0a1.4,1.4,0,0,1,.241.439Zm-1.351-3.566c-.438.089-.784.169-1.009.229-.285-.507-.559-1.014-.8-1.529A11.658,11.658,0,0,1,464.2,123.371Zm-.756.636a.089.089,0,0,1,0-.024l.032.024h0c.165.109.326.213.474.322h0c.133.1.253.189.374.286a3.848,3.848,0,0,1-.257.4c-.141-.221-.273-.435-.4-.656A1.451,1.451,0,0,1,463.443,124.007Zm-2.412-4.967a11.879,11.879,0,0,1,2.335,0h0a1.767,1.767,0,0,1,.3.036h0a3.338,3.338,0,0,1,.639.165,4.68,4.68,0,0,1,.848,2.258l-.217.032-.213.04c-.4.068-.8.137-1.117.2l-.4.085c-.535.117-.844.205-.856.209-.052-.109-.1-.209-.161-.314-.088-.173-.181-.35-.261-.523s-.185-.37-.269-.551c-.056-.1-.1-.193-.141-.282h0c0-.04-.04-.072-.056-.113a.969.969,0,0,1-.06-.133c-.245-.5-.47-1-.687-1.489-.024-.048-.044-.1-.064-.149l.305-.02v.1Zm-95.9,249.673a99.968,99.968,0,0,0-1.672-18.562c-.515-2.588-1.045-5.176-1.584-7.72-.137-.636-.269-1.264-.4-1.892l-1.238.165h-.113c-3.376-15.942-6.906-29.989-6.906-29.989s-7.01-26.8-6.2-28.938a5.182,5.182,0,0,0-.326-2.125c-1.7-6.093-8.779-22.885-11.255-28.624h0a.227.227,0,0,0-.028-.072h0c-.4-.962-.691-1.61-.78-1.8l.583-8.565.032-.515.076-1.095-.032-.028.032-.507a58.621,58.621,0,0,0-16.48-8.649c-.4-.145-.828-.286-1.25-.423.518-3.465,1.206-7.377,2.1-11.189.084-.382.177-.753.273-1.127h0c.084-.374.181-.737.277-1.1.153-.6.318-1.183.486-1.763.559-.177,1.109-.374,1.652-.584l.209-.081a29.711,29.711,0,0,0,18.088-34.613h0A29.554,29.554,0,0,0,335.5,167.99h0c-.185-.25-.382-.5-.579-.745s-.434-.519-.655-.769c1.162-2.644,2.532-5.16,2.645-7.732a7.922,7.922,0,0,0,0-.978h0v-.04a8.271,8.271,0,0,0-2.585-5.087c-2.488-2.58-6.029-3.888-9.571-4.516s-7.151-.644-10.712-1.067c-5.9-.708-11.657-2.532-17.562-3.091a41.68,41.68,0,0,0-21.236,3.622c-4.393,2.012-8.843,5.53-9.108,10.356-.217,3.989,2.556,7.812,1.857,11.752-.7,3.872-4.635,6.919-4.289,10.835a7.78,7.78,0,0,0,1.9,4.117h0c.338.4.7.8,1.065,1.207,1.431,1.517,3.007,2.974,3.807,4.886.032.08.064.161.092.241.679,1.888.374,4.274-1.306,5.357a.061.061,0,0,1,.02.028h0c.024.032.048.056.068.089a.028.028,0,0,0,0-.02,4.4,4.4,0,0,0,2.3,1.433l.342.1c-.277.3-.539.616-.8.946l-.173.229a16.767,16.767,0,0,0-1.206,1.872c-.2.362-.4.724-.567,1.087a13.667,13.667,0,0,0-1.186,3.489c-.43,2.664.177,5.442-.474,8.05-.8,3.22-3.348,5.691-4.783,8.681-2.717,5.635-1.178,12.247-.631,18.47.744,8.452-.462,16.94-1.664,25.336q-.957,6.7-1.913,13.407L253.76,313.22c-.587,4.113-1.282,8.452-4.02,11.628h.028a.035.035,0,0,1-.028.032,8.393,8.393,0,0,0,2.589.668h0c3.573.358,7.36-1.372,10.576-3.264a49.976,49.976,0,0,0,7.207-5.067q-.494,1.811-1.061,3.94a.221.221,0,0,1,0,.04h0c-4.538,17.307-11.838,49.034-11.838,49.034s-.663,1.38-1.523,3.437H369.042c-1.326-1.61-2.561-3.151-3.525-4.4ZM281.2,208.688c.028-.048.048-.093.076-.137v.873h0a2.983,2.983,0,0,1-.064.5v.036l.4.149.466.193h0q4.132,1.634,8.369,2.958c.289.093.583.181.876.266l.06.5c.072.511.141,1.03.205,1.55v.04c.181,1.437.358,2.87.514,4.27,0,0-7.38-2.817-7.288,1.461a2.092,2.092,0,0,0,0,.229,1.917,1.917,0,0,0,0,.306,21.353,21.353,0,0,0,1.318,6.323.285.285,0,0,1-.064.113,2.2,2.2,0,0,0-.177,1.244,12.242,12.242,0,0,0,.169,2.149c-.217.133-.43.266-.643.4h0c-.161.1-.314.213-.47.326a59.811,59.811,0,0,0-3.855-9.949c-1.105-2.278-2.347-4.653-2.335-7.152a4.055,4.055,0,0,1,.02-.491,8.458,8.458,0,0,1,.41-2.129c.092-.262.193-.519.305-.773a18.96,18.96,0,0,1,.88-1.763h0c.209-.378.43-.753.643-1.131.068-.113.133-.229.2-.342Zm180.481-88.01c-.056-.1-.1-.193-.141-.282h0c0-.04-.04-.072-.056-.113a2.52,2.52,0,0,1-.269.109c-.177.068-.358.133-.543.185s-.261.08-.4.113l-.358.093.032.072c.149-.032.293-.06.442-.1l.04.5c.169,0,.326-.024.478-.024h1.021C461.839,121.049,461.751,120.86,461.679,120.678Z" transform="translate(-172.305 -58.66)" fill="url(#b)"/><path d="M531.523,356.428l-2.412,1.065S513.39,418.568,513.39,423.5s33.335,32.4,33.335,32.4l5.2-35.107S544.458,340.29,531.523,356.428Z" transform="translate(-329.944 -235.224)" fill="#e8f5ff"/><path d="M699.912,240.125l-13.928-7.267a27.9,27.9,0,0,0-4.084-9.305,20.732,20.732,0,0,0-8.124-7.34c-8.534-3.827,36.1-23.913,36.1-23.913a72.606,72.606,0,0,0,2.48,7.115c2.3,5.676,6.114,13.016,11.03,15.106C731.74,218.078,699.912,240.125,699.912,240.125Z" transform="translate(-425.224 -138.492)" fill="#ffc1c7"/><path d="M712.353,199.415A33.274,33.274,0,0,1,681.9,223.553a20.732,20.732,0,0,0-8.124-7.34c-8.534-3.827,36.1-23.913,36.1-23.913A72.621,72.621,0,0,0,712.353,199.415Z" transform="translate(-425.223 -138.497)" opacity="0.1"/><path d="M675.529,135.306a33.1,33.1,0,1,1-9.7-23.554A33.256,33.256,0,0,1,675.529,135.306Z" transform="translate(-387.143 -84.606)" fill="#ffc1c7"/><path d="M654.881,233.006l-9.068,21.159-8,14.045h-25.6l-7.468-19.2,3.027-19.913h19.555l12.626-.711,4.265-1.423,2.749,1.56Z" transform="translate(-361.698 -135.587)" fill="#575a89"/><path d="M746,230.468s5.656,1.206.591,5.358-22.538,17.357-22.538,17.357,6.138,5.467,4.868,11.87l20.335-11.335,3.618-18.137S753.277,230.13,746,230.468Z" transform="translate(-455.939 -161.29)" opacity="0.1"/><path d="M708.739,287,695.8,289.134s2.669,9.868,1.334,12.67a1.864,1.864,0,0,0-.1.269l-5.278,14.266,3.955,11.2,13.691-18.671-4.667-7.066s4.932-6.536,7.866-8.8S708.739,287,708.739,287Z" transform="translate(-436.626 -195.072)" opacity="0.1"/><path d="M708.739,285.63,695.8,287.76s2.669,9.868,1.334,12.67a1.866,1.866,0,0,0-.1.269l-5.278,14.266,3.955,11.2,13.691-18.683-4.667-7.066s4.932-6.536,7.866-8.8S708.739,285.63,708.739,285.63Z" transform="translate(-436.626 -194.254)" fill="#dce6f2"/><path d="M746.54,227.818s5.656,1.206.587,5.358S724.05,251.6,724.05,251.6s6.669,4.4,5.4,10.8l20.335-11.331,3.618-18.137S753.807,227.48,746.54,227.818Z" transform="translate(-455.939 -159.707)" fill="#575a89"/><path d="M675.6,273.18s1.234,2.307,6.681,6.468c0,0-9.068,4.823-5.6,11.6l-13.872-3.618-2.134-6.669Z" transform="translate(-418.037 -186.825)" opacity="0.1"/><path d="M674.281,271.86s1.234,2.307,6.68,6.468c0,0-9.068,4.8-5.6,11.6l-13.868-3.618-2.134-6.664Z" transform="translate(-417.247 -186.036)" fill="#575a89"/><path d="M711.821,293.986l-9.068,21.159L694.77,329.19H669.148l-7.469-19.2,3.023-19.913h5.439c-.088,4.647,1.608,10.105,1.5,12.135-.185,3.336,4.976,21.336,4.976,21.336s10.8-17.469,15.066-19.025c2.681-.977,8.361-9.1,12.216-15.021Z" transform="translate(-418.638 -196.566)" opacity="0.1"/><path d="M682.291,393.515l-.92,1.158s6.669,33.471,4.823,41.072a21.586,21.586,0,0,0-.535,4.172v.06c-.326,7.734,2.01,17.771,2.01,17.771s1.865,29.584.8,41.752H563.616c-.732-17.992-1.519-41.3-.8-43.886,1.206-4.265,3.618-19.736,3.618-19.736l.265-7.332s0-7.087.217-14.981c.092-3.549.229-7.275.426-10.58a55.832,55.832,0,0,1,1.093-9.378,20.679,20.679,0,0,0,.514-3.971,2.049,2.049,0,0,1,.024-.382c0-.4.04-.836.056-1.282v-.4c.076-2.589.048-5.66-.036-8.843V378.2c-.068-2.388-.169-4.824-.281-7.139-.35-7.235-.8-13.353-.8-13.353L552.57,306.9l4.132-10.178L568.17,289.7l21.2-12.8c10.342-8.5,17.152-7.48,19.748-6.548a6.882,6.882,0,0,1,.74.3c.08.04.145.072.2.109a1.7,1.7,0,0,1,.237.137h0a4.894,4.894,0,0,0-1.8,1.483,6.56,6.56,0,0,0-1.114,2.412,11.229,11.229,0,0,0-.286,1.644c-.052.583-.072,1.186-.072,1.793a31.1,31.1,0,0,0,.342,3.975c0,.024,0,.056,0,.088.133.941.3,1.861.458,2.725a.173.173,0,0,0,0,.044c.185,1.009.37,1.941.494,2.745.024.145.044.277.064.4a9.2,9.2,0,0,1,.125,1.608,19.532,19.532,0,0,0,.523,3.859c.1.531.225,1.1.358,1.688.181.8.378,1.68.591,2.573.117.49.241,1,.37,1.5.048.2.1.4.149.607l.08.318c.856,3.4,1.785,6.793,2.356,8.843.338,1.206.551,1.95.551,1.95s6.053-9.788,10.885-15.359c.072-.08.137-.157.2-.229.479-.551.949-1.053,1.4-1.5a8.262,8.262,0,0,1,2.581-1.937,2.8,2.8,0,0,0,.438-.205c1.978-1.121,5.169-5.193,8.156-9.458.293-.4.579-.84.868-1.254.663-.957,1.306-1.917,1.913-2.838.466-.7.913-1.387,1.335-2.038,2.01-3.127,3.425-5.459,3.425-5.459l2.79-.125.487-.024h.326l12.666-.587s.547.092,1.447.273a.258.258,0,0,1,.149.032c4.494.892,16.979,3.718,17.743,7.637.933,4.8,21.071,11.2,21.071,11.2.265,3.216,5.2,5.334,5.2,5.334s7.468,19.736,5.471,27.47c-1.974,7.637,5.137,26.53,5.326,27.06h0L716,350.871Z" transform="translate(-353.392 -184.481)" fill="#e8f5ff"/><path d="M753.457,225.737s12.328-3.5,15.13,3.7,9.068,36.273,9.068,36.273-16.271,3.067-20.536,0a12.288,12.288,0,0,0-8.67-2.267l-9.2,6.267-2.717-.8s14.72-21.883,17.92-29.319S758.73,228.828,753.457,225.737Z" transform="translate(-463.405 -157.962)" opacity="0.1"/><path d="M752.151,221.737s12.336-3.5,15.15,3.7,9.068,36.273,9.068,36.273-16.267,3.067-20.536,0a12.276,12.276,0,0,0-8.666-2.267l-9.209,6.267-2.717-.8s14.72-21.883,17.919-29.319S757.424,224.836,752.151,221.737Z" transform="translate(-462.633 -155.572)" fill="#e8f5ff"/><path d="M571.226,511.55s9.2,2.267,10.938,7.468-6.8,5.334-6.8,5.334S570.161,515.152,571.226,511.55Z" transform="translate(-364.448 -329.253)" opacity="0.1"/><path d="M629.753,607.09s-22.534,46.141-17.333,50.543S629.753,607.09,629.753,607.09Z" transform="translate(-388.706 -386.23)" opacity="0.1"/><path d="M734,522.5s18,44.819,14.4,51.741,7.734,0,7.734,0Z" transform="translate(-461.89 -335.756)" opacity="0.1"/><path d="M727.465,632.64s-60.809,2.934-43.07,21.871,54.14.8,54.14.8Z" transform="translate(-430.285 -401.586)" fill="#ffc1c7"/><path d="M677.185,135.312a33.1,33.1,0,0,1-2.52,12.71c-.559.064-1.117.1-1.656.129-.8-1.765-.374-3.8-.358-5.744s-.7-4.225-2.569-4.747c-3.726-1.049-6.3,5.917-9.973,4.659-2.814-.957-2.078-5.226-3.7-7.69-1.282-1.95-3.851-2.5-5.849-3.722-4.249-2.609-4.12-6.781-6.094-10.728-2.066-4.136-6.431-2.914-10.222-.474-2.878,1.857-5.362,4.345-8.441,5.824a20.881,20.881,0,0,1-8.614,1.821,18.928,18.928,0,0,1-5.4-.571,33.254,33.254,0,0,1,65.391,8.534Z" transform="translate(-388.8 -84.612)" opacity="0.1"/><path d="M624.029,97.13c-2.882,1.857-5.362,4.341-8.441,5.828a20.942,20.942,0,0,1-8.614,1.817c-3.618.08-7.513-.555-9.985-3.167a9.632,9.632,0,0,1-1.853-9.285,15.08,15.08,0,0,1,5.969-7.69c2.705-1.9,5.844-3.216,7.637-5.937a48.014,48.014,0,0,0,2.195-4.667c2.52-4.9,8.188-7.553,13.667-7.882s10.909,1.3,16.127,3.071,10.475,3.714,15.982,4.08c2.452.153,5,0,7.275.929,3.059,1.242,5.065,4.213,6.431,7.235a24.19,24.19,0,0,1,2.323,10.853c-.338,7.947-5.587,15.745-3.28,23.358.611,2.03,1.757,4.112,1.146,6.142-.892,2.962-4.715,3.638-7.806,3.778-.8-1.765-.374-3.807-.358-5.744s-.7-4.225-2.565-4.747c-3.73-1.041-6.3,5.913-9.969,4.659-2.794-.961-2.07-5.226-3.694-7.69-1.282-1.954-3.855-2.5-5.849-3.722-4.249-2.609-4.12-6.781-6.094-10.728C632.192,93.464,627.823,94.686,624.029,97.13Z" transform="translate(-378.569 -63.103)" fill="#99607e"/><path d="M511.346,515.077l-3.067,1.069s1.206,18.137-2.814,23.338,13.2,18.133,13.2,18.133,23.6-.133,24.271-2.01S541.73,522,541.73,522s-12.67-4.936-11.6-12.8c0,0-3.867,18.535-9.6,17.735S508.287,521.347,511.346,515.077Z" transform="translate(-324.841 -327.817)" fill="#e8f5ff"/><ellipse cx="8.091" cy="7.4" rx="8.091" ry="7.4" transform="translate(188.644 189.91)" opacity="0.1"/><path d="M526.183,466.044s-1.608-49.072-15.6-38.138-14.133,24.009-11.468,27.872,11.211,23.2,11.211,23.2h0a9.78,9.78,0,0,0,14.471-6.431Z" transform="translate(-320.6 -278.296)" fill="#ffc1c7"/><path d="M623.83,214.014a1.181,1.181,0,0,0-.362-.555c-.691-.631-2.179-.852-4.422-.659l.092,1.061c2.991-.257,3.581.338,3.658.438v.1l.092.133a4.486,4.486,0,0,1,.8,3.537c-.655,3.276-4.679,5.885-4.719,5.913l-.1.056-.06.092c-1.737,2.577-11.557,9.848-14.125,11.729l-.225-.257c-1.15,1-11.255,9.844-11.8,13.233-.354,2.126-2.749,2.95-3.618,3.18a22.713,22.713,0,0,1-5.439-5.716c-1.451-2.5,4.389-7.368,4.9-9.269l-.8-.824c-.084.306-7.585,7.316-5.5,10.9a23.86,23.86,0,0,0,5.8,6.146c-.342,3.1-2.468,21.324-5.736,25.641-4.06,5.366-7.472,32.41-7.095,41.852.334,8.389-1.857,24.234-9.173,31.04A11.725,11.725,0,0,1,556.328,355h-.177a28.549,28.549,0,0,1-19.632-6.431c-7.3-6.138-11.428-16.155-12.288-29.781h-.177l-.072-3.967a7.738,7.738,0,1,0-1.154.092h.088l.072,3.943-.354.024c.884,14.069,5.226,24.476,12.863,30.9a29.745,29.745,0,0,0,20.745,6.789,14.943,14.943,0,0,0,1.608.088,13.185,13.185,0,0,0,9.245-3.718c7.706-7.175,10.049-23.6,9.683-32.278-.4-10,3.18-36.076,6.773-40.823,3.521-4.659,5.656-22.811,6.029-26.329,1.274-.358,4.156-1.487,4.647-4.422.354-2.122,7.1-8.662,11.255-12.284l-.125-.145a156.408,156.408,0,0,0,12.63-10.081c1.069-1.025,2.13-2.05,3.24-3.027a10.372,10.372,0,0,0,3.477-5.278A5.486,5.486,0,0,0,623.83,214.014Z" transform="translate(-330.944 -150.646)" opacity="0.1"/><path d="M686.475,287.125a24.6,24.6,0,0,1-6.178-6.431c-2.082-3.581,5.418-10.588,5.5-10.893l.8.824c-.51,1.9-6.351,6.773-4.9,9.265a23.36,23.36,0,0,0,5.72,5.929Z" transform="translate(-429.55 -184.806)" fill="#353146"/><path d="M735.827,235.845l-.627-.864c.129-.092,12.754-9.225,14.744-12.179l.064-.088.093-.06c.04-.028,4.064-2.633,4.719-5.913a4.458,4.458,0,0,0-.8-3.533l-.093-.137v-.1c-.08-.1-.671-.7-3.662-.438l-.092-1.065c2.247-.193,3.73.028,4.422.659a1.207,1.207,0,0,1,.366.559,5.491,5.491,0,0,1,.908,4.265,10.314,10.314,0,0,1-3.477,5.278c-1.105.977-2.171,2.01-3.236,3.027C745.112,229.128,736.269,235.527,735.827,235.845Z" transform="translate(-462.607 -149.911)" fill="#e8f5ff"/><rect width="1.065" height="6.476" transform="translate(191.461 162.859) rotate(-1.05)" fill="#e8f5ff"/><circle cx="7.778" cy="7.778" r="7.778" transform="translate(183.596 148.251)" fill="#81d8d0"/><circle cx="6.46" cy="6.46" r="6.46" transform="translate(184.915 149.569)" fill="#e8f5ff"/><path d="M567.876,389.377a14.927,14.927,0,0,1-1.608-.084,29.79,29.79,0,0,1-20.745-6.789c-7.637-6.431-11.97-16.826-12.863-30.907l1.608-.1c.86,13.627,4.992,23.647,12.292,29.781a28.661,28.661,0,0,0,19.628,6.431h.177a11.749,11.749,0,0,0,9.679-3.216c7.312-6.805,9.5-22.651,9.169-31.039-.4-9.45,3.011-36.494,7.074-41.856,3.557-4.7,5.764-25.878,5.788-26.091l.06-.6.595-.1c.036,0,3.509-.659,3.943-3.256.563-3.385,10.652-12.232,11.8-13.233l1.049,1.206c-4.168,3.618-10.917,10.162-11.255,12.288-.49,2.942-3.372,4.068-4.643,4.422-.4,3.521-2.52,21.67-6.029,26.329-3.594,4.747-7.175,30.818-6.773,40.823.346,8.674-1.974,25.107-9.679,32.278A13.188,13.188,0,0,1,567.876,389.377Z" transform="translate(-341.473 -183.854)" fill="#353146"/><g transform="translate(216.456 28.653)" opacity="0.1"><path d="M783,150.186c.659-2.436,1.455-4.888,2.01-7.356C784.347,145.31,783.547,147.75,783,150.186Z" transform="translate(-707.647 -137.641)"/><path d="M664.165,161.607c-.8-1.765-.374-3.807-.358-5.744s-.7-4.2-2.565-4.747c-3.73-1.041-6.3,5.917-9.969,4.659-2.814-.961-2.07-5.225-3.694-7.69-1.282-1.954-3.851-2.5-5.845-3.722-4.253-2.609-4.124-6.781-6.094-10.728-2.07-4.14-6.431-2.918-10.226-.474-2.882,1.857-5.362,4.345-8.441,5.828a20.942,20.942,0,0,1-8.614,1.817c-3.6.084-7.513-.555-9.985-3.167a9.333,9.333,0,0,1-2.2-7.718c-.068.189-.129.378-.189.567a9.658,9.658,0,0,0,1.853,9.285c2.472,2.613,6.387,3.248,9.985,3.167a20.961,20.961,0,0,0,8.618-1.817c3.087-1.487,5.567-3.971,8.441-5.828,3.795-2.444,8.16-3.666,10.226.474,1.97,3.947,1.845,8.12,6.094,10.728,2.01,1.206,4.562,1.769,5.849,3.722,1.608,2.472.9,6.729,3.694,7.69,3.662,1.254,6.234-5.7,9.965-4.659,1.865.523,2.585,2.814,2.565,4.747s-.438,3.979.358,5.744c3.091-.141,6.914-.8,7.81-3.778a4.328,4.328,0,0,0,.169-1.314C670.307,160.9,666.946,161.482,664.165,161.607Z" transform="translate(-595.536 -129.92)"/></g><path d="M848.4,387.781l4.667,4.936s3.734,27.2,5.6,29.745,6.271,12.666,2.134,20.267c0,0-1.334,4.136-.535,5.869s-6,10.4-6,10.4-8.936,8-10.8,9.2S831.732,479,828.4,479.135s-4.422,4.269-4.422,4.269l-18.8.667s-10.387-.543-12.646.925c0,0,1.206-15.869-10.4-26.272l14.8-5.334s5.6-2.412,7.336-4.932a9.056,9.056,0,0,1,4.422-3.332s4.132-2.934,4.265-4.534,5.053-3.561,5.053-3.561l-2.786-23.776,1.467-39.473s4.667-33.073,14.535-31.2S848.4,387.781,848.4,387.781Z" transform="translate(-490.695 -228.131)" opacity="0.1"/><path d="M852.4,387.781l4.667,4.936s3.734,27.2,5.6,29.745,6.271,12.666,2.134,20.267c0,0-1.331,4.136-.53,5.869s-6,10.4-6,10.4-8.936,8-10.8,9.2S835.732,479,832.4,479.135s-4.422,4.269-4.422,4.269l-18.8.667s-10.395-.543-12.646.925c0,0,1.206-15.869-10.4-26.272l14.8-5.334s5.6-2.412,7.336-4.932a9.056,9.056,0,0,1,4.422-3.332s4.132-2.934,4.265-4.534,5.053-3.561,5.053-3.561l-2.786-23.776,1.467-39.473s4.667-33.073,14.535-31.2S852.4,387.781,852.4,387.781Z" transform="translate(-493.087 -228.131)" fill="#e8f5ff"/><path d="M907.84,552.276s13.735-3.618,17.337.8S907.84,552.276,907.84,552.276Z" transform="translate(-565.863 -352.762)" opacity="0.1"/><path d="M899.88,569.44c4.667,3.268,19.069,3.4,19.069,3.4Z" transform="translate(-561.102 -363.851)" opacity="0.1"/><path d="M917.46,610.08c.4.133,9.9,10.27,13.888,7.2S917.46,610.08,917.46,610.08Z" transform="translate(-571.616 -388.13)" opacity="0.1"/><path d="M599.22,398.42s2.79,19.206,1.415,27.028,3.642,17.514,3.642,17.514Z" transform="translate(-381.276 -261.637)" opacity="0.1"/><path d="M388.838,412.411c-3.216,2.52-5.563,8.485-7.263,15.041a161.807,161.807,0,0,0-3.935,24.7s-25.605-5.869-23.74-8.534c1.174-1.676-.4-14.306-1.716-23.463-.784-5.41-1.483-9.611-1.483-9.611S397.641,405.473,388.838,412.411Z" transform="translate(-232.639 -267.812)" fill="#ffccd0"/><path d="M388.838,411.084c-3.216,2.524-5.563,8.485-7.263,15.041a29.544,29.544,0,0,1-29.392-7.3c-.784-5.414-1.483-9.615-1.483-9.615S397.641,404.15,388.838,411.084Z" transform="translate(-232.639 -267.037)" opacity="0.1"/><path d="M391.687,336.731a29.617,29.617,0,1,1-6.516-18.522A29.616,29.616,0,0,1,391.687,336.731Z" transform="translate(-221.725 -207.084)" fill="#ffccd0"/><path d="M523.176,794.9h-8.441l-.711-14.909-.744-15.431s1.917-.285,4.972-.711l1.234-.165h.1c.667,3.131,1.326,6.347,1.962,9.559a98.226,98.226,0,0,1,1.644,17.284V791.7C523.217,792.778,523.192,793.851,523.176,794.9Z" transform="translate(-329.876 -479.877)" opacity="0.1"/><path d="M376.371,630.62H270.51c.458-1.041.764-1.672.764-1.672s8.469-37.053,12.774-52.729a.2.2,0,0,0,0-.04,62.7,62.7,0,0,1,1.946-6.291h0a2.156,2.156,0,0,1,.189-.4c2.13-3.465,4.8-7.2,1.065-12.533s-2.412-28.8-2.412-28.8,4.534-20.006,9.334-30.674a14.349,14.349,0,0,1,3.047-4.422,12.456,12.456,0,0,1,1.334-1.134h0a11.719,11.719,0,0,1,1.118-.744l.076-.048a16.127,16.127,0,0,1,6.564-2.038,18.726,18.726,0,0,1,4.924.137,73.492,73.492,0,0,1,18.965,5.226c13.422,5.9,17.485,13.8,17.566,13.964h0l.032.068c.539,1.258,8.417,19.652,11.255,28.234.736,2.235,1.138,3.807.977,4.237-.8,2.13,6.134,28.8,6.134,28.8s3.216,12.863,6.431,27.94c.141.627.273,1.254.4,1.889.575,2.737,1.146,5.527,1.7,8.313a97.718,97.718,0,0,1,1.644,17.405Q376.423,628.031,376.371,630.62Z" transform="translate(-184.68 -315.6)" fill="#ff748e"/><path d="M347.264,465.066s-7.3-2.814-7.215,1.455,1.781,6.311,1.246,6.934.265,4.357.265,4.357,9.868,0,14.4,2.042,21.248,6.134,23.382,7.38,10.049,6.833,10.049,6.833l.711-10.58a60.357,60.357,0,0,0-21.6-10.222C355.082,469.8,347.264,465.066,347.264,465.066Z" transform="translate(-226.269 -300.923)" opacity="0.1"/><path d="M347.264,463.736s-7.3-2.814-7.215,1.455,1.781,6.311,1.246,6.934.265,4.357.265,4.357,9.868,0,14.4,2.046,21.248,6.134,23.382,7.376,10.049,6.833,10.049,6.833l.719-10.547a60.355,60.355,0,0,0-21.6-10.222C355.09,468.5,347.264,463.736,347.264,463.736Z" transform="translate(-226.269 -300.128)" fill="#ff748e"/><path d="M412.85,528.43s13.956,15.11,13.245,19.294S412.85,528.43,412.85,528.43Z" transform="translate(-269.81 -339.333)" opacity="0.1"/><path d="M436.163,741.85s-5.422,11.026-2.488,10.314S436.163,741.85,436.163,741.85Z" transform="translate(-281.743 -466.822)" fill="none"/><path d="M335.42,664.22s-10.23,9.426-13.245,9.961,2.311,2.311,5.776.892S338.8,669.92,338.8,669.92Z" transform="translate(-215.045 -420.475)" opacity="0.1"/><path d="M482.618,793.485H458.762c-3.336-2.894-6.492-5.575-8.5-7.187a27.747,27.747,0,0,1-7.014-9.434c-.334-.7-.623-1.347-.868-1.937a32.313,32.313,0,0,1-1.158-3.115l17.666-10.491a27.622,27.622,0,0,1,2.745,2.685l.213.245a7.255,7.255,0,0,1,1.921,3.549c.088,1.254,3.577,6.106,7.143,10.765,3.618,4.739,7.324,9.269,7.569,9.575h0s.611.832,1.608,2.11C480.789,791.174,481.657,792.283,482.618,793.485Z" transform="translate(-286.779 -478.465)" fill="#ffccd0"/><path d="M385.193,318.23a17.23,17.23,0,0,0-1.72,6.029c-.318,6.15.2,19.9-6.612,22.988-3.372,1.519-6.982-1.817-10.68-1.9-2.661-.056-5.1,1.632-6.725,3.742a40.49,40.49,0,0,0-3.811,7,47.836,47.836,0,0,1-3.694,6.23,15.67,15.67,0,0,1-1.367,1.724,29.609,29.609,0,1,1,34.609-45.8Z" transform="translate(-221.746 -207.108)" opacity="0.1"/><path d="M336.006,304.912c-.322,6.15.2,19.9-6.616,22.984-3.372,1.519-6.982-1.813-10.68-1.893-2.661-.06-5.1,1.632-6.725,3.738a40.234,40.234,0,0,0-3.811,7.006,47.935,47.935,0,0,1-3.694,6.23,9.046,9.046,0,0,1-3.019,3.011c-2.219,1.158-4.908.506-7.288-.237q-4.631-1.459-9.125-3.288a9.191,9.191,0,0,0,.1-1.367c-.088.169-.185.326-.281.494l-.189.33c-.342.6-.675,1.206-.981,1.825-.117.237-.229.482-.33.728a9.245,9.245,0,0,0-.752,2.878c-.205,2.681,1.117,5.225,2.291,7.637,4.514,9.329,7.3,20.239,3.907,30.026-1.471,4.257-4.02,8.039-5.881,12.151a39.259,39.259,0,0,0-2.745,23.225c.928,4.872,2.79,9.7,2.331,14.635-.8,8.5-8.136,14.828-15.48,19.178-3.967,2.339-8.823,4.422-13.036,2.573,2.685-3.135,3.376-7.472,3.955-11.564q2.376-16.742,4.763-33.5.953-6.669,1.9-13.337c1.182-8.353,2.38-16.8,1.64-25.2-.539-6.194-2.058-12.77.627-18.378,1.419-2.97,3.947-5.43,4.735-8.63.647-2.6.044-5.366.47-8.015a13.645,13.645,0,0,1,1.174-3.473,17.066,17.066,0,0,1,2.693-4.108,4.6,4.6,0,0,1-2.693-1.644c1.728-1.126,1.99-3.662,1.206-5.567S272.13,320,270.72,318.5s-2.77-3.256-2.946-5.306c-.342-3.9,3.557-6.926,4.245-10.777.7-3.919-2.054-7.73-1.833-11.7.257-4.8,4.663-8.28,9.012-10.3a41,41,0,0,1,21.015-3.618c5.861.555,11.532,2.368,17.377,3.071,3.525.4,7.1.442,10.6,1.061s7.01,1.925,9.474,4.494C344.158,292.2,336.376,297.773,336.006,304.912Z" transform="translate(-174.81 -188.598)" fill="#ffe0d0"/><path d="M372.769,647.94c-2.05-.888-5.78-.358-12.183-2.307s-7.637-10.761-7.637-10.761v-.028h0c-.076-.2-.671-1.511-4.7-6.1-4.45-5.069-14.069-30.67-14.069-30.67s-8.53-9.161-8.26-12.537-1.515-12.36-1.339-22.409,19.2-16.714,19.2-16.714c36.631-6.492,28,35.739,27.028,38.938s4.092,11.842,4.092,11.842c-.715,3.762,2.934,9.587,2.934,9.587s.884,5.153,1.065,7.111a1.207,1.207,0,0,0,.06.265c.587,1.845,5.37,3.517,7.316,4.534,2.046,1.069,8.626,10.4,8.626,10.4C396.324,635.945,374.811,648.84,372.769,647.94Z" transform="translate(-217.012 -349.537)" opacity="0.1"/><path d="M375.425,643.97c-2.046-.892-5.78-.358-12.179-2.311s-7.637-10.756-7.637-10.756v-.028h0c-.072-.2-.671-1.511-4.7-6.1C346.459,619.7,336.84,594.1,336.84,594.1s-8.53-9.157-8.264-12.533-1.511-12.36-1.335-22.4,19.19-16.7,19.19-16.7c36.631-6.492,28,35.738,27.028,38.938s4.092,11.842,4.092,11.842c-.716,3.762,2.934,9.587,2.934,9.587s.884,5.153,1.069,7.111a1.008,1.008,0,0,0,.056.265c.587,1.845,5.37,3.517,7.32,4.534,2.042,1.065,8.626,10.4,8.626,10.4C398.984,631.983,377.471,644.878,375.425,643.97Z" transform="translate(-218.603 -347.175)" fill="#ff748e"/><path d="M376.8,598.32s16,16.882,20.179,16.882S376.8,598.32,376.8,598.32Z" transform="translate(-248.249 -381.095)" opacity="0.1"/><path d="M417.647,745.741c-2.046-.892-5.78-.358-12.179-2.311s-7.637-10.756-7.637-10.756v-.028h0c4.241-2.814,14.981-10.76,19.214-13.667a29.655,29.655,0,0,0,6.833-7.018c.587,1.845,5.37,3.517,7.32,4.534,2.042,1.065,8.626,10.4,8.626,10.4C441.206,733.754,419.693,746.649,417.647,745.741Z" transform="translate(-260.828 -448.946)" fill="#ff748e"/><g transform="translate(79.2 95.749)" opacity="0.1"><path d="M302,406.318c.02.032.048.06.072.092.121-.153.245-.305.374-.45a3,3,0,0,1-.446.358Z" transform="translate(-282.71 -361.696)"/><path d="M282.626,440.215c.169-2.231,1.363-4.2,2.48-6.158-.732-.281-1.463-.567-2.187-.864a9.107,9.107,0,0,0,.1-1.363c-1.13,2.01-2.359,3.987-2.532,6.251-.2,2.685,1.117,5.225,2.291,7.637,4.518,9.326,7.3,20.235,3.907,30.027-1.475,4.253-4.02,8.039-5.881,12.151a39.244,39.244,0,0,0-2.741,23.221c.921,4.876,2.786,9.7,2.327,14.636-.8,8.5-8.132,14.828-15.48,19.174-3,1.777-6.512,3.4-9.868,3.288a12.158,12.158,0,0,1-1.037,1.427c4.217,1.861,9.068-.233,13.036-2.581,7.352-4.341,14.7-10.652,15.5-19.17.458-4.94-1.407-9.76-2.331-14.635a39.276,39.276,0,0,1,2.733-23.221c1.849-4.108,4.422-7.9,5.881-12.151,3.4-9.792.607-20.7-3.907-30.027C283.751,445.428,282.421,442.9,282.626,440.215Z" transform="translate(-254.01 -377.167)"/><path d="M383.835,296.966a11.617,11.617,0,0,0-1.27-1.125c4.872,6.319-2.163,11.689-2.512,18.49-.314,6.15.2,19.905-6.612,22.984-3.368,1.523-6.982-1.813-10.676-1.893-2.665-.056-5.1,1.636-6.729,3.742a40.053,40.053,0,0,0-3.807,7,48.141,48.141,0,0,1-3.7,6.23,8.819,8.819,0,0,1-3.023,3.015c-2.211,1.154-4.9.507-7.284-.241q-3.477-1.093-6.89-2.412a8.688,8.688,0,0,1-.1,1.25q4.5,1.833,9.129,3.288c2.38.748,5.069,1.395,7.284.241a9.045,9.045,0,0,0,3.023-3.019,47.354,47.354,0,0,0,3.694-6.226,40.109,40.109,0,0,1,3.811-7.006c1.632-2.106,4.064-3.795,6.725-3.738,3.7.08,7.312,3.417,10.68,1.893,6.813-3.079,6.295-16.834,6.612-22.984C382.557,309.306,390.339,303.735,383.835,296.966Z" transform="translate(-300.19 -295.84)"/></g><path d="M313.358,423.776c-.342.6-.675,1.206-.981,1.825-.117.237-.229.482-.33.728-2.106-2.122-7.235-7.167-10.1-8.731a17.145,17.145,0,0,1,2.693-4.108S311.464,417.1,313.358,423.776Z" transform="translate(-203.481 -270.662)" opacity="0.1"/><path d="M313.547,421.862c-1.58-7.151-8.9-11.022-8.9-11.022a17.065,17.065,0,0,0-2.693,4.108c3.019,1.652,8.582,7.191,10.427,9.068Z" transform="translate(-203.481 -269.079)" fill="#ff748e"/></g></svg>