<svg id="Illustration" xmlns="http://www.w3.org/2000/svg" width="279.308" height="170" viewBox="0 0 279.308 170">
  <path id="Path_914" data-name="Path 914" d="M793.3,434.138s-11.236-2.276-9.814,2.56,10.809,1.707,10.809,1.707Z" transform="translate(-598.624 -352.635)" fill="#ffb8b8"/>
  <path id="Path_915" data-name="Path 915" d="M844.631,331.054a1.054,1.054,0,0,1,1.748.6l.384,2.23s1.736,8.922.25,14.589-2.541,13.132-6.558,13.928c-3.437.681-16.507-.4-20.208-.722a1.053,1.053,0,0,1-.961-1.073l.069-3.255a1.055,1.055,0,0,1,.943-1.026l14.964-1.6a1.053,1.053,0,0,0,.932-.9c.356-2.546,1.507-10.439,2.65-14.588C839.769,335.888,842.8,332.722,844.631,331.054Z" transform="translate(-625.716 -275.092)" fill="#575a89"/>
  <rect id="Rectangle_256" data-name="Rectangle 256" width="103.265" height="0.492" transform="translate(176.043 164.303)" fill="#3f3d56"/>
  <path id="Path_916" data-name="Path 916" d="M850.822,614.608v6.827l3.84.853,2.56-1.28-.284-5.4Z" transform="translate(-641.631 -463.494)" fill="#ffb8b8"/>
  <path id="Path_917" data-name="Path 917" d="M943.086,614.608v6.827l3.84.853,2.56-1.28-.285-5.4Z" transform="translate(-711.21 -463.494)" fill="#ffb8b8"/>
  <path id="Path_918" data-name="Path 918" d="M888.757,493.3s-5.12,10.382-4.978,18.489a111.2,111.2,0,0,1-.711,14.649l-2.56,24.32,8.249.427,3.84-26.169,7.4-20.2,2.844,24.036.711,24.178h7.111s3.271-22.9,1.422-28.018c0,0,4.267-28.729.853-30.152S888.757,493.3,888.757,493.3Z" transform="translate(-671.886 -397.652)" fill="#2f2e41"/>
  <path id="Path_919" data-name="Path 919" d="M846.9,728.923s-1.422-5.262-3.413-2.56-7.68,7.253-7.68,7.253-8.534,4.551-.711,5.689,8.676-1.422,8.676-1.422a3.285,3.285,0,0,1,2.418-.285c1.138.427,6.116.285,6.4-1.422s-1.564-11.094-2.133-9.387S846.9,728.923,846.9,728.923Z" transform="translate(-635.15 -572.832)" fill="#2f2e41"/>
  <path id="Path_920" data-name="Path 920" d="M978.8,733.3s0-1.564-2.7-1.707-3.129,1.707-3.129,1.707a4.612,4.612,0,0,0-.853,2.844c-.142,2.133,0,7.68,0,7.68s-1.28,4.267,4.551,3.413,3.7-5.262,3.7-5.262Z" transform="translate(-740.882 -577.356)" fill="#2f2e41"/>
  <path id="Path_921" data-name="Path 921" d="M951.336,277.532l-.711,7.965-1.28,2.987,3.413,4.836,8.391-7.822s-1.564-4.267-.569-6.685Z" transform="translate(-723.798 -234.937)" fill="#ffb8b8"/>
  <path id="Path_922" data-name="Path 922" d="M941.167,310.816l-.066.7-2.495,26.606s-.1,1.237-.28,2.887c-.307,2.79-.853,6.76-1.569,7.922a3.531,3.531,0,0,0-.284,3.413c-6.542,3.84-25.885-1.707-25.885-1.707L915,333s-3.982-18.347-3.556-20.054,9.387-7.822,9.387-7.822l.265.711c3.819,5.12,7.7.711,8.838-.284l2.276-1.991Z" transform="translate(-694.57 -254.567)" fill="#575a89"/>
  <path id="Path_923" data-name="Path 923" d="M434.865,422.631c-13.56,1.839-26.5,2.513-38.465,1.38a92.81,92.81,0,0,1-12.617-2.167c-7.611-1.8-16.953-1.8-27.218-.842a78.121,78.121,0,0,0-18.321,3.886c-7.954,2.753-16.668,2.515-25.907.21a47.251,47.251,0,0,1-10.878-4.331c-6.754-3.63-14.748-2.315-23.46,1.864V390.176c8.133-3.542,16.057-4.114,23.729-1.128a50.125,50.125,0,0,0,8.64,2.577,68.1,68.1,0,0,0,32.1-1.449c14.105-4.779,28.86-3.294,43.8,0,16.647,3.516,32.872,3.723,48.6,0Z" transform="translate(-217.516 -317.582)" fill="#3f3d56"/>
  <rect id="Rectangle_257" data-name="Rectangle 257" width="103.265" height="0.492" transform="translate(0 164.303)" fill="#3f3d56"/>
  <rect id="Rectangle_258" data-name="Rectangle 258" width="8.967" height="8.967" transform="translate(135.57 7.765) rotate(150)" fill="#ff6584"/>
  <rect id="Rectangle_259" data-name="Rectangle 259" width="8.967" height="8.967" transform="translate(106.804 46.858) rotate(150)" fill="#3f3d56"/>
  <rect id="Rectangle_260" data-name="Rectangle 260" width="8.967" height="8.967" transform="translate(185.728 36.532) rotate(150)" fill="#d0cde1"/>
  <path id="Path_924" data-name="Path 924" d="M149.514,388.233l4.7,21.738-14.26,32,8.347,3.652,16-36.693L154.068,376.7l-6.087,1.565Z" transform="translate(-105.54 -284.082)" fill="#2f2e41"/>
  <path id="Path_925" data-name="Path 925" d="M193.875,479.576a18.993,18.993,0,0,0,5.565,5.739c3.826,2.608,11.825,19.825,11.825,19.825l-8.7,34.78,12,3.3,6.608-40.867L207.613,471.75Z" transform="translate(-154.075 -381.402)" fill="#2f2e41"/>
  <path id="Path_926" data-name="Path 926" d="M172.489,741.488s-1.739,1.913-1.043,3.3a21.161,21.161,0,0,1,1.043,5.043h1.565v-4.174l5.043,4.7s11.651,1.043,11.477,0-6.956-3.478-6.956-3.478l-3.3-5.043Z" transform="translate(-137.036 -584.82)" fill="#2f2e41"/>
  <path id="Path_927" data-name="Path 927" d="M234.73,743.349s-1.739,1.913-1.043,3.3a21.16,21.16,0,0,1,1.043,5.043H236.3v-4.174l5.043,4.7s11.651,1.043,11.477,0-6.956-3.478-6.956-3.478l-3.3-5.043Z" transform="translate(-183.974 -586.223)" fill="#2f2e41"/>
  <circle id="Ellipse_128" data-name="Ellipse 128" cx="6.608" cy="6.608" r="6.608" transform="translate(39.974 37.308)" fill="#a0616a"/>
  <path id="Path_928" data-name="Path 928" d="M177.665,284.319s-.522,6.608-3.826,9.043-3.3,4.521-3.3,4.521l13.39,6.087-3.13-6.608s-.869-.348.522-2.087,2.608-5.913,2.608-5.913Z" transform="translate(-136.473 -240.055)" fill="#a0616a"/>
  <path id="Path_929" data-name="Path 929" d="M179.514,362.7h0a37.454,37.454,0,0,1-12.347,7.167l-3.156,1.1s-6.674-8.1-3.3-14.482a10,10,0,0,1,2.9-3.433l-.07-.3-1.692-7.382-.151-.661-5.043-1.217-.045.012c-.377.1-2.935.569-1-5.4,1.289-3.974,2.223-7.757,2.749-10.07a2.454,2.454,0,0,1,3.035-1.829,9.075,9.075,0,0,1,4.823,2.856c2.261,2.956,2.717-.131,2.717-.131s6.326,7.087,5.978,10.217a12.44,12.44,0,0,0,.076,2.518v0c.042.372.092.76.15,1.156.431,2.928,1.266,6.332,1.572,7.528.023.085.042.16.057.223.037.144.057.223.057.223Z" transform="translate(-124.672 -271.571)" fill="#575a89"/>
  <path id="Path_930" data-name="Path 930" d="M174.892,400.278l-1.391,4.7s-5.335-1.36-8.46-2.132a10,10,0,0,1,2.9-3.433l-.07-.3-1.692-7.382-.151-.661-5.043-1.217s-.016.005-.045.012l-.3-2.273s8.7.522,9.217,2.608a5.108,5.108,0,0,1-1.043,4.521c-.522.348,0,0,1.043.522s-.348,0-1.043,1.043.174.174.348.7,0-.174-.174.7.7.174.87.174S174.892,400.278,174.892,400.278Z" transform="translate(-129.006 -317.929)" opacity="0.2"/>
  <path id="Path_931" data-name="Path 931" d="M210.664,430.3l11.3,2.956s6.087-6.26,9.391-4.348-5.913,6.26-5.913,6.26l-3.3.7-12-1.391Z" transform="translate(-166.343 -348.818)" fill="#a0616a"/>
  <path id="Path_932" data-name="Path 932" d="M160.633,384.754l.7,5.217s-.522,0,0,1.217,0,3.652,0,3.652-1.043.174-.174.7,1.739,1.913,1.391,2.435-1.043,1.217.522,1.565,10.434,2.608,10.434,2.608l1.391-4.7s-4.869-2.435-5.043-2.435-1.043.7-.87-.174.348-.174.174-.7-1.043.348-.348-.7,2.087-.522,1.043-1.043-1.565-.174-1.043-.522a5.108,5.108,0,0,0,1.043-4.521C169.328,385.276,160.633,384.754,160.633,384.754Z" transform="translate(-129.006 -315.796)" fill="#575a89"/>
  <path id="Path_933" data-name="Path 933" d="M184.672,311.967l.524-.833a1.74,1.74,0,0,0-.546-2.4l-3.993-2.511a1.74,1.74,0,0,0-2.4.546l-.524.833a1.737,1.737,0,0,0-1.479.812l-1.289,2.05a1.739,1.739,0,0,0,.546,2.4l5.38,3.384a1.739,1.739,0,0,0,2.4-.546l1.289-2.05A1.737,1.737,0,0,0,184.672,311.967Z" transform="translate(-139.614 -256.373)" fill="#575a89"/>
  <path id="Path_934" data-name="Path 934" d="M179.555,252.654c.37-.54.208-1.29.472-1.889.415-.94,1.641-1.133,2.666-1.194a7.859,7.859,0,0,1,2.042.055,1.961,1.961,0,0,1,1.392,1.061c.144.307.129-.645.062-1.869a5.907,5.907,0,0,0-4.4-5.392l-.043-.011a11.2,11.2,0,0,0-3.793-.442,4.948,4.948,0,0,0-3.37,1.621c-.373.45-.643.985-1.057,1.4a6.68,6.68,0,0,1-2.765,1.289,8.245,8.245,0,0,0-3.037,1.656,4.469,4.469,0,0,0-1.522,3.035,2.974,2.974,0,0,0,2.157,3.074,1.559,1.559,0,0,1,.659.3c1.3,1.06-.238,2.1-.255,3.257-.015.966,1.045,1.621,2.009,1.69a3.888,3.888,0,0,0,3.946-2.982,8.1,8.1,0,0,0,0-2.408c-.086-.919,1.939-3.028.6-1.478a2.268,2.268,0,0,0-.524,1.037c-.247,1.258.892,1.71,1.6,2.428a3,3,0,0,1,.652,3.109,3.463,3.463,0,0,0,.735-4.357c-.225-.364-.518-.682-.731-1.053-.332-.579-.4-1.822.569-1.765C178.3,252.866,179,253.458,179.555,252.654Z" transform="translate(-133.203 -208.852)" fill="#2f2e41"/>
  <circle id="Ellipse_129" data-name="Ellipse 129" cx="7.253" cy="7.253" r="7.253" transform="translate(225.12 31.929)" fill="#ffb8b8"/>
  <path id="Path_935" data-name="Path 935" d="M961.756,336.879l-2.495,26.606s-.1,1.237-.28,2.887c-5.295,1.266-19.916,2.233-19.916,2.233l-.711-5.12,16.214-4.409s-1.991-11.094.285-15.645a35.181,35.181,0,0,0,1.493-3.4A4.937,4.937,0,0,1,961.756,336.879Z" transform="translate(-715.509 -279.644)" opacity="0.2"/>
  <path id="Path_936" data-name="Path 936" d="M914.235,440.752s-11.236-2.276-9.814,2.56,10.809,1.707,10.809,1.707Z" transform="translate(-689.826 -357.622)" fill="#ffb8b8"/>
  <path id="Path_937" data-name="Path 937" d="M958.569,330.172l4.409.711s3.129,8.534,2.56,14.365-.427,13.369-4.267,14.791-21.049,2.56-21.049,2.56l-.711-5.12,16.214-4.409s-1.991-11.094.284-15.645A23.868,23.868,0,0,0,958.569,330.172Z" transform="translate(-716.382 -274.634)" fill="#575a89"/>
  <path id="Path_938" data-name="Path 938" d="M945.9,218.494l-1.394-.558s2.915-3.209,6.971-2.93l-1.141-1.256s2.788-1.116,5.323,1.814a24.744,24.744,0,0,1,3.835,5.391h1.493l-.623,1.372,2.181,1.372-2.239-.246a7.666,7.666,0,0,1,.061,2.276,2.945,2.945,0,0,1-1.078,1.926h0a30.947,30.947,0,0,1-1.729-4.137v1.4s-1.394-1.256-1.394-2.093l-.76.977h-5.07l.76-1.256-2.915.419,1.141-1.535-4.513,6.338S942.228,220.587,945.9,218.494Z" transform="translate(-719.714 -186.679)" fill="#2f2e41"/>
  <circle id="Ellipse_130" data-name="Ellipse 130" cx="26.554" cy="26.554" r="26.554" transform="translate(112.362 62.759)" fill="#81d8d0"/>
  <path id="Path_939" data-name="Path 939" d="M573.079,487.154c0,1.63-5.983,5.716-12.908,5.716S548,488.783,548,487.154s5.245.553,12.171.553S573.079,485.524,573.079,487.154Z" transform="translate(-421.131 -392.563)" fill="#d0cde1"/>
  <circle id="Ellipse_131" data-name="Ellipse 131" cx="2.95" cy="2.95" r="2.95" transform="translate(145.555 78.741)" fill="#3f3d56"/>
  <circle id="Ellipse_132" data-name="Ellipse 132" cx="2.95" cy="2.95" r="2.95" transform="translate(126.377 78.741)" fill="#3f3d56"/>
  <circle id="Ellipse_133" data-name="Ellipse 133" cx="1.475" cy="1.475" r="1.475" transform="translate(129.573 78.741)" fill="#d0cde1"/>
  <circle id="Ellipse_134" data-name="Ellipse 134" cx="1.475" cy="1.475" r="1.475" transform="translate(144.571 78.741)" fill="#d0cde1"/>
  <path id="Path_940" data-name="Path 940" d="M555.582,325.508c3.734,2.223,3.868,8.884,3.868,8.884s-5.919,3.057-9.653.834-3.868-8.884-3.868-8.884S551.848,323.285,555.582,325.508Z" transform="translate(-419.569 -270.506)" fill="#3f3d56"/>
  <path id="Path_941" data-name="Path 941" d="M608.973,331.435c-3.374,2.738-9.673.566-9.673.566s-.828-6.611,2.547-9.349,9.673-.566,9.673-.566S612.348,328.7,608.973,331.435Z" transform="translate(-459.751 -267.92)" fill="#3f3d56"/>
</svg>
