<svg xmlns="http://www.w3.org/2000/svg" xmlns:xlink="http://www.w3.org/1999/xlink" width="440" height="456" viewBox="0 0 440 456"><defs><linearGradient id="a" x1="0.5" y1="1" x2="0.5" gradientUnits="objectBoundingBox"><stop offset="0" stop-color="gray" stop-opacity="0.251"/><stop offset="0.54" stop-color="gray" stop-opacity="0.122"/><stop offset="1" stop-color="gray" stop-opacity="0.102"/></linearGradient><linearGradient id="b" x1="0.5" x2="0.5" y2="0" xlink:href="#a"/><linearGradient id="c" x1="0.446" y1="-0.277" x2="0.446" y2="-1.277" xlink:href="#a"/><linearGradient id="d" x1="0.446" y1="-0.273" x2="0.446" y2="-1.273" xlink:href="#a"/><linearGradient id="e" x1="0.446" y1="-0.269" x2="0.446" y2="-1.269" xlink:href="#a"/><linearGradient id="f" x1="0.451" y1="-0.277" x2="0.451" y2="-1.277" xlink:href="#a"/><linearGradient id="g" x1="0.451" y1="-0.269" x2="0.451" y2="-1.269" xlink:href="#a"/><linearGradient id="h" x1="0.451" y1="-0.273" x2="0.451" y2="-1.273" xlink:href="#a"/><linearGradient id="j" x1="0.5" x2="0.5" y2="0" xlink:href="#a"/><linearGradient id="k" x1="0.5" x2="0.5" y2="0" xlink:href="#a"/><linearGradient id="m" x1="0.5" x2="0.5" y2="0" xlink:href="#a"/></defs><g transform="translate(-72.92 -0.002)"><rect width="440" height="295.253" transform="translate(72.92 80.707)" fill="url(#a)"/><rect width="430.681" height="10.872" transform="translate(77.579 83.845)" fill="#fff"/><rect width="430.681" height="275.411" transform="translate(77.579 94.775)" fill="#f5f5f5"/><circle cx="3.037" cy="3.037" r="3.037" transform="translate(83.272 86.508)" fill="#ff5252"/><circle cx="3.037" cy="3.037" r="3.037" transform="translate(91.626 86.508)" fill="#ff0"/><circle cx="3.037" cy="3.037" r="3.037" transform="translate(99.974 86.508)" fill="#69f0ae"/><path d="M973.213,167.9a.677.677,0,0,0,.069-.7c-1.691-3.883-3.388-2.912-8.4-14.009-5.329-11.805-4-15.757-6-18.011-.8-.9-1.6-3.914-2.668-4.44l-.7-3.181a3.17,3.17,0,0,0,1.835-.326,7.877,7.877,0,0,0,2.687-2.705,21.39,21.39,0,0,0,2.743-5.342,16.446,16.446,0,0,0,.8-4.384h0v-.626h0a14.936,14.936,0,0,0-.056-1.591,7.415,7.415,0,0,0,3.4-1.647,7.083,7.083,0,0,0,2.161-4.44h0c0-.175.038-.344.044-.52s0-.413,0-.626a7,7,0,0,0-2.718-5.286,6.889,6.889,0,0,0-4.728-1.127,18.425,18.425,0,0,0-4.766,1.315,15.224,15.224,0,0,0-1.472.589,9.675,9.675,0,0,0-3.451-.626,19.64,19.64,0,0,0-5.636,1.146l-6.219,1.879a8.081,8.081,0,0,0-3.845,2.017,3.608,3.608,0,0,0-.319.42l-.1.163-.169.3-.1.219c-.038.081-.069.169-.1.257s-.069.188-.094.282h0a4.065,4.065,0,0,0-.144.9h0a3.5,3.5,0,0,0,0,.432v.113a2.654,2.654,0,0,0,.476,1.321,3.8,3.8,0,0,0,1.365,1.052,13.77,13.77,0,0,0,1.879.82,12.938,12.938,0,0,0-1.772,6.6v.8c0,6.5,4.6,11.767,10.271,11.767h.169l.3,2.762a24.729,24.729,0,0,0-3.507,5.636,6.764,6.764,0,0,0-1.716,4.854c-.031,3.075,1.134,7.221,1.572,14.254,0,.488.044,1,.044,1.516a47.7,47.7,0,0,1-.42,5.8c-.113.056-.225.119-.338.169a8.079,8.079,0,0,1-.814.294,7.92,7.92,0,0,1-1.716.326l-1.027.088c-1.027.094-2.029.207-2.943.351a15.83,15.83,0,0,0-3.056.714,3.13,3.13,0,0,0-1.44,1.146,4.788,4.788,0,0,0-.4.67q-.088.182-.169.37a7.562,7.562,0,0,0-.276.8,1.16,1.16,0,0,1-.063.244,15.151,15.151,0,0,1-2.787-.288,7.563,7.563,0,0,0-1.321-.182,5.32,5.32,0,0,1,.758-.188,5.443,5.443,0,0,0-6.494,5.636,6.013,6.013,0,0,0,1.44,4.158c2.543,2.912,5.636,33.192,5.636,33.192H930.2v3.181c-5.2.363-10.471,1.1-10.471,2.586a5.091,5.091,0,0,0,1.66,3.7c-.075-.106-.15-.219-.219-.332a5.718,5.718,0,0,0,1.328,1.159h28.244v-6.67h.044v-.808s-1.027,0-2.611.031v-2.856h1.284c1.146-11.836-3.858-27.186-4.935-30.311,1.76,0,3.614,0,5.448-.144,7.791.4,21.18.3,23.873-4.847C976.851,172.038,974.446,168.988,973.213,167.9ZM934.071,182.14s.589.069,1.591.157c1.065,3.463,1.847,9.156,2.4,14.7A108.263,108.263,0,0,0,934.071,182.14Zm11.3-52.493a9.052,9.052,0,0,0,2.148.263h.081l.063.589a9.29,9.29,0,0,1-2.292-.852Zm-4.891,86.33h-.2v-.119h-2.367V213h2.568Z" transform="translate(-470.745 -98.89)" fill="url(#b)"/><rect width="6.676" height="7.352" transform="translate(462.431 111.33)" fill="#985454"/><rect width="6.676" height="7.352" transform="translate(471.33 111.33)" fill="#985454"/><ellipse cx="8.899" cy="11.761" rx="8.899" ry="11.761" transform="translate(468.524 7.61)" fill="#f8c198"/><path d="M728.539,50.911h-7.784L719.64,39.15h6.676Z" transform="translate(-242.774 -14.631)" fill="#f8c198"/><path d="M964.7,208.51s4.446,2.937,1.115,10.289-25.583,4.384-25.583,4.384,5.561,17.642,4.446,30.875h-8.9s-2.668-30.28-4.872-33.192c-2.837-3.758-.689-10.916,4.872-9.444S964.7,208.51,964.7,208.51Z" transform="translate(-474.454 -139.83)" fill="#263238"/><g transform="translate(455.201 68.417)" opacity="0.2"><path d="M949.44,231.57a82.205,82.205,0,0,0,8.693.576,81.931,81.931,0,0,1-8.63-.369Z" transform="translate(-937.05 -216.865)" fill="#fff"/><path d="M946.34,211.315c8.686-.219,24.593-3.225,24.593-3.225a3.3,3.3,0,0,1,.338.269C966.737,209.173,953.016,211.522,946.34,211.315Z" transform="translate(-935.891 -208.09)" fill="#fff"/><path d="M935.282,212.558c-3.757.758-4.96,6.382-2.555,9.55,2.2,2.912,4.872,33.192,4.872,33.192h-1.822s-2.668-30.28-4.872-33.192C928.155,218.477,930.091,211.625,935.282,212.558Z" transform="translate(-929.656 -209.728)" fill="#fff"/></g><path d="M944.792,286S927,286,927,288.925a5.5,5.5,0,0,0,2.223,4.384h15.569Z" transform="translate(-473.462 -168.775)" fill="#263238"/><path d="M944.5,285.8v.808c-3.1.031-17.191.319-17.191,2.937a5.373,5.373,0,0,0,.827,2.893,5.442,5.442,0,0,1-1.44-3.7C926.712,285.8,944.5,285.8,944.5,285.8Z" transform="translate(-473.35 -168.7)" fill="#fff" opacity="0.2"/><path d="M978.966,208.51s4.447,2.937,1.115,10.289-25.583,4.384-25.583,4.384,5.561,17.642,4.447,30.875h-8.893s-1.115-30.875-4.446-33.818-1.115-10.289,4.446-8.818S978.966,208.51,978.966,208.51Z" transform="translate(-479.83 -139.83)" fill="#263238"/><path d="M959,286s-17.8,0-17.8,2.937a5.5,5.5,0,0,0,2.223,4.384h15.569Z" transform="translate(-478.769 -168.775)" fill="#263238"/><path d="M967.245,149.83h2.706c1.065,0,1.829,3.538,2.586,4.528,1.729,2.255.582,6.206,5.2,18.005,4.34,11.091,5.805,10.12,7.277,14s-26.165,3.695-26.165,3.695a65.965,65.965,0,0,0,1.115-12.876c-.626-11.191-2.812-15.074.125-18.951C960.062,158.234,963.231,149.83,967.245,149.83Z" transform="translate(-485.269 -117.928)" fill="#fccc63"/><path d="M959.829,112.33a6.836,6.836,0,0,1,.915.063c-4.484.626-7.985,5.636-7.985,11.7s3.5,11.1,7.985,11.7a6.833,6.833,0,0,1-.914.063c-4.916,0-8.9-5.267-8.9-11.761S954.919,112.33,959.829,112.33Z" transform="translate(-482.405 -103.912)" fill="#fff" opacity="0.2"/><path d="M949.111,105.48a6.743,6.743,0,0,1,3.332-2.01l5.386-1.879a15.031,15.031,0,0,1,4.879-1.146,7.409,7.409,0,0,1,2.987.626,12.2,12.2,0,0,1,1.252-.589,14.341,14.341,0,0,1,4.127-1.315,5.367,5.367,0,0,1,4.121,1.127,7.384,7.384,0,0,1,2.355,5.279,7.84,7.84,0,0,1-1.91,5.586,6.118,6.118,0,0,1-2.95,1.66,19.213,19.213,0,0,1-.626,6.62,22.753,22.753,0,0,1-2.374,5.336,7.446,7.446,0,0,1-2.324,2.705,2.173,2.173,0,0,1-2.918-.476,6.137,6.137,0,0,1-.864-2.787c-.564-3.97-1.127-8.53-3.758-10.646-1.628-1.328-3.451-1.2-5.273-1.184a8.836,8.836,0,0,1-4.722-1.428,3.4,3.4,0,0,1-1.177-1.052A4.183,4.183,0,0,1,949.111,105.48Z" transform="translate(-481.388 -98.973)" fill="#ff5252"/><g transform="translate(466.86 0.122)" opacity="0.2"><path d="M975.219,101.875a5.367,5.367,0,0,0-4.1-1.121A14.341,14.341,0,0,0,967,102.069a12.2,12.2,0,0,0-1.253.589,7.408,7.408,0,0,0-2.987-.626,15.031,15.031,0,0,0-4.879,1.146l-5.386,1.879a6.8,6.8,0,0,0-3.332,2.01,4.442,4.442,0,0,0-.814,1.879,4.509,4.509,0,0,1,.814-3.5,6.742,6.742,0,0,1,3.332-2.01l5.386-1.879a15.031,15.031,0,0,1,4.879-1.146,7.409,7.409,0,0,1,2.987.626,12.205,12.205,0,0,1,1.253-.589,14.341,14.341,0,0,1,4.127-1.315,5.367,5.367,0,0,1,4.1,1.152,7.383,7.383,0,0,1,2.355,5.279,8.416,8.416,0,0,1-.044,1.146,7.258,7.258,0,0,0-2.311-4.835Z" transform="translate(-948.272 -99.084)" fill="#fff"/><path d="M987.361,123.5v.626a4.205,4.205,0,0,0-.031-.626Z" transform="translate(-962.87 -108.209)" fill="#fff"/></g><path d="M959.922,177.415c-.626-11.191-2.812-15.074.125-18.951,0,0,3.131-8.4,7.183-8.4h2.705c.319,0,.626.326.889.8h-1.772c-4.033,0-7.183,8.4-7.183,8.4-2.937,3.877-.733,7.759-.125,18.951a62.512,62.512,0,0,1-.971,12.068h-1.941A66.737,66.737,0,0,0,959.922,177.415Z" transform="translate(-485.254 -118.013)" fill="#fff" opacity="0.2"/><rect width="9.72" height="8.837" transform="translate(487.563 52.124) rotate(180)" fill="#fccc63"/><g transform="translate(464.205 68.417)" opacity="0.2"><path d="M960.54,211.315c8.686-.219,24.593-3.225,24.593-3.225a3.33,3.33,0,0,1,.338.269C980.937,209.173,967.191,211.522,960.54,211.315Z" transform="translate(-950.202 -208.09)" fill="#fff"/><path d="M949.58,212.568c-3.814.764-5.01,6.432-2.154,8.924,3.338,2.937,4.446,33.818,4.446,33.818h-1.823s-1.115-30.875-4.446-33.818C942.359,218.637,944.363,211.622,949.58,212.568Z" transform="translate(-944.033 -209.731)" fill="#fff"/><path d="M963.65,231.57a82.211,82.211,0,0,0,8.693.576,81.938,81.938,0,0,1-8.63-.37Z" transform="translate(-951.365 -216.865)" fill="#fff"/></g><path d="M966.261,178v14.06c0,5.1-3.2,9.175-7.052,8.974-4.7-.244-10.127-.332-10.74.482-.514.683-1.747,1.992-2.918,3.206s-2.9,0-2.774-2.017c.15-2.361.714-4.879,2.355-5.6a22.674,22.674,0,0,1,6.087-1.146c4.1-.363,7.258-4.891,7.258-10.314V178Z" transform="translate(-479.356 -128.456)" fill="#f8c198"/><path d="M942.766,202.712c.15-2.361.714-4.879,2.355-5.6a22.673,22.673,0,0,1,6.087-1.146c4.1-.363,7.258-4.891,7.258-10.314V178h7.784v.8h-6.563v7.647c0,5.423-3.169,9.951-7.258,10.314a22.62,22.62,0,0,0-6.087,1.146c-1.647.726-2.211,3.238-2.355,5.6a2.767,2.767,0,0,0,.413,1.691A2.146,2.146,0,0,1,942.766,202.712Z" transform="translate(-479.352 -128.456)" fill="#fff" opacity="0.2"/><path d="M959.068,285.8v.808c-3.1.031-17.191.319-17.191,2.937a5.375,5.375,0,0,0,.833,2.9,5.443,5.443,0,0,1-1.44-3.7C941.27,285.8,959.068,285.8,959.068,285.8Z" transform="translate(-478.795 -168.7)" fill="#fff" opacity="0.2"/><rect width="93.638" height="106.69" transform="translate(122.247 248.442) rotate(-0.2)" fill="url(#c)"/><rect width="91.447" height="102.268" transform="translate(123.348 250.034) rotate(-0.2)" fill="#fff"/><rect width="82.804" height="73.78" transform="translate(127.515 252.398) rotate(-0.2)" fill="#81d8d0" opacity="0.2"/><rect width="93.638" height="106.69" transform="translate(246.136 248.44) rotate(-0.2)" fill="url(#d)"/><rect width="91.447" height="102.268" transform="translate(247.244 250.032) rotate(-0.2)" fill="#fff"/><rect width="82.804" height="73.78" transform="translate(251.411 252.396) rotate(-0.2)" fill="#81d8d0" opacity="0.2"/><rect width="93.638" height="106.69" transform="translate(370.039 248.437) rotate(-0.2)" fill="url(#e)"/><rect width="91.447" height="102.268" transform="translate(371.14 250.03) rotate(-0.2)" fill="#fff"/><rect width="82.804" height="73.78" transform="translate(375.301 252.394) rotate(-0.2)" fill="#81d8d0" opacity="0.2"/><rect width="93.638" height="106.69" transform="translate(121.806 118.4) rotate(-0.2)" fill="url(#f)"/><rect width="91.447" height="102.268" transform="translate(122.907 119.987) rotate(-0.2)" fill="#fff"/><rect width="82.804" height="73.78" transform="translate(127.074 122.356) rotate(-0.2)" fill="#81d8d0" opacity="0.2"/><rect width="93.638" height="106.69" transform="translate(368.738 116.169) rotate(-0.2)" fill="url(#g)"/><rect width="91.447" height="102.268" transform="translate(369.84 117.755) rotate(-0.2)" fill="#fff"/><rect width="82.804" height="73.78" transform="translate(374 120.13) rotate(-0.2)" fill="#81d8d0" opacity="0.2"/><rect width="93.638" height="106.69" transform="translate(245.493 117.465) rotate(-0.2)" fill="url(#h)"/><rect width="91.447" height="102.268" transform="translate(246.595 119.052) rotate(-0.2)" fill="#fff"/><rect width="82.804" height="73.78" transform="translate(250.762 121.427) rotate(-0.2)" fill="#81d8d0" opacity="0.2"/><rect width="205.852" height="187.07" transform="translate(193.769 268.932)" fill="url(#a)"/><rect width="196.884" height="175.009" transform="translate(199.114 274.706)" fill="#fff"/><circle cx="7.778" cy="7.778" r="7.778" transform="translate(204.685 279.509)" fill="url(#j)"/><circle cx="6.319" cy="6.319" r="6.319" transform="translate(206.143 280.968)" fill="#ff9800"/><rect width="40.35" height="15.556" transform="translate(346.721 279.509)" fill="url(#k)"/><rect width="37.92" height="12.638" transform="translate(348.181 280.962)" fill="#f5f5f5"/><rect width="197.372" height="83.612" transform="translate(198.633 320.404)" fill="#81d8d0"/><circle cx="52.017" cy="52.017" r="52.017" transform="translate(245.301 310.196)" fill="url(#a)"/><circle cx="50.558" cy="50.558" r="50.558" transform="translate(246.76 311.655)" fill="#fff"/><circle cx="36.943" cy="36.943" r="36.943" transform="translate(260.376 325.27)" fill="url(#m)"/><circle cx="35.972" cy="35.972" r="35.972" transform="translate(261.347 326.241)" fill="#81d8d0"/><circle cx="21.387" cy="21.387" r="21.387" transform="translate(275.933 341.768)" fill="#81d8d0"/><circle cx="21.387" cy="21.387" r="21.387" transform="translate(275.933 341.768)" opacity="0.2"/></g></svg>