<svg xmlns="http://www.w3.org/2000/svg" xmlns:xlink="http://www.w3.org/1999/xlink" width="828.353" height="581.433" viewBox="0 0 828.353 581.433"><defs><linearGradient id="a" x1="0.5" y1="1" x2="0.5" gradientUnits="objectBoundingBox"><stop offset="0" stop-color="gray" stop-opacity="0.251"/><stop offset="0.54" stop-color="gray" stop-opacity="0.122"/><stop offset="1" stop-color="gray" stop-opacity="0.102"/></linearGradient><linearGradient id="b" x1="0.5" y1="1" x2="0.5" y2="0" xlink:href="#a"/></defs><g transform="translate(0)"><path d="M135.181,396.83H59V500.664h70.6c.188,1.066.368,2.139.563,3.213H59v83.74c.128-.037.24-.082.36-.128,2.012-.8,4.008-1.636,6.005-2.537l1.276-.578q3-1.419,6.005-3c.7-.368,1.4-.75,2.087-1.141a124.919,124.919,0,0,0,29.935-23.39c.255-.248.5-.51.751-.751,1.216-1.321,2.41-2.657,3.565-4.023l1.276-1.5c1.366-1.674,2.687-3.393,3.971-5.134.188-.255.368-.51.563-.751A111.751,111.751,0,0,0,127.7,521.337c.105-.248.2-.518.293-.751q1.546-3.978,2.74-8.032c.345-1.133.676-2.252.961-3.43.105-.345.2-.683.278-1.021,4.264-16.641,4.766-33.928,4.766-51.1V451c0-6.943-.083-13.932-.2-20.912,0-1.809-.075-3.611-.113-5.427q-.158-6.913-.45-13.827c-.045-1.284-.105-2.56-.173-3.836a21.727,21.727,0,0,0-.113-2.207C135.512,402.122,135.361,399.472,135.181,396.83Z" transform="translate(682.658 -143.108)" fill="#29abe3" opacity="0.1"/><path d="M106.9,225.264h41.787a316.772,316.772,0,0,0-22.226-30.6c-6.208-7.626-12.761-15.058-19.561-22.219Z" transform="translate(634.758 -87.009)" fill="#29abe3" opacity="0.1"/><path d="M61.4,247.09V356.276h75.941c0-.315-.053-.638-.075-.953-.068-.863-.135-1.726-.21-2.582-.083-1.006-.173-2.019-.27-3s-.2-2.184-.315-3.273-.218-2.192-.345-3.28-.24-2.177-.375-3.258-.255-2.177-.4-3.258c-.113-.9-.233-1.794-.353-2.695-.173-1.269-.353-2.545-.548-3.806a3.511,3.511,0,0,0-.083-.563,259.648,259.648,0,0,0-5.592-27.413,202.732,202.732,0,0,0-9.42-27.773,208.493,208.493,0,0,0-14.172-27.293Z" transform="translate(680.258 -105.688)" fill="#29abe3" opacity="0.1"/><path d="M910.255,312.385v103.8H747.82v-103.8Zm0,107.005v89.14c-.929.2-1.851.383-2.765.54-1.244.24-2.48.458-3.747.645-.24.037-.487.075-.749.1-.495.083-1,.15-1.5.218-1.251.173-2.5.315-3.747.428-.592.06-1.191.113-1.791.158l-1.446.113h0c-.787.06-1.566.105-2.338.128-.48,0-.959.045-1.454.06h-5.343c-.644,0-1.289,0-1.926-.06h-.045a10.082,10.082,0,0,1-1.341-.06,3.145,3.145,0,0,1-.375,0,7.733,7.733,0,0,1-1.109-.053h-.262l-2.51-.2c-.824-.075-1.656-.173-2.5-.263l-1.708-.2a149.271,149.271,0,0,1-20.57-4.382c-15.152-4.232-29.974-10.152-45.118-14.489-19.58-5.59-41.214-8.336-60.135-1.5V419.39ZM747.82,196.825V58.636a208.557,208.557,0,0,1,52.776,6.2c41.132,10.347,78.037,32.79,109.659,61.453v70.532H902.1v3.2h8.153V309.181H747.82V200.029H868.629v-3.2Zm-208.64-46.678c10.176-.36,20.292-3.587,29.442-8.569,17.5-9.529,31.473-24.243,47.089-36.661C648.157,79.053,688.4,63.446,729.678,59.574V196.825H497.793l-.577-.608ZM495.657,530.665V419.39h47.726c.127-.473.255-.953.4-1.433-.142.48-.262.96-.4,1.433H729.648v80.474c-1.768,1.313-3.514,2.694-5.245,4.1h0c-1.866,1.5-3.709,3.084-5.56,4.637l-1.866,1.546c-.892.75-1.791,1.5-2.7,2.206q-2.7,2.191-5.448,4.322c-.907.75-1.836,1.426-2.758,2.131a375.528,375.528,0,0,1-46.182,30.246q-5.418,3-10.933,5.86c-2.45,1.253-4.916,2.5-7.389,3.707q-5.575,2.724-11.24,5.252h0a412.355,412.355,0,0,1-109.4,31.912q-12.582,1.861-25.26,2.926V530.657h-.75ZM729.648,200.029V309.181H495.628V200.029Zm0,112.355v103.8H495.628v-103.8Zm-252.185.038V416.186H249.85v-103.8ZM250.682,538.9l-.8-119.514H477.463V599.9a407.6,407.6,0,0,1-43.987-.525h-.255q-10.491-.66-20.884-1.921h-.157a384.2,384.2,0,0,1-107.306-28.67m-98.914-239.3c.854-2.018,1.746-4.022,2.653-6,1.694-3.752,3.485-7.4,5.328-11.045H231.7V416.186H186.8c.022-29.383,7.448-59.4,19.138-86.746Zm25.74,89.95v102.8a147.244,147.244,0,0,1-31.03-41.906c-9.254-19.119-13.488-39.82-13.833-60.9Zm0-137.251v27.012H215.6a292.753,292.753,0,0,1,16.073-27.05Zm154.365-122c1.184-.45,2.368-.908,3.559-1.351a324.6,324.6,0,0,1,38.449-11.57l43.747,48.074h0l.839.893-.562.615H316.4a332.865,332.865,0,0,1,69.644-36.7Zm-74.23,39.9H474.271l3.192,2.926V309.181H249.82V257.745a324.493,324.493,0,0,1,61.993-57.716Z" transform="translate(-186.785 -58.624)" fill="#29abe3" opacity="0.1"/><path d="M61.4,320.46v54.113h75.941c0-.315-.053-.638-.075-.953-.068-.863-.135-1.727-.21-2.582-.083-1.006-.173-2.019-.27-3s-.2-2.184-.315-3.273-.218-2.192-.345-3.28-.24-2.177-.375-3.258-.255-2.177-.4-3.258c-.113-.9-.233-1.794-.353-2.695-.173-1.269-.353-2.545-.548-3.806a3.511,3.511,0,0,0-.083-.563,259.646,259.646,0,0,0-5.592-27.413Z" transform="translate(680.258 -124)" fill="#29abe3" opacity="0.1"/><path d="M135.181,396.83H59V500.664h70.6c.188,1.066.368,2.139.563,3.213H59v83.74c.128-.037.24-.082.36-.128,2.012-.8,4.008-1.636,6.005-2.537l1.276-.578q3-1.419,6.005-3c.7-.368,1.4-.75,2.087-1.141a124.919,124.919,0,0,0,29.935-23.39c.255-.248.5-.51.751-.751,1.216-1.321,2.41-2.657,3.565-4.023l1.276-1.5c1.366-1.674,2.687-3.393,3.971-5.134.188-.255.368-.51.563-.751A111.751,111.751,0,0,0,127.7,521.337c.105-.248.2-.518.293-.751q1.546-3.978,2.74-8.032c.345-1.133.676-2.252.961-3.43.105-.345.2-.683.278-1.021,4.264-16.641,4.766-33.928,4.766-51.1V451c0-6.943-.083-13.932-.2-20.912,0-1.809-.075-3.611-.113-5.427q-.158-6.913-.45-13.827c-.045-1.284-.105-2.56-.173-3.836a21.727,21.727,0,0,0-.113-2.207C135.512,402.122,135.361,399.472,135.181,396.83Z" transform="translate(682.658 -143.108)" fill="#29abe3" opacity="0.1"/><path d="M139.56,198.757v93.558h57.28V198.757h-8.167V167.08H155.151v31.676Z" transform="translate(526.63 -41.721)" fill="#29abe3" opacity="0.1"/><rect width="57.273" height="103.834" transform="translate(666.19 253.742)" fill="#29abe3" opacity="0.1"/><path d="M244.08,539.44H186.8v86.322a149.462,149.462,0,0,0,20.6,4.376l1.711.21c.841.1,1.674.18,2.5.263s1.681.143,2.515.2h.263c.36,0,.751.045,1.1.052h.383c.45,0,.9.045,1.351.06h0c.638.038,1.276.045,1.929.053h5.314l1.449-.053c.751,0,1.561-.083,2.342-.135h0l1.441-.105,1.794-.165c1.261-.113,2.515-.255,3.753-.428l1.5-.21.751-.105c1.254-.2,2.492-.405,3.753-.646.923-.158,1.839-.353,2.77-.54Z" transform="translate(479.39 -178.688)" fill="#29abe3" opacity="0.1"/><rect width="47.23" height="104.6" transform="translate(308.881 145.979)" fill="#29abe3" opacity="0.1"/><path d="M380.58,338.19V442.032H615.009v-44.79H490.142v26.422H427.817V338.19Z" transform="translate(-71.86 -84.448)" fill="#29abe3" opacity="0.1"/><path d="M427.82,650.3h.751v68.12q12.686-1.073,25.3-2.92A413.493,413.493,0,0,0,563.5,683.5q15.11-6.8,29.6-14.847A377.766,377.766,0,0,0,639.377,638.4q5.524-4.233,10.907-8.662c2.485-2.049,4.954-4.151,7.454-6.193,1.734-1.4,3.483-2.785,5.254-4.106V538.964H476.423c.128-.48.255-.961.39-1.434-.143.473-.278.953-.405,1.434H428.571V650.252C428.315,650.259,428.068,650.282,427.82,650.3Z" transform="translate(-119.843 -178.26)" fill="#29abe3" opacity="0.1"/><path d="M863.22,230.169H894v-9.563H880.2V192.12q-1.794.653-3.573,1.344v27.143H863.22Z" transform="translate(-677.315 -91.954)" fill="#81d8d0" opacity="0.1"/><path d="M764.36,356.276H915.446l-.053.038.068-.038H943.49v-104.6h-7.942v77.315H899.255V283.2h-29.98V247.09H838.5v36.143h-29.98v45.788H764.36Z" transform="translate(-652.313 -105.688)" fill="#29abe3" opacity="0.1"/><path d="M992.363,396.82V500.662H813.233V396.82ZM764.608,622.894,764.36,540.7h48.873V503.92h179.13V684.446a408.87,408.87,0,0,1-44.062-.525h-.255q-10.509-.661-20.92-1.922h-.157a385.259,385.259,0,0,1-107.49-28.681" transform="translate(-701.187 -143.171)" fill="#29abe3" opacity="0.1"/><path d="M1134.157,539.44H1092.37c.368,21.085,4.6,41.8,13.864,60.921a147.366,147.366,0,0,0,31.076,41.923V576.228h-3.153Z" transform="translate(-1092.347 -178.692)" fill="#29abe3" opacity="0.1"/><path d="M1096.57,506.33h41.81V419.55h-22.624C1104.046,446.91,1096.607,476.936,1096.57,506.33Z" transform="translate(-1096.57 -148.749)" fill="#29abe3" opacity="0.1"/><rect width="25.304" height="32.795" transform="translate(308.887 175.056)" fill="#29abe3" opacity="0.1"/><rect width="25.304" height="7.551" transform="translate(308.887 243.01)" fill="#29abe3" opacity="0.1"/><rect width="25.304" height="22.031" transform="translate(308.887 253.76)" fill="#29abe3" opacity="0.1"/><rect width="25.304" height="32.795" transform="translate(308.887 310.955)" fill="#29abe3" opacity="0.1"/><rect width="25.304" height="32.795" transform="translate(308.887 378.905)" fill="#29abe3" opacity="0.1"/><path d="M707.17,679.339a4.153,4.153,0,0,0-.751.045h.751V687h25.3V654.17h-25.3Z" transform="translate(-398.275 -207.315)" fill="#29abe3" opacity="0.1"/><path d="M706.42,744.71v25.334q12.686-1.073,25.3-2.92V744.71Z" transform="translate(-397.525 -229.925)" fill="#29abe3" opacity="0.1"/><rect width="108.443" height="2.41" transform="translate(434.601 355.158)" fill="#81d8d0" opacity="0.1"/><rect width="108.443" height="9.233" transform="translate(434.601 360.768)" fill="#29abe3" opacity="0.1"/><rect width="108.443" height="14.847" transform="translate(434.601 400.25)" fill="#29abe3" opacity="0.1"/><path d="M434.81,652.15V667h84.821q5.525-4.219,10.914-8.662c2.485-2.049,4.947-4.151,7.454-6.185Z" transform="translate(-0.196 -206.805)" fill="#29abe3" opacity="0.1"/><path d="M520.92,712.233v14.832h8.955q15.1-6.808,29.6-14.855Z" transform="translate(-86.245 -221.821)" fill="#29abe3" opacity="0.1"/><rect width="21.348" height="21.348" transform="translate(225.413 263.822)" fill="#29abe3" opacity="0.1"/><rect width="21.348" height="21.348" transform="translate(686.742 164.395)" fill="#29abe3" opacity="0.1"/><rect width="21.348" height="21.348" transform="translate(686.742 213.962)" fill="#29abe3" opacity="0.1"/><rect width="21.348" height="21.348" transform="translate(686.742 263.529)" fill="#29abe3" opacity="0.1"/><rect width="21.348" height="21.348" transform="translate(686.742 313.089)" fill="#29abe3" opacity="0.1"/><rect width="21.348" height="21.348" transform="translate(686.742 362.656)" fill="#81d8d0" opacity="0.1"/><rect width="21.348" height="21.348" transform="translate(686.742 412.223)" fill="#29abe3" opacity="0.1"/><rect width="21.348" height="21.348" transform="translate(225.413 316.458)" fill="#29abe3" opacity="0.1"/><rect width="21.348" height="21.348" transform="translate(225.413 369.086)" fill="#29abe3" opacity="0.1"/><rect width="21.348" height="21.348" transform="translate(225.413 421.722)" fill="#29abe3" opacity="0.1"/><rect width="21.348" height="21.348" transform="translate(225.413 474.334)" fill="#29abe3" opacity="0.1"/><path d="M797.17,716.1V702.33H775.83v11.807Z" transform="translate(-550.41 -175.347)" fill="#29abe3" opacity="0.1"/><path d="M138.3,357v12.213H65.24V357Zm-7.281,11.447h5.96v-10.7h-6.005Zm-7.274,0h6.005v-10.7h-6.005Zm-7.259,0h6.005v-10.7h-6.005Zm-7.274,0h6v-10.7H109.2Zm-7.266,0h6.005v-10.7h-6.005Zm-7.274,0h6.005v-10.7H94.672Zm-7.274,0H93.4v-10.7H87.4Zm-7.266,0h6.005v-10.7H80.132Zm-7.266,0h6.005v-10.7H72.866Zm-7.266,0h6.005v-10.7H65.6Z" transform="translate(676.418 -133.117)" fill="#29abe3" opacity="0.1"/><path d="M138.3,404.34v12.213H65.24V404.34Zm-7.281,11.44h5.96V405.113h-6.005Zm-7.274,0h6.005V405.113h-6.005Zm-7.259,0h6.005V405.113h-6.005Zm-7.274,0h6V405.113H109.2Zm-7.266,0h6.005V405.113h-6.005Zm-7.274,0h6.005V405.113H94.672Zm-7.274,0H93.4V405.113H87.4Zm-7.266,0h6.005V405.113H80.132Zm-7.266,0h6.005V405.113H72.866Zm-7.266,0h6.005V405.113H65.6Z" transform="translate(676.418 -144.936)" fill="#29abe3" opacity="0.1"/><path d="M138.3,451.7v12.235H65.24V451.7Zm-7.281,11.44h5.96V452.466h-6.005Zm-7.274,0h6.005V452.466h-6.005Zm-7.259,0h6.005V452.466h-6.005Zm-7.274,0h6V452.466H109.2Zm-7.266,0h6.005V452.466h-6.005Zm-7.274,0h6.005V452.466H94.672Zm-7.274,0H93.4V452.466H87.4Zm-7.266,0h6.005V452.466H80.132Zm-7.266,0h6.005V452.466H72.866Zm-7.266,0h6.005V452.466H65.6Z" transform="translate(676.418 -156.76)" fill="#29abe3" opacity="0.1"/><path d="M138.3,499.06v12.2H65.24v-12.2Zm-7.281,11.44h5.96V499.818h-6.005Zm-7.274,0h6.005V499.818h-6.005Zm-7.259,0h6.005V499.818h-6.005Zm-7.274,0h6V499.818H109.2Zm-7.266,0h6.005V499.818h-6.005Zm-7.274,0h6.005V499.818H94.672Zm-7.274,0H93.4V499.818H87.4Zm-7.266,0h6.005V499.818H80.132Zm-7.266,0h6.005V499.818H72.866Zm-7.266,0h6.005V499.818H65.6Z" transform="translate(676.418 -168.583)" fill="#29abe3" opacity="0.1"/><path d="M138.4,546.41c-.293,1.148-.623,2.3-.968,3.43v-2.665H131.43v10.674h3.213c-.1.248-.2.518-.293.751H65.66V546.41Zm-14.262,11.44h6.005V547.176h-6.005Zm-7.259,0h6.005V547.176h-6.005Zm-7.274,0h6.02V547.176h-6.005Zm-7.266,0h6.005V547.176h-6.005Zm-7.274,0h6.005V547.176H95.07Zm-7.274,0H93.8V547.176H87.8Zm-7.266,0h6.005V547.176H80.53Zm-7.266,0h6.005V547.176H73.264Zm-7.266,0H72V547.176H66Z" transform="translate(675.998 -180.405)" fill="#29abe3" opacity="0.1"/><path d="M144.062,593.77c-.188.24-.368.51-.563.751h-3.971v5.127c-.428.51-.848,1.021-1.284,1.5v-6.658h-6.005V605.2h2.432c-.24.248-.473.51-.751.751H88.26V593.77ZM124.988,605.2h6.005V594.536h-6.005Zm-7.274,0h6.005V594.536h-6.005Zm-7.274,0h6.005V594.536h-6.005Zm-7.266,0h6.005V594.536h-6.005Zm-7.266,0h6.005V594.536H95.909Zm-7.266,0h6.005V594.536H88.643Z" transform="translate(653.376 -192.229)" fill="#81d8d0" opacity="0.1"/><path d="M157.383,641.12c-.683.39-1.381.751-2.087,1.141v-.375h-6.005v3.378l-1.276.593v-3.971H142.01v6.493a1.872,1.872,0,0,1-.36.135V641.12Z" transform="translate(599.978 -204.049)" fill="#81d8d0" opacity="0.1"/><path d="M297.648,383.4s2.957-.413,2.957-4.721,2.117-12.355,2.117-12.355h0c0-.038,1.832-14.014,4.361-16.236s5.78-15.268,5.78-15.268.555-7.078,1.689-8.6,2.665-5.254,4.924-10.576,11.68-9.008,11.68-9.008,17.032-9.878,21.858-13.1h0a7.4,7.4,0,0,0,1.224-.923c.841-1.1,4.5-1.126,4.5-1.126a73.792,73.792,0,0,0,.871-7.709,5.872,5.872,0,0,1,.037-.811,25.971,25.971,0,0,1-11.417-14.127c-.09-.285-.165-.585-.248-.871a2.439,2.439,0,0,1-1.464-1.321c-.435-.968-.443-2.1-.983-3-.631-1.066-1.832-1.636-2.777-2.44-2.387-2.027-3-5.442-2.89-8.55.075-2.515.48-5.052.323-7.551l-.045-.631c-.045-.375-.1-.751-.165-1.111-.368-1.862-1.171-3.618-1.621-5.465a7.03,7.03,0,0,1,.555-5.517c1.539-2.334,4.744-2.8,7.559-3.04,3.19-.27,6.043.083,8.084-2.567a28.812,28.812,0,0,1,3.213-3.881c.42-.39,4.5-2.882,4.5-3.048A18.248,18.248,0,0,1,375,218.873c2.117.616,4.114,1.621,6.26,2.124,4.631,1.1,9.961-.09,13.894,2.56,2.192,1.5,3.505,3.888,4.737,6.215q1.5,2.875,3.048,5.742c1.659,3.145,3.348,6.343,4.046,9.826a15.6,15.6,0,0,1,.27,2.3h0v1.223a4.037,4.037,0,0,1-.045.751c-.045.233-.038.308-.06.465s-.06.51-.105.751-.135.661-.225.991c-.037.143-.09.278-.135.413-.075.255-.165.5-.263.751-.053.128-.105.263-.165.39a7.017,7.017,0,0,1-.383.751c-.06.105-.105.2-.165.3a9.951,9.951,0,0,1-.691,1.006c-1.606,2-3.971,3.28-5.72,5.157v.841a25.694,25.694,0,0,1-11.695,20.98c0,.285-.038.578-.053.863a42.949,42.949,0,0,0,.083,6.688,3.152,3.152,0,0,1,2.492-1.111,3.589,3.589,0,0,1,.961.083l.068-.053h0v.068c1.651.405,3.686,2.124,5.63,7.011,0,0,5.915,6.666,10.419,6.388s15.906,6.936,15.906,6.936,11.124,7.221,13.511,14.577a102.733,102.733,0,0,0,4.789,12.22l13.752,28.336h0l2.537,22.481s-1.4,10-1.126,11.522-5.772,15.268-5.772,15.268-19.989,35.122-28.156,36.923l-.585-.413a4.793,4.793,0,0,1-1.1.413l-1.681-1.186a18.316,18.316,0,0,0,.128,3.963c1.126,3.468-.42,26.1-2.387,30.536s-1.269,62.6-1.269,62.6l.278,5.134a2.177,2.177,0,0,1-.068.45l.068,1.216-.2.105a14.454,14.454,0,0,0,.2,4.887c.706,2.252.991,8.617.991,8.617s5.622,35.94,2.957,43.161-4.932,15.133-4.932,15.133-2.815,9.008-.135,10.546,10.3,4.121,8.73,7.874c-1.426,3.468-6.838,12.761-7.641,14.119l.068.713,1.1,11.958A15.013,15.013,0,0,1,415.894,675c-1.208,2.6-3.558,5.307-8.024,5.014-.751-.052-1.621-.143-2.462-.255-8.174-1.1-18.24-4.744-18.24-4.744a7.437,7.437,0,0,0,1.426-1.179h0a4.121,4.121,0,0,0,1.254-3c-.12-2.177,3.956-12.55,4.969-15.1.158-.368.24-.578.24-.578s-9.293-9.713-7.746-18.323c0,0,10.284-6.005,6.9-9.3s-9.435-12.761-9.435-12.761-.278-35.392,0-40.676a43.765,43.765,0,0,0-.518-10.982c-.113-.548-.248-1.081-.39-1.606a97.974,97.974,0,0,1-14.142,1.073c-1.726,0-3.483,0-5.254-.105q0,.751-.068,1.621c-.39,8.767-1.118,24.14-1.711,29.852-.841,8.189-5.487,30.258-5.487,30.258s8.865,5.69-1.546,19.711c0,0,0,5.082.691,5.817h0a63.625,63.625,0,0,1,1.779,7.326c.435,2.642.616,5.315-.09,6.7-1.689,3.318-11.822,3.047-11.822,3.047h0l-.248-.045A14.524,14.524,0,0,0,335.239,670c-3.851,3.092-18.465,1.734-26.377.751-3.1-.39-5.172-.751-5.172-.751a3,3,0,0,1-.105-1.081h0c.083-1.944,1.606-6.208,11.935-10.014,0,0,9.713-6.53,9.578-12.22h1.329a10.6,10.6,0,0,0-1.344,0s3.806-13.887,2.252-15.013,3.1-16.514,3.1-16.514,2.665-25.822,2.807-27.631a15.762,15.762,0,0,0-.7-4.579l.7-14.157s.135-4.706,0-6.238a31.179,31.179,0,0,1,.323-3.971c.068-.525.135-1.073.21-1.614-3.641-.923-6.005-1.779-6.005-1.779l.42-49.279c-3.093-6.005-3.663-19.178-3.648-28.524,0-6.005.27-10.449.27-10.449l-4.226-6.9s-.976-8.257.57-10.066a1.733,1.733,0,0,0-.188-2.364,7.847,7.847,0,0,0-.923-.63s.045-.068.1-.165a7.457,7.457,0,0,0-.938-.668s1.5-2.327.158-3.31c-1.261.856-2.387,1.5-3.243,2.027.06.548.12.863.12.863l-.36-.751c-.826.465-1.329.751-1.329.751s-6.62-13.189-6.478-15.133-4.5-10.133-4.5-10.133-.563-4.3-3.1-6.1S298.5,399.5,298.5,399.5s-.706-6.8-2.394-9.578S297.648,383.4,297.648,383.4Zm126.676-5.787-.128,3.145,1.291-2.079Z" transform="translate(184.436 -98.618)" fill="url(#a)"/><path d="M463.521,507.174l1.621,6.906s12.986-6.628,15.328-15.05-3.918-11.62-3.918-11.62l-12.1,5.127Z" transform="translate(35.237 -165.678)" fill="#fff"/><path d="M463.521,507.174l1.621,6.906s12.986-6.628,15.328-15.05-3.918-11.62-3.918-11.62l-12.1,5.127Z" transform="translate(35.237 -165.678)" opacity="0.1"/><path d="M350.57,817.765s12.01,4.414,20.267,4.969c4.384.293,6.688-2.394,7.874-4.984a15.084,15.084,0,0,0,1.239-4.541l-1.073-11.9-.571-6.335-17.542-4.556-2.485,7.6-.233.578c-1,2.537-5,12.858-4.879,15.013a4.1,4.1,0,0,1-1.231,2.965,7.142,7.142,0,0,1-1.366,1.194Z" transform="translate(220.943 -241.324)" fill="#fff"/><path d="M427.186,811.453a3,3,0,0,0,.1,1.073s25.687,4.286,30.941,0a13.917,13.917,0,0,1,10.809-3.167s9.938.27,11.6-3c.691-1.374.51-4.038.083-6.666a63.527,63.527,0,0,0-1.741-7.289l-.4-.315-2.364-1.9-27.683-.818h-.21c.135,5.66-9.4,12.153-9.4,12.153C428.8,805.276,427.306,809.517,427.186,811.453Z" transform="translate(62.394 -241.062)" fill="#fff"/><path d="M427.188,814.882a3.063,3.063,0,0,0,.113,1.074s25.679,4.286,30.933,0a13.915,13.915,0,0,1,10.8-3.168s9.946.27,11.6-3c.691-1.381.518-4.038.09-6.666-3.828.383-9.871,1.336-12.243,3.611-3.588,3.46-9.668,6.913-13.4,7.183C452.162,814.1,434.695,814.657,427.188,814.882Z" transform="translate(62.391 -244.491)" opacity="0.1"/><path d="M352.23,826.466s12.01,4.414,20.267,4.969c4.384.293,6.688-2.395,7.867-4.992-3.055,1.028-7.3,2.109-9.525,1.118-2.642-1.171-12.01-1.929-17.264-2.252a7.406,7.406,0,0,1-1.344,1.156Z" transform="translate(219.284 -250.024)" opacity="0.1"/><path d="M398.032,338.038c9.908-3.851,22.654-16.574,19.471-22.519a13.3,13.3,0,0,1-1.239-4.774,43.6,43.6,0,0,1-.09-6.756A92.5,92.5,0,0,1,417.5,293s-30.933.7-29.132,5.254a17.036,17.036,0,0,1,.465,6.253c-.143,2.6-.518,5.532-.908,8.017-.54,3.408-1.081,6.005-1.081,6.005s1.892,2.65,3,2.792S383.815,343.525,398.032,338.038Z" transform="translate(155.704 -117.143)" fill="#ffb0b1"/><path d="M351.97,798.594l.233.255c9.248-11.184,20.432,2.755,20.432,2.755l.165-.293-.571-6.335-17.542-4.556-2.485,7.6Z" transform="translate(227.039 -241.324)" opacity="0.1"/><path d="M430.019,790.148s6.756-.143,10.359,3.04,21.018.691,20.267,0a2.47,2.47,0,0,1-.39-1.141l-2.364-1.9-27.683-.818C430.1,789.833,430.019,790.148,430.019,790.148Z" transform="translate(80.681 -241.052)" opacity="0.1"/><path d="M341.869,668.485a20.894,20.894,0,0,1,1.141,3.851,44.069,44.069,0,0,1,.518,10.929c-.278,5.255,0,40.466,0,40.466s5.937,9.39,9.248,12.7-6.756,9.255-6.756,9.255c-1.5,8.557,7.6,18.225,7.6,18.225,9.248-11.184,20.432,2.762,20.432,2.762s6.08-10.509,7.6-14.262-5.938-6.35-8.557-7.874.128-10.509.128-10.509,2.214-7.874,4.841-15.058-2.9-42.944-2.9-42.944-.285-6.35-.968-8.565a14.319,14.319,0,0,1-.2-4.864c.045-.548.1-1.006.135-1.314s.068-.45.068-.45l-.105-.18-3.753-7S340.067,664.079,341.869,668.485Z" transform="translate(225.63 -207.22)" fill="#ce4e4d"/><path d="M419.21,757.929s6.756-.143,10.359,3,21.018.691,20.267,0-.691-5.8-.691-5.8c10.216-13.947,1.5-19.606,1.5-19.606s4.564-21.956,5.389-30.1c.578-5.69,1.291-20.98,1.674-29.71.165-3.753.263-6.335.263-6.335l-8.347-1.681-1.073-.218L428.42,663.44s-.555,3.753-.931,6.823a31.886,31.886,0,0,0-.315,3.956c.135,1.5,0,6.2,0,6.2l-.683,14.089a16,16,0,0,1,.683,4.556c-.135,1.794-2.755,27.48-2.755,27.48s-4.556,15.328-3,16.431S419.21,757.929,419.21,757.929Z" transform="translate(91.482 -209.659)" fill="#ce4e4d"/><path d="M387.586,298.254a17.036,17.036,0,0,1,.465,6.253,25.709,25.709,0,0,0,27.338-.51,92.521,92.521,0,0,1,1.329-11S385.784,293.683,387.586,298.254Z" transform="translate(156.489 -117.139)" opacity="0.1"/><path d="M373.841,269.366a25.423,25.423,0,0,0,1.261,7.964,25.686,25.686,0,0,0,50.1-7.349v-.616a25.685,25.685,0,1,0-51.369,0Z" transform="translate(158.271 -104.829)" fill="#ffb0b1"/><path d="M398.032,343.933c9.908-3.851,22.654-16.574,19.471-22.519a13.3,13.3,0,0,1-1.239-4.774L402.7,327.787l-8.392,6.883-6.38-16.244c-.54,3.408-1.081,6.005-1.081,6.005s1.892,2.65,3,2.792S383.815,349.42,398.032,343.933Z" transform="translate(155.704 -123.043)" opacity="0.1"/><path d="M327.21,334.17l11.327,190.284,14.772.968,38.252-110.335L385.286,284.1l-1.321-27.676-17.009,13.969-8.4,6.883-6.568-16.717L339.776,271.2Z" transform="translate(191.451 -64.079)" fill="#ce4e4d"/><path d="M352.077,668.5a20.882,20.882,0,0,1,1.141,3.851,108.84,108.84,0,0,0,30.971-9.676l.2-.105-.068-1.208-.038-.631-3.753-7S350.276,664.1,352.077,668.5Z" transform="translate(215.43 -207.203)" opacity="0.1"/><path d="M419.15,676.231a76.011,76.011,0,0,0,8.3.946c.165-3.753.263-6.335.263-6.335l-8.347-1.681Z" transform="translate(121.768 -211.05)" opacity="0.1"/><path d="M431.7,670.313c5.337,1.389,13.579,2.95,20.958,1.974l.105-4.759-20.132-4.038S432.075,667.206,431.7,670.313Z" transform="translate(87.321 -209.634)" opacity="0.1"/><path d="M302,586.255c30.776,5.254,58.962-9.811,58.962-9.811l-.27-5.1s-.7-57.866,1.238-62.3,3.445-26.933,2.349-30.385,4-55.231,4-55.231l.826-21.018,30.22-12.243L385.815,362a101.644,101.644,0,0,1-4.7-12.16c-2.349-7.311-13.256-14.495-13.256-14.495s-11.184-7.176-15.606-6.906-10.216-6.35-10.216-6.35c-4.279-10.907-8.152-5.968-8.152-5.968a9.743,9.743,0,0,0,.21,1.614c1.5,11.973-24.275,49.8-24.643,50.472h0L307,428l-2.485,75.671Z" transform="translate(237.995 -122.699)" opacity="0.1"/><path d="M300.87,586.24c30.776,5.255,58.969-9.811,58.969-9.811l-.278-5.1s-.7-57.866,1.246-62.3,3.445-26.933,2.342-30.385,4-55.231,4-55.231l.833-21.018L398.219,390.1l-13.511-28.164a103.228,103.228,0,0,1-4.7-12.16c-2.342-7.311-13.256-14.495-13.256-14.495s-11.184-7.176-15.6-6.906-10.216-6.35-10.216-6.35c-4.286-10.907-9.007-5.968-9.007-5.968,0,.518.45.751.21,1.614-3.3,11.612-23.45,49.8-23.817,50.472h0l-2.485,59.8-2.484,75.671Z" transform="translate(239.949 -122.684)" fill="#fff"/><path d="M381.74,370.427c3.31-1.381,20.845-21.4,20.845-21.4V344.47c.638-1.5,4.429-.586,7.506.465L408.77,317.26l-1.5,1.246C403.981,330.111,382.123,369.759,381.74,370.427Z" transform="translate(167.44 -123.201)" opacity="0.1"/><path d="M382.84,368.217c3.318-1.381,20.853-21.4,20.853-21.4V342.26c.638-1.5,4.429-.586,7.506.465L409.87,315.05l-1.5,1.246C405.074,327.9,383.208,367.556,382.84,368.217Z" transform="translate(165.508 -122.649)" fill="#fff"/><path d="M384.175,518.157c-.413,0-21.4-2.207-21.4-2.207s-12.708,24.988-11.875,31.069,2.342,11.462,7.454,10.509,27.51.751,27.51.751Z" transform="translate(214.814 -172.808)" opacity="0.1"/><path d="M383.064,515.947c-.413,0-21.4-2.207-21.4-2.207s-12.7,25-11.875,31.068,2.349,11.462,7.454,10.509,27.51.751,27.51.751Z" transform="translate(216.756 -172.256)" fill="#fff"/><path d="M377.466,501.05S358.2,511.4,357.792,514.561s9.8-1.381,12.01-1.929a27.467,27.467,0,0,1,4.421-.691l14.72.4Z" transform="translate(206.546 -169.081)" fill="#ffb0b1"/><circle cx="2.027" cy="2.027" r="2.027" transform="translate(552.547 244.452)" opacity="0.1"/><circle cx="2.027" cy="2.027" r="2.027" transform="translate(552.547 243.626)" fill="#3f3d56"/><circle cx="2.027" cy="2.027" r="2.027" transform="translate(548.822 332.151)" opacity="0.1"/><circle cx="2.027" cy="2.027" r="2.027" transform="translate(548.822 331.319)" fill="#3f3d56"/><circle cx="2.027" cy="2.027" r="2.027" transform="translate(550.531 288.302)" opacity="0.1"/><circle cx="2.027" cy="2.027" r="2.027" transform="translate(550.531 287.476)" fill="#3f3d56"/><path d="M443.2,466.088s-1.381,2.072,0,3.04-.135,3.31-.135,3.31,3.445,2.019,1.929,3.836-.555,10.021-.555,10.021l4.143,6.861s-.248,4.421-.263,10.4c0,9.323.548,22.429,3.58,28.4l-.42,49.023s14.51,5.3,26.655,3.686l1.8-78.666s-2.627-44.61-3.6-53.167a89.092,89.092,0,0,1-.691-13.4s.413-13.391,1.8-19.606c0,0,1.5-26.925,1.651-34.379.068-3.565-.12-13.969-.33-23.862-.233-10.817-.5-21.018-.5-21.018l2.74-21.678s-2.74-.278-3.566.826a7.9,7.9,0,0,1-1.2.923h0c-4.729,3.2-21.438,13.031-21.438,13.031s-9.248,3.678-11.462,8.948-3.753,9.007-4.826,10.509-1.659,8.557-1.659,8.557-3.183,12.986-5.667,15.185-4.3,16.191-4.3,16.191l21.956,17.264s1.929,28.719,2.342,29.83S443.2,466.088,443.2,466.088Z" transform="translate(62.679 -123.659)" fill="#fff"/><path d="M443.111,466.008s-1.374,2.072,0,3.04-.128,3.31-.128,3.31,3.423,2.042,1.922,3.858-.555,10.021-.555,10.021l4.143,6.861s-.248,4.421-.27,10.4c0,9.323.548,22.429,3.58,28.4l-.413,49.024s14.532,5.3,26.662,3.686l1.794-78.666s-2.627-44.61-3.6-53.167a88.262,88.262,0,0,1-.683-13.4s.413-13.391,1.794-19.606c0,0,1.5-26.925,1.659-34.379.068-3.565-.128-13.969-.33-23.862-.233-10.817-.5-21.018-.5-21.018l3.618-21.971s-3.618,0-4.451,1.118a7.124,7.124,0,0,1-1.2.923h0c-4.729,3.2-21.445,13.031-21.445,13.031s-9.24,3.678-11.455,8.948-3.753,9.007-4.834,10.509-1.651,8.557-1.651,8.557-3.183,12.986-5.667,15.185-4.279,16.161-4.279,16.161l21.956,17.264s1.929,28.719,2.349,29.83S443.111,466.008,443.111,466.008Z" transform="translate(61.939 -123.58)" fill="#fff"/><path d="M430.89,347.43l-1.982,5.78,10.434,10.509c-.233-10.809-.5-21.018-.5-21.018l3.618-21.971s-3.618,0-4.451,1.118a6.849,6.849,0,0,1-1.2.916h0l-8.872,25.6Z" transform="translate(100.433 -124.066)" opacity="0.1"/><path d="M429.787,345.22,427.8,351l10.434,10.509c-.233-10.817-.5-21.018-.5-21.018l3.626-21.971s-3.626,0-4.451,1.118a7.508,7.508,0,0,1-1.2.923h0l-8.88,25.589Z" transform="translate(102.368 -123.514)" fill="#fff"/><path d="M373.841,269.366a25.422,25.422,0,0,0,1.261,7.964,1.073,1.073,0,0,0,.811-.2c.2-6.755,3.521-13.1,7.611-18.5a19.433,19.433,0,0,1,4.128-4.279,8.077,8.077,0,0,1,5.6-1.584c2.252.308,4.241,1.839,6.516,2.034,3,.248,5.69-1.832,8.67-1.937a8.52,8.52,0,0,1,6.373,2.957,17.482,17.482,0,0,1,3.415,6.335,37.068,37.068,0,0,1,1.907,10.929c.038,2.1.24,4.736,2.192,5.5a11.215,11.215,0,0,1,2.83-8.565l.045-.045v-.615a25.685,25.685,0,1,0-51.369,0Z" transform="translate(158.271 -104.827)" opacity="0.1"/><path d="M387.122,223.011a17.685,17.685,0,0,1,12.475-.976c2.079.616,4.038,1.614,6.148,2.117,4.5,1.088,9.758-.09,13.624,2.545,2.147,1.5,3.438,3.873,4.639,6.178l3,5.72a37.118,37.118,0,0,1,3.971,9.758c.683,3.445.27,7.3-1.914,10.073-1.591,2.019-3.941,3.288-5.667,5.187a11.259,11.259,0,0,0-2.822,8.557c-1.959-.751-2.147-3.393-2.192-5.495a37.068,37.068,0,0,0-1.907-10.929,17.423,17.423,0,0,0-3.415-6.335,8.535,8.535,0,0,0-6.373-2.957c-3,.105-5.7,2.177-8.67,1.929-2.252-.188-4.249-1.726-6.516-2.027a8.047,8.047,0,0,0-5.6,1.584,19.23,19.23,0,0,0-4.121,4.279c-4.1,5.4-7.424,11.725-7.619,18.5-.848.623-2.072-.188-2.492-1.148a27.427,27.427,0,0,0-.968-3c-.615-1.058-1.794-1.621-2.717-2.417-2.342-2.019-2.927-5.419-2.837-8.5s.691-6.215.105-9.248c-.353-1.862-1.148-3.6-1.584-5.442a7.115,7.115,0,0,1,.541-5.487c1.5-2.327,4.661-2.785,7.416-3,3.13-.27,5.93.075,7.927-2.56a28.749,28.749,0,0,1,3.153-3.858C383.107,225.653,387.122,223.176,387.122,223.011Z" transform="translate(160.028 -99.248)" fill="#512e4e"/><path d="M350.878,429.632l7.844-14.5,2.484,22.376s-1.381,9.938-1.1,11.462-5.66,15.185-5.66,15.185-19.614,34.934-27.623,36.736l-27.06-19.336,7.176-9.113s2.485-.968,3.108,0c0,0,13.324-22.924,14.7-24.583s1.111-4.969,1.111-4.969,2.072-2.207,1.381-4.279,4-9.255,4-9.255l-4.279-4Z" transform="translate(277.778 -147.645)" opacity="0.1"/><path d="M354.448,412.93l2.072,1.651L359,436.958s-1.381,9.938-1.1,11.462-5.667,15.185-5.667,15.185-19.606,34.934-27.616,36.736L297.55,481l7.184-9.113s2.485-.968,3.108,0c0,0,13.324-22.924,14.7-24.583s1.1-4.969,1.1-4.969,2.072-2.207,1.381-4.279,4.008-9.255,4.008-9.255l-4.279-4Z" transform="translate(281.637 -147.097)" fill="#fff"/><path d="M455.957,525.269c-1.5,1.824-.555,10.013-.555,10.013l4.143,6.861s-.248,4.429-.263,10.4l6.966,2.177a4.136,4.136,0,0,0,5.367-4.076l-1.2-38.74-16.251,6.215c1.381.961-.135,3.318-.135,3.318S457.473,523.445,455.957,525.269Z" transform="translate(51.731 -171.797)" opacity="0.1"/><path d="M457.057,524.161c-1.5,1.824-.555,10.021-.555,10.021l4.143,6.861s-.248,4.421-.27,10.4l7.093,2.214a4.053,4.053,0,0,0,5.254-3.993l-1.208-38.86-16.259,6.215c1.389.961-.128,3.31-.128,3.31S458.558,522.345,457.057,524.161Z" transform="translate(49.799 -171.522)" fill="#fff"/><path d="M465.85,501.992s1.1,7.048,3.866,7.461,4,11.4,6.756,11.012.931-10.216.833-12.123,3-9.8.683-11.6-9.66,0-9.66,0Z" transform="translate(35.633 -167.809)" fill="#ffb0b1"/><path d="M474.242,428.2l-5.209-10.509s-2.072,8.009-2.072,12.288-2.9,4.7-2.9,4.7-3.175,3.753-1.5,6.485,2.349,9.533,2.349,9.533-.548,12.978,1.937,14.772,3,6.08,3,6.08,4.564,8.144,4.421,10.081,6.35,15.05,6.35,15.05-3.175-16.3,15.328-23.337c0,0,.143-5.532-1.239-7.048s-3.535-2.207-2.184-9.871.39-16.822.39-18.661-4.143-13.309-4.143-13.309Z" transform="translate(21.372 -148.283)" opacity="0.1"/><path d="M475.679,415.69l-4.549,1.5s-2.079,8.009-2.079,12.288-2.9,4.7-2.9,4.7-3.175,3.753-1.5,6.485,2.342,9.533,2.342,9.533-.548,12.978,1.937,14.772,3.04,6.08,3.04,6.08,4.556,8.144,4.414,10.081,6.358,15.05,6.358,15.05-3.183-16.3,15.328-23.337c0,0,.135-5.532-1.246-7.048s-3.535-2.207-2.184-9.871.39-16.822.39-18.661-4.143-13.309-4.143-13.309Z" transform="translate(17.685 -147.784)" fill="#fff"/><path d="M373.01,777.745s-7.251-4.556-12.01-1.246S373.01,777.745,373.01,777.745Z" transform="translate(220.695 -237.552)" opacity="0.1"/><path d="M448.063,759.776a14.679,14.679,0,0,0-11.807,4.977C430.866,770.555,448.063,759.776,448.063,759.776Z" transform="translate(89.385 -233.672)" opacity="0.1"/><g transform="translate(523.401 138.568)" opacity="0.1"><path d="M380.541,270.26c.923.8,2.109,1.366,2.725,2.424a27.481,27.481,0,0,1,.961,3c.42.976,1.644,1.772,2.492,1.156.2-6.756,3.528-13.1,7.619-18.5a19.23,19.23,0,0,1,4.121-4.279,8.07,8.07,0,0,1,5.607-1.584c2.252.308,4.234,1.839,6.508,2.027,3,.255,5.7-1.824,8.677-1.929a8.5,8.5,0,0,1,6.365,2.965,17.384,17.384,0,0,1,3.415,6.328,37.113,37.113,0,0,1,1.907,10.929c.045,2.094.24,4.707,2.177,5.487a10.291,10.291,0,0,0,0,1.666c-1.952-.751-2.147-3.393-2.192-5.495a37.068,37.068,0,0,0-1.907-10.929,17.424,17.424,0,0,0-3.415-6.335,8.52,8.52,0,0,0-6.365-2.957c-3,.105-5.7,2.177-8.677,1.929-2.252-.188-4.249-1.726-6.508-2.027a8.069,8.069,0,0,0-5.607,1.584A19.233,19.233,0,0,0,394.323,260c-4.091,5.4-7.424,11.725-7.619,18.5-.848.623-2.072-.188-2.492-1.148a29.124,29.124,0,0,0-.961-3c-.616-1.058-1.8-1.621-2.725-2.417-2.342-2.019-2.927-5.42-2.837-8.5v-.285C377.831,265.809,378.544,268.534,380.541,270.26Z" transform="translate(-375.94 -245.58)"/><path d="M366.247,271.707c1.726-1.9,4.083-3.168,5.667-5.179a10.989,10.989,0,0,0,2.184-6.148,11.56,11.56,0,0,1-2.184,7.8c-1.584,2.019-3.941,3.288-5.667,5.187a11.259,11.259,0,0,0-2.83,6.7A11.259,11.259,0,0,1,366.247,271.707Z" transform="translate(-306.234 -247.559)"/><path d="M451.3,244.786c.443,1.839,1.231,3.588,1.591,5.442a17.34,17.34,0,0,1,.233,3.753,14.586,14.586,0,0,0-.233-2.132c-.36-1.862-1.148-3.6-1.591-5.442a9.234,9.234,0,0,1-.248-3.108A10.439,10.439,0,0,0,451.3,244.786Z" transform="translate(-451.015 -243.3)"/></g><rect width="4.706" height="105.966" transform="translate(726.24 349.818)" fill="#535461"/><path d="M137.463,642.121l.293,4.774.42,6.756.173,2.807.413,6.756.18,2.807.42,6.756,4.744,76.617a12.986,12.986,0,0,0,12.956,12.175h24.666a12.978,12.978,0,0,0,12.948-12.175l4.721-76.669.42-6.756.173-2.807.42-6.756.173-2.807.42-6.756.3-4.774a6.756,6.756,0,0,0-6.756-7.139H144.1a6.711,6.711,0,0,0-6.636,7.191Z" transform="translate(559.203 -186.679)" fill="#3f3d56"/><path d="M90.58,592.24l.42,6.733h62.437l.42-6.733Z" transform="translate(606.378 -132.012)" fill="#9d9cb5"/><path d="M91.37,604.95l.413,6.74h61.259l.42-6.74Z" transform="translate(606.181 -135.381)" fill="#9d9cb5"/><path d="M92.16,617.68l.413,6.733h60.073l.42-6.733Z" transform="translate(605.984 -138.541)" fill="#9d9cb5"/><path d="M86.595,549.718C59.19,569.549,47.75,600.565,47.75,600.565s33.028-1.134,60.441-20.965,38.83-50.84,38.83-50.84S114.008,529.886,86.595,549.718Z" transform="translate(680.825 -160.178)" fill="#81d8d0"/><path d="M147.013,528.76s-34.289,19.028-45.285,34.784S47.72,600.565,47.72,600.565" transform="translate(680.855 -160.178)" fill="none" stroke="#535461" stroke-miterlimit="10" stroke-width="2"/><path d="M129.153,499.67C114.238,510.456,108,527.338,108,527.338s17.978-.616,32.9-11.4,21.145-27.676,21.145-27.676S144.075,488.876,129.153,499.67Z" transform="translate(620.575 -150.055)" fill="#81d8d0"/><path d="M162.045,488.26s-18.661,10.359-24.643,18.931S108,527.338,108,527.338" transform="translate(620.575 -150.055)" fill="none" stroke="#535461" stroke-miterlimit="10" stroke-width="2"/><path d="M222.475,530.951c17.137,18.833,20.762,43.446,20.762,43.446s-24.163-5.93-41.285-24.771S181.19,506.18,181.19,506.18,205.338,512.117,222.475,530.951Z" transform="translate(484.445 -154.539)" fill="#81d8d0"/><rect width="21.348" height="21.348" transform="translate(144.258 263.822)" fill="#81d8d0" opacity="0.1"/><rect width="21.348" height="21.348" transform="translate(144.258 316.458)" fill="#81d8d0" opacity="0.1"/><rect width="21.348" height="21.348" transform="translate(144.258 369.086)" fill="#81d8d0" opacity="0.1"/><rect width="21.348" height="21.348" transform="translate(144.258 421.722)" fill="#81d8d0" opacity="0.1"/><rect width="21.348" height="21.348" transform="translate(144.258 474.334)" fill="#81d8d0" opacity="0.1"/><path d="M197.765,355.2ZM244,576.742ZM292.247,464.02c-.143.48-.263.961-.4,1.434h0C291.969,464.981,292.1,464.5,292.247,464.02ZM197.765,355.179Zm453.379-112.4v3.205H617.614V242.78ZM244,576.742ZM292.247,464.02c-.143.48-.263.961-.4,1.434h0C291.969,464.981,292.1,464.5,292.247,464.02ZM197.765,355.179ZM244,576.719Zm48.243-112.7c-.143.48-.263.961-.4,1.434h0C291.969,464.981,292.1,464.5,292.247,464.02Z" transform="translate(64.129 -104.676)" fill="#81d8d0" opacity="0.1"/><path d="M181.19,506.19s22.324,19.306,28,32.607,34.063,35.6,34.063,35.6" transform="translate(484.43 -154.541)" fill="none" stroke="#535461" stroke-miterlimit="10" stroke-width="2"/><g transform="translate(130.056 153.719)"><path d="M831.5,463.853s12.393-61.657,7.649-69.328c0,0-.172-7.131.113-16.221V377.26a23.1,23.1,0,0,1-2.6,1.5,21.078,21.078,0,0,1-14.187,1.831l3.753-4.181a6.929,6.929,0,0,0,2.034-3.4,7.124,7.124,0,0,0-.811-3.678c-3.565-9.008-3.753-20.335,3.115-27.21,5.8-5.78,7.214-13.241,13.511-18.518,4.6-3.866,7.131-9.533,9.518-15.013a84.4,84.4,0,0,0,5.209-14.209c.9-3.836,1.261-7.806,2.5-11.552s3.558-7.386,7.183-9.06a27.1,27.1,0,0,0,3.9-1.719c1.546-1.043,2.477-2.74,3.6-4.226,5.682-7.506,24.711-3.085,33.718-.038a18.969,18.969,0,0,1,6.666,3.693l-.083-.135c-.068-.113-.15-.225-.225-.338a11.842,11.842,0,0,1,2.522,2.815c1.314,2.079,1.862,4.5,2.958,6.756,1.321,2.665,8.67,10.1,5.51,13.1a2.661,2.661,0,0,1-.751.48,6.493,6.493,0,0,1-3.753.375l.135.323a21.937,21.937,0,0,1,1.629,8.324,22.53,22.53,0,0,1-22.729,22.331,22.946,22.946,0,0,1-6.958-1.073c-.053.285-.1.571-.15.856a2.629,2.629,0,0,1-.053.338h0l.4.555a.738.738,0,0,1,.068-.1l11.785,16.469c1.8,1.269,12.175,8.775,12.761,14.4.615,6.163,1.231,13.376,1.231,13.376l.083,1.546A4.639,4.639,0,0,0,924.5,372.9c3.678-.6,3.678,13.511,3.678,13.511s2.447,2.252,4.128.3,6.125,4.661,6.125,4.661l27.848,1.2h0l.638.038,1.5-4.646a1.959,1.959,0,0,1,2.455-1.254,2.257,2.257,0,0,1,.338.143l.1.06.2.135.1.09a1.516,1.516,0,0,1,.15.158l.09.105.045.045h0a1.892,1.892,0,0,1,.27,1.681l-1.291,3.986c5.375,1.081,10.869,4.128,6.388,12.521l22.714-4.2-7.349,6.17-37.937,7.829c.5.9.173,2.207-1.4,4.046-6.756,7.934-19.066,10.088-24.02,10.644a42.637,42.637,0,0,1-4.871,8.257l.428,7.9s12.543,60.245,14.84,63.3a35.708,35.708,0,0,1-3.175-4.181c3.641,12.378,8.73,29.32,10.066,31.857,2.147,4.053,4.136,20.455,1.689,21.505-.751.323-2.9.165-5.96-.068v1.359l.135,51.486s-.615,31.579,1.073,34.589,2.139,9.323,2.139,9.323,6.755,12.453,12.108,17.46a.8.8,0,0,0,.12.105l.165-1.171s6.433,8.122,20.665,7.664c0,0,8.565,5.57-4.136,5.87s-28.922-.45-28.922-.45-11.327-17.264-20.815-15.013v13.083h-2.9V669.713a11.912,11.912,0,0,1-5.172-7.829,9.518,9.518,0,0,1,3.393-8.8,5.63,5.63,0,0,0,1.854-4.113l.105.09a7.929,7.929,0,0,1,.1-.811c.833-6.756,1.876-20.695-1.809-31.009-5.052-14.142-6.583-33.838-2.905-45.563a104.788,104.788,0,0,0,2.92-11.417c.09-.488.173-.953.248-1.389a59.175,59.175,0,0,0-7.454,1.5c-8.52,2.35-27.158,2.785-43.071,2.657-.037.435-.083.893-.135,1.351a49.171,49.171,0,0,1-1.771,9.4c-2,6.005-2.912,32.48-2.912,32.48s-2.575,21.768-1.171,30.626c.751,4.924,1.5,9.871,1.929,14.84v.1s4.219,12.01,7.3,18.533c.075.165.158.33.233.488a9.757,9.757,0,0,1,2.41.533s4.136,8.257,8.257,9.623,2.755,5.862-6.575,4.211-23.42-3-23.42-3l-.608-8.422-2.868-3.588.751,8.4-3.055-.6.405-10.216-4.691-5.87s-5.667-5.044,2.755-14.968v.218c.09-.143.173-.293.27-.435v-.045c1.4-2.162,2.507-6.193.473-13.346-3.678-12.926-5.817-24.658-5.817-24.658s-8.212-31.429,1.659-46.3H843.1a25.009,25.009,0,0,0,2.124-6.605q.075-.405.135-.833c-7.3-.42-14.472-1.741-20.319-4.594C825.067,550.31,828.587,475.728,831.5,463.853Zm92.725-52.019v.15l1.5.075Zm5.149.713a1.658,1.658,0,0,1,.676.323,6.664,6.664,0,0,1,1.178,3.085l2.342-.526s1.644-.353,4.009-.751l1.118-1.126C935.62,413.3,932.422,412.923,929.374,412.548Z" transform="translate(-822.47 -263.692)" fill="url(#b)"/><path d="M973.422,743.031l.893,10.636-3-.6.45-11.537Z" transform="translate(-944.005 -338.842)" fill="#1d2366"/><path d="M879.135,713.726c3.61,10.284,2.59,24.163,1.779,30.9-.3,2.492-.578,4.008-.578,4.008s5.4,12.3,5.847,12.761,15.883,9.886,15.883,9.886l10.786,6.3s10.944-4.8,5.7-6.448a7.964,7.964,0,0,1-2.83-1.929c-5.255-4.992-11.853-17.4-11.853-17.4s-.45-6.3-2.1-9.293-1.051-34.469-1.051-34.469l-.128-51.305V650.05l-20.53.15a46.46,46.46,0,0,1-.886,6.756,103.224,103.224,0,0,1-2.86,11.379C872.695,680.038,874.2,699.637,879.135,713.726Z" transform="translate(-781.646 -360.039)" fill="#ffb0b1"/><path d="M874.313,780.063s5.4,12.3,5.847,12.761,15.883,9.886,15.883,9.886l10.786,6.3s10.944-4.8,5.7-6.448a7.963,7.963,0,0,1-2.83-1.929l-.465,3.28-3.6-.15L874.861,776.07C874.591,778.547,874.313,780.063,874.313,780.063Z" transform="translate(-775.631 -391.464)" opacity="0.1"/><path d="M854.118,777l30.948,27.878,3.6.15.75-5.254s6.29,8.092,20.267,7.641c0,0,8.392,5.547-4.046,5.847s-28.321-.45-28.321-.45-11.094-17.264-20.379-15.013v13.039H854.08V797.68a11.85,11.85,0,0,1-5.059-7.806,9.563,9.563,0,0,1,3.31-8.767A5.651,5.651,0,0,0,854.118,777Z" transform="translate(-755.06 -391.696)" fill="#1d2366"/><path d="M995.215,729.573c2,7.131.908,11.147-.458,13.3v.045a24.583,24.583,0,0,0-3.588,8.76l-.12.676,14.082,20.53,7.641,3s12.288-4.2,10.044-5.4c-.563-.293-1.441-1.854-2.447-4.008-3-6.493-7.146-18.473-7.146-18.473v-.1c-.435-4.947-1.126-9.878-1.892-14.787-1.374-8.835,1.148-30.521,1.148-30.521s.9-26.37,2.852-32.367a49.5,49.5,0,0,0,1.749-9.338c.405-3.753.5-6.846.5-6.846s-8.092-11.259-22.924.9a16.319,16.319,0,0,0-3.1,3.363c-10.246,14.577-2,46.689-2,46.689S991.619,716.685,995.215,729.573Z" transform="translate(-968.65 -359.853)" fill="#ffb0b1"/><path d="M986.445,783.381l14.082,20.53,7.641,3s12.288-4.2,10.043-5.4c-.563-.293-1.441-1.854-2.447-4.008-5.2-.045-7.9,4.909-7.9,4.909l-6.59-1.051s-8.692-17.084-10.644-18.128-.3-7.8-.3-7.8V773.72c-.052.06-.1.128-.158.188v.045a24.581,24.581,0,0,0-3.588,8.76Z" transform="translate(-964.069 -390.878)" opacity="0.1"/><path d="M995,803s3.753-6.891,10.944-4.346c0,0,4.046,8.257,8.092,9.593s2.695,5.84-6.448,4.2-22.924-3-22.924-3l-.6-8.4-9.293-11.837s-5.54-5.022,2.7-14.907v1.719s-1.651,6.756.3,7.8,10.614,18.135,10.614,18.135Z" transform="translate(-951.651 -391.023)" fill="#1d2366"/><path d="M901.026,650.18a46.458,46.458,0,0,1-.886,6.756,94.167,94.167,0,0,1,21.438-.218V650.03Z" transform="translate(-802.635 -359.992)" opacity="0.1"/><path d="M993.8,660.183s12.01.586,26.332.706c.405-3.753.5-6.846.5-6.846s-8.092-11.259-22.924.9a16.315,16.315,0,0,0-3.1,3.363,18.316,18.316,0,0,1-.8,1.877Z" transform="translate(-971.732 -359.81)" opacity="0.1"/><path d="M890.91,615.15s52.6,2.545,68.637-1.952,31.924-.6,34.319-1.644.45-17.385-1.651-21.43-13.631-44.963-13.631-44.963l-11.094-57.843L955.8,484.1l-.826-.233-20.365-5.615-14.922-4.121s-29.672,115.844-27.128,124.387A21.875,21.875,0,0,1,893,608.567,25.1,25.1,0,0,1,890.91,615.15Z" transform="translate(-868.842 -316.116)" fill="#1d2366"/><path d="M879.27,439s10.509,11.259,2.552,17.535-13.188.6-13.188.6Z" transform="translate(-742.249 -307.31)" fill="#c7daf5"/><path d="M879.27,439s10.509,11.259,2.552,17.535-13.188.6-13.188.6Z" transform="translate(-742.249 -307.31)" opacity="0.1"/><path d="M959.16,333.562s1.231,1.171,3.085,2.9c2.642,2.47,6.553,6.08,10.021,9.105,4.8,4.181,8.767,7.251,7.349,4.631s-1.149-7.183-.443-11.455c.053-.285.1-.57.15-.848a78.665,78.665,0,0,1,2.32-9.278s-7.762-10.028-12.055-13.984c-1.6-1.5-2.717-2.117-2.785-1.073-.075,1.4-1.126,4.5-2.432,7.792-.038.105-.075.2-.12.308-.871,2.252-1.854,4.564-2.717,6.561C960.211,331.28,959.16,333.562,959.16,333.562Z" transform="translate(-906.744 -275.864)" fill="#ffb0b1"/><path d="M959.16,321.66a22.278,22.278,0,0,0,14.922,17.084,78.124,78.124,0,0,1,2.47-10.126s-14.615-18.878-14.84-15.058C961.66,315.009,960.518,318.222,959.16,321.66Z" transform="translate(-901.654 -275.865)" opacity="0.1"/><path d="M935.658,353.115l-1.891-2.665s-1.254,7.641-5.862,4.271-4.834,25.364-4.834,25.364l4.947,73.959,35.745-2.139-1.013-35.737L958.7,398.152,948.7,371.963l-5.952-8.655Z" transform="translate(-861.98 -285.217)" opacity="0.1"/><path d="M923.1,380.682l4.5,66.873.473,7.086,19.929-1.193.75-.045,15.013-.9-1.013-35.745-4.046-18.015L948.7,372.553l-5.953-8.655-7.086-10.231-1.892-2.657s-1.253,7.641-5.862,4.271l-.1-.068h0C923.31,352.361,923.1,380.682,923.1,380.682Z" transform="translate(-862.01 -285.357)" fill="#1d2366"/><path d="M874.963,406.26s1.794,3.753,5.4,3.145,3.6,13.511,3.6,13.511,2.395,2.252,4.046.3,6.005,4.646,6.005,4.646l27.278,1.2s-12.138,5.547-9.758,22.331c0,0-41.209-2.552-42.561-6.448S874.963,406.26,874.963,406.26Z" transform="translate(-778.816 -299.141)" fill="#fff"/><path d="M874.963,406.26s1.794,3.753,5.4,3.145,3.6,13.511,3.6,13.511,2.395,2.252,4.046.3,6.005,4.646,6.005,4.646l27.278,1.2s-12.138,5.547-9.758,22.331c0,0-41.209-2.552-42.561-6.448S874.963,406.26,874.963,406.26Z" transform="translate(-778.816 -299.141)" opacity="0.03"/><path d="M844.046,389.76l-7.191,6.14L777.66,408.338,785,400.847Z" transform="translate(-668.66 -251.024)" fill="#fff"/><path d="M905.533,354.818c.983,1.5,3.8,9.188,6.148,15.9,1.959,5.592,3.6,10.509,3.6,10.509S919.1,406.1,921.048,410.6s.893,22.031.893,22.031l7.274,43.3s3.3,22.331,8.385,35.67c5.022,13.128,10.614,19.284,10.786,19.479-2.252-3.047-14.525-63.053-14.525-63.053l-4.054-75.678s-.593-7.191-1.193-13.339-12.761-14.54-12.761-14.54L904.129,347.8C902.95,349.376,903.739,352.124,905.533,354.818Z" transform="translate(-831.985 -284.577)" fill="#fff"/><path d="M884.594,481.205s17.264-.751,25.626-10.794-19.329-4.008-19.329-4.008l-7.2,1.651Z" transform="translate(-780.518 -313.701)" fill="#ffb0b1"/><path d="M943.245,569.174a21.875,21.875,0,0,1,.435,10.051c18.833,1.336,38.98-3.753,38.98-3.753,3.753,3.453,13.639,8.542,13.639,8.542l5.389-66.806c3.445-9.007,4.8-56.2,4.8-56.2s-.308-2.47-.751-6.17a.711.711,0,0,0-.037-.278c-1.344-10.336-4.008-29.74-5.314-32.36-1.8-3.6,5.54-13.189,5.54-13.189l-3.34-28.486-.405-3.438c-7.041-3.145-12.438-13.189-12.438-13.189l-4.144-7.259h0c-4.5-2.89-4.736,25.431-4.736,25.431l4.5,66.873-14.922-4.121S940.7,560.632,943.245,569.174Z" transform="translate(-919.525 -286.75)" opacity="0.1"/><path d="M944.29,567.847c20.53,10.194,57.843.751,57.843.751,3.753,3.453,13.639,8.542,13.639,8.542l5.4-66.806c3.438-9.008,4.789-56.2,4.789-56.2s-4.339-35.212-6.14-38.807c-.525-1.051-.27-2.612.353-4.294a54.329,54.329,0,0,0,3.288-25.139l-1.441-12.243-.4-3.43c-7.048-3.153-12.446-13.2-12.446-13.2l-3.753-6.576-6.906-12.115-3.273-5.735-.555.5-4.241,3.843-4.5,3.753c-5.877,4.954-16.033,13.676-21.273,19.013-4.609,4.7-6.065,22.977-6.485,36.736-.278,9.06-.113,16.161-.113,16.161,4.646,7.649-7.506,69.058-7.506,69.058C947.735,493.535,944.29,567.847,944.29,567.847Z" transform="translate(-939.899 -280.802)" fill="#fff"/><path d="M936.705,364.588s14.089,26.82,12.453,37.014-6.29,21.731-4.046,24.425a8.294,8.294,0,0,0,6.6,3.3c2.252.15,8.257,4.346,8.257,4.8s5.547.45,10.509,2.552a65.439,65.439,0,0,0,12.288,3.3s14.262-.45,15.59.9,2.695,9.435-.15,15.883-6,11.259-8.392,12.138-17.535-4.2-29.822-5.4-25.627-10.937-25.627-10.937-14.69-5.254-17.264-14.089,3.145-57.393,3.145-57.393S924.568,358.441,936.705,364.588Z" transform="translate(-892.906 -288.484)" opacity="0.03"/><path d="M934.308,361.589S948.4,388.416,946.746,398.6s-6.29,21.731-4.038,24.433a8.256,8.256,0,0,0,6.59,3.3c2.252.15,8.257,4.346,8.257,4.8s5.547.45,10.509,2.545a66.076,66.076,0,0,0,12.288,3.3s14.262-.45,15.583.9,2.7,9.443-.15,15.883-6.005,11.259-8.392,12.138-17.535-4.2-29.823-5.389-25.626-10.944-25.626-10.944-14.682-5.254-17.227-14.082,3.145-57.4,3.145-57.4S922.17,355.449,934.308,361.589Z" transform="translate(-888.707 -287.736)" opacity="0.03"/><path d="M936.154,362.792s14.089,26.827,12.438,37.013-6.29,21.731-4.046,24.425a8.257,8.257,0,0,0,6.6,3.3c2.252.15,8.257,4.346,8.257,4.789s5.54.45,10.509,2.552a65.585,65.585,0,0,0,12.288,3.3s14.262-.45,15.591.9,2.695,9.443-.15,15.883-6.005,11.259-8.392,12.138-17.535-4.2-29.822-5.4S933.8,450.758,933.8,450.758s-14.69-5.254-17.264-14.089,3.108-57.393,3.108-57.393S924.023,356.682,936.154,362.792Z" transform="translate(-891.911 -288.038)" fill="#fff"/><path d="M991.888,458.777s11.259-2.252,7.341,1.5-3.9,7.041-8.692,6.891S991.888,458.777,991.888,458.777Z" transform="translate(-947.338 -312.078)" opacity="0.1"/><path d="M1031.2,566.58s5.089,3.445-4.646,11.387S1031.2,566.58,1031.2,566.58Z" transform="translate(-1005.675 -339.16)" opacity="0.1"/><path d="M1018.743,604.31c0,.45,1.8,16.514-4.939,20.53S1018.743,604.31,1018.743,604.31Z" transform="translate(-983.509 -348.582)" opacity="0.1"/><path d="M860.806,436.59c5.435.188,17.174,1.847,11.087,13.2-5.382,10.051-14.427,3.333-19.516-1.764A19.18,19.18,0,0,1,860.806,436.59Z" transform="translate(-718.859 -306.708)" fill="#ffb0b1"/><path d="M881.39,451Z" transform="translate(-748.42 -310.301)" fill="#ffb0b1"/><path d="M880.965,451.633l-.225-.233Z" transform="translate(-747.507 -310.401)" fill="#ffb0b1"/><path d="M949.54,341.3c5.765,3.941,10.6,7.266,11.545,7.957,2.582,1.914,7.506,13.151,10.681,18.886,2.53,4.616,10.749,5.8,13.849,6.1l-.4-3.43c-7.048-3.153-12.445-13.2-12.445-13.2L958.84,333.19l-4.8,4.361Z" transform="translate(-903.496 -280.896)" opacity="0.1"/><path d="M949.54,340.7c5.765,3.941,10.6,7.266,11.545,7.964,2.582,1.907,7.506,13.143,10.681,18.878,2.53,4.616,10.749,5.8,13.849,6.1l-.4-3.43c-7.048-3.153-12.445-13.2-12.445-13.2L958.84,332.59l-4.8,4.346S952.242,338.422,949.54,340.7Z" transform="translate(-903.496 -280.746)" fill="#dce7ff"/><path d="M923.5,310.524a22.264,22.264,0,1,0,18.927-22.008A22.227,22.227,0,0,0,923.5,310.524Z" transform="translate(-866.559 -269.679)" fill="#ffb0b1"/><path d="M925.65,385.4a19.789,19.789,0,0,0,7.183-7.716c1.254-2.477,2.087-5.337,4.226-7.093,1.929-1.576,4.5-1.959,6.906-2.665,7.9-2.334,14.517-9.54,14.765-17.767.12-3.873-1.089-7.739-.54-11.575a12.816,12.816,0,0,1,2.507-5.967,20.54,20.54,0,0,1,2.169-2.334c1.051-.991,2.154-1.952,3.115-3a11.653,11.653,0,0,0,1.576-2.139,10.3,10.3,0,0,0,.863-1.989c1.5-4.594.135-10.043,1.787-14.69l.09-.255c.623-1.651,1.892-3.3,3.656-3.43s3.273,1.336,4.954,1.989c3.52,1.366,7.319-.961,10.254-3.333s6.245-5.082,9.976-4.556c2.47.353,4.421,2.034,6.7,2.9a9.391,9.391,0,0,0,1.584.458,22.256,22.256,0,0,0-42.913,8.294,22.025,22.025,0,0,0,.488,4.646c-.037.105-.075.2-.12.308-.871,2.252-1.854,4.564-2.717,6.561l-4.241,3.843-4.5,3.753c-5.877,4.954-16.033,13.676-21.273,19.013C927.526,353.37,926.085,371.64,925.65,385.4Z" transform="translate(-907.364 -269.687)" opacity="0.1"/><path d="M1016.063,282.39c-1.073-2.184-1.607-4.631-2.89-6.7-1.884-3-5.172-4.924-8.55-6.088-8.82-3.04-27.458-7.454-33.028,0-1.1,1.5-2,3.168-3.521,4.2a26.124,26.124,0,0,1-3.821,1.719c-3.55,1.666-5.817,5.3-7.026,9.008s-1.569,7.686-2.455,11.507a84.619,84.619,0,0,1-5.1,14.164c-2.334,5.45-4.812,11.1-9.315,14.953-6.148,5.254-7.506,12.693-13.211,18.458-6.756,6.846-6.538,18.143-3.055,27.113a7.441,7.441,0,0,1,.8,3.663,7.183,7.183,0,0,1-1.989,3.393l-3.693,4.166a20.766,20.766,0,0,0,22.691-10.464c1.254-2.477,2.087-5.33,4.234-7.094,1.922-1.576,4.5-1.952,6.9-2.657,7.9-2.342,14.517-9.556,14.765-17.782.12-3.866-1.088-7.731-.54-11.56a12.763,12.763,0,0,1,2.515-6.005c2.064-2.695,5.179-4.5,6.861-7.506,2.845-5.022.683-11.545,2.732-16.934.631-1.651,1.892-3.3,3.656-3.43s3.273,1.336,4.962,1.989c3.513,1.366,7.311-.953,10.246-3.333s6.245-5.082,9.983-4.549c2.47.345,4.414,2.027,6.688,2.9,1.681.646,5.089,1.224,6.56-.2C1024.56,292.471,1017.361,285.062,1016.063,282.39Z" transform="translate(-917.333 -264.007)" fill="#591d4b"/><path d="M939.426,371.431c1.261-2.477,2.087-5.329,4.234-7.086,1.922-1.576,4.5-1.959,6.906-2.665,7.889-2.334,14.51-9.548,14.765-17.775.12-3.866-1.089-7.739-.548-11.567a12.839,12.839,0,0,1,2.515-5.967c2.072-2.695,5.187-4.5,6.861-7.506,2.845-5.014.683-11.537,2.74-16.934.623-1.644,1.891-3.3,3.648-3.43s3.28,1.344,4.962,2c3.513,1.366,7.318-.961,10.246-3.333s6.253-5.082,9.983-4.556c2.469.353,4.421,2.034,6.688,2.9,1.681.645,5.1,1.231,6.568-.188,3.093-3-4.106-10.4-5.4-13.053-1.074-2.192-1.607-4.631-2.9-6.7-.067-.113-.143-.225-.218-.338a11.925,11.925,0,0,1,2.469,2.807c1.284,2.072,1.816,4.5,2.89,6.7,1.3,2.657,8.5,10.073,5.4,13.053-1.5,1.426-4.879.841-6.56.2-2.252-.878-4.219-2.56-6.688-2.9-3.753-.533-7.056,2.177-9.983,4.549s-6.756,4.7-10.254,3.333c-1.681-.653-3.153-2.124-4.954-1.989s-3,1.779-3.655,3.43c-2.049,5.389.113,11.912-2.733,16.934-1.681,2.95-4.8,4.8-6.861,7.506a12.761,12.761,0,0,0-2.515,6.005c-.548,3.828.661,7.694.541,11.56-.248,8.257-6.868,15.44-14.765,17.782-2.38.706-4.977,1.081-6.9,2.657-2.154,1.764-3,4.616-4.234,7.093a20.766,20.766,0,0,1-22.691,10.464l1.741-1.967A20.991,20.991,0,0,0,939.426,371.431Z" transform="translate(-916.952 -266.434)" opacity="0.1"/><path d="M948.235,355.393c.984,1.5,3.8,9.188,6.148,15.9,2.2-.856,4.2-6.313,4.2-6.313L946.854,348.3C945.653,349.951,946.442,352.691,948.235,355.393Z" transform="translate(-874.013 -284.665)" opacity="0.1"/><path d="M948.835,354.8c.983,1.5,3.8,9.188,6.148,15.9,2.2-.848,4.2-6.313,4.2-6.313L947.454,347.71C946.253,349.354,947.041,352.1,948.835,354.8Z" transform="translate(-875.064 -284.518)" fill="#dce7ff"/><path d="M864.706,451.67l6.5-20.5a1.914,1.914,0,0,0-1.246-2.409h0a1.922,1.922,0,0,0-2.4,1.246l-6.5,20.477.646,4.286Z" transform="translate(-723.078 -304.732)" fill="#be8b87"/><path d="M871.01,429.379h0a1.922,1.922,0,0,0-2.41,1.246L862.1,451.1l.488,3.213-.473.5-.646-4.286,6.538-20.477a1.922,1.922,0,0,1,2.4-1.246h0a1.923,1.923,0,0,1,1,.751,2.622,2.622,0,0,0-.4-.173Z" transform="translate(-723.497 -304.742)" fill="#fff" opacity="0.1"/><path d="M826.248,400.3,822.6,399.14l.533,3.513.112.773,1.066-1.111Z" transform="translate(-684.617 -253.362)" fill="#efc8c4"/><path d="M873.6,461.918a.753.753,0,0,0-.233-.2.331.331,0,0,0-.353,0,.93.93,0,0,0-.128.2.646.646,0,0,1-.465.308l.112.75Z" transform="translate(-733.903 -312.966)" fill="#727a9c"/><path d="M871.566,441.7s-13.038-.075-9.968,5.472,7.867,6.215,7.867,6.215Z" transform="translate(-723.399 -307.982)" fill="#ffb0b1"/></g></g></svg>