<svg xmlns="http://www.w3.org/2000/svg" xmlns:xlink="http://www.w3.org/1999/xlink" width="388" height="314" viewBox="0 0 388 314"><defs><linearGradient id="a" x1="0.5" y1="1" x2="0.5" gradientUnits="objectBoundingBox"><stop offset="0" stop-color="gray" stop-opacity="0.251"/><stop offset="0.54" stop-color="gray" stop-opacity="0.122"/><stop offset="1" stop-color="gray" stop-opacity="0.102"/></linearGradient><linearGradient id="b" x1="0" y1="0.5" x2="1" y2="0.5" xlink:href="#a"/><linearGradient id="d" x1="0.5" y1="1" x2="0.5" y2="0" xlink:href="#a"/></defs><ellipse cx="155.337" cy="155" rx="155.337" ry="155" transform="translate(25.693 2)" fill="none" stroke="#1b9a8f" stroke-miterlimit="10" stroke-width="4" stroke-dasharray="12.07 15.09"/><rect width="163.161" height="103.784" transform="translate(32.566 48.085)" fill="#81d8d0" opacity="0.2"/><rect width="187.112" height="106.278" transform="translate(0 33.165)" fill="url(#a)"/><rect width="182.622" height="88.317" transform="translate(1.995 48.613)" fill="#fff"/><rect width="63.367" height="66.861" transform="translate(14.472 56.095)" fill="url(#b)"/><rect width="59.877" height="63.867" transform="translate(16.467 57.59)" fill="#81d8d0"/><path d="M248.82,247.65a43.313,43.313,0,0,0-2.563-11.144,18.468,18.468,0,0,0-7.031-8.825,8.035,8.035,0,0,0-3.887-1.346,7.3,7.3,0,0,0-6.2,3.806,17.755,17.755,0,0,0-1.158,2.354,5.48,5.48,0,0,0-4.549,5.019,13.976,13.976,0,0,0,1.978,26.389v2.383a14.027,14.027,0,0,0-10.478,13.528V286.3h27.944v-6.488A14.027,14.027,0,0,0,232.4,266.286V263.9a13.976,13.976,0,0,0,10.478-13.532v-.1l1.572,3.5c1.495,3.332,3.028,6.911,2.448,10.516C249.755,259.384,249.516,253.3,248.82,247.65Z" transform="translate(-185.692 -164.843)" fill="#fff"/><rect width="182.622" height="13.472" transform="translate(1.995 35.164)" fill="#81d8d0"/><rect width="69.356" height="4.489" transform="translate(100.969 76.301)" fill="#e0e0e0"/><rect width="69.356" height="4.489" transform="translate(100.969 95.256)" fill="#f5f5f5"/><rect width="40.916" height="4.489" transform="translate(100.453 85.776)" fill="#81d8d0" opacity="0.2"/><rect width="27.944" height="4.489" transform="translate(100.447 104.731)" fill="#69f0ae" opacity="0.2"/><rect width="27.944" height="4.489" transform="translate(133.432 104.731)" fill="#69f0ae"/><rect width="92.071" height="42.937" transform="translate(285.626 59.5)" fill="#ff6e40" opacity="0.2"/><rect width="98.731" height="46.64" transform="translate(271.15 49.24)" fill="url(#a)"/><rect width="92.071" height="42.937" transform="translate(274.781 50.35)" fill="#fff"/><rect width="53.709" height="5.096" transform="translate(288.731 59.738)" fill="#ff6e40" opacity="0.3"/><rect width="27.854" height="5.096" transform="translate(288.619 71.395)" fill="#ff6e40"/><rect width="214.782" height="57.772" transform="translate(173.218 239.146)" fill="#81d8d0" opacity="0.2"/><rect width="217.909" height="61.513" transform="translate(160.015 226.541)" fill="url(#d)"/><rect width="214.782" height="57.344" transform="translate(161.578 228.625)" fill="#fff"/><circle cx="21.485" cy="21.485" r="21.485" transform="translate(192.33 235.814)" fill="url(#a)"/><circle cx="19.098" cy="19.098" r="19.098" transform="translate(194.718 238.202)" fill="#81d8d0"/><g transform="translate(251.663 242.977)" opacity="0.2"><rect width="34.018" height="5.967" fill="#81d8d0"/><rect width="93.695" height="5.967" transform="translate(0 11.336)" fill="#81d8d0"/><rect width="93.695" height="5.967" transform="translate(0 22.677)" fill="#81d8d0"/></g><path d="M496.156,577.719l-4.195-3.2L480.907,589l-6.168-4.707-3.2,4.19,8.27,6.313.021-.03,2.093,1.6Z" transform="translate(-269.81 -328.078)" fill="#fff"/></svg>