<svg xmlns="http://www.w3.org/2000/svg" xmlns:xlink="http://www.w3.org/1999/xlink" width="500" height="329" viewBox="0 0 500 329"><defs><linearGradient id="a" x1="0.5" y1="1" x2="0.5" gradientUnits="objectBoundingBox"><stop offset="0" stop-color="gray" stop-opacity="0.251"/><stop offset="0.54" stop-color="gray" stop-opacity="0.122"/><stop offset="1" stop-color="gray" stop-opacity="0.102"/></linearGradient><linearGradient id="b" x1="0.5" y1="1" x2="0.5" y2="0" xlink:href="#a"/></defs><g transform="translate(0.05 -0.017)"><path d="M489.055,342.224q-2.341,2.06-4.786,4c-.274.222-.557.435-.835.662a168.046,168.046,0,0,1-18.274,12.355l-1.188.692c-.287.174-.57.335-.87.5-6.639,3.837-13.527,7.368-20.5,10.713l-.074.039-.526.248q-8.432,4.046-17.117,7.743l-.139.052q-3.916,1.651-7.832,3.214c-1.066.435-2.136.841-3.207,1.254-2.014.771-4.033,1.529-6.07,2.256l-.252.1-.435.152-.544.2q-7.967,2.848-16.146,5.261l-.1.026q-5.7,1.664-11.482,3.079l-.526.131c-5.656,1.367-11.4,2.543-17.186,3.484l-1.331.213q-6.344,1-12.774,1.629c-24.1,2.33-48.487.436-72.439-2.813-48.365-6.567-96.09-18.878-139.617-38.175q-12.531-5.552-24.574-11.889c-.065-.035-.122-.07-.187-.1q-7.209-3.793-14.223-7.9c-1.371-.793-2.732-1.6-4.086-2.417q-2.5-1.507-4.973-3.048-3.263-2.038-6.526-4.176l-1.018-.679-.392-.266c-.553-.37-1.1-.74-1.645-1.115C56.738,313.7,38.5,296.816,29.889,275.682c-9.955-24.387-3.585-55.307,21.072-69.721,8.476-4.965,18.326-7.66,28.281-9.885l1.018-.226c1.684-.37,3.368-.727,5.043-1.084,5.869-1.245,11.769-2.482,17.613-3.863h0c3.046-.719,6.061-1.472,9.059-2.286l1.227-.34a146.584,146.584,0,0,0,21.15-7.455h.044q1.1-.49,2.175-1.015c.461-.218.922-.436,1.384-.675a81.955,81.955,0,0,0,21.254-14.881c.483-.488.953-.984,1.41-1.481.352-.388.7-.78,1.036-1.171,4.225-4.93,7.149-10.4,7.705-16.213h0a20.921,20.921,0,0,0-.261-5.849c-.683-3.654-1.344-7.229-1.832-10.717-.909-6.554-1.218-12.821.044-18.861h0a35.512,35.512,0,0,1,9.75-17.833q1.257-1.306,2.711-2.613a57.111,57.111,0,0,1,15.067-9.528q1.018-.435,2.049-.871c15.263-6.184,33.6-7.473,50.736-6.619a276.538,276.538,0,0,1,47.538,6.619c1.24.279,2.48.57,3.711.871A329.305,329.305,0,0,1,338.03,92.1c33.232,12.511,64.6,29.883,93.9,49.053l.87.566q1.836,1.2,3.65,2.4,3.511,2.33,6.961,4.69l1.553,1.058q1.149.784,2.284,1.572l2.332,1.616h0a2.56,2.56,0,0,1,.313.222l1.984,1.376c1.149.8,2.289,1.607,3.433,2.417h0l2.454,1.742c.509.366,1.022.727,1.532,1.1l2.611,1.907.583.435c.122.087.244.174.361.27l.074.048c7.075,5.2,13.98,10.582,20.449,16.292l.835.74.087.078c.7.627,1.41,1.263,2.1,1.9a141.74,141.74,0,0,1,22.207,25.119C537.028,248.952,528.592,307.442,489.055,342.224Z" transform="translate(-25.44 -72.24)" fill="#81d8d0" opacity="0.1"/><path d="M951.452,295.833c.279-.758-1.8-4.965-1.8-5.174s-2.178-2.548-2.178-3.863-2.844-4.138-2.844-4.138-3.824-1.59-4.242-5.035S935.96,274.1,935.8,274.1c0,0,0-.314.026-.793a11.51,11.51,0,0,0-.514-4.033,4.094,4.094,0,0,0-2.361-2.008s-.436-2.687-1.254-3.515a3.959,3.959,0,0,1-.967-3.728,4.949,4.949,0,0,0-.544-3.219,3.3,3.3,0,0,0-2.03-1.886h-.074c-1.995-.483-4.229-1.224-4.229-1.224s-.227.044-.562.091l-.279-.091a12.443,12.443,0,0,1-1.455.183,1.807,1.807,0,0,1-1.18-.388c-.7-.762-6.324-2.208-7.365-2.208a17.494,17.494,0,0,1-4.033-1.381L906,247.622a19.026,19.026,0,0,1-2.613-3.606l-.035-.048h0a11.843,11.843,0,0,1-.549-1.52c-.03-.1-.052-.192-.083-.3h0a16.625,16.625,0,0,0,1.659-2.038v-.022c.135-.187.261-.392.388-.588q.274-.436.523-.9c.07-.135.135-.274.2-.405a1.742,1.742,0,0,0,.436-.074l.187-.07a2.205,2.205,0,0,0,.479-.3l.139-.126a3.4,3.4,0,0,0,.871-1.337c.048-.148.092-.3.126-.436a.642.642,0,0,1,.039-.157c.013-.048.048-.209.065-.318l.026-.174a1.748,1.748,0,0,1,.052-.309.592.592,0,0,0,0-.179c0-.126.035-.261.048-.392.061-.492.113-.976.218-1.455a.04.04,0,0,0,0-.022,11.129,11.129,0,0,1,1.028-2.648c.436-.841.915-1.668,1.307-2.535h0c.113-.248.222-.5.318-.754s.192-.558.279-.841a1.158,1.158,0,0,1,.061-.257,6.069,6.069,0,0,0,.139-.623,2.2,2.2,0,0,0,.052-.274c.052-.287.087-.575.113-.871a10.688,10.688,0,0,0-.714-4.848c-.518-1.307-1.307-2.461-1.825-3.754-.8-1.964-1.006-4.186-1.982-6.059a7.217,7.217,0,0,0-8.655-3.524c-1.507.557-2.818,1.651-4.355,2.143-2.047.658-4.247.161-6.372-.135s-4.477-.318-6.185,1.067c-1.964,1.6-2.5,4.6-4.355,6.355a10.021,10.021,0,0,1-1.45,1.089c-.375.257-.754.51-1.106.8a4.125,4.125,0,0,0-1.285,1.742,1.5,1.5,0,0,0-.048.148,1.39,1.39,0,0,0-.048.179,1.8,1.8,0,0,1-.03.2.775.775,0,0,0,0,.144,2.512,2.512,0,0,0,0,.314h0v.052a1.993,1.993,0,0,0,.057.348v.1a1.738,1.738,0,0,0,.087.287.22.22,0,0,1,0,.057,3.179,3.179,0,0,0,.126.314.508.508,0,0,0,.061.157.6.6,0,0,1,.061.131,8.237,8.237,0,0,1,.645,1.6,1.811,1.811,0,0,1-.065,1.063,1.7,1.7,0,0,1-.279.466,5.81,5.81,0,0,1-.488.54,14.429,14.429,0,0,0-3.14,5.022c-.078.213-.152.436-.222.649h0l.091.026.092.022a3.047,3.047,0,0,0,.518.109,3.178,3.178,0,0,0,.348.039,5.4,5.4,0,0,0,1.42-.113,2.169,2.169,0,0,0,.231-.052h0a.253.253,0,0,0,.07-.022h.044a7.55,7.55,0,0,0,1.141-.4c.087-.039.179-.074.266-.118v1.62a16.39,16.39,0,0,0,8.345,13.324c.248.144.492.279.745.405.022.148.044.3.061.436s.035.248.048.375l-.192-.179a1.267,1.267,0,0,0-.518-.1,1.664,1.664,0,0,0-.828.213,3.048,3.048,0,0,0-1.084,1.058,7.724,7.724,0,0,1-3.406,2.613s-12.631,2-13.128,3.654l-5.906.348s-2.086.274-2.291,4.621v.1c-.031.518-.07.98-.118,1.394v.061c-.366,2.9-1.193,3.206-1.193,3.206s-2.435,4.277-2.226,6.485a.208.208,0,0,1,0,.052h0a2.847,2.847,0,0,1-.057.893,3.92,3.92,0,0,1-1.821,2.348l-.274,3.92a2.67,2.67,0,0,0-2.918,2.348,9.292,9.292,0,0,1-1.742,3.92s-3.82,3.175-4.029,5.862l-2.365,1.45s-5.484-1.241-6.738-3.45c0,0-.148-.148-.383-.362l-.035-.052a.133.133,0,0,0,0,.026,19.23,19.23,0,0,0-2.3-2.025,1.707,1.707,0,0,1,.113,1.115l-.409-.436-1.093-1.219s-1.564-1.464-3.763-3.21h0q-.753-.6-1.59-1.228c-2.814-2.086-6.2-4.2-8.711-4.521-.052-.1-.261-.893-.753-.893a.827.827,0,0,0-.54.266,7.248,7.248,0,0,0-.048,10.628l.571.531,1.768,1.655,5.967,5.575c.074.052.144.109.218.157l.353.436.274.353.475.605.684.871c-.035.091-.074.179-.1.266-.257.627-.479,1.237-.662,1.794v.061c-.043.139-.087.27-.126.4a.543.543,0,0,1-.044.135c-.044.131-.078.261-.118.379a1.838,1.838,0,0,0-.061.227,1.3,1.3,0,0,1-.043.135c-.2.693-.318,1.224-.383,1.52l-.462-.144.436.2a.577.577,0,0,1,0,.074l-.026.139c.135.065.279.126.436.187l.1.044,1.707.753h0c.344.152.719.314,1.119.5s.71.318,1.1.483h0c4.46,1.986,10.71,4.839,11.154,5.41.693.9,5.279,3.519,9.452,1.307a9.949,9.949,0,0,0,5.066-5.592s4.033-5.584,4.173-6.411c.1-.636,1.969-1.355,2.831-1.655l.083-.026.348-.113v1.054a53.464,53.464,0,0,1-.636,9.238.056.056,0,0,0,0,.026,10.044,10.044,0,0,1-.693,2.308c-1.6,3.38-4.582,18.354-4.582,18.354h.07a2.022,2.022,0,0,1,.523-.026c-.061.279-.1.5-.131.645s-.044.222-.044.222h.052a2.007,2.007,0,0,1,.505-.03,1.068,1.068,0,0,1,.17.022,2.656,2.656,0,0,1-.044.314v.109c0,.017-.026.135-.035.209-.362,2.491-1.407,8.977-1.407,8.977a20.54,20.54,0,0,1-1.115,4.826,11.955,11.955,0,0,0-.583,3.484c0,.218-.031.436-.048.662-.113,1.847-.131,3.576-.131,3.576l-.031.113-1.023,4.643a1.314,1.314,0,0,0,.057.126h0c.074.139.192.379.362.675h0l.052.113a12.97,12.97,0,0,0,2.413,3.4,6.272,6.272,0,0,0,.732.623h0a.789.789,0,0,1-.031.152c-.009.044-.026.166-.039.244a7.049,7.049,0,0,1-.492,1.742,5.822,5.822,0,0,0-.5,1.9h0a8.733,8.733,0,0,0-.044,1.411l-.057.257h0c-.152.71-.588,2.792-.823,4.486-.057.388-.109.762-.139,1.111a5.4,5.4,0,0,0,0,.971,7.986,7.986,0,0,1-.087,1.629,3.685,3.685,0,0,1-.057.479c-.235,1.533-.623,3.14-.623,3.14l-1.25,12v.71a1.374,1.374,0,0,1-.026.313c0,.283-.043.619-.074,1.01a3.821,3.821,0,0,1-.026.436,2.272,2.272,0,0,1-.026.414v.227a2.039,2.039,0,0,1-.022.344,1.684,1.684,0,0,0,0,.331v.309c-.039.64-.083,1.333-.113,2.034v.671a5.031,5.031,0,0,1-.031.671v4.434a12.669,12.669,0,0,0,.1,1.385c.048.34.083.7.1,1.063v.505a2.494,2.494,0,0,1,0,.253v1.951c-.109,1.5-.314,2.714-.344,2.905h0v.409c0,.109.026.248.039.4v.218h0a.861.861,0,0,0,.026.253c.026.087,0,.083,0,.131,0,.157.026.318.044.488s.039.353.052.536l.026.344c0,.166.035.34.048.51v.174c0,.118.026.231.035.353l.039.536c0,.118.026.24.035.357a1.219,1.219,0,0,1,0,.183l.057.706a1.876,1.876,0,0,0,.022.348c0,.183.026.37.044.544s0,.4.031.584a3.759,3.759,0,0,1,.026.531,7.368,7.368,0,0,1,0,1.477c-.113.5-.479,1.886-.688,3.393,0,.135-.039.27-.052.409a1.475,1.475,0,0,0,0,.244l-.026.327c0,.261-.031.527-.031.784a6.046,6.046,0,0,0,.2,1.742,8.228,8.228,0,0,1,.218,1.15.591.591,0,0,0,.022.192c0,.139.031.283.044.435s.022.3.031.436c0,.3.026.618.039.936v.632c.031,1.838-.057,3.637-.083,4.1v.113s.436,7.731.9,10.209c.061.327.1.658.135,1a2.218,2.218,0,0,0,.022.379,19.434,19.434,0,0,1-.3,4.286,47.114,47.114,0,0,1-.693,5.309,3.4,3.4,0,0,0-.623,2.056v.035a6.706,6.706,0,0,0,2.287,5.157l.209.2.253-.1c2.038-.727,4.059-1.485,6.076-2.256,1.072-.414,2.143-.827,3.21-1.254q3.955-1.564,7.84-3.214h0a.5.5,0,0,1-.248-.314c-.4-1.067.2-4.356.318-4.861s1.25-11.25,1.25-11.25-.436-3.376.139-4.822-.7-7.043-.7-7.043a1.245,1.245,0,0,1,.348-1.516c.784-.828.488-8.21.488-8.21s-.07-3.728-.07-4.7a17.224,17.224,0,0,1,1.594-5.662c.758-1.176.283-4.835.283-4.835h0l.043-.279a2.773,2.773,0,0,1,.061-.388l.065-.37a51.192,51.192,0,0,1,1.35-5.989c.906-2.9,1.947-8,1.947-8l6.076-16.294h0l.2-.505.074-.2s2.984,5.523,2.984,10.627a61.539,61.539,0,0,1,.562,7.8c-.2,1.655.623,9.451.623,9.451s.9,11.181.9,11.66,1.115,9.081,1.812,10.388-.7,5.314-1.111,5.728.139,10.558.139,10.558-1.05,8-1.254,9.656c-.039.3-.1.754-.166,1.307,6.969-3.345,13.872-6.877,20.519-10.715.287-.161.571-.322.871-.5l.048-9.9s.488-4.621-.07-6.49-1.111-5.444-.344-6.411.07-5.449.07-5.449,0-9.456,1.041-11.8.7-17.178.7-17.178l.275-9.73s2.217-2.1,1.742-12.975v-.37c2.422-.152,5.153-.24,5.566.1.662.531,4.391,2.944,7.278,2.343h0a3.541,3.541,0,0,0,1.333-.553,39.206,39.206,0,0,0,3.484-2.692l-1.106-18.611h0l-.118-2.069c.209.318.392.6.549.871.436.662.675,1.067.675,1.067,0-2.9,8.2-12.278,8.2-12.278s7.644-9.865,9.308-11.041,4.935-7.383,4.935-7.383a30.112,30.112,0,0,1,1.668-3.45C953.686,299.906,951.173,296.591,951.452,295.833ZM927,309.078a4.325,4.325,0,0,1-.923,1.86c-.035-.436-.07-.841-.1-1.276v-.113c-.488-6.072-1.01-13.415-.771-14.134a16.853,16.853,0,0,0,.287-3.563h0c.03-1.668,0-3.258,0-3.258h0l.078-.109c1.4,4.356,5.754,9.434,5.754,9.434s.767,2.208,1.668,2.278.553,2.9.553,2.9a3.283,3.283,0,0,0-1.185.436,10.373,10.373,0,0,0-1.228.832h0C929.13,305.877,927.044,308.373,927,309.078Z" transform="translate(-469.229 -147.482)" fill="url(#a)"/><path d="M837,408.694s2.535-13.284,10.68-13.354l5.958,12.257-4.007,2.722S841.024,410.593,837,408.694Z" transform="translate(-483.937 -254.626)" fill="#65617d"/><path d="M853.621,407.6l-3.99,2.74a47.088,47.088,0,0,1-10.41-.871,11.885,11.885,0,0,1-2.221-.753.807.807,0,0,1,.043-.213.311.311,0,0,1,0-.052,30.234,30.234,0,0,1,1.542-4.878c.248-.6.536-1.211.841-1.825a12.465,12.465,0,0,1,5.166-5.662,7.066,7.066,0,0,1,2.714-.71h.362l.135.27,2.012,4.142Z" transform="translate(-483.937 -254.643)" opacity="0.1"/><path d="M1022.408,500.9s8.559-.819,9.312-.2,5.614,3.768,8.493,1.781.958-8.9.958-9.177-.274-10.066-.274-10.066l-5.135-6.917-6.438-12.117-13.145-1.307.34,19.243-.065,9.861Z" transform="translate(-585.217 -292.762)" fill="#65617d"/><path d="M1022.408,500.9s8.559-.819,9.312-.2,5.614,3.768,8.493,1.781.958-8.9.958-9.177-.274-10.066-.274-10.066l-5.135-6.917-6.438-12.117-13.145-1.307.34,19.243-.065,9.861Z" transform="translate(-585.217 -292.762)" opacity="0.1"/><path d="M832.248,378.18s-.675,8.354-5.9,8.485a40.974,40.974,0,0,1-3.458-2.374c-4.573-3.419-11.825-10-9.822-16.115,2.875-8.763,16.843,7.4,16.843,7.4l1.076,1.2Z" transform="translate(-470.225 -237.822)" fill="#a5636d"/><path d="M844.855,392.7s-.675,8.354-5.9,8.485a40.98,40.98,0,0,1-3.458-2.374l-.436-.571a6.8,6.8,0,0,0,2.853.771,3.825,3.825,0,0,0,3.724-2.348,30.23,30.23,0,0,0,1.442-3.314,9.977,9.977,0,0,0,.523-2.056Z" transform="translate(-482.836 -252.34)" opacity="0.1"/><path d="M843.126,406.931l-1.172-1.507-3.92-5.074L836,397.758a6.8,6.8,0,0,0,2.849.767,3.818,3.818,0,0,0,3.724-2.348,29.4,29.4,0,0,0,1.442-3.315c.649-1.847.636-2.8.405-3.118a20.978,20.978,0,0,1,2.265,2.012l.031.026.375.357.144.279,1.982,3.968v.166C849.4,397.81,850.064,405.8,843.126,406.931Z" transform="translate(-483.37 -251.443)" fill="#e7effd"/><path d="M917.666,611.978a1.99,1.99,0,0,0-.409-.27h-.035c-.819-.344-.07-4.591.07-5.139s1.233-11.141,1.233-11.141-.409-3.349.139-4.791-.688-6.969-.688-6.969a1.281,1.281,0,0,1,.344-1.507c.754-.823.479-8.149.479-8.149s-.065-3.693-.065-4.656a16.984,16.984,0,0,1,1.572-5.614c.754-1.167.274-4.791.274-4.791h0l.039-.279c.022-.1.039-.231.061-.383l.065-.366a1.779,1.779,0,0,1,.048-.279c.039-.218.083-.436.131-.714.026-.157.057-.322.091-.488.1-.523.218-1.1.344-1.686.039-.183.083-.37.126-.553s.1-.436.161-.662c.035-.135.065-.266.1-.4.1-.4.209-.788.327-1.159.871-2.879,1.921-7.944,1.921-7.944l6.363-16.717.074-.2.2.388h0c.662,1.337,2.74,5.889,2.74,10.153a60.351,60.351,0,0,1,.549,7.735c-.209,1.638.619,9.382.619,9.382s.871,11.089.871,11.568,1.1,9.042,1.781,10.34-.684,5.275-1.1,5.662.139,10.479.139,10.479-1.028,7.94-1.237,9.582c-.044.392-.131,1.05-.222,1.855l.527-.248.074-.039c6.969-3.345,13.873-6.877,20.519-10.715l.057-10.5s.479-4.591-.065-6.438-1.1-5.409-.349-6.372.074-5.405.074-5.405,0-9.382,1.024-11.708.688-17.052.688-17.052l.27-9.652s2.234-2.13,1.707-13.245c-.057-1.185-.144-2.47-.266-3.872-.379-4.194-.762-7.992-1.111-11.281-.03-.283-.061-.562-.091-.832-.035-.366-.078-.727-.113-1.08-.083-.745-.161-1.459-.24-2.138-.026-.2-.048-.4-.07-.592q-.17-1.463-.318-2.7c-.035-.322-.078-.64-.113-.941-.057-.436-.109-.871-.157-1.276a2.191,2.191,0,0,0-.039-.287,3.668,3.668,0,0,0-.061-.5c-.226-1.777-.362-2.748-.362-2.748H956.3l-6.886.061-15.031.144h-.44l-7.84.074h-.479l-3.763.039h-.64l-7.84.074h-.475L909.691,498.3l-6.573,15.066s-.1,1.651-.331,3.262v.1a.315.315,0,0,1-.026.157,1.143,1.143,0,0,0-.039.244,8.467,8.467,0,0,1-.553,2.13,5.321,5.321,0,0,0-.436,1.5,8.82,8.82,0,0,0-.1,1.668h0v.092s-.523,2.374-.828,4.395c-.057.388-.109.762-.139,1.111a7.014,7.014,0,0,0-.061,1.276,7.159,7.159,0,0,1-.048,1.307,3.643,3.643,0,0,1-.057.479c-.214,1.6-.645,3.4-.645,3.4L898.62,546.4a.262.262,0,0,1,0,.039v.5a1.381,1.381,0,0,1-.026.314c0,.283-.044.618-.074,1.01a3.8,3.8,0,0,1-.026.436,2.27,2.27,0,0,1-.026.414v.227a2.039,2.039,0,0,1-.022.344,1.693,1.693,0,0,0,0,.331v.309c-.035.64-.078,1.333-.109,2.034v.671a5.033,5.033,0,0,1-.031.671v4.469a11.859,11.859,0,0,0,.1,1.455c.043.322.078.653.1.993v2.709c-.109,1.5-.314,2.714-.344,2.905h0v.409c0,.109.026.248.039.4v.218h0a.856.856,0,0,0,.026.253c.026.087,0,.083,0,.131,0,.157.026.318.043.488s.035.353.052.536l.026.344c0,.166.035.34.048.51v.174c0,.118.026.231.035.353l.039.536c0,.118.026.24.035.357v.183l.057.706a1.867,1.867,0,0,0,.022.349c0,.183.026.37.043.544s0,.4.03.584a3.708,3.708,0,0,1,.026.531,7.738,7.738,0,0,1,0,1.429,33.338,33.338,0,0,0-.679,3.441c0,.135-.039.27-.052.409a1.475,1.475,0,0,0,0,.244l-.026.327c0,.261-.031.527-.031.784a6,6,0,0,0,.2,1.642,9.245,9.245,0,0,1,.24,1.446c.035.279.057.575.074.871s.026.619.039.936v.632c.026,2.069-.087,4.046-.087,4.046,0,.017,0,.035,0,.052v.035c.044.871.436,7.74.871,10.048a10.483,10.483,0,0,1,.152,1.237,2.192,2.192,0,0,0,.022.379,19.941,19.941,0,0,1-.309,4,47.846,47.846,0,0,1-.845,5.318,3.719,3.719,0,0,0-.614,2.382v.035a6.769,6.769,0,0,0,2.26,4.791l.488.488c2.038-.727,4.059-1.485,6.076-2.256,1.072-.414,2.143-.827,3.21-1.254q3.955-1.564,7.84-3.214Z" transform="translate(-518.307 -305.059)" fill="#3f3d56"/><path d="M996.091,290.112l-10.135,10.823s-13.005-5.227-11.638-6.969c.531-.688.436-2.862.139-5.261-.479-3.794-1.507-8.162-1.507-8.162s22.731-3.7,20.811.139a6.29,6.29,0,0,0-.144,4.547A17.24,17.24,0,0,0,996.091,290.112Z" transform="translate(-560.816 -188.917)" fill="#a5636d"/><path d="M993.761,280.644c-.7,1.4-1.032,1.533-.6,3.049-2.97,3.188-6.751,6.677-11.451,6.677a16.22,16.22,0,0,1-7.256-1.7c-.479-3.794-1.507-8.162-1.507-8.162S995.681,276.806,993.761,280.644Z" transform="translate(-560.816 -188.895)" opacity="0.1"/><path d="M988.247,245.586a16.3,16.3,0,0,1-32.6,0v-.235a16.3,16.3,0,1,1,32.594.235Z" transform="translate(-551.051 -160.821)" fill="#a5636d"/><path d="M976.5,502c-2.178,0-9.347.078-17.379.2h-.1l-2.653.044h-.083c-9.526.152-18.912-1.707-22.679-1.355-8.014.753,2.875-7.4,2.875-7.4a67.075,67.075,0,0,0,18.25,1.847l2.3-.122c7.278-.409,14.6-1.093,18.42-2.243C975.719,495.1,976.106,498.175,976.5,502Z" transform="translate(-536.946 -309.74)" opacity="0.1"/><path d="M976.5,501.059c-2.178,0-9.347.074-17.379.2h-.1l-2.653.044h-.083c-9.526.152-18.912-1.707-22.679-1.355-8.014.749,2.875-7.4,2.875-7.4a66.962,66.962,0,0,0,18.25,1.842l2.3-.118c7.278-.409,14.6-1.1,18.42-2.243C975.719,494.155,976.106,497.243,976.5,501.059Z" transform="translate(-536.946 -309.209)" fill="#5f5d7e"/><path d="M954.078,311.794l-12.6,5.889L931.76,392.85s5.749-2.613,9.038-.958,13.419.139,13.419.139,7.4-.436,8.489.409,13.973-3.423,13.973-3.423,2.326-5.2.544-6.024.549-8.916.549-8.916l-1.093-54.231-2.178-6.969-5.889-3.558-6.024,4.791-2.875.414Z" transform="translate(-537.567 -206.071)" opacity="0.1"/><path d="M954.078,309.9l-12.6,5.889-9.722,75.185s5.749-2.613,9.038-.958,13.419.135,13.419.135,7.4-.409,8.489.409,13.973-3.423,13.973-3.423,2.326-5.2.544-6.024.549-8.9.549-8.9l-1.093-54.231-2.178-6.969-5.889-3.563-6.024,4.791-2.875.409Z" transform="translate(-537.567 -205.015)" fill="#e7effd"/><path d="M969.869,319.678s3.633,4.312,3.563,5.2-.2,3.01-.2,3.01l-2.718,5.549S969,340.358,969,341.795s-2.4,13.9-2.4,13.9l-2.875,19.164L960.1,399.989l3.7,6.368,4.382-3.7,5.815-44.775,1.233-8.833s1.307-15.885,1.307-17.527a55.993,55.993,0,0,0-.753-5.958s.893-4.107,4.591-5.066-.274-.209-.274-.209l-2.121-1.712-1.851.754S970.967,317.761,969.869,319.678Z" transform="translate(-553.563 -211.299)" opacity="0.1"/><path d="M968.9,318.738s3.628,4.312,3.563,5.2-.209,3.014-.209,3.014l-2.74,5.549S968,339.413,968,340.851s-2.4,13.9-2.4,13.9l-2.879,19.164L959.1,399.045l3.7,6.368,4.382-3.7,5.815-44.77,1.233-8.833s1.307-15.885,1.307-17.531a55.7,55.7,0,0,0-.754-5.954s.871-4.112,4.586-5.07-.27-.2-.27-.2l-2.125-1.712-1.847.754S969.993,316.817,968.9,318.738Z" transform="translate(-552.999 -210.768)" fill="#81d8d0"/><path d="M972.54,303.65s-.549.409-.684,3.149-2.056,8.9-2.056,8.9,7.121-4.93,10.684-4.382Z" transform="translate(-559.038 -202.865)" opacity="0.1"/><path d="M972.54,301.76s-.549.414-.684,3.149-2.056,8.9-2.056,8.9,7.121-4.93,10.684-4.382Z" transform="translate(-559.038 -201.799)" fill="#e7effd"/><path d="M1006.211,298.62,995,308.481s9.451,5.614,10.684,6.969,2.465-13.419,2.465-13.419Z" transform="translate(-573.262 -200.026)" opacity="0.1"/><path d="M1007.128,296.73,995.9,306.591s9.447,5.614,10.68,6.969,2.465-13.424,2.465-13.424Z" transform="translate(-573.77 -198.959)" fill="#e7effd"/><path d="M934.666,303.515s-1.233-.618-2.4,1.163a7.794,7.794,0,0,1-3.354,2.613s-12.466,1.986-12.945,3.628l-5.819.34s-2.056.248-2.248,4.6-1.307,4.721-1.307,4.721-2.4,4.247-2.178,6.438a3.566,3.566,0,0,1-1.851,3.288l8.576,22.231s.274,9.177-1.307,12.531-4.521,18.215-4.521,18.215,1.233-.274,1.163.549-1.507,9.791-1.507,9.791a19.714,19.714,0,0,1-1.093,4.791c-.684,1.233-.753,7.67-.753,7.67L902,410.744s2.613,5.819,6.577,5,11.159-16.364,11.159-16.364l4.586-16.773,3.563-16.573,1.028-11.229,1.642-24.857,2.4-16.433S935.638,304.678,934.666,303.515Z" transform="translate(-520.672 -202.738)" opacity="0.1"/><path d="M933.762,301.627s-1.233-.614-2.4,1.167a7.8,7.8,0,0,1-3.358,2.613s-12.461,1.986-12.94,3.628l-5.819.344s-2.056.274-2.26,4.586-1.307,4.726-1.307,4.726-2.4,4.247-2.178,6.438a3.564,3.564,0,0,1-1.847,3.284l8.546,22.239s.274,9.177-1.307,12.531S904.38,381.4,904.38,381.4s1.233-.274,1.163.549-1.507,9.791-1.507,9.791a19.715,19.715,0,0,1-1.093,4.791c-.684,1.233-.754,7.67-.754,7.67l-1.089,4.678s2.613,5.819,6.573,5,11.163-16.368,11.163-16.368l4.587-16.773,3.563-16.551,1.023-11.229,1.647-24.853,2.4-16.433S934.72,302.795,933.762,301.627Z" transform="translate(-520.163 -201.673)" fill="#65617d"/><path d="M853.067,407.031l-3.99,2.74a47.089,47.089,0,0,1-10.41-.871l-2.213-.98-.436-.2.457.144a9.04,9.04,0,0,0,5.479.2c5.623-1.89,5-11.172,4.791-13.271a1.89,1.89,0,0,0-.044-.4.117.117,0,0,1,0-.026l.035.052a2.475,2.475,0,0,0,.257.362,2.892,2.892,0,0,0,.253.266h0l1.982,3.968v.165Z" transform="translate(-483.384 -254.079)" opacity="0.1"/><path d="M867.362,362l-1.917.549-.274,3.92a2.631,2.631,0,0,0-2.875,2.33,9.522,9.522,0,0,1-1.712,3.92s-3.768,3.149-3.972,5.819l-2.33,1.437s-5.409-1.233-6.642-3.423c0,0,2.465,17.666-10.68,13.354,0,0,14.722,6.438,15.405,7.326s5.2,3.485,9.312,1.307a9.879,9.879,0,0,0,5-5.614s3.972-5.545,4.107-6.368S874,384.775,874,384.775l5.889-14.238Z" transform="translate(-483.937 -235.807)" fill="#65617d"/><path d="M1015.359,305.768l1.986-9.038s.871,2.944,1.782,3.628,2.944,2.261,2.944,2.261a17.107,17.107,0,0,0,3.968,1.372c1.024,0,6.577,1.437,7.261,2.178s3.424.2,3.424.2,2.26.754,4.247,1.233,2.944,3.768,2.531,5.065a3.959,3.959,0,0,0,.958,3.7c.823.823,1.232,3.484,1.232,3.484a4.016,4.016,0,0,1,2.33,1.986c.684,1.507.479,4.791.479,4.791L1038.3,341s.135,5.545-.274,6.777,1.437,22.187,1.437,22.187l2.121,36.016a37.855,37.855,0,0,1-3.423,2.67c-.619.274-1.233-12.736-1.233-13.215s-15.815-23.694-15.815-23.694-2.125-3.423-2.125-4.177S1017,359.9,1017,359.9l-3-13.323Z" transform="translate(-583.987 -198.966)" opacity="0.1"/><path d="M1050.405,325.846c0,.47-.026.784-.026.784L1040.183,341h0s.139,5.549-.27,6.782c-.24.714.283,8.084.767,14.134.344,4.356.671,8.049.671,8.049l.9,15.279,1.219,20.741a38.343,38.343,0,0,1-3.419,2.67c-.614.274-1.233-12.736-1.233-13.219s-15.828-23.7-15.828-23.7-2.121-3.428-2.121-4.181-1.986-7.67-1.986-7.67l-3.01-13.35,1.368-40.811,1.163-9.038a19.345,19.345,0,0,0,2.613,3.628c.9.679,2.94,2.261,2.94,2.261a17.083,17.083,0,0,0,3.972,1.372c1.028,0,6.573,1.437,7.261,2.178s3.423.2,3.423.2,2.256.753,4.242,1.233,2.944,3.768,2.535,5.065a3.946,3.946,0,0,0,.958,3.7c.819.819,1.233,3.484,1.233,3.484a4.029,4.029,0,0,1,2.33,1.986A11.775,11.775,0,0,1,1050.405,325.846Z" transform="translate(-585.042 -198.944)" fill="#65617d"/><path d="M912.694,783.39c-1.067.436-2.139.841-3.21,1.254-3.358-.98-6.494-2.134-6.494-2.134A89.2,89.2,0,0,1,912.694,783.39Z" transform="translate(-521.211 -473.191)" opacity="0.1"/><path d="M999.67,700.6s8.149,1.916,8.628,3.219Z" transform="translate(-575.898 -426.957)" opacity="0.1"/><path d="M925.011,714.12s-4.247,1.233-.135,3.7S925.011,714.12,925.011,714.12Z" transform="translate(-532.556 -434.589)" opacity="0.1"/><path d="M970.74,560.863c.479,0,7.945-2.465,10.545-1.368a17.3,17.3,0,0,0,5.823,1.093Z" transform="translate(-559.569 -347.134)" opacity="0.1"/><path d="M960.413,576.1l-.074.679-6.385,16.7s-1.028,5.066-1.921,7.94a52.027,52.027,0,0,0-1.333,5.945l5.662-35.045Z" transform="translate(-548.257 -354.537)" opacity="0.1"/><path d="M990.21,504.182l-2.652.044h-.083l-1.555-6.9c.762-.035,1.533-.074,2.3-.122Z" transform="translate(-568.137 -312.127)" fill="#3f3d56"/><path d="M1034.24,485.488l-1.7,1.407-5.675,4.691s-15.406,8.219-19.648.409c-3.741-6.877,13.724-11.786,17.932-12.858.571-.144.9-.218.9-.218Z" transform="translate(-579.862 -301.809)" fill="#a5636d"/><path d="M918.87,339.49s3.01,1.372,3.693,3.288S918.87,339.49,918.87,339.49Z" transform="translate(-530.176 -223.097)" opacity="0.1"/><path d="M893.548,386.66s-4.382,5.34-2.613,7.4S893.548,386.66,893.548,386.66Z" transform="translate(-514.158 -249.726)" opacity="0.1"/><path d="M1071.826,346.41s-4.107.409-4.246,3.972Z" transform="translate(-614.23 -227.004)" opacity="0.1"/><path d="M989.92,458.186c.436-.409,9.861-14.373,12.052-13.145Z" transform="translate(-570.395 -282.64)" opacity="0.1"/><path d="M988.247,245.608a16.239,16.239,0,0,1-1.929,7.692H986.2c-1.032-.218-1.568-1.42-2.356-2.178a3.21,3.21,0,0,0-3.7-.518,3.75,3.75,0,0,0-1.816,3.515c-.523-2.178-.357-4.525-.871-6.721s-2.043-4.421-4.142-4.46c-.906,0-1.96.335-2.613-.344-.4-.409-.475-1.054-.771-1.551-1.5-2.426-6.067-1.2-7.931.048s-4.029,3.232-6.346,4.3a16.3,16.3,0,1,1,32.594.235Z" transform="translate(-551.051 -160.843)" opacity="0.1"/><path d="M964.53,229.214c.3.5.375,1.141.771,1.551.653.675,1.707.327,2.613.344,2.1.035,3.633,2.26,4.142,4.456s.344,4.53.871,6.721a3.75,3.75,0,0,1,1.816-3.511,3.2,3.2,0,0,1,3.693.518c.788.749,1.307,1.951,2.361,2.178s2.03-.775,2.4-1.864a29.515,29.515,0,0,0,.588-3.41c.466-2.139,1.86-3.889,2.613-5.919a10.716,10.716,0,0,0-.07-7.648c-.514-1.307-1.276-2.443-1.8-3.728-.784-1.951-.993-4.151-1.951-6.011a7.07,7.07,0,0,0-8.528-3.484c-1.489.562-2.783,1.646-4.294,2.13-2.021.649-4.186.161-6.281-.131s-4.412-.318-6.1,1.058c-1.938,1.585-2.469,4.565-4.29,6.307-.766.732-1.716,1.2-2.522,1.873a3.453,3.453,0,0,0-1.411,2.779c.122,1.42,1.511,2.709,1,4.02a3.174,3.174,0,0,1-.762,1,14.375,14.375,0,0,0-3.314,5.64c3.667,1.146,7.631-2.9,10.5-4.791C958.467,228.017,963.032,226.784,964.53,229.214Z" transform="translate(-545.65 -149.439)" fill="#4c3e42"/><path d="M1057.787,485.483l-1.7,1.407c-1.5-2.5-7.674-7.5-7.674-7.5l.266-.257c.571-.144.9-.218.9-.218Z" transform="translate(-603.409 -301.802)" opacity="0.1"/><path d="M1059.964,480.133s-.614,1.524-1.246,2.844-1.307,2.513-1.359,1.542c-.07-1.921-8.01-8.358-8.01-8.358l1.076-1.045,1.25-1.215Z" transform="translate(-603.94 -298.974)" fill="#e7effd"/><path d="M1060.323,454.537l.9,15.279c-2.126-3.306-7.966-11.786-11.721-11.512l9.107-10.453a11.742,11.742,0,0,0,1.046-1.341C1060,450.857,1060.323,454.537,1060.323,454.537Z" transform="translate(-604.025 -283.513)" opacity="0.1"/><path d="M1061.381,480.133s-.614,1.524-1.246,2.844c-2.387-3.275-5.662-7.139-8.276-7.862l1.25-1.215Z" transform="translate(-605.357 -298.974)" opacity="0.1"/><path d="M1067.432,361l2.465,1.916s4.107.07,4.517,3.484,4.177,5,4.177,5,2.81,2.8,2.81,4.107,2.121,3.628,2.121,3.833,2.056,4.382,1.781,5.135,2.178,4.042,1.438,5.275a30.257,30.257,0,0,0-1.642,3.423s-3.219,6.163-4.865,7.326-9.173,10.954-9.173,10.954-8.079,9.312-8.079,12.2c0,0-7.875-13.149-12.531-12.805l9.107-10.475s1.572-1.712,1.642-2.74,4.382-5.754,6.438-5.958c0,0,.339-2.809-.549-2.875s-1.642-2.26-1.642-2.26-6.028-7.121-6.1-11.642S1067.432,361,1067.432,361Z" transform="translate(-604.561 -235.244)" fill="#65617d"/><path d="M1091.687,376s-5.754,4.242-4.521,5.614S1091.687,376,1091.687,376Z" transform="translate(-625.187 -243.708)" opacity="0.1"/><path d="M1098.4,414.238s10.68-3.423,11.76,0Z" transform="translate(-631.626 -264.435)" opacity="0.1"/><path d="M923.172,374.08s0,15.61-1.337,17.152S923.172,374.08,923.172,374.08Z" transform="translate(-531.638 -242.625)" opacity="0.1"/><path d="M1067.11,385.63l1.986,5.579S1069.885,385.734,1067.11,385.63Z" transform="translate(-613.965 -249.144)" opacity="0.1"/><g transform="translate(400.448 72.726)" opacity="0.1"><path d="M954.434,243.14c.5-1.285-.81-2.544-.984-3.92a2.614,2.614,0,0,0-.218,1.237c.087,1.041.871,2.008,1.058,2.97A1.753,1.753,0,0,0,954.434,243.14Z" transform="translate(-950.131 -239.22)"/><path d="M973.128,263.483c-.492-2.178-.348-4.447-.845-6.6s-2.043-4.425-4.142-4.46c-.906,0-1.96.331-2.613-.344-.4-.409-.475-1.054-.771-1.551-1.5-2.426-6.063-1.2-7.931.048-2.8,1.86-6.647,5.754-10.24,4.874-.17.414-.331.832-.466,1.263,3.667,1.146,7.631-2.9,10.5-4.791,1.869-1.241,6.429-2.474,7.932-.044.3.5.375,1.141.771,1.551.653.675,1.707.327,2.613.344,2.1.035,3.633,2.261,4.142,4.456s.344,4.53.871,6.721A3.719,3.719,0,0,1,973.128,263.483Z" transform="translate(-946.12 -244.815)"/><path d="M1018.452,274.634c-.375,1.089-1.35,2.086-2.4,1.864s-1.568-1.42-2.356-2.178a3.214,3.214,0,0,0-3.7-.514,3.724,3.724,0,0,0-1.816,3.315,3.576,3.576,0,0,1,1.612-1.982,3.2,3.2,0,0,1,3.693.518c.788.749,1.307,1.951,2.361,2.178s2.03-.775,2.4-1.864a9.586,9.586,0,0,0,.375-1.969A6.074,6.074,0,0,1,1018.452,274.634Z" transform="translate(-981.147 -258.536)"/><path d="M1035.514,252.806c-.771,2.03-2.178,3.781-2.613,5.915-.1.436-.148.871-.2,1.307.466-2.125,1.855-3.872,2.613-5.9a10.325,10.325,0,0,0,.632-2.84A9.916,9.916,0,0,1,1035.514,252.806Z" transform="translate(-994.99 -246.033)"/></g><circle cx="0.17" cy="0.17" r="0.17" transform="translate(342.015 128.73)" fill="#e6e8ec"/><path d="M497.7,585.034s4.791-3.437,9.769-1.307c0,0-1.394,2.953-7.579,2.914Z" transform="translate(-292.256 -360.58)" fill="#81d8d0"/><path d="M496.069,588.09s-1.281,5.762,2.613,9.5c0,0,2.178-2.439-.292-8.114Z" transform="translate(-291.218 -363.436)" fill="#81d8d0"/><path d="M481.75,571.043s.179-4.865,11.194-3.676c0,0,.174,3.132-3.615,4.76S483.732,572.577,481.75,571.043Z" transform="translate(-283.246 -351.632)" fill="#81d8d0"/><path d="M477.546,576s-4.573,1.664-.052,11.782c0,0,3.049-.8,3.415-4.909S479.61,577.429,477.546,576Z" transform="translate(-279.711 -356.612)" fill="#81d8d0"/><path d="M465.335,550.952s-.932-7.958,10.3-7.57c0,0,1.071,7.2-8.245,9.412Z" transform="translate(-273.962 -338.19)" fill="#81d8d0"/><path d="M447.58,531.408s1.189-9.107,12.483-6.838c0,0,.34,7.84-10.575,8.924Z" transform="translate(-263.943 -327.373)" fill="#81d8d0"/><path d="M434.35,510.679s2.23-8.929,13.419-6.694c0,0-2.334,8.023-12.631,8.276Z" transform="translate(-256.47 -315.755)" fill="#81d8d0"/><path d="M421.76,489.942s2.178-9.242,12.966-6.9c0,0-3.241,8.824-12.2,8.437Z" transform="translate(-249.357 -303.919)" fill="#81d8d0"/><path d="M413.39,467.615s1.5-11.25,11.59-9.168c0,0-2.509,10.288-10.784,10.767Z" transform="translate(-244.628 -290.106)" fill="#81d8d0"/><path d="M405.35,444.531s1.886-11.364,12.1-8.471c0,0-3.55,10.806-11.324,10.018Z" transform="translate(-240.087 -277.347)" fill="#81d8d0"/><path d="M400.08,419.211s3.249-11.416,11.072-11.411c0,0-3.31,12.052-10.331,13.646Z" transform="translate(-237.109 -261.66)" fill="#81d8d0"/><path d="M396.45,395.519s3.484-13.724,9.878-12.923c0,0-2.374,10.479-9.582,15.027Z" transform="translate(-235.058 -247.413)" fill="#81d8d0"/><path d="M393.86,370.623s3.319-11.455,9.582-12.143c0,0-2.13,11.224-9.325,15.075Z" transform="translate(-233.595 -233.818)" fill="#81d8d0"/><path d="M391.19,346.772s4.247-11.5,8.384-11.912c0,0-1.607,11.224-7.9,13.755Z" transform="translate(-232.086 -220.484)" fill="#81d8d0"/><path d="M389.13,322.1s2.409-12.409,6.507-13.585c0,0-.179,10.079-6.054,14.486Z" transform="translate(-230.922 -205.615)" fill="#81d8d0"/><path d="M384.42,295.388s2.652-9.918,5.95-11.538c0,0-.222,11.577-5.079,13.9Z" transform="translate(-228.261 -191.688)" fill="#81d8d0"/><path d="M379.062,268.7,377.79,251.44s6.755,12.805,1.834,20.279Z" transform="translate(-224.514 -173.392)" fill="#81d8d0"/><path d="M360.178,235.076s-4.991-12.444-6.1-13.106c0,0,9.147,7.84,8.711,18.411Z" transform="translate(-211.122 -156.756)" fill="#81d8d0"/><path d="M455.122,560.657s-7.979-.732-7.313,10.479c0,0,7.221.871,9.208-8.476Z" transform="translate(-264.049 -347.945)" fill="#81d8d0"/><path d="M436.2,540.08s-9.177.322-7.988,11.76c0,0,7.753,1.08,9.883-9.678Z" transform="translate(-252.941 -336.334)" fill="#81d8d0"/><path d="M416.814,520.754s-8.48-3.589-13.424,6.694c0,0,7.818,2.962,14.221-5.1Z" transform="translate(-238.98 -325.082)" fill="#81d8d0"/><path d="M404.079,498.661s-8.689-3.829-13.319,6.211c0,0,9,2.718,14.081-4.678Z" transform="translate(-231.845 -312.547)" fill="#81d8d0"/><path d="M394.542,476.285s-8.506-7.526-14.752.653c0,0,8.633,6.128,15.2,1.076Z" transform="translate(-225.648 -298.537)" fill="#81d8d0"/><path d="M387.293,451.37s-8.567-7.7-14.743.932c0,0,9.521,6.224,15.1.736Z" transform="translate(-221.558 -284.469)" fill="#81d8d0"/><path d="M383.667,423.24s-6.747-9.765-14.147-7.248c0,0,7,10.349,14.164,9.582Z" transform="translate(-219.846 -266.05)" fill="#81d8d0"/><path d="M380.191,398.851s-6.895-12.37-12.871-9.948c0,0,4.991,9.517,13.119,12.06Z" transform="translate(-218.603 -250.815)" fill="#81d8d0"/><path d="M377.843,373.991s-6.969-9.674-13.093-8.223c0,0,5.767,9.857,13.842,11.072Z" transform="translate(-217.151 -237.848)" fill="#81d8d0"/><path d="M380.211,347.529s-5.531-10.941-9.691-10.889c0,0,2.879,10.967,9.417,12.766Z" transform="translate(-220.41 -221.489)" fill="#81d8d0"/><path d="M376.135,324.978s-6.1-11.063-10.375-10.919c0,0,3.275,9.534,10.222,11.921Z" transform="translate(-217.721 -208.74)" fill="#81d8d0"/><path d="M376,298.762s-4.6-9.173-8.158-10.092c0,0,2.557,11.294,7.788,12.587Z" transform="translate(-218.895 -194.409)" fill="#81d8d0"/><path d="M366.5,272.094,356.46,258s2.979,14.164,11.533,16.791Z" transform="translate(-212.467 -177.095)" fill="#81d8d0"/><path d="M347.95,244.032s-11.324-7.191-11.76-8.4c0,0,6.037,10.453,16.507,11.93Z" transform="translate(-201.018 -164.467)" fill="#81d8d0"/><path d="M340.169,232.149S327.042,220.463,323.81,220.6c0,0,10.453.078,16.638,10.889Z" transform="translate(-194.024 -155.981)" fill="#81d8d0"/><path d="M371.656,275.857l-.462.078c-3.092-18.533-6.969-29.409-10.954-30.619l.135-.436C364.587,246.152,368.485,256.871,371.656,275.857Z" transform="translate(-214.603 -169.69)" fill="#444053"/><path d="M390.849,358.617l-.693.087c-.213-1.742-.392-3.511-.54-5.279-1.254-15.392-2.827-29.509-4.586-40.071l.383-.514c1.742,10.58,3.646,25.114,4.9,40.506C390.457,355.128,390.64,356.9,390.849,358.617Z" transform="translate(-228.605 -208.055)" fill="#444053"/><path d="M453.884,498.533c-.126-.052-12.6-5.057-25.841-17.64a101.212,101.212,0,0,1-19.36-25.314c-6.346-11.76-10.5-26.36-12.252-40.628l.74.314c3.92,32.022,19.4,53.425,31.486,64.923,13.106,12.47,25.445,17.422,25.567,17.479Z" transform="translate(-235.065 -265.703)" fill="#444053"/><g transform="translate(192.132 43.495)" opacity="0.7"><path d="M548.25,573.6s5.6-1.851,9.713,1.651c0,0-2.208,2.409-8.1.527Z" transform="translate(-512.922 -398.439)" fill="#81d8d0"/><path d="M544.978,574.25s-2.936,5.122-.322,9.852c0,0,2.8-1.686,2.134-7.84Z" transform="translate(-510.282 -399.084)" fill="#81d8d0"/><path d="M536.46,555.713s1.62-4.6,11.76-.179c0,0-.767,3.049-4.869,3.484S537.9,557.765,536.46,555.713Z" transform="translate(-506.267 -387.438)" fill="#81d8d0"/><path d="M530.1,558s-4.865.231-3.554,11.233c0,0,3.127.139,4.717-3.667S531.65,559.943,530.1,558Z" transform="translate(-500.547 -389.911)" fill="#81d8d0"/><path d="M525.35,532.316s1.481-7.875,12.082-4.164c0,0-1.119,7.187-10.671,6.533Z" transform="translate(-499.996 -372.503)" fill="#81d8d0"/><path d="M514.34,508.451s3.846-8.341,13.938-2.814c0,0-2,7.565-12.749,5.37Z" transform="translate(-493.782 -359.288)" fill="#81d8d0"/><path d="M507.93,485.028s4.791-7.862,14.809-2.4c0,0-4.617,6.969-14.521,4.164Z" transform="translate(-490.164 -346.278)" fill="#81d8d0"/><path d="M502,461.413s4.817-8.18,14.439-2.735c0,0-5.719,7.461-14.164,4.425Z" transform="translate(-486.817 -332.794)" fill="#81d8d0"/><path d="M499.83,437.573s4.791-10.3,13.781-5.3c0,0-5.457,9.073-13.5,7.069Z" transform="translate(-485.592 -318.171)" fill="#81d8d0"/><path d="M499.2,413.088s5.183-10.288,14.073-4.486c0,0-6.607,9.26-13.8,6.172Z" transform="translate(-485.236 -304.583)" fill="#81d8d0"/><path d="M500.76,388.181s6.5-9.931,13.964-7.6c0,0-6.747,10.523-13.938,9.957Z" transform="translate(-486.117 -289.568)" fill="#81d8d0"/><path d="M503.305,364.044s7.4-12.069,13.276-9.395c0,0-5.388,9.295-13.611,11.494Z" transform="translate(-487.364 -274.912)" fill="#81d8d0"/><path d="M508.176,339.711s6.577-9.944,12.753-8.742c0,0-5.37,10.083-13.389,11.621Z" transform="translate(-489.944 -261.708)" fill="#81d8d0"/><path d="M513.513,315.755s7.478-9.717,11.551-8.881c0,0-4.874,10.235-11.634,10.784Z" transform="translate(-493.268 -248.135)" fill="#81d8d0"/><path d="M518.35,290.932s5.989-11.128,10.257-11.033c0,0-3.171,9.582-10.1,12.03Z" transform="translate(-496.045 -232.938)" fill="#81d8d0"/><path d="M522.6,263.807s5.479-8.676,9.112-9.247c0,0-3.659,10.989-8.986,11.76Z" transform="translate(-498.444 -218.636)" fill="#81d8d0"/><path d="M524.328,234.442l3.92-16.852s2.644,14.23-4.269,19.918Z" transform="translate(-499.223 -197.768)" fill="#81d8d0"/><path d="M521.83,196.72s-1.063-13.367-1.93-14.33c0,0,6.416,10.218,2.831,20.166Z" transform="translate(-496.92 -177.899)" fill="#81d8d0"/><path d="M511.626,538.141s-7.4-3.079-10.1,7.84c0,0,6.625,3,11.324-5.353Z" transform="translate(-486.551 -378.476)" fill="#81d8d0"/><path d="M499.268,513.367s-8.855-2.422-11.128,8.868c0,0,7.078,3.341,12.317-6.3Z" transform="translate(-478.993 -364.595)" fill="#81d8d0"/><path d="M488.1,489.577s-7.025-5.95-14.809,2.4c0,0,6.581,5.153,15.092-.636Z" transform="translate(-470.611 -350.131)" fill="#81d8d0"/><path d="M482.661,464.519s-7.152-6.242-14.561,1.977c0,0,7.783,5.27,14.835-.283Z" transform="translate(-467.682 -335.865)" fill="#81d8d0"/><path d="M481.417,439.448s-5.884-9.717-14.277-3.768c0,0,6.416,8.424,14.186,5.549Z" transform="translate(-467.14 -319.78)" fill="#81d8d0"/><path d="M481.773,413.561s-5.889-9.9-14.373-3.484c0,0,7.239,8.776,14.2,5.2Z" transform="translate(-467.287 -305.196)" fill="#81d8d0"/><path d="M488.11,383.855s-3.532-11.324-11.35-11.128c0,0,3.611,11.969,10.671,13.385Z" transform="translate(-472.57 -285.333)" fill="#81d8d0"/><path d="M492.1,359.4s-2.905-13.859-9.33-13.324c0,0,1.934,10.571,8.938,15.414Z" transform="translate(-475.962 -270.285)" fill="#81d8d0"/><path d="M497.317,334.76S493.541,323.436,487.26,323c0,0,2.578,11.133,9.922,14.691Z" transform="translate(-478.497 -257.266)" fill="#81d8d0"/><path d="M507.489,310.051s-2.025-12.091-6.015-13.271c0,0-.514,11.324,5.2,14.992Z" transform="translate(-486.513 -242.467)" fill="#81d8d0"/><path d="M510.375,287.312s-2.539-12.378-6.655-13.5c0,0,.287,10.074,6.215,14.421Z" transform="translate(-487.787 -229.501)" fill="#81d8d0"/><path d="M517.894,262.229S516.226,252.1,513.1,250.16c0,0-.919,11.547,3.689,14.338Z" transform="translate(-493.042 -216.152)" fill="#81d8d0"/><path d="M516.736,233.952l-5.4-16.442s-1.372,14.412,6.015,19.465Z" transform="translate(-492.032 -197.723)" fill="#81d8d0"/><path d="M507.521,201.635s-8.672-10.236-8.711-11.525c0,0,2.653,11.76,12.2,16.3Z" transform="translate(-485.016 -182.257)" fill="#81d8d0"/><path d="M503.585,187.978s-9.055-15.066-12.2-15.9c0,0,9.965,3.188,12.631,15.349Z" transform="translate(-480.828 -172.08)" fill="#81d8d0"/><path d="M520.492,239.111l-.462-.065c2.561-18.611,2.082-30.153-1.35-32.492l.266-.383C522.583,208.648,523.118,220.034,520.492,239.111Z" transform="translate(-496.232 -191.322)" fill="#444053"/><path d="M503.028,323.927l-.688-.126c.314-1.72.666-3.484,1.058-5.2,3.38-15.066,6.1-29.012,7.539-39.635l.518-.375c-1.463,10.623-3.99,25.062-7.378,40.145C503.695,320.477,503.337,322.215,503.028,323.927Z" transform="translate(-487.008 -232.199)" fill="#444053"/><path d="M530.139,476.129c-.1-.083-10.532-8.58-19.421-24.526a101.079,101.079,0,0,1-10.972-29.931c-2.561-13.119-2.178-28.311.388-42.432l.614.518c-5.771,31.743,2.613,56.779,10.745,71.352,8.8,15.8,19.108,24.208,19.212,24.291Z" transform="translate(-484.562 -289.011)" fill="#444053"/></g><path d="M195.357,396.908a16.551,16.551,0,0,1-3.175.949,31.913,31.913,0,0,1-5.762.544c.057.51.1.984.144,1.416.1,1.185.165,2,.165,2l-2.043-.139-16.847-1.15-9.852-1.459a18.385,18.385,0,0,0,1.546,1.816,8.151,8.151,0,0,0,1.969,1.529s8.89,7.2,10.427,7.265c.218,0,.287.218.253.562,3.741,0,15.375.544,12.148,7.021a5.161,5.161,0,0,1-2.644,2.574c-3.733,1.581-9.364-1.263-12.265-3.01-.283.553-.553,1.067-.793,1.507-.492.928-.836,1.542-.836,1.542l-.292-.209L152.551,409.02l-3.275-2.779a11.43,11.43,0,0,1-2.835-.492h0L146,405.61a.842.842,0,0,0-.048.118,6.1,6.1,0,0,0-.266,1.045v.157a12.244,12.244,0,0,0-.122,1.224c0,.279-.022.575-.022.871-.026,5.932,2.352,15.466,2.352,15.466s6.163,15.719,3.977,19.347h0a1.633,1.633,0,0,1-.436.47,4.326,4.326,0,0,0-1.472,2.731c-.814,3.85.614,9.726.614,9.726s-.131.218-.353.557a16.846,16.846,0,0,1-1.62,2.178c-.091.1-.187.213-.287.314a7.589,7.589,0,0,1-.871.784c.057.17.118.344.179.531s.139.479.2.74a10.619,10.619,0,0,1-.544,6.407,17.65,17.65,0,0,0-1.1,4.6h0a35.218,35.218,0,0,0,.222,8.667c-.065-.035-.122-.07-.187-.1q-7.226-3.776-14.247-7.888c-1.372-.793-2.735-1.6-4.09-2.417q-2.5-1.507-4.978-3.049-3.267-2.038-6.533-4.177l-1.019-.679-.392-.266c-.553-.37-1.1-.74-1.646-1.115a83.656,83.656,0,0,1-6.159-9.147c-.309-.553-.588-1.08-.819-1.564v-.026l-.148-.318-.614-.218h0c-1.154-.405-1.886-.688-1.886-.688h0a21.368,21.368,0,0,0,.758-5.967,18.071,18.071,0,0,0-5.588-13.337c-6.6-6.241-7.513-12.4-7.609-14.77v-.436a5.457,5.457,0,0,1,.026-.6l.505-.483c-1.281-.257-2.483-.375-2.483-.375s4.382-15.854,11.76-21.146c3.659-2.613,6.7-6.969,8.855-10.706A162.255,162.255,0,0,1,123.1,362.747l1.328-1.677.388-.492.083-.1.1-.139q-.27-.409-.549-.81l-.122-.179a4.433,4.433,0,0,1-1-2.783v-.253a3.344,3.344,0,0,1,.1-.514.5.5,0,0,0,.052.078c.623-1.812,3.023-2.613,4.791-3.615,4.168-2.343,5.945-7.47,6.838-12.239.693-3.711,1.267-7.87,4.142-10.253,1.855-1.533,4.356-2.038,6.233-3.559a11.681,11.681,0,0,0,2.648-3.4c.436-.74.81-1.507,1.215-2.247a22.673,22.673,0,0,1,7.522-8.48,12.5,12.5,0,0,1,10.858-1.437c1.363.518,2.613,1.307,3.92,1.886a15.267,15.267,0,0,0,2.491.775c2.661.623,5.462.784,7.962,1.895,4.064,1.8,6.708,5.793,9.12,9.582a45.657,45.657,0,0,1,4.329,7.709v-.3a11.058,11.058,0,0,1,.871,4.007,6.1,6.1,0,0,1-.187,1.742,4.991,4.991,0,0,1-2.709,3.105l-.2.1a8.727,8.727,0,0,1-.845.379c-.044.24-.091.483-.144.719-.022.1-.048.2-.074.3-.057.244-.122.483-.192.723a16.76,16.76,0,0,1-5.227,7.988,17.566,17.566,0,0,1-5.845,3.31c-.152.052-.314.091-.466.139a3.756,3.756,0,0,1-.549,1.015,2.933,2.933,0,0,1-.592.571,3.6,3.6,0,0,1-.436.253.586.586,0,0,1-.118.057c-1.568.706-3.715.152-5.227-.9-.078-.052-.152-.113-.226-.17a5,5,0,0,1-.083.78c-.044.27-.074.436-.122.662s-.065.335-.1.5-.052.27-.078.4l-.052.222a34.217,34.217,0,0,1-4.852,11.8,16.83,16.83,0,0,1-1.1,1.485l-1.08,1.646v.222a18.748,18.748,0,0,1-2.8,10.362,30.208,30.208,0,0,1-1.938,2.914l.244.144c2.439,1.389,7.248,3.859,10.288,3.65,0,0,11.5,1.485,12.831.74.183-.1.362.039.527.348,1.86-1.132,6.137-3.532,9.512-3.85,2.361-.227,4.281.562,4.639,3.484S197.822,395.849,195.357,396.908Z" transform="translate(-61.514 -206.451)" fill="url(#b)"/><path d="M155.8,633.643a9.547,9.547,0,0,1,.627,8.376,21.275,21.275,0,0,0-1.067,8.384c-1.372-.793-2.735-1.6-4.09-2.417q-2.5-1.507-4.978-3.049-3.267-2.038-6.533-4.177l-1.019-.679-.392-.266a.82.82,0,0,0-.126-.174,79.08,79.08,0,0,1-6.006-9.2c-.366-.679-.684-1.307-.936-1.882v-.03a3.665,3.665,0,0,1-.51-2.095,4.3,4.3,0,0,1,2.112-2.613c2.509-1.307,6.533-.1,10.514,1.821a72.7,72.7,0,0,1,9.817,5.98l.353.257.035.026c1.307.928,2.065,1.542,2.065,1.542A2.1,2.1,0,0,1,155.8,633.643Z" transform="translate(-84.899 -383.301)" fill="#fbbebe"/><path d="M154.309,632.319a9.547,9.547,0,0,1,.627,8.384,21.287,21.287,0,0,0-1.067,8.389q-2.056-1.2-4.09-2.422-2.5-1.507-4.978-3.049c-2.178-1.363-4.356-2.757-6.512-4.181l-1.019-.679-.392-.266a.944.944,0,0,0-.126-.174,78.3,78.3,0,0,1-6.006-9.2c-.366-.679-.684-1.307-.936-1.882v-.026a3.677,3.677,0,0,1-.51-2.1,4.308,4.308,0,0,1,2.112-2.613c2.509-1.307,6.533-.1,10.514,1.821a72.7,72.7,0,0,1,9.817,5.98l.353.257.035.026c1.307.928,2.065,1.542,2.065,1.542S154.231,632.193,154.309,632.319Z" transform="translate(-84.069 -382.556)" opacity="0.05"/><path d="M185.246,645.428a10.636,10.636,0,0,1-.614,2.178,17.221,17.221,0,0,0-.989,3.92h0a34.634,34.634,0,0,0,.035,8.567q-7.226-3.776-14.247-7.888c-1.372-.793-2.735-1.6-4.09-2.417-.3-2.317-.74-4.356-1.233-4.856A86.735,86.735,0,0,1,157.5,634.84c-.3-.523-.553-1.028-.793-1.507v-.022c-.091-.192-.179-.375-.261-.558a4.974,4.974,0,0,1-.745-2.722,5.026,5.026,0,0,1,1.794-2.587c3.863-2.822,11.895,1,18.062,4.791l.152.091c1.167.727,2.274,1.446,3.267,2.117l.579.392c2.552,1.742,4.247,3.1,4.247,3.1a9.272,9.272,0,0,1,1.006,2.082,11.03,11.03,0,0,1,.362,1.263A10.528,10.528,0,0,1,185.246,645.428Z" transform="translate(-98.969 -385.104)" fill="#fbbebe"/><path d="M132.232,630.42c3.166,1.106,7.84,2.574,10.384,2.613a4.933,4.933,0,0,0,.788-.039h0c1.79-.244,7.309.148,12.374.605,2.03.178,3.985.366,5.6.531l4.059.436V633c-1.128-.775-2.439-1.638-3.842-2.509-6.189-3.824-14.321-7.731-18.215-4.887-5.484-2.648-11.05-3.92-12.631.793C130.568,627.01,131.234,628.569,132.232,630.42Z" transform="translate(-84.893 -383.277)" opacity="0.1"/><path d="M99.249,549.429c.087,2.348.967,8.441,7.269,14.6,8.04,7.84,4.613,19.112,4.613,19.112s9.582,3.763,13.716,3.863a4.933,4.933,0,0,0,.788-.039c2.478-.344,12.331.566,17.993,1.137l4.059.436V555.2l-44.4-10.784-4.02,4.007a7.841,7.841,0,0,0-.017,1Z" transform="translate(-67.125 -338.788)" fill="#5c5c8e"/><path d="M135.46,630.91" transform="translate(-87.569 -387.608)" fill="none"/><g transform="translate(32.115 205.654)" opacity="0.1"><path d="M185.855,643.179l.727.074v.357l-4.059-.436c-4.064-.409-10.275-.993-14.373-1.163C170.985,641.759,180.372,642.626,185.855,643.179Z" transform="translate(-138.136 -599.502)"/><path d="M99.266,548.477l4.02-4.007,2.683.649-3.349,3.358a7.838,7.838,0,0,0,0,1c.087,2.348.967,8.437,7.269,14.6,8.04,7.84,4.613,19.108,4.613,19.108s7.927,3.114,12.47,3.755a10.745,10.745,0,0,0-1.307.074,4.933,4.933,0,0,1-.788.039c-4.133-.1-13.716-3.868-13.716-3.868s3.428-11.268-4.613-19.108c-6.333-6.159-7.213-12.248-7.3-14.582A7.842,7.842,0,0,1,99.266,548.477Z" transform="translate(-99.24 -544.47)"/></g><path d="M303,496.14s13.428-9.312,14.408-.932-14.408,7.2-14.408,7.2Z" transform="translate(-182.268 -309.029)" fill="#fbbebe"/><path d="M237.146,487.7s7.261,4.791,11.281,4.508c0,0,10.976,1.472,12.252.736s2.06,10.636,2.06,10.636L244.7,502.3l-11.568-1.764s-5.784-3.528-5.784-6.568S237.146,487.7,237.146,487.7Z" transform="translate(-139.536 -306.765)" fill="#f7cddd"/><path d="M237.146,487.7s7.261,4.791,11.281,4.508c0,0,10.976,1.472,12.252.736s2.06,10.636,2.06,10.636L244.7,502.3l-11.568-1.764s-5.784-3.528-5.784-6.568S237.146,487.7,237.146,487.7Z" transform="translate(-139.536 -306.765)" fill="#81d8d0"/><path d="M269.928,543.32s16.329-.675,12.67,6.93-16.028-1.629-16.028-1.629Z" transform="translate(-161.688 -338.155)" fill="#fbbebe"/><path d="M236.58,472.9s13.232-9.9,11.372-21.956-11.372,9.216-11.372,9.216Z" transform="translate(-144.745 -283.93)" fill="#5c5c8e"/><path d="M245,358.965a16.743,16.743,0,0,0,10.453,15.5,15,15,0,0,0,2.152.714,16.964,16.964,0,0,0,2.374.436c.575.057,1.154.087,1.742.087a16.486,16.486,0,0,0,5.492-.954A16.725,16.725,0,1,0,245,358.965Z" transform="translate(-149.507 -224.642)" fill="#fbbebe"/><path d="M99.249,549.429c1.5.274,3.349.78,3.349,1.555,0,1.307,20.907,8.367,20.907,8.367s-.784,1.825,1.307,4.965,19.09,21.172,19.09,21.172l-.057.531-.218,2.078-1.037,9.935s6.533-2.352,8.624-2.091a2.846,2.846,0,0,0,2.086-.976,10.017,10.017,0,0,0-1.363-3.341s-1.694-1.333-4.251-3.1V555.2l-44.4-10.784-4.02,4.007a7.841,7.841,0,0,0-.017,1Z" transform="translate(-67.125 -338.789)" opacity="0.1"/><path d="M94.94,463.336s5.227.518,5.227,1.829,20.907,8.367,20.907,8.367-.784,1.825,1.307,4.965,19.09,21.172,19.09,21.172l-1.307,12.544s6.533-2.352,8.624-2.091c.936.118,1.969-.749,2.822-1.742a18.238,18.238,0,0,0,1.886-2.687s-2.356-9.939.784-12.291-3.4-19.6-3.4-19.6-2.957-12.265-2.086-17.527a6.4,6.4,0,0,1,.253-1.032.312.312,0,0,1,.039-.118C150.952,450.1,171,407.934,171,407.934a30.022,30.022,0,0,0-.253-3.576c-.039-.331-.091-.675-.157-1.019a17.517,17.517,0,0,0-.405-1.86c-.113-.4-.235-.784-.379-1.15-.619-1.594-1.568-2.818-2.988-2.848a8.683,8.683,0,0,0-5.227-2.2c-2.7-.353-6.533,0-11.76,2.2-12.283,5.227-15.157,5.488-15.157,5.488l-6.176,8.088-1.272,1.664a159.982,159.982,0,0,0-12.592,19.116c-2.056,3.694-4.965,8-8.454,10.588C99.126,447.656,94.94,463.336,94.94,463.336Z" transform="translate(-64.697 -254.535)" fill="#81d8d0"/><path d="M168.742,482.3s-17.448,4.312-24.212,15.192Z" transform="translate(-92.688 -303.717)" opacity="0.1"/><path d="M184.445,526.18s-3.3,22.152-2.382,23.82S184.445,526.18,184.445,526.18Z" transform="translate(-113.783 -328.489)" opacity="0.1"/><path d="M189.909,545.065c1.272,1.664,6.424,14.508,6.424,14.508l-1.49,21.564-1.307,12.544s6.533-2.352,8.628-2.091c.932.118,1.969-.745,2.822-1.742-1.359-7.348-4.26-22.718-4.791-23.015-.693-.392-4.221-12.744-4.408-16.176s-5.1-11.168-5.1-11.168S188.633,543.4,189.909,545.065Z" transform="translate(-118.066 -336.006)" opacity="0.1"/><path d="M201.672,450.028c.318.98.823,6.664.823,6.664.357,5.013,4.146,6.651,6.5,7.174a6.4,6.4,0,0,1,.253-1.032c1.568-4.438,21.956-47.31,21.956-47.31a28.147,28.147,0,0,0-.814-6.455c-4.438-1.307-11.468.706-11.468.706-2.03-.266-8.654,12.91-8.654,12.91s-4.416,10.092-4.9,11.464,0,3.633-.2,4.417-2.26,1.463-2.552,2.548-.1,3.227-.3,3.619S201.332,449.048,201.672,450.028Z" transform="translate(-124.981 -262.131)" opacity="0.1"/><path d="M205.276,448.233c.322.98.823,6.664.823,6.664a7.4,7.4,0,0,0,5.227,6.808,11.021,11.021,0,0,0,3.136.627l3.153,2.735L232.167,475.8s5.427-10.018,3.955-10.083-9.961-7.187-9.961-7.187c-2.613-1.385-5.2-6.019-6.407-8.4a6.771,6.771,0,0,0,.157-.871c.527-4.438,11.5-21.429,11.5-21.429s4.242-5,5.9-14.251c.048-.209.078-.436.118-.649a7.089,7.089,0,0,0,.087-.871c.2-3.559-2.391-4.852-5.466-5.161h0a22.139,22.139,0,0,0-4.791.148,34.5,34.5,0,0,0-4.7.923c-1.307-.17-4.556,5.3-6.681,9.168h0c-1.146,2.1-1.969,3.741-1.969,3.741s-4.438,10.1-4.935,11.468,0,3.628-.2,4.417-2.261,1.464-2.548,2.548-.1,3.227-.3,3.619S204.945,447.253,205.276,448.233Z" transform="translate(-127.019 -261.121)" fill="#81d8d0"/><path d="M166.61,389.177c2.761,2.84,7.265,2.849,10.863,1.407s6.651-4.072,9.992-6.1c2.178-1.307,4.46-2.409,6.594-3.772h0c.314-.2.618-.409.915-.618,2.465-1.742,4.6-3.977,7.143-5.575a11.116,11.116,0,0,1,5.741-1.838,6.5,6.5,0,0,1,2.74.575,3.539,3.539,0,0,1,.436.226,11.9,11.9,0,0,1,2.308,1.742c.719.649,1.411,1.342,2.178,1.943.048-.209.078-.436.118-.649a7.1,7.1,0,0,0,.087-.871c.575.057,1.154.087,1.742.087a16.486,16.486,0,0,0,5.5-.976,1.221,1.221,0,0,1,.039-.213c.627-3.293,1.742-6.782,4.408-8.633,1.538-1.076,3.994-1.511,6.12-2.33a16.725,16.725,0,1,0-31.517,1.812c-2.7-.353-6.533,0-11.76,2.2-12.283,5.227-15.157,5.488-15.157,5.488l-6.141,8.1a6.939,6.939,0,0,1,1.49,3.214C170.587,386.607,168.461,388.127,166.61,389.177Z" transform="translate(-105.151 -224.654)" opacity="0.1"/><path d="M227.441,349.376c-2.653,1.855-3.781,5.34-4.408,8.628a6.786,6.786,0,0,1-1.01,2.927c-1.407,1.825-4.238,1.307-6.076,0s-3.284-3.293-5.336-4.221c-2.727-1.228-5.928-.331-8.476,1.267s-4.682,3.833-7.147,5.571c-2.382,1.681-5.039,2.879-7.522,4.39-3.336,2.034-6.385,4.66-9.987,6.1s-8.1,1.437-10.858-1.4c1.851-1.028,3.977-2.548,3.833-4.748s-2.709-3.85-2.535-6.1,2.827-3.145,4.73-4.251c3.985-2.317,5.662-7.4,6.533-12.108.662-3.672,1.207-7.779,3.955-10.135,1.768-1.52,4.168-2.017,5.95-3.519,1.69-1.429,2.613-3.593,3.693-5.584a22.179,22.179,0,0,1,7.178-8.393,11.588,11.588,0,0,1,10.375-1.416c1.307.51,2.474,1.307,3.754,1.86,3.18,1.376,6.825,1.193,9.979,2.639,3.881,1.786,6.4,5.732,8.711,9.478,1.973,3.2,5.832,8.868,4.752,13.006C236.426,347.586,230.32,347.359,227.441,349.376Z" transform="translate(-105.157 -209.679)" fill="#7c5c5c"/><g transform="translate(61.446 127.979)" opacity="0.1"><path d="M169.589,420.21a2.7,2.7,0,0,1,.091-.51c.7,1.106,1.577,2.178,1.659,3.484a3.01,3.01,0,0,1-.074.893C170.487,422.823,169.481,421.651,169.589,420.21Z" transform="translate(-168.274 -396.354)"/><path d="M176.672,399.076c3.6-1.446,6.651-4.072,9.987-6.1,2.483-1.511,5.14-2.709,7.522-4.39,2.465-1.742,4.6-3.977,7.147-5.571s5.749-2.5,8.476-1.267c2.051.928,3.484,2.892,5.336,4.22s4.669,1.847,6.076.022a6.711,6.711,0,0,0,1.01-2.923c.627-3.293,1.742-6.777,4.408-8.633,2.883-2.012,8.985-1.786,10.092-6.032a6.533,6.533,0,0,0,.144-2.3,9.266,9.266,0,0,1,.645,5.44c-1.111,4.247-7.213,4.02-10.1,6.032-2.648,1.855-3.781,5.34-4.408,8.633A6.742,6.742,0,0,1,222,389.128c-1.411,1.825-4.242,1.307-6.1-.022s-3.284-3.293-5.336-4.22c-2.727-1.228-5.928-.327-8.476,1.267s-4.682,3.833-7.147,5.571c-2.382,1.686-5.039,2.879-7.522,4.39-3.336,2.038-6.385,4.66-9.987,6.1s-8.1,1.433-10.858-1.407a13.55,13.55,0,0,0,2.021-1.341A11.611,11.611,0,0,0,176.672,399.076Z" transform="translate(-166.58 -366.1)"/></g><path d="M549.275,316.672l-17.858-17.958a9.482,9.482,0,0,0-13.467-.091L405.812,409.81,358.4,362.026a9.456,9.456,0,0,0-13.371-.1l-18.049,17.858a9.582,9.582,0,0,0-.091,13.467l72.006,72.572a9.582,9.582,0,0,0,13.467.1L549.175,330.134a9.482,9.482,0,0,0,.1-13.463Z" transform="translate(-194.336 -198.485)" fill="#3acc6c"/><g transform="translate(316.053 262.157)" opacity="0.5"><path d="M763.815,674.228s-13.319-.8-11.76,8.533a2.278,2.278,0,0,0,1.185,2.4s0-.693,1.363-.457a6.018,6.018,0,0,0,1.45.07,2.992,2.992,0,0,0,1.768-.727h0s3.741-1.546,5.2-7.67c0,0,1.076-1.333,1.032-1.677l-2.247.963a4.013,4.013,0,0,1,.165,2.966s-.074-2.909-.505-2.84c-.087,0-1.167.562-1.167.562s1.307,2.822.322,4.878c0,0,.379-3.484-.736-4.674l-1.581.923s1.542,2.918.5,5.3c0,0,.27-3.65-.832-5.07l-1.433,1.115s1.45,2.875.566,4.852c0,0-.113-4.251-.871-4.573a8.7,8.7,0,0,0-1.446,1.564s.993,2.086.379,3.188c0,0-.379-2.835-.688-2.844a9.391,9.391,0,0,0-1.381,3.158,6.8,6.8,0,0,1,1.076-3.341,3.77,3.77,0,0,0-1.912.993s.192-1.307,2.221-1.446a8.785,8.785,0,0,1,1.307-1.507,8.187,8.187,0,0,0-3.24.375s1.076-1.254,3.606-.684l1.416-1.154a11.673,11.673,0,0,0-3.781.035s1.307-1.106,4.164-.3l1.542-.919a14.049,14.049,0,0,0-3.615-.314s1.424-.767,4.068.065l1.1-.5s-1.659-.327-2.147-.375-.51-.187-.51-.187a5.765,5.765,0,0,1,3.114.348A14.07,14.07,0,0,0,763.815,674.228Z" transform="translate(-751.928 -674.21)" fill="#81d8d0"/></g><g transform="translate(301.627 196.987)" opacity="0.5"><path d="M721.2,524.573s-6.764,11.5,2.269,14.343a2.282,2.282,0,0,0,2.674.035s-.605-.335.209-1.424a6.233,6.233,0,0,0,.723-1.259,3.049,3.049,0,0,0,.152-1.908h0s.318-4.038-4.473-8.114c0,0-.7-1.568-1.023-1.686L721.564,527a4.031,4.031,0,0,1,2.718,1.2s-2.613-1.254-2.761-.841c-.026.087-.031,1.307-.031,1.307s3.119.1,4.495,1.925c0,0-2.927-1.917-4.5-1.464l.1,1.829s3.3-.052,4.948,1.96c0,0-3.132-1.9-4.9-1.564l.344,1.786s3.223,0,4.578,1.694c0,0-3.837-1.825-4.469-1.307a9.982,9.982,0,0,0,.732,2s2.313.061,3.014,1.111c0,0-2.7-.95-2.848-.679a9.587,9.587,0,0,0,2.178,2.666,6.815,6.815,0,0,1-2.487-2.478,3.756,3.756,0,0,0,0,2.178s-1.093-.775-.274-2.613a8.671,8.671,0,0,1-.753-1.851,8.261,8.261,0,0,0-1.137,3.049s-.627-1.529,1.028-3.528l-.383-1.786a11.791,11.791,0,0,0-1.686,3.389s-.4-1.659,1.625-3.846l-.122-1.79a13.882,13.882,0,0,0-1.917,3.075s-.039-1.616,1.9-3.593l.061-1.206s-1.045,1.333-1.307,1.742-.4.37-.4.37a5.727,5.727,0,0,1,1.72-2.613A14.537,14.537,0,0,0,721.2,524.573Z" transform="translate(-718.766 -524.56)" fill="#81d8d0"/></g><g transform="translate(259.37 105.231)" opacity="0.5"><path d="M624.071,313.869s-6.76,11.507,2.269,14.343a2.273,2.273,0,0,0,2.674.035s-.605-.335.214-1.424a6.2,6.2,0,0,0,.719-1.259,3.018,3.018,0,0,0,.152-1.908h0s.322-4.038-4.473-8.114c0,0-.7-1.564-1.024-1.681l-.166,2.435a4.025,4.025,0,0,1,2.718,1.2s-2.613-1.254-2.757-.841c-.03.087-.03,1.307-.03,1.307s3.114.1,4.491,1.925c0,0-2.927-1.916-4.5-1.463l.109,1.829s3.3-.052,4.944,1.96c0,0-3.132-1.895-4.9-1.564l.344,1.786s3.223,0,4.582,1.7c0,0-3.842-1.829-4.473-1.307a9.762,9.762,0,0,0,.736,1.995s2.308.061,3.01,1.111c0,0-2.7-.95-2.844-.679a9.443,9.443,0,0,0,2.178,2.666,6.822,6.822,0,0,1-2.491-2.474,3.78,3.78,0,0,0,0,2.152s-1.093-.775-.274-2.635a8.67,8.67,0,0,1-.753-1.851,8.262,8.262,0,0,0-1.137,3.049s-.627-1.529,1.032-3.528l-.388-1.786a11.7,11.7,0,0,0-1.681,3.389s-.4-1.659,1.62-3.846l-.122-1.79a13.883,13.883,0,0,0-1.917,3.075s-.039-1.616,1.9-3.589l.061-1.211s-1.045,1.333-1.307,1.742-.4.37-.4.37a5.759,5.759,0,0,1,1.742-2.613A13.942,13.942,0,0,0,624.071,313.869Z" transform="translate(-621.641 -313.86)" fill="#81d8d0"/></g><g transform="translate(102.124 18.107)" opacity="0.5"><path d="M274.443,113.79s-25.175,18.293-8.511,32.784a5.316,5.316,0,0,0,5.688,2.565s-.984-1.281,1.781-2.849a14.187,14.187,0,0,0,2.709-2.021,7.012,7.012,0,0,0,2.1-3.92h0s4.451-8.336-2-21.516c0,0-.039-4-.627-4.556l-2.613,5.061s3.785,1.781,4.7,5.1c0,0-4.447-5.135-5.122-4.356-.135.152-1.272,2.744-1.272,2.744s6.573,3.127,7.818,8.3c0,0-4.477-6.829-8.276-7.326l-1.477,4.011s7.1,2.966,8.75,8.8c0,0-4.93-6.969-9.016-7.905l-.923,4.142s6.873,3.027,8.21,7.892c0,0-6.533-7.483-8.358-6.93,0,0-.618,3.85-.292,4.952,0,0,4.887,2.287,5.41,5.183,0,0-4.883-4.538-5.457-4.1,0,0,.531,5.227,2.2,7.74a15.924,15.924,0,0,1-3.018-7.613,8.815,8.815,0,0,0-1.973,4.621s-1.62-2.679,1.86-5.893c0,0-.248-4.094.122-4.66,0,0-3.885,2.687-5.283,5.475,0,0,.083-3.85,5.488-6.581l.836-4.177s-5.318,3.28-6.751,5.662c0,0,.693-3.92,7.047-6.716l1.411-3.942s-4.791,2.478-6.969,4.791c0,0,1.424-3.484,7.4-5.91l1.25-2.526s-3.484,1.873-4.421,2.5-1.2.436-1.2.436a13.4,13.4,0,0,1,6.124-3.994S274.735,113.995,274.443,113.79Z" transform="translate(-260.232 -113.79)" fill="#81d8d0"/></g><g transform="translate(54.382 74.67)" opacity="0.5"><path d="M187.972,247.472s-32.566-13.694-36.835,11c0,0-2.226,3.85.871,7.03,0,0,.666-1.707,3.815.057A16.19,16.19,0,0,0,159.378,267a8,8,0,0,0,5.061-.27h0s10.706-.579,19.717-14.591c0,0,3.859-2.387,4.055-3.284l-6.459.436s.5,4.726-2.178,7.561c0,0,2.374-7.335,1.233-7.539-.231-.044-3.41.375-3.41.375s.823,8.219-3.484,12.47c0,0,4-8.358,2.256-12.322l-4.761.919s1.307,8.646-3.406,13.672c0,0,3.872-8.885,2.378-13.4l-4.565,1.533s1.1,8.454-2.84,12.631c0,0,3.441-10.719,1.821-12.2,0,0-4.1,1.664-4.983,2.613,0,0,.653,6.1-1.855,8.3,0,0,1.542-7.4.78-7.709,0,0-4.769,3.589-6.224,6.686a18.111,18.111,0,0,1,5.623-7.4,9.985,9.985,0,0,0-5.662.8s1.651-3.14,6.816-1.651c0,0,3.829-2.652,4.6-2.613,0,0-4.887-2.178-8.419-1.908,0,0,3.785-2.178,9.613,1.459l4.543-1.646s-6.311-3.236-9.478-3.223c0,0,4.207-1.629,10.662,2.9l4.66-.963s-5.227-3.2-8.755-3.942c0,0,4.229-.671,10.1,3.724l3.188-.266s-3.859-2.274-5.026-2.827-1.115-.91-1.115-.91a15.2,15.2,0,0,1,7.478,3.6S187.941,247.877,187.972,247.472Z" transform="translate(-150.363 -243.685)" fill="#81d8d0"/></g><g transform="translate(40.861 26.237)" opacity="0.5"><path d="M150.95,150.115S139.4,123.429,122.8,135.668a4.939,4.939,0,0,0-3.484,4.66s1.368-.636,2.23,2.208a13.527,13.527,0,0,0,1.307,2.879,6.559,6.559,0,0,0,3.162,2.722h0s6.69,5.758,20.035,2.565c0,0,3.654.78,4.281.361l-4.081-3.428s-2.4,3.092-5.61,3.241c0,0,5.588-3.005,5.026-3.776-.113-.157-2.239-1.716-2.239-1.716s-4.194,5.349-9.147,5.431c0,0,7.139-2.692,8.358-6.032l-3.354-2.178s-4.212,5.893-9.87,6.2c0,0,7.361-3.071,9.046-6.607l-3.585-1.668s-4.164,5.662-8.872,5.876c0,0,8.149-4.408,8.023-6.207,0,0-3.384-1.35-4.456-1.272,0,0-3.079,3.985-5.828,3.872,0,0,5.135-3.524,4.852-4.138,0,0-4.878-.584-7.5.436a14.864,14.864,0,0,1,7.557-1.193,8.161,8.161,0,0,0-3.811-2.744s2.774-.928,4.991,2.9c0,0,3.785.61,4.225,1.063,0,0-1.655-4.09-3.92-5.932,0,0,3.484.871,4.883,6.346l3.637,1.616s-1.9-5.523-3.794-7.313c0,0,3.428,1.429,4.682,7.8l3.306,2.086s-1.281-4.878-2.949-7.33c0,0,2.892,2.012,3.876,7.966l2.047,1.655s-1-3.545-1.381-4.538-.139-1.176-.139-1.176a12.522,12.522,0,0,1,2.391,6.394S150.706,150.346,150.95,150.115Z" transform="translate(-119.32 -132.456)" fill="#81d8d0"/></g><g transform="translate(283.896 47.932)" opacity="0.5"><path d="M691.348,192.117s-2.722-13.067-11.324-9.1a2.273,2.273,0,0,0-2,1.773s.675-.161.8,1.2a6.251,6.251,0,0,0,.309,1.416,3.05,3.05,0,0,0,1.172,1.516h0s2.474,3.206,8.759,3.005c0,0,1.572.688,1.895.558l-1.52-1.916a4.021,4.021,0,0,1-2.818.936s2.788-.832,2.613-1.233c-.039-.083-.849-.98-.849-.98s-2.378,2.017-4.621,1.594c0,0,3.454-.549,4.316-1.938l-1.307-1.285s-2.413,2.256-4.983,1.869c0,0,3.593-.7,4.678-2.13l-1.455-1.089s-2.4,2.152-4.534,1.816c0,0,4.072-1.228,4.181-2.047a8.677,8.677,0,0,0-1.886-.984s-1.742,1.507-2.975,1.2c0,0,2.613-1.106,2.565-1.411a9.385,9.385,0,0,0-3.415-.5,6.843,6.843,0,0,1,3.506.161,3.736,3.736,0,0,0-1.459-1.585s1.333-.161,1.978,1.742a8.538,8.538,0,0,1,1.8.871,8.379,8.379,0,0,0-1.211-3.049s1.49.71,1.607,3.306l1.485,1.063a11.679,11.679,0,0,0-1.028-3.641s1.407.963,1.381,3.92l1.307,1.246a13.965,13.965,0,0,0-.645-3.567s1.111,1.172,1,3.92l.767.936s-.118-1.686-.2-2.178.044-.544.044-.544a5.758,5.758,0,0,1,.483,3.1A14.615,14.615,0,0,0,691.348,192.117Z" transform="translate(-678.02 -182.268)" fill="#81d8d0"/></g><g transform="translate(237.069 290.101)" opacity="0.5"><path d="M583.722,748.237S581,735.17,572.4,739.138a2.277,2.277,0,0,0-2.008,1.773s.675-.161.8,1.2a6.018,6.018,0,0,0,.314,1.416,3.048,3.048,0,0,0,1.167,1.516h0s2.474,3.206,8.763,3.005c0,0,1.572.688,1.89.557l-1.516-1.917a4.025,4.025,0,0,1-2.822.937s2.788-.832,2.613-1.233c-.035-.083-.849-.98-.849-.98s-2.378,2.017-4.621,1.594c0,0,3.458-.549,4.316-1.938l-1.307-1.307s-2.387,2.265-4.965,1.864c0,0,3.593-.7,4.678-2.13L577.4,742.4s-2.391,2.152-4.53,1.816c0,0,4.072-1.224,4.181-2.047a8.783,8.783,0,0,0-1.886-.984s-1.742,1.507-2.979,1.2c0,0,2.613-1.106,2.565-1.411a9.385,9.385,0,0,0-3.415-.5,6.857,6.857,0,0,1,3.511.161,3.768,3.768,0,0,0-1.459-1.585s1.328-.161,1.973,1.742a8.559,8.559,0,0,1,1.8.871,8.379,8.379,0,0,0-1.211-3.049s1.49.71,1.6,3.306l1.489,1.063a11.72,11.72,0,0,0-1.032-3.641s1.411.963,1.385,3.92l1.307,1.246a13.842,13.842,0,0,0-.649-3.567s1.115,1.172,1.006,3.92l.767.936s-.122-1.686-.2-2.178.044-.54.044-.54a5.736,5.736,0,0,1,.483,3.1A16.35,16.35,0,0,0,583.722,748.237Z" transform="translate(-570.39 -738.388)" fill="#81d8d0"/></g></g></svg>