<svg xmlns="http://www.w3.org/2000/svg" width="37.873" height="37.873" viewBox="0 0 37.873 37.873"><path d="M30.106,4.586H27.813A3.451,3.451,0,0,1,24.484,1.11,1.11,1.11,0,0,0,23.375,0H14.5a1.11,1.11,0,0,0-1.11,1.11A3.451,3.451,0,0,1,10.06,4.586H7.767A7.776,7.776,0,0,0,0,12.353V25.668a1.11,1.11,0,0,0,1.11,1.11H6.731v9.986a1.11,1.11,0,0,0,1.11,1.11H30.032a1.11,1.11,0,0,0,1.11-1.11V26.777h5.622a1.11,1.11,0,0,0,1.11-1.11V12.353A7.776,7.776,0,0,0,30.106,4.586ZM28.923,35.654H25.69A21.28,21.28,0,0,0,26.7,29a23.019,23.019,0,0,0-.264-3.5,1.11,1.11,0,1,0-2.193.338A20.806,20.806,0,0,1,24.484,29a18.8,18.8,0,0,1-1.152,6.657H14.541A18.8,18.8,0,0,1,13.389,29a20.8,20.8,0,0,1,.238-3.16,1.11,1.11,0,0,0-2.193-.338A23.029,23.029,0,0,0,11.17,29a21.278,21.278,0,0,0,1.014,6.657H8.95V20.979a8.169,8.169,0,0,0,4.493,1.36H14.5a6.429,6.429,0,0,0,4.441-1.763,6.43,6.43,0,0,0,4.442,1.763h1.051a8.17,8.17,0,0,0,4.493-1.36Zm6.731-11.1H31.142V18.9a11.27,11.27,0,0,0,1.891-4.064,1.11,1.11,0,1,0-2.156-.524c-.9,3.706-3.591,5.81-6.447,5.81H23.378a4.908,4.908,0,0,1-3.657-1.894,1.11,1.11,0,0,0-1.569,0A4.921,4.921,0,0,1,14.5,20.12H13.444c-2.851,0-5.545-2.1-6.447-5.81a1.11,1.11,0,0,0-2.156.524A11.266,11.266,0,0,0,6.731,18.9v5.66H2.219V12.353A5.554,5.554,0,0,1,7.767,6.805H10.06A5.647,5.647,0,0,0,15.5,2.219h6.874a5.647,5.647,0,0,0,5.439,4.586h2.293a5.554,5.554,0,0,1,5.548,5.548Z" fill="#1b9a8f"/></svg>