<svg xmlns="http://www.w3.org/2000/svg" width="32" height="32" viewBox="0 0 32 32"><circle cx="1.19" cy="1.19" r="1.19" transform="translate(22.12 11.677)" fill="#1b9a8f"/><path d="M27,2.5H25.375V1.25a1.25,1.25,0,1,0-2.5,0V2.5H17.187V1.25a1.25,1.25,0,0,0-2.5,0V2.5H9.062V1.25a1.25,1.25,0,1,0-2.5,0V2.5H5a5.006,5.006,0,0,0-5,5V27a5.006,5.006,0,0,0,5,5h9.562a1.25,1.25,0,1,0,0-2.5H5A2.5,2.5,0,0,1,2.5,27V7.5A2.5,2.5,0,0,1,5,5H6.562V6.25a1.25,1.25,0,1,0,2.5,0V5h5.625V6.25a1.25,1.25,0,0,0,2.5,0V5h5.687V6.25a1.25,1.25,0,1,0,2.5,0V5H27a2.5,2.5,0,0,1,2.5,2.5v7.125a1.25,1.25,0,1,0,2.5,0V7.5A5.006,5.006,0,0,0,27,2.5Z" fill="#1b9a8f"/><path d="M276.985,270a6.985,6.985,0,1,0,6.985,6.985A6.992,6.992,0,0,0,276.985,270Zm0,11.66a4.676,4.676,0,1,1,4.676-4.676A4.681,4.681,0,0,1,276.985,281.66Z" transform="translate(-251.969 -251.969)" fill="#1b9a8f"/><path d="M373.828,332.367h-.519v-1.212a1.154,1.154,0,0,0-2.309,0v2.367a1.154,1.154,0,0,0,1.154,1.154h1.674a1.154,1.154,0,1,0,0-2.309Z" transform="translate(-347.139 -309.079)" fill="#1b9a8f"/><circle cx="1.19" cy="1.19" r="1.19" transform="translate(16.905 11.677)" fill="#1b9a8f"/><circle cx="1.19" cy="1.19" r="1.19" transform="translate(11.677 16.867)" fill="#1b9a8f"/><circle cx="1.19" cy="1.19" r="1.19" transform="translate(6.487 11.677)" fill="#1b9a8f"/><circle cx="1.19" cy="1.19" r="1.19" transform="translate(6.487 16.867)" fill="#1b9a8f"/><circle cx="1.19" cy="1.19" r="1.19" transform="translate(6.487 22.106)" fill="#1b9a8f"/><circle cx="1.19" cy="1.19" r="1.19" transform="translate(11.677 22.106)" fill="#1b9a8f"/><circle cx="1.19" cy="1.19" r="1.19" transform="translate(11.677 11.677)" fill="#1b9a8f"/></svg>