<svg xmlns="http://www.w3.org/2000/svg" width="32.259" height="43" viewBox="0 0 32.259 43"><path d="M96.1,11.6a14.188,14.188,0,0,0-5.2-8.56,5.936,5.936,0,0,0-7.829-.209.41.41,0,0,1-.117-.091,3.313,3.313,0,0,1-.4-1.966.717.717,0,0,0-.664-.765c-.208-.015-5.08-.287-11.307,5.941l-.8.8a1.419,1.419,0,0,1-1.277.424c-.14-.029-.213-.067-.217-.051,0-.044.016-.312.5-.946a.716.716,0,0,0-1.079-.939c-.162.163-3.946,4.062-3.756,8.923A9.773,9.773,0,0,0,67.5,21.081l-.006,1.935c0,4.894.481,9.88,3.968,13.191a17.362,17.362,0,0,0,1.784,1.457v4.619a.717.717,0,1,0,1.433,0V38.654l.061.04.16.109.689.462c.272.184.537.38.8.575a6.607,6.607,0,0,0,4,1.726,6.61,6.61,0,0,0,4-1.725c.264-.2.53-.392.8-.576l.687-.461.074-.05.188-.125v3.655a.717.717,0,1,0,1.433,0V37.637a17.455,17.455,0,0,0,1.746-1.43c3.5-3.327,3.987-8.345,3.987-13.272V21.011C95.607,17.907,96.554,14.741,96.1,11.6Zm-4.228,9.188v2.15c0,4.608-.429,9.278-3.541,12.232a17.918,17.918,0,0,1-2.1,1.658c-.381.266-.765.526-1.15.784l-.7.47c-.288.195-.569.4-.849.61a5.44,5.44,0,0,1-3.15,1.445,4.766,4.766,0,0,1-2.775-1.169q-.187-.135-.375-.275c-.28-.207-.562-.415-.849-.61l-.678-.456c-.4-.264-.79-.532-1.181-.8a17.763,17.763,0,0,1-2.086-1.653c-3.249-3.084-3.521-7.888-3.521-12.149l.019-6.533a3.555,3.555,0,0,1,.282-1.4,2.864,2.864,0,0,1,.267-.483c.03-.045.064-.086.1-.129a3,3,0,0,1,.259-.3c.039-.039.077-.079.118-.115a3.007,3.007,0,0,1,.383-.295l.044-.031a3.194,3.194,0,0,1,.48-.239c.052-.021.105-.037.159-.056a3.464,3.464,0,0,1,.378-.108c.059-.012.118-.027.178-.036a3.778,3.778,0,0,1,.469-.047c.031,0,.062-.006.094-.006a3.609,3.609,0,0,1,.381.031c.085.009.168.007.253.022a3.674,3.674,0,0,1,.635.168,21.166,21.166,0,0,0,6.991.867,21.166,21.166,0,0,0,6.991-.867A3.354,3.354,0,0,1,91.249,14.5c.015.021.034.036.049.057a2.826,2.826,0,0,1,.3.533,3.562,3.562,0,0,1,.282,1.4v4.3Z" transform="translate(-63.954 0)" fill="#1b9a8f"/></svg>