<svg xmlns="http://www.w3.org/2000/svg" width="37.793" height="42" viewBox="0 0 37.793 42"><path d="M4.628,34.618a4.255,4.255,0,0,1-.985,2.275c-2.2,2.372-2.827,3.188-2.75,4.034a2.03,2.03,0,0,0,1.02,1.379,5.091,5.091,0,0,0,.729.42c.3.154.8.412.84.6a1.2,1.2,0,0,1-.077.7c-.1.219-.21.408-.3.573-.272.483-.684,1.214-.038,1.758.15.134.409.337.645.518a1.765,1.765,0,0,0-.225,1.014,1,1,0,0,0,.411.68,5.209,5.209,0,0,0,.49.3c.41.235.57.344.626.56a1.488,1.488,0,0,1-.059.793,3.963,3.963,0,0,0,.112,2.5,2.589,2.589,0,0,0,3.045,1.851,56.757,56.757,0,0,0,5.887-1.766,7.316,7.316,0,0,1,2.546,3.9,2.109,2.109,0,0,0,1.99,1.426H32.642A2.1,2.1,0,0,0,34.52,55.1a19.191,19.191,0,0,1-1.61-6.143,11.859,11.859,0,0,1,.91-6.146,15.285,15.285,0,0,1,1.85-2.933c1.384-1.871,2.954-3.989,3-7.6a21.009,21.009,0,0,0-.73-5.944,11.6,11.6,0,0,0-4.174-6.019c-5.514-4.339-10.265-5.135-18.826-3.16-2.323.536-4.955,1.354-6.851,3.359a13.289,13.289,0,0,0-2.8,4.578,18.468,18.468,0,0,0-.63,2.289l-.056.242a9.532,9.532,0,0,1-.618,1.64,4.206,4.206,0,0,0-.576,2.1,2.676,2.676,0,0,0,1.018,1.559c.343.314.568.535.57.736a1.3,1.3,0,0,1-.134.325,2.186,2.186,0,0,0-.241.633Zm.749-2.729c-.28-.259-.549-.5-.579-.719a4.529,4.529,0,0,1,.467-1.335,10.661,10.661,0,0,0,.7-1.9l.056-.244a17.524,17.524,0,0,1,.583-2.12,11.913,11.913,0,0,1,2.505-4.1,11.707,11.707,0,0,1,6.147-2.958c9.13-2.1,13.106-.674,17.649,2.9a10.1,10.1,0,0,1,3.69,5.3,19.6,19.6,0,0,1,.677,5.543c-.044,3.156-1.349,4.918-2.729,6.788a16.569,16.569,0,0,0-2.007,3.207,13.253,13.253,0,0,0-1.018,6.872,20.481,20.481,0,0,0,1.75,6.606.7.7,0,0,1-.629,1c-11.656.276-5.327.1-14.113,0a.71.71,0,0,1-.666-.484,10.315,10.315,0,0,0-2.3-3.989l.523-.183c.517-.182.91-.319,1.1-.381,2.993-.942,4.491-2.305,4.45-4.053a.682.682,0,0,0-.715-.683.7.7,0,0,0-.684.716c.017.722-.572,1.773-3.472,2.686-.205.064-.61.206-1.146.395-.5.176-1.12.395-1.8.63h0a57.973,57.973,0,0,1-6,1.816,1.24,1.24,0,0,1-1.437-.939,2.573,2.573,0,0,1-.07-1.715A2.81,2.81,0,0,0,6.368,49.1,2.309,2.309,0,0,0,5.08,47.664l-.149-.086a2.563,2.563,0,0,1,.268-.435.7.7,0,0,0-.134-.993c-.168-.125-.567-.425-.854-.654.036-.066.076-.14.113-.2.107-.19.23-.409.35-.659a2.589,2.589,0,0,0,.188-1.564c-.162-.859-.98-1.277-1.579-1.583a4.085,4.085,0,0,1-.528-.3,3.882,3.882,0,0,1-.463-.379c.012-.4,1.552-2.065,2.379-2.957a5.6,5.6,0,0,0,1.339-3,1.768,1.768,0,0,1,.106-.234,2.059,2.059,0,0,0,.286-.974,2.445,2.445,0,0,0-1.027-1.757Z" transform="translate(-0.887 -16.133)" fill="#1b9a8f"/></svg>