<svg xmlns="http://www.w3.org/2000/svg" width="52" height="34.907" viewBox="0 0 52 34.907"><path d="M47.505,0H4.494A4.5,4.5,0,0,0,0,4.495V30.412a4.5,4.5,0,0,0,4.494,4.495H47.505A4.5,4.5,0,0,0,52,30.412V4.495A4.5,4.5,0,0,0,47.505,0Zm2.95,30.412a2.954,2.954,0,0,1-2.95,2.95H4.494a2.953,2.953,0,0,1-2.95-2.95V4.495a2.953,2.953,0,0,1,2.95-2.95H47.505a2.954,2.954,0,0,1,2.95,2.95Zm0,0" fill="#1b9a8f"/><path d="M23.117,6.178H5.2a.772.772,0,0,0-.772.772V8.8a.772.772,0,0,0,1.545,0V7.723H22.345V26.567H5.973V11.893a.772.772,0,0,0-1.545,0V27.339a.773.773,0,0,0,.772.772H23.117a.773.773,0,0,0,.772-.772V6.951A.772.772,0,0,0,23.117,6.178Zm0,0" fill="#1b9a8f"/><path d="M47.006,7.969H27.648a.772.772,0,1,0,0,1.544H47.006a.772.772,0,0,0,0-1.544Zm0,0" fill="#1b9a8f"/><path d="M47.006,13.571H42.682a.772.772,0,0,0,0,1.544h4.325a.772.772,0,0,0,0-1.544Zm0,0" fill="#1b9a8f"/><path d="M27.648,15.116H39.592a.772.772,0,1,0,0-1.544H27.648a.772.772,0,1,0,0,1.544Zm0,0" fill="#1b9a8f"/><path d="M47.006,19.173H27.648a.772.772,0,1,0,0,1.544H47.006a.772.772,0,0,0,0-1.544Zm0,0" fill="#1b9a8f"/><path d="M38.151,24.776h-10.5a.772.772,0,1,0,0,1.544h10.5a.772.772,0,0,0,0-1.544Zm0,0" fill="#1b9a8f"/><path d="M8.753,24.867a.772.772,0,0,0,1.545,0,3.861,3.861,0,0,1,7.723,0,.772.772,0,0,0,1.544,0,5.407,5.407,0,0,0-2.625-4.634,5.406,5.406,0,1,0-5.562,0A5.408,5.408,0,0,0,8.753,24.867ZM10.3,15.6a3.861,3.861,0,1,1,3.861,3.861A3.866,3.866,0,0,1,10.3,15.6Zm0,0" fill="#1b9a8f"/></svg>