<svg xmlns="http://www.w3.org/2000/svg" width="34" height="36" viewBox="0 0 34 36"><g transform="translate(-5.975)"><g transform="translate(5.975 0)"><g transform="translate(0 0)"><path d="M27.834,5.027A6.75,6.75,0,0,0,21.31,0a6.808,6.808,0,0,0-5.886,3.383l-4.27,7.4v0l-4.27,7.4a6.776,6.776,0,0,0,11.4,7.295q.017-.025.033-.051l8.841-15.262A6.714,6.714,0,0,0,27.834,5.027ZM17.167,24.72a5.427,5.427,0,0,1-9.117-5.866l3.934-6.814,1.461.843h0l7.927,4.577ZM25.993,9.484l-3.944,6.809L14.7,12.052l1.888-3.269a.675.675,0,0,0-1.169-.675l-1.888,3.269-.877-.506,3.934-6.813A5.455,5.455,0,0,1,21.31,1.349a5.429,5.429,0,0,1,4.683,8.135Z" transform="translate(-5.975 0)" fill="#1b9a8f"/></g></g><g transform="translate(21.833 23.855)"><path d="M252.323,332.731a26,26,0,0,0-12.236,0c-1.958.559-2.951,1.347-2.953,2.34,0,0,0,0,0,0v6c0,1,.992,1.786,2.949,2.345a26.088,26.088,0,0,0,12.245,0c1.957-.559,2.949-1.348,2.949-2.345v-5.993s0,0,0,0C255.277,334.08,254.283,333.291,252.323,332.731Zm-11.865,1.3a24.7,24.7,0,0,1,11.494,0c1.627.465,1.973.964,1.975,1.045h0c0,.082-.35.581-1.975,1.045a24.7,24.7,0,0,1-11.494,0c-1.631-.466-1.975-.967-1.975-1.046S238.827,334.495,240.458,334.029Zm13.469,7.044c0,.1-.351.585-1.97,1.048a24.786,24.786,0,0,1-11.5,0c-1.619-.463-1.97-.951-1.97-1.048V336.8a8.3,8.3,0,0,0,1.6.618,26,26,0,0,0,12.236,0,8.3,8.3,0,0,0,1.6-.618v1.684a14.158,14.158,0,0,1-3.522,1.129.675.675,0,1,0,.258,1.325,16.447,16.447,0,0,0,3.265-.97Z" transform="translate(-237.134 -332.001)" fill="#1b9a8f"/></g><g transform="translate(16.419 6.278)"><path d="M160.543,89.235a.675.675,0,0,0-.922.247l-.011.019a.675.675,0,1,0,1.169.675l.011-.019A.675.675,0,0,0,160.543,89.235Z" transform="translate(-159.52 -89.145)" fill="#1b9a8f"/></g><g transform="translate(32.468 31.746)"><path d="M396.851,449.563a.674.674,0,0,0-.738-.6H396.1a.675.675,0,0,0,.063,1.346c.021,0,.043,0,.064,0l.022,0A.675.675,0,0,0,396.851,449.563Z" transform="translate(-395.486 -448.956)" fill="#1b9a8f"/></g></g></svg>